<?xml version="1.0" encoding="utf-8"?>
<!-- Generator: Adobe Illustrator 19.0.0, SVG Export Plug-In . SVG Version: 6.00 Build 0)  -->
<svg version="1.1" id="Layer_1" xmlns="http://www.w3.org/2000/svg" xmlns:xlink="http://www.w3.org/1999/xlink" x="0px" y="0px"
	 viewBox="0 0 1000 1000" style="enable-background:new 0 0 1000 1000;" xml:space="preserve">
<style type="text/css">
	.st0{fill:#E3E2D7;}
	.st1{fill:#3A527E;}
	.st2{fill:#132B48;}
	.st3{fill:#5282BD;}
	.st4{fill:#F8A843;}
	.st5{fill:#F59240;}
	.st6{fill:#FFD645;}
	.st7{fill:#B23516;}
	.st8{fill:#8D2915;}
	.st9{fill:#F04923;}
	.st10{fill:#F06C51;}
	.st11{fill:#ED1845;}
	.st12{fill:#EF6C74;}
	.st13{fill:#5957A5;}
	.st14{fill:#322D63;}
	.st15{fill:#6C71B5;}
	.st16{fill:#009674;}
	.st17{fill:#006650;}
	.st18{fill:#2BB892;}
</style>
<g id="XMLID_26_">
	<g id="XMLID_57_">
		<path id="XMLID_24_" class="st0" d="M858.5,748.4l54.2,14.2c0,0-14.1,63.4,8.6,93.6l-474.9,51.4c0,0-48.9-17.4-45.5-82.6
			c3.4-65.2,91.3-42.8,91.3-42.8L858.5,748.4z"/>
		<g id="XMLID_58_">
			<polygon id="XMLID_23_" class="st1" points="82.5,641.6 95.5,617.7 543.8,576.3 911.8,752.5 912.7,762.6 399.5,805.3 			"/>
			<path id="XMLID_22_" class="st2" d="M397,849.6c0,0,17.7,47.9,41.4,63.4l484-44.6l-1.1-12.2l-475.6,43.9c0,0-18.8-9.5-18.7-33.8
				c0.1-24.3,5.4-52.2,25.7-61.2l459.9-42.4l-0.9-10.1l-488.1,47L397,849.6z"/>
			<path id="XMLID_21_" class="st3" d="M95.5,617.7c0,0-52.9,58.2-0.8,110.2L438.4,913c0,0-48.1-52.2-2.2-115.2L95.5,617.7z"/>
		</g>
	</g>
	<g id="XMLID_51_">
		<path id="XMLID_20_" class="st0" d="M791.5,647.3l44.2,11.6c0,0-11.5,51.7,7,76.3l-387.4,41.9c0,0-39.9-14.2-37.1-67.4
			c2.8-53.2,74.5-34.9,74.5-34.9L791.5,647.3z"/>
		<g id="XMLID_52_">
			<polygon id="XMLID_19_" class="st4" points="158.4,560.1 169,540.6 534.8,506.8 835,650.6 835.7,658.8 417,693.6 			"/>
			<path id="XMLID_18_" class="st5" d="M415,729.8c0,0,14.4,39.1,33.8,51.7l394.9-36.4l-0.9-9.9l-388,35.8c0,0-15.3-7.8-15.2-27.6
				c0.1-19.8,4.4-42.6,21-49.9l375.2-34.6l-0.8-8.2l-398.2,38.3L415,729.8z"/>
			<path id="XMLID_17_" class="st6" d="M169,540.6c0,0-43.2,47.5-0.6,89.9l280.4,151c0,0-39.2-42.6-1.8-94L169,540.6z"/>
		</g>
	</g>
	<g id="XMLID_45_">
		<path id="XMLID_16_" class="st0" d="M839.2,551l44.2,11.6c0,0-11.5,51.7,7,76.3l-387.4,41.9c0,0-39.9-14.2-37.1-67.4
			c2.8-53.2,74.5-34.9,74.5-34.9L839.2,551z"/>
		<g id="XMLID_46_">
			<polygon id="XMLID_15_" class="st7" points="206.2,463.8 216.8,444.3 582.6,410.5 882.7,554.3 883.5,562.6 464.8,597.3 			"/>
			<path id="XMLID_14_" class="st8" d="M462.8,633.5c0,0,14.4,39.1,33.8,51.7l394.9-36.4l-0.9-9.9l-388,35.8c0,0-15.3-7.8-15.2-27.6
				c0.1-19.8,4.4-42.6,21-49.9l375.2-34.6l-0.8-8.2l-398.2,38.3L462.8,633.5z"/>
			<path id="XMLID_13_" class="st9" d="M216.8,444.3c0,0-43.2,47.5-0.6,89.9l280.4,151c0,0-39.2-42.6-1.8-94L216.8,444.3z"/>
		</g>
	</g>
	<g id="XMLID_39_">
		<path id="XMLID_12_" class="st0" d="M839.7,450.4l44.2,11.6c0,0-11.5,51.7,7,76.3l-387.4,41.9c0,0-39.9-14.2-37.1-67.4
			c2.8-53.2,74.5-34.9,74.5-34.9L839.7,450.4z"/>
		<g id="XMLID_40_">
			<polygon id="XMLID_11_" class="st10" points="206.6,363.3 217.2,343.7 583,310 883.1,453.8 883.9,462 465.2,496.8 			"/>
			<path id="XMLID_10_" class="st11" d="M463.2,533c0,0,14.4,39.1,33.8,51.7l394.9-36.4l-0.9-9.9l-388,35.8c0,0-15.3-7.8-15.2-27.6
				c0.1-19.8,4.4-42.6,21-49.9L883.9,462l-0.8-8.2l-398.2,38.3L463.2,533z"/>
			<path id="XMLID_9_" class="st12" d="M217.2,343.7c0,0-43.2,47.5-0.6,89.9l280.4,151c0,0-39.2-42.6-1.8-94L217.2,343.7z"/>
		</g>
	</g>
	<g id="XMLID_33_">
		<path id="XMLID_8_" class="st0" d="M806.6,349.2l44.2,11.6c0,0-11.5,51.7,7,76.3l-387.4,41.9c0,0-39.9-14.2-37.1-67.4
			c2.8-53.2,74.5-34.9,74.5-34.9L806.6,349.2z"/>
		<g id="XMLID_34_">
			<polygon id="XMLID_7_" class="st13" points="173.5,262.1 184.1,242.6 549.9,208.8 850,352.6 850.8,360.8 432.1,395.6 			"/>
			<path id="XMLID_6_" class="st14" d="M430.1,431.8c0,0,14.4,39.1,33.8,51.7l394.9-36.4l-0.9-9.9l-388,35.8c0,0-15.3-7.8-15.2-27.6
				c0.1-19.8,4.4-42.6,21-49.9l375.2-34.6l-0.8-8.2l-398.2,38.3L430.1,431.8z"/>
			<path id="XMLID_5_" class="st15" d="M184.1,242.6c0,0-43.2,47.5-0.6,89.9l280.4,151c0,0-39.2-42.6-1.8-94L184.1,242.6z"/>
		</g>
	</g>
	<g id="XMLID_27_">
		<path id="XMLID_4_" class="st0" d="M854.3,252.9l44.2,11.6c0,0-11.5,51.7,7,76.3l-387.4,41.9c0,0-39.9-14.2-37.1-67.4
			c2.8-53.2,74.5-34.9,74.5-34.9L854.3,252.9z"/>
		<g id="XMLID_28_">
			<polygon id="XMLID_3_" class="st16" points="221.3,165.8 231.9,146.3 597.6,112.5 897.8,256.3 898.6,264.5 479.9,299.3 			"/>
			<path id="XMLID_2_" class="st17" d="M477.8,335.5c0,0,14.4,39.1,33.8,51.7l394.9-36.4l-0.9-9.9l-388,35.8c0,0-15.3-7.8-15.2-27.6
				c0.1-19.8,4.4-42.6,21-49.9l375.2-34.6l-0.8-8.2l-398.2,38.3L477.8,335.5z"/>
			<path id="XMLID_1_" class="st18" d="M231.9,146.3c0,0-43.2,47.5-0.6,89.9l280.4,151c0,0-39.2-42.6-1.8-94L231.9,146.3z"/>
		</g>
	</g>
</g>
</svg>
