<?xml version="1.0" encoding="utf-8"?>
<!-- Generator: Adobe Illustrator 19.0.0, SVG Export Plug-In . SVG Version: 6.00 Build 0)  -->
<svg version="1.1" id="Layer_1" xmlns="http://www.w3.org/2000/svg" xmlns:xlink="http://www.w3.org/1999/xlink" x="0px" y="0px"
	 viewBox="0 0 500 500" style="enable-background:new 0 0 500 500;" xml:space="preserve">
<style type="text/css">
	.st0{fill:#DDDDDD;}
</style>
<path id="XMLID_3_" class="st0" d="M453.4,132.3c-36.8,0-73.6,0-110.4,0c-20.7,0-41.4,0-62.1,0c-20.8,0-41.6,0-62.4,0
	c-20.6,0-41.1-0.1-61.7,0c-1.8,0-3.5,0-5.3,0c-4.1,0-8.2,0-12.2-0.6c-4.1-0.6-8.6-1.8-11.7-4.6c-3.2-2.8-5.1-6.7-6.3-10.7
	c-2.1-7.3-3-14.8-4.5-22.2c-2.2-11-4-22-6.3-32.9c-1.1-5-7.6-9.6-13.5-9.7c-17.3-0.1-34.6-0.1-51.9,0c-6.6,0.1-10.7,5.6-9.6,12.6
	c0.8,4.9,1.9,9.9,3,14.7c1.5,6,7,10.2,13.8,10.6c3.5,0.2,7.1-0.2,10.6,0.3c10.1,1.7,15.9,8.3,17.8,19c1.6,9.4,3.2,18.7,5.1,28
	c2.8,13.6,4.7,27.3,7.1,40.9c2.2,12.5,4.7,24.9,7,37.4c2.1,11.7,4.1,23.3,6.2,35c4.5,25,9.2,49.9,13.8,74.8
	c2.7,14.6,5.1,29.2,8,43.8c2.1,10.8,3.2,21.8,6.2,32.4c1.2,4.4,4.1,8.1,8.4,9.7c5.6,2.1,12.4,1.1,18.2,1.2c1.6,0,3.4,0.1,4.5,1.2
	c1.2,1.2,1.2,3.2,1.3,5c0.4,9.1,5.7,17.9,13.6,22.4c12.3,7,28.7,3.1,36.1-9.1c2.1-3.5,3.4-7.1,3.4-11.4c0-7,1.4-8.2,8.2-8.2
	c29.9,0,59.8,0,89.7,0c1.8,0,4.4-0.4,5.8,1.1c0.9,1,0.8,2.2,0.8,3.4c0,8.3,3.9,16.4,10.3,21.7c7.2,5.9,16.9,7.6,25.6,4.6
	c2-0.7,4-1.6,5.8-2.7c6.9-4.3,13.4-12.9,12.5-21.5c-0.6-5.3,2-6.5,6.2-6.7c4-0.1,8.1,0,12.1,0c9.8,0,15.3-4.4,17-13.9
	c0.6-3.6,1.4-7.2,2.2-10.8c1.8-7.9-2.5-13-10.7-13.2c-5.7-0.1-11.4,0-17.1,0c-67.9,0-135.7-0.2-203.6,0.1
	c-14.5,0.1-23.8-16.8-20.8-28.3c1.8-6.7,6.2-9.5,14.1-9.5c41.2,0,82.3,0,123.5,0c36.6,0,73.2-0.3,109.8,0.1
	c14.6,0.1,18.2-7,20.1-18.1c2.7-15.1,5.4-30.2,8.6-45.2c2.9-13.7,5-27.6,7.5-41.4c1.7-9,3.7-18,5.3-27c3.5-20.2,7.6-40.3,11.7-60.4
	C465.9,136.9,461.8,132.3,453.4,132.3z"/>
</svg>
