<?xml version="1.0" encoding="utf-8"?>
<!-- Generator: Adobe Illustrator 19.0.0, SVG Export Plug-In . SVG Version: 6.00 Build 0)  -->
<svg version="1.1" id="Layer_1" xmlns="http://www.w3.org/2000/svg" xmlns:xlink="http://www.w3.org/1999/xlink" x="0px" y="0px"
	 viewBox="0 0 1000 1000" style="enable-background:new 0 0 1000 1000;" xml:space="preserve">
<style type="text/css">
	.st0{clip-path:url(#XMLID_49_);fill:url(#XMLID_51_);}
	.st1{opacity:0.4392;clip-path:url(#XMLID_52_);}
	.st2{clip-path:url(#XMLID_54_);fill:#BA620F;}
	.st3{clip-path:url(#XMLID_56_);fill:url(#XMLID_57_);}
	.st4{opacity:0.2588;clip-path:url(#XMLID_59_);}
	.st5{clip-path:url(#XMLID_60_);fill:#326F7D;}
	.st6{clip-path:url(#XMLID_62_);fill:url(#XMLID_64_);}
	.st7{clip-path:url(#XMLID_65_);fill:url(#XMLID_66_);}
	.st8{opacity:0.3686;clip-path:url(#XMLID_67_);}
	.st9{clip-path:url(#XMLID_68_);fill:#B56100;}
	.st10{clip-path:url(#XMLID_69_);fill:url(#XMLID_70_);stroke:#969696;stroke-miterlimit:10;}
	.st11{opacity:0.3294;clip-path:url(#XMLID_71_);}
	.st12{clip-path:url(#XMLID_72_);fill:#A8A8A8;}
	.st13{clip-path:url(#XMLID_73_);fill:url(#XMLID_74_);stroke:#AAAAAA;stroke-miterlimit:10;}
	.st14{clip-path:url(#XMLID_75_);fill:#474BAC;}
	.st15{clip-path:url(#XMLID_76_);fill:url(#XMLID_77_);}
	.st16{clip-path:url(#XMLID_79_);fill:#474BAC;}
	.st17{clip-path:url(#XMLID_80_);fill:url(#XMLID_82_);}
	.st18{fill:none;}
</style>
<g id="XMLID_117_">
	<defs>
		<path id="XMLID_46_" d="M335.5,164.6l-33.7,614.6c-1,18.4,12.5,34.1,30.1,35.1l387.4,21.2l7.1,0.4c17.7,1,32.8-13.2,33.8-31.6v0
			l12.4-227l8.5-155l26.4,1.4c17.7,1,32.8-13.2,33.8-31.6l8.5-155.5c1-18.4-12.5-34.1-30.1-35.1l-26.4-1.4l0.6-10.4
			c1-18.4-12.5-34.1-30.1-35.1l-12.9-0.7L369.3,133c-0.6,0-1.1,0-1.7,0C350.7,133,336.5,146.8,335.5,164.6"/>
	</defs>
	<clipPath id="XMLID_49_">
		<use xlink:href="#XMLID_46_"  style="overflow:visible;"/>
	</clipPath>
	
		<linearGradient id="XMLID_51_" gradientUnits="userSpaceOnUse" x1="-998.809" y1="1995.8994" x2="-998.359" y2="1995.8994" gradientTransform="matrix(522.6991 2052.2817 2052.2817 -522.6991 -3573620.25 3093086.5)">
		<stop  offset="0" style="stop-color:#F1D83A"/>
		<stop  offset="1" style="stop-color:#FF8A14"/>
	</linearGradient>
	<polygon id="XMLID_47_" class="st0" points="817.5,1.4 1019.4,794 334.4,968.5 132.5,175.9 	"/>
</g>
<g id="XMLID_111_">
	<defs>
		<rect id="XMLID_43_" x="-255.2" y="-249" width="1350" height="1345.5"/>
	</defs>
	<clipPath id="XMLID_52_">
		<use xlink:href="#XMLID_43_"  style="overflow:visible;"/>
	</clipPath>
	<g id="XMLID_113_" class="st1">
		<g id="XMLID_114_">
			<defs>
				<rect id="XMLID_44_" x="293.3" y="132.6" width="470.9" height="702.6"/>
			</defs>
			<clipPath id="XMLID_54_">
				<use xlink:href="#XMLID_44_"  style="overflow:visible;"/>
			</clipPath>
			<path id="XMLID_45_" class="st2" d="M764.2,576.9l-12.4,227c-0.6,0-1.2,0-1.8-0.1l-28.2-1.7l-0.6,10.6
				c-0.5,8.8-4.4,16.7-10.3,22.4l-387.4-21.2c-17.7-1-31.2-16.7-30.1-35.1L327,164.2c1-18.4,16.1-32.6,33.8-31.6l381.6,20.9
				c10.7,6.3,17.6,18.2,16.8,31.5l-23.6,390.1l28.2,1.7C763.9,576.9,764,576.9,764.2,576.9"/>
		</g>
	</g>
</g>
<g id="XMLID_108_">
	<defs>
		<polygon id="XMLID_41_" points="642.8,818.8 718.8,823.3 742.3,824.7 743.6,803.5 757.2,576.5 780.5,190.5 758.9,189.2 
			680.7,184.5 		"/>
	</defs>
	<clipPath id="XMLID_56_">
		<use xlink:href="#XMLID_41_"  style="overflow:visible;"/>
	</clipPath>
	
		<linearGradient id="XMLID_57_" gradientUnits="userSpaceOnUse" x1="-998.9818" y1="1995.87" x2="-998.5318" y2="1995.87" gradientTransform="matrix(1137.0529 1601.5511 1601.5511 -1137.0529 -2060085.625 3869546.5)">
		<stop  offset="0" style="stop-color:#FFFFFF"/>
		<stop  offset="1" style="stop-color:#CFF9FF"/>
	</linearGradient>
	<polygon id="XMLID_42_" class="st3" points="734.4,119.5 1082.7,610.2 689,889.7 340.6,399.1 	"/>
</g>
<g id="XMLID_102_">
	<defs>
		<rect id="XMLID_38_" x="-255.2" y="-249" width="1350" height="1345.5"/>
	</defs>
	<clipPath id="XMLID_59_">
		<use xlink:href="#XMLID_38_"  style="overflow:visible;"/>
	</clipPath>
	<g id="XMLID_104_" class="st4">
		<g id="XMLID_105_">
			<defs>
				<rect id="XMLID_39_" x="642.8" y="184.5" width="121.4" height="638.8"/>
			</defs>
			<clipPath id="XMLID_60_">
				<use xlink:href="#XMLID_39_"  style="overflow:visible;"/>
			</clipPath>
			<path id="XMLID_40_" class="st5" d="M764.2,576.9l-12.4,227c-0.6,0-1.2,0-1.8-0.1l-6.4-0.4l-21.8-1.3l-0.6,10.6
				c-0.2,3.7-1,7.3-2.4,10.6l-76-4.5l37.8-634.3l78.3,4.7l-23.4,386l21.7,1.3l6.5,0.4C763.9,576.9,764,576.9,764.2,576.9"/>
		</g>
	</g>
</g>
<g id="XMLID_99_">
	<defs>
		<path id="XMLID_36_" d="M259.1,143.1l-38,627.7c-1.1,18.8,13.2,35,32,36.1l420.3,25.5c18.8,1.1,35-13.2,36.1-32l0.6-10.6l28.2,1.7
			c18.8,1.1,35-13.2,36.1-32l9.6-158.8c1.1-18.8-13.2-35-32-36.1l-28.2-1.7l23.6-390.1c1.1-18.8-13.2-35-32-36.1l-420.3-25.5
			c-0.7,0-1.4-0.1-2.1-0.1C275.2,111.1,260.2,125,259.1,143.1"/>
	</defs>
	<clipPath id="XMLID_62_">
		<use xlink:href="#XMLID_36_"  style="overflow:visible;"/>
	</clipPath>
	
		<linearGradient id="XMLID_64_" gradientUnits="userSpaceOnUse" x1="-998.8044" y1="1996.0284" x2="-998.3545" y2="1996.0284" gradientTransform="matrix(1037.4226 2111.8665 -2111.8665 1037.4226 5251791.5 38602.0039)">
		<stop  offset="0" style="stop-color:#F1D83A"/>
		<stop  offset="1" style="stop-color:#FF8A14"/>
	</linearGradient>
	<polygon id="XMLID_37_" class="st6" points="-66,251.5 329.8,1057.3 1071.2,693.1 675.3,-112.6 	"/>
</g>
<g id="XMLID_96_">
	<defs>
		<polygon id="XMLID_34_" points="811.7,385.4 826.4,386.3 835.7,231.5 821,230.6 		"/>
	</defs>
	<clipPath id="XMLID_65_">
		<use xlink:href="#XMLID_34_"  style="overflow:visible;"/>
	</clipPath>
	
		<linearGradient id="XMLID_66_" gradientUnits="userSpaceOnUse" x1="-1002.2556" y1="1990.849" x2="-1001.8057" y2="1990.849" gradientTransform="matrix(20.8988 541.1771 97.4284 -377.5222 -172199.3438 1294198.5)">
		<stop  offset="0" style="stop-color:#FFFFFF"/>
		<stop  offset="1" style="stop-color:#CFF9FF"/>
	</linearGradient>
	<polygon id="XMLID_35_" class="st7" points="832.6,149.9 840.9,366 814.9,467 806.5,250.9 	"/>
</g>
<g id="XMLID_90_">
	<defs>
		<rect id="XMLID_31_" x="-255.2" y="-249" width="1350" height="1345.5"/>
	</defs>
	<clipPath id="XMLID_67_">
		<use xlink:href="#XMLID_31_"  style="overflow:visible;"/>
	</clipPath>
	<g id="XMLID_92_" class="st8">
		<g id="XMLID_93_">
			<defs>
				<rect id="XMLID_32_" x="238.6" y="151.8" width="448.2" height="648.9"/>
			</defs>
			<clipPath id="XMLID_68_">
				<use xlink:href="#XMLID_32_"  style="overflow:visible;"/>
			</clipPath>
			<polygon id="XMLID_33_" class="st9" points="686.8,156.7 677.9,800.6 238.6,795.8 245.7,151.8 			"/>
		</g>
	</g>
</g>
<g id="XMLID_87_">
	<defs>
		<polygon id="XMLID_29_" points="234.6,167.8 227.8,784.4 583.1,788.3 667.1,789.3 676,145.3 617.8,144.6 563.5,144 234.9,140.4 		
			"/>
	</defs>
	<clipPath id="XMLID_69_">
		<use xlink:href="#XMLID_29_"  style="overflow:visible;"/>
	</clipPath>
	
		<linearGradient id="XMLID_70_" gradientUnits="userSpaceOnUse" x1="-998.8432" y1="1995.9927" x2="-998.3932" y2="1995.9927" gradientTransform="matrix(1640.3401 2196.9072 2196.9072 -1640.3401 -2746411.5 5468541.5)">
		<stop  offset="0" style="stop-color:#FFFFFF"/>
		<stop  offset="1" style="stop-color:#CFF9FF"/>
	</linearGradient>
	<polygon id="XMLID_30_" class="st10" points="515.5,-74.5 987,557 388.2,1004.1 -83.3,372.7 	"/>
	<use xlink:href="#XMLID_29_"  style="overflow:visible;fill:none;stroke:#969696;stroke-miterlimit:10;"/>
</g>
<g id="XMLID_81_">
	<defs>
		<rect id="XMLID_26_" x="-255.2" y="-249" width="1350" height="1345.5"/>
	</defs>
	<clipPath id="XMLID_71_">
		<use xlink:href="#XMLID_26_"  style="overflow:visible;"/>
	</clipPath>
	<g id="XMLID_83_" class="st11">
		<g id="XMLID_84_">
			<defs>
				<rect id="XMLID_27_" x="227.8" y="140.1" width="434.4" height="648.2"/>
			</defs>
			<clipPath id="XMLID_72_">
				<use xlink:href="#XMLID_27_"  style="overflow:visible;"/>
			</clipPath>
			<polygon id="XMLID_28_" class="st12" points="662.1,782.6 583.1,788.3 227.8,784.4 234.6,167.8 563.5,144 617.5,140.1 
				617.8,144.6 			"/>
		</g>
	</g>
</g>
<g id="XMLID_78_">
	<defs>
		<polygon id="XMLID_24_" points="152.8,188.7 223.8,828.8 660.5,780.4 591.2,140.1 		"/>
	</defs>
	<clipPath id="XMLID_73_">
		<use xlink:href="#XMLID_24_"  style="overflow:visible;"/>
	</clipPath>
	
		<linearGradient id="XMLID_74_" gradientUnits="userSpaceOnUse" x1="-998.8369" y1="1996.0184" x2="-998.387" y2="1996.0184" gradientTransform="matrix(1826.1708 2049.7114 2049.7114 -1826.1708 -2267136.75 5692513.5)">
		<stop  offset="0" style="stop-color:#FFFFFF"/>
		<stop  offset="1" style="stop-color:#CFF9FF"/>
	</linearGradient>
	<polygon id="XMLID_25_" class="st13" points="435.8,-112 1002.5,524.1 377.5,1081 -189.2,444.9 	"/>
	<use xlink:href="#XMLID_24_"  style="overflow:visible;fill:none;stroke:#AAAAAA;stroke-miterlimit:10;"/>
</g>
<g id="XMLID_61_">
	<defs>
		<rect id="XMLID_9_" x="-255.2" y="-249" width="1350" height="1345.5"/>
	</defs>
	<clipPath id="XMLID_75_">
		<use xlink:href="#XMLID_9_"  style="overflow:visible;"/>
	</clipPath>
	
		<rect id="XMLID_23_" x="396.5" y="168.1" transform="matrix(0.1102 0.9939 -0.9939 0.1102 690.7531 -97.235)" class="st14" width="6.4" height="338.1"/>
	
		<rect id="XMLID_22_" x="383.3" y="166.7" transform="matrix(0.1102 0.9939 -0.9939 0.1102 623.2692 -134.0829)" class="st14" width="6.4" height="228.7"/>
	
		<rect id="XMLID_21_" x="400.6" y="188.6" transform="matrix(0.1102 0.9939 -0.9939 0.1102 716.3796 -81.6511)" class="st14" width="6.4" height="341.4"/>
	
		<rect id="XMLID_20_" x="402.7" y="210.5" transform="matrix(0.1102 0.9939 -0.9939 0.1102 740.4191 -63.8583)" class="st14" width="6.4" height="342.1"/>
	
		<rect id="XMLID_19_" x="405.4" y="231.9" transform="matrix(0.1102 0.9939 -0.9939 0.1102 764.1084 -47.5916)" class="st14" width="6.4" height="342.1"/>
	
		<rect id="XMLID_18_" x="357.2" y="311" transform="matrix(0.1102 0.9939 -0.9939 0.1102 751.577 27.6118)" class="st14" width="6.4" height="245"/>
	
		<rect id="XMLID_17_" x="365.6" y="433.2" transform="matrix(0.1102 0.9939 -0.9939 0.1102 818.4781 72.3651)" class="st14" width="6.4" height="120.2"/>
	
		<rect id="XMLID_16_" x="450.6" y="363.3" transform="matrix(0.1102 0.9939 -0.9939 0.1102 907.16 -0.4209)" class="st14" width="6.4" height="286.2"/>
	
		<rect id="XMLID_15_" x="452.8" y="385.3" transform="matrix(0.1102 0.9939 -0.9939 0.1102 931.2511 17.3058)" class="st14" width="6.4" height="286.9"/>
	
		<rect id="XMLID_14_" x="375.4" y="540.9" transform="matrix(0.1102 0.9939 -0.9939 0.1102 934.2384 158.5251)" class="st14" width="6.4" height="120.2"/>
	
		<rect id="XMLID_13_" x="460.4" y="471" transform="matrix(0.1102 0.9939 -0.9939 0.1102 1022.9202 85.739)" class="st14" width="6.4" height="286.2"/>
	
		<rect id="XMLID_12_" x="462.5" y="493" transform="matrix(0.1102 0.9939 -0.9939 0.1102 1047.0076 103.4617)" class="st14" width="6.4" height="286.9"/>
	<path id="XMLID_63_" class="st14" d="M238.9,502.6l5.3,51.1l54.2-5.7l-5.3-51.1L238.9,502.6z M291.1,542.5l-40.8,4.3l-4-38.5
		L287,504L291.1,542.5z"/>
</g>
<g id="XMLID_58_">
	<defs>
		<polygon id="XMLID_7_" points="266.5,528.2 250.6,518.2 246.3,524.9 268.5,539 301.8,493.8 295.4,489.1 		"/>
	</defs>
	<clipPath id="XMLID_76_">
		<use xlink:href="#XMLID_7_"  style="overflow:visible;"/>
	</clipPath>
	
		<linearGradient id="XMLID_77_" gradientUnits="userSpaceOnUse" x1="-999.6892" y1="1996.8" x2="-999.2393" y2="1996.8" gradientTransform="matrix(43.9222 167.4609 167.4609 -43.9222 -290211.1563 255596.7188)">
		<stop  offset="0" style="stop-color:#FFED4D"/>
		<stop  offset="1" style="stop-color:#FF9326"/>
	</linearGradient>
	<polygon id="XMLID_8_" class="st15" points="298.3,475.5 314.1,535.8 249.9,552.6 234.1,492.3 	"/>
</g>
<g id="XMLID_53_">
	<defs>
		<rect id="XMLID_4_" x="-255.2" y="-249" width="1350" height="1345.5"/>
	</defs>
	<clipPath id="XMLID_79_">
		<use xlink:href="#XMLID_4_"  style="overflow:visible;"/>
	</clipPath>
	<path id="XMLID_55_" class="st16" d="M251,612.6l5.3,51.1l54.2-5.7l-5.3-51.1L251,612.6z M303.1,652.4l-40.8,4.3l-4-38.5l40.8-4.3
		L303.1,652.4z"/>
</g>
<g id="XMLID_50_">
	<defs>
		<polygon id="XMLID_2_" points="278.5,638.2 262.7,628.1 258.4,634.9 280.5,648.9 313.9,603.8 307.5,599 		"/>
	</defs>
	<clipPath id="XMLID_80_">
		<use xlink:href="#XMLID_2_"  style="overflow:visible;"/>
	</clipPath>
	
		<linearGradient id="XMLID_82_" gradientUnits="userSpaceOnUse" x1="-1000.4618" y1="1996.9146" x2="-1000.0118" y2="1996.9146" gradientTransform="matrix(43.9222 167.4609 167.4609 -43.9222 -290184.3125 255841.0781)">
		<stop  offset="0" style="stop-color:#FFED4D"/>
		<stop  offset="1" style="stop-color:#FF9326"/>
	</linearGradient>
	<polygon id="XMLID_3_" class="st17" points="310.3,585.4 326.2,645.7 262,662.6 246.2,602.2 	"/>
</g>
<rect id="XMLID_1_" x="-255.2" y="-249" class="st18" width="1350" height="1345.5"/>
</svg>
