<?xml version="1.0" encoding="utf-8"?>
<!-- Generator: Adobe Illustrator 19.0.0, SVG Export Plug-In . SVG Version: 6.00 Build 0)  -->
<svg version="1.1" id="Layer_1" xmlns="http://www.w3.org/2000/svg" xmlns:xlink="http://www.w3.org/1999/xlink" x="0px" y="0px"
	 viewBox="0 0 1000 1000" style="enable-background:new 0 0 1000 1000;" xml:space="preserve">
<style type="text/css">
	.st0{clip-path:url(#XMLID_58_);}
	.st1{fill:#FF6969;}
	.st2{fill:#6CC7FF;}
	.st3{fill:#EAAC68;}
	.st4{opacity:0.5;fill:#EAAC68;}
	.st5{fill:#7F5B33;}
	.st6{fill:#A3D0D8;}
	.st7{fill:#E24444;}
	.st8{fill:#FFB6B6;}
	.st9{fill:url(#XMLID_59_);}
	.st10{fill:url(#XMLID_60_);}
	.st11{fill:url(#XMLID_61_);}
	.st12{fill:url(#XMLID_62_);}
	.st13{opacity:0.2;}
	.st14{fill:url(#XMLID_63_);}
	.st15{fill:url(#XMLID_64_);}
	.st16{fill:url(#XMLID_65_);}
	.st17{fill:url(#XMLID_66_);}
	.st18{opacity:0.3;fill:url(#XMLID_67_);}
	.st19{opacity:0.3;fill:url(#XMLID_68_);}
	.st20{fill:#FFE7BD;}
	.st21{opacity:0.8;}
</style>
<g id="_x38_">
	<g id="XMLID_44_">
		<defs>
			<polygon id="XMLID_45_" points="905,219.9 318.7,136.8 318.7,136.8 305.8,227.4 302.4,251.4 267.8,495.7 262.8,531.4 
				262.8,531.4 849.1,614.5 854.2,578.8 888.8,334.5 892.2,310.5 			"/>
		</defs>
		<use xlink:href="#XMLID_45_"  style="overflow:visible;fill:#EAAC68;"/>
		<clipPath id="XMLID_58_">
			<use xlink:href="#XMLID_45_"  style="overflow:visible;"/>
		</clipPath>
		<g id="XMLID_46_" class="st0">
			
				<rect id="XMLID_57_" x="-115.3" y="84.2" transform="matrix(-0.7993 0.6009 -0.6009 -0.7993 740.3662 -44.625)" class="st1" width="985.8" height="34.3"/>
			
				<rect id="XMLID_56_" x="-74" y="139" transform="matrix(-0.7993 0.6009 -0.6009 -0.7993 847.5629 29.3171)" class="st2" width="985.8" height="34.3"/>
			
				<rect id="XMLID_55_" x="-32.8" y="193.9" transform="matrix(-0.7993 0.6009 -0.6009 -0.7993 954.7594 103.2593)" class="st1" width="985.8" height="34.3"/>
			
				<rect id="XMLID_54_" x="8.5" y="248.8" transform="matrix(-0.7993 0.6009 -0.6009 -0.7993 1061.9562 177.2013)" class="st2" width="985.8" height="34.3"/>
			
				<rect id="XMLID_53_" x="49.7" y="303.6" transform="matrix(-0.7993 0.6009 -0.6009 -0.7993 1169.1527 251.1435)" class="st1" width="985.8" height="34.3"/>
			
				<rect id="XMLID_52_" x="91" y="358.5" transform="matrix(-0.7993 0.6009 -0.6009 -0.7993 1276.3495 325.0855)" class="st2" width="985.8" height="34.3"/>
			
				<rect id="XMLID_51_" x="132.2" y="413.4" transform="matrix(-0.7993 0.6009 -0.6009 -0.7993 1383.546 399.0276)" class="st1" width="985.8" height="34.3"/>
			
				<rect id="XMLID_50_" x="173.5" y="468.3" transform="matrix(-0.7993 0.6009 -0.6009 -0.7993 1490.7426 472.9698)" class="st2" width="985.8" height="34.3"/>
			
				<rect id="XMLID_49_" x="214.7" y="523.1" transform="matrix(-0.7993 0.6009 -0.6009 -0.7993 1597.9392 546.9119)" class="st1" width="985.8" height="34.3"/>
			
				<rect id="XMLID_48_" x="256" y="578" transform="matrix(-0.7993 0.6009 -0.6009 -0.7993 1705.1359 620.854)" class="st2" width="985.8" height="34.3"/>
			
				<rect id="XMLID_47_" x="297.3" y="632.9" transform="matrix(-0.7993 0.6009 -0.6009 -0.7993 1812.3324 694.7962)" class="st1" width="985.8" height="34.3"/>
		</g>
	</g>
	<polygon id="XMLID_43_" class="st3" points="866.3,248.4 347.9,174.9 347.9,174.9 337.3,250.2 334.4,270.2 305.7,473.3 301.5,503 
		301.5,503 819.8,576.4 824,546.7 852.8,343.7 855.6,323.7 	"/>
	<g id="XMLID_38_">
		
			<rect id="XMLID_42_" x="355.2" y="382.8" transform="matrix(-0.9901 -0.1403 0.1403 -0.9901 814.11 844.7821)" class="st4" width="163.3" height="21.7"/>
		
			<rect id="XMLID_41_" x="350.9" y="416.9" transform="matrix(-0.9901 -0.1403 0.1403 -0.9901 827.0368 907.802)" class="st4" width="189.2" height="15.6"/>
		
			<rect id="XMLID_40_" x="347.4" y="439.3" transform="matrix(-0.9901 -0.1403 0.1403 -0.9901 762.703 948.0867)" class="st4" width="134.6" height="15.6"/>
		
			<rect id="XMLID_39_" x="343.2" y="472.4" transform="matrix(-0.9901 -0.1403 0.1403 -0.9901 846.3954 1020.0975)" class="st4" width="231.8" height="15.6"/>
	</g>
	<g id="XMLID_32_">
		<g id="XMLID_36_">
			
				<rect id="XMLID_37_" x="753.3" y="270.4" transform="matrix(-0.9901 -0.1403 0.1403 -0.9901 1522.7615 729.962)" class="st5" width="67.7" height="81.8"/>
		</g>
		<g id="XMLID_33_">
			<circle id="XMLID_35_" class="st6" cx="782.1" cy="286.2" r="8.4"/>
			<path id="XMLID_34_" class="st6" d="M760.3,312.5c0.2-1.2,1.1-2.1,2.2-2.3c4.4-0.8,15.3-0.7,25.7,14.9c3.1,4.7,9.4,10.9,14.4,4.9
				c2.5-3,3.5-7.1,3-10.9c-0.3-1.8-0.8-3.7-1.9-5.2c-0.9-1.3-2.9-2.3-2.9-4.1c0.1-2.4,3.3-2.9,5.1-2.7c3.3,0.4,5.8,2.8,7.1,5.7
				c0.2,0.5,0.3,1,0.2,1.5l-4.3,30.2c-0.2,1.5-1.6,2.5-3.1,2.3l-46.9-6.6c-1.5-0.2-2.5-1.6-2.3-3.1L760.3,312.5z"/>
		</g>
	</g>
	<g id="XMLID_24_">
		<g id="XMLID_30_">
			
				<rect id="XMLID_31_" x="671.1" y="279.9" transform="matrix(0.1403 -0.9901 0.9901 0.1403 290.732 960.1097)" class="st7" width="54.2" height="65.5"/>
		</g>
		<g id="XMLID_25_">
			<circle id="XMLID_29_" class="st8" cx="699.5" cy="304" r="6.8"/>
			<g id="XMLID_26_">
				<circle id="XMLID_28_" class="st8" cx="710.6" cy="323.2" r="6.8"/>
				<circle id="XMLID_27_" class="st8" cx="683.5" cy="319.4" r="6.8"/>
			</g>
		</g>
	</g>
</g>
<g id="_x37_">
	
		<linearGradient id="XMLID_59_" gradientUnits="userSpaceOnUse" x1="592.1082" y1="708.0208" x2="592.1082" y2="522.7284" gradientTransform="matrix(0.9922 -0.125 0.125 0.9922 -73.185 52.1367)">
		<stop  offset="0" style="stop-color:#FFCF5C"/>
		<stop  offset="1" style="stop-color:#FFB300"/>
	</linearGradient>
	<polygon id="XMLID_23_" class="st9" points="707.2,494.5 743.3,781.1 500.7,680.8 473.5,669.5 	"/>
	
		<linearGradient id="XMLID_60_" gradientUnits="userSpaceOnUse" x1="214.4033" y1="708.0208" x2="214.4033" y2="522.7284" gradientTransform="matrix(0.9922 -0.125 0.125 0.9922 -73.185 52.1367)">
		<stop  offset="0" style="stop-color:#FFCF5C"/>
		<stop  offset="1" style="stop-color:#FFB300"/>
	</linearGradient>
	<polygon id="XMLID_22_" class="st10" points="350.5,685 327,702.7 116.8,860.1 80.7,573.4 	"/>
	
		<linearGradient id="XMLID_61_" gradientUnits="userSpaceOnUse" x1="214.438" y1="889.6453" x2="214.438" y2="703.6264" gradientTransform="matrix(0.9922 -0.125 0.125 0.9922 -73.185 52.1367)">
		<stop  offset="0" style="stop-color:#FFCF5C"/>
		<stop  offset="1" style="stop-color:#FFB52E"/>
	</linearGradient>
	<polygon id="XMLID_21_" class="st11" points="350.5,685 350.6,685 350.5,685.1 327.1,702.7 116.8,860.2 116.8,860.1 327,702.7 	"/>
	
		<linearGradient id="XMLID_62_" gradientUnits="userSpaceOnUse" x1="592.0734" y1="889.6453" x2="592.0734" y2="703.6264" gradientTransform="matrix(0.9922 -0.125 0.125 0.9922 -73.185 52.1367)">
		<stop  offset="0" style="stop-color:#FFCF5C"/>
		<stop  offset="1" style="stop-color:#FFB52E"/>
	</linearGradient>
	<polygon id="XMLID_20_" class="st12" points="743.3,781.1 743.3,781.2 500.6,680.8 473.5,669.6 473.4,669.6 473.5,669.5 
		500.7,680.8 	"/>
	<g id="XMLID_17_" class="st13">
		
			<linearGradient id="XMLID_63_" gradientUnits="userSpaceOnUse" x1="592.1082" y1="766.0593" x2="592.1082" y2="561.4249" gradientTransform="matrix(0.9922 -0.125 0.125 0.9922 -73.185 52.1367)">
			<stop  offset="0" style="stop-color:#FFCF5C"/>
			<stop  offset="1" style="stop-color:#FFB300"/>
		</linearGradient>
		<polygon id="XMLID_19_" class="st14" points="707.2,494.5 710.5,520.1 500.7,680.8 473.5,669.5 		"/>
		
			<linearGradient id="XMLID_64_" gradientUnits="userSpaceOnUse" x1="214.4033" y1="766.0593" x2="214.4033" y2="561.4249" gradientTransform="matrix(0.9922 -0.125 0.125 0.9922 -73.185 52.1367)">
			<stop  offset="0" style="stop-color:#FFCF5C"/>
			<stop  offset="1" style="stop-color:#FFB300"/>
		</linearGradient>
		<polygon id="XMLID_18_" class="st15" points="350.5,685 327,702.7 83.9,599.1 80.7,573.4 		"/>
	</g>
	
		<linearGradient id="XMLID_65_" gradientUnits="userSpaceOnUse" x1="404.1597" y1="451.0655" x2="389.1358" y2="1058.6846" gradientTransform="matrix(0.9922 -0.125 0.125 0.9922 -73.185 52.1367)">
		<stop  offset="0" style="stop-color:#FFCF5C"/>
		<stop  offset="1" style="stop-color:#FFB300"/>
	</linearGradient>
	<path id="XMLID_16_" class="st16" d="M695,397.7l12.2,96.8l-38.4,28.8L473.5,669.5l-0.1,0l0,0l-45.5-18.8
		c-12.6-5.2-27-3.4-37.9,4.8L350.6,685l0,0l-0.1,0L125,591.7l-44.3-18.3l-12.2-96.8l233.7-175.1l39.5-29.6
		c10.9-8.2,25.3-10,37.9-4.8l45.6,18.9L695,397.7z"/>
	
		<linearGradient id="XMLID_66_" gradientUnits="userSpaceOnUse" x1="398.1544" y1="583.1878" x2="403.162" y2="828.5707" gradientTransform="matrix(0.9922 -0.125 0.125 0.9922 -73.185 52.1367)">
		<stop  offset="0" style="stop-color:#FFCF5C"/>
		<stop  offset="1" style="stop-color:#FFB300"/>
	</linearGradient>
	<path id="XMLID_15_" class="st17" d="M743.3,781.2l1.9,15.1c1.6,12.7-7.4,24.3-20.1,25.9l-580.5,73.1c-12.7,1.6-24.3-7.4-25.9-20.1
		l-1.9-15.1l210.2-157.5l23.5-17.6l0.1-0.1l0,0l39.4-29.5c10.9-8.2,25.3-10,37.9-4.8l45.5,18.8l0,0l0.1,0l27.1,11.2L743.3,781.2z"/>
	
		<linearGradient id="XMLID_67_" gradientUnits="userSpaceOnUse" x1="328.5401" y1="680.8841" x2="328.5401" y2="695.4747" gradientTransform="matrix(0.9922 -0.125 0.125 0.9922 -73.185 52.1367)">
		<stop  offset="0" style="stop-color:#FFCF5C"/>
		<stop  offset="1" style="stop-color:#FFB300"/>
	</linearGradient>
	<polygon id="XMLID_14_" class="st18" points="350.5,685 350.6,685 350.5,685.1 327.1,702.7 327,702.7 	"/>
	
		<linearGradient id="XMLID_68_" gradientUnits="userSpaceOnUse" x1="477.9714" y1="680.8841" x2="477.9714" y2="695.4747" gradientTransform="matrix(0.9922 -0.125 0.125 0.9922 -73.185 52.1367)">
		<stop  offset="0" style="stop-color:#FFCF5C"/>
		<stop  offset="1" style="stop-color:#FFB300"/>
	</linearGradient>
	<polygon id="XMLID_13_" class="st19" points="500.7,680.8 500.6,680.8 473.5,669.6 473.4,669.6 473.5,669.5 	"/>
	<path id="XMLID_12_" class="st20" d="M657.2,430.6l11.7,92.7L625,556.1l-13.9,10.4l-27.2,20.4L570,597.2l-27.2,20.4L528.9,628
		l-27.2,20.4l-13.9,10.4l-14.3,10.7l-0.1,0l0,0l-16.6-6.9l-16-6.6l-12.9-5.3c-12.6-5.2-27-3.4-37.9,4.8l-11.2,8.4L365,674.3
		L350.6,685l0,0l-0.1,0l-16.5-6.8l-16-6.6l-31.4-13l-16-6.6l-31.4-13l-16-6.6l-31.4-13l-16-6.6L125,591.7l-11.7-92.7
		c-1.1-8.5,4.9-16.2,13.4-17.3l513.1-64.6C648.4,416.1,656.1,422.1,657.2,430.6z"/>
	<g id="XMLID_2_" class="st21">
		
			<rect id="XMLID_11_" x="151.6" y="513" transform="matrix(0.9922 -0.125 0.125 0.9922 -63.3104 34.1454)" class="st20" width="177.6" height="17.2"/>
		<g id="XMLID_3_">
			
				<rect id="XMLID_10_" x="154.1" y="533.9" transform="matrix(0.9922 -0.125 0.125 0.9922 -64.1797 53.5338)" class="st20" width="480.8" height="8.6"/>
			
				<rect id="XMLID_9_" x="157.3" y="559.1" transform="matrix(0.9922 -0.125 0.125 0.9922 -67.3065 54.1286)" class="st20" width="480.8" height="8.6"/>
			<polygon id="XMLID_8_" class="st20" points="625,556.1 611.1,566.4 191.7,619.3 175.6,612.7 			"/>
			<polygon id="XMLID_7_" class="st20" points="583.9,586.8 570,597.2 239.1,638.9 223.1,632.3 			"/>
			<polygon id="XMLID_6_" class="st20" points="542.8,617.6 528.9,628 286.6,658.6 270.5,651.9 			"/>
			<polygon id="XMLID_5_" class="st20" points="318,671.6 378.8,663.9 365,674.3 334,678.2 			"/>
			<polygon id="XMLID_4_" class="st20" points="501.7,648.4 487.8,658.8 456.9,662.7 440.9,656.1 			"/>
		</g>
	</g>
</g>
</svg>
