<?xml version="1.0" encoding="utf-8"?>
<!-- Generator: Adobe Illustrator 27.8.1, SVG Export Plug-In . SVG Version: 6.00 Build 0)  -->
<svg version="1.1" id="Layer_1" xmlns="http://www.w3.org/2000/svg" xmlns:xlink="http://www.w3.org/1999/xlink" x="0px" y="0px"
	 viewBox="0 0 195.5 201.8" style="enable-background:new 0 0 195.5 201.8;" xml:space="preserve">
<g>
	<g>
		<path d="M84.9,54.3c0,0-9.4,2.1-9.2-2.7c0.1-1.6,1.1-2.2,2-2.1c0-0.9-1.8-3.4,2.3-4.4c1.4-2,2.6-3.5,3-4.8
			c0.4-1.2,1.5-2.9,5.3-2.1c3.7,0.8,7.8,4.4,8.3,5.4c2.2,0,4.5,0.4,3.6,0.8c-0.8,0.4-1.3,1.3-1.1,1.4c0.2,0.1,1.4,0.8-2.4,0.9
			c0.1,0.8,0.8,1,1.5,1.4c0.7,0.4-0.2,0.9,0,1c0.2,0.2,0.5,2-1.4,1.3c-1.9-0.8-2.1-1.4-2.6-1.3c-0.5,0.1-1.9,0.3-1.7,0.8
			c0.2,0.5,2.1,1.8-0.3,2.2c-0.5,0.4,0.8,1.1-0.2,1.5c-0.9,0.3-4.9,3.5-6.9,4.3c-1.9,0-2.5-0.5-2.3-1.3c0.2-0.8,1-1.4,2.2-1.5
			C85.1,54.7,85.2,54.3,84.9,54.3z"/>
	</g>
	<g>
		<path d="M84.1,64.3c-0.9,0-3.6-1.8-2.2-2.8c1.4-1,7.7-5.1,9.1-5.5c1.4-0.4,3.2,1.5,1.5,2.8C90.8,60.3,84.1,64.3,84.1,64.3z"/>
	</g>
	<g>
		<path d="M93.8,59.8c-0.2-1,1-5,1.1-5.8c0.1-0.8,3.2-1.1,2.4,2.3C96.6,59.7,94,60.8,93.8,59.8z"/>
	</g>
	<g>
		<path d="M98.2,52.5c0,0,17.5-0.8,18.9,0c1.4,0.8,7.4,10.1,6,18.3c-1.4,8.2-4,10.3-15.3,11.7c-0.2-2.7-0.6-9.6-1.7-11.4
			c-1.1-1.9-4.9-6.2-6.7-6.1c0,1.9-0.3,7.6-0.3,7.6s-5.6,0.4-6.4-0.8c-0.1-2.2,0-8.6,0-8.6s5.2-4.5,5.5-5.6c0.8,0.5,1,3.2,7.3,2.5
			C105.3,59.6,98,60.3,98.2,52.5z"/>
	</g>
	<g>
		<path d="M91.5,60.2c0,0-5.6,4.7-6.7,5.6c-0.6,1.5-1.2,6.2,6,6.3C91.3,69.1,91.5,60.2,91.5,60.2z"/>
	</g>
	<g>
		<path d="M78.2,67.3c-1.7,0-3.2-0.4-3-1.8c0.2-1.4,2.6-2.9,4.1-2.5c1.6,0.3,4.1,1,4.1,7.1c1.1,1.3,4.6,3.7,8.9,3.9s6.8-0.3,6.8,1
			s0,8.2,0,8.2s-5.1-0.2-17.8-9.1c-1-1.4-1.7-2.3-1.6-4.4C79.7,68.3,78.8,67.3,78.2,67.3z"/>
	</g>
	<g>
		<path d="M74.4,68.3c-2.1-0.1-8.2,5.1-3.7,7.2c1.3-1.1,2.4-2.5,2.4-2.5s-1.1,2.9,1.3,3.7s1.5-1.5,2.8-1.4c0.7,1.2,0.9,1.9,2.1,1.9
			c1.2-0.2,1.6-3.6,0-5.6C77.7,69.6,76.7,68.3,74.4,68.3z"/>
	</g>
	<g>
		<path d="M100.4,68.9V85c0,0,5.4-1.7,5.9-3C106.1,79.2,105.2,68.8,100.4,68.9z"/>
	</g>
	<g>
		<path d="M87.6,79.6c0,0,6.2,4.2,10.3,5.9c-0.6,0.7-3.2,4.2-4.2,3.9C92.7,89.1,87.9,82.6,87.6,79.6z"/>
	</g>
	<g>
		<polygon points="65.3,88.8 49.5,88.8 49,85.7 65.3,85.7 		"/>
	</g>
	<g>
		<polygon points="120.6,88.6 175.6,88.6 175.6,84 114.6,84 		"/>
	</g>
	<g>
		<path d="M107.7,83.7c0.7-0.7,4.8,2.7,3.6,3.3c-1.2,0.6-12.4,5.3-13.5,5c-1.1-0.4-0.7-3.2,0.4-3.8C99.3,87.7,105.7,85.8,107.7,83.7
			z"/>
	</g>
	<g>
		<path d="M95.2,91.4c-1.3-0.7-8.6,6.3-5.4,6.8c3.2,0.5,10.8,2.1,12.8,2.9c1.8-0.8,3.5-2.3,3.2-3.2c1.2,0.1,3.3,2,5,1.2
			c1.6-0.7,10.5-7.1,11.1-8.2c-1.8-1.6-5.7-3.8-7.3-3.7C113,87.3,101.1,94.3,95.2,91.4z"/>
	</g>
	<g>
		<path d="M91.5,100.2c0.8,0,9.9,3.5,12.2,3s2.7-2.7,4-2.5c1.3,0.1,1.9,1.3,4.1-0.1c2.2-1.4,6.1-4.8,6.7-5.6c0.1,1.4,0,5.3-8.4,9.1
			s-27.9,9.4-28.4,12c0.7,0.3,3.2-0.5,4.8-1.4c1.1,0.8,3,3.4,2.5,7.6s-3.7,11.5-3.7,13.5c0,2-0.2,11-0.1,12c0.1,0.9,1.7,6.1-0.8,5.7
			c-2.5-0.4-4-0.4-5-0.2c-1,0.2-3,1.8-4.7,1.6c-1.7-0.2-4.7-1.1-4.6-2c0.1-0.9,2.1-0.9,3.7-1.5c1.7-0.6,2.8-2.5,6-3.7
			c-0.1-2.2-1.1-17.8-1.1-21.1c0-3.3-1.1-10.1,0.3-13C80.6,110.8,88,100.1,91.5,100.2z"/>
	</g>
	<g>
		<path d="M103.4,109.6c-0.2,1,5.6,15.2,8.2,15.4c2.5,0.2,25.9-4.8,30.3-3.4c1.3,1.8,4.1,5.2,4,7.1c0,0,0.6,4.6,0.2,4.9
			c0.7,0.2,2.7-0.5,3.2-1.8c0.5-1.3,0.1-7.6,0.3-8.7c0.2-1.1,2.9-6.7-0.8-6.6c-3.8,0.1-14.6,0.1-18.1-0.9
			c-3.5-0.9-11.4-2.4-13.4-1.4c-2,1-4.2,4.2-4.2,5.1c-0.8,0.2-1.1-0.6-0.2-3s3.7-9.6,3.4-13.5C113.2,103.9,103.4,109.6,103.4,109.6z
			"/>
	</g>
	<g>
		<path d="M90.1,87.3c0.2,0.7,0.6,1.8,1.3,2.4l-18.7-1.2c0,0-2.2-1.3-1.3-1.7L90.1,87.3z"/>
	</g>
	<g>
		<path d="M69.5,85.7h18.7c0,0-1.6-2.1-1.9-3.5C83,82.2,69,82.5,69,82.5s-2-0.1-2,3.5C67.1,87,68.5,88.4,69.5,85.7z"/>
	</g>
	<g>
		<path d="M44.1,88.8h3.8c0,0,1.2-0.5,0-2s-3.7-2.3-1.9-4.9c-1.8-0.3-4.5-0.9-4,4.9c-0.8,0-1.9,0-1.9,0s-0.7-3.3-5-3.3
			c-4.3,0-14.9,4.4-14.9,4.4s11.9,3.3,15,3.3c3,0,5-3,5-3h1.5c0,0,0.7,2.2,1.4,3.2c0,1.6,0.1,3.6,0.1,3.6s-1.8,0.6-1.5,2.8
			s1.4,2.1,1.8,2.1s0.9-0.7,2.3-0.7c0.7-0.7,0.3-3.4-1.2-4c0-1.2-0.1-2.6-0.1-2.6s1.5-1,1.4-1.9C45.7,90,44.1,90,44.1,88.8z"/>
	</g>
	<g>
		<g>
			<path d="M74.3,106.9l0.1-0.1c1.2-0.7,1.7-2.5,1.7-2.6l0-0.1v-0.1c0-0.1-0.2-8.5-0.2-11c0-2.8-4.8-4.7-4.9-4.7l-0.3-0.1l-0.2,0.2
				c-0.4,0.4-1.7,1.4-2.6,1.4c-1.2,0-1.8-0.2-3-1.3l-0.2-0.2h-0.2c-3.8,0-5.7,4.6-5.8,4.8l0,0.2c0,0.9-0.3,8.8,0,10.2
				c0.3,1.2,1.3,2.4,1.7,2.9c-0.8,2.7-4.7,17.3,0.6,19.1v2.5h12.6v-2.6C78.4,123.2,75.3,110.6,74.3,106.9z M59.8,93.4
				c0.2-0.6,1.8-3.9,4.6-4.1c1.3,1.2,2.2,1.5,3.6,1.5c1.2,0,2.5-1,3-1.4c1.3,0.6,4,2,4,3.7c0,2.4,0.2,10.1,0.2,11
				c-0.1,0.4-0.5,1.4-1.1,1.9l-2.5,0v-4.8H63v4.6l-1.7,0c-0.3-0.4-1.3-1.5-1.5-2.5C59.5,102.3,59.7,96.9,59.8,93.4z M68.5,123.4
				h-2.3c-0.6,0-1-0.4-1-1s0.4-1,1-1h2.3c0.6,0,1,0.4,1,1C69.5,122.9,69.1,123.4,68.5,123.4z M73.2,124.4l-6.2-6.9l-5.7,7v0
				c-3.8-1.2-1.4-13,0-17.8l11.8,0.2C74.6,111.7,76.8,122.6,73.2,124.4z"/>
		</g>
		<g>
			<path d="M71.6,111.7c1.4-2-0.4-3.4-0.4-3.4s-5,0-7.4,0c-2.4,0-1.6,3.3-1.6,3.3l4.7,4C66.9,115.6,70.2,113.8,71.6,111.7z"/>
		</g>
		<g>
			<path d="M68.5,116.4l4.4,5.3c0,0-0.5-6.3-0.6-8.3C71.2,113.5,68.5,116.4,68.5,116.4z"/>
		</g>
		<g>
			<path d="M62,113.3c-0.2,2.1-0.6,8.3-0.6,8.3l4.4-5.3C65.8,116.4,63,113.5,62,113.3z"/>
		</g>
		<g>
			<path d="M70.8,99.6h0.8v-0.8c0-0.4-0.3-0.8-0.8-0.8h-7c-0.4,0-0.8,0.3-0.8,0.8v0.8h0.8H70.8z"/>
		</g>
		<g>
			<path d="M60.6,128.7h-0.8v0.8c0,0.5,0.4,0.8,0.8,0.8h13c0.5,0,0.8-0.4,0.8-0.8v-0.8h-0.8H60.6z"/>
		</g>
	</g>
</g>
<g>
	<path d="M97.8,201.8c-19.8,0-39.3-5.1-56.3-14.9c-16.6-9.4-30.6-23-40.7-39.2L0,146.6l1.2-0.7c0.1,0,6.5-3.7,10.1-8.6
		c-2.5-0.9-4.3-2.7-5.2-5.1c-0.7-1.9-0.5-3.7,0.5-5.1c1-1.4,2.6-2.2,4.4-2.2c1.4,0,2.8,0.6,3.8,1.6c0.8,0.9,1.8,2.5,1.6,5.3
		c-0.1,1.2-0.4,2.3-0.8,3.5c3.8,0.1,8.1-1.6,11.9-4.7l1.2-0.9l0.8,1.2c14.9,23.6,40.5,37.7,68.4,37.7s53.5-14.1,68.4-37.7l0.8-1.2
		l1.2,0.9c3.8,3,8,4.7,11.8,4.7c0.1,0,0.1,0,0.2,0c-0.5-1.2-0.8-2.4-0.8-3.5c-0.2-2.8,0.8-4.4,1.6-5.3c1-1,2.3-1.6,3.8-1.6
		c1.8,0,3.4,0.8,4.4,2.2c1,1.4,1.2,3.2,0.5,5.1c-0.9,2.4-2.7,4.2-5.2,5.1c3.6,4.9,10,8.6,10.1,8.6l1.2,0.7l-0.7,1.2
		c-10.1,16.2-24.1,29.8-40.7,39.2C137,196.7,117.5,201.8,97.8,201.8z M3.7,147.5c20.6,32.4,55.7,51.7,94,51.7s73.4-19.3,94-51.7
		c-2.3-1.5-7.4-5-10.4-9.6h0l0,0c-0.5,0.1-1,0.1-1.5,0.1c-4,0-8.3-1.5-12.2-4.4c-15.6,23.6-41.6,37.7-69.9,37.7
		s-54.4-14.1-69.9-37.7c-4,2.8-8.3,4.4-12.2,4.4c-0.5,0-1,0-1.5-0.1l0,0h0C11.1,142.5,6,146,3.7,147.5z M10.9,127.5
		c-0.9,0-1.7,0.4-2.2,1.1c-0.5,0.7-0.5,1.6-0.2,2.6c0.6,1.8,2.1,3.1,4.1,3.7c0.5-1.1,0.9-2.2,0.9-3.3c0.1-1.5-0.2-2.6-0.9-3.3
		C12.3,127.8,11.6,127.5,10.9,127.5z M184.6,127.5c-0.7,0-1.4,0.3-1.8,0.8c-0.7,0.7-1,1.9-0.9,3.3c0.1,1.1,0.4,2.2,0.9,3.3
		c2-0.6,3.5-1.9,4.1-3.7c0.4-1,0.3-1.9-0.2-2.6C186.3,127.9,185.5,127.5,184.6,127.5z"/>
</g>
<g>
	<path d="M173.6,131.8l-1.1-0.7c7.6-13.1,11.7-28.1,11.7-43.4c0-47.6-38.8-86.4-86.4-86.4S11.4,40.1,11.4,87.7
		c0,15.3,4,30.3,11.7,43.4l-1.1,0.7c-7.8-13.3-11.9-28.6-11.9-44.1C10.1,39.3,49.4,0,97.8,0s87.7,39.3,87.7,87.7
		C185.5,103.2,181.4,118.4,173.6,131.8z"/>
</g>
<g>
	<path d="M170.2,129.5l-2.3-1.3c7.1-12.2,10.8-26.2,10.8-40.4c0-44.6-36.3-81-81-81s-81,36.3-81,81c0,14.2,3.7,28.2,10.8,40.4
		l-2.3,1.3c-7.3-12.7-11.2-27.1-11.2-41.8c0-46.1,37.5-83.6,83.6-83.6c46.1,0,83.6,37.5,83.6,83.6
		C181.4,102.4,177.5,116.8,170.2,129.5z"/>
</g>
<g>
	<g>
		<g>
			<path d="M30.3,152.3c-2.8-2.9-5.4-6.1-7.8-9.3l-0.1,1.7c1.7,2.3,3.6,4.5,5.5,6.6l-0.5,0.5c-2.4-1.5-4.9-2.8-7.7-4
				c-0.2,0.9-0.3,1.8-0.5,2.6c0.8,1.2,1.4,2.3,1.6,3.4c0.2,0.9,0.2,1.8,0.1,3c-0.1,1.1-0.3,2.1-0.4,3.2l8.3-7.8
				c0.6,0.6,1.1,1.2,1.7,1.8L30.3,152.3z M20.9,150.4c2,0.8,3.7,1.7,5.1,2.6l-4.3,3.9C22,154.9,21.7,152.8,20.9,150.4z"/>
		</g>
		<g>
			<path d="M34,155.9l-0.8-0.7c0-0.4,0-0.7,0.1-0.9l0.5-0.8l-0.1-0.6c-1.3,1.3-2.3,2.6-3,3.8c0.5-1.1,0.7-1.8,0.7-2.3
				c0-0.7-0.4-1.5-1.1-2.3c-0.2-0.2-0.5-0.5-0.8-0.8l0.1,1.7c0.6,0.5,0.9,1.1,1,1.8c0.1,0.7-0.1,1.3-0.5,1.7l-5.8,5.9l0.2,1.8l8-8.4
				c0.6,0.6,1.2,1.1,1.8,1.6L34,155.9z"/>
		</g>
		<g>
			<path d="M35.9,164.1c0.8,0,1.3-0.3,1.8-0.9c0.4-0.5,0.6-1.2,0.5-1.9s-0.5-1.4-1.1-1.9c-0.6-0.5-1.2-0.7-2-0.7
				c-0.8,0-1.4,0.2-1.8,0.7c-0.5,0.5-0.6,1.1-0.5,2c0.1,0.8,0.5,1.5,1.2,2C34.5,163.9,35.2,164.2,35.9,164.1z M33.8,172.3
				c-0.7-4.4-1.3-7.7-2-10.1l-1.6,1.9c1.2,3.2,2.3,6.2,3.1,8.9L33.8,172.3z M35.5,162.6c-0.6,0-1.2-0.2-1.7-0.6
				c-0.4-0.4-0.4-0.7-0.1-1.1c0.3-0.4,0.8-0.6,1.5-0.6c0.6,0,1.2,0.1,1.6,0.5c0.5,0.4,0.5,0.8,0.1,1.3
				C36.7,162.4,36.2,162.6,35.5,162.6z"/>
		</g>
		<g>
			<path d="M50.9,168.4c-4-2.3-7.8-5-11.5-7.9c0.1,0.6,0.2,1.2,0.4,1.7c2.7,2.1,5.6,4.1,8.5,5.9l-1.6,2.6c0.2-1.4-0.1-2.3-1-2.9
				c-0.3-0.2-0.6-0.2-1.1-0.2s-0.8,0.2-1,0.4c-0.2-1.2-0.8-2.1-1.7-2.8c-0.7-0.5-1.5-0.7-2.4-0.5c-0.8,0.2-1.4,0.6-1.8,1.2
				c-0.5,0.7-0.7,1.5-0.5,2.4s0.9,1.7,1.8,2.4c0.4,0.3,0.9,0.5,1.3,0.5c0.6,0.1,1-0.1,1.2-0.4c0.2-0.4,0.3-0.8,0.3-1.3
				c0-0.5-0.3-0.9-0.7-1.2c-0.3-0.2-0.7-0.3-1.1-0.3c-0.4,0-0.7,0.1-0.9,0.4c-0.2,0.2-0.2,0.6-0.2,0.9c-0.9-0.9-1.1-1.6-0.6-2.3
				c0.3-0.4,0.8-0.7,1.4-0.7c0.6,0,1.2,0.2,1.8,0.6c0.6,0.4,1,0.9,1.2,1.6s0.3,1.2,0.1,1.7l0.6,0.2c0.1-0.3,0.2-0.5,0.3-0.7
				c0.4-0.6,0.9-0.7,1.5-0.3c0.3,0.2,0.6,0.6,0.8,1c0.2,0.4,0.2,0.8,0,1.1l-3.2,5.2l0.7,1.7l5.8-9.7c0.7,0.4,1.3,0.8,2,1.2
				C51.3,169.6,51.1,169,50.9,168.4z"/>
		</g>
		<g>
			<path d="M55.6,171l-1-0.5c-0.1-0.3-0.1-0.6-0.1-0.9l0.2-0.9l-0.3-0.5c-0.9,1.6-1.5,3.1-1.8,4.5c0.1-1.2,0.1-2,0-2.4
				c-0.2-0.7-0.8-1.4-1.7-1.9c-0.3-0.2-0.6-0.3-1-0.5l0.6,1.6c0.7,0.3,1.2,0.8,1.5,1.5c0.3,0.6,0.3,1.2,0,1.8l-3.9,7.3l0.7,1.7
				l5.4-10.3c0.7,0.4,1.4,0.7,2.1,1.1C56.1,172.1,55.8,171.6,55.6,171z"/>
		</g>
		<g>
			<path d="M62.5,174.2c-2.5-1-5-2.2-7.4-3.4l0.7,1.6c1.2,0.6,2.4,1.1,3.6,1.7c-2.3,0.9-4,2.1-4.8,3.8c-0.6,1.2-0.8,2.4-0.5,3.7
				c0.3,1.5,1.2,2.6,2.7,3.3c0.7,0.3,1.3,0.4,1.9,0.2s1-0.4,1.2-0.9c0.2-0.5,0.1-1-0.4-1.5c-0.1-0.2-0.3-0.4-0.7-0.5
				c-0.4-0.2-0.8-0.2-1.2-0.1c-0.4,0.1-0.7,0.2-0.8,0.5c-0.2,0.4-0.1,0.9,0.3,1.5l-0.4-0.1c-0.8-0.3-1.3-1-1.5-2
				c-0.2-0.9-0.1-1.6,0.2-2.3c0.7-1.6,1.7-2.6,3-3.3c1.4-0.8,3-0.9,4.9-0.6L62.5,174.2z"/>
		</g>
		<g>
			<path d="M74.2,178.1c-4.1-1.1-8.2-2.4-12.1-4.1l0.8,1.6l1.4,0.5l-2.2,5.9c0.4,0.7,0.8,1.4,1.3,2.1c0.8-0.8,1.8-1.3,3-1.7
				c1.2-0.4,2.4-0.6,3.7-0.6c-0.6,0.9-1,1.8-1.2,2.6c-0.3,1-0.5,2.5-0.5,4.7l0.9,0.6c0.1-1.5,0.2-2.7,0.4-3.4c0.4-1.5,1.5-3,3.2-4.6
				c-0.6-0.7-1.3-1.3-1.9-2c-1,0-2.2,0.2-3.4,0.5c-1.1,0.3-2.2,0.5-3.4,0.8l1.6-4.4c3.1,1.1,6.3,2.1,9.6,2.9L74.2,178.1z"/>
		</g>
		<g>
			<path d="M87.8,180.6c-0.8-0.2-1.3-0.7-1.3-1.5c-0.2-0.3-0.5-0.6-0.7-0.8c-0.1,1.4-0.2,3.3-0.2,5.7c-0.2-0.5-0.6-1.3-1.2-2.3
				c-0.8-1.1-1.3-1.8-1.7-1.8c-0.7-0.1-1.3,0-2,0.3c-0.6,0.3-1.1,0.6-1.5,1.1c0-0.6-0.3-1.1-0.8-1.6c-0.5-0.5-1.1-0.9-1.7-1
				c-0.9-0.2-1.8-0.4-2.7-0.7l1,1.4c1.1,0.3,1.8,0.4,2.1,0.6c0.6,0.3,1,0.8,1.2,1.5c-0.6,0-1.2,0.2-1.8,0.6s-0.9,0.8-1,1.3
				c-0.1,0.4,0,0.8,0.2,1.1c0.2,0.4,0.6,0.6,1.1,0.7c0.4,0.1,0.9,0.1,1.4-0.1s0.8-0.4,1.1-0.7c0.4,0.9,1,1.4,1.8,1.5
				c1.2,0.2,1.8-0.2,2-1.1c0.1-0.4-0.1-0.9-0.5-1.4c-0.2-0.2-0.6-0.6-1.2-1.1c0-0.2,0.2-0.4,0.6-0.5c0.3-0.1,0.6-0.1,0.9-0.1
				c0.5,0.1,0.9,0.5,1.4,1.2c0.5,0.7,0.8,1.3,0.7,1.7l-1,6.8l1.4,1.3l1.3-11.2c0.8,0.1,1.6,0.2,2.3,0.2L87.8,180.6z"/>
		</g>
		<g>
			<path d="M108,180.5c-4.6,0.5-9.2,0.7-13.8,0.5c0.4,0.4,0.8,0.8,1.3,1.2c1.8,0,3.6,0,5.3,0c0,0.1,0,0.4,0,1c0,0.6,0,1.1,0,1.4
				c0.1,2.3,0.8,3.4,2.2,3.4c0.6,0,1.3-0.3,2.2-0.9s1.3-1.1,1.5-1.6c0.6,0.4,0.8,0.8,0.9,1.3c0.1,0.8-0.3,1.5-1.2,2.1
				c-0.8,0.6-1.7,0.9-2.8,1c-1.9,0.1-3.5-0.7-4.7-2.3c-0.9-1.3-1.4-2.8-1.6-4.5l-0.8-0.4c0.3,3.1,1.1,5.4,2.3,6.9s2.9,2.3,5,2.1
				c1.7-0.1,2.9-0.6,3.7-1.5c0.8-0.8,1.1-1.9,0.9-3.2c-0.1-0.7-0.4-1.4-0.9-2c-0.6-0.7-1.2-1.2-1.9-1.4c-0.5,0.6-0.9,1.1-1.4,1.6
				c-0.6,0.6-1.3,0.9-2,1l-0.2-4.3c2.4-0.1,4.9-0.3,7.3-0.6L108,180.5z"/>
		</g>
		<g>
			<path d="M113.5,179.7l-1.1,0.2c-0.3-0.2-0.5-0.4-0.7-0.7l-0.3-0.9l-0.5-0.3c0.3,1.8,0.7,3.4,1.2,4.7c-0.6-1-1.1-1.7-1.4-1.9
				c-0.6-0.5-1.4-0.6-2.5-0.5c-0.3,0-0.7,0.1-1.1,0.2c0.5,0.3,1,0.6,1.4,0.9c0.8-0.1,1.5-0.1,2.1,0.3c0.6,0.3,1,0.8,1.1,1.5l1.2,8.2
				c0.5,0.3,1,0.6,1.5,0.9l-1.8-11.5c0.8-0.1,1.6-0.3,2.4-0.4L113.5,179.7z"/>
		</g>
		<g>
			<path d="M127.8,176.1c-4.8,1.6-9.8,2.9-14.8,3.7c0.5,0.3,1,0.6,1.5,0.9c2.6-0.5,5.2-1.1,7.8-1.7l0.2,0.8c-2.4,1.4-4.6,3-6.7,4.9
				c0.7,0.5,1.5,1,2.2,1.5c3.3-0.4,5.8,0.5,7.8,2.9l0.6,0.2l-2.4-8.5l0.4-0.1c0.9-0.3,1.8-0.3,2.7,0c0.9,0.3,1.5,0.8,1.8,1.6l0,0.2
				c-0.4-0.2-0.9-0.3-1.5-0.1c-0.2,0.1-0.5,0.2-0.7,0.3c-0.4,0.5-0.5,0.9-0.4,1.3c0.1,0.4,0.4,0.6,0.8,0.8c0.4,0.1,0.9,0.1,1.3,0
				c0.6-0.2,1.1-0.6,1.4-1.1c0.3-0.5,0.3-1,0.2-1.5c-0.4-1-1.1-1.8-2.3-2.4c-1.2-0.6-2.4-0.8-3.7-0.4l-0.3,0.1l-0.2-0.7
				c1.9-0.6,3.9-1.2,5.8-1.8L127.8,176.1z M118.7,184.5c1.6-1.4,3-2.5,4.2-3.3l1.5,5.6C122.9,185.5,121,184.8,118.7,184.5z"/>
		</g>
		<g>
			<path d="M146,165.4c-3.2-0.5-5.8-0.3-8,0.9c-0.9,0.5-1.7,1.2-2.3,2.3c-0.7,1.2-0.8,2.1-0.5,2.9c0.1,0.2,0.4,0.4,0.8,0.6l1,0.3
				c-1,0.5-2,0.9-3.1,1.4c0.5,0.2,1.1,0.4,1.6,0.5l1.8-0.8l4.2,9.2l1.8,0.3l-4.8-10.1c0.7-0.3,1.4-0.7,2-1c-0.6-0.1-1.1-0.3-1.7-0.4
				l-1.2,0.6l-0.9-0.7c-0.3-0.7,0-1.5,0.6-2.5c0.6-0.9,1.3-1.6,2.1-2c1.1-0.6,2.3-0.9,3.5-1c0.4,0,1.6,0,3.6,0L146,165.4z"/>
		</g>
		<g>
			<path d="M149.1,165.7c-3.4,2.2-6.9,4.2-10.6,6l1.6,0.4c2.6-1.3,5.1-2.7,7.5-4.2l0.4,0.6c-1.9,2.1-3.6,4.3-5.3,6.9
				c0.8,0.3,1.7,0.6,2.5,0.9c1.3-0.6,2.5-0.9,3.6-1c0.9,0,1.9,0.1,2.9,0.4c1,0.3,2.1,0.7,3.1,1l-6.2-9.6c0.7-0.4,1.4-0.9,2-1.4
				L149.1,165.7z M145.5,174.7c1.2-1.8,2.3-3.3,3.4-4.6l3.1,4.9C150.2,174.3,148,174.2,145.5,174.7z"/>
		</g>
		<g>
			<path d="M159.7,157.5c-3.5,3.1-7.3,6-11.2,8.5l1.7,0.2c4-2.6,7.7-5.6,11.2-8.8C160.9,157.5,160.3,157.5,159.7,157.5z
				 M161.9,160.6c-1.2-0.3-2-0.2-2.4,0.1l0,0.1c0.1,0.4,0.1,1.1,0,1.9c-0.2,0.9-0.4,1.5-0.8,1.8h-0.1c0-0.6-0.1-1-0.2-1.2
				c-0.2-0.3-0.6-0.4-1-0.4c-0.4,0-0.8,0.1-1.2,0.4c-0.5,0.4-0.8,0.8-1,1.3c-0.1,0.5,0,0.9,0.3,1.4c0.4,0.6,1,0.8,1.8,0.8
				c0.7,0,1.4-0.3,2.1-0.9c0.7-0.6,1.3-1.2,1.6-1.8c0.3-0.6,0.5-1.3,0.5-2.2l0.1-0.1c0.2-0.1,0.4-0.1,0.9,0.1
				c0.3,0.2,0.6,0.4,0.7,0.6c0.5,0.6,0.6,1.3,0.4,2.3c-0.2,1-0.8,1.8-1.5,2.4c-1.6,1.3-3.4,1.7-5.4,1.4c-1.6-0.2-3.1-0.9-4.6-2
				l-0.8,0.3c2.3,1.6,4.1,2.6,5.3,3c2.4,0.8,4.6,0.4,6.5-1.1c1.3-1.1,2.1-2.3,2.2-3.8c0.2-1.3-0.2-2.5-1.1-3.5
				C163.8,161.2,163.1,160.9,161.9,160.6z"/>
		</g>
		<g>
			<path d="M163.8,153.7l-0.8,0.8c-0.4,0-0.6-0.1-0.9-0.2l-0.8-0.5l-0.6,0.1c1.3,1.3,2.5,2.4,3.7,3.1c-1.1-0.5-1.8-0.8-2.3-0.8
				c-0.7-0.1-1.5,0.3-2.4,1.1c-0.3,0.2-0.5,0.5-0.8,0.8c0.6,0,1.2,0,1.7-0.1c0.6-0.6,1.2-0.9,1.9-1c0.7-0.1,1.3,0.1,1.7,0.6l5.7,6
				l1.8-0.1l-8.1-8.3c0.6-0.6,1.1-1.1,1.7-1.7L163.8,153.7z"/>
		</g>
		<g>
			<path d="M172.3,144l-0.2,0.3c-0.5,0.6-1,0.6-1.6,0.2l-0.2-0.3l-1,0.2c0.6,0.5,1.5,1.1,2.5,1.8l2.6,1.7c-1.4-0.5-2.5-0.6-3.2-0.6
				c-1.1,0.1-2,0.7-3,1.8c-0.7,0.8-1.2,1.7-1.4,2.7c-0.2,1.1-0.1,2,0.6,2.6c0.2,0.2,0.6,0.4,1.1,0.4c0.5,0,0.8-0.1,1.1-0.4
				c0.2-0.2,0.4-0.6,0.6-1.3c0.2-0.7,0.4-1.1,0.5-1.3c0.3-0.4,0.6-0.4,0.9-0.2c0.2,0.1,0.3,0.8,0.2,1.8c0,0.9-0.1,1.6-0.1,2.1
				c0.7-0.1,1.4-0.1,2.2-0.2c0.1-2.4-0.3-3.9-0.9-4.5c-0.5-0.4-1-0.5-1.6-0.3c-0.6,0.2-1.1,0.5-1.6,1.1c-0.3,0.4-0.6,0.9-0.9,1.5
				c-0.4-1.2-0.1-2.3,0.8-3.4c0.6-0.8,1.6-1.1,2.8-1.2c1.1-0.1,2,0.2,2.7,0.7l4.4,3.7c0.7-0.1,1.5-0.2,2.2-0.4l-9.1-7.1
				c0.5-0.6,1-1.3,1.4-1.9L172.3,144z"/>
		</g>
	</g>
</g>
<g>
	<g>
		<g>
			<path d="M51.5,31.7c-1.3,1.1-2,2.5-1.9,4.2c0,1.5,0.5,2.7,1.3,3.5c0.8,0.8,1.7,1.3,2.8,1.5c1.3,0.2,2.4-0.1,3.4-0.9
				c0.4-0.4,0.7-0.8,0.8-1.3s0.1-0.9-0.2-1.3c-0.1-0.2-0.4-0.3-0.7-0.3c-0.3,0-0.6,0-0.9,0.2c-0.5,0.4-0.8,0.7-0.9,1
				c-0.1,0.3-0.1,0.7,0.2,1c0.2,0.2,0.5,0.2,1.1,0.2l0,0.1c-0.7,0.6-1.5,0.8-2.4,0.6c-0.7-0.2-1.4-0.5-1.9-1.1
				c-0.8-0.9-1.2-2-1.2-3.4c0.1-1.5,0.8-2.9,2.1-4.1L51.5,31.7z"/>
		</g>
		<g>
			<path d="M63.5,23.6C59.1,26,55,28.8,51.1,32c1.1-0.1,1.7-0.2,1.8-0.3c0.6,0.1,1.3-0.2,2.1-0.7c1.1-0.7,1.7-1,1.9-1.1
				c0.7-0.2,1.4,0.1,2,0.8c-0.4,1.7-0.6,2.7-0.9,2.9c-0.2,0.2-0.5,0.2-1,0.1c-0.4-0.1-0.6-0.2-0.8-0.3l-0.3,1
				c1.4,0.4,2.2,0.5,2.6,0.3c0.2,0,0.5-0.1,0.9-0.5c0.4-0.3,0.7-0.8,0.9-1.5c0.1-0.6,0.2-1.3,0.3-1.9c0.1-0.7,0.5-1.2,0.9-1.5
				c0.3-0.2,0.7-0.3,1.2-0.3s0.8,0.1,0.9,0.3l2.1,3.6c0.5,0.1,1,0.2,1.5,0.3L63,25c0.7-0.4,1.5-0.8,2.2-1.2L63.5,23.6z M62,28.2
				c-0.7-0.1-1.2,0-1.5,0.2c-0.1,0.1-0.3,0.3-0.6,0.7L59.3,30L59,29.6c-0.3-0.5-1.2-0.7-2.5-0.6c1.7-1.2,3.4-2.3,5.2-3.4l1.6,2.8
				C62.6,28.3,62.1,28.2,62,28.2z"/>
		</g>
		<g>
			<path d="M74.9,18.7c-4.1,1.4-8.1,3.1-11.9,5.2l1.6,0.2c2.7-1.4,5.4-2.6,8.2-3.6l0.2,0.6c-2.4,1.5-4.5,3.5-6.2,5.7
				c0.8,0.2,1.5,0.5,2.2,0.8c1.2-0.5,2.3-0.7,3.3-0.6c0.8,0,1.6,0.3,2.4,0.7c0.8,0.4,1.6,0.9,2.3,1.3L74.1,20
				c0.8-0.3,1.6-0.5,2.4-0.8L74.9,18.7z M69.5,26c1.3-1.5,2.6-2.7,4-3.6l1.7,4.5C73.8,26.1,71.9,25.7,69.5,26z"/>
		</g>
		<g>
			<path d="M80.2,17.2l-1.1,0.3c-0.3-0.1-0.6-0.3-0.7-0.5L78,16.4l-0.6-0.1c0.4,1.5,0.9,2.7,1.6,3.7c-0.7-0.8-1.2-1.2-1.6-1.4
				c-0.6-0.3-1.5-0.2-2.7,0.1c-0.3,0.1-0.7,0.3-1.1,0.4l1.6,0.4c0.8-0.3,1.5-0.4,2.1-0.2s1,0.5,1.2,1l1.9,6.6l1.3,0.6l-2.5-9.3
				c0.8-0.2,1.6-0.4,2.4-0.6C81.2,17.6,80.7,17.4,80.2,17.2z"/>
		</g>
		<g>
			<path d="M92.8,15.2l-1.1,0.1c0.1-1.7-1.8-2.5-5.6-1.9c-0.4,0.1-0.9,0.2-1.7,0.4c-0.7,0.2-1.3,0.3-1.7,0.4c-0.5,0.1-0.9,0.1-1.4,0
				c-0.5-0.1-0.8-0.2-0.9-0.5c-0.1-0.3,0.1-0.6,0.5-0.9l-0.5,0.1c-0.2,0-0.4,0.2-0.6,0.5c-0.2,0.3-0.2,0.5-0.2,0.7
				c0.2,0.6,0.8,1,1.8,1.1c0.9,0.1,1.9,0.1,2.9-0.1l2-0.4c0.9-0.2,1.6-0.3,2-0.4c0.4-0.1,0.8-0.1,1.2,0c0.6,0.1,0.8,0.2,0.9,0.4
				c0,0.2-0.2,0.4-0.7,0.6c-0.4,0.1-0.7,0.2-1.1,0.3c-3.1,0.4-6.1,1-9.1,1.7l1.6,0.6c1.4-0.3,2.8-0.6,4.2-0.9c0.6,0.2,0.9,0.4,1,0.5
				l0,0c-0.8,0.1-1.4,0.5-2,1c-0.5,0.5-0.8,1-0.7,1.5c0.1,0.3,0.2,0.4,0.6,0.5s0.7,0.1,1.1,0c0.6-0.1,1.1-0.4,1.6-0.8
				c0.5-0.4,0.7-0.8,0.6-1.2c0.2-0.1,0.4-0.1,0.6-0.2c0.5-0.1,1,0,1.3,0.3c0.4,0.3,0.6,0.6,0.6,1c0.1,0.5-0.4,1-1.3,1.5
				c-0.8,0.4-1.6,0.7-2.3,0.8c-1.3,0.2-2.6,0.2-3.8,0c0.7,0.6,1.3,1.3,2,1.9c1.8,0,3.6,0.2,5.3,0.7c1.7,0.5,3.2,1.3,4.3,2.2
				l-0.4-1.2c-2.1-1.3-4-2.2-5.5-2.6c1.4-0.8,2.2-1.2,2.3-1.3c0.8-0.5,1.1-1.2,1-1.9c-0.1-0.8-0.5-1.4-1.2-1.7
				c-0.4-0.2-1.1-0.4-2.1-0.6c-0.8-0.2-1.3-0.4-1.4-0.6c2.3-0.3,4.7-0.6,7.1-0.7C93.8,15.8,93.3,15.5,92.8,15.2z"/>
		</g>
		<g>
			<path d="M116.9,17.6c-5.5-1.5-11.1-2.3-16.8-2.5l1.3,1c4.4,0.2,8.7,0.8,13,1.8l-1.4,5.8c-0.3-0.7-0.6-1.4-0.9-2
				c0.1-0.1,0.1-0.3,0.2-0.5c0.2-0.8-0.1-1.6-0.8-2.5s-1.8-1.4-2.9-1.5c-0.7-0.1-1.2-0.1-1.7,0c-0.6,0.2-0.9,0.5-1,0.9
				c0,0.4,0.2,0.7,0.6,1c0.4,0.3,0.9,0.5,1.4,0.5c0.9,0.1,1.5-0.1,1.9-0.7c0.4,0.1,0.7,0.3,0.9,0.8c0.2,0.4,0.2,0.8,0.1,1.1
				c-0.1,0.5-0.4,0.8-0.9,1c-0.5,0.2-1.1,0.2-1.8,0.1c-1.5-0.2-2.7-0.9-3.7-2c-0.5-0.6-1.1-1.7-1.8-3.2l-0.8-0.3
				c0.3,1.5,1,2.9,2,4.2c1.2,1.7,2.6,2.6,4.3,2.9c1.2,0.2,2.3-0.1,3.2-0.8c1.1,1.5,1.7,2.9,1.8,4.1l0.4,0.4l2.3-9
				c0.8,0.2,1.5,0.4,2.3,0.6C117.6,18.5,117.2,18,116.9,17.6z"/>
		</g>
		<g>
			<path d="M122.4,19.4l-1.1-0.4c-0.2-0.3-0.3-0.5-0.3-0.8l0-0.8l-0.4-0.4c-0.5,1.5-0.7,2.8-0.8,4c-0.1-1-0.3-1.7-0.6-2
				c-0.4-0.6-1.2-1.1-2.3-1.4c-0.4-0.1-0.7-0.2-1.2-0.2c0.4,0.4,0.8,0.8,1.1,1.2c0.8,0.2,1.4,0.5,1.9,1s0.6,1,0.4,1.5l-2.1,6.5
				c0.3,0.4,0.5,0.8,0.8,1.3l3.1-9.1c0.8,0.3,1.6,0.5,2.3,0.9C123.1,20.3,122.7,19.8,122.4,19.4z"/>
		</g>
		<g>
			<path d="M134.2,24.9c-3.9-2.3-8.1-4.2-12.4-5.7c0.3,0.5,0.7,0.9,1,1.4l1.5,0.6l-1.9,4.8c0.4,0.6,0.7,1.2,1.1,1.8
				c0.7-0.6,1.6-1,2.7-1.1c1.1-0.2,2.3-0.1,3.5,0.2c-0.7,0.6-1.1,1.2-1.5,1.9c-0.4,0.8-0.7,2-1.1,3.7l0.6,0.7
				c0.4-1.2,0.6-2.1,0.9-2.6c0.6-1.2,1.8-2.2,3.6-3c-0.5-0.7-1-1.5-1.5-2.2c-1-0.2-2.1-0.3-3.4-0.3c-1.1,0-2.1,0.1-3.2,0.2l1.5-3.5
				c3.2,1.4,6.3,3,9.3,4.8C134.8,25.9,134.5,25.4,134.2,24.9z"/>
		</g>
		<g>
			<path d="M146.2,33.6c-0.6-0.7-0.8-1.3-0.5-1.8c-0.1-0.4-0.2-0.7-0.3-1c-0.7,0.9-1.6,2.2-2.6,3.9c0.1-0.5,0.1-1.2-0.1-2.3
				c-0.2-1.2-0.5-2-0.8-2.3c-0.6-0.4-1.2-0.7-2-0.8c-0.6-0.1-1.2,0-1.8,0.2c0.2-0.4,0.1-1-0.3-1.6c-0.3-0.6-0.8-1.1-1.4-1.5
				c-0.8-0.5-1.7-1-2.6-1.5l0.7,1.5c1,0.6,1.7,1,1.9,1.2c0.5,0.5,0.8,1,0.7,1.7c-0.6-0.2-1.1-0.3-1.8-0.2c-0.6,0.1-1,0.3-1.2,0.6
				c-0.2,0.3-0.2,0.6-0.1,1s0.4,0.7,0.7,0.9c0.4,0.2,0.8,0.4,1.2,0.4c0.4,0.1,0.8,0,1.1-0.1c0.1,0.9,0.4,1.5,1,1.9
				c0.9,0.7,1.6,0.7,2.1,0.1c0.2-0.3,0.3-0.7,0.1-1.2c-0.1-0.3-0.3-0.7-0.6-1.4c0.1-0.2,0.4-0.2,0.7-0.1c0.3,0.1,0.6,0.2,0.9,0.4
				c0.4,0.3,0.6,0.9,0.8,1.7s0.1,1.3-0.1,1.6l-3.7,4.3c0.1,0.5,0.2,1,0.4,1.5l6.1-7.1c0.6,0.5,1.2,1.1,1.8,1.6
				C146.5,34.7,146.4,34.1,146.2,33.6z"/>
		</g>
		<g>
			<path d="M150.6,31.3c-3-1-5.9-1.8-8.9-2.4c0.9,0.7,1.8,1.4,2.6,2.1c2.3,0.3,4.7,0.7,7.1,1.3L150.6,31.3z"/>
		</g>
	</g>
</g>
</svg>
