<?xml version="1.0" encoding="utf-8"?>
<!-- Generator: Adobe Illustrator 19.0.0, SVG Export Plug-In . SVG Version: 6.00 Build 0)  -->
<svg version="1.1" id="Layer_1" xmlns="http://www.w3.org/2000/svg" xmlns:xlink="http://www.w3.org/1999/xlink" x="0px" y="0px"
	 viewBox="-349 351 300 300" style="enable-background:new -349 351 300 300;" xml:space="preserve">
<style type="text/css">
	.st0{fill:#FFFFFF;}
</style>
<g>
	<path class="st0" d="M-205,365.5h13.7c18.7,1.2,36.1,6.7,52.2,16.4c29.9,18,51.1,48.3,56.1,83.1c3.8,26.5-0.2,51-12.1,73.5
		c-0.2,0.4-0.5,0.4-0.8,0.1l-0.3-0.3c-0.4-0.5-0.5-1-0.2-1.7c5.1-10.4,8.6-20.5,10.5-30.4c1.4-7.5,2.1-16.3,2-26.4
		c-0.1-8-1-15.7-2.8-22.9c-11-44.2-44.4-77.3-88.6-87c-15.6-3.4-31.4-3.4-47.3-0.1c-47,10-83.5,48.2-90.6,95.8
		c-3.9,25.6,0.3,49.9,12.5,73c0.3,0.5,0.2,1-0.3,1.3l-0.3,0.2c-0.2,0.1-0.5,0.1-0.6-0.1c-1.7-2.3-3.2-4.9-4.4-7.9
		c-5.9-14.2-9.2-26.7-9.8-37.6c-0.8-13.8-0.4-29.3,3.6-42.8c4.7-15.9,11.8-30.9,22.9-43.6c9.9-11.4,20.7-21.4,33.8-28.4
		c9.9-5.3,20.5-9.3,31.7-11.9C-218.1,366.3-211.4,366.1-205,365.5L-205,365.5z"/>
	<path class="st0" d="M-301.2,448.5c-7.9,23.7-7.6,47.5,0.8,71.4c1.9,5.3,4.6,10.6,6.6,16c0.1,0.3,0.1,0.7,0,1
		c-0.2,0.6-0.6,1-1.2,1.1c-0.5,0.1-0.9-0.1-1.1-0.5c-1.5-2.3-2.7-4.6-3.8-7.1c-3.5-8.1-6.3-16.6-8.3-25.5c-2.2-9.7-2-20.3-1.6-30.2
		c0.2-6.2,1.1-12.4,2.8-18.4c12.2-44.8,46.6-76.7,92.3-83.6c11.4-1.7,22.1-1.7,32.1,0c32,5.6,56.8,21,74.6,46.2
		c10.2,14.5,16.6,30.7,19.1,48.4c3.3,23.6-0.5,46.1-11.2,67.6c-0.4,0.9-1.1,1.1-2,0.7l-0.5-0.3c-0.8-0.4-1.1-1.4-0.7-2.3
		c9.6-18.2,13.5-38,11.6-59.5c-1.9-21.4-9.4-40.4-22.6-57c-32.7-41.4-89.1-53.4-135.5-28.6C-273.7,400.7-292.6,422.6-301.2,448.5
		L-301.2,448.5z"/>
	<path class="st0" d="M-214.3,386.2c-2.2-0.2-4.4,0.1-6.6,0.7c-1.8,0.5-3.9-0.7-3.9-2.7c0-0.7,0.3-0.9,0.9-0.6l1.3,0.5
		c0.4,0.2,0.8,0.2,1.2,0.2c5.3,0.1,9.5-1.8,13.6,2.9c0.3,0.4,0.1,1-0.4,1l-3.3,0.3c-1,0.1-1.1,0.4-0.2,1c2.9,1.8,2.1,4,0.4,6.2
		c-0.3,0.4-0.2,1,0.2,1.3l4.9,3.1c0.2,0.1,0.2,0.4,0.1,0.6l-0.2,0.3c-0.1,0.2-0.3,0.2-0.4,0.1c-3.4-2.1-6.9-3.3-10.5-3.6
		c-0.9-0.1-1.6-0.4-2.2-1l-0.7-0.7c-0.6-0.6-0.4-0.9,0.4-0.9c2.8-0.1,5.3-0.9,7.4-2.3c0.2-0.1,0.3-0.4,0.2-0.6l-0.2-0.3
		c-0.3-0.6-0.8-0.8-1.4-0.4c-1.8,1.1-3.5,2.7-5.7,1.6c-0.5-0.2-0.6-0.6-0.2-1l1.4-1.7c0.6-0.8,0.5-1-0.5-0.8l-5.1,1.2
		c-0.8,0.2-1.2,1-1,1.7c0.9,3,1.6,6,2.2,9c0.3,1.8,0,2-1,0.4c-1.2-1.8-2.1-4.1-2.9-6.9c-0.4-1.6-1.4-2.3-3.1-2.3c-0.1,0-0.3,0-0.4,0
		c-1.6,0.1-2.2,0.9-1.7,2.4l2.1,7.2c0.5,1.7,0.1,2.1-1.4,0.9c-2.5-2-5.8-1.1-8.9-1.2c-2.1-0.1-2.4-0.8-0.9-2.3
		c1.1-1,1.9-2.1,2.4-3.3c0.3-0.6,0.1-0.8-0.5-0.6c-2.4,0.9-4.7,2-6.8,3.6c-0.4,0.3-0.5,0.7-0.3,1.1l4,8.5c0.1,0.1,0,0.3-0.1,0.3
		l-0.4,0.1c-0.4,0.1-0.9,0-1.1-0.4l-2.6-3.6c-1-1.3-3-1-3.5,0.6c-0.7,2.2-1.1,5.4-4.5,4.6c-1.9-0.5-2-1-0.1-1.8
		c0.9-0.4,1.4-1,1.6-1.9c0.2-1.3-0.3-1.8-1.5-1.5c-2.8,0.7-4.9,1.9-6.4,3.8c-2.5,3.2-1.9,5.7,1.8,7.7c0.7,0.4,1.2,0.2,1.3-0.7
		l0.1-0.9c0.1-0.4,0.3-0.8,0.7-0.9c0.8-0.3,1.6-0.4,2.4-0.3c0.4,0.1,0.7,0.5,0.7,0.9c-0.9,4.5-6.1,4-9,1.7c-1.5-1.1-2.1-2.6-1.8-4.5
		c0.5-3.2,1.3-5.1,4-6.8c8.4-5.5,16.8-9.8,25.1-13.1c2.1-0.8,4.4-1.4,6.8-1.8c0.5-0.1,0.7-0.4,0.6-0.9l-0.1-0.4
		c-0.2-0.7,0.1-1,0.8-0.7l1.3,0.5c0.4,0.2,0.8,0.2,1.2,0.1l10.5-2.5C-213.2,386.5-213.2,386.3-214.3,386.2 M-235,397.5
		c-0.7,0.5-1.4,0.6-1.8,1.4c-0.1,0.3,0,0.7,0.3,0.8c1.1,0.4,2.3,0.4,3.4,0c0.5-0.2,0.7-0.5,0.5-1c-0.2-0.5-0.6-1-1.1-1.3
		C-234.1,397.2-234.6,397.2-235,397.5 M-248.3,402.2l-0.2-0.9c0,0,0-0.1-0.1-0.1c-1.8,0-3.1,0.6-4,1.5c-0.2,0.2-0.3,0.5-0.1,0.8
		c0.1,0.2,0.2,0.3,0.4,0.4c0.3,0.1,0.5,0.1,0.8-0.1c0.9-0.6,1.9-1,3.1-1.3C-248.3,402.5-248.3,402.4-248.3,402.2L-248.3,402.2z"/>
	<path class="st0" d="M-145.7,404c-0.2-0.5-0.4-1-0.8-1.4c-0.4-0.5-0.6-0.4-0.6,0.2c-0.1,2.6-1.3,3.3-3.6,2
		c-1.4-0.8-2.7-1.6-4.1-2.6c-0.4-0.3-0.6-0.7-0.5-1.2c0.2-1,0.8-1.7,1.7-2.1c1.1-0.5,1.1-1,0-1.4l-11-4.3c-0.3-0.1-0.6-0.1-0.9-0.1
		c-1.6,0.4-2.1,1.1-1.6,2.3c0.2,0.5,0.8,0.9,1.4,0.8c2.3-0.2,4.3,0,6.2,0.5c1.1,0.3,1.4,1.7,0.5,2.4c-1.7,1.4-3,3.1-3.8,5.3
		c-0.2,0.5-0.5,0.6-1,0.4c-0.3-0.1-0.4-0.3-0.3-0.6c0.2-1.8,0.4-3.5,0.7-5.1c0.1-0.5-0.4-1-0.9-0.8l-4.3,1.1
		c-1.1,0.3-2.1-0.7-1.9-1.8l1-4.9c0.1-0.4,0-0.8-0.3-1.1c-0.4-0.5-0.9-0.8-1.5-0.9c-0.5-0.1-1,0.1-1.2,0.5c-1.7,2.4-2.5,6.9-3.1,9.8
		c-0.1,0.5-0.4,0.6-0.8,0.3c-0.3-0.2-0.5-0.4-0.6-0.7c-0.3-0.6-0.4-1.2-0.3-1.9c0.3-1.9,0.7-3.9,1.1-5.8c0.4-1.9-0.3-3.1-2.1-3.6
		c-1.2-0.4-2.5,0.4-2.7,1.7l-1.2,7.9c-0.1,0.6-0.4,0.7-0.9,0.3c-0.1-0.1-0.3-0.2-0.4-0.3c-0.2-0.2-0.3-0.5-0.3-0.8
		c-0.2-2-1.3-2.8-3.4-2.3c-6.1,1.3-9.1-4.8-11.6-9.2c-0.2-0.4-0.1-0.7,0.4-0.7c1.6-0.1,3.1-0.1,4.5-0.1c5.9,0.4,11.8,1.1,17.6,2.2
		c0.4,0.1,0.8,0,1.2-0.1c0.3-0.1,0.6-0.3,0.8-0.6c0.3-0.4,0.7-0.4,1,0c0.8,1,2,1.8,3.3,2.1c7.6,1.9,14.2,4.9,19.8,8.7
		c1.6,1.1,3.3,1.2,5.1,0.3c0.4-0.2,0.8-0.3,1.2-0.2l8.3,0.8c0.5,0,0.9,0.3,1.1,0.8l0.2,0.5c0.1,0.2-0.1,0.5-0.3,0.5
		c-1.4,0.1-2.7,0-4-0.1c-2.2-0.2-2.8,0.7-1.7,2.6c0.3,0.5,0.1,0.8-0.5,0.9c-1.3,0.1-2.3,0.8-3,2.1c-1.2,2.1-2.5,4.1-3.8,5.9
		c-0.3,0.4-0.7,0.5-1.2,0.3c-0.6-0.3-0.7-0.7-0.5-1.3c1.1-2.2,2.1-4.3,3.2-6.5C-145.6,404.5-145.6,404.2-145.7,404 M-192.5,389.9
		c0.1-1.8-0.7-2.7-2.5-2.6c-0.8,0-1,0.4-0.7,1.1c1.9,4.3,4.7,5.9,8.3,4.6c0.3-0.1,0.4-0.5,0.3-0.7l-0.1-0.3
		c-0.3-0.6-0.8-0.9-1.4-0.9l-2.8,0C-192.1,391.1-192.6,390.5-192.5,389.9 M-186.7,388.7l2.4,4.2c0,0.1,0.1,0.1,0.2,0l0,0
		c1.1-0.6,1.4-2.1,0.7-3.3l-0.1-0.2c-0.7-1.2-2.1-1.7-3.2-1l0,0C-186.7,388.6-186.7,388.7-186.7,388.7 M-143.7,402.5
		c0.5-0.2,0.7-1,0.4-1.9c-0.3-0.9-0.9-1.5-1.4-1.4c-0.5,0.2-0.7,1-0.4,1.9C-144.9,402.1-144.2,402.7-143.7,402.5L-143.7,402.5z"/>
	<path class="st0" d="M-218,438.1c-3.3,0-9,0.7-10.4-3.2c-0.2-0.4-0.1-0.9,0.1-1.3c0.6-1.1,1.5-2.2,1.8-3.5c0.9-3.8,3.7-5,5.7-7.9
		c1.1-1.6,2.1-3.6,3.9-4.5c5.6-2.8,10.7,0.8,14.9,4.4c1.4,1.2,3.2,1.6,5,1.5c0.5,0,1,0.4,0.9,1c-0.2,1.6-1,2.7-2.5,3.3
		c-0.8,0.3-0.9,0.8-0.3,1.4c0.5,0.4,0.6,1,0.5,1.6c-0.1,0.9-0.7,1.3-1.7,1.2c-1.7-0.2-3.3-0.2-4.7-0.2c-0.7,0-0.8,0.3-0.3,0.8
		c0.1,0.1,0.2,0.2,0.2,0.3c0.3,0.4,0.3,0.8-0.2,1.1c-1.8,1.2-2.6,3.1-4.4,4.5c-2.2,1.7-4.5,3.1-6.9,4.3c-0.4,0.2-1,0.2-1.3-0.1
		c-1.1-1-1-2,0.3-3.2C-216.3,438.5-216.5,438-218,438.1L-218,438.1z"/>
	<path class="st0" d="M-190.2,445.5c0.3,0,0.4-0.1,0.4-0.4l0-0.3c0-0.1,0-0.1-0.1-0.1c-5.4-0.7-8.1-3.5-8.1-8.2
		c0-0.5,0.2-0.7,0.7-0.7c8.7,0,16.6,0.1,23.6,0.5c1.1,0.1,1.9,0.5,2.4,1.3c4.7,6.8,6.6,15.3,5.7,25.5c-0.4,4.3-2.3,7.3-5.8,8.9
		c-4,1.9-8.3,3.1-12.9,3.5c-0.7,0.1-1.3-0.4-1.5-1.1c-0.6-2.9-1.2-6-1.7-9.3c-0.8-5.4-4.1-9.5-8.1-12.7c-0.6-0.5-1.5-0.1-1.5,0.7
		l-0.2,7.6c0,1-0.6,1.5-1.6,1.5l-6.4-0.4c-0.7-0.1-1.1-0.4-1-1.2c0.3-3.3-0.4-10.1,2.3-12.4c1.8-1.6,3.4-3.3,4.8-5.3
		c0.3-0.4,0.6-0.4,1-0.1C-196.3,444.5-193.7,445.4-190.2,445.5L-190.2,445.5z"/>
	<path class="st0" d="M-204.4,444.8c-0.1-2,0.8-4.8,1.4-6.6c0.4-1.2,1.2-1.6,2.4-1.1c0.7,0.3,0.9,1.4,0.6,3.2
		c-0.2,0.8-0.5,1.6-1,2.2c-0.7,0.9-1.6,1.8-2.6,2.6C-203.9,445.4-204.4,445.2-204.4,444.8L-204.4,444.8z"/>
	<path class="st0" d="M-206.9,444.6l-10.2,6.3c-0.6,0.3-1.3,0.3-1.8-0.2l-2.1-2c-0.5-0.5-0.5-1,0.1-1.3c4.4-3,8.8-5.4,13.1-7.3
		c0.5-0.2,1.1-0.1,1.5,0.2c1.1,1,1,2.4-0.6,4.1C-206.8,444.5-206.8,444.5-206.9,444.6L-206.9,444.6z"/>
	<path class="st0" d="M-211,461.3c-2.4-0.9-4.9-1.6-5.9-4.2c-0.7-1.9-0.3-3.4,1-4.7c2.5-2.3,5.3-4.4,8.3-6.2
		c0.2-0.1,0.6-0.1,0.8,0.1c0.2,0.2,0.3,0.5,0.2,0.7c-0.6,4.2-1.1,8.5-1.6,12.8c0,0.4-0.2,0.8-0.6,1
		C-209.4,461.5-210.1,461.7-211,461.3L-211,461.3z"/>
	<path class="st0" d="M-215.7,461.1c3.2,1.6,6.6,2.6,10.1,2.9c2,0.2,4,0.5,6,1c1.2,0.3,1.9,1,2.1,2.3c0.3,2.5,0.4,5,0.4,7.4
		c0,1.3-0.7,1.7-1.9,1.3c-7.9-3-15.2-7.2-21.9-12.5c-0.9-0.7-1.5-1.7-1.7-2.8c-0.6-3.1-2.3-5-5.3-5.8c-1.1-0.3-1.4-1.7-0.6-2.5
		c3.3-3,6.1-3.1,8.4-0.5C-217.6,454.6-219.3,459.3-215.7,461.1L-215.7,461.1z"/>
	<path class="st0" d="M-232.7,464.5l-2.1,1.5c-0.3,0.2-0.7,0.2-1,0c-1.5-1-2-2.8-0.9-4.3c2-2.7,4.5-4.3,7.5-4.8
		c4.8-0.8,5.7,5.7,6.1,8.9c0.1,1-0.3,1.6-1.3,1.8c-2.7,0.6-5.1,0.4-7.4-0.6c-0.5-0.2-0.7-0.6-0.6-1.1l0.2-1.1
		C-232.1,464.3-232.3,464.2-232.7,464.5L-232.7,464.5z"/>
	<path class="st0" d="M-189.3,477l-3.7,1.7c-1.3,0.6-2,0.2-2.1-1.3c-0.4-6.5-0.3-13.1,0.1-19.7c0-0.5,0.6-0.8,1-0.5
		c4.7,2.6,6,11.6,6.6,16.6C-187.3,475.3-187.9,476.4-189.3,477L-189.3,477z"/>
	<path class="st0" d="M-212.2,472l12.2,6.5c0.8,0.4,0.9,1,0.4,1.8c-1.2,1.7-2.8,3-4.9,4c-0.5,0.2-1.1,0.1-1.4-0.3
		c-2.7-3.5-5-7.3-6.9-11.4C-213.1,471.8-212.9,471.6-212.2,472L-212.2,472z"/>
	<path class="st0" d="M-270.1,485.1c0.8,1.3,0.8,2.7,0,4.3c-0.3,0.5-0.4,1.2-0.3,1.8c0.3,1.7,0.9,3.4,2,5.1c0.5,0.7,0.1,1.6-0.7,1.9
		l-3.3,1c-0.4,0.1-0.8,0-1.1-0.4c-1-1.4-1.1-2.9-0.1-4.5c1.7-3,1.4-6.4-1-10.2c-0.5-0.8-1.1-0.9-1.8-0.3c-3.1,2.6-6.9,3.4-11.3,2.4
		c-4.5-1-9-2-13.6-2.8c-1.8-0.3-1.8-0.8-0.1-1.3c5.3-1.8,10.9-3.3,16.5-4.7c3.3-0.8,6.1,1,8.8,3c0.5,0.4,1.2,0.2,1.4-0.4
		c0.7-1.8,1.2-5.1,3.2-6c1-0.4,2.1,0.3,2.2,1.4c0,2,1,3.9,2.9,5.7c1,1,0.5,2.7-0.9,3c-0.6,0.1-1.2,0-1.9-0.2
		C-269.8,483.6-270.5,484.4-270.1,485.1L-270.1,485.1z"/>
	<path class="st0" d="M-212.4,479.4c-7.6,0.3-15,0.5-22.1,0.5c-1.5,0-2.6,0.7-3.6,1.6c-0.7,0.5-1.7,0.3-1.9-0.6
		c-1-2.9,1.2-4.7,3.9-4.9c7.6-0.7,14.6-1.1,20.8-1.2c0.4,0,0.8,0.2,1,0.5l2.3,3.4C-211.8,479.2-211.9,479.4-212.4,479.4
		L-212.4,479.4z"/>
	<path class="st0" d="M-197.8,488.8l0.1,0.4c0.1,0.3,0.4,0.5,0.7,0.4c6.9-1.7,13.4-4.2,19.4-7.4c0.8-0.4,1.7-0.4,2.5-0.1l8,3.7
		c0.4,0.2,0.4,0.7,0.1,0.9c-4.9,3.8-9.8,7.3-14.8,10.5c-1.1,0.7-2.6,0.8-3.8,0.2c-3.3-1.7-3.4,3.5-7.1,2.9
		c-6.1-0.9-11.9-2.2-17.5-3.9c-0.6-0.2-0.9-1-0.4-1.5c2.6-2.9,5.4-5.4,8.6-7.3c1.3-0.8,1.8-1.8,2.2-3.2c0.1-0.4,0.4-0.7,0.7-0.9
		l10.8-5c0.1,0,0.2-0.1,0.3-0.1c2.7-0.7,4.7-0.4,5.9,0.9c1.4,1.5,1.2,2.6-0.7,3.5c-4.6,2.1-9.6,4-14.9,5.7
		C-197.8,488.6-197.9,488.7-197.8,488.8L-197.8,488.8z"/>
	<path class="st0" d="M-166.4,483.8c-2.3,0-6.4-2.7-8.3-4.1c-0.8-0.6-0.7-0.8,0.3-0.9c20.5-0.4,40.3-0.7,59.4-1
		c6.8-0.1,13.3,0,19.5,0.3c0.5,0,0.8,0.3,0.8,0.8l0,4c0,0.4-0.2,0.6-0.6,0.6C-119.7,483.7-143.4,483.8-166.4,483.8L-166.4,483.8z"/>
	<path class="st0" d="M-248,484.6c0.3-0.6,0.1-0.9-0.5-0.8l-15.3,0.9c-0.4,0-0.8-0.3-0.8-0.7l-0.2-3.9c0-0.5,0.2-0.8,0.8-0.8
		l20.8-0.1c0.6,0,0.8,0.3,0.7,0.9c-0.7,3.7,2.8,6.3,5.9,3.5c0.8-0.7,1.5-1.4,2.2-2.1c0.3-0.3,0.7-0.5,1.2-0.4l21.8,1.1
		c0.9,0,1.7,0.4,2.3,1.1l0.9,1c0.6,0.7,0.5,1-0.4,0.9c-7-0.3-14.9-1.6-22.1-1.6c-2.5,0-2.7,0.8-0.8,2.3c4.8,3.9,4,15.3,2.6,20.1
		c-0.6,1.9-0.8,3.8-0.7,5.7c0.2,5.3,0.6,10.6,1.2,15.8c0.6,4.5-3.6,9.4-8.4,9.3c-3.4-0.1-6.9-0.2-10.3-0.4c-0.7,0-1.2-0.4-1.5-1
		c-1.4-2.6-3.3-4.6-3.3-7.8c0.1-6.2,0.6-12.1,1.7-17.6c0.3-1.6,0.2-3.1-0.2-4.7c-1.2-4.4-0.8-7.9-0.9-12.2
		C-251.6,489.5-249.5,487.5-248,484.6 M-235.7,497.4l1.3,8.1c0.2,1.2,1.5,1.8,2.5,1.2c1-0.5,1.5-1.3,1.7-2.5
		c0.7-5.1,1.2-14.7-3.8-17.9c-0.3-0.2-0.7-0.3-1.1-0.2c-2.7,0.5-5.3,0.4-8.1-0.3c-1.5-0.4-2.6-0.3-3.7,0.9c-3.7,4.1-3.7,9.9-3,15.2
		c0.3,1.8,1,3.2,2.1,4.4c0.7,0.7,2,0.2,2-0.8l0-3.5c0-1.2,0.6-1.8,1.8-1.8l6.3-0.1c0.1,0,0.2-0.1,0.2-0.2l0-0.4
		c0-0.2-0.1-0.4-0.3-0.4l-6.7-0.5c-0.2,0-0.3-0.2-0.3-0.4l0-0.4c0-0.5,0.4-0.9,0.9-1l7.1-0.2C-236.1,496.6-235.8,496.9-235.7,497.4
		 M-241,522.9c0.6-0.7,1.7-0.7,2.3,0.1l5,6.1c1.7,2.1,2.6,1.8,2.7-0.9c0.1-5.6-0.5-11.4-1.7-17.3c-0.2-1-1-1.8-2.1-2
		c-3.5-0.5-6.9-0.7-10.2-0.5c-1.9,0.1-3.1,1.1-3.4,3c-1.1,6.1-1.6,12.2-1.5,18.1c0,1.2,1.4,1.8,2.3,1.1
		C-245,528.4-243.1,525.3-241,522.9 M-241.8,529.9c1,0.5,2.1,0.6,3.1,0.2c0.8-0.3,1.1-1.2,0.7-2c-1.2-2.1-3.4-1-4.2,0.7
		C-242.4,529.3-242.2,529.7-241.8,529.9L-241.8,529.9z"/>
	<path class="st0" d="M-219.8,521l0.1,0.3c0,0.1,0.1,0.1,0.1,0c1.9-0.9,3.6-1.5,5.2-1.6c0.6-0.1,1.2,0.2,1.5,0.7
		c3.3,5.6,1.1,15.7-0.8,22.2c-1.3,4.5-2.4,10.2-2.2,15c0.2,3.8,0.3,7.7,0.3,11.6c0,1.3-1.1,2.2-2.3,2c-2.2-0.4-4.3-0.7-6.5-0.1
		c-4.1,1.1-7,2.6-11-0.2c-0.6-0.4-0.5-1.3,0.1-1.6l10.6-5.5c0.5-0.3,0.8-0.8,0.8-1.3l-0.7-43.1c0-0.4,0.1-0.9,0.4-1.3
		c4.3-6.6,8.9-12.3,13.8-17.2c1.2-1.2,2.6-1.6,4.2-1.2c3.9,0.8,7.8,1.7,11.5,2.6c1.7,0.4,3.4,0.3,4.8-0.3c1.8-0.7,3.1-2,5.2-1.8
		c3.6,0.4,9.3-4.7,12.3-6.8c1.1-0.8,1.5-0.5,1,0.8c-1.4,4.2-4,7.1-7.8,8.8c-9.9,4.3-19.5,8.2-28.8,11.4c-3.8,1.3-7.7,3.1-11.7,5.5
		C-219.9,520.2-220,520.7-219.8,521L-219.8,521z"/>
	<path class="st0" d="M-178.1,522.3c1.1-1,2.2-2,3.1-3.2c0.3-0.3,0.7-0.6,1.1-0.6c2.5-0.5,5.1-0.5,7.8-0.1c10,1.5,19.9,2.6,29.7,3.2
		c2,0.1,4,0.1,6-0.1c0.6,0,1.1,0.2,1.3,0.7c0.9,1.8,1.2,3.8,0.8,5.9c-0.6,3.3-0.9,6.8-0.8,10.2c0,1.8-0.7,3.5-2.1,4.7
		c-0.3,0.3-0.7,0.5-1.2,0.7c-1.5,0.6-2.1,0.1-2.1-1.5c0.1-3-0.7-6.3-2.5-9.8c-2.3-4.4-5.9-4.7-10.3-4.1c-10.6,1.3-21.4,2.7-32.3,4
		c-1.1,0.1-1.9-0.3-2.4-1.2c-3.5-6.2-6.4-12.1-8.6-17.6c-0.4-1.1-0.2-2,0.8-2.6c4.8-3.2,9.8-6,14.8-8.2c0.3-0.1,0.7,0,0.8,0.4
		c0.1,0.5,0.1,1,0,1.5c-1.3,5.8-2.7,11.6-4.3,17.2C-178.9,522.8-178.7,522.9-178.1,522.3L-178.1,522.3z"/>
	<path class="st0" d="M-245.1,510.7c2.8-0.8,5.8-0.9,8.7-0.7c0.4,0,0.7,0.2,1,0.5c3.5,3.6-1.7,7.1-4.4,9.2c-0.4,0.3-0.8,0.3-1.2,0
		c-1.6-1.2-3.3-2.3-5-3.6C-247.7,514.8-247.2,511.4-245.1,510.7L-245.1,510.7z"/>
	<path class="st0" d="M-233.6,517.7l1.8,9.5c0.2,0.9-0.9,1.3-1.5,0.7l-5.1-6.5c-0.3-0.3-0.2-0.8,0.1-1.1l3.4-3
		C-234.5,516.8-233.7,517-233.6,517.7L-233.6,517.7z"/>
	<path class="st0" d="M-247.8,519.3l0.7-1.6c0.3-0.6,1-0.7,1.4-0.3l3.8,3.4c0.3,0.3,0.4,0.9,0.1,1.2l-4.8,5.9
		c-0.6,0.7-1.6,0.3-1.6-0.6l0.3-7.7C-247.9,519.5-247.9,519.4-247.8,519.3L-247.8,519.3z"/>
	<path class="st0" d="M-198.4,636.5h-7.3c-35.7-3.4-66.7-16.6-93.1-39.4c-10.6-9.2-20.5-20.6-29.4-31.9c-0.9-1.1-1.6-2.2-2.3-3.5
		c-0.2-0.4,0-0.9,0.4-1.2c5.2-2.6,9.9-6.2,13.9-11c0.3-0.3,0.2-0.6-0.1-0.8c-1.3-0.8-2.4-1.9-3.4-3c-3.8-4.4-2.3-11.7,4.1-12.2
		c6.8-0.6,7.3,6.7,6.4,11.6c-0.2,1.3,0.3,1.8,1.6,1.6c6.1-0.9,10-3.6,14.6-7.3c0.7-0.6,1.3-0.5,1.8,0.3c5.3,8.8,11.9,16.7,19.6,23.7
		c19.3,17.5,42.2,26.8,68.6,28c7.7,0.3,15.7-0.3,23.8-1.9c19.1-3.8,36-12.3,50.8-25.3c9.3-8.2,16.9-17.1,22.7-26.8
		c0.3-0.5,0.9-0.6,1.4-0.3c4.8,3.8,9.9,6.3,15.2,7.4c1.8,0.4,2.5-0.3,2.2-2.1c-0.7-4.3,1.4-8.9,5.9-10.1c2.2-0.6,4-0.1,5.5,1.7
		c4.6,5.3,0,12.2-5.4,14.5c-0.6,0.3-0.7,1-0.3,1.4l13.3,13.2c0.4,0.4,0.5,0.9,0.1,1.4c-5.7,7.9-11.8,15.5-18.3,22.8
		c-24,26.8-53.7,42.5-89.1,47.2c-2.4,0.3-6.3,0.6-11.6,1C-190.6,635.8-194.5,636.1-198.4,636.5 M-77.2,539.4
		c0.4-1.3,0.1-2.2-1.1-2.9c-0.6-0.3-1.2-0.5-2-0.3c-0.6,0.1-1.2,0.4-1.6,1c-1.4,2.1-1.8,4.3-1.3,6.8c0.3,1.1,1.6,1.6,2.5,0.8
		C-79.1,543.4-78,541.6-77.2,539.4 M-313.8,544.9c1.6-0.5,2.4-2.6,1.8-4.7c-0.6-2.1-2.4-3.5-4-3c-1.6,0.5-2.4,2.6-1.8,4.7
		C-317.2,544-315.4,545.3-313.8,544.9 M-265.3,615.8c12.7,6.7,27.5,11.8,44.3,15.1c7,1.4,14.4,2,22.3,1.8c8.7-0.2,16.3-0.8,22.9-1.6
		c22-2.8,42.1-10.3,60-22.4c17-11.5,31.7-27.3,43.5-44c0.2-0.2,0.1-0.6-0.1-0.8c-4.8-4.1-9-8.6-12.6-13.6c-0.6-0.8-1.5-1.4-2.5-1.6
		c-5.3-1.2-10.5-3.1-15.5-5.9c-0.7-0.4-1.7-0.2-2.1,0.5c-22.1,32.8-57.1,52.2-96.5,51.6c-26.1-0.4-51.1-10.4-70.7-27.5
		c-7.6-6.6-13.7-14.2-19.7-22.3c-0.4-0.5-1-0.6-1.6-0.3c-4.6,3.2-9.7,4.9-15.3,5c-1.4,0-3.1,0.4-4,1.5c-3.3,4-7.2,7.5-11.4,10.3
		c-0.5,0.3-0.6,1-0.3,1.4C-308.1,586.1-288.3,603.6-265.3,615.8L-265.3,615.8z"/>
	<path class="st0" d="M-249,538.5c0-0.2,0.1-0.3,0.3-0.3l11.5,0c3.5,0,6.3,0.3,6.3,0.8v0.5c0,0.4-2.8,0.8-6.3,0.8l-11.5,0
		c-0.2,0-0.3-0.1-0.3-0.3V538.5L-249,538.5z"/>
	<path class="st0" d="M-107.3,571.2c0.7-0.2,1.3-0.5,1.9-0.8c0.4-0.2,0.8-0.2,1.1,0c1.9,1.3,3,3.3,3.2,6c0,0.6-0.4,1.1-1,1.2
		l-1.1,0.2c-0.8,0.1-1.6-0.5-1.6-1.4l0-2.8c0-0.3-0.1-0.5-0.4-0.5l-0.5-0.1c-0.2,0-0.5,0.1-0.5,0.4c-0.1,1.4-0.8,2.3-2,2.7
		c-0.4,0.1-0.7,0.1-1.1-0.1c-4.9-3.2-1.6-8.7,2.9-9.8c0.9-0.2,1-0.6,0.2-1.1c-0.7-0.5-1.3-1-1.9-1.5c-0.9-0.8-0.8-1.2,0.4-1.3
		l4.4-0.3c0.5,0,0.7,0.2,0.5,0.7l-0.4,1c-0.2,0.5-0.1,0.9,0.3,1.2l11.5,9.3c0.3,0.3,0.3,0.5,0,0.8c-0.4,0.3-0.8,0.5-1.3,0.4
		c-0.9-0.1-1.7-0.4-2.3-0.9c-3.1-2.5-5.9-4.3-8.5-5.5c-1.9-0.9-3.5-0.3-4.6,1.7C-108.3,571.2-108.1,571.5-107.3,571.2L-107.3,571.2z
		"/>
	<path class="st0" d="M-290.5,570c-1.2-1.4-2.5-3-3.7-4.6c-0.5-0.7-0.8-1.4-0.9-2.3c0-0.3,0.2-0.5,0.6-0.7c0.3-0.1,0.7-0.1,0.9,0.2
		l10.9,11.6c0.4,0.4,0.8,0.4,1.2-0.1c0.1-0.1,0.3-0.3,0.4-0.3c0.7-0.4,1.1-0.2,1.2,0.6l0.5,4.3c0.1,0.5-0.1,0.6-0.6,0.4
		c-1.1-0.6-2-0.4-2.8,0.6c-3,3.5-6,7-9,10.6c-0.4,0.5-0.9,0.6-1.5,0.4l-0.3-0.1c-0.3-0.1-0.4-0.5-0.2-0.8c2.3-3.8,5.1-7.3,8.5-10.5
		c1-1,1.2-2.1,0.5-3.4c-0.3-0.7-0.6-1.1-0.7-1.4c-0.6-1.2-1.4-1.3-2.3-0.3c-3.2,3.6-6.7,7.2-10.6,10.7c-0.9,0.8-1.2,0.7-0.9-0.5
		c0.9-3.6,0.8-7.7-0.3-12.3c-0.6-2.6,0.3-3.6,2.9-2.9l6,1.5C-290.2,570.7-290.1,570.5-290.5,570 M-295.5,573c-0.4-0.2-1,0-1.1,0.5
		c-0.3,1.5-0.3,2.9,0.1,4.3c0.2,0.8,0.6,0.9,1.2,0.4c1-0.7,1.9-1.7,2.6-2.8c0.3-0.4,0.1-1-0.3-1.3L-295.5,573L-295.5,573z"/>
	<path class="st0" d="M-137.7,594.2c0.5-0.9,0.3-1.1-0.7-0.7c-2.7,1.3-5.3,2.7-7.8,4.2c-0.3,0.2-0.4,0.5-0.2,0.8l6,13.4
		c0.6,1.2,0.2,1.6-1,1.1c-0.8-0.3-1.3-0.9-1.7-1.7c-1.9-3.9-3.7-7.6-5.5-10.9c-0.2-0.4-0.5-0.6-0.9-0.8l-2.8-1.1
		c-0.5-0.2-0.6-0.8-0.2-1.1l0.7-0.7c0.3-0.3,0.4-0.6,0.3-1c-1.4-4.7-0.1-7.6,4.1-8.7c2.1-0.6,4.9-0.4,8.5,0.4c0.2,0,0.3,0.2,0.2,0.4
		l-0.1,0.4c-0.1,0.3-0.3,0.4-0.6,0.4c-3.8-0.3-10.1,0-9.8,5.3c0.1,1,1.1,1.6,2,1.2c9.8-4.6,19.4-10.9,28.9-18.7
		c0.2-0.2,0.3-0.4,0.4-0.7c0.1-0.5,0-0.9-0.1-1.4c-0.1-0.3,0.1-0.7,0.5-0.7l3.8-0.1c0.3,0,0.6,0.2,0.6,0.5c0.1,0.5,0,0.9-0.1,1.3
		c-0.3,0.6-0.1,1.2,0.3,1.7l9.6,10.1c0.9,0.9,0.7,1.4-0.6,1.4c-0.9,0-1.6-0.3-2.2-1c-2.6-2.6-5.1-5.2-7.7-7.7
		c-1.2-1.2-3.1-1.3-4.4-0.3l-14.1,10.7c-0.8,0.6-0.9,1.3-0.4,2.2c2.2,3.7,4.3,7.4,6.5,11c1.7,2.8,1.2,3.3-1.5,1.4
		c-2.3-1.5-5-2.1-8.2-1.7c-1.9,0.3-3.6-0.2-5-1.3c-0.4-0.3-0.4-0.7-0.2-1.1L-137.7,594.2 M-131.1,600l-2-3.6c-0.6-1-1.1-1-1.7,0
		l-1.1,1.8c-0.5,0.8-0.3,1.4,0.6,1.7c1.2,0.4,2.6,0.5,4.1,0.3C-131,600.2-131,600.1-131.1,600L-131.1,600z"/>
	<path class="st0" d="M-280.6,587.7c-0.6-0.2-1.3,0.3-1.1,1c0.8,3.9,1.1,7.5,1.1,10.7c0,3.2-0.5,3.3-1.5,0.3c-1-3-1.8-6-2.4-9.1
		c-0.1-0.6,0.1-1.3,0.6-1.8c1.4-1.3,2.3-2.9,2.9-4.6c0.3-1.1,1-1.9,1.9-2.5c3.7-2.4,7.1,2.4,4.6,5.5c-1.2,1.5-2.7,2-4.6,1.7
		c-0.4-0.1-0.8-0.3-1-0.7C-280.4,587.9-280.5,587.7-280.6,587.7 M-276.6,584.6c-0.2-0.5-0.9-0.7-1.6-0.5c-0.7,0.3-1.1,0.9-0.9,1.4
		c0.2,0.5,0.9,0.7,1.6,0.5C-276.8,585.8-276.4,585.1-276.6,584.6L-276.6,584.6z"/>
	<path class="st0" d="M-117.2,586.2c-0.3,2.5-2,4.1-4.9,4.7c-0.9,0.2-1.8-0.2-2.4-0.9c-0.8-1.1-1-2.4-0.5-3.7
		c0.5-1.3,2.1-1.7,3.1-0.8c0.2,0.2,0.4,0.3,0.7,0.3c0.5,0,0.8-0.3,0.8-0.8c0-0.6,0.2-1.2,0.7-1.7c0.4-0.4,0.9-0.6,1.5-0.5
		c5.3,0.5,8.6,5.8,5.6,10.5c-4.2,6.6-13.1,1.7-16.8-2.3c-1-1-0.8-1.3,0.5-0.8c1.2,0.4,2.4,1,3.6,1.6c4,2.2,8.6,2,10.8-2.6
		c0.5-1,0.3-1.9-0.5-2.7l-0.9-0.8C-116.7,585-117.1,585.2-117.2,586.2L-117.2,586.2z"/>
	<path class="st0" d="M-217.8,609.5l0.8,1.4c0.2,0.3,0.3,0.7,0.3,1.1c-0.1,1.4-0.7,2.3-1.9,2.7c-0.5,0.2-0.9,0.1-1.3-0.2
		c-1.1-0.8-2.4-1.1-4-0.9c-0.5,0.1-0.9,0-1.2-0.3c-0.8-0.6-1.1-1.4-1-2.4c0.1-1.3,1.2-1.9,2.1-2.7c0.7-0.6,0.4-1.7-0.5-1.9
		l-11.5-3.2c-1-0.3-1.7,0.1-2,1l-1,2.4c-0.2,0.6,0.3,1.2,1,1c2.8-1,6.2-2.1,8.3,0.8c0.3,0.4,0.3,0.9,0.1,1.3
		c-2,3.4-3.6,7.2-4.6,11.4c0,0.2-0.2,0.3-0.4,0.3h-0.4c-0.4,0-0.6-0.2-0.6-0.7c0.2-3.3,0.8-6.5,1.6-9.6c0.2-0.6-0.5-1.1-1-0.8
		l-5.4,3.1c-0.4,0.2-0.7,0.2-1.1-0.1c-1.2-1-1.6-2.1-1.1-3.5c0.7-2.1,1.5-4.2,2.2-6.5c0.3-0.8-0.4-1.7-1.3-1.6
		c-6.2,0.6-9.4,4.2-9.6,10.6c0,0.6,0.3,0.8,0.8,0.6c0.6-0.3,1.2-0.7,1.7-1.2c0.5-0.6,1.5-0.6,2,0c3.7,4.7-5.2,7.1-6.1,0.3
		c-0.7-4.7,0.9-8.6,4.7-11.9c0.5-0.4,0.4-1.2-0.2-1.5l-3.6-1.8c-0.4-0.2-0.9,0-1.1,0.4l-6.6,14.3c-0.4,0.8-0.8,0.8-1.2,0
		c-0.1-0.2-0.2-0.5-0.3-0.7c-0.2-0.7-0.1-1.4,0.2-2.1c1.5-3.3,3-6.7,4.5-10.3c0.7-1.7,0.4-3-0.8-3.9c-0.9-0.7-2.2-0.4-2.8,0.6
		l-6.9,12.6c-0.2,0.4-0.5,0.5-0.9,0.2c-0.1-0.1-0.2-0.2-0.2-0.3c-0.3-0.8-0.3-1.5,0-2.3c1-2.4,2.1-4.8,3.3-7.2
		c0.2-0.3,0.3-0.8,0.3-1.2c-0.1-1.3-0.5-1.8-1.4-1.5c-1.4,0.5-2.6,1.3-3.6,2.5c-0.3,0.3-0.6,0.5-1.1,0.5c-5.2-0.4-6.5-6-2.2-8.7
		c1.5-1,4-1.1,5.3,0.4c1.2,1.2,2.9,2.1,5.3,2.7c0.3,0.1,0.5,0,0.6-0.3c0-0.1,0-0.3-0.2-0.4c-0.1-0.1-0.1-0.1-0.2-0.2
		c-3.6-1.8-6.9-4.3-9.7-7.3c-0.1-0.2-0.2-0.4-0.2-0.6l0.2-0.7c0-0.2,0.3-0.4,0.5-0.2c4.9,3.1,9.9,6.1,14.8,8.9
		c0.6,0.3,1.3,1,1.7,1.5c0.3,0.4,0.7,0.4,1,0c0.3-0.4,0.5-0.8,0.7-1.3c0.1-0.3,0.4-0.6,0.7-0.8c0.2-0.1,0.3-0.1,0.5,0
		c0.3,0.2,0.5,0.4,0.5,0.8c0.1,1.5,1,2.6,2.5,3.2c8.1,3.4,16.3,6.1,24.8,8.1c1,0.2,1.9,0.8,2.5,1.7c0.5,0.8,1.6,1,2.4,0.4
		c1.4-1.1,2.6-0.9,3.5,0.6c1,1.5,1.6,1.4,1.8-0.4c0.1-0.8,0.1-1.5,0.1-2.3c0-0.5,0.5-0.7,0.9-0.4c1.2,1.1,2.2,2.6,3,4.2
		c0.2,0.3-0.1,0.7-0.4,0.7c-1.2,0-1.8,0.7-1.9,1.9c-0.2,4.6-0.8,9.1-1.8,13.6c-0.1,0.5-0.4,0.7-0.9,0.6l-0.3,0
		c-0.2,0-0.3-0.2-0.3-0.4c0-4.3,0.1-8.3,0.3-12.1c0.1-1.5-0.6-2.5-2-3C-218,608.6-218.2,608.8-217.8,609.5 M-272.1,593.9
		c1.1,0.1,2.4,0.1,3,1.1c0.3,0.5,0.6,0.5,0.9-0.1c0.1-0.2,0.1-0.4,0-0.6c-0.8-1.7-2.1-2.3-3.8-1.9c-0.4,0.1-0.6,0.3-0.7,0.7
		C-272.8,593.6-272.6,593.9-272.1,593.9L-272.1,593.9z"/>
	<path class="st0" d="M-169.4,605.6l-8.3,1.4c-0.9,0.2-1.6,1-1.5,2l2.1,14.8c0,0.3-0.1,0.5-0.4,0.4l-0.4-0.1
		c-0.4-0.1-0.7-0.3-0.9-0.7c-1.8-4-1.7-8.9-2.9-13.1c-0.3-1.1-1.2-1.9-2.3-2c-2.5-0.4-5-0.1-7.6,0.8c-0.4,0.2-0.7,0.5-0.7,0.9l0,3.2
		c0,0.6,0.3,0.8,0.9,0.6c0.8-0.4,1.4-1,1.7-1.8c0.4-0.8,1.5-1,2.1-0.4c3.3,3.3,4.6,9.8-1.1,11.6c-4.3,1.3-7.4-0.2-9.3-4.5
		c-1.3-3.1-2-6-2-8.7c0-0.4-0.3-0.8-0.7-0.9c-0.6-0.3-1.1-0.7-1.4-1.3c-0.2-0.5,0.1-1.2,0.7-1.2l17.9-1c1-0.1,1.5-0.6,1.3-1.6
		l-0.1-0.7c-0.1-0.5,0.1-0.7,0.7-0.6c0.2,0,0.4,0.1,0.5,0.3c0.3,0.5,0.6,0.9,1,1.3c0.3,0.3,0.6,0.4,1,0.3c5.6-1,11.1-2.2,16.6-3.9
		c0.8-0.2,1.6-0.1,2.2,0.4l0.6,0.4c0.6,0.4,0.5,0.8-0.2,1c-0.7,0.3-1.4,0.4-2.1,0.5c-2.4,0.3-2.5,1-0.3,2.1c2,1,3.4,2.5,4.2,4.5
		c1,2.3-1.1,4-3.3,3.8c-1.7-0.2-2.2,0.5-1.5,2.1c0.4,0.9,0.7,1.8,0.9,2.7c0.4,2.1-0.1,2.4-1.6,0.8c-1.5-1.6-3.8-3.1-6-3.5
		c-1.6-0.3-3.1-0.9-4.6-1.9c-1.5-1-1.6-2-0.1-3.1c1.8-1.3,3.5-2.8,5.1-4.5C-168.6,605.7-168.7,605.5-169.4,605.6 M-163.9,610.8
		c0.1,0.4,0.7,0.6,1,0.2c0.6-0.6,1.3-1.1,2.2-1.4c0.5-0.2,0.5-0.4,0.2-0.8c-1-1.1-2.1-1.5-3.5-1.2c-0.4,0.1-0.7,0.5-0.5,0.9
		L-163.9,610.8 M-166.9,614c0.6,0.3,1.2-0.2,1-0.8l-0.7-3.6c-0.1-0.6-0.8-0.8-1.3-0.4l-2.2,2.3c-0.4,0.4-0.3,1,0.2,1.2L-166.9,614
		 M-193.8,619.6c2.1,1.7,5.8-0.1,6.8-2.2c0.5-1,0.2-1.5-1-1.3c-0.9,0.1-1.7,0.5-2.4,1.1c-1.1,1-2.9,0.7-3.5-0.7
		c-1-2.1-1.3-4.3-1.1-6.5c0-0.5-0.3-0.9-0.8-0.9l-1.6-0.1c-0.7,0-1,0.3-1,1C-198.1,614.2-196.6,617.4-193.8,619.6L-193.8,619.6z"/>
</g>
</svg>
