<?xml version="1.0" encoding="utf-8"?>
<!-- Generator: Adobe Illustrator 19.0.0, SVG Export Plug-In . SVG Version: 6.00 Build 0)  -->
<svg version="1.1" id="Layer_1" xmlns="http://www.w3.org/2000/svg" xmlns:xlink="http://www.w3.org/1999/xlink" x="0px" y="0px"
	 viewBox="-465 267 28 27" style="enable-background:new -465 267 28 27;" xml:space="preserve">
<style type="text/css">
	.st0{fill:#D00C09;}
</style>
<g>
	<path class="st0" d="M-451.5,268.7h1.2c1.6,0.1,3.1,0.6,4.5,1.4c2.6,1.6,4.5,4.2,4.9,7.2c0.3,2.3,0,4.4-1.1,6.4c0,0,0,0-0.1,0l0,0
		c0,0,0-0.1,0-0.1c0.4-0.9,0.7-1.8,0.9-2.6c0.1-0.7,0.2-1.4,0.2-2.3c0-0.7-0.1-1.4-0.2-2c-1-3.9-3.9-6.7-7.7-7.6
		c-1.4-0.3-2.7-0.3-4.1,0c-4.1,0.9-7.3,4.2-7.9,8.3c-0.3,2.2,0,4.3,1.1,6.4c0,0,0,0.1,0,0.1l0,0c0,0,0,0-0.1,0
		c-0.1-0.2-0.3-0.4-0.4-0.7c-0.5-1.2-0.8-2.3-0.9-3.3c-0.1-1.2,0-2.6,0.3-3.7c0.4-1.4,1-2.7,2-3.8c0.9-1,1.8-1.9,2.9-2.5
		c0.9-0.5,1.8-0.8,2.8-1C-452.7,268.8-452.1,268.7-451.5,268.7L-451.5,268.7z"/>
	<path class="st0" d="M-459.9,275.9c-0.7,2.1-0.7,4.1,0.1,6.2c0.2,0.5,0.4,0.9,0.6,1.4c0,0,0,0.1,0,0.1c0,0.1-0.1,0.1-0.1,0.1
		c0,0-0.1,0-0.1,0c-0.1-0.2-0.2-0.4-0.3-0.6c-0.3-0.7-0.5-1.4-0.7-2.2c-0.2-0.8-0.2-1.8-0.1-2.6c0-0.5,0.1-1.1,0.2-1.6
		c1.1-3.9,4.1-6.7,8-7.3c1-0.1,1.9-0.1,2.8,0c2.8,0.5,5,1.8,6.5,4c0.9,1.3,1.4,2.7,1.7,4.2c0.3,2.1,0,4-1,5.9c0,0.1-0.1,0.1-0.2,0.1
		l0,0c-0.1,0-0.1-0.1-0.1-0.2c0.8-1.6,1.2-3.3,1-5.2c-0.2-1.9-0.8-3.5-2-5c-2.8-3.6-7.8-4.7-11.8-2.5
		C-457.5,271.8-459.2,273.7-459.9,275.9L-459.9,275.9z"/>
	<path class="st0" d="M-452.3,270.5c-0.2,0-0.4,0-0.6,0.1c-0.2,0-0.3-0.1-0.3-0.2c0-0.1,0-0.1,0.1-0.1l0.1,0c0,0,0.1,0,0.1,0
		c0.5,0,0.8-0.2,1.2,0.3c0,0,0,0.1,0,0.1l-0.3,0c-0.1,0-0.1,0,0,0.1c0.3,0.2,0.2,0.3,0,0.5c0,0,0,0.1,0,0.1l0.4,0.3c0,0,0,0,0,0.1
		l0,0c0,0,0,0,0,0c-0.3-0.2-0.6-0.3-0.9-0.3c-0.1,0-0.1,0-0.2-0.1l-0.1-0.1c-0.1-0.1,0-0.1,0-0.1c0.2,0,0.5-0.1,0.6-0.2
		c0,0,0,0,0-0.1l0,0c0-0.1-0.1-0.1-0.1,0c-0.2,0.1-0.3,0.2-0.5,0.1c0,0-0.1-0.1,0-0.1l0.1-0.1c0.1-0.1,0-0.1,0-0.1l-0.4,0.1
		c-0.1,0-0.1,0.1-0.1,0.1c0.1,0.3,0.1,0.5,0.2,0.8c0,0.2,0,0.2-0.1,0c-0.1-0.2-0.2-0.4-0.3-0.6c0-0.1-0.1-0.2-0.3-0.2c0,0,0,0,0,0
		c-0.1,0-0.2,0.1-0.1,0.2l0.2,0.6c0,0.1,0,0.2-0.1,0.1c-0.2-0.2-0.5-0.1-0.8-0.1c-0.2,0-0.2-0.1-0.1-0.2c0.1-0.1,0.2-0.2,0.2-0.3
		c0-0.1,0-0.1,0-0.1c-0.2,0.1-0.4,0.2-0.6,0.3c0,0,0,0.1,0,0.1l0.3,0.7c0,0,0,0,0,0l0,0c0,0-0.1,0-0.1,0l-0.2-0.3
		c-0.1-0.1-0.3-0.1-0.3,0.1c-0.1,0.2-0.1,0.5-0.4,0.4c-0.2,0-0.2-0.1,0-0.2c0.1,0,0.1-0.1,0.1-0.2c0-0.1,0-0.2-0.1-0.1
		c-0.2,0.1-0.4,0.2-0.6,0.3c-0.2,0.3-0.2,0.5,0.2,0.7c0.1,0,0.1,0,0.1-0.1l0-0.1c0,0,0-0.1,0.1-0.1c0.1,0,0.1,0,0.2,0
		c0,0,0.1,0,0.1,0.1c-0.1,0.4-0.5,0.3-0.8,0.1c-0.1-0.1-0.2-0.2-0.2-0.4c0-0.3,0.1-0.4,0.3-0.6c0.7-0.5,1.5-0.9,2.2-1.1
		c0.2-0.1,0.4-0.1,0.6-0.2c0,0,0.1,0,0.1-0.1l0,0c0-0.1,0-0.1,0.1-0.1l0.1,0c0,0,0.1,0,0.1,0L-452.3,270.5
		C-452.2,270.5-452.2,270.5-452.3,270.5 M-454.1,271.5c-0.1,0-0.1,0.1-0.2,0.1c0,0,0,0.1,0,0.1c0.1,0,0.2,0,0.3,0c0,0,0.1,0,0-0.1
		s-0.1-0.1-0.1-0.1C-454.1,271.5-454.1,271.5-454.1,271.5 M-455.3,271.9L-455.3,271.9C-455.3,271.8-455.3,271.8-455.3,271.9
		c-0.2-0.1-0.3,0-0.4,0c0,0,0,0,0,0.1c0,0,0,0,0,0c0,0,0,0,0.1,0C-455.5,272-455.4,271.9-455.3,271.9
		C-455.3,271.9-455.3,271.9-455.3,271.9L-455.3,271.9z"/>
	<path class="st0" d="M-446.3,272c0,0,0-0.1-0.1-0.1c0,0-0.1,0-0.1,0c0,0.2-0.1,0.3-0.3,0.2c-0.1-0.1-0.2-0.1-0.4-0.2
		c0,0-0.1-0.1,0-0.1c0-0.1,0.1-0.1,0.1-0.2c0.1,0,0.1-0.1,0-0.1l-1-0.4c0,0-0.1,0-0.1,0c-0.1,0-0.2,0.1-0.1,0.2c0,0,0.1,0.1,0.1,0.1
		c0.2,0,0.4,0,0.5,0c0.1,0,0.1,0.1,0,0.2c-0.1,0.1-0.3,0.3-0.3,0.5c0,0,0,0.1-0.1,0c0,0,0,0,0-0.1c0-0.2,0-0.3,0.1-0.4
		c0,0,0-0.1-0.1-0.1l-0.4,0.1c-0.1,0-0.2-0.1-0.2-0.2l0.1-0.4c0,0,0-0.1,0-0.1c0,0-0.1-0.1-0.1-0.1c0,0-0.1,0-0.1,0
		c-0.1,0.2-0.2,0.6-0.3,0.9c0,0,0,0.1-0.1,0c0,0,0,0-0.1-0.1c0-0.1,0-0.1,0-0.2c0-0.2,0.1-0.3,0.1-0.5s0-0.3-0.2-0.3
		c-0.1,0-0.2,0-0.2,0.1l-0.1,0.7c0,0.1,0,0.1-0.1,0c0,0,0,0,0,0c0,0,0,0,0-0.1c0-0.2-0.1-0.2-0.3-0.2c-0.5,0.1-0.8-0.4-1-0.8
		c0,0,0-0.1,0-0.1c0.1,0,0.3,0,0.4,0c0.5,0,1,0.1,1.5,0.2c0,0,0.1,0,0.1,0c0,0,0.1,0,0.1-0.1c0,0,0.1,0,0.1,0
		c0.1,0.1,0.2,0.2,0.3,0.2c0.7,0.2,1.2,0.4,1.7,0.8c0.1,0.1,0.3,0.1,0.4,0c0,0,0.1,0,0.1,0l0.7,0.1c0,0,0.1,0,0.1,0.1l0,0
		c0,0,0,0,0,0c-0.1,0-0.2,0-0.3,0c-0.2,0-0.2,0.1-0.1,0.2c0,0,0,0.1,0,0.1c-0.1,0-0.2,0.1-0.3,0.2c-0.1,0.2-0.2,0.4-0.3,0.5
		c0,0-0.1,0-0.1,0c-0.1,0-0.1-0.1,0-0.1C-446.6,272.5-446.5,272.3-446.3,272C-446.3,272.1-446.3,272.1-446.3,272 M-450.4,270.8
		c0-0.2-0.1-0.2-0.2-0.2c-0.1,0-0.1,0-0.1,0.1c0.2,0.4,0.4,0.5,0.7,0.4c0,0,0,0,0-0.1l0,0c0-0.1-0.1-0.1-0.1-0.1h-0.2
		C-450.4,270.9-450.4,270.9-450.4,270.8 M-449.9,270.7l0.2,0.4c0,0,0,0,0,0l0,0c0.1-0.1,0.1-0.2,0.1-0.3l0,0
		C-449.7,270.7-449.8,270.6-449.9,270.7L-449.9,270.7C-449.9,270.7-449.9,270.7-449.9,270.7 M-446.2,271.9c0,0,0.1-0.1,0-0.2
		c0-0.1-0.1-0.1-0.1-0.1c0,0-0.1,0.1,0,0.2C-446.3,271.9-446.2,271.9-446.2,271.9L-446.2,271.9z"/>
	<path class="st0" d="M-452.7,275c-0.3,0-0.8,0.1-0.9-0.3c0,0,0-0.1,0-0.1c0.1-0.1,0.1-0.2,0.2-0.3c0.1-0.3,0.3-0.4,0.5-0.7
		c0.1-0.1,0.2-0.3,0.3-0.4c0.5-0.2,0.9,0.1,1.3,0.4c0.1,0.1,0.3,0.1,0.4,0.1c0,0,0.1,0,0.1,0.1c0,0.1-0.1,0.2-0.2,0.3
		c-0.1,0-0.1,0.1,0,0.1c0,0,0.1,0.1,0,0.1c0,0.1-0.1,0.1-0.1,0.1c-0.1,0-0.3,0-0.4,0c-0.1,0-0.1,0,0,0.1c0,0,0,0,0,0
		c0,0,0,0.1,0,0.1c-0.2,0.1-0.2,0.3-0.4,0.4c-0.2,0.1-0.4,0.3-0.6,0.4c0,0-0.1,0-0.1,0c-0.1-0.1-0.1-0.2,0-0.3
		C-452.5,275.1-452.5,275-452.7,275L-452.7,275z"/>
	<path class="st0" d="M-450.2,275.7C-450.2,275.7-450.2,275.7-450.2,275.7L-450.2,275.7C-450.2,275.6-450.2,275.6-450.2,275.7
		c-0.4-0.1-0.7-0.4-0.7-0.8c0,0,0-0.1,0.1-0.1c0.8,0,1.4,0,2.1,0c0.1,0,0.2,0,0.2,0.1c0.4,0.6,0.6,1.3,0.5,2.2
		c0,0.4-0.2,0.6-0.5,0.8c-0.3,0.2-0.7,0.3-1.1,0.3c-0.1,0-0.1,0-0.1-0.1c-0.1-0.3-0.1-0.5-0.1-0.8c-0.1-0.5-0.4-0.8-0.7-1.1
		c-0.1,0-0.1,0-0.1,0.1l0,0.7c0,0.1-0.1,0.1-0.1,0.1l-0.6,0c-0.1,0-0.1,0-0.1-0.1c0-0.3,0-0.9,0.2-1.1c0.2-0.1,0.3-0.3,0.4-0.5
		c0,0,0.1,0,0.1,0C-450.8,275.6-450.5,275.7-450.2,275.7L-450.2,275.7z"/>
	<path class="st0" d="M-451.5,275.6c0-0.2,0.1-0.4,0.1-0.6c0-0.1,0.1-0.1,0.2-0.1c0.1,0,0.1,0.1,0.1,0.3c0,0.1,0,0.1-0.1,0.2
		C-451.2,275.5-451.3,275.6-451.5,275.6C-451.4,275.7-451.5,275.6-451.5,275.6L-451.5,275.6z"/>
	<path class="st0" d="M-451.7,275.6l-0.9,0.5c-0.1,0-0.1,0-0.2,0l-0.2-0.2c0,0,0-0.1,0-0.1c0.4-0.3,0.8-0.5,1.1-0.6c0,0,0.1,0,0.1,0
		C-451.5,275.3-451.5,275.4-451.7,275.6C-451.7,275.6-451.7,275.6-451.7,275.6L-451.7,275.6z"/>
	<path class="st0" d="M-452,277c-0.2-0.1-0.4-0.1-0.5-0.4c-0.1-0.2,0-0.3,0.1-0.4c0.2-0.2,0.5-0.4,0.7-0.5c0,0,0.1,0,0.1,0
		c0,0,0,0,0,0.1c-0.1,0.4-0.1,0.7-0.1,1.1c0,0,0,0.1-0.1,0.1C-451.9,277.1-452,277.1-452,277L-452,277z"/>
	<path class="st0" d="M-452.5,277c0.3,0.1,0.6,0.2,0.9,0.3c0.2,0,0.3,0,0.5,0.1c0.1,0,0.2,0.1,0.2,0.2c0,0.2,0,0.4,0,0.6
		c0,0.1-0.1,0.1-0.2,0.1c-0.7-0.3-1.3-0.6-1.9-1.1c-0.1-0.1-0.1-0.1-0.1-0.2c-0.1-0.3-0.2-0.4-0.5-0.5c-0.1,0-0.1-0.1-0.1-0.2
		c0.3-0.3,0.5-0.3,0.7,0C-452.6,276.5-452.8,276.9-452.5,277L-452.5,277z"/>
	<path class="st0" d="M-453.9,277.3l-0.2,0.1c0,0-0.1,0-0.1,0c-0.1-0.1-0.2-0.2-0.1-0.4c0.2-0.2,0.4-0.4,0.7-0.4
		c0.4-0.1,0.5,0.5,0.5,0.8c0,0.1,0,0.1-0.1,0.2c-0.2,0.1-0.4,0-0.6-0.1c0,0-0.1-0.1-0.1-0.1L-453.9,277.3
		C-453.9,277.3-453.9,277.3-453.9,277.3L-453.9,277.3z"/>
	<path class="st0" d="M-450.1,278.4l-0.3,0.1c-0.1,0.1-0.2,0-0.2-0.1c0-0.6,0-1.1,0-1.7c0,0,0.1-0.1,0.1,0c0.4,0.2,0.5,1,0.6,1.4
		C-450,278.3-450,278.4-450.1,278.4L-450.1,278.4z"/>
	<path class="st0" d="M-452.1,278l1.1,0.6c0.1,0,0.1,0.1,0,0.2c-0.1,0.1-0.2,0.3-0.4,0.3c0,0-0.1,0-0.1,0
		C-451.8,278.7-452,278.4-452.1,278C-452.2,278-452.2,277.9-452.1,278L-452.1,278z"/>
	<path class="st0" d="M-457.2,279.1c0.1,0.1,0.1,0.2,0,0.4c0,0,0,0.1,0,0.2c0,0.1,0.1,0.3,0.2,0.4c0,0.1,0,0.1-0.1,0.2l-0.3,0.1
		c0,0-0.1,0-0.1,0c-0.1-0.1-0.1-0.3,0-0.4c0.1-0.3,0.1-0.6-0.1-0.9c0-0.1-0.1-0.1-0.2,0c-0.3,0.2-0.6,0.3-1,0.2
		c-0.4-0.1-0.8-0.2-1.2-0.2c-0.2,0-0.2-0.1,0-0.1c0.5-0.2,1-0.3,1.4-0.4c0.3-0.1,0.5,0.1,0.8,0.3c0,0,0.1,0,0.1,0
		c0.1-0.2,0.1-0.4,0.3-0.5c0.1,0,0.2,0,0.2,0.1c0,0.2,0.1,0.3,0.3,0.5c0.1,0.1,0,0.2-0.1,0.3c-0.1,0-0.1,0-0.2,0
		C-457.2,279-457.2,279.1-457.2,279.1L-457.2,279.1z"/>
	<path class="st0" d="M-452.2,278.6c-0.7,0-1.3,0-1.9,0c-0.1,0-0.2,0.1-0.3,0.1c-0.1,0-0.1,0-0.2-0.1c-0.1-0.3,0.1-0.4,0.3-0.4
		c0.7-0.1,1.3-0.1,1.8-0.1c0,0,0.1,0,0.1,0L-452.2,278.6C-452.1,278.6-452.1,278.6-452.2,278.6L-452.2,278.6z"/>
	<path class="st0" d="M-450.9,279.4L-450.9,279.4C-450.9,279.5-450.8,279.5-450.9,279.4c0.7-0.1,1.2-0.3,1.8-0.6c0.1,0,0.1,0,0.2,0
		l0.7,0.3c0,0,0,0.1,0,0.1c-0.4,0.3-0.9,0.6-1.3,0.9c-0.1,0.1-0.2,0.1-0.3,0c-0.3-0.1-0.3,0.3-0.6,0.3c-0.5-0.1-1-0.2-1.5-0.3
		c-0.1,0-0.1-0.1,0-0.1c0.2-0.3,0.5-0.5,0.7-0.6c0.1-0.1,0.2-0.2,0.2-0.3c0,0,0-0.1,0.1-0.1l0.9-0.4c0,0,0,0,0,0
		c0.2-0.1,0.4,0,0.5,0.1c0.1,0.1,0.1,0.2-0.1,0.3C-450,279.1-450.4,279.3-450.9,279.4C-450.9,279.4-450.9,279.4-450.9,279.4
		L-450.9,279.4z"/>
	<path class="st0" d="M-448.2,279c-0.2,0-0.6-0.2-0.7-0.4c-0.1-0.1-0.1-0.1,0-0.1c1.8,0,3.5-0.1,5.2-0.1c0.6,0,1.2,0,1.7,0
		c0,0,0.1,0,0.1,0.1v0.3c0,0,0,0.1-0.1,0.1C-444.1,279-446.1,279-448.2,279L-448.2,279z"/>
	<path class="st0" d="M-455.3,279.1C-455.2,279-455.3,279-455.3,279.1l-1.4,0c0,0-0.1,0-0.1-0.1l0-0.3c0,0,0-0.1,0.1-0.1l1.8,0
		c0.1,0,0.1,0,0.1,0.1c-0.1,0.3,0.2,0.5,0.5,0.3c0.1-0.1,0.1-0.1,0.2-0.2c0,0,0.1,0,0.1,0l1.9,0.1c0.1,0,0.1,0,0.2,0.1l0.1,0.1
		c0.1,0.1,0,0.1,0,0.1c-0.6,0-1.3-0.1-1.9-0.1c-0.2,0-0.2,0.1-0.1,0.2c0.4,0.3,0.3,1.3,0.2,1.8c-0.1,0.2-0.1,0.3-0.1,0.5
		c0,0.5,0.1,0.9,0.1,1.4c0.1,0.4-0.3,0.8-0.7,0.8c-0.3,0-0.6,0-0.9,0c-0.1,0-0.1,0-0.1-0.1c-0.1-0.2-0.3-0.4-0.3-0.7
		c0-0.5,0.1-1.1,0.1-1.5c0-0.1,0-0.3,0-0.4c-0.1-0.4-0.1-0.7-0.1-1.1C-455.6,279.5-455.4,279.3-455.3,279.1 M-454.2,280.2l0.1,0.7
		c0,0.1,0.1,0.2,0.2,0.1c0.1,0,0.1-0.1,0.1-0.2c0.1-0.4,0.1-1.3-0.3-1.6c0,0-0.1,0-0.1,0c-0.2,0-0.5,0-0.7,0c-0.1,0-0.2,0-0.3,0.1
		c-0.3,0.4-0.3,0.9-0.3,1.3c0,0.2,0.1,0.3,0.2,0.4c0.1,0.1,0.2,0,0.2-0.1v-0.3c0-0.1,0.1-0.2,0.2-0.2l0.5,0c0,0,0,0,0,0v0
		c0,0,0,0,0,0l-0.6,0c0,0,0,0,0,0v0c0,0,0-0.1,0.1-0.1L-454.2,280.2C-454.2,280.1-454.2,280.1-454.2,280.2 M-454.7,282.4
		c0.1-0.1,0.1-0.1,0.2,0l0.4,0.5c0.1,0.2,0.2,0.2,0.2-0.1c0-0.5,0-1-0.1-1.5c0-0.1-0.1-0.2-0.2-0.2c-0.3,0-0.6-0.1-0.9,0
		c-0.2,0-0.3,0.1-0.3,0.3c-0.1,0.5-0.1,1.1-0.1,1.6c0,0.1,0.1,0.2,0.2,0.1C-455,282.9-454.8,282.6-454.7,282.4 M-454.7,283
		c0.1,0,0.2,0.1,0.3,0c0.1,0,0.1-0.1,0.1-0.2C-454.5,282.7-454.7,282.8-454.7,283C-454.8,283-454.8,283-454.7,283L-454.7,283z"/>
	<path class="st0" d="M-452.8,282.2L-452.8,282.2C-452.8,282.3-452.8,282.3-452.8,282.2c0.2-0.1,0.3-0.1,0.5-0.1
		c0.1,0,0.1,0,0.1,0.1c0.3,0.5,0.1,1.4-0.1,1.9c-0.1,0.4-0.2,0.9-0.2,1.3c0,0.3,0,0.7,0,1c0,0.1-0.1,0.2-0.2,0.2
		c-0.2,0-0.4-0.1-0.6,0c-0.4,0.1-0.6,0.2-1,0c-0.1,0,0-0.1,0-0.1l0.9-0.5c0,0,0.1-0.1,0.1-0.1l-0.1-3.8c0,0,0-0.1,0-0.1
		c0.4-0.6,0.8-1.1,1.2-1.5c0.1-0.1,0.2-0.1,0.4-0.1c0.3,0.1,0.7,0.1,1,0.2c0.1,0,0.3,0,0.4,0c0.2-0.1,0.3-0.2,0.5-0.2
		c0.3,0,0.8-0.4,1.1-0.6c0.1-0.1,0.1,0,0.1,0.1c-0.1,0.4-0.3,0.6-0.7,0.8c-0.9,0.4-1.7,0.7-2.5,1
		C-452.1,281.8-452.5,281.9-452.8,282.2C-452.8,282.2-452.8,282.2-452.8,282.2L-452.8,282.2z"/>
	<path class="st0" d="M-449.2,282.4c0.1-0.1,0.2-0.2,0.3-0.3c0,0,0.1-0.1,0.1-0.1c0.2,0,0.4,0,0.7,0c0.9,0.1,1.7,0.2,2.6,0.3
		c0.2,0,0.3,0,0.5,0c0.1,0,0.1,0,0.1,0.1c0.1,0.2,0.1,0.3,0.1,0.5c-0.1,0.3-0.1,0.6-0.1,0.9c0,0.2-0.1,0.3-0.2,0.4
		c0,0-0.1,0-0.1,0.1c-0.1,0.1-0.2,0-0.2-0.1c0-0.3-0.1-0.5-0.2-0.9c-0.2-0.4-0.5-0.4-0.9-0.4c-0.9,0.1-1.9,0.2-2.8,0.3
		c-0.1,0-0.2,0-0.2-0.1c-0.3-0.5-0.6-1.1-0.7-1.5c0-0.1,0-0.2,0.1-0.2c0.4-0.3,0.9-0.5,1.3-0.7c0,0,0.1,0,0.1,0c0,0,0,0.1,0,0.1
		C-448.9,281.3-449.1,281.8-449.2,282.4C-449.2,282.4-449.2,282.4-449.2,282.4L-449.2,282.4z"/>
	<path class="st0" d="M-455,281.3c0.2-0.1,0.5-0.1,0.8-0.1c0,0,0.1,0,0.1,0c0.3,0.3-0.1,0.6-0.4,0.8c0,0-0.1,0-0.1,0
		c-0.1-0.1-0.3-0.2-0.4-0.3S-455.2,281.4-455,281.3L-455,281.3z"/>
	<path class="st0" d="M-454,282l0.2,0.8c0,0.1-0.1,0.1-0.1,0.1l-0.4-0.6c0,0,0-0.1,0-0.1l0.3-0.3C-454.1,281.9-454,281.9-454,282
		L-454,282z"/>
	<path class="st0" d="M-455.2,282.1l0.1-0.1c0-0.1,0.1-0.1,0.1,0l0.3,0.3c0,0,0,0.1,0,0.1l-0.4,0.5c-0.1,0.1-0.1,0-0.1-0.1
		L-455.2,282.1C-455.3,282.1-455.3,282.1-455.2,282.1L-455.2,282.1z"/>
	<path class="st0" d="M-450.9,292.3h-0.6c-3.1-0.3-5.8-1.4-8.1-3.4c-0.9-0.8-1.8-1.8-2.6-2.8c-0.1-0.1-0.1-0.2-0.2-0.3
		c0,0,0-0.1,0-0.1c0.5-0.2,0.9-0.5,1.2-1c0,0,0-0.1,0-0.1c-0.1-0.1-0.2-0.2-0.3-0.3c-0.3-0.4-0.2-1,0.4-1.1c0.6-0.1,0.6,0.6,0.6,1
		c0,0.1,0,0.2,0.1,0.1c0.5-0.1,0.9-0.3,1.3-0.6c0.1-0.1,0.1,0,0.2,0c0.5,0.8,1,1.5,1.7,2.1c1.7,1.5,3.7,2.3,6,2.4
		c0.7,0,1.4,0,2.1-0.2c1.7-0.3,3.1-1.1,4.4-2.2c0.8-0.7,1.5-1.5,2-2.3c0,0,0.1-0.1,0.1,0c0.4,0.3,0.9,0.5,1.3,0.6
		c0.2,0,0.2,0,0.2-0.2c-0.1-0.4,0.1-0.8,0.5-0.9c0.2-0.1,0.3,0,0.5,0.1c0.4,0.5,0,1.1-0.5,1.3c-0.1,0-0.1,0.1,0,0.1l1.2,1.2
		c0,0,0,0.1,0,0.1c-0.5,0.7-1,1.4-1.6,2c-2.1,2.3-4.7,3.7-7.8,4.1c-0.2,0-0.5,0.1-1,0.1C-450.3,292.2-450.6,292.3-450.9,292.3
		 M-440.4,283.8c0-0.1,0-0.2-0.1-0.3c-0.1,0-0.1,0-0.2,0c-0.1,0-0.1,0-0.1,0.1c-0.1,0.2-0.2,0.4-0.1,0.6c0,0.1,0.1,0.1,0.2,0.1
		C-440.5,284.2-440.4,284-440.4,283.8 M-461,284.3c0.1,0,0.2-0.2,0.2-0.4c-0.1-0.2-0.2-0.3-0.3-0.3c-0.1,0-0.2,0.2-0.2,0.4
		C-461.3,284.2-461.1,284.4-461,284.3 M-456.8,290.5c1.1,0.6,2.4,1,3.9,1.3c0.6,0.1,1.3,0.2,1.9,0.2c0.8,0,1.4-0.1,2-0.1
		c1.9-0.2,3.7-0.9,5.2-2c1.5-1,2.8-2.4,3.8-3.8c0,0,0-0.1,0-0.1c-0.4-0.4-0.8-0.7-1.1-1.2c-0.1-0.1-0.1-0.1-0.2-0.1
		c-0.5-0.1-0.9-0.3-1.4-0.5c-0.1,0-0.1,0-0.2,0c-1.9,2.9-5,4.5-8.4,4.5c-2.3,0-4.5-0.9-6.2-2.4c-0.7-0.6-1.2-1.2-1.7-1.9
		c0,0-0.1-0.1-0.1,0c-0.4,0.3-0.8,0.4-1.3,0.4c-0.1,0-0.3,0-0.3,0.1c-0.3,0.3-0.6,0.7-1,0.9c0,0-0.1,0.1,0,0.1
		C-460.5,287.9-458.8,289.4-456.8,290.5L-456.8,290.5z"/>
	<path class="st0" d="M-455.4,283.8C-455.4,283.8-455.3,283.7-455.4,283.8l1,0c0.3,0,0.5,0,0.5,0.1v0c0,0-0.2,0.1-0.5,0.1h-1
		c0,0,0,0,0,0V283.8L-455.4,283.8z"/>
	<path class="st0" d="M-443,286.6c0.1,0,0.1,0,0.2-0.1c0,0,0.1,0,0.1,0c0.2,0.1,0.3,0.3,0.3,0.5c0,0.1,0,0.1-0.1,0.1l-0.1,0
		c-0.1,0-0.1,0-0.1-0.1v-0.2c0,0,0,0,0,0l0,0c0,0,0,0,0,0c0,0.1-0.1,0.2-0.2,0.2c0,0-0.1,0-0.1,0c-0.4-0.3-0.1-0.8,0.3-0.9
		c0.1,0,0.1-0.1,0-0.1c-0.1,0-0.1-0.1-0.2-0.1c-0.1-0.1-0.1-0.1,0-0.1l0.4,0c0,0,0.1,0,0,0.1l0,0.1c0,0,0,0.1,0,0.1l1,0.8
		c0,0,0,0,0,0.1c0,0-0.1,0-0.1,0c-0.1,0-0.1,0-0.2-0.1c-0.3-0.2-0.5-0.4-0.7-0.5C-442.8,286.3-443,286.4-443,286.6
		C-443.1,286.6-443.1,286.6-443,286.6L-443,286.6z"/>
	<path class="st0" d="M-459,286.5c-0.1-0.1-0.2-0.3-0.3-0.4c0-0.1-0.1-0.1-0.1-0.2c0,0,0,0,0.1-0.1c0,0,0.1,0,0.1,0l1,1
		c0,0,0.1,0,0.1,0c0,0,0,0,0,0c0.1,0,0.1,0,0.1,0.1l0,0.4c0,0,0,0.1-0.1,0c-0.1-0.1-0.2,0-0.2,0.1c-0.3,0.3-0.5,0.6-0.8,0.9
		c0,0-0.1,0.1-0.1,0l0,0c0,0,0,0,0-0.1c0.2-0.3,0.4-0.6,0.7-0.9c0.1-0.1,0.1-0.2,0-0.3c0-0.1-0.1-0.1-0.1-0.1
		c-0.1-0.1-0.1-0.1-0.2,0c-0.3,0.3-0.6,0.6-0.9,0.9c-0.1,0.1-0.1,0.1-0.1,0c0.1-0.3,0.1-0.7,0-1.1c-0.1-0.2,0-0.3,0.3-0.3
		L-459,286.5C-458.9,286.6-458.9,286.6-459,286.5 M-459.4,286.8C-459.4,286.8-459.5,286.8-459.4,286.8c-0.1,0.2-0.1,0.3-0.1,0.4
		c0,0.1,0.1,0.1,0.1,0c0.1-0.1,0.2-0.1,0.2-0.2c0,0,0-0.1,0-0.1L-459.4,286.8L-459.4,286.8z"/>
	<path class="st0" d="M-445.7,288.6C-445.6,288.5-445.6,288.5-445.7,288.6c-0.3,0.1-0.5,0.2-0.7,0.3c0,0,0,0,0,0.1l0.5,1.2
		c0.1,0.1,0,0.1-0.1,0.1c-0.1,0-0.1-0.1-0.1-0.1c-0.2-0.3-0.3-0.7-0.5-1c0,0,0-0.1-0.1-0.1l-0.2-0.1c0,0-0.1-0.1,0-0.1l0.1-0.1
		c0,0,0-0.1,0-0.1c-0.1-0.4,0-0.7,0.4-0.8c0.2-0.1,0.4,0,0.7,0c0,0,0,0,0,0l0,0c0,0,0,0-0.1,0c-0.3,0-0.9,0-0.9,0.5
		c0,0.1,0.1,0.1,0.2,0.1c0.9-0.4,1.7-0.9,2.5-1.6c0,0,0,0,0-0.1c0,0,0-0.1,0-0.1c0,0,0-0.1,0-0.1l0.3,0c0,0,0.1,0,0.1,0
		c0,0,0,0.1,0,0.1c0,0.1,0,0.1,0,0.1l0.8,0.9c0.1,0.1,0.1,0.1-0.1,0.1c-0.1,0-0.1,0-0.2-0.1c-0.2-0.2-0.4-0.5-0.7-0.7
		c-0.1-0.1-0.3-0.1-0.4,0l-1.2,0.9c-0.1,0.1-0.1,0.1,0,0.2c0.2,0.3,0.4,0.6,0.6,1c0.1,0.2,0.1,0.3-0.1,0.1c-0.2-0.1-0.4-0.2-0.7-0.1
		c-0.2,0-0.3,0-0.4-0.1c0,0,0-0.1,0-0.1L-445.7,288.6 M-445.1,289.1l-0.2-0.3c-0.1-0.1-0.1-0.1-0.1,0l-0.1,0.2c0,0.1,0,0.1,0.1,0.1
		C-445.3,289.2-445.2,289.2-445.1,289.1C-445.1,289.1-445.1,289.1-445.1,289.1L-445.1,289.1z"/>
	<path class="st0" d="M-458.1,288.1C-458.2,288-458.2,288.1-458.1,288.1c0,0.4,0,0.7,0,1s0,0.3-0.1,0c-0.1-0.3-0.2-0.5-0.2-0.8
		c0-0.1,0-0.1,0.1-0.2c0.1-0.1,0.2-0.3,0.3-0.4c0-0.1,0.1-0.2,0.2-0.2c0.3-0.2,0.6,0.2,0.4,0.5c-0.1,0.1-0.2,0.2-0.4,0.1
		C-458,288.2-458,288.1-458.1,288.1C-458.1,288.1-458.1,288.1-458.1,288.1 M-457.8,287.8c0,0-0.1-0.1-0.1,0c-0.1,0-0.1,0.1-0.1,0.1
		c0,0,0.1,0.1,0.1,0C-457.8,287.9-457.7,287.8-457.8,287.8L-457.8,287.8z"/>
	<path class="st0" d="M-443.9,287.9c0,0.2-0.2,0.4-0.4,0.4c-0.1,0-0.2,0-0.2-0.1c-0.1-0.1-0.1-0.2,0-0.3c0-0.1,0.2-0.1,0.3-0.1
		c0,0,0,0,0.1,0c0,0,0.1,0,0.1-0.1c0-0.1,0-0.1,0.1-0.1c0,0,0.1-0.1,0.1,0c0.5,0,0.7,0.5,0.5,0.9c-0.4,0.6-1.1,0.1-1.5-0.2
		c-0.1-0.1-0.1-0.1,0-0.1c0.1,0,0.2,0.1,0.3,0.1c0.3,0.2,0.7,0.2,0.9-0.2c0-0.1,0-0.2,0-0.2l-0.1-0.1
		C-443.8,287.8-443.9,287.8-443.9,287.9L-443.9,287.9z"/>
	<path class="st0" d="M-452.6,290l0.1,0.1c0,0,0,0.1,0,0.1c0,0.1-0.1,0.2-0.2,0.2c0,0-0.1,0-0.1,0c-0.1-0.1-0.2-0.1-0.3-0.1
		c0,0-0.1,0-0.1,0c-0.1-0.1-0.1-0.1-0.1-0.2c0-0.1,0.1-0.2,0.2-0.2c0.1-0.1,0-0.1,0-0.2l-1-0.3c-0.1,0-0.1,0-0.2,0.1l-0.1,0.2
		c0,0.1,0,0.1,0.1,0.1c0.2-0.1,0.5-0.2,0.7,0.1c0,0,0,0.1,0,0.1c-0.2,0.3-0.3,0.6-0.4,1c0,0,0,0,0,0h0c0,0-0.1,0-0.1-0.1
		c0-0.3,0.1-0.6,0.1-0.8c0-0.1,0-0.1-0.1-0.1l-0.5,0.3c0,0-0.1,0-0.1,0c-0.1-0.1-0.1-0.2-0.1-0.3c0.1-0.2,0.1-0.4,0.2-0.6
		c0-0.1,0-0.1-0.1-0.1c-0.5,0.1-0.8,0.4-0.8,0.9c0,0.1,0,0.1,0.1,0.1c0.1,0,0.1-0.1,0.1-0.1c0-0.1,0.1-0.1,0.2,0
		c0.3,0.4-0.5,0.6-0.5,0c-0.1-0.4,0.1-0.7,0.4-1c0,0,0-0.1,0-0.1l-0.3-0.2c0,0-0.1,0-0.1,0l-0.6,1.2c0,0.1-0.1,0.1-0.1,0
		c0,0,0,0,0-0.1c0-0.1,0-0.1,0-0.2c0.1-0.3,0.3-0.6,0.4-0.9c0.1-0.1,0-0.3-0.1-0.3c-0.1-0.1-0.2,0-0.2,0.1l-0.6,1.1c0,0,0,0-0.1,0
		c0,0,0,0,0,0c0-0.1,0-0.1,0-0.2c0.1-0.2,0.2-0.4,0.3-0.6c0,0,0-0.1,0-0.1c0-0.1,0-0.2-0.1-0.1c-0.1,0-0.2,0.1-0.3,0.2
		c0,0-0.1,0-0.1,0c-0.5,0-0.6-0.5-0.2-0.8c0.1-0.1,0.3-0.1,0.5,0c0.1,0.1,0.3,0.2,0.5,0.2c0,0,0,0,0.1,0c0,0,0,0,0,0c0,0,0,0,0,0
		c-0.3-0.2-0.6-0.4-0.8-0.6c0,0,0,0,0-0.1l0-0.1c0,0,0,0,0,0c0.4,0.3,0.9,0.5,1.3,0.8c0.1,0,0.1,0.1,0.1,0.1c0,0,0.1,0,0.1,0
		c0,0,0-0.1,0.1-0.1c0,0,0-0.1,0.1-0.1c0,0,0,0,0,0c0,0,0,0,0,0.1c0,0.1,0.1,0.2,0.2,0.3c0.7,0.3,1.4,0.5,2.2,0.7
		c0.1,0,0.2,0.1,0.2,0.1c0,0.1,0.1,0.1,0.2,0c0.1-0.1,0.2-0.1,0.3,0.1c0.1,0.1,0.1,0.1,0.2,0c0-0.1,0-0.1,0-0.2c0,0,0-0.1,0.1,0
		c0.1,0.1,0.2,0.2,0.3,0.4c0,0,0,0.1,0,0.1c-0.1,0-0.2,0.1-0.2,0.2c0,0.4-0.1,0.8-0.2,1.2c0,0,0,0.1-0.1,0.1h0c0,0,0,0,0,0
		c0-0.4,0-0.7,0-1.1C-452.4,290-452.5,289.9-452.6,290C-452.7,289.9-452.7,289.9-452.6,290 M-457.4,288.6c0.1,0,0.2,0,0.3,0.1
		c0,0,0.1,0,0.1,0c0,0,0,0,0-0.1c-0.1-0.1-0.2-0.2-0.3-0.2C-457.4,288.5-457.4,288.5-457.4,288.6
		C-457.4,288.6-457.4,288.6-457.4,288.6L-457.4,288.6z"/>
	<path class="st0" d="M-448.4,289.6l-0.7,0.1c-0.1,0-0.1,0.1-0.1,0.2l0.2,1.3c0,0,0,0,0,0l0,0c0,0-0.1,0-0.1-0.1
		c-0.2-0.3-0.1-0.8-0.3-1.1c0-0.1-0.1-0.2-0.2-0.2c-0.2,0-0.4,0-0.7,0.1c0,0-0.1,0-0.1,0.1v0.3c0,0.1,0,0.1,0.1,0.1
		c0.1,0,0.1-0.1,0.1-0.2c0-0.1,0.1-0.1,0.2,0c0.3,0.3,0.4,0.9-0.1,1c-0.4,0.1-0.6,0-0.8-0.4c-0.1-0.3-0.2-0.5-0.2-0.8
		c0,0,0-0.1-0.1-0.1c-0.1,0-0.1-0.1-0.1-0.1c0,0,0-0.1,0.1-0.1l1.6-0.1c0.1,0,0.1-0.1,0.1-0.1l0-0.1c0,0,0-0.1,0.1-0.1c0,0,0,0,0,0
		c0,0,0.1,0.1,0.1,0.1c0,0,0.1,0,0.1,0c0.5-0.1,1-0.2,1.4-0.3c0.1,0,0.1,0,0.2,0l0.1,0c0.1,0,0,0.1,0,0.1c-0.1,0-0.1,0-0.2,0
		c-0.2,0-0.2,0.1,0,0.2c0.2,0.1,0.3,0.2,0.4,0.4c0.1,0.2-0.1,0.3-0.3,0.3c-0.1,0-0.2,0-0.1,0.2c0,0.1,0.1,0.2,0.1,0.2
		c0,0.2,0,0.2-0.1,0.1c-0.1-0.1-0.3-0.3-0.5-0.3c-0.1,0-0.3-0.1-0.4-0.2s-0.1-0.2,0-0.3C-448.7,289.9-448.5,289.8-448.4,289.6
		C-448.3,289.6-448.4,289.6-448.4,289.6 M-447.9,290.1C-447.9,290.1-447.9,290.1-447.9,290.1c0.1,0,0.2-0.1,0.3-0.1c0,0,0,0,0-0.1
		c-0.1-0.1-0.2-0.1-0.3-0.1c0,0-0.1,0,0,0.1L-447.9,290.1 M-448.2,290.3C-448.1,290.4-448.1,290.3-448.2,290.3l0-0.4
		c0-0.1-0.1-0.1-0.1,0l-0.2,0.2c0,0,0,0.1,0,0.1L-448.2,290.3 M-450.5,290.8c0.2,0.1,0.5,0,0.6-0.2c0-0.1,0-0.1-0.1-0.1
		c-0.1,0-0.1,0-0.2,0.1c-0.1,0.1-0.3,0.1-0.3-0.1c-0.1-0.2-0.1-0.4-0.1-0.6c0,0,0-0.1-0.1-0.1l-0.1,0c-0.1,0-0.1,0-0.1,0.1
		C-450.9,290.4-450.8,290.6-450.5,290.8L-450.5,290.8z"/>
</g>
</svg>
