<?xml version="1.0" encoding="utf-8"?>
<!-- Generator: Adobe Illustrator 28.4.1, SVG Export Plug-In . SVG Version: 6.00 Build 0)  -->
<svg version="1.1" id="Layer_1" xmlns="http://www.w3.org/2000/svg" xmlns:xlink="http://www.w3.org/1999/xlink" x="0px" y="0px"
	 viewBox="0 0 195.52 201.8" style="enable-background:new 0 0 195.52 201.8;" xml:space="preserve">
<style type="text/css">
	.st0{fill:#FFFFFF;}
</style>
<g>
	<g>
		<path class="st0" d="M84.89,54.32c0,0-9.42,2.1-9.15-2.72c0.13-1.62,1.1-2.23,2.02-2.06c0.04-0.88-1.84-3.42,2.28-4.42
			c1.45-1.97,2.63-3.55,3.02-4.77c0.39-1.23,1.53-2.89,5.26-2.1c3.72,0.79,7.75,4.38,8.32,5.43c2.19,0.04,4.47,0.4,3.63,0.83
			c-0.83,0.44-1.31,1.27-1.14,1.4c0.18,0.13,1.36,0.79-2.45,0.88c0.13,0.79,0.85,1.01,1.52,1.4c0.67,0.39-0.19,0.88,0,1.05
			c0.19,0.18,0.54,2.01-1.39,1.27c-1.93-0.75-2.06-1.4-2.58-1.31c-0.53,0.09-1.93,0.31-1.71,0.83c0.22,0.53,2.1,1.75-0.31,2.19
			c-0.48,0.44,0.75,1.14-0.18,1.49c-0.92,0.35-4.95,3.5-6.88,4.29c-1.88,0-2.5-0.53-2.32-1.31c0.17-0.79,1.01-1.36,2.23-1.49
			C85.06,54.67,85.19,54.26,84.89,54.32z"/>
	</g>
	<g>
		<path class="st0" d="M84.06,64.35c-0.92,0.04-3.59-1.8-2.19-2.8c1.4-1.01,7.71-5.08,9.11-5.48c1.4-0.39,3.24,1.45,1.53,2.85
			C90.8,60.32,84.06,64.35,84.06,64.35z"/>
	</g>
	<g>
		<path class="st0" d="M93.82,59.79c-0.16-0.97,0.96-5.04,1.05-5.83c0.09-0.79,3.2-1.14,2.45,2.28C96.58,59.66,94,60.84,93.82,59.79
			z"/>
	</g>
	<g>
		<path class="st0" d="M98.19,52.48c0,0,17.51-0.78,18.95,0c1.45,0.78,7.44,10.11,6,18.33c-1.45,8.22-4,10.33-15.33,11.67
			c-0.22-2.67-0.6-9.55-1.71-11.41c-1.11-1.87-4.9-6.18-6.65-6.13c0,1.93-0.35,7.64-0.35,7.64s-5.6,0.41-6.36-0.76
			c-0.12-2.16,0-8.58,0-8.58s5.2-4.55,5.46-5.6c0.84,0.47,0.96,3.15,7.26,2.54C105.34,59.57,97.99,60.33,98.19,52.48z"/>
	</g>
	<g>
		<path class="st0" d="M91.51,60.18c0,0-5.55,4.7-6.65,5.57c-0.58,1.52-1.23,6.24,6.01,6.3C91.33,69.14,91.51,60.18,91.51,60.18z"/>
	</g>
	<g>
		<path class="st0" d="M78.2,67.31c-1.69-0.04-3.15-0.44-2.98-1.84c0.18-1.4,2.57-2.86,4.14-2.51c1.58,0.35,4.14,1.05,4.14,7.06
			c1.11,1.28,4.61,3.68,8.87,3.91c4.26,0.23,6.83-0.29,6.83,0.99c0,1.28,0,8.17,0,8.17s-5.09-0.18-17.75-9.05
			c-1.04-1.4-1.74-2.28-1.63-4.38C79.72,68.32,78.79,67.32,78.2,67.31z"/>
	</g>
	<g>
		<path class="st0" d="M74.38,68.26c-2.11-0.08-8.23,5.09-3.7,7.21c1.29-1.11,2.4-2.48,2.4-2.48s-1.11,2.94,1.3,3.68
			c2.41,0.74,1.48-1.48,2.78-1.39c0.74,1.2,0.93,1.94,2.13,1.94c1.2-0.18,1.57-3.61,0-5.64C77.71,69.56,76.69,68.35,74.38,68.26z"/>
	</g>
	<g>
		<path class="st0" d="M100.44,68.92v16.13c0,0,5.38-1.66,5.9-3.02C106.13,79.22,105.25,68.82,100.44,68.92z"/>
	</g>
	<g>
		<path class="st0" d="M87.55,79.58c0,0,6.22,4.23,10.27,5.9c-0.57,0.71-3.25,4.17-4.17,3.9C92.74,89.1,87.91,82.55,87.55,79.58z"/>
	</g>
	<g>
		<polygon class="st0" points="65.26,88.81 49.55,88.81 49,85.7 65.26,85.7 		"/>
	</g>
	<g>
		<polygon class="st0" points="120.59,88.59 175.59,88.59 175.59,84.04 114.59,84.04 		"/>
	</g>
	<g>
		<path class="st0" d="M107.71,83.74c0.65-0.67,4.77,2.73,3.59,3.35c-1.18,0.62-12.39,5.33-13.48,4.96
			c-1.09-0.37-0.73-3.22,0.36-3.78C99.28,87.7,105.73,85.78,107.71,83.74z"/>
	</g>
	<g>
		<path class="st0" d="M95.25,91.36c-1.35-0.69-8.56,6.32-5.4,6.82c3.17,0.5,10.79,2.05,12.83,2.91c1.8-0.81,3.47-2.29,3.16-3.16
			c1.24,0.06,3.35,1.98,4.96,1.24c1.61-0.74,10.53-7.13,11.09-8.18c-1.8-1.55-5.7-3.8-7.31-3.73
			C112.98,87.33,101.08,94.33,95.25,91.36z"/>
	</g>
	<g>
		<path class="st0" d="M91.47,100.22c0.8,0.04,9.92,3.47,12.21,3.04c2.29-0.43,2.73-2.66,4.03-2.54c1.3,0.12,1.92,1.3,4.09-0.06
			c2.17-1.36,6.07-4.77,6.69-5.58c0.12,1.43,0,5.33-8.43,9.11c-8.43,3.78-27.89,9.36-28.38,12.02c0.74,0.31,3.22-0.5,4.83-1.36
			c1.05,0.81,2.98,3.41,2.48,7.62c-0.5,4.21-3.72,11.46-3.72,13.51c0,2.04-0.19,11.03-0.06,11.96c0.12,0.93,1.67,6.07-0.81,5.7
			c-2.48-0.37-3.97-0.43-4.96-0.25c-0.99,0.19-2.98,1.8-4.71,1.55c-1.74-0.25-4.71-1.12-4.59-1.98c0.12-0.87,2.05-0.87,3.72-1.49
			c1.67-0.62,2.79-2.48,6.01-3.66c-0.12-2.17-1.08-17.77-1.08-21.11c0-3.33-1.11-10.11,0.33-13
			C80.59,110.81,88.03,100.07,91.47,100.22z"/>
	</g>
	<g>
		<path class="st0" d="M103.37,109.59c-0.22,1,5.63,15.19,8.15,15.43c2.52,0.24,25.85-4.76,30.3-3.43c1.33,1.78,4.11,5.22,4,7.11
			c0,0,0.59,4.64,0.22,4.88c0.73,0.18,2.73-0.49,3.22-1.79c0.49-1.3,0.12-7.56,0.3-8.65c0.18-1.09,2.94-6.68-0.82-6.59
			c-3.76,0.09-14.63,0.09-18.11-0.86c-3.49-0.95-11.42-2.41-13.38-1.39c-1.97,1.01-4.25,4.25-4.25,5.14
			c-0.82,0.19-1.08-0.63-0.25-3.04s3.68-9.64,3.36-13.51C113.24,103.9,103.37,109.59,103.37,109.59z"/>
	</g>
	<g>
		<path class="st0" d="M90.09,87.26c0.25,0.65,0.62,1.83,1.3,2.39l-18.7-1.19c0,0-2.17-1.34-1.3-1.65L90.09,87.26z"/>
	</g>
	<g>
		<path class="st0" d="M69.53,85.7h18.7c0,0-1.55-2.13-1.92-3.49c-3.28,0-17.26,0.27-17.26,0.27s-2-0.14-2,3.51
			C67.05,86.98,68.54,88.45,69.53,85.7z"/>
	</g>
	<g>
		<path class="st0" d="M44.07,88.81h3.84c0,0,1.24-0.53,0-2.02c-1.24-1.49-3.65-2.29-1.92-4.89c-1.8-0.31-4.46-0.87-4.03,4.89
			c-0.8,0-1.86,0-1.86,0s-0.68-3.28-4.96-3.28c-4.27,0-14.92,4.4-14.92,4.4s11.95,3.28,14.99,3.28c3.03,0,5.02-2.97,5.02-2.97h1.49
			c0,0,0.68,2.23,1.43,3.22c0,1.55,0.06,3.63,0.06,3.63s-1.8,0.64-1.55,2.81c0.25,2.17,1.42,2.11,1.8,2.11s0.87-0.68,2.35-0.68
			c0.74-0.74,0.26-3.4-1.18-3.96c0-1.24-0.12-2.6-0.12-2.6s1.55-0.98,1.36-1.88C45.68,89.96,44.07,90.02,44.07,88.81z"/>
	</g>
	<g>
		<g>
			<path class="st0" d="M74.32,106.9l0.11-0.07c1.2-0.71,1.71-2.54,1.73-2.61l0.02-0.07l0-0.07c0-0.08-0.16-8.53-0.16-11.01
				c0-2.82-4.75-4.65-4.95-4.73l-0.29-0.11l-0.23,0.21c-0.42,0.38-1.69,1.36-2.6,1.36c-1.18,0-1.85-0.19-3.01-1.34l-0.15-0.15h-0.21
				c-3.83,0-5.68,4.6-5.76,4.8l-0.03,0.16c-0.03,0.9-0.32,8.82,0.01,10.18c0.29,1.15,1.28,2.39,1.69,2.87
				c-0.77,2.69-4.66,17.3,0.56,19.14v2.5H73.6v-2.62C78.37,123.18,75.32,110.59,74.32,106.9z M59.79,93.4
				c0.24-0.55,1.81-3.93,4.6-4.09c1.3,1.25,2.23,1.48,3.56,1.48c1.19,0,2.49-0.96,3.03-1.41c1.34,0.56,4.03,2.03,4.03,3.68
				c0,2.36,0.15,10.11,0.16,10.96c-0.13,0.44-0.53,1.43-1.14,1.88l-2.49-0.04v-4.78h-8.51v4.64l-1.74-0.03
				c-0.35-0.41-1.27-1.54-1.51-2.49C59.55,102.3,59.66,96.88,59.79,93.4z M68.53,123.37h-2.28c-0.55,0-1-0.45-1-1c0-0.55,0.45-1,1-1
				h2.28c0.55,0,1,0.45,1,1C69.53,122.92,69.09,123.37,68.53,123.37z M73.25,124.4l-6.16-6.88l-5.67,7.04l0-0.02
				c-3.81-1.24-1.38-12.96,0-17.84l11.84,0.19C74.63,111.73,76.81,122.64,73.25,124.4z"/>
		</g>
		<g>
			<path class="st0" d="M71.57,111.74c1.39-2.02-0.38-3.42-0.38-3.42s-5.02,0-7.38,0c-2.36,0-1.6,3.29-1.6,3.29l4.68,3.99
				C66.89,115.61,70.18,113.76,71.57,111.74z"/>
		</g>
		<g>
			<path class="st0" d="M68.49,116.38l4.43,5.31c0,0-0.46-6.28-0.63-8.35C71.23,113.51,68.49,116.38,68.49,116.38z"/>
		</g>
		<g>
			<path class="st0" d="M62,113.34c-0.17,2.07-0.63,8.35-0.63,8.35l4.43-5.31C65.79,116.38,63.05,113.51,62,113.34z"/>
		</g>
		<g>
			<path class="st0" d="M70.77,99.64h0.77v-0.77c0-0.43-0.34-0.77-0.77-0.77h-6.97c-0.43,0-0.77,0.35-0.77,0.77v0.77h0.77H70.77z"/>
		</g>
		<g>
			<path class="st0" d="M60.61,128.7h-0.83v0.83c0,0.46,0.37,0.83,0.83,0.83h13.01c0.46,0,0.83-0.37,0.83-0.83v-0.83h-0.83H60.61z"
				/>
		</g>
	</g>
</g>
<g>
	<path class="st0" d="M97.76,201.8c-19.77,0-39.26-5.14-56.34-14.86c-16.57-9.43-30.64-22.98-40.69-39.2L0,146.55l1.21-0.68
		c0.07-0.04,6.49-3.69,10.09-8.62c-2.52-0.92-4.33-2.69-5.21-5.11c-0.67-1.87-0.51-3.67,0.48-5.08c0.97-1.38,2.6-2.21,4.37-2.21
		c1.45,0,2.78,0.57,3.75,1.6c0.82,0.87,1.77,2.51,1.6,5.31c-0.07,1.16-0.35,2.34-0.84,3.53c3.77,0.08,8.12-1.65,11.92-4.66
		l1.16-0.92l0.79,1.25c14.95,23.6,40.54,37.69,68.44,37.69c27.9,0,53.48-14.09,68.44-37.69l0.79-1.25l1.16,0.92
		c3.75,2.96,8.03,4.66,11.75,4.66c0.05,0,0.11,0,0.16,0c-0.49-1.19-0.76-2.38-0.84-3.53c-0.17-2.81,0.77-4.44,1.6-5.31
		c0.97-1.03,2.3-1.6,3.75-1.6c1.76,0,3.4,0.83,4.37,2.21c0.99,1.41,1.16,3.21,0.48,5.08c-0.88,2.42-2.69,4.18-5.21,5.11
		c3.6,4.94,10.01,8.58,10.09,8.62l1.21,0.68l-0.73,1.18c-10.05,16.21-24.12,29.77-40.69,39.2
		C137.02,196.66,117.53,201.8,97.76,201.8z M3.72,147.47c20.6,32.37,55.65,51.66,94.04,51.66s73.44-19.28,94.04-51.66
		c-2.32-1.46-7.41-5-10.35-9.55l-0.03,0l-0.02-0.03c-0.49,0.05-0.99,0.08-1.5,0.08c-3.98,0-8.28-1.54-12.24-4.36
		c-15.55,23.65-41.57,37.72-69.91,37.72c-28.34,0-54.36-14.07-69.91-37.72c-3.96,2.82-8.26,4.36-12.24,4.36
		c-0.51,0-1.01-0.03-1.5-0.08l-0.02,0.03l-0.03,0C11.13,142.47,6.03,146.01,3.72,147.47z M10.94,127.53c-0.88,0-1.72,0.41-2.19,1.07
		c-0.48,0.68-0.53,1.6-0.16,2.64c0.65,1.79,2.09,3.07,4.12,3.67c0.54-1.14,0.85-2.24,0.91-3.3c0.09-1.47-0.21-2.62-0.88-3.32
		C12.29,127.8,11.65,127.53,10.94,127.53z M184.58,127.53c-0.71,0-1.35,0.27-1.81,0.76c-0.66,0.7-0.97,1.85-0.88,3.32
		c0.06,1.06,0.37,2.17,0.91,3.3c2.02-0.61,3.47-1.89,4.12-3.67c0.38-1.04,0.32-1.95-0.16-2.64
		C186.3,127.94,185.47,127.53,184.58,127.53z"/>
</g>
<g>
	<path class="st0" d="M173.61,131.77l-1.15-0.67c7.64-13.12,11.68-28.13,11.68-43.39c0-47.63-38.75-86.38-86.37-86.38
		S11.38,40.08,11.38,87.71c0,15.26,4.04,30.27,11.68,43.39l-1.15,0.67c-7.76-13.33-11.86-28.56-11.86-44.06
		C10.05,39.35,49.4,0,97.76,0s87.71,39.35,87.71,87.71C185.47,103.21,181.37,118.44,173.61,131.77z"/>
</g>
<g>
	<path class="st0" d="M170.22,129.48l-2.31-1.33c7.07-12.24,10.81-26.22,10.81-40.44c0-44.64-36.32-80.96-80.96-80.96
		S16.8,43.07,16.8,87.71c0,14.22,3.74,28.2,10.81,40.44l-2.31,1.33c-7.31-12.65-11.17-27.09-11.17-41.78
		c0-46.11,37.51-83.63,83.63-83.63c46.11,0,83.63,37.52,83.63,83.63C181.39,102.39,177.53,116.84,170.22,129.48z"/>
</g>
<g>
	<g>
		<g>
			<path class="st0" d="M30.32,152.26c-2.81-2.94-5.42-6.05-7.83-9.32l-0.14,1.7c1.73,2.28,3.56,4.49,5.48,6.61l-0.55,0.5
				c-2.36-1.49-4.93-2.81-7.74-4.02c-0.18,0.87-0.33,1.75-0.48,2.63c0.84,1.2,1.38,2.32,1.62,3.41c0.2,0.85,0.24,1.83,0.11,2.98
				c-0.15,1.06-0.29,2.14-0.41,3.22l8.33-7.78c0.56,0.6,1.12,1.19,1.69,1.77L30.32,152.26z M20.87,150.37c2,0.84,3.7,1.68,5.12,2.56
				l-4.3,3.91C22.05,154.88,21.74,152.75,20.87,150.37z"/>
		</g>
		<g>
			<path class="st0" d="M33.97,155.87l-0.78-0.73c-0.01-0.35,0.04-0.66,0.14-0.91l0.48-0.77l-0.1-0.59
				c-1.29,1.31-2.31,2.58-3.03,3.81c0.45-1.08,0.68-1.83,0.68-2.28c0.02-0.74-0.36-1.51-1.13-2.33c-0.24-0.25-0.5-0.5-0.8-0.75
				l0.12,1.74c0.59,0.53,0.93,1.14,1.03,1.82c0.09,0.69-0.09,1.27-0.55,1.74l-5.81,5.91l0.19,1.79l8.02-8.37
				c0.58,0.55,1.16,1.1,1.75,1.64L33.97,155.87z"/>
		</g>
		<g>
			<path class="st0" d="M35.93,164.13c0.75-0.04,1.33-0.33,1.75-0.85c0.43-0.54,0.58-1.19,0.47-1.95c-0.11-0.76-0.47-1.38-1.09-1.91
				c-0.58-0.48-1.25-0.72-2.04-0.71c-0.79,0-1.4,0.24-1.83,0.71c-0.45,0.5-0.62,1.15-0.49,1.96c0.14,0.8,0.52,1.49,1.17,2.03
				C34.48,163.93,35.18,164.17,35.93,164.13z M33.83,172.28c-0.74-4.37-1.32-7.69-2.02-10.05l-1.65,1.87
				c1.19,3.2,2.25,6.17,3.11,8.94L33.83,172.28z M35.55,162.61c-0.64-0.01-1.21-0.22-1.69-0.64c-0.4-0.35-0.42-0.73-0.06-1.13
				c0.33-0.38,0.82-0.57,1.47-0.6c0.64-0.02,1.19,0.14,1.63,0.52c0.45,0.37,0.48,0.79,0.1,1.26
				C36.67,162.42,36.19,162.62,35.55,162.61z"/>
		</g>
		<g>
			<path class="st0" d="M50.87,168.45c-4.01-2.33-7.84-4.96-11.45-7.86c0.12,0.57,0.24,1.16,0.37,1.73
				c2.74,2.13,5.59,4.11,8.55,5.93l-1.59,2.58c0.22-1.37-0.1-2.33-1-2.91c-0.26-0.16-0.63-0.23-1.13-0.19
				c-0.5,0.04-0.82,0.16-0.96,0.37c-0.2-1.22-0.75-2.15-1.67-2.81c-0.72-0.52-1.5-0.67-2.36-0.46c-0.75,0.19-1.36,0.58-1.84,1.2
				c-0.55,0.72-0.72,1.53-0.47,2.42c0.25,0.89,0.86,1.69,1.83,2.38c0.42,0.3,0.87,0.48,1.35,0.54c0.57,0.07,0.96-0.05,1.16-0.36
				c0.25-0.37,0.34-0.8,0.3-1.31c-0.05-0.51-0.28-0.9-0.7-1.19c-0.33-0.23-0.69-0.34-1.08-0.33c-0.39,0.01-0.68,0.14-0.87,0.4
				c-0.17,0.24-0.24,0.55-0.19,0.93c-0.91-0.86-1.1-1.62-0.6-2.29c0.33-0.45,0.8-0.67,1.42-0.7c0.62-0.02,1.19,0.17,1.76,0.56
				c0.56,0.4,0.97,0.91,1.24,1.55c0.27,0.64,0.31,1.22,0.12,1.74l0.58,0.17c0.12-0.28,0.23-0.5,0.33-0.66
				c0.38-0.58,0.87-0.67,1.48-0.28c0.35,0.23,0.61,0.57,0.76,1.02c0.16,0.45,0.15,0.82-0.03,1.11l-3.21,5.21l0.69,1.69l5.79-9.72
				c0.67,0.4,1.35,0.79,2.03,1.17C51.28,169.56,51.07,169.01,50.87,168.45z"/>
		</g>
		<g>
			<path class="st0" d="M55.62,171.04l-0.95-0.49c-0.1-0.33-0.14-0.64-0.12-0.91l0.24-0.87l-0.26-0.54c-0.87,1.62-1.5,3.12-1.84,4.5
				c0.13-1.16,0.14-1.96,0.01-2.38c-0.19-0.72-0.76-1.35-1.74-1.92c-0.3-0.18-0.63-0.34-0.98-0.5l0.6,1.63
				c0.72,0.34,1.21,0.83,1.49,1.46c0.28,0.63,0.27,1.24-0.05,1.83l-3.93,7.3l0.68,1.66l5.36-10.28c0.71,0.37,1.42,0.73,2.14,1.08
				C56.07,172.09,55.84,171.57,55.62,171.04z"/>
		</g>
		<g>
			<path class="st0" d="M62.51,174.18c-2.5-1.02-4.97-2.16-7.37-3.39l0.66,1.6c1.19,0.59,2.39,1.15,3.6,1.7
				c-2.33,0.87-3.95,2.08-4.75,3.75c-0.57,1.19-0.75,2.42-0.52,3.68c0.28,1.53,1.18,2.63,2.66,3.26c0.65,0.28,1.28,0.35,1.89,0.22
				c0.61-0.13,1-0.43,1.19-0.91c0.21-0.53,0.07-1.03-0.4-1.47c-0.12-0.22-0.33-0.39-0.65-0.53c-0.39-0.16-0.8-0.2-1.23-0.12
				c-0.44,0.08-0.72,0.25-0.84,0.54c-0.17,0.39-0.07,0.88,0.32,1.46l-0.36-0.05c-0.78-0.34-1.3-1.02-1.51-2.04
				c-0.17-0.89-0.1-1.64,0.2-2.29c0.72-1.55,1.73-2.65,2.98-3.3c1.41-0.77,3.03-0.95,4.91-0.6L62.51,174.18z"/>
		</g>
		<g>
			<path class="st0" d="M74.21,178.07c-4.12-1.07-8.17-2.43-12.1-4.06l0.81,1.55l1.4,0.54L62.08,182c0.41,0.69,0.83,1.39,1.26,2.08
				c0.79-0.75,1.78-1.32,2.97-1.74c1.18-0.41,2.41-0.61,3.7-0.6c-0.59,0.9-1.01,1.75-1.25,2.55c-0.29,0.97-0.47,2.53-0.47,4.68
				l0.88,0.64c0.07-1.54,0.21-2.66,0.41-3.35c0.44-1.53,1.53-3.03,3.19-4.55c-0.64-0.66-1.26-1.34-1.87-2.01
				c-1.01,0.04-2.16,0.21-3.45,0.5c-1.1,0.27-2.22,0.53-3.36,0.76l1.58-4.36c3.14,1.13,6.34,2.1,9.58,2.89L74.21,178.07z"/>
		</g>
		<g>
			<path class="st0" d="M87.83,180.55c-0.85-0.17-1.28-0.66-1.28-1.46c-0.25-0.3-0.49-0.55-0.7-0.76c-0.13,1.38-0.22,3.27-0.25,5.67
				c-0.15-0.52-0.57-1.28-1.23-2.3c-0.75-1.15-1.3-1.76-1.71-1.83c-0.67-0.1-1.34-0.01-2.02,0.31c-0.58,0.27-1.09,0.65-1.51,1.14
				c-0.02-0.56-0.28-1.1-0.77-1.62c-0.5-0.52-1.06-0.87-1.7-1.01c-0.9-0.21-1.81-0.43-2.7-0.67l0.99,1.41
				c1.13,0.26,1.83,0.44,2.09,0.56c0.62,0.29,1.01,0.79,1.19,1.52c-0.61,0.03-1.19,0.22-1.76,0.59c-0.57,0.37-0.92,0.79-1.03,1.28
				c-0.09,0.39-0.02,0.77,0.23,1.15c0.25,0.38,0.61,0.62,1.08,0.72c0.45,0.09,0.91,0.06,1.37-0.11c0.46-0.17,0.81-0.42,1.06-0.73
				c0.41,0.89,1.02,1.4,1.83,1.54c1.17,0.19,1.83-0.19,1.97-1.14c0.07-0.44-0.1-0.89-0.48-1.35c-0.2-0.23-0.6-0.59-1.18-1.11
				c0.04-0.23,0.25-0.4,0.63-0.52c0.33-0.11,0.64-0.14,0.94-0.1c0.46,0.08,0.93,0.47,1.45,1.22c0.52,0.74,0.76,1.31,0.7,1.72
				l-1.03,6.79l1.38,1.3l1.31-11.23c0.78,0.09,1.55,0.17,2.33,0.24L87.83,180.55z"/>
		</g>
		<g>
			<path class="st0" d="M108.04,180.51c-4.58,0.5-9.2,0.67-13.81,0.49c0.42,0.39,0.84,0.78,1.28,1.17c1.78,0.04,3.57,0.03,5.35-0.02
				c0,0.1-0.01,0.45-0.03,1.04c-0.03,0.59-0.03,1.07-0.02,1.45c0.07,2.3,0.79,3.44,2.19,3.37c0.58-0.03,1.32-0.33,2.19-0.92
				c0.87-0.59,1.35-1.11,1.46-1.55c0.55,0.4,0.85,0.83,0.9,1.31c0.08,0.79-0.31,1.52-1.19,2.15c-0.79,0.59-1.72,0.91-2.79,0.97
				c-1.91,0.11-3.49-0.68-4.66-2.32c-0.93-1.27-1.45-2.76-1.6-4.46l-0.77-0.36c0.31,3.07,1.07,5.39,2.3,6.91
				c1.23,1.52,2.93,2.26,5.02,2.13c1.66-0.1,2.92-0.6,3.74-1.48c0.77-0.83,1.07-1.88,0.93-3.16c-0.07-0.67-0.37-1.35-0.88-2.04
				c-0.57-0.73-1.21-1.19-1.92-1.4c-0.46,0.55-0.93,1.07-1.4,1.59c-0.62,0.62-1.28,0.94-1.98,0.98l-0.19-4.26
				c2.45-0.12,4.89-0.32,7.32-0.62L108.04,180.51z"/>
		</g>
		<g>
			<path class="st0" d="M113.53,179.74l-1.05,0.17c-0.28-0.21-0.5-0.43-0.65-0.66l-0.32-0.85l-0.53-0.28
				c0.26,1.82,0.65,3.4,1.2,4.72c-0.59-1.02-1.05-1.66-1.4-1.92c-0.58-0.48-1.42-0.63-2.54-0.51c-0.34,0.04-0.7,0.1-1.08,0.18
				c0.48,0.32,0.96,0.64,1.45,0.95c0.78-0.14,1.47-0.06,2.07,0.29c0.6,0.34,0.96,0.83,1.05,1.49l1.19,8.2
				c0.51,0.31,1.02,0.63,1.54,0.93l-1.81-11.46c0.79-0.12,1.58-0.26,2.36-0.4L113.53,179.74z"/>
		</g>
		<g>
			<path class="st0" d="M127.75,176.15c-4.8,1.63-9.75,2.86-14.75,3.68c0.5,0.3,0.99,0.59,1.5,0.89c2.63-0.47,5.24-1.05,7.82-1.74
				l0.22,0.83c-2.44,1.38-4.64,2.98-6.65,4.9c0.74,0.49,1.48,0.99,2.24,1.47c3.27-0.39,5.83,0.53,7.85,2.93l0.62,0.24l-2.41-8.5
				l0.36-0.12c0.87-0.28,1.76-0.27,2.67,0.04c0.92,0.31,1.5,0.82,1.75,1.55l-0.02,0.22c-0.43-0.24-0.92-0.29-1.46-0.11
				c-0.23,0.07-0.47,0.19-0.73,0.34c-0.4,0.47-0.54,0.91-0.42,1.3c0.1,0.35,0.37,0.6,0.81,0.75c0.44,0.14,0.89,0.15,1.34,0
				c0.63-0.2,1.09-0.56,1.37-1.1c0.28-0.53,0.33-1.04,0.16-1.54c-0.35-1.02-1.12-1.82-2.29-2.43c-1.24-0.65-2.45-0.79-3.68-0.45
				l-0.26,0.07l-0.21-0.74c1.94-0.55,3.87-1.16,5.77-1.84L127.75,176.15z M118.68,184.49c1.58-1.41,2.97-2.52,4.22-3.32l1.52,5.65
				C122.92,185.53,121.02,184.78,118.68,184.49z"/>
		</g>
		<g>
			<path class="st0" d="M145.99,165.43c-3.18-0.53-5.78-0.29-8.01,0.86c-0.91,0.46-1.66,1.24-2.3,2.34
				c-0.66,1.16-0.84,2.13-0.48,2.94c0.11,0.24,0.37,0.44,0.8,0.58l1.04,0.28c-1.02,0.47-2.04,0.93-3.07,1.36
				c0.54,0.18,1.09,0.35,1.64,0.52l1.76-0.79l4.24,9.17l1.81,0.34l-4.84-10.08c0.68-0.33,1.36-0.66,2.03-1.01
				c-0.56-0.13-1.12-0.27-1.68-0.42l-1.24,0.6l-0.88-0.71c-0.27-0.69-0.03-1.53,0.65-2.54c0.62-0.94,1.31-1.62,2.09-2.03
				c1.1-0.58,2.26-0.91,3.49-1c0.45-0.04,1.62,0.01,3.56,0.04L145.99,165.43z"/>
		</g>
		<g>
			<path class="st0" d="M149.08,165.71c-3.39,2.24-6.93,4.25-10.58,6.02l1.65,0.44c2.56-1.29,5.06-2.69,7.49-4.2l0.4,0.63
				c-1.89,2.06-3.65,4.34-5.34,6.9c0.83,0.33,1.66,0.64,2.5,0.95c1.32-0.62,2.54-0.94,3.65-0.98c0.87-0.04,1.85,0.09,2.95,0.42
				c1.02,0.34,2.06,0.67,3.09,0.98l-6.16-9.59c0.69-0.44,1.37-0.89,2.04-1.35L149.08,165.71z M145.52,174.66
				c1.19-1.81,2.32-3.34,3.44-4.57l3.07,4.93C150.17,174.32,148.02,174.23,145.52,174.66z"/>
		</g>
		<g>
			<path class="st0" d="M159.73,157.53c-3.52,3.13-7.27,5.98-11.21,8.54l1.73,0.21c3.96-2.65,7.73-5.61,11.25-8.83
				C160.9,157.49,160.31,157.51,159.73,157.53z M161.91,160.65c-1.22-0.27-2.02-0.24-2.44,0.09l-0.03,0.09
				c0.13,0.45,0.12,1.09-0.03,1.89c-0.16,0.89-0.42,1.49-0.78,1.8l-0.07,0c0.02-0.58-0.06-0.99-0.24-1.22
				c-0.23-0.29-0.56-0.42-0.99-0.42c-0.42,0.01-0.81,0.15-1.16,0.42c-0.52,0.41-0.84,0.84-0.97,1.32c-0.13,0.48-0.04,0.94,0.28,1.37
				c0.4,0.55,0.98,0.8,1.76,0.75c0.71-0.03,1.41-0.33,2.09-0.86c0.74-0.58,1.28-1.2,1.61-1.84c0.31-0.58,0.49-1.31,0.54-2.16
				l0.05-0.07c0.16-0.14,0.45-0.1,0.87,0.12c0.33,0.18,0.58,0.37,0.74,0.56c0.49,0.56,0.63,1.33,0.39,2.31
				c-0.25,0.97-0.75,1.77-1.5,2.38c-1.55,1.26-3.39,1.74-5.4,1.43c-1.56-0.24-3.09-0.92-4.58-2.02l-0.83,0.3
				c2.34,1.62,4.12,2.59,5.27,2.96c2.42,0.78,4.64,0.4,6.49-1.09c1.31-1.06,2.06-2.32,2.23-3.75c0.17-1.34-0.21-2.5-1.08-3.47
				C163.79,161.19,163.05,160.9,161.91,160.65z"/>
		</g>
		<g>
			<path class="st0" d="M163.76,153.73l-0.76,0.75c-0.35-0.01-0.65-0.06-0.91-0.16l-0.75-0.5l-0.59,0.08
				c1.27,1.33,2.5,2.39,3.71,3.15c-1.07-0.49-1.82-0.75-2.26-0.75c-0.74-0.05-1.52,0.31-2.36,1.06c-0.26,0.23-0.52,0.49-0.78,0.77
				c0.58-0.01,1.16-0.04,1.74-0.06c0.56-0.57,1.16-0.9,1.86-0.96c0.69-0.07,1.26,0.13,1.72,0.61l5.71,6l1.79-0.13l-8.11-8.29
				c0.57-0.56,1.14-1.12,1.69-1.7L163.76,153.73z"/>
		</g>
		<g>
			<path class="st0" d="M172.29,144.01l-0.25,0.33c-0.46,0.59-0.99,0.65-1.61,0.17l-0.21-0.26l-0.98,0.2
				c0.64,0.5,1.47,1.11,2.5,1.82l2.58,1.73c-1.4-0.46-2.46-0.65-3.19-0.57c-1.05,0.1-2.03,0.7-2.99,1.8
				c-0.72,0.82-1.19,1.72-1.43,2.7c-0.25,1.11-0.06,1.98,0.58,2.6c0.24,0.23,0.6,0.36,1.06,0.38c0.46,0.01,0.83-0.13,1.11-0.42
				c0.19-0.2,0.38-0.65,0.59-1.33c0.2-0.68,0.37-1.11,0.51-1.27c0.33-0.36,0.6-0.45,0.85-0.23c0.16,0.15,0.26,0.75,0.25,1.82
				c0,0.94-0.06,1.64-0.15,2.11c0.72-0.07,1.44-0.15,2.16-0.25c0.09-2.45-0.26-3.92-0.91-4.48c-0.47-0.4-1.01-0.51-1.62-0.34
				c-0.55,0.17-1.08,0.54-1.59,1.11c-0.33,0.38-0.62,0.86-0.87,1.46c-0.42-1.17-0.15-2.28,0.79-3.37c0.65-0.75,1.56-1.13,2.78-1.18
				c1.14-0.06,2.04,0.16,2.71,0.69l4.43,3.69c0.74-0.12,1.49-0.24,2.23-0.37l-9.12-7.06c0.49-0.62,0.96-1.26,1.43-1.89
				L172.29,144.01z"/>
		</g>
	</g>
</g>
<g>
	<g>
		<g>
			<path class="st0" d="M51.55,31.67c-1.32,1.09-1.97,2.54-1.93,4.25c0.03,1.49,0.5,2.66,1.34,3.52c0.77,0.79,1.7,1.27,2.77,1.48
				c1.3,0.23,2.43-0.08,3.44-0.94c0.43-0.36,0.7-0.79,0.83-1.3c0.13-0.51,0.07-0.93-0.2-1.26c-0.14-0.18-0.39-0.29-0.74-0.32
				c-0.34-0.03-0.64,0.05-0.87,0.24c-0.46,0.38-0.75,0.71-0.88,0.98c-0.14,0.35-0.07,0.68,0.21,1c0.16,0.19,0.51,0.23,1.06,0.15
				l-0.01,0.06c-0.72,0.62-1.51,0.82-2.42,0.63c-0.73-0.16-1.37-0.51-1.9-1.08c-0.84-0.9-1.25-2.03-1.17-3.42
				c0.1-1.53,0.8-2.94,2.11-4.13L51.55,31.67z"/>
		</g>
		<g>
			<path class="st0" d="M63.53,23.63c-4.41,2.36-8.57,5.18-12.4,8.39c1.06-0.12,1.67-0.21,1.85-0.31c0.64,0.07,1.35-0.16,2.14-0.67
				c1.06-0.67,1.7-1.02,1.9-1.07c0.71-0.19,1.38,0.07,2,0.77c-0.36,1.72-0.62,2.67-0.88,2.86c-0.22,0.16-0.54,0.2-0.95,0.11
				c-0.36-0.08-0.62-0.19-0.78-0.35l-0.32,0.99c1.38,0.38,2.24,0.49,2.64,0.29c0.16,0.02,0.46-0.14,0.92-0.46
				c0.44-0.31,0.73-0.82,0.88-1.54c0.09-0.63,0.19-1.27,0.32-1.9c0.14-0.71,0.45-1.2,0.9-1.48c0.28-0.18,0.68-0.27,1.19-0.29
				c0.51-0.02,0.82,0.07,0.93,0.26l2.11,3.64c0.52,0.1,1.03,0.21,1.54,0.32l-4.55-8.18c0.74-0.41,1.48-0.8,2.23-1.19L63.53,23.63z
				 M61.95,28.2c-0.68-0.07-1.2,0-1.54,0.22c-0.13,0.09-0.33,0.32-0.58,0.72l-0.53,0.83l-0.25-0.38c-0.34-0.5-1.16-0.71-2.49-0.56
				c1.69-1.19,3.44-2.31,5.23-3.35l1.62,2.78C62.61,28.29,62.11,28.21,61.95,28.2z"/>
		</g>
		<g>
			<path class="st0" d="M74.92,18.74c-4.12,1.37-8.12,3.1-11.93,5.19l1.63,0.19c2.65-1.38,5.38-2.6,8.18-3.64l0.21,0.58
				c-2.37,1.54-4.46,3.48-6.17,5.74c0.75,0.24,1.49,0.49,2.22,0.76c1.23-0.51,2.35-0.72,3.33-0.65c0.76,0.04,1.59,0.27,2.45,0.69
				c0.8,0.43,1.58,0.87,2.34,1.32l-3.12-8.91c0.8-0.28,1.61-0.55,2.43-0.8L74.92,18.74z M69.53,26.04c1.29-1.52,2.64-2.73,3.99-3.63
				l1.67,4.51C73.77,26.06,71.87,25.73,69.53,26.04z"/>
		</g>
		<g>
			<path class="st0" d="M80.19,17.21l-1.11,0.28c-0.31-0.13-0.55-0.28-0.72-0.45l-0.4-0.65l-0.59-0.14c0.42,1.47,0.95,2.7,1.59,3.71
				c-0.66-0.75-1.19-1.2-1.58-1.36c-0.64-0.28-1.54-0.25-2.69,0.14c-0.35,0.12-0.72,0.26-1.09,0.43l1.64,0.41
				c0.77-0.3,1.49-0.37,2.13-0.2c0.64,0.17,1.04,0.53,1.19,1.05l1.88,6.6l1.34,0.62l-2.46-9.28c0.81-0.21,1.62-0.41,2.43-0.6
				C81.24,17.59,80.72,17.4,80.19,17.21z"/>
		</g>
		<g>
			<path class="st0" d="M92.83,15.24l-1.14,0.09c0.06-1.69-1.81-2.46-5.59-1.89c-0.38,0.06-0.94,0.18-1.67,0.37
				c-0.74,0.19-1.29,0.34-1.66,0.41c-0.47,0.1-0.93,0.11-1.38,0.03c-0.51-0.07-0.8-0.24-0.86-0.51c-0.07-0.32,0.1-0.62,0.52-0.9
				l-0.53,0.08c-0.19,0.03-0.38,0.21-0.55,0.52c-0.18,0.32-0.24,0.54-0.21,0.67c0.15,0.62,0.77,0.98,1.83,1.13
				c0.9,0.12,1.86,0.09,2.9-0.1l2-0.4c0.89-0.18,1.56-0.29,2.01-0.35c0.43-0.05,0.85-0.07,1.25-0.03c0.56,0.05,0.84,0.18,0.86,0.39
				c0.02,0.22-0.2,0.41-0.67,0.58c-0.36,0.13-0.73,0.23-1.12,0.28c-3.06,0.38-6.09,0.95-9.08,1.71l1.56,0.58
				c1.4-0.33,2.81-0.62,4.23-0.86c0.63,0.2,0.95,0.38,0.97,0.52l-0.02,0.04c-0.77,0.15-1.43,0.47-1.97,0.95
				c-0.54,0.49-0.75,0.98-0.65,1.48c0.05,0.26,0.25,0.44,0.59,0.54c0.34,0.1,0.71,0.11,1.1,0.04c0.58-0.11,1.1-0.37,1.57-0.79
				c0.47-0.43,0.68-0.84,0.62-1.25c0.2-0.09,0.41-0.15,0.62-0.18c0.53-0.07,0.98,0.03,1.34,0.28c0.36,0.26,0.56,0.58,0.6,0.95
				c0.05,0.5-0.4,0.97-1.32,1.45c-0.78,0.4-1.55,0.66-2.32,0.79c-1.35,0.23-2.58,0.23-3.75-0.01c0.67,0.63,1.33,1.27,1.97,1.92
				c1.83-0.04,3.61,0.19,5.31,0.69c1.73,0.53,3.18,1.29,4.34,2.22l-0.45-1.22c-2.12-1.34-4-2.17-5.49-2.57
				c1.39-0.8,2.19-1.21,2.33-1.31c0.75-0.54,1.1-1.16,1.04-1.87c-0.06-0.77-0.46-1.35-1.2-1.74c-0.38-0.19-1.09-0.41-2.14-0.62
				c-0.82-0.17-1.3-0.35-1.43-0.58c2.34-0.34,4.69-0.57,7.05-0.69C93.79,15.8,93.31,15.52,92.83,15.24z"/>
		</g>
		<g>
			<path class="st0" d="M116.86,17.61c-5.48-1.49-11.14-2.33-16.81-2.5l1.34,0.99c4.36,0.22,8.7,0.83,12.96,1.84l-1.38,5.84
				c-0.28-0.68-0.57-1.36-0.87-2.04c0.08-0.14,0.14-0.3,0.18-0.47c0.18-0.81-0.09-1.64-0.85-2.48c-0.76-0.84-1.75-1.36-2.94-1.54
				c-0.67-0.1-1.25-0.08-1.74,0.05c-0.61,0.16-0.93,0.45-0.97,0.86c-0.04,0.36,0.15,0.69,0.55,0.98c0.41,0.29,0.87,0.47,1.39,0.55
				c0.89,0.13,1.52-0.08,1.93-0.66c0.41,0.06,0.7,0.34,0.88,0.83c0.16,0.4,0.2,0.77,0.14,1.09c-0.09,0.46-0.4,0.78-0.92,0.97
				c-0.52,0.2-1.1,0.24-1.76,0.14c-1.54-0.24-2.74-0.89-3.67-2.01c-0.52-0.61-1.1-1.69-1.8-3.2l-0.83-0.29
				c0.32,1.49,1,2.88,1.99,4.2c1.25,1.68,2.63,2.63,4.28,2.89c1.21,0.19,2.27-0.06,3.23-0.79c1.14,1.5,1.7,2.87,1.78,4.08l0.37,0.38
				l2.33-9.05c0.76,0.19,1.52,0.41,2.28,0.63C117.61,18.47,117.24,18.04,116.86,17.61z"/>
		</g>
		<g>
			<path class="st0" d="M122.41,19.37l-1.08-0.38c-0.18-0.28-0.3-0.54-0.35-0.77l0.03-0.76l-0.42-0.44
				c-0.47,1.45-0.71,2.78-0.75,3.97c-0.13-0.99-0.32-1.66-0.56-2c-0.37-0.59-1.15-1.06-2.31-1.38c-0.36-0.1-0.74-0.18-1.15-0.25
				c0.39,0.41,0.77,0.83,1.14,1.25c0.81,0.18,1.45,0.52,1.89,1.02c0.44,0.5,0.57,1.01,0.4,1.54l-2.11,6.53
				c0.26,0.42,0.52,0.84,0.77,1.26l3.11-9.08c0.79,0.27,1.57,0.55,2.35,0.85C123.07,20.26,122.74,19.81,122.41,19.37z"/>
		</g>
		<g>
			<path class="st0" d="M134.25,24.9c-3.94-2.29-8.09-4.21-12.39-5.73c0.34,0.45,0.68,0.9,1.01,1.36l1.46,0.56l-1.93,4.84
				c0.37,0.6,0.73,1.2,1.08,1.81c0.71-0.57,1.62-0.96,2.72-1.14c1.1-0.19,2.26-0.13,3.46,0.16c-0.66,0.62-1.14,1.24-1.46,1.86
				c-0.39,0.75-0.74,2-1.11,3.74l0.58,0.67c0.35-1.23,0.65-2.11,0.93-2.64c0.62-1.16,1.8-2.17,3.62-2.95
				c-0.47-0.73-0.96-1.45-1.47-2.17c-0.99-0.22-2.11-0.32-3.36-0.29c-1.06,0.05-2.12,0.12-3.18,0.22l1.5-3.54
				c3.21,1.36,6.31,2.95,9.28,4.76C134.75,25.91,134.5,25.4,134.25,24.9z"/>
		</g>
		<g>
			<path class="st0" d="M146.21,33.6c-0.64-0.66-0.8-1.27-0.46-1.84c-0.1-0.37-0.2-0.7-0.31-0.98c-0.69,0.91-1.57,2.22-2.64,3.9
				c0.1-0.45,0.09-1.23-0.06-2.33c-0.18-1.25-0.47-2.02-0.83-2.29c-0.57-0.44-1.23-0.71-1.97-0.79c-0.63-0.07-1.21-0.01-1.75,0.19
				c0.16-0.44,0.07-0.98-0.26-1.62c-0.33-0.63-0.8-1.14-1.39-1.52c-0.84-0.53-1.69-1.05-2.55-1.54l0.72,1.51
				c1.04,0.62,1.66,1.04,1.88,1.24c0.52,0.48,0.75,1.05,0.71,1.69c-0.56-0.23-1.15-0.31-1.77-0.23c-0.62,0.08-1.03,0.3-1.25,0.65
				c-0.18,0.28-0.2,0.61-0.09,0.99c0.11,0.38,0.36,0.7,0.73,0.94c0.36,0.24,0.76,0.38,1.2,0.42c0.44,0.05,0.82,0,1.13-0.14
				c0.06,0.85,0.39,1.49,0.99,1.95c0.88,0.66,1.55,0.7,2.05,0.08c0.23-0.29,0.27-0.7,0.12-1.23c-0.09-0.27-0.29-0.74-0.61-1.41
				c0.12-0.16,0.36-0.18,0.74-0.08c0.33,0.08,0.62,0.22,0.86,0.41c0.38,0.29,0.64,0.85,0.77,1.66c0.13,0.81,0.07,1.35-0.14,1.61
				l-3.74,4.28c0.13,0.51,0.24,1.01,0.35,1.52l6.14-7.07c0.62,0.53,1.22,1.08,1.82,1.64C146.48,34.67,146.35,34.13,146.21,33.6z"/>
		</g>
		<g>
			<path class="st0" d="M150.61,31.33c-2.97-1-5.94-1.79-8.88-2.38c0.9,0.67,1.78,1.37,2.65,2.08c2.34,0.3,4.71,0.72,7.1,1.27
				L150.61,31.33z"/>
		</g>
	</g>
</g>
</svg>
