<?xml version="1.0" encoding="utf-8"?>
<!-- Generator: Adobe Illustrator 19.0.0, SVG Export Plug-In . SVG Version: 6.00 Build 0)  -->
<svg version="1.1" id="Layer_1" xmlns="http://www.w3.org/2000/svg" xmlns:xlink="http://www.w3.org/1999/xlink" x="0px" y="0px"
	 viewBox="0 0 1000 1000" style="enable-background:new 0 0 1000 1000;" xml:space="preserve">
<style type="text/css">
	.st0{fill:url(#XMLID_25_);}
	.st1{fill:url(#XMLID_26_);}
	.st2{fill:url(#XMLID_27_);}
	.st3{opacity:0.26;}
	.st4{fill:url(#XMLID_28_);}
	.st5{fill:url(#XMLID_30_);}
	.st6{fill:none;}
	.st7{fill:#FCE6A8;}
	.st8{opacity:0.39;}
	.st9{fill:#F7F3FE;}
</style>
<g id="XMLID_23_">
	<linearGradient id="XMLID_25_" gradientUnits="userSpaceOnUse" x1="47.2108" y1="558.7868" x2="451.5257" y2="558.7868">
		<stop  offset="0" style="stop-color:#F0BD6E"/>
		<stop  offset="1" style="stop-color:#F7CD7B"/>
	</linearGradient>
	<polygon id="XMLID_21_" class="st0" points="47.2,186.6 47.2,700.3 449.1,931 451.5,360.8 	"/>
	<linearGradient id="XMLID_26_" gradientUnits="userSpaceOnUse" x1="437.3643" y1="651.0383" x2="1031.5203" y2="416.4356">
		<stop  offset="0" style="stop-color:#D89C4C"/>
		<stop  offset="1" style="stop-color:#F7CD7B"/>
	</linearGradient>
	<polygon id="XMLID_20_" class="st1" points="449.1,931 952.8,692.6 952.8,187.4 451.5,360.8 	"/>
	<linearGradient id="XMLID_27_" gradientUnits="userSpaceOnUse" x1="47.2108" y1="214.9185" x2="952.7892" y2="214.9185">
		<stop  offset="0" style="stop-color:#F0BD6E"/>
		<stop  offset="1" style="stop-color:#F7CD7B"/>
	</linearGradient>
	<path id="XMLID_19_" class="st2" d="M571.8,69L47.2,186.6l404.3,174.3c110.8-37.1,373.6-129.3,501.3-173.4L571.8,69z"/>
	<polygon id="XMLID_18_" class="st3" points="47.2,700.3 219.2,497.1 449.1,931 138.1,704.6 	"/>
	<linearGradient id="XMLID_28_" gradientUnits="userSpaceOnUse" x1="230.8493" y1="511.2411" x2="247.6928" y2="807.2079">
		<stop  offset="0" style="stop-color:#F0BD6E"/>
		<stop  offset="1" style="stop-color:#F7CD7B"/>
	</linearGradient>
	<polygon id="XMLID_17_" class="st4" points="47.2,700.3 217.3,510.5 449.1,931 	"/>
	<polygon id="XMLID_16_" class="st3" points="47.2,186.6 213.5,569.8 451.5,360.8 	"/>
	<linearGradient id="XMLID_30_" gradientUnits="userSpaceOnUse" x1="264.6389" y1="560.6692" x2="248.9632" y2="266.0937">
		<stop  offset="0" style="stop-color:#F0BD6E"/>
		<stop  offset="1" style="stop-color:#F7CD7B"/>
	</linearGradient>
	<polygon id="XMLID_15_" class="st5" points="47.2,186.6 214.8,558.8 451.5,360.8 	"/>
	<path id="XMLID_14_" class="st6" d="M722.8,115.9c-2.6-1.6-5.4-2.4-8.4-2.5L722.8,115.9z"/>
	<polygon id="XMLID_13_" class="st7" points="47.2,186.6 446.6,366 449.1,931 459.9,368.4 952.8,187.4 453.4,354.1 	"/>
	<path id="XMLID_12_" class="st8" d="M732.1,288.6V797l-4.9,2.3V288.6c0-9-3.8-17.4-10.1-23.3c-0.2-0.2-0.5-0.4-0.7-0.6
		c-3-2.7-6.6-4.8-10.6-6.2L328.4,127c-1-0.4-4.7-1.5-6.7-1.9l5.6-1.2l7.1,0.1l373.1,130c5.5,1.9,10.3,5.1,14.2,9
		c0.2,0.2,0.4,0.4,0.6,0.7C728.5,270.2,732.1,279.1,732.1,288.6z"/>
	<path id="XMLID_11_" class="st9" d="M735.4,286.2c0-9.5-3.7-18.3-9.8-25c-4-4.3-9-7.7-14.8-9.7l-373.1-130l-4.1-1.4
		c-5.6-1.9-11.8-1.2-16.7,2.1c-2.1,1.4-3.8,3.1-5.1,5.1l9.5-2.1c1.9-0.9,4-1.4,6.1-1.3c1.4,0,2.9,0.3,4.3,0.8l377.5,131.5
		c4.3,1.5,8.1,3.9,11.3,6.8c6.3,5.9,10.1,14.3,10.1,23.3V798c0,1.9,2.2,3.1,3.8,1.9l0,0c0.7-0.5,1.1-1.3,1.1-2.2V286.2z"/>
	<path id="XMLID_10_" class="st8" d="M717,114.1c-2.2,0.5-5.1,1.3-6.2,1.7L245.6,252.7c-5.7,1.6-10.6,4.9-14.3,9.2
		c-0.1,0.1-0.2,0.2-0.3,0.3c-4.3,5.2-6.9,11.9-6.9,19l0,296.9v223.7l-3.7-2.1l-1.1-518.5c0-7.6,2.4-14.7,6.9-20.8
		c0.1-0.1,0.1-0.2,0.2-0.2c0.1-0.1,0.2-0.2,0.3-0.3c4.5-5.7,10.6-9.8,17.6-11.9l462.1-136l7.4,1.1L717,114.1z"/>
	<path id="XMLID_9_" class="st9" d="M726.3,112.7c-5.7-4.3-13-5.6-19.8-3.6l-3,0.9l-462.1,136c-7.2,2.1-13.3,6.3-17.9,12.2
		c-0.1,0.1-0.1,0.2-0.2,0.2c-4.5,6-6.9,13.2-6.9,20.8v518.1c0,2.1,1.5,4.5,3.6,4.5c0.9,0,1.3-1.2,1.3-1.7l0-520.9
		c0-7.1,2.6-13.8,6.9-19c3.7-4.5,8.7-7.9,14.6-9.5l465.1-136.9c1.9-0.6,3.8-0.8,5.7-0.7c2.9,0.1,5.8,1,8.3,2.5l9.9,3.1
		C730.4,116.5,728.6,114.4,726.3,112.7z"/>
	<path id="XMLID_29_" class="st8" d="M661.9,170.4c-1.8-4.3-6.4-0.4-9.7,0.5c-81.6,33.5-89.2,7.3-149.7,7.7c7.6-3.2,16-4,24.3-5
		c18.3-0.6,90.9-13.1,76.2-38.5c-21.5-11.9-48.9-7-69.2,4.9c-27.9,16.9-33,32.3-40.7,37.4c-44.8-4.3-117.1-3.6-140.4,27.5
		c-7.5,12.6,10.7,22.4,18.8,26.5c41.4,18.2,83.7-10,114.7-36c-16.7,48.9-36.1,29.9-42.5,64.9c-1.8,8.3-7.1,18.1-2.5,19.2
		c5.3,1.8,8.3-22.7,10.2-25.6c6.1-21.5,29.3-14.2,42.2-63.2c1.1-2.1,0.3-5.1,2.9-6c54.4-2.7,76.9,19.4,128.3,1.9
		C637.3,182.3,664.9,174.4,661.9,170.4z M544.2,140.9c23.4-13.2,86.6-6.4,35.9,15.8c-30.2,12.1-54.9,9.4-73.7,14.6
		C516.9,158.8,529.3,147.9,544.2,140.9z M487.8,185.8c-28.7,27.3-69.9,54.2-107,43.1c-9.7-2.6-23.5-11.1-24.2-17.8
		c13.3-32.5,107.3-32.4,133.3-27.9C489.5,183.9,488.7,184.7,487.8,185.8z M566,186.6C566.1,186.6,566.2,186.6,566,186.6L566,186.6z"
		/>
	<path id="XMLID_24_" class="st9" d="M661.1,166.5c-1.8-4.3-6.4-0.4-9.7,0.5c-81.6,33.5-89.2,7.3-149.7,7.7c7.6-3.2,16-4,24.3-5
		c18.3-0.6,90.9-13.1,76.2-38.5c-21.5-11.9-48.9-7-69.2,4.9c-27.9,16.9-33,32.3-40.7,37.4c-44.8-4.3-117.1-3.6-140.4,27.5
		c-7.5,12.6,10.7,22.4,18.8,26.5c41.4,18.2,83.7-10,114.7-36c-16.7,48.9-36.1,29.9-42.5,64.9c-1.8,8.3-7.1,18.1-2.5,19.2
		c5.3,1.8,8.3-22.7,10.2-25.6c6.1-21.5,29.3-14.2,42.2-63.2c1.1-2.1,0.3-5.1,2.9-6c54.4-2.7,76.9,19.4,128.3,1.9
		C636.4,178.4,664,170.5,661.1,166.5z M543.3,137.1c23.4-13.2,86.6-6.4,35.9,15.8c-30.2,12.1-54.9,9.4-73.7,14.6
		C516,155,528.5,144,543.3,137.1z M486.9,181.9c-28.7,27.3-69.9,54.2-107,43.1c-9.7-2.6-23.5-11.1-24.2-17.8
		C369,174.7,463,174.8,489,179.3C488.7,180,487.8,180.8,486.9,181.9z M565.1,182.7C565.2,182.7,565.4,182.7,565.1,182.7L565.1,182.7
		z"/>
</g>
</svg>
