<?xml version="1.0" encoding="utf-8"?>
<!-- Generator: Adobe Illustrator 27.8.1, SVG Export Plug-In . SVG Version: 6.00 Build 0)  -->
<svg version="1.1" id="Layer_1" xmlns="http://www.w3.org/2000/svg" xmlns:xlink="http://www.w3.org/1999/xlink" x="0px" y="0px"
	 viewBox="0 0 540 486" style="enable-background:new 0 0 540 486;" xml:space="preserve">
<style type="text/css">
	.st0{fill:#EDC919;}
	.st1{fill:#FFFFFF;stroke:#000000;stroke-miterlimit:10;}
	.st2{font-family:'ArialMT';}
	.st3{font-size:12px;}
	.st4{font-size:9px;}
	.st5{fill:none;}
	.st6{font-family:'Arial-BoldMT';}
	.st7{font-size:13px;}
	.st8{font-family:'Kalpurush';}
	.st9{font-size:15px;}
	.st10{fill:none;stroke:#000000;stroke-miterlimit:10;}
	.st11{font-size:11px;}
</style>
<rect class="st0" width="540" height="486"/>
<path id="district_x5F_box" class="st1" d="M517,463.4h-15.6c-0.7,0-1.2-0.5-1.2-1.2v-12c0-0.7,0.5-1.2,1.2-1.2H517
	c0.7,0,1.2,0.5,1.2,1.2v12C518.2,462.9,517.7,463.4,517,463.4z"/>
<text id="district_x5F_no" transform="matrix(1 0 0 1 502.6981 460.1487)" class="st2 st3">64</text>
<text id="qr_x5F_code_x5F_text" transform="matrix(1 0 0 1 28.7998 461.7471)" class="st2 st4">ec6e33b8-0958-4f1e-b916-4991ad8b1905</text>
<g id="qr_x5F_code" transform="translate(70,70)">
	<g transform="translate(315,0) scale(0.35,0.35)">
		<g transform="">
			<rect x="-962.6" y="931.8" width="4.9" height="4.9"/>
		</g>
	</g>
	<g transform="translate(420,0) scale(0.35,0.35)">
		<g transform="">
			<rect x="-1247.8" y="931.8" width="4.9" height="4.9"/>
		</g>
	</g>
	<g transform="translate(455,0) scale(0.35,0.35)">
		<g transform="">
			<rect x="-1342.9" y="931.8" width="4.9" height="4.9"/>
		</g>
	</g>
	<g transform="translate(525,0) scale(0.35,0.35)">
		<g transform="">
			<rect x="-1533.1" y="931.8" width="4.9" height="4.9"/>
		</g>
	</g>
	<g transform="translate(665,0) scale(0.35,0.35)">
		<g transform="">
			<rect x="-1913.3" y="931.8" width="4.9" height="4.9"/>
		</g>
	</g>
	<g transform="translate(455,35) scale(0.35,0.35)">
		<g transform="">
			<rect x="-1342.9" y="836.7" width="4.9" height="4.9"/>
		</g>
	</g>
	<g transform="translate(490,35) scale(0.35,0.35)">
		<g transform="">
			<rect x="-1438" y="836.7" width="4.9" height="4.9"/>
		</g>
	</g>
	<g transform="translate(525,35) scale(0.35,0.35)">
		<g transform="">
			<rect x="-1533.1" y="836.7" width="4.9" height="4.9"/>
		</g>
	</g>
	<g transform="translate(560,35) scale(0.35,0.35)">
		<g transform="">
			<rect x="-1628.1" y="836.7" width="4.9" height="4.9"/>
		</g>
	</g>
	<g transform="translate(595,35) scale(0.35,0.35)">
		<g transform="">
			<rect x="-1723.2" y="836.7" width="4.9" height="4.9"/>
		</g>
	</g>
	<g transform="translate(700,35) scale(0.35,0.35)">
		<g transform="">
			<rect x="-2008.4" y="836.7" width="4.9" height="4.9"/>
		</g>
	</g>
	<g transform="translate(280,70) scale(0.35,0.35)">
		<g transform="">
			<rect x="-867.6" y="741.7" width="4.9" height="4.9"/>
		</g>
	</g>
	<g transform="translate(350,70) scale(0.35,0.35)">
		<g transform="">
			<rect x="-1057.7" y="741.7" width="4.9" height="4.9"/>
		</g>
	</g>
	<g transform="translate(385,70) scale(0.35,0.35)">
		<g transform="">
			<rect x="-1152.8" y="741.7" width="4.9" height="4.9"/>
		</g>
	</g>
	<g transform="translate(455,70) scale(0.35,0.35)">
		<g transform="">
			<rect x="-1342.9" y="741.7" width="4.9" height="4.9"/>
		</g>
	</g>
	<g transform="translate(525,70) scale(0.35,0.35)">
		<g transform="">
			<rect x="-1533.1" y="741.7" width="4.9" height="4.9"/>
		</g>
	</g>
	<g transform="translate(560,70) scale(0.35,0.35)">
		<g transform="">
			<rect x="-1628.1" y="741.7" width="4.9" height="4.9"/>
		</g>
	</g>
	<g transform="translate(630,70) scale(0.35,0.35)">
		<g transform="">
			<rect x="-1818.3" y="741.7" width="4.9" height="4.9"/>
		</g>
	</g>
	<g transform="translate(280,105) scale(0.35,0.35)">
		<g transform="">
			<rect x="-867.6" y="646.6" width="4.9" height="4.9"/>
		</g>
	</g>
	<g transform="translate(315,105) scale(0.35,0.35)">
		<g transform="">
			<rect x="-962.6" y="646.6" width="4.9" height="4.9"/>
		</g>
	</g>
	<g transform="translate(420,105) scale(0.35,0.35)">
		<g transform="">
			<rect x="-1247.8" y="646.6" width="4.9" height="4.9"/>
		</g>
	</g>
	<g transform="translate(490,105) scale(0.35,0.35)">
		<g transform="">
			<rect x="-1438" y="646.6" width="4.9" height="4.9"/>
		</g>
	</g>
	<g transform="translate(525,105) scale(0.35,0.35)">
		<g transform="">
			<rect x="-1533.1" y="646.6" width="4.9" height="4.9"/>
		</g>
	</g>
	<g transform="translate(560,105) scale(0.35,0.35)">
		<g transform="">
			<rect x="-1628.1" y="646.6" width="4.9" height="4.9"/>
		</g>
	</g>
	<g transform="translate(595,105) scale(0.35,0.35)">
		<g transform="">
			<rect x="-1723.2" y="646.6" width="4.9" height="4.9"/>
		</g>
	</g>
	<g transform="translate(630,105) scale(0.35,0.35)">
		<g transform="">
			<rect x="-1818.3" y="646.6" width="4.9" height="4.9"/>
		</g>
	</g>
	<g transform="translate(700,105) scale(0.35,0.35)">
		<g transform="">
			<rect x="-2008.4" y="646.6" width="4.9" height="4.9"/>
		</g>
	</g>
	<g transform="translate(280,140) scale(0.35,0.35)">
		<g transform="">
			<rect x="-867.6" y="551.5" width="4.9" height="4.9"/>
		</g>
	</g>
	<g transform="translate(315,140) scale(0.35,0.35)">
		<g transform="">
			<rect x="-962.6" y="551.5" width="4.9" height="4.9"/>
		</g>
	</g>
	<g transform="translate(385,140) scale(0.35,0.35)">
		<g transform="">
			<rect x="-1152.8" y="551.5" width="4.9" height="4.9"/>
		</g>
	</g>
	<g transform="translate(595,140) scale(0.35,0.35)">
		<g transform="">
			<rect x="-1723.2" y="551.5" width="4.9" height="4.9"/>
		</g>
	</g>
	<g transform="translate(630,140) scale(0.35,0.35)">
		<g transform="">
			<rect x="-1818.3" y="551.5" width="4.9" height="4.9"/>
		</g>
	</g>
	<g transform="translate(665,140) scale(0.35,0.35)">
		<g transform="">
			<rect x="-1913.3" y="551.5" width="4.9" height="4.9"/>
		</g>
	</g>
	<g transform="translate(280,175) scale(0.35,0.35)">
		<g transform="">
			<rect x="-867.6" y="456.5" width="4.9" height="4.9"/>
		</g>
	</g>
	<g transform="translate(350,175) scale(0.35,0.35)">
		<g transform="">
			<rect x="-1057.7" y="456.5" width="4.9" height="4.9"/>
		</g>
	</g>
	<g transform="translate(385,175) scale(0.35,0.35)">
		<g transform="">
			<rect x="-1152.8" y="456.5" width="4.9" height="4.9"/>
		</g>
	</g>
	<g transform="translate(420,175) scale(0.35,0.35)">
		<g transform="">
			<rect x="-1247.8" y="456.5" width="4.9" height="4.9"/>
		</g>
	</g>
	<g transform="translate(525,175) scale(0.35,0.35)">
		<g transform="">
			<rect x="-1533.1" y="456.5" width="4.9" height="4.9"/>
		</g>
	</g>
	<g transform="translate(700,175) scale(0.35,0.35)">
		<g transform="">
			<rect x="-2008.4" y="456.5" width="4.9" height="4.9"/>
		</g>
	</g>
	<g transform="translate(280,210) scale(0.35,0.35)">
		<g transform="">
			<rect x="-867.6" y="361.4" width="4.9" height="4.9"/>
		</g>
	</g>
	<g transform="translate(350,210) scale(0.35,0.35)">
		<g transform="">
			<rect x="-1057.7" y="361.4" width="4.9" height="4.9"/>
		</g>
	</g>
	<g transform="translate(420,210) scale(0.35,0.35)">
		<g transform="">
			<rect x="-1247.8" y="361.4" width="4.9" height="4.9"/>
		</g>
	</g>
	<g transform="translate(490,210) scale(0.35,0.35)">
		<g transform="">
			<rect x="-1438" y="361.4" width="4.9" height="4.9"/>
		</g>
	</g>
	<g transform="translate(560,210) scale(0.35,0.35)">
		<g transform="">
			<rect x="-1628.1" y="361.4" width="4.9" height="4.9"/>
		</g>
	</g>
	<g transform="translate(630,210) scale(0.35,0.35)">
		<g transform="">
			<rect x="-1818.3" y="361.4" width="4.9" height="4.9"/>
		</g>
	</g>
	<g transform="translate(700,210) scale(0.35,0.35)">
		<g transform="">
			<rect x="-2008.4" y="361.4" width="4.9" height="4.9"/>
		</g>
	</g>
	<g transform="translate(280,245) scale(0.35,0.35)">
		<g transform="">
			<rect x="-867.6" y="266.3" width="4.9" height="4.9"/>
		</g>
	</g>
	<g transform="translate(315,245) scale(0.35,0.35)">
		<g transform="">
			<rect x="-962.6" y="266.3" width="4.9" height="4.9"/>
		</g>
	</g>
	<g transform="translate(385,245) scale(0.35,0.35)">
		<g transform="">
			<rect x="-1152.8" y="266.3" width="4.9" height="4.9"/>
		</g>
	</g>
	<g transform="translate(490,245) scale(0.35,0.35)">
		<g transform="">
			<rect x="-1438" y="266.3" width="4.9" height="4.9"/>
		</g>
	</g>
	<g transform="translate(525,245) scale(0.35,0.35)">
		<g transform="">
			<rect x="-1533.1" y="266.3" width="4.9" height="4.9"/>
		</g>
	</g>
	<g transform="translate(0,280) scale(0.35,0.35)">
		<g transform="">
			<rect x="-107" y="171.3" width="4.9" height="4.9"/>
		</g>
	</g>
	<g transform="translate(70,280) scale(0.35,0.35)">
		<g transform="">
			<rect x="-297.1" y="171.3" width="4.9" height="4.9"/>
		</g>
	</g>
	<g transform="translate(105,280) scale(0.35,0.35)">
		<g transform="">
			<rect x="-392.2" y="171.3" width="4.9" height="4.9"/>
		</g>
	</g>
	<g transform="translate(140,280) scale(0.35,0.35)">
		<g transform="">
			<rect x="-487.3" y="171.3" width="4.9" height="4.9"/>
		</g>
	</g>
	<g transform="translate(175,280) scale(0.35,0.35)">
		<g transform="">
			<rect x="-582.3" y="171.3" width="4.9" height="4.9"/>
		</g>
	</g>
	<g transform="translate(210,280) scale(0.35,0.35)">
		<g transform="">
			<rect x="-677.4" y="171.3" width="4.9" height="4.9"/>
		</g>
	</g>
	<g transform="translate(350,280) scale(0.35,0.35)">
		<g transform="">
			<rect x="-1057.7" y="171.3" width="4.9" height="4.9"/>
		</g>
	</g>
	<g transform="translate(385,280) scale(0.35,0.35)">
		<g transform="">
			<rect x="-1152.8" y="171.3" width="4.9" height="4.9"/>
		</g>
	</g>
	<g transform="translate(525,280) scale(0.35,0.35)">
		<g transform="">
			<rect x="-1533.1" y="171.3" width="4.9" height="4.9"/>
		</g>
	</g>
	<g transform="translate(560,280) scale(0.35,0.35)">
		<g transform="">
			<rect x="-1628.1" y="171.3" width="4.9" height="4.9"/>
		</g>
	</g>
	<g transform="translate(595,280) scale(0.35,0.35)">
		<g transform="">
			<rect x="-1723.2" y="171.3" width="4.9" height="4.9"/>
		</g>
	</g>
	<g transform="translate(630,280) scale(0.35,0.35)">
		<g transform="">
			<rect x="-1818.3" y="171.3" width="4.9" height="4.9"/>
		</g>
	</g>
	<g transform="translate(665,280) scale(0.35,0.35)">
		<g transform="">
			<rect x="-1913.3" y="171.3" width="4.9" height="4.9"/>
		</g>
	</g>
	<g transform="translate(700,280) scale(0.35,0.35)">
		<g transform="">
			<rect x="-2008.4" y="171.3" width="4.9" height="4.9"/>
		</g>
	</g>
	<g transform="translate(770,280) scale(0.35,0.35)">
		<g transform="">
			<rect x="-2198.5" y="171.3" width="4.9" height="4.9"/>
		</g>
	</g>
	<g transform="translate(805,280) scale(0.35,0.35)">
		<g transform="">
			<rect x="-2293.6" y="171.3" width="4.9" height="4.9"/>
		</g>
	</g>
	<g transform="translate(840,280) scale(0.35,0.35)">
		<g transform="">
			<rect x="-2388.7" y="171.3" width="4.9" height="4.9"/>
		</g>
	</g>
	<g transform="translate(875,280) scale(0.35,0.35)">
		<g transform="">
			<rect x="-2483.8" y="171.3" width="4.9" height="4.9"/>
		</g>
	</g>
	<g transform="translate(910,280) scale(0.35,0.35)">
		<g transform="">
			<rect x="-2578.8" y="171.3" width="4.9" height="4.9"/>
		</g>
	</g>
	<g transform="translate(0,315) scale(0.35,0.35)">
		<g transform="">
			<rect x="-107" y="76.2" width="4.9" height="4.9"/>
		</g>
	</g>
	<g transform="translate(105,315) scale(0.35,0.35)">
		<g transform="">
			<rect x="-392.2" y="76.2" width="4.9" height="4.9"/>
		</g>
	</g>
	<g transform="translate(140,315) scale(0.35,0.35)">
		<g transform="">
			<rect x="-487.3" y="76.2" width="4.9" height="4.9"/>
		</g>
	</g>
	<g transform="translate(245,315) scale(0.35,0.35)">
		<g transform="">
			<rect x="-772.5" y="76.2" width="4.9" height="4.9"/>
		</g>
	</g>
	<g transform="translate(280,315) scale(0.35,0.35)">
		<g transform="">
			<rect x="-867.6" y="76.2" width="4.9" height="4.9"/>
		</g>
	</g>
	<g transform="translate(315,315) scale(0.35,0.35)">
		<g transform="">
			<rect x="-962.6" y="76.2" width="4.9" height="4.9"/>
		</g>
	</g>
	<g transform="translate(385,315) scale(0.35,0.35)">
		<g transform="">
			<rect x="-1152.8" y="76.2" width="4.9" height="4.9"/>
		</g>
	</g>
	<g transform="translate(420,315) scale(0.35,0.35)">
		<g transform="">
			<rect x="-1247.8" y="76.2" width="4.9" height="4.9"/>
		</g>
	</g>
	<g transform="translate(455,315) scale(0.35,0.35)">
		<g transform="">
			<rect x="-1342.9" y="76.2" width="4.9" height="4.9"/>
		</g>
	</g>
	<g transform="translate(490,315) scale(0.35,0.35)">
		<g transform="">
			<rect x="-1438" y="76.2" width="4.9" height="4.9"/>
		</g>
	</g>
	<g transform="translate(665,315) scale(0.35,0.35)">
		<g transform="">
			<rect x="-1913.3" y="76.2" width="4.9" height="4.9"/>
		</g>
	</g>
	<g transform="translate(770,315) scale(0.35,0.35)">
		<g transform="">
			<rect x="-2198.5" y="76.2" width="4.9" height="4.9"/>
		</g>
	</g>
	<g transform="translate(840,315) scale(0.35,0.35)">
		<g transform="">
			<rect x="-2388.7" y="76.2" width="4.9" height="4.9"/>
		</g>
	</g>
	<g transform="translate(875,315) scale(0.35,0.35)">
		<g transform="">
			<rect x="-2483.8" y="76.2" width="4.9" height="4.9"/>
		</g>
	</g>
	<g transform="translate(945,315) scale(0.35,0.35)">
		<g transform="">
			<rect x="-2673.9" y="76.2" width="4.9" height="4.9"/>
		</g>
	</g>
	<g transform="translate(980,315) scale(0.35,0.35)">
		<g transform="">
			<rect x="-2769" y="76.2" width="4.9" height="4.9"/>
		</g>
	</g>
	<g transform="translate(35,350) scale(0.35,0.35)">
		<g transform="">
			<rect x="-202.1" y="-18.9" width="4.9" height="4.9"/>
		</g>
	</g>
	<g transform="translate(105,350) scale(0.35,0.35)">
		<g transform="">
			<rect x="-392.2" y="-18.9" width="4.9" height="4.9"/>
		</g>
	</g>
	<g transform="translate(140,350) scale(0.35,0.35)">
		<g transform="">
			<rect x="-487.3" y="-18.9" width="4.9" height="4.9"/>
		</g>
	</g>
	<g transform="translate(210,350) scale(0.35,0.35)">
		<g transform="">
			<rect x="-677.4" y="-18.9" width="4.9" height="4.9"/>
		</g>
	</g>
	<g transform="translate(245,350) scale(0.35,0.35)">
		<g transform="">
			<rect x="-772.5" y="-18.9" width="4.9" height="4.9"/>
		</g>
	</g>
	<g transform="translate(315,350) scale(0.35,0.35)">
		<g transform="">
			<rect x="-962.6" y="-18.9" width="4.9" height="4.9"/>
		</g>
	</g>
	<g transform="translate(420,350) scale(0.35,0.35)">
		<g transform="">
			<rect x="-1247.8" y="-18.9" width="4.9" height="4.9"/>
		</g>
	</g>
	<g transform="translate(455,350) scale(0.35,0.35)">
		<g transform="">
			<rect x="-1342.9" y="-18.9" width="4.9" height="4.9"/>
		</g>
	</g>
	<g transform="translate(490,350) scale(0.35,0.35)">
		<g transform="">
			<rect x="-1438" y="-18.9" width="4.9" height="4.9"/>
		</g>
	</g>
	<g transform="translate(525,350) scale(0.35,0.35)">
		<g transform="">
			<rect x="-1533.1" y="-18.9" width="4.9" height="4.9"/>
		</g>
	</g>
	<g transform="translate(560,350) scale(0.35,0.35)">
		<g transform="">
			<rect x="-1628.1" y="-18.9" width="4.9" height="4.9"/>
		</g>
	</g>
	<g transform="translate(735,350) scale(0.35,0.35)">
		<g transform="">
			<rect x="-2103.5" y="-18.9" width="4.9" height="4.9"/>
		</g>
	</g>
	<g transform="translate(770,350) scale(0.35,0.35)">
		<g transform="">
			<rect x="-2198.5" y="-18.9" width="4.9" height="4.9"/>
		</g>
	</g>
	<g transform="translate(805,350) scale(0.35,0.35)">
		<g transform="">
			<rect x="-2293.6" y="-18.9" width="4.9" height="4.9"/>
		</g>
	</g>
	<g transform="translate(840,350) scale(0.35,0.35)">
		<g transform="">
			<rect x="-2388.7" y="-18.9" width="4.9" height="4.9"/>
		</g>
	</g>
	<g transform="translate(875,350) scale(0.35,0.35)">
		<g transform="">
			<rect x="-2483.8" y="-18.9" width="4.9" height="4.9"/>
		</g>
	</g>
	<g transform="translate(105,385) scale(0.35,0.35)">
		<g transform="">
			<rect x="-392.2" y="-114" width="4.9" height="4.9"/>
		</g>
	</g>
	<g transform="translate(140,385) scale(0.35,0.35)">
		<g transform="">
			<rect x="-487.3" y="-114" width="4.9" height="4.9"/>
		</g>
	</g>
	<g transform="translate(175,385) scale(0.35,0.35)">
		<g transform="">
			<rect x="-582.3" y="-114" width="4.9" height="4.9"/>
		</g>
	</g>
	<g transform="translate(280,385) scale(0.35,0.35)">
		<g transform="">
			<rect x="-867.6" y="-114" width="4.9" height="4.9"/>
		</g>
	</g>
	<g transform="translate(350,385) scale(0.35,0.35)">
		<g transform="">
			<rect x="-1057.7" y="-114" width="4.9" height="4.9"/>
		</g>
	</g>
	<g transform="translate(455,385) scale(0.35,0.35)">
		<g transform="">
			<rect x="-1342.9" y="-114" width="4.9" height="4.9"/>
		</g>
	</g>
	<g transform="translate(525,385) scale(0.35,0.35)">
		<g transform="">
			<rect x="-1533.1" y="-114" width="4.9" height="4.9"/>
		</g>
	</g>
	<g transform="translate(630,385) scale(0.35,0.35)">
		<g transform="">
			<rect x="-1818.3" y="-114" width="4.9" height="4.9"/>
		</g>
	</g>
	<g transform="translate(665,385) scale(0.35,0.35)">
		<g transform="">
			<rect x="-1913.3" y="-114" width="4.9" height="4.9"/>
		</g>
	</g>
	<g transform="translate(735,385) scale(0.35,0.35)">
		<g transform="">
			<rect x="-2103.5" y="-114" width="4.9" height="4.9"/>
		</g>
	</g>
	<g transform="translate(805,385) scale(0.35,0.35)">
		<g transform="">
			<rect x="-2293.6" y="-114" width="4.9" height="4.9"/>
		</g>
	</g>
	<g transform="translate(840,385) scale(0.35,0.35)">
		<g transform="">
			<rect x="-2388.7" y="-114" width="4.9" height="4.9"/>
		</g>
	</g>
	<g transform="translate(945,385) scale(0.35,0.35)">
		<g transform="">
			<rect x="-2673.9" y="-114" width="4.9" height="4.9"/>
		</g>
	</g>
	<g transform="translate(980,385) scale(0.35,0.35)">
		<g transform="">
			<rect x="-2769" y="-114" width="4.9" height="4.9"/>
		</g>
	</g>
	<g transform="translate(0,420) scale(0.35,0.35)">
		<g transform="">
			<rect x="-107" y="-209" width="4.9" height="4.9"/>
		</g>
	</g>
	<g transform="translate(35,420) scale(0.35,0.35)">
		<g transform="">
			<rect x="-202.1" y="-209" width="4.9" height="4.9"/>
		</g>
	</g>
	<g transform="translate(105,420) scale(0.35,0.35)">
		<g transform="">
			<rect x="-392.2" y="-209" width="4.9" height="4.9"/>
		</g>
	</g>
	<g transform="translate(210,420) scale(0.35,0.35)">
		<g transform="">
			<rect x="-677.4" y="-209" width="4.9" height="4.9"/>
		</g>
	</g>
	<g transform="translate(490,420) scale(0.35,0.35)">
		<g transform="">
			<rect x="-1438" y="-209" width="4.9" height="4.9"/>
		</g>
	</g>
	<g transform="translate(560,420) scale(0.35,0.35)">
		<g transform="">
			<rect x="-1628.1" y="-209" width="4.9" height="4.9"/>
		</g>
	</g>
	<g transform="translate(595,420) scale(0.35,0.35)">
		<g transform="">
			<rect x="-1723.2" y="-209" width="4.9" height="4.9"/>
		</g>
	</g>
	<g transform="translate(630,420) scale(0.35,0.35)">
		<g transform="">
			<rect x="-1818.3" y="-209" width="4.9" height="4.9"/>
		</g>
	</g>
	<g transform="translate(735,420) scale(0.35,0.35)">
		<g transform="">
			<rect x="-2103.5" y="-209" width="4.9" height="4.9"/>
		</g>
	</g>
	<g transform="translate(805,420) scale(0.35,0.35)">
		<g transform="">
			<rect x="-2293.6" y="-209" width="4.9" height="4.9"/>
		</g>
	</g>
	<g transform="translate(875,420) scale(0.35,0.35)">
		<g transform="">
			<rect x="-2483.8" y="-209" width="4.9" height="4.9"/>
		</g>
	</g>
	<g transform="translate(910,420) scale(0.35,0.35)">
		<g transform="">
			<rect x="-2578.8" y="-209" width="4.9" height="4.9"/>
		</g>
	</g>
	<g transform="translate(35,455) scale(0.35,0.35)">
		<g transform="">
			<rect x="-202.1" y="-304.1" width="4.9" height="4.9"/>
		</g>
	</g>
	<g transform="translate(70,455) scale(0.35,0.35)">
		<g transform="">
			<rect x="-297.1" y="-304.1" width="4.9" height="4.9"/>
		</g>
	</g>
	<g transform="translate(105,455) scale(0.35,0.35)">
		<g transform="">
			<rect x="-392.2" y="-304.1" width="4.9" height="4.9"/>
		</g>
	</g>
	<g transform="translate(175,455) scale(0.35,0.35)">
		<g transform="">
			<rect x="-582.3" y="-304.1" width="4.9" height="4.9"/>
		</g>
	</g>
	<g transform="translate(280,455) scale(0.35,0.35)">
		<g transform="">
			<rect x="-867.6" y="-304.1" width="4.9" height="4.9"/>
		</g>
	</g>
	<g transform="translate(350,455) scale(0.35,0.35)">
		<g transform="">
			<rect x="-1057.7" y="-304.1" width="4.9" height="4.9"/>
		</g>
	</g>
	<g transform="translate(595,455) scale(0.35,0.35)">
		<g transform="">
			<rect x="-1723.2" y="-304.1" width="4.9" height="4.9"/>
		</g>
	</g>
	<g transform="translate(665,455) scale(0.35,0.35)">
		<g transform="">
			<rect x="-1913.3" y="-304.1" width="4.9" height="4.9"/>
		</g>
	</g>
	<g transform="translate(700,455) scale(0.35,0.35)">
		<g transform="">
			<rect x="-2008.4" y="-304.1" width="4.9" height="4.9"/>
		</g>
	</g>
	<g transform="translate(735,455) scale(0.35,0.35)">
		<g transform="">
			<rect x="-2103.5" y="-304.1" width="4.9" height="4.9"/>
		</g>
	</g>
	<g transform="translate(770,455) scale(0.35,0.35)">
		<g transform="">
			<rect x="-2198.5" y="-304.1" width="4.9" height="4.9"/>
		</g>
	</g>
	<g transform="translate(840,455) scale(0.35,0.35)">
		<g transform="">
			<rect x="-2388.7" y="-304.1" width="4.9" height="4.9"/>
		</g>
	</g>
	<g transform="translate(980,455) scale(0.35,0.35)">
		<g transform="">
			<rect x="-2769" y="-304.1" width="4.9" height="4.9"/>
		</g>
	</g>
	<g transform="translate(35,490) scale(0.35,0.35)">
		<g transform="">
			<rect x="-202.1" y="-399.2" width="4.9" height="4.9"/>
		</g>
	</g>
	<g transform="translate(140,490) scale(0.35,0.35)">
		<g transform="">
			<rect x="-487.3" y="-399.2" width="4.9" height="4.9"/>
		</g>
	</g>
	<g transform="translate(210,490) scale(0.35,0.35)">
		<g transform="">
			<rect x="-677.4" y="-399.2" width="4.9" height="4.9"/>
		</g>
	</g>
	<g transform="translate(280,490) scale(0.35,0.35)">
		<g transform="">
			<rect x="-867.6" y="-399.2" width="4.9" height="4.9"/>
		</g>
	</g>
	<g transform="translate(315,490) scale(0.35,0.35)">
		<g transform="">
			<rect x="-962.6" y="-399.2" width="4.9" height="4.9"/>
		</g>
	</g>
	<g transform="translate(420,490) scale(0.35,0.35)">
		<g transform="">
			<rect x="-1247.8" y="-399.2" width="4.9" height="4.9"/>
		</g>
	</g>
	<g transform="translate(525,490) scale(0.35,0.35)">
		<g transform="">
			<rect x="-1533.1" y="-399.2" width="4.9" height="4.9"/>
		</g>
	</g>
	<g transform="translate(560,490) scale(0.35,0.35)">
		<g transform="">
			<rect x="-1628.1" y="-399.2" width="4.9" height="4.9"/>
		</g>
	</g>
	<g transform="translate(630,490) scale(0.35,0.35)">
		<g transform="">
			<rect x="-1818.3" y="-399.2" width="4.9" height="4.9"/>
		</g>
	</g>
	<g transform="translate(700,490) scale(0.35,0.35)">
		<g transform="">
			<rect x="-2008.4" y="-399.2" width="4.9" height="4.9"/>
		</g>
	</g>
	<g transform="translate(770,490) scale(0.35,0.35)">
		<g transform="">
			<rect x="-2198.5" y="-399.2" width="4.9" height="4.9"/>
		</g>
	</g>
	<g transform="translate(805,490) scale(0.35,0.35)">
		<g transform="">
			<rect x="-2293.6" y="-399.2" width="4.9" height="4.9"/>
		</g>
	</g>
	<g transform="translate(840,490) scale(0.35,0.35)">
		<g transform="">
			<rect x="-2388.7" y="-399.2" width="4.9" height="4.9"/>
		</g>
	</g>
	<g transform="translate(875,490) scale(0.35,0.35)">
		<g transform="">
			<rect x="-2483.8" y="-399.2" width="4.9" height="4.9"/>
		</g>
	</g>
	<g transform="translate(910,490) scale(0.35,0.35)">
		<g transform="">
			<rect x="-2578.8" y="-399.2" width="4.9" height="4.9"/>
		</g>
	</g>
	<g transform="translate(945,490) scale(0.35,0.35)">
		<g transform="">
			<rect x="-2673.9" y="-399.2" width="4.9" height="4.9"/>
		</g>
	</g>
	<g transform="translate(0,525) scale(0.35,0.35)">
		<g transform="">
			<rect x="-107" y="-494.2" width="4.9" height="4.9"/>
		</g>
	</g>
	<g transform="translate(35,525) scale(0.35,0.35)">
		<g transform="">
			<rect x="-202.1" y="-494.2" width="4.9" height="4.9"/>
		</g>
	</g>
	<g transform="translate(70,525) scale(0.35,0.35)">
		<g transform="">
			<rect x="-297.1" y="-494.2" width="4.9" height="4.9"/>
		</g>
	</g>
	<g transform="translate(245,525) scale(0.35,0.35)">
		<g transform="">
			<rect x="-772.5" y="-494.2" width="4.9" height="4.9"/>
		</g>
	</g>
	<g transform="translate(280,525) scale(0.35,0.35)">
		<g transform="">
			<rect x="-867.6" y="-494.2" width="4.9" height="4.9"/>
		</g>
	</g>
	<g transform="translate(350,525) scale(0.35,0.35)">
		<g transform="">
			<rect x="-1057.7" y="-494.2" width="4.9" height="4.9"/>
		</g>
	</g>
	<g transform="translate(385,525) scale(0.35,0.35)">
		<g transform="">
			<rect x="-1152.8" y="-494.2" width="4.9" height="4.9"/>
		</g>
	</g>
	<g transform="translate(490,525) scale(0.35,0.35)">
		<g transform="">
			<rect x="-1438" y="-494.2" width="4.9" height="4.9"/>
		</g>
	</g>
	<g transform="translate(525,525) scale(0.35,0.35)">
		<g transform="">
			<rect x="-1533.1" y="-494.2" width="4.9" height="4.9"/>
		</g>
	</g>
	<g transform="translate(700,525) scale(0.35,0.35)">
		<g transform="">
			<rect x="-2008.4" y="-494.2" width="4.9" height="4.9"/>
		</g>
	</g>
	<g transform="translate(980,525) scale(0.35,0.35)">
		<g transform="">
			<rect x="-2769" y="-494.2" width="4.9" height="4.9"/>
		</g>
	</g>
	<g transform="translate(0,560) scale(0.35,0.35)">
		<g transform="">
			<rect x="-107" y="-589.3" width="4.9" height="4.9"/>
		</g>
	</g>
	<g transform="translate(70,560) scale(0.35,0.35)">
		<g transform="">
			<rect x="-297.1" y="-589.3" width="4.9" height="4.9"/>
		</g>
	</g>
	<g transform="translate(105,560) scale(0.35,0.35)">
		<g transform="">
			<rect x="-392.2" y="-589.3" width="4.9" height="4.9"/>
		</g>
	</g>
	<g transform="translate(210,560) scale(0.35,0.35)">
		<g transform="">
			<rect x="-677.4" y="-589.3" width="4.9" height="4.9"/>
		</g>
	</g>
	<g transform="translate(280,560) scale(0.35,0.35)">
		<g transform="">
			<rect x="-867.6" y="-589.3" width="4.9" height="4.9"/>
		</g>
	</g>
	<g transform="translate(315,560) scale(0.35,0.35)">
		<g transform="">
			<rect x="-962.6" y="-589.3" width="4.9" height="4.9"/>
		</g>
	</g>
	<g transform="translate(350,560) scale(0.35,0.35)">
		<g transform="">
			<rect x="-1057.7" y="-589.3" width="4.9" height="4.9"/>
		</g>
	</g>
	<g transform="translate(385,560) scale(0.35,0.35)">
		<g transform="">
			<rect x="-1152.8" y="-589.3" width="4.9" height="4.9"/>
		</g>
	</g>
	<g transform="translate(420,560) scale(0.35,0.35)">
		<g transform="">
			<rect x="-1247.8" y="-589.3" width="4.9" height="4.9"/>
		</g>
	</g>
	<g transform="translate(525,560) scale(0.35,0.35)">
		<g transform="">
			<rect x="-1533.1" y="-589.3" width="4.9" height="4.9"/>
		</g>
	</g>
	<g transform="translate(560,560) scale(0.35,0.35)">
		<g transform="">
			<rect x="-1628.1" y="-589.3" width="4.9" height="4.9"/>
		</g>
	</g>
	<g transform="translate(595,560) scale(0.35,0.35)">
		<g transform="">
			<rect x="-1723.2" y="-589.3" width="4.9" height="4.9"/>
		</g>
	</g>
	<g transform="translate(630,560) scale(0.35,0.35)">
		<g transform="">
			<rect x="-1818.3" y="-589.3" width="4.9" height="4.9"/>
		</g>
	</g>
	<g transform="translate(665,560) scale(0.35,0.35)">
		<g transform="">
			<rect x="-1913.3" y="-589.3" width="4.9" height="4.9"/>
		</g>
	</g>
	<g transform="translate(735,560) scale(0.35,0.35)">
		<g transform="">
			<rect x="-2103.5" y="-589.3" width="4.9" height="4.9"/>
		</g>
	</g>
	<g transform="translate(805,560) scale(0.35,0.35)">
		<g transform="">
			<rect x="-2293.6" y="-589.3" width="4.9" height="4.9"/>
		</g>
	</g>
	<g transform="translate(875,560) scale(0.35,0.35)">
		<g transform="">
			<rect x="-2483.8" y="-589.3" width="4.9" height="4.9"/>
		</g>
	</g>
	<g transform="translate(910,560) scale(0.35,0.35)">
		<g transform="">
			<rect x="-2578.8" y="-589.3" width="4.9" height="4.9"/>
		</g>
	</g>
	<g transform="translate(945,560) scale(0.35,0.35)">
		<g transform="">
			<rect x="-2673.9" y="-589.3" width="4.9" height="4.9"/>
		</g>
	</g>
	<g transform="translate(0,595) scale(0.35,0.35)">
		<g transform="">
			<rect x="-107" y="-684.4" width="4.9" height="4.9"/>
		</g>
	</g>
	<g transform="translate(35,595) scale(0.35,0.35)">
		<g transform="">
			<rect x="-202.1" y="-684.4" width="4.9" height="4.9"/>
		</g>
	</g>
	<g transform="translate(140,595) scale(0.35,0.35)">
		<g transform="">
			<rect x="-487.3" y="-684.4" width="4.9" height="4.9"/>
		</g>
	</g>
	<g transform="translate(245,595) scale(0.35,0.35)">
		<g transform="">
			<rect x="-772.5" y="-684.4" width="4.9" height="4.9"/>
		</g>
	</g>
	<g transform="translate(455,595) scale(0.35,0.35)">
		<g transform="">
			<rect x="-1342.9" y="-684.4" width="4.9" height="4.9"/>
		</g>
	</g>
	<g transform="translate(490,595) scale(0.35,0.35)">
		<g transform="">
			<rect x="-1438" y="-684.4" width="4.9" height="4.9"/>
		</g>
	</g>
	<g transform="translate(595,595) scale(0.35,0.35)">
		<g transform="">
			<rect x="-1723.2" y="-684.4" width="4.9" height="4.9"/>
		</g>
	</g>
	<g transform="translate(665,595) scale(0.35,0.35)">
		<g transform="">
			<rect x="-1913.3" y="-684.4" width="4.9" height="4.9"/>
		</g>
	</g>
	<g transform="translate(770,595) scale(0.35,0.35)">
		<g transform="">
			<rect x="-2198.5" y="-684.4" width="4.9" height="4.9"/>
		</g>
	</g>
	<g transform="translate(840,595) scale(0.35,0.35)">
		<g transform="">
			<rect x="-2388.7" y="-684.4" width="4.9" height="4.9"/>
		</g>
	</g>
	<g transform="translate(945,595) scale(0.35,0.35)">
		<g transform="">
			<rect x="-2673.9" y="-684.4" width="4.9" height="4.9"/>
		</g>
	</g>
	<g transform="translate(980,595) scale(0.35,0.35)">
		<g transform="">
			<rect x="-2769" y="-684.4" width="4.9" height="4.9"/>
		</g>
	</g>
	<g transform="translate(0,630) scale(0.35,0.35)">
		<g transform="">
			<rect x="-107" y="-779.5" width="4.9" height="4.9"/>
		</g>
	</g>
	<g transform="translate(210,630) scale(0.35,0.35)">
		<g transform="">
			<rect x="-677.4" y="-779.5" width="4.9" height="4.9"/>
		</g>
	</g>
	<g transform="translate(245,630) scale(0.35,0.35)">
		<g transform="">
			<rect x="-772.5" y="-779.5" width="4.9" height="4.9"/>
		</g>
	</g>
	<g transform="translate(315,630) scale(0.35,0.35)">
		<g transform="">
			<rect x="-962.6" y="-779.5" width="4.9" height="4.9"/>
		</g>
	</g>
	<g transform="translate(385,630) scale(0.35,0.35)">
		<g transform="">
			<rect x="-1152.8" y="-779.5" width="4.9" height="4.9"/>
		</g>
	</g>
	<g transform="translate(420,630) scale(0.35,0.35)">
		<g transform="">
			<rect x="-1247.8" y="-779.5" width="4.9" height="4.9"/>
		</g>
	</g>
	<g transform="translate(455,630) scale(0.35,0.35)">
		<g transform="">
			<rect x="-1342.9" y="-779.5" width="4.9" height="4.9"/>
		</g>
	</g>
	<g transform="translate(490,630) scale(0.35,0.35)">
		<g transform="">
			<rect x="-1438" y="-779.5" width="4.9" height="4.9"/>
		</g>
	</g>
	<g transform="translate(525,630) scale(0.35,0.35)">
		<g transform="">
			<rect x="-1533.1" y="-779.5" width="4.9" height="4.9"/>
		</g>
	</g>
	<g transform="translate(630,630) scale(0.35,0.35)">
		<g transform="">
			<rect x="-1818.3" y="-779.5" width="4.9" height="4.9"/>
		</g>
	</g>
	<g transform="translate(700,630) scale(0.35,0.35)">
		<g transform="">
			<rect x="-2008.4" y="-779.5" width="4.9" height="4.9"/>
		</g>
	</g>
	<g transform="translate(840,630) scale(0.35,0.35)">
		<g transform="">
			<rect x="-2388.7" y="-779.5" width="4.9" height="4.9"/>
		</g>
	</g>
	<g transform="translate(875,630) scale(0.35,0.35)">
		<g transform="">
			<rect x="-2483.8" y="-779.5" width="4.9" height="4.9"/>
		</g>
	</g>
	<g transform="translate(910,630) scale(0.35,0.35)">
		<g transform="">
			<rect x="-2578.8" y="-779.5" width="4.9" height="4.9"/>
		</g>
	</g>
	<g transform="translate(0,665) scale(0.35,0.35)">
		<g transform="">
			<rect x="-107" y="-874.5" width="4.9" height="4.9"/>
		</g>
	</g>
	<g transform="translate(105,665) scale(0.35,0.35)">
		<g transform="">
			<rect x="-392.2" y="-874.5" width="4.9" height="4.9"/>
		</g>
	</g>
	<g transform="translate(280,665) scale(0.35,0.35)">
		<g transform="">
			<rect x="-867.6" y="-874.5" width="4.9" height="4.9"/>
		</g>
	</g>
	<g transform="translate(385,665) scale(0.35,0.35)">
		<g transform="">
			<rect x="-1152.8" y="-874.5" width="4.9" height="4.9"/>
		</g>
	</g>
	<g transform="translate(455,665) scale(0.35,0.35)">
		<g transform="">
			<rect x="-1342.9" y="-874.5" width="4.9" height="4.9"/>
		</g>
	</g>
	<g transform="translate(700,665) scale(0.35,0.35)">
		<g transform="">
			<rect x="-2008.4" y="-874.5" width="4.9" height="4.9"/>
		</g>
	</g>
	<g transform="translate(735,665) scale(0.35,0.35)">
		<g transform="">
			<rect x="-2103.5" y="-874.5" width="4.9" height="4.9"/>
		</g>
	</g>
	<g transform="translate(840,665) scale(0.35,0.35)">
		<g transform="">
			<rect x="-2388.7" y="-874.5" width="4.9" height="4.9"/>
		</g>
	</g>
	<g transform="translate(875,665) scale(0.35,0.35)">
		<g transform="">
			<rect x="-2483.8" y="-874.5" width="4.9" height="4.9"/>
		</g>
	</g>
	<g transform="translate(0,700) scale(0.35,0.35)">
		<g transform="">
			<rect x="-107" y="-969.6" width="4.9" height="4.9"/>
		</g>
	</g>
	<g transform="translate(70,700) scale(0.35,0.35)">
		<g transform="">
			<rect x="-297.1" y="-969.6" width="4.9" height="4.9"/>
		</g>
	</g>
	<g transform="translate(105,700) scale(0.35,0.35)">
		<g transform="">
			<rect x="-392.2" y="-969.6" width="4.9" height="4.9"/>
		</g>
	</g>
	<g transform="translate(140,700) scale(0.35,0.35)">
		<g transform="">
			<rect x="-487.3" y="-969.6" width="4.9" height="4.9"/>
		</g>
	</g>
	<g transform="translate(175,700) scale(0.35,0.35)">
		<g transform="">
			<rect x="-582.3" y="-969.6" width="4.9" height="4.9"/>
		</g>
	</g>
	<g transform="translate(210,700) scale(0.35,0.35)">
		<g transform="">
			<rect x="-677.4" y="-969.6" width="4.9" height="4.9"/>
		</g>
	</g>
	<g transform="translate(315,700) scale(0.35,0.35)">
		<g transform="">
			<rect x="-962.6" y="-969.6" width="4.9" height="4.9"/>
		</g>
	</g>
	<g transform="translate(350,700) scale(0.35,0.35)">
		<g transform="">
			<rect x="-1057.7" y="-969.6" width="4.9" height="4.9"/>
		</g>
	</g>
	<g transform="translate(420,700) scale(0.35,0.35)">
		<g transform="">
			<rect x="-1247.8" y="-969.6" width="4.9" height="4.9"/>
		</g>
	</g>
	<g transform="translate(490,700) scale(0.35,0.35)">
		<g transform="">
			<rect x="-1438" y="-969.6" width="4.9" height="4.9"/>
		</g>
	</g>
	<g transform="translate(525,700) scale(0.35,0.35)">
		<g transform="">
			<rect x="-1533.1" y="-969.6" width="4.9" height="4.9"/>
		</g>
	</g>
	<g transform="translate(595,700) scale(0.35,0.35)">
		<g transform="">
			<rect x="-1723.2" y="-969.6" width="4.9" height="4.9"/>
		</g>
	</g>
	<g transform="translate(630,700) scale(0.35,0.35)">
		<g transform="">
			<rect x="-1818.3" y="-969.6" width="4.9" height="4.9"/>
		</g>
	</g>
	<g transform="translate(700,700) scale(0.35,0.35)">
		<g transform="">
			<rect x="-2008.4" y="-969.6" width="4.9" height="4.9"/>
		</g>
	</g>
	<g transform="translate(735,700) scale(0.35,0.35)">
		<g transform="">
			<rect x="-2103.5" y="-969.6" width="4.9" height="4.9"/>
		</g>
	</g>
	<g transform="translate(770,700) scale(0.35,0.35)">
		<g transform="">
			<rect x="-2198.5" y="-969.6" width="4.9" height="4.9"/>
		</g>
	</g>
	<g transform="translate(805,700) scale(0.35,0.35)">
		<g transform="">
			<rect x="-2293.6" y="-969.6" width="4.9" height="4.9"/>
		</g>
	</g>
	<g transform="translate(840,700) scale(0.35,0.35)">
		<g transform="">
			<rect x="-2388.7" y="-969.6" width="4.9" height="4.9"/>
		</g>
	</g>
	<g transform="translate(910,700) scale(0.35,0.35)">
		<g transform="">
			<rect x="-2578.8" y="-969.6" width="4.9" height="4.9"/>
		</g>
	</g>
	<g transform="translate(280,735) scale(0.35,0.35)">
		<g transform="">
			<rect x="-867.6" y="-1064.7" width="4.9" height="4.9"/>
		</g>
	</g>
	<g transform="translate(315,735) scale(0.35,0.35)">
		<g transform="">
			<rect x="-962.6" y="-1064.7" width="4.9" height="4.9"/>
		</g>
	</g>
	<g transform="translate(420,735) scale(0.35,0.35)">
		<g transform="">
			<rect x="-1247.8" y="-1064.7" width="4.9" height="4.9"/>
		</g>
	</g>
	<g transform="translate(560,735) scale(0.35,0.35)">
		<g transform="">
			<rect x="-1628.1" y="-1064.7" width="4.9" height="4.9"/>
		</g>
	</g>
	<g transform="translate(700,735) scale(0.35,0.35)">
		<g transform="">
			<rect x="-2008.4" y="-1064.7" width="4.9" height="4.9"/>
		</g>
	</g>
	<g transform="translate(840,735) scale(0.35,0.35)">
		<g transform="">
			<rect x="-2388.7" y="-1064.7" width="4.9" height="4.9"/>
		</g>
	</g>
	<g transform="translate(945,735) scale(0.35,0.35)">
		<g transform="">
			<rect x="-2673.9" y="-1064.7" width="4.9" height="4.9"/>
		</g>
	</g>
	<g transform="translate(980,735) scale(0.35,0.35)">
		<g transform="">
			<rect x="-2769" y="-1064.7" width="4.9" height="4.9"/>
		</g>
	</g>
	<g transform="translate(385,770) scale(0.35,0.35)">
		<g transform="">
			<rect x="-1152.8" y="-1159.7" width="4.9" height="4.9"/>
		</g>
	</g>
	<g transform="translate(525,770) scale(0.35,0.35)">
		<g transform="">
			<rect x="-1533.1" y="-1159.7" width="4.9" height="4.9"/>
		</g>
	</g>
	<g transform="translate(630,770) scale(0.35,0.35)">
		<g transform="">
			<rect x="-1818.3" y="-1159.7" width="4.9" height="4.9"/>
		</g>
	</g>
	<g transform="translate(665,770) scale(0.35,0.35)">
		<g transform="">
			<rect x="-1913.3" y="-1159.7" width="4.9" height="4.9"/>
		</g>
	</g>
	<g transform="translate(700,770) scale(0.35,0.35)">
		<g transform="">
			<rect x="-2008.4" y="-1159.7" width="4.9" height="4.9"/>
		</g>
	</g>
	<g transform="translate(770,770) scale(0.35,0.35)">
		<g transform="">
			<rect x="-2198.5" y="-1159.7" width="4.9" height="4.9"/>
		</g>
	</g>
	<g transform="translate(840,770) scale(0.35,0.35)">
		<g transform="">
			<rect x="-2388.7" y="-1159.7" width="4.9" height="4.9"/>
		</g>
	</g>
	<g transform="translate(910,770) scale(0.35,0.35)">
		<g transform="">
			<rect x="-2578.8" y="-1159.7" width="4.9" height="4.9"/>
		</g>
	</g>
	<g transform="translate(280,805) scale(0.35,0.35)">
		<g transform="">
			<rect x="-867.6" y="-1254.8" width="4.9" height="4.9"/>
		</g>
	</g>
	<g transform="translate(315,805) scale(0.35,0.35)">
		<g transform="">
			<rect x="-962.6" y="-1254.8" width="4.9" height="4.9"/>
		</g>
	</g>
	<g transform="translate(350,805) scale(0.35,0.35)">
		<g transform="">
			<rect x="-1057.7" y="-1254.8" width="4.9" height="4.9"/>
		</g>
	</g>
	<g transform="translate(490,805) scale(0.35,0.35)">
		<g transform="">
			<rect x="-1438" y="-1254.8" width="4.9" height="4.9"/>
		</g>
	</g>
	<g transform="translate(525,805) scale(0.35,0.35)">
		<g transform="">
			<rect x="-1533.1" y="-1254.8" width="4.9" height="4.9"/>
		</g>
	</g>
	<g transform="translate(665,805) scale(0.35,0.35)">
		<g transform="">
			<rect x="-1913.3" y="-1254.8" width="4.9" height="4.9"/>
		</g>
	</g>
	<g transform="translate(700,805) scale(0.35,0.35)">
		<g transform="">
			<rect x="-2008.4" y="-1254.8" width="4.9" height="4.9"/>
		</g>
	</g>
	<g transform="translate(840,805) scale(0.35,0.35)">
		<g transform="">
			<rect x="-2388.7" y="-1254.8" width="4.9" height="4.9"/>
		</g>
	</g>
	<g transform="translate(945,805) scale(0.35,0.35)">
		<g transform="">
			<rect x="-2673.9" y="-1254.8" width="4.9" height="4.9"/>
		</g>
	</g>
	<g transform="translate(280,840) scale(0.35,0.35)">
		<g transform="">
			<rect x="-867.6" y="-1349.9" width="4.9" height="4.9"/>
		</g>
	</g>
	<g transform="translate(560,840) scale(0.35,0.35)">
		<g transform="">
			<rect x="-1628.1" y="-1349.9" width="4.9" height="4.9"/>
		</g>
	</g>
	<g transform="translate(595,840) scale(0.35,0.35)">
		<g transform="">
			<rect x="-1723.2" y="-1349.9" width="4.9" height="4.9"/>
		</g>
	</g>
	<g transform="translate(700,840) scale(0.35,0.35)">
		<g transform="">
			<rect x="-2008.4" y="-1349.9" width="4.9" height="4.9"/>
		</g>
	</g>
	<g transform="translate(735,840) scale(0.35,0.35)">
		<g transform="">
			<rect x="-2103.5" y="-1349.9" width="4.9" height="4.9"/>
		</g>
	</g>
	<g transform="translate(770,840) scale(0.35,0.35)">
		<g transform="">
			<rect x="-2198.5" y="-1349.9" width="4.9" height="4.9"/>
		</g>
	</g>
	<g transform="translate(805,840) scale(0.35,0.35)">
		<g transform="">
			<rect x="-2293.6" y="-1349.9" width="4.9" height="4.9"/>
		</g>
	</g>
	<g transform="translate(840,840) scale(0.35,0.35)">
		<g transform="">
			<rect x="-2388.7" y="-1349.9" width="4.9" height="4.9"/>
		</g>
	</g>
	<g transform="translate(875,840) scale(0.35,0.35)">
		<g transform="">
			<rect x="-2483.8" y="-1349.9" width="4.9" height="4.9"/>
		</g>
	</g>
	<g transform="translate(910,840) scale(0.35,0.35)">
		<g transform="">
			<rect x="-2578.8" y="-1349.9" width="4.9" height="4.9"/>
		</g>
	</g>
	<g transform="translate(280,875) scale(0.35,0.35)">
		<g transform="">
			<rect x="-867.6" y="-1445" width="4.9" height="4.9"/>
		</g>
	</g>
	<g transform="translate(350,875) scale(0.35,0.35)">
		<g transform="">
			<rect x="-1057.7" y="-1445" width="4.9" height="4.9"/>
		</g>
	</g>
	<g transform="translate(385,875) scale(0.35,0.35)">
		<g transform="">
			<rect x="-1152.8" y="-1445" width="4.9" height="4.9"/>
		</g>
	</g>
	<g transform="translate(420,875) scale(0.35,0.35)">
		<g transform="">
			<rect x="-1247.8" y="-1445" width="4.9" height="4.9"/>
		</g>
	</g>
	<g transform="translate(455,875) scale(0.35,0.35)">
		<g transform="">
			<rect x="-1342.9" y="-1445" width="4.9" height="4.9"/>
		</g>
	</g>
	<g transform="translate(490,875) scale(0.35,0.35)">
		<g transform="">
			<rect x="-1438" y="-1445" width="4.9" height="4.9"/>
		</g>
	</g>
	<g transform="translate(630,875) scale(0.35,0.35)">
		<g transform="">
			<rect x="-1818.3" y="-1445" width="4.9" height="4.9"/>
		</g>
	</g>
	<g transform="translate(665,875) scale(0.35,0.35)">
		<g transform="">
			<rect x="-1913.3" y="-1445" width="4.9" height="4.9"/>
		</g>
	</g>
	<g transform="translate(805,875) scale(0.35,0.35)">
		<g transform="">
			<rect x="-2293.6" y="-1445" width="4.9" height="4.9"/>
		</g>
	</g>
	<g transform="translate(910,875) scale(0.35,0.35)">
		<g transform="">
			<rect x="-2578.8" y="-1445" width="4.9" height="4.9"/>
		</g>
	</g>
	<g transform="translate(945,875) scale(0.35,0.35)">
		<g transform="">
			<rect x="-2673.9" y="-1445" width="4.9" height="4.9"/>
		</g>
	</g>
	<g transform="translate(980,875) scale(0.35,0.35)">
		<g transform="">
			<rect x="-2769" y="-1445" width="4.9" height="4.9"/>
		</g>
	</g>
	<g transform="translate(280,910) scale(0.35,0.35)">
		<g transform="">
			<rect x="-867.6" y="-1540" width="4.9" height="4.9"/>
		</g>
	</g>
	<g transform="translate(315,910) scale(0.35,0.35)">
		<g transform="">
			<rect x="-962.6" y="-1540" width="4.9" height="4.9"/>
		</g>
	</g>
	<g transform="translate(350,910) scale(0.35,0.35)">
		<g transform="">
			<rect x="-1057.7" y="-1540" width="4.9" height="4.9"/>
		</g>
	</g>
	<g transform="translate(420,910) scale(0.35,0.35)">
		<g transform="">
			<rect x="-1247.8" y="-1540" width="4.9" height="4.9"/>
		</g>
	</g>
	<g transform="translate(455,910) scale(0.35,0.35)">
		<g transform="">
			<rect x="-1342.9" y="-1540" width="4.9" height="4.9"/>
		</g>
	</g>
	<g transform="translate(525,910) scale(0.35,0.35)">
		<g transform="">
			<rect x="-1533.1" y="-1540" width="4.9" height="4.9"/>
		</g>
	</g>
	<g transform="translate(630,910) scale(0.35,0.35)">
		<g transform="">
			<rect x="-1818.3" y="-1540" width="4.9" height="4.9"/>
		</g>
	</g>
	<g transform="translate(735,910) scale(0.35,0.35)">
		<g transform="">
			<rect x="-2103.5" y="-1540" width="4.9" height="4.9"/>
		</g>
	</g>
	<g transform="translate(770,910) scale(0.35,0.35)">
		<g transform="">
			<rect x="-2198.5" y="-1540" width="4.9" height="4.9"/>
		</g>
	</g>
	<g transform="translate(840,910) scale(0.35,0.35)">
		<g transform="">
			<rect x="-2388.7" y="-1540" width="4.9" height="4.9"/>
		</g>
	</g>
	<g transform="translate(945,910) scale(0.35,0.35)">
		<g transform="">
			<rect x="-2673.9" y="-1540" width="4.9" height="4.9"/>
		</g>
	</g>
	<g transform="translate(315,945) scale(0.35,0.35)">
		<g transform="">
			<rect x="-962.6" y="-1635.1" width="4.9" height="4.9"/>
		</g>
	</g>
	<g transform="translate(420,945) scale(0.35,0.35)">
		<g transform="">
			<rect x="-1247.8" y="-1635.1" width="4.9" height="4.9"/>
		</g>
	</g>
	<g transform="translate(525,945) scale(0.35,0.35)">
		<g transform="">
			<rect x="-1533.1" y="-1635.1" width="4.9" height="4.9"/>
		</g>
	</g>
	<g transform="translate(560,945) scale(0.35,0.35)">
		<g transform="">
			<rect x="-1628.1" y="-1635.1" width="4.9" height="4.9"/>
		</g>
	</g>
	<g transform="translate(665,945) scale(0.35,0.35)">
		<g transform="">
			<rect x="-1913.3" y="-1635.1" width="4.9" height="4.9"/>
		</g>
	</g>
	<g transform="translate(700,945) scale(0.35,0.35)">
		<g transform="">
			<rect x="-2008.4" y="-1635.1" width="4.9" height="4.9"/>
		</g>
	</g>
	<g transform="translate(805,945) scale(0.35,0.35)">
		<g transform="">
			<rect x="-2293.6" y="-1635.1" width="4.9" height="4.9"/>
		</g>
	</g>
	<g transform="translate(840,945) scale(0.35,0.35)">
		<g transform="">
			<rect x="-2388.7" y="-1635.1" width="4.9" height="4.9"/>
		</g>
	</g>
	<g transform="translate(945,945) scale(0.35,0.35)">
		<g transform="">
			<rect x="-2673.9" y="-1635.1" width="4.9" height="4.9"/>
		</g>
	</g>
	<g transform="translate(280,980) scale(0.35,0.35)">
		<g transform="">
			<rect x="-867.6" y="-1730.2" width="4.9" height="4.9"/>
		</g>
	</g>
	<g transform="translate(315,980) scale(0.35,0.35)">
		<g transform="">
			<rect x="-962.6" y="-1730.2" width="4.9" height="4.9"/>
		</g>
	</g>
	<g transform="translate(350,980) scale(0.35,0.35)">
		<g transform="">
			<rect x="-1057.7" y="-1730.2" width="4.9" height="4.9"/>
		</g>
	</g>
	<g transform="translate(420,980) scale(0.35,0.35)">
		<g transform="">
			<rect x="-1247.8" y="-1730.2" width="4.9" height="4.9"/>
		</g>
	</g>
	<g transform="translate(455,980) scale(0.35,0.35)">
		<g transform="">
			<rect x="-1342.9" y="-1730.2" width="4.9" height="4.9"/>
		</g>
	</g>
	<g transform="translate(490,980) scale(0.35,0.35)">
		<g transform="">
			<rect x="-1438" y="-1730.2" width="4.9" height="4.9"/>
		</g>
	</g>
	<g transform="translate(525,980) scale(0.35,0.35)">
		<g transform="">
			<rect x="-1533.1" y="-1730.2" width="4.9" height="4.9"/>
		</g>
	</g>
	<g transform="translate(595,980) scale(0.35,0.35)">
		<g transform="">
			<rect x="-1723.2" y="-1730.2" width="4.9" height="4.9"/>
		</g>
	</g>
	<g transform="translate(735,980) scale(0.35,0.35)">
		<g transform="">
			<rect x="-2103.5" y="-1730.2" width="4.9" height="4.9"/>
		</g>
	</g>
	<g transform="translate(770,980) scale(0.35,0.35)">
		<g transform="">
			<rect x="-2198.5" y="-1730.2" width="4.9" height="4.9"/>
		</g>
	</g>
	<g transform="translate(805,980) scale(0.35,0.35)">
		<g transform="">
			<rect x="-2293.6" y="-1730.2" width="4.9" height="4.9"/>
		</g>
	</g>
	<g transform="translate(910,980) scale(0.35,0.35)">
		<g transform="">
			<rect x="-2578.8" y="-1730.2" width="4.9" height="4.9"/>
		</g>
	</g>
	<g transform="translate(0,0) scale(2.45, 2.45)">
		<g transform="">
			<g>
				<rect x="-14.5" y="133.9" class="st5" width="3.5" height="3.5"/>
				<path d="M-11.1,133.1h-3.5h-0.7v0.7v3.5v0.7h0.7h3.5h0.7v-0.7v-3.5v-0.7H-11.1z M-11.1,137.3h-3.5v-3.5h3.5V137.3z"/>
			</g>
		</g>
	</g>
	<g transform="translate(770,0) scale(2.45, 2.45)">
		<g transform="">
			<g>
				<rect x="-313.3" y="133.9" class="st5" width="3.5" height="3.5"/>
				<path d="M-309.9,133.1h-3.5h-0.7v0.7v3.5v0.7h0.7h3.5h0.7v-0.7v-3.5v-0.7H-309.9z M-309.9,137.3h-3.5v-3.5h3.5V137.3z"/>
			</g>
		</g>
	</g>
	<g transform="translate(0,770) scale(2.45, 2.45)">
		<g transform="">
			<g>
				<rect x="-14.5" y="-164.9" class="st5" width="3.5" height="3.5"/>
				<path d="M-11.1-165.7h-3.5h-0.7v0.7v3.5v0.7h0.7h3.5h0.7v-0.7v-3.5v-0.7H-11.1z M-11.1-161.5h-3.5v-3.5h3.5V-161.5z"/>
			</g>
		</g>
	</g>
	<g transform="translate(70,70) scale(1.05, 1.05)">
		<g transform="">
			<rect x="-99" y="247.2" width="4.9" height="4.9"/>
		</g>
	</g>
	<g transform="translate(840,70) scale(1.05, 1.05)">
		<g transform="">
			<rect x="-796.2" y="247.2" width="4.9" height="4.9"/>
		</g>
	</g>
	<g transform="translate(70,840) scale(1.05, 1.05)">
		<g transform="">
			<rect x="-99" y="-450" width="4.9" height="4.9"/>
		</g>
	</g>
</g>
<text id="address_x5F_area" transform="matrix(1 0 0 1 267.9996 311.543)"><tspan x="0" y="0" class="st2 st3">Returning Officer</tspan><tspan x="0" y="15" class="st2 st3">Constituency No:185</tspan><tspan x="0" y="30" class="st2 st3">Constituency Name:185 - Dhaka-13</tspan><tspan x="0" y="45" class="st2 st3">Post Office:DHAKA Head Post Office</tspan><tspan x="0" y="60" class="st2 st3">Post Code:1000</tspan><tspan x="0" y="75" class="st2 st3">District:DHAKA</tspan><tspan x="0" y="90" class="st6 st7">BANGLADESH</tspan></text>
<text transform="matrix(1 0 0 1 268 294.543)" class="st6 st3">To:</text>
<g id="ec_x5F_logo">
	
		<g id="g568_00000111172893608114882650000011054330967017019800_" transform="matrix(1.3333333,0,0,-1.3333333,42.437965,25.345745)">
		<path id="path570_00000081617772959470789250000000646548319228558519_" d="M173.7-92.5l-14.7,2.7l8.4,3.8l2.5-0.4l-0.1-0.4
			l-2.3,0.4l-7-3.1l13.2-2.4l7,3.2l-6.8,1.3l0.1,0.4l8.2-1.5L173.7-92.5z"/>
	</g>
	
		<g id="g572_00000005229599968648475220000011940468505386761102_" transform="matrix(1.3333333,0,0,-1.3333333,41.915825,23.360845)">
		<path id="path574_00000004545050578784665560000018371573516427006871_" d="M173.8-92.8l-11.6,2l5.5,2.5l2-0.4l-0.1-0.4l-1.8,0.4
			l-4.1-1.9l10-1.7l4.3,1.9l-4.2,0.8l0.1,0.4l5.6-1.1L173.8-92.8z"/>
	</g>
	<g id="g578_00000143608980614568409050000015207168779873649064_">
		<g id="g584_00000072975473350072076520000016227976911369395841_" transform="translate(129.2291,121.3944)">
			<path id="path586_00000173146223171499402000000013552960417573705144_" d="M144.8,24.2c-0.3,0-0.6,0-0.6,0l0,0L134,22.7l0.1-0.6
				l10.2,1.5c0.9,0.1,2.4,0,2.7-0.5c0-0.1,0.1-0.2,0-0.5l-2.9-0.6l0.1-0.6l3.2,0.7l0.1,0.1c0.3,0.6,0.2,1,0,1.2
				C147,24.1,145.6,24.2,144.8,24.2"/>
		</g>
	</g>
	
		<g id="g588_00000155845537656336886920000000327321787327968954_" transform="matrix(1.3333333,0,0,-1.3333333,42.305425,20.155245)">
		<path id="path590_00000068664144859442464520000017864009761090345126_" d="M173.7-93.4l-6,1.1l0.1,0.4l6-1.1L173.7-93.4z"/>
	</g>
	
		<g id="g592_00000052812719639768759120000000131351284137166224_" transform="matrix(1.3333333,0,0,-1.3333333,41.125825,19.800745)">
		<path id="path594_00000172408041973754303450000013914739789287855753_" d="M173.9-93.4l-0.4,0.2l1.4,2.2l-2.4,0.6l-1.8-2.4
			l-0.4,0.2l1.9,2.7l3.4-0.9L173.9-93.4z"/>
	</g>
	
		<g id="g596_00000038408805132567936600000008187843478601235128_" transform="matrix(1.3333333,0,0,-1.3333333,34.099425,18.261645)">
		<path id="path598_00000124857024352229796630000003632035964046129585_" d="M175.1-93.7l-0.4,0.3l2.6,3.3l3.7-0.8l-0.7-1.1
			l-0.4,0.2l0.4,0.5l-2.7,0.6L175.1-93.7z"/>
	</g>
	
		<g id="g600_00000026871572252583011450000012267199931466103968_" transform="matrix(1.3333333,0,0,-1.3333333,42.889565,48.618745)">
		<path id="path602_00000034808330465538371420000004412633303580374942_" d="M173.6-88.5l-14.8,2.2v14h0.6v-13.6l13.6-2v13h0.6
			V-88.5z"/>
	</g>
	
		<g id="g604_00000171680440332926123970000013452439018318983359_" transform="matrix(1.3333333,0,0,-1.3333333,42.565165,48.472545)">
		<path id="path606_00000085221743973910164660000018254548250168568722_" d="M173.7-88.5l-0.2,0.4l7.8,3.2l0,13.5h0.5l0-13.8
			L173.7-88.5z"/>
	</g>
	
		<g id="g612_00000116925601890010147960000005849031090989243049_" transform="matrix(1.3333333,0,0,-1.3333333,50.115695,7.8007453)">
		<path id="path614_00000128483139387663947370000010026181628479490955_" d="M172.4-95.5h-1.6l-3.2,3.4l3.4,0.3l1.5-1.5l-0.3-0.3
			l-1.3,1.4l-2.2-0.2L171-95h1.3V-95.5z"/>
	</g>
	
		<g id="g620_00000013188806515402679150000005626305577681696937_" transform="matrix(1.3333333,0,0,-1.3333333,54.566625,11.119345)">
		<path id="path622_00000049210629357443796690000014565493931090144934_" d="M171.6-94.9h-1.8l-2,4.1l3.5,0.2l1.2-2.5l-0.4-0.2
			l-1.1,2.2l-2.5-0.1l1.5-3.3h1.5V-94.9z"/>
	</g>
	
		<g id="g628_00000120536405649963587740000009062658693209099187_" transform="matrix(1.3333333,0,0,-1.3333333,58.905565,16.305645)">
		<path id="path630_00000098910438764322867600000012423460619026707126_" d="M170.9-94h-1.7l-1.5,4.7l3.5,0.2l0.8-2.4l-0.4-0.1
			l-0.7,2.1l-2.6-0.2l1.2-3.9h1.4V-94z"/>
	</g>
	
		<g id="g636_00000038407275919428197900000008866518768557053628_" transform="matrix(1.3333333,0,0,-1.3333333,62.764495,20.162545)">
		<path id="path638_00000066501179877212580370000014838156176105183161_" d="M170.2-93.4h-2.1l-0.8,4.9h3.7l0.4-3.2l-0.5-0.1
			l-0.4,2.8h-2.7l0.6-4h1.7V-93.4z"/>
	</g>
	
		<g id="g644_00000104682162695876532740000009588929184830822548_" transform="matrix(1.3333333,0,0,-1.3333333,66.199025,25.532445)">
		<path id="path646_00000071553833292581350160000001808755438092516526_" d="M169.6-92.4h-2.2v5l3.8-0.1v-3.9h-0.5v3.5l-2.8,0.1
			V-92h1.7V-92.4z"/>
	</g>
	
		<g id="g652_00000151524877377459335310000001398066848138316946_" transform="matrix(1.3333333,0,0,-1.3333333,66.045295,32.382345)">
		<path id="path654_00000127727514245007542310000015265395473020094389_" d="M169.6-91.3l-1.6,0.7l2.1,5l3.1-1.4l-1-3l-0.4,0.1
			l0.9,2.6l-2.3,1.1l-1.7-4.1l1.2-0.5L169.6-91.3z"/>
	</g>
	
		<g id="g660_00000142146033642393216950000013908909286759925658_" transform="matrix(1.3333333,0,0,-1.3333333,64.385565,38.731245)">
		<path id="path662_00000054985170697116627630000009960209841675568024_" d="M169.9-90.2l-1.3,1.1l3.7,4.8l3-2.2l-2.2-3.3l-0.4,0.2
			l2,3l-2.2,1.7l-3.2-4.1l1-0.9L169.9-90.2z"/>
	</g>
	
		<g id="g668_00000060740451892244109050000004985950703580962945_" transform="matrix(1.3333333,0,0,-1.3333333,67.186365,46.385945)">
		<path id="path670_00000062913328292207922060000008654798779468284085_" d="M169.4-88.9l-0.3,0.3l2.9,3l-2.4,2.4l-4.1-3.9l0.7-0.7
			l-0.3-0.3l-1,1l4.8,4.5l3-3L169.4-88.9z"/>
	</g>
	
		<g id="g676_00000112626713628002055980000015918806033216595855_" transform="matrix(1.3333333,0,0,-1.3333333,61.988095,53.067745)">
		<path id="path678_00000064352684413515063780000014284387819969979307_" d="M170.3-87.7l-0.3,0.4l3.6,2.2l-1.8,2.8l-5.8-2.6
			l1.1-1.5l-0.4-0.3l-1.4,1.9l6.7,3l2.3-3.6L170.3-87.7z"/>
	</g>
	
		<g id="g684_00000109030525295313252120000007884673178407334815_" transform="matrix(1.3333333,0,0,-1.3333333,52.302495,60.962945)">
		<path id="path686_00000096059724555965067160000000711143478375963060_" d="M172-86.4l-2.6,4.3l7,2.6l2.7-4.2L172-86.4z
			 M170.1-82.3l2.1-3.5l6.2,2.3l-2.2,3.4L170.1-82.3z"/>
	</g>
	<g id="g696_00000072995803669447597740000012164082581503320980_" transform="translate(100.6742,82.2841)">
		<path id="path698_00000085246318234579027890000009843883305619867271_" d="M144,103.6l1.9-5.7l-3.9-2.5l0.5-0.2
			c0.2-0.1,5.5-2.2,9.6-2.4l0.2,0l1.1,2.4l-0.6,0.2l-0.9-2c-3.3,0.2-7.3,1.6-8.7,2.1l3.3,2.1l-1.7,5l7.1-2.2l0.2,0.6L144,103.6z"/>
	</g>
	<g id="g704_00000081644855452091299310000015047171869043957149_" transform="translate(109.1475,81.2645)">
		<path id="path706_00000176750841754307059260000005639200652073868176_" d="M144.2,105.7l-2-9l0.3-0.1c0.1,0,6.2-1.9,18.4-2.1
			c7.6-0.1,13,0.7,16,1.4c1.7,0.4,2.6,0.7,2.6,0.7l0.3,0.1l-2.6,9l-0.3-0.1c-0.1,0-8.2-2-16-2c-7.8,0-16.2,1.9-16.3,2L144.2,105.7z
			 M160.8,103c7.1,0,14.3,1.6,15.9,1.9L179,97c-0.4-0.1-1.1-0.3-2.3-0.6c-3-0.7-8.3-1.5-15.9-1.4c-10.7,0.1-16.6,1.6-17.9,2l1.8,7.9
			C146.3,104.6,153.8,103,160.8,103"/>
	</g>
	<g id="g708_00000119108208051766367180000000637510486438205077_" transform="translate(149.9166,82.3285)">
		<path id="path710_00000050637465006363955860000016054533287339327893_" d="M145.4,103.5l-0.6-0.2c-3.4-1-7.2-2-7.7-2h0l0-0.6
			c0.6,0,5.3,1.3,7.3,1.9l-2-4.8l4-2.2c-1.6-0.5-6-1.5-9.1-2.1l-0.8,1.8l-0.6-0.2l1-2.3l0.3,0.1c0.9,0.2,9,1.8,10,2.4l0.4,0.3
			l-4.5,2.5L145.4,103.5z"/>
	</g>
	
		<g id="g712_00000078016529707716046640000010590214286277328306_" transform="matrix(1.3333333,0,0,-1.3333333,60.872095,63.748445)">
		<path id="path714_00000125595863087128100390000014706800897864202929_" d="M170.5-85.9l-1.2,2l0.4,0.2l1.2-2L170.5-85.9z"/>
	</g>
	
		<g id="g716_00000122716373664281826580000013756937068279862943_" transform="matrix(1.3333333,0,0,-1.3333333,13.925295,63.712145)">
		<path id="path718_00000007399952670626355080000008831517884404458912_" d="M178.6-85.9l-0.4,0.2l0.9,2l0.4-0.2L178.6-85.9z"/>
	</g>
	<g id="g722_00000070078302352107946670000011937686806693790084_">
		<g id="g728_00000096048751960564887210000001571958578972339109_" transform="translate(117.375,88.6808)">
			<path id="path730_00000180335054719698761600000007839332798257545640_" d="M144.5,90.6l-0.9,0.1l0.4,3.7
				c-0.1-0.1-0.1-0.1-0.2-0.2c0-0.1-0.1-0.2-0.2-0.3c-0.2-0.3-0.5-0.5-0.8-0.7c-0.3-0.2-0.7-0.2-1.1-0.2l-0.6-0.6
				c0.7-0.6,1.4-1,2.1-1.3l0-0.2l-2.4,0.3l-0.4-0.3l3.7-0.4L144.5,90.6z M143.5,93.4l-0.2-1.9c-0.4,0.2-0.9,0.5-1.4,0.9
				C142.6,92.6,143.1,93,143.5,93.4"/>
		</g>
		<g id="g732_00000088119661696385555230000014587867674464177549_" transform="translate(119.1349,88.7896)">
			<path id="path734_00000026877600499903207100000005204372977792740744_" d="M144.5,90.4l-0.9,0.1l0.3,3.8l-0.4-0.3l-0.2-2.7
				c0-0.2-0.1-0.4-0.3-0.5c-0.2-0.1-0.4-0.2-0.6-0.1l-0.4-0.3c0.1,0,0.2,0,0.3,0c0.3,0,0.6,0,0.7,0.2c0.1,0.1,0.2,0.3,0.4,0.7
				c-0.1-0.5-0.2-1-0.3-1.6l0.2,0.1c0,0.2,0.1,0.4,0.3,0.5l0.6,0L144.5,90.4z"/>
		</g>
		<g id="g736_00000090975726999890441380000008601722024276304565_" transform="translate(120.9331,88.2227)">
			<path id="path738_00000062914745018589387750000004740084176438126989_" d="M144.6,91.5c0,0.2,0,0.3-0.1,0.5
				c-0.1,0.2-0.2,0.3-0.4,0.3c-0.1,0-0.1,0-0.3,0c-0.2,0-0.4-0.1-0.6-0.2c-0.2-0.2-0.3-0.4-0.3-0.6c0-0.2,0.1-0.4,0.2-0.6
				c0.2-0.2,0.3-0.3,0.6-0.3c0.2,0,0.4,0.1,0.6,0.2C144.5,91.1,144.6,91.3,144.6,91.5 M145.4,94.9c-0.6-0.5-1.4-1-2.2-1.5l0-0.8
				c0.6,0.4,1.3,1.1,2.2,2L145.4,94.9z M144.2,91.4c0-0.2-0.1-0.3-0.3-0.3c-0.2,0-0.3,0.1-0.4,0.2c-0.1,0.2-0.2,0.3-0.2,0.5
				c0,0.2,0.1,0.3,0.2,0.3c0.1,0,0.2-0.1,0.4-0.2c0.1-0.1,0.2-0.2,0.3-0.3C144.2,91.6,144.2,91.5,144.2,91.4"/>
		</g>
		<g id="g740_00000031929916248944173330000014452031691303308199_" transform="translate(125.6802,88.9926)">
			<path id="path742_00000155860209820670302890000008186564667890835131_" d="M144.7,90l-0.9,0l0.1,3.7l-0.4-0.3l0-2
				c0-0.1-0.1-0.2-0.2-0.3c-0.1-0.1-0.2-0.1-0.3-0.1c-0.2,0-0.3,0.1-0.3,0.3c0,0,0,0.1,0,0.2l-0.2,0.1v0c0,0,0-0.1-0.1-0.2
				c-0.1-0.2-0.2-0.3-0.3-0.3c-0.1-0.1-0.3-0.1-0.5-0.1c-0.2,0-0.3,0.1-0.5,0.2c-0.1,0.1-0.2,0.3-0.2,0.4c0,0.3,0.2,0.5,0.5,0.5
				c-0.1-0.1-0.1-0.2-0.1-0.3c0-0.1,0-0.2,0.1-0.3c0.1-0.1,0.2-0.1,0.3-0.1c0.1,0,0.3,0.1,0.4,0.2c0.1,0.1,0.1,0.3,0.1,0.4
				c0,0.1-0.1,0.2-0.2,0.3c-0.1,0.1-0.2,0.1-0.4,0.1c-0.3,0-0.6-0.1-0.8-0.3c-0.2-0.2-0.3-0.4-0.3-0.7c0-0.3,0.1-0.5,0.2-0.7
				c0.2-0.2,0.4-0.3,0.6-0.3c0.3,0,0.6,0.1,0.8,0.4c0-0.1,0.1-0.2,0.2-0.3c0.1-0.1,0.2-0.2,0.3-0.2c0.3,0,0.6,0.2,0.7,0.6l0-1
				l-2.9,0l-0.4-0.4l4.3-0.1L144.7,90z"/>
		</g>
		<g id="g744_00000054225906807332628530000001613772144165817235_" transform="translate(127.4619,88.9297)">
			<path id="path746_00000084496952963585737230000016601521512913596337_" d="M144.8,90.1l-1,0l-0.1,3.8l-0.4-0.4l0-2.7
				c0-0.2-0.1-0.4-0.2-0.5c-0.2-0.1-0.3-0.2-0.6-0.2l-0.4-0.4c0.1,0,0.2,0,0.3,0c0.3,0,0.6,0.1,0.7,0.3c0.1,0.1,0.2,0.3,0.3,0.7
				c-0.1-0.5-0.1-1-0.1-1.6l0.1,0.1c0,0.2,0.1,0.4,0.2,0.5l0.6,0L144.8,90.1z"/>
		</g>
		<g id="g748_00000109022134406981865650000002078202596879702441_" transform="translate(129.8944,88.8473)">
			<path id="path750_00000077315637983426571360000000092949814089780097_" d="M144.8,90.3c-0.2,0-0.4,0-0.6,0.1
				c-0.9,0.3-1.3,0.9-1.4,2c0,0.5,0.2,0.9,0.6,1.1c0,0,0.1,0,0.2,0c0.1,0,0.1,0,0.1,0c0,0-0.1-0.1-0.1-0.2c0-0.1-0.1-0.2-0.1-0.2
				c0-0.1,0.1-0.2,0.2-0.3c0.1-0.1,0.2-0.1,0.3-0.1c0.1,0,0.2,0,0.2,0.1c0.2,0.1,0.2,0.2,0.2,0.4c0,0.2-0.1,0.3-0.2,0.4
				c-0.1,0.1-0.3,0.2-0.5,0.1c-0.4,0-0.7-0.2-0.9-0.6c-0.2-0.3-0.3-0.7-0.3-1.1c0-0.6,0.3-1.2,0.8-1.8l-1.1,0l-0.4-0.4l2.7,0.1
				L144.8,90.3z"/>
		</g>
		<g id="g752_00000138555522106515193890000012929430394267178145_" transform="translate(133.5621,88.565)">
			<path id="path754_00000174593097055256665330000009246364777993750944_" d="M144.9,90.8l-3.1-0.2l-0.1,1.5c0.1,0,0.2-0.1,0.4-0.2
				c0.2-0.2,0.3-0.2,0.4-0.3c0.3-0.2,0.6-0.3,1.1-0.5l0.6,0.5c-0.4,0.6-0.6,1.2-0.6,1.7c0,0,0,0.1,0,0.2c0,0.1,0,0.1,0,0.2
				c0,0.1,0,0.3,0.1,0.8l-0.2-0.1c-0.1-0.6-0.1-1.1-0.1-1.5c0-0.3,0.1-0.6,0.2-0.9c-0.3,0.1-0.7,0.3-1,0.5c-0.3,0.2-0.5,0.5-0.7,0.8
				l-0.5-0.5l0.2-2.1l-0.4,0l-0.4-0.4l3.9,0.3L144.9,90.8z"/>
		</g>
		<g id="g756_00000153686218771712439590000009315291270296856753_" transform="translate(137.6072,88.0694)">
			<path id="path758_00000049205690787504896990000016628912473750578068_" d="M145.1,91.8l-0.9-0.1l-0.5,3.6l-0.3-0.4l0.3-2.2
				c0-0.1,0-0.3-0.2-0.5c-0.1-0.2-0.3-0.4-0.4-0.4c-0.1,0-0.2,0-0.3,0c-0.1,0.1-0.2,0.1-0.2,0.2c0.2,0.1,0.3,0.3,0.3,0.3
				c0.1,0.1,0.2,0.3,0.1,0.4c0,0.3-0.2,0.5-0.5,0.4c-0.2,0-0.4-0.2-0.5-0.5c-0.1,0.1-0.2,0.2-0.3,0.3c-0.1,0.1-0.3,0.1-0.4,0.1
				c-0.1,0-0.2-0.1-0.3-0.2c-0.1-0.1-0.1-0.2-0.1-0.4c0-0.1,0.1-0.3,0.3-0.4c0.2-0.2,0.3-0.2,0.5-0.2c-0.1-0.2-0.2-0.4-0.3-0.5
				c-0.1,0-0.3-0.1-0.6-0.1l-0.3-0.4l0.8,0.1c0.2,0,0.4,0.1,0.5,0.3c0.1,0.2,0.2,0.3,0.2,0.5c0.2-0.3,0.5-0.5,0.8-0.5
				c0.1,0,0.1,0,0.2,0c0.1,0,0.3,0.2,0.5,0.6c0.2,0.3,0.3,0.6,0.3,0.7c0-0.8,0.1-1.4,0.1-1.8c0.1,0.1,0.2,0.2,0.2,0.2
				c0,0.1,0,0.2,0,0.2c0,0.1,0.1,0.2,0.2,0.2l0.3,0L145.1,91.8z"/>
		</g>
	</g>
	
		<g id="g764_00000054235342096003050990000006094196781602730638_" transform="matrix(1.3333333,0,0,-1.3333333,26.973295,7.3764453)">
		<path id="path766_00000106111734487265854850000011917732294291786393_" d="M176.3-95.5h-1.6v0.4h1.4l2.4,2.6l-2.2,0.2l-1.3-1.4
			l-0.3,0.3l1.5,1.5l3.4-0.3L176.3-95.5z"/>
	</g>
	
		<g id="g772_00000009586113872080052820000010002401565036042883_" transform="matrix(1.3333333,0,0,-1.3333333,22.952765,10.692045)">
		<path id="path774_00000033363521578875155870000008725470698654357692_" d="M177-95h-1.8v0.4h1.5l1.6,3.3l-2.5,0.1l-1.1-2.2
			l-0.4,0.2l1.2,2.5l3.5-0.2L177-95z"/>
	</g>
	
		<g id="g780_00000134933908514269793090000002921820669181930628_" transform="matrix(1.3333333,0,0,-1.3333333,18.481825,15.878445)">
		<path id="path782_00000106142495109300655860000006900138624151668660_" d="M177.8-94.1H176v0.4h1.4l1.2,3.9l-2.6,0.2l-0.7-2.1
			l-0.4,0.1l0.8,2.4l3.5-0.2L177.8-94.1z"/>
	</g>
	
		<g id="g788_00000050646442051596903420000013587828704452833667_" transform="matrix(1.3333333,0,0,-1.3333333,15.187695,19.735245)">
		<path id="path790_00000055670494065324023220000005851994432153165997_" d="M178.3-93.4h-2.1v0.4h1.7l0.6,4h-2.7l-0.4-2.8
			l-0.5,0.1l0.4,3.2h3.7L178.3-93.4z"/>
	</g>
	
		<g id="g796_00000139996937390297511290000006991229617042586802_" transform="matrix(1.3333333,0,0,-1.3333333,11.994365,25.108345)">
		<path id="path798_00000131342804069889942630000003666648957140512152_" d="M178.9-92.5h-2.2v0.4h1.7v4.1l-2.8-0.1v-3.5h-0.5v3.9
			l3.8,0.1V-92.5z"/>
	</g>
	
		<g id="g804_00000142175658872994219310000016673529105638151330_" transform="matrix(1.3333333,0,0,-1.3333333,8.3403647,31.958145)">
		<path id="path806_00000119082562141708261780000002063070122304190891_" d="M179.5-91.3l-0.2,0.4l1.2,0.5l-1.7,4.1l-2.3-1.1
			l0.9-2.6l-0.4-0.1l-1,3l3.1,1.4l2.1-5L179.5-91.3z"/>
	</g>
	
		<g id="g812_00000099650322389933199790000005429502645810408882_" transform="matrix(1.3333333,0,0,-1.3333333,9.9990247,38.307145)">
		<path id="path814_00000085967476554438381520000010495675749185930673_" d="M179.2-90.2l-0.3,0.3l1,0.9l-3.2,4.1l-2.2-1.7l2-3
			l-0.4-0.2l-2.2,3.3l3,2.2l3.7-4.8L179.2-90.2z"/>
	</g>
	
		<g id="g820_00000178191975100886476930000001599790100136829315_" transform="matrix(1.3333333,0,0,-1.3333333,7.1982247,45.961645)">
		<path id="path822_00000138548208118395168990000007760197403758278279_" d="M179.7-88.9l-3.1,3.3l3,3l4.8-4.5l-1-1l-0.3,0.3
			l0.7,0.7l-4.1,3.9l-2.4-2.4l2.9-3L179.7-88.9z"/>
	</g>
	
		<g id="g828_00000042712672462526429220000002490100219965313158_" transform="matrix(1.3333333,0,0,-1.3333333,12.396495,52.643645)">
		<path id="path830_00000046340567836084197990000012262147967171205506_" d="M178.8-87.8l-4,2.5l2.3,3.6l6.7-3l-1.4-1.9l-0.4,0.3
			l1.1,1.5l-5.8,2.6l-1.8-2.8l3.6-2.2L178.8-87.8z"/>
	</g>
	
		<g id="g836_00000024685923274991823450000009865332106688212887_" transform="matrix(1.3333333,0,0,-1.3333333,22.086765,60.535645)">
		<path id="path838_00000023990675776457833290000013622815701649512126_" d="M177.2-86.4l-7.1,2.6l2.7,4.2l7-2.6L177.2-86.4z
			 M170.7-83.6l6.2-2.3l2.1,3.5l-6.1,2.2L170.7-83.6z"/>
	</g>
	<g id="g842_00000172427235594275221820000018421989882610623925_">
		<g id="g848_00000115514252231149547930000011068538348659459497_" transform="translate(121.781,114.0558)">
			<path id="path850_00000062881401948915637430000005000241107819287706_" d="M144.6,39.1c0,2.1,0,4.2,0,6.2v0
				c-0.2-0.3-0.1-1-0.2-1.4c-0.2-0.8-0.4-1.6-0.8-2.3c-0.2-0.3-0.5-0.8-1-0.7v0c0.1,0.3,0.7,1.8-0.3,1.6c-1-0.2-1.1-1.6-0.5-2.3
				c0.3-0.3,0.9-0.3,1.2,0c0.5,0.3,1.1,1.3,1.1,1.9c0,0,0,0,0,0v-3.1c-1.2-0.2-2.4-0.3-3.6-0.5c0,2,0,4.1-0.1,6.1c0,0,0,0,0,0
				c-0.4-0.3-0.6-1.1-0.4-1.8c0-1.4,0.1-2.9,0.1-4.3c-0.2,0-0.5-0.1-0.7-0.1c-0.1-0.2-0.3-0.4-0.4-0.7c0.4,0.1,0.8,0.1,1.2,0.2
				c-0.2-0.3-0.4-0.5-0.4-0.8c-0.1-0.8,0.9-1.8,1.8-1.7c1.1,0.2,2.5,1.5,2.7,2.5c-0.7-0.5-0.9-1.3-1.9-1.7c-1-0.3-1.5,0.2-1.8,0.7
				c-0.1,0.1-0.3,0.3-0.2,0.6c0.2,0.7,0.7,0.5,1.5,0.7c0.9,0.1,1.8,0.3,2.7,0.4c0.3,0.1,0.7,0,0.9,0.2c0.1,0.2,0.3,0.4,0.4,0.6
				C145.4,39.2,145,39.2,144.6,39.1"/>
		</g>
		<g id="g852_00000039136256067187975150000008852340252533988253_" transform="translate(135.2355,114.969)">
			<path id="path854_00000111901705841476930570000014575667672478367884_" d="M145,37.3c0-0.2,0-0.3,0-0.5c0.7-0.3,1.4-0.6,2.1-0.9
				c-0.1-0.2-0.3-0.3-0.4-0.5c-1.7,0.7-3.4,1.4-5.1,2c0.1,0.2,0.3,0.3,0.4,0.5c0.8-0.3,1.7-0.7,2.5-1c0,0.2,0,0.3,0,0.5
				c-0.7,0.9-1.5,1.7-2.1,2.9c0.2,0.3,0.4,0.5,0.6,0.8c0.1,0.1,0.7,0,0.8,0.1c0.6,0.3,1,1.1,1.2,1.8c0,0,0.1,0.1,0.2,0.1
				c-0.1-1.7-0.1-3.4-0.2-5.1c0,0,0,0,0,0c0.8-0.3,1.3,0.5,1.2,1.3c-0.1-0.1-0.2-0.2-0.4-0.1c-0.5,0.2-0.6,1.2-0.1,1.5
				C147.2,40.8,146.6,36.6,145,37.3 M144.7,41.7c-0.2-0.6-0.7-1.3-1.4-1.5c0.4-0.7,0.9-1.3,1.3-1.9
				C144.7,39.5,144.7,40.6,144.7,41.7L144.7,41.7z"/>
		</g>
	</g>
</g>
<text id="bec" transform="matrix(1 0 0 1 28.7998 190.9663)" class="st6 st3">BEC- 007</text>
<text id="en_x5F_sl" transform="matrix(1 0 0 1 28.7998 173.2714)" class="st2 st7">EN-MF-7000007</text>
<g>
	<path d="M30,130.9h8.7l1,0.9h-6.2c0.2,0.2,0.5,0.3,0.7,0.6c0.3,0.2,0.5,0.5,0.9,0.9l-1.6,1.1c0.8,0.3,1.4,0.7,1.9,1.2v-3.5
		c0.1,0,0.2,0,0.3,0c0.1,0,0.2,0,0.3,0c0.1,0,0.2,0,0.3,0c0.6,0,1.2,0.2,1.7,0.5c0.6,0.4,0.8,0.9,0.8,1.5c0,0.3-0.1,0.6-0.3,0.8
		c-0.2,0.2-0.6,0.4-1.1,0.4c-0.2,0-0.5-0.1-0.7-0.2c-0.2-0.2-0.3-0.3-0.3-0.6c0-0.2,0.1-0.4,0.3-0.5s0.4-0.2,0.6-0.2s0.4,0,0.6,0.1
		c0-0.2-0.2-0.4-0.4-0.5c-0.2-0.1-0.6-0.2-1.1-0.2l-0.1,0v4.8l-0.8-0.7l0,0c-0.1-0.3-0.4-0.8-1.1-1.3c-0.5-0.3-1.2-0.5-2.1-0.5h-0.1
		l-0.9-1.1c0.3-0.3,0.6-0.5,0.9-0.7s0.6-0.5,1-0.7c-0.1-0.1-0.2-0.1-0.3-0.2c-0.1-0.1-0.3-0.1-0.5-0.2c-0.3-0.1-0.5-0.1-0.7-0.2
		c-0.2,0-0.3-0.1-0.4-0.1c-0.4-0.2-0.8-0.4-1.3-0.9L30,130.9z"/>
	<path d="M46.1,131.7h-1.6v6.1l-0.4-0.4l-0.3-0.3c-0.1-0.3-0.2-0.4-0.3-0.6c-0.1-0.1-0.2-0.3-0.4-0.5c-0.2-0.2-0.3-0.3-0.5-0.5
		c-0.6-0.4-1.3-0.7-2.2-0.7v0l-1.1-1.2l0.1-0.1c1.3-0.8,2.7-1.3,4.1-1.7v-0.1H39l-1-0.9h7.1L46.1,131.7z M40.9,136.9
		c-0.2-0.1-0.3-0.3-0.3-0.5s0.1-0.4,0.3-0.5c0.2-0.1,0.4-0.2,0.6-0.2c0.2,0,0.4,0.1,0.6,0.2c0.2,0.1,0.3,0.3,0.3,0.5
		s-0.1,0.4-0.3,0.5c-0.2,0.1-0.4,0.2-0.6,0.2C41.3,137.1,41.1,137,40.9,136.9z M43.5,133.1c-0.7,0.2-1.5,0.5-2.2,0.9
		c0.9,0.4,1.6,0.8,2.2,1.4V133.1z"/>
	<path d="M52.5,131.7H51v6l-0.6-0.5l0,0l0,0c-0.3-1-0.9-1.7-1.6-1.9c-0.2,0.2-0.4,0.3-0.6,0.4c-0.2,0.1-0.4,0.1-0.6,0.1
		c-0.4,0-0.7-0.1-0.9-0.3c-0.3-0.2-0.4-0.5-0.4-0.8c0-0.4,0.2-0.6,0.5-0.9c0.3-0.2,0.6-0.3,1.1-0.3c0.1,0,0.2,0,0.3,0
		c0-0.3-0.1-0.5-0.3-0.7c-0.1-0.1-0.4-0.2-0.9-0.3c-0.5-0.1-0.8-0.2-1.1-0.4c-0.2-0.1-0.4-0.3-0.7-0.6l-1-0.8h7.3L52.5,131.7z
		 M50,131.7h-2.6c0.5,0.4,0.9,0.7,1.1,0.9c0.4,0.5,0.7,1,0.7,1.5v0.1c0,0,0,0.1,0,0.1c0.3,0.2,0.6,0.5,0.8,0.7V131.7z"/>
	<path d="M52.3,134.5h3.2l0.3,0.2c-0.1,0.3-0.2,0.4-0.2,0.5l0,0.1h-3.2l-0.3-0.2C52.1,134.9,52.2,134.8,52.3,134.5L52.3,134.5z"/>
	<path d="M60.8,135.2c0,0.6-0.3,1.1-0.9,1.6c-0.3,0.3-0.6,0.4-0.8,0.5c-0.5,0.2-1,0.2-1.2,0.2c0,0,0,0-0.1,0c-0.3,0-0.7-0.1-0.9-0.3
		c-0.3-0.2-0.5-0.4-0.5-0.7c0-0.3,0.2-0.6,0.5-0.9c0.4-0.2,0.7-0.3,1.1-0.3c0.6,0,1.1,0.1,1.4,0.3c0.2-0.3,0.3-0.5,0.3-0.6
		c0-0.3-0.3-0.7-0.8-1.1l-0.8-0.6c-0.3-0.2-0.5-0.4-0.8-0.6c-0.2-0.2-0.5-0.4-0.6-0.6c-0.2-0.2-0.3-0.4-0.3-0.6
		c0-0.2,0.1-0.4,0.3-0.6c0.2-0.2,0.4-0.3,0.7-0.3c0.3,0,0.5,0.1,0.7,0.3c0.1,0.2,0.2,0.4,0.2,0.6v0.1c0,0,0,0.1,0,0.1
		c0.4,0.3,0.7,0.6,1,0.8c0.3,0.2,0.5,0.5,0.6,0.6C60.5,134,60.8,134.7,60.8,135.2z"/>
	<path d="M62.5,132.8c0.6-0.4,1.3-0.6,2.1-0.6c0.8,0,1.5,0.2,2,0.7c0.6,0.5,0.8,1,0.8,1.7c0,0.7-0.3,1.2-0.9,1.7
		c-0.6,0.4-1.3,0.7-2.1,0.7c-0.8,0-1.5-0.2-2.1-0.7c-0.5-0.5-0.8-1-0.8-1.7c0,0,0-0.1,0-0.1C61.7,133.7,62,133.2,62.5,132.8z
		 M64,135.9c0.6,0,1.1-0.2,1.5-0.6c0.4-0.4,0.7-0.8,0.7-1.3c0-0.3-0.1-0.5-0.3-0.7c-0.2-0.2-0.5-0.3-0.8-0.3c-0.6,0-1,0.2-1.5,0.6
		c-0.4,0.4-0.7,0.8-0.7,1.3c0,0.1,0,0.2,0.1,0.4c0.1,0.2,0.3,0.4,0.6,0.5C63.7,135.9,63.8,135.9,64,135.9z"/>
	<path d="M34.6,139.5c-0.5,0-0.9,0.1-1.5,0.4c-0.5,0.3-0.8,0.6-0.8,0.9l0.2,0.4h0.7l1.1,0.9h-1.4v6l-1-0.9v-5.2h-0.9l-1-0.9h1.8
		l-0.1-0.1c-0.2-0.2-0.3-0.4-0.3-0.6c0-0.5,0.3-1,1-1.4c0.6-0.4,1.2-0.6,1.8-0.6c1.5,0,2.9,0.6,4.2,1.7l0.4,0.9l-0.5-0.4
		c-0.5-0.3-1-0.6-1.6-0.9c-0.3-0.1-0.6-0.2-0.9-0.3C35.3,139.6,35,139.5,34.6,139.5z"/>
	<path d="M32.4,141.3h7.2l1,0.9h-1.6v6.1l-0.7-0.7c0-0.1-0.1-0.1-0.1-0.2c0-0.1-0.1-0.2-0.2-0.3c-0.1-0.2-0.2-0.3-0.4-0.5
		c-0.2-0.2-0.3-0.3-0.5-0.5c-0.6-0.4-1.3-0.7-2.2-0.7l-0.1,0l-1-1.2l0.1-0.1c1.3-0.8,2.7-1.3,4.1-1.7v-0.1h-4.5L32.4,141.3z
		 M37.9,143.5c-0.7,0.2-1.5,0.5-2.2,0.9c0.9,0.4,1.6,0.8,2.2,1.4V143.5z"/>
	<path d="M43.3,139.5c-0.5,0-0.9,0.1-1.5,0.4c-0.5,0.3-0.8,0.6-0.8,0.9l0.2,0.4h0.7l1.1,0.9h-1.4v6l-1-0.9v-5.2h-0.9l-1-0.9h1.8
		l-0.1-0.1c-0.2-0.2-0.3-0.4-0.3-0.6c0-0.5,0.3-1,1-1.4c0.6-0.4,1.2-0.6,1.8-0.6c1.5,0,2.9,0.6,4.2,1.7l0.4,0.9l-0.5-0.4
		c-0.5-0.3-1-0.6-1.6-0.9c-0.3-0.1-0.6-0.2-0.9-0.3C43.9,139.6,43.6,139.5,43.3,139.5z"/>
	<path d="M45.3,141.8c0,0.2-0.1,0.3-0.2,0.4c-0.1,0.1-0.3,0.2-0.5,0.2s-0.3,0-0.5-0.1c0,0,0,0.1,0,0.1c0,0.1,0.1,0.2,0.2,0.3
		c0.1,0.1,0.4,0.1,0.6,0.1c0.2-0.1,0.7-0.3,1.7-0.8v-0.8h1.5l1,0.9h-1.5v6.3l-0.4-0.4c0,0-0.5-0.6-0.6-0.8c-0.1-0.1-0.2-0.3-0.3-0.4
		c-0.4-0.4-0.7-0.7-1-0.9c-0.4-0.2-1-0.4-1.7-0.5l-0.1,0l-1-1.1l1.6-1c-0.5-0.1-0.8-0.3-1-0.6c-0.1-0.1-0.1-0.3-0.1-0.5
		c0-0.3,0.1-0.6,0.4-0.8c0.3-0.2,0.6-0.3,0.9-0.3c0.3,0,0.5,0,0.6,0.1C45.2,141.4,45.3,141.6,45.3,141.8z M46.6,143.4
		c-0.7,0.2-1.3,0.6-2,1.1c0.8,0.4,1.5,0.8,2,1.4V143.4z"/>
	<path d="M57.7,145.6c0,0.6-0.3,1.2-0.9,1.6c-0.3,0.2-0.7,0.4-0.9,0.5c-0.1,0-0.3,0.1-0.6,0.2c-0.2,0-0.4,0.1-0.5,0.1
		c-0.3,0-0.7-0.1-0.9-0.3c-0.3-0.2-0.5-0.4-0.5-0.7c0-0.3,0.2-0.6,0.5-0.9c0.4-0.2,0.7-0.3,1.1-0.3c0.6,0,1.1,0.1,1.4,0.3
		c0.2-0.3,0.3-0.5,0.3-0.6c0-0.3-0.3-0.7-0.8-1.1l-0.8-0.6c-0.3-0.2-0.5-0.4-0.8-0.6c-0.2-0.2-0.5-0.4-0.6-0.6
		c-0.2-0.2-0.3-0.4-0.3-0.6c0-0.2,0.1-0.4,0.3-0.6c0.2-0.2,0.4-0.3,0.7-0.3c0.3,0,0.5,0.1,0.7,0.3c0.1,0.2,0.2,0.4,0.2,0.6v0.1
		c0,0,0,0.1,0,0.1c0.4,0.3,0.7,0.6,1,0.8c0.3,0.2,0.5,0.5,0.6,0.6C57.4,144.4,57.7,145,57.7,145.6z"/>
	<path d="M63,145.6c0,0.6-0.3,1.2-0.9,1.6c-0.2,0.2-0.5,0.3-0.7,0.4c-0.4,0.2-0.8,0.2-1,0.3c-0.2,0-0.3,0-0.4,0
		c-0.3,0-0.7-0.1-0.9-0.3c-0.3-0.2-0.5-0.4-0.5-0.7c0-0.3,0.2-0.6,0.5-0.9c0.4-0.2,0.7-0.3,1.1-0.3c0.6,0,1.1,0.1,1.4,0.3
		c0.2-0.3,0.3-0.5,0.3-0.6c0-0.3-0.3-0.7-0.8-1.1l-0.8-0.6c-0.3-0.2-0.5-0.4-0.8-0.6c-0.2-0.2-0.5-0.4-0.6-0.6
		c-0.2-0.2-0.3-0.4-0.3-0.6c0-0.2,0.1-0.4,0.3-0.6c0.2-0.2,0.4-0.3,0.7-0.3c0.3,0,0.5,0.1,0.7,0.3c0.1,0.2,0.2,0.4,0.2,0.6v0.1
		c0,0,0,0.1,0,0.1c0.4,0.3,0.7,0.6,1,0.8c0.3,0.2,0.5,0.5,0.6,0.6C62.7,144.4,63,145,63,145.6z"/>
	<path d="M68.4,144.8c0-0.5,0.1-1.1,0.2-1.6c0.3-1,0.7-1.9,1.4-2.5c0.4-0.3,0.7-0.6,1.2-0.8l0.1-0.1l0.4,0.4l-0.1,0.1
		c-0.2,0.2-0.5,0.4-0.7,0.7c-0.2,0.3-0.4,0.6-0.6,1c-0.2,0.4-0.3,0.8-0.4,1.2c-0.1,0.4-0.2,0.9-0.2,1.4c0,1,0.2,1.8,0.5,2.6
		c0.2,0.4,0.3,0.7,0.6,1c0.2,0.3,0.5,0.5,0.8,0.7l0.1,0.1l-0.4,0.4l-0.1,0c-0.5-0.2-0.9-0.4-1.2-0.7s-0.6-0.7-0.9-1.1
		C68.6,146.8,68.4,145.9,68.4,144.8z"/>
	<path d="M75,145.1c0.3,0,0.6-0.1,0.9-0.2c0.3-0.1,0.4-0.3,0.4-0.5c0-0.3-0.3-0.6-0.8-0.9c-0.2-0.1-0.5-0.2-0.8-0.3l-0.8-0.3
		c-0.6-0.3-0.9-0.5-0.9-0.9c0-0.2,0.1-0.4,0.3-0.6c0.2-0.2,0.4-0.2,0.7-0.2c0.3,0,0.5,0.1,0.7,0.2c0.1,0.1,0.2,0.2,0.2,0.4
		c0.7,0.3,1.2,0.6,1.6,0.8c0.6,0.4,0.8,0.9,0.8,1.5c0,0.9-0.6,1.5-1.7,1.9c0.7,0.4,1.7,1,2.8,1.8l0.3,1.2l-0.4-0.4
		c-0.7-0.6-1.5-1.1-2.5-1.6c-1-0.5-2-0.8-3-1l-0.3-2c0.1,0.2,0.5,0.4,1.2,0.6C74.1,145,74.6,145.1,75,145.1z"/>
	<path d="M81.4,144.6c0,0.5-0.1,1.1-0.2,1.6c-0.3,1-0.7,1.9-1.4,2.5c-0.4,0.3-0.7,0.6-1.2,0.8l-0.1,0.1l-0.4-0.4l0.1-0.1
		c0.2-0.2,0.5-0.4,0.7-0.7c0.2-0.3,0.4-0.6,0.6-1c0.2-0.4,0.3-0.8,0.4-1.2c0.1-0.4,0.2-0.9,0.2-1.4c0-0.9-0.2-1.8-0.5-2.6
		c-0.2-0.4-0.3-0.7-0.6-1c-0.2-0.3-0.5-0.5-0.8-0.7l-0.1-0.1l0.4-0.4l0.1,0c0.5,0.2,0.9,0.4,1.2,0.7c0.4,0.3,0.6,0.7,0.9,1.1
		C81.1,142.6,81.4,143.5,81.4,144.6z"/>
	<path d="M86.8,144.8c0-0.5,0.1-1.1,0.2-1.6c0.3-1,0.7-1.9,1.4-2.5c0.4-0.3,0.7-0.6,1.2-0.8l0.1-0.1l0.4,0.4l-0.1,0.1
		c-0.2,0.2-0.5,0.4-0.7,0.7c-0.2,0.3-0.4,0.6-0.6,1c-0.2,0.4-0.3,0.8-0.4,1.2c-0.1,0.4-0.2,0.9-0.2,1.4c0,1,0.2,1.8,0.5,2.6
		c0.2,0.4,0.3,0.7,0.6,1c0.2,0.3,0.5,0.5,0.8,0.7l0.1,0.1l-0.4,0.4l-0.1,0c-0.5-0.2-0.9-0.4-1.2-0.7s-0.6-0.7-0.9-1.1
		C87,146.8,86.8,145.9,86.8,144.8z"/>
	<path d="M94.9,140.3V140l0.8,0.6c0,0.1,0,0.2,0,0.2c0,0,0,0,0,0.1c0,0.1,0,0.2,0.1,0.3c0.1,0.1,0.2,0.1,0.3,0.1c0.1,0,0.2,0,0.3,0
		l1,0.9h-1.5v6.2l-1.1-1.1v0c0-1,0-1.7,0-2.1c0-0.4,0-0.7,0-0.9c0-0.2,0-0.4-0.1-0.6c-0.1-0.2-0.2-0.4-0.4-0.6
		c-0.5-0.4-0.9-0.6-1.3-0.6c-0.5,0-1,0.2-1.2,0.5c0.3,0,0.5-0.1,0.5-0.1h0c0.2,0,0.4,0,0.6,0.1c0.2,0,0.3,0.1,0.5,0.2
		c0.3,0.2,0.5,0.5,0.5,0.9c0,0.2-0.1,0.5-0.4,0.9c-0.3,0.3-0.6,0.7-1,1.1l-0.1,0.1l-1-1l0.2-0.1c0.2-0.1,0.5-0.3,0.8-0.6
		c0.2-0.2,0.3-0.3,0.4-0.4c0.1-0.1,0.1-0.2,0.1-0.2c0,0,0-0.1,0-0.1c0,0-0.1,0-0.2,0c-0.1,0-0.3,0.1-0.6,0.2
		c-0.4,0.2-0.6,0.3-0.8,0.3c-0.2,0-0.5-0.1-0.7-0.3c-0.2-0.2-0.3-0.4-0.3-0.6c0-0.5,0.3-0.9,0.8-1.3c0.5-0.3,1-0.4,1.7-0.4
		c0.8,0,1.4,0.2,1.8,0.6c0.2,0.2,0.3,0.4,0.5,0.7l0-0.7l0-0.9C94.9,140.8,94.9,140.5,94.9,140.3z"/>
	<path d="M100,144.6c0,0.5-0.1,1.1-0.2,1.6c-0.3,1-0.7,1.9-1.4,2.5c-0.4,0.3-0.7,0.6-1.2,0.8l-0.1,0.1l-0.4-0.4l0.1-0.1
		c0.2-0.2,0.5-0.4,0.7-0.7c0.2-0.3,0.4-0.6,0.6-1c0.2-0.4,0.3-0.8,0.4-1.2c0.1-0.4,0.2-0.9,0.2-1.4c0-0.9-0.2-1.8-0.5-2.6
		c-0.2-0.4-0.3-0.7-0.6-1c-0.2-0.3-0.5-0.5-0.8-0.7l-0.1-0.1l0.4-0.4l0.1,0c0.5,0.2,0.9,0.4,1.2,0.7c0.4,0.3,0.6,0.7,0.9,1.1
		C99.8,142.6,100,143.5,100,144.6z"/>
	<path d="M110.1,147.7c-0.1-0.1-0.2-0.2-0.3-0.3c-0.2-0.2-0.5-0.3-0.8-0.3c-0.1,0-0.4,0-0.7,0c-0.4,0-0.6,0-0.7,0
		c-0.1,0-0.2,0-0.3,0c-0.7,0-1.3-0.1-1.7-0.3c-0.5-0.3-0.8-0.8-0.8-1.4c0-0.4,0.1-0.9,0.3-1.3l0.1-0.2l0.7,0.3l-0.1,0.1
		c-0.1,0.2-0.1,0.4-0.1,0.5c0,0.4,0.1,0.7,0.3,0.8c0.1,0.1,0.4,0.2,0.7,0.2c0.1,0,0.3,0,0.6,0l0.1,0c0.2,0,0.4,0,0.5,0
		c0.1,0,0.2,0,0.3,0c0.5,0,0.9,0.1,1.2,0.3c0.1,0,0.2,0.1,0.3,0.2c-0.1-0.3-0.2-0.6-0.3-0.9v0v0c0-0.4,0-0.9,0.1-1.3
		c0,0,0-0.1,0-0.1c-0.4,0.1-0.8,0.3-1.1,0.6c-0.4,0.3-0.7,0.7-1,1.1l-0.1,0.2l-1-0.9v-2.8h-1.3l-1.1-0.9h7.6l1.1,0.9h-5.1v1.6
		c0.7-0.5,1.6-0.9,2.5-1.2l0.1,0l1.4,0.9l-0.1,0.1c-0.4,0.7-0.7,1.5-0.7,2.2c0,0.2,0,0.4,0,0.5c0,0.5,0.2,1.2,0.4,2L110.1,147.7z"/>
	<path d="M116.9,141.3h0.4l1,0.9h-1.6c0.2,0.3,0.3,0.5,0.3,0.7c0,0.2-0.1,0.4-0.3,0.7c-0.2,0.3-0.4,0.5-0.7,0.7c0,0-0.1,0.1-0.2,0.2
		c-0.1,0.1-0.3,0.2-0.6,0.4c-0.3,0.2-0.5,0.4-0.8,0.6c-0.5,0.4-0.8,0.7-0.8,0.9c0,0.1,0,0.1,0.1,0.1c0,0,0.1,0,0.2,0
		c0.8,0,1.4-0.2,1.9-0.6c-0.2-0.2-0.3-0.4-0.3-0.5c0-0.2,0.1-0.4,0.3-0.5s0.4-0.2,0.6-0.2c0.3,0,0.5,0.1,0.7,0.3
		c0.2,0.2,0.3,0.4,0.3,0.6c0,0.5-0.4,1-1.2,1.3c-0.6,0.3-1.3,0.4-2,0.4c-0.5,0-0.9-0.1-1.2-0.2c-0.4-0.2-0.6-0.5-0.6-0.9
		c0-0.4,0.2-0.7,0.5-1l0.7-0.6c-0.3,0-0.5-0.1-0.7-0.2c-0.4-0.2-0.5-0.5-0.5-0.9c0,0,0-0.1,0-0.1c0-0.3,0.1-0.5,0.3-0.7
		c0.1-0.1,0.2-0.3,0.3-0.4h-1.4l-1-0.9h5.2c0.1,0,0.2-0.1,0.2-0.1c0-0.1-0.1-0.2-0.3-0.3c-0.2-0.1-0.4-0.1-0.5-0.1
		c-0.1,0-0.3,0-0.6,0.1c-0.3,0.1-0.5,0.1-0.7,0.1c-0.5,0-1-0.1-1.3-0.3c-0.5-0.3-0.7-0.6-0.7-1c0-0.2,0-0.3,0.1-0.5
		c0.1-0.1,0.1-0.3,0.2-0.3l0.1-0.1l0.7,0.2l-0.2,0.2c-0.1,0.1-0.1,0.2-0.1,0.3c0,0.2,0.1,0.4,0.3,0.5c0.2,0.1,0.4,0.1,0.7,0.1
		c0.2,0,0.4,0,0.7,0c0.2,0,0.3,0,0.4,0c0.1,0,0.2,0,0.3,0c0.6,0,1,0.2,1.4,0.5C116.7,140.5,116.9,140.9,116.9,141.3z M114.3,143.9
		c0.1,0,0.2,0,0.4-0.1c0.1,0,0.1-0.1,0.1-0.1c0,0,0,0,0.1,0l-1-0.9c-0.2,0.2-0.3,0.4-0.3,0.6c0,0.2,0.1,0.3,0.2,0.4
		C113.9,143.8,114.1,143.8,114.3,143.9C114.3,143.9,114.3,143.9,114.3,143.9z M115.7,142.2c-0.1-0.1-0.2-0.1-0.4-0.1
		c-0.2,0-0.3,0-0.4,0.1c-0.1,0-0.2,0.1-0.2,0.1l0.9,0.8c0.2-0.1,0.3-0.3,0.3-0.5C115.9,142.4,115.8,142.3,115.7,142.2z"/>
	<path d="M116.6,141.3h7.2l1,0.9h-1.6v6.1l-0.7-0.7c0-0.1-0.1-0.1-0.1-0.2c0-0.1-0.1-0.2-0.2-0.3c-0.1-0.2-0.2-0.3-0.4-0.5
		c-0.2-0.2-0.3-0.3-0.5-0.5c-0.6-0.4-1.3-0.7-2.2-0.7l-0.1,0l-1-1.2l0.1-0.1c1.3-0.8,2.7-1.3,4.1-1.7v-0.1h-4.5L116.6,141.3z
		 M122.1,143.5c-0.7,0.2-1.5,0.5-2.2,0.9c0.9,0.4,1.6,0.8,2.2,1.4V143.5z"/>
	<path d="M122.4,141.3h3.9l1,0.9h-0.9c-0.3,0-0.5,0.1-0.6,0.3c-0.1,0.2-0.2,0.4-0.2,0.7c0,0,0,0.1,0,0.1c0,0.5,0.1,0.9,0.2,1.4
		c0.1,0.3,0.1,0.5,0.2,0.8c0,0.3,0.1,0.5,0.1,0.7c0,0.2-0.1,0.4-0.2,0.6c-0.1,0.2-0.3,0.4-0.5,0.6c0,0,0,0,0,0
		c-0.4,0.3-0.9,0.5-1.5,0.7l-0.7-0.5l0.3-0.1c0.5-0.2,0.9-0.3,1.1-0.5c0.2-0.2,0.3-0.4,0.3-0.8c0-0.3-0.1-0.6-0.3-1.1
		c-0.2-0.5-0.3-0.9-0.3-1.2c0,0,0-0.1,0-0.1c0-0.6,0.3-1.1,0.8-1.6h-1.6L122.4,141.3z"/>
</g>
<g id="po_x5F_logo">
	<path d="M273.7,67.1c0,0,2.7-0.6,2.6,0.8c0,0.5-0.3,0.6-0.6,0.6c0,0.2,0.5,1-0.6,1.3c-0.4,0.6-0.7,1-0.9,1.4
		c-0.1,0.3-0.4,0.8-1.5,0.6c-1.1-0.2-2.2-1.2-2.4-1.5c-0.6,0-1.3-0.1-1-0.2c0.2-0.1,0.4-0.4,0.3-0.4c0,0-0.4-0.2,0.7-0.2
		c0-0.2-0.2-0.3-0.4-0.4c-0.2-0.1,0.1-0.2,0-0.3c-0.1,0-0.2-0.6,0.4-0.4c0.6,0.2,0.6,0.4,0.7,0.4c0.1,0,0.6-0.1,0.5-0.2
		c-0.1-0.1-0.6-0.5,0.1-0.6c0.1-0.1-0.2-0.3,0-0.4s1.4-1,2-1.2c0.5,0,0.7,0.2,0.7,0.4c0,0.2-0.3,0.4-0.6,0.4
		C273.6,67,273.6,67.1,273.7,67.1z"/>
	<path d="M273.9,64.3c0.3,0,1,0.5,0.6,0.8c-0.4,0.3-2.2,1.4-2.6,1.6c-0.4,0.1-0.9-0.4-0.4-0.8C272,65.4,273.9,64.3,273.9,64.3z"/>
	<path d="M271.1,65.6c0,0.3-0.3,1.4-0.3,1.6c0,0.2-0.9,0.3-0.7-0.6C270.3,65.6,271.1,65.3,271.1,65.6z"/>
	<path d="M269.9,67.6c0,0-5,0.2-5.4,0c-0.4-0.2-2.1-2.9-1.7-5.2c0.4-2.3,1.1-2.9,4.4-3.3c0.1,0.8,0.2,2.7,0.5,3.2
		c0.3,0.5,1.4,1.7,1.9,1.7c0-0.5,0.1-2.2,0.1-2.2s1.6-0.1,1.8,0.2c0,0.6,0,2.4,0,2.4s-1.5,1.3-1.6,1.6c-0.2-0.1-0.3-0.9-2.1-0.7
		C267.8,65.6,269.9,65.4,269.9,67.6z"/>
	<path d="M271.8,65.5c0,0,1.6-1.3,1.9-1.6c0.2-0.4,0.3-1.8-1.7-1.8C271.8,62.9,271.8,65.5,271.8,65.5z"/>
	<path d="M275.6,63.4c0.5,0,0.9,0.1,0.8,0.5c0,0.4-0.7,0.8-1.2,0.7c-0.4-0.1-1.2-0.3-1.2-2c-0.3-0.4-1.3-1-2.5-1.1
		c-1.2-0.1-1.9,0.1-1.9-0.3V59c0,0,1.5,0,5.1,2.6c0.3,0.4,0.5,0.6,0.5,1.2C275.1,63.2,275.4,63.4,275.6,63.4z"/>
	<path d="M276.7,63.2c0.6,0,2.3-1.4,1.1-2c-0.2,0.2-0.5,0.5-0.7,0.7c0,0,0.3-0.8-0.4-1c-0.7-0.2-0.4,0.4-0.8,0.4
		c-0.2-0.3-0.3-0.6-0.6-0.6c-0.3,0.1-0.4,1,0,1.6C275.7,62.8,276,63.1,276.7,63.2z"/>
	<path d="M269.2,63v-4.6c0,0-1.5,0.5-1.7,0.9C267.6,60.1,267.9,63,269.2,63z"/>
	<path d="M272.9,60c0,0-1.8-1.2-2.9-1.7c0.2-0.2,0.9-1.2,1.2-1.1C271.4,57.3,272.8,59.1,272.9,60z"/>
	<path d="M279.3,57.4h4.5l0.2,0.9h-4.6V57.4z"/>
	<path d="M263.5,57.4l-15.7,0v1.3l17.4,0L263.5,57.4z"/>
	<path d="M267.2,58.8c-0.2,0.2-1.4-0.8-1-0.9c0.3-0.2,3.5-1.5,3.8-1.4c0.3,0.1,0.2,0.9-0.1,1.1C269.6,57.7,267.7,58.2,267.2,58.8z"
		/>
	<path d="M270.7,56.6c0.4,0.2,2.4-1.8,1.5-1.9c-0.9-0.1-3.1-0.6-3.7-0.8c-0.5,0.2-1,0.6-0.9,0.9c-0.4,0-1-0.6-1.4-0.4
		c-0.5,0.2-3,2-3.2,2.3c0.5,0.4,1.6,1.1,2.1,1.1C265.7,57.8,269.1,55.8,270.7,56.6z"/>
	<path d="M271.8,54.1c-0.2,0-2.8-1-3.5-0.9c-0.7,0.1-0.8,0.8-1.1,0.7c-0.4,0-0.5-0.4-1.2,0c-0.7,0.5-1.3,1-1.9,1.6
		c0-0.4,0-1.5,2.4-2.6c2.4-1.1,7.9-2.6,8.1-3.4c-0.2-0.1-0.9,0.1-1.4,0.4c-0.3-0.2-0.8-1-0.7-2.2c0.1-1.2,1.1-3.2,1.1-3.8
		c0-0.6,0.1-3.1,0-3.4s-0.5-1.7,0.2-1.6c0.7,0.1,1.1,0.1,1.4,0.1c0.3-0.1,0.8-0.5,1.3-0.4c0.5,0.1,1.3,0.3,1.3,0.6
		c0,0.3-0.6,0.2-1.1,0.4c-0.5,0.2-0.8,0.7-1.7,1c0,0.6,0.3,5,0.3,6c0,0.9,0.3,2.9-0.1,3.7C274.9,51.1,272.8,54.2,271.8,54.1z"/>
	<path d="M268.4,51.5c0.1-0.3-1.6-4.3-2.3-4.4c-0.7-0.1-7.4,1.3-8.6,1c-0.4-0.5-1.2-1.5-1.1-2c0,0-0.2-1.3-0.1-1.4
		c-0.2-0.1-0.8,0.1-0.9,0.5s0,2.1-0.1,2.4c-0.1,0.3-0.8,1.9,0.2,1.9c1.1,0,4.2,0,5.2,0.2c1,0.3,3.3,0.7,3.8,0.4
		c0.6-0.3,1.2-1.2,1.2-1.5c0.2-0.1,0.3,0.2,0.1,0.9c-0.2,0.7-1,2.7-1,3.8C265.6,53.1,268.4,51.5,268.4,51.5z"/>
	<path d="M272.2,57.8c-0.1-0.2-0.2-0.5-0.4-0.7l5.3,0.3c0,0,0.6,0.4,0.4,0.5L272.2,57.8z"/>
	<path d="M278,58.2l-5.3,0c0,0,0.4,0.6,0.5,1c0.9,0,4.9-0.1,4.9-0.1s0.6,0,0.6-1C278.7,57.9,278.3,57.5,278,58.2z"/>
	<path d="M285.3,57.4h-1.1c0,0-0.4,0.2,0,0.6c0.4,0.4,1,0.6,0.5,1.4c0.5,0.1,1.3,0.2,1.1-1.4h0.5c0,0,0.2,0.9,1.4,0.9
		c1.2,0,4.2-1.2,4.2-1.2s-3.4-0.9-4.3-0.9c-0.9,0-1.4,0.8-1.4,0.8H286c-0.1-0.3-0.2-0.6-0.4-0.9c0-0.4,0-1,0-1
		c0.3-0.1,0.5-0.5,0.4-0.8c-0.1-0.6-0.4-0.6-0.5-0.6c-0.1,0-0.2,0.2-0.7,0.2c-0.2,0.2-0.1,1,0.3,1.1c0,0.3,0,0.7,0,0.7
		s-0.4,0.3-0.4,0.5C284.8,57,285.3,57,285.3,57.4z"/>
	<path d="M276.7,52.2L276.7,52.2c-0.4,0.2-0.5,0.7-0.5,0.8v0c0,0,0,2.4,0,3.1c0,0.8,1.4,1.3,1.4,1.3l0.1,0l0.1-0.1
		c0.1-0.1,0.5-0.4,0.7-0.4c0.3,0,0.5,0.1,0.9,0.4l0,0h0.1c1.1,0,1.6-1.3,1.6-1.4l0,0c0-0.3,0.1-2.5,0-2.9c-0.1-0.3-0.3-0.6-0.5-0.8
		c0.2-0.8,1.3-4.9-0.2-5.4v-0.7h-3.6V47C275.5,47.6,276.4,51.2,276.7,52.2z M280.8,56.1c-0.1,0.2-0.5,1.1-1.3,1.2
		c-0.3-0.3-0.6-0.4-1-0.4c-0.3,0-0.7,0.3-0.9,0.4c-0.4-0.2-1.1-0.6-1.1-1c0-0.7,0-2.9,0-3.1c0.1-0.2,0.2-0.4,0.3-0.5l0.7,0v1.4h2.4
		v-1.3l0.5,0c0.2,0.2,0.3,0.4,0.4,0.7C280.9,53.5,280.8,55.1,280.8,56.1z M278.3,47.6h0.6c0.1,0,0.3,0.1,0.3,0.3
		c0,0.1-0.1,0.3-0.3,0.3h-0.6c-0.1,0-0.3-0.1-0.3-0.3C278.1,47.7,278.2,47.6,278.3,47.6z M277,47.3l1.8,1.9l1.6-2
		c1.1,0.4,0.4,3.7,0,5l-3.4-0.1C276.6,50.9,276,47.8,277,47.3L277,47.3z"/>
	<path d="M277.5,50.9c-0.2,0.3-0.2,0.7,0.1,1h2.1c0.7,0,0.5-0.9,0.5-0.9l-1.3-1.1C278.8,49.8,277.9,50.3,277.5,50.9z"/>
	<path d="M278.3,49.6l-1.3-1.5c0,0,0.1,1.8,0.2,2.4C277.6,50.4,278.3,49.6,278.3,49.6z"/>
	<path d="M280.2,50.4c0-0.6,0.2-2.4,0.2-2.4l-1.3,1.5C279.1,49.6,279.9,50.4,280.2,50.4z"/>
	<path d="M277.7,54.3h-0.2v0.2c0,0.1,0.1,0.2,0.2,0.2h2c0.1,0,0.2-0.1,0.2-0.2v-0.2L277.7,54.3z"/>
	<path d="M280.6,46.1h0.2v-0.2c0-0.1,0-0.1-0.1-0.2c0,0-0.1-0.1-0.2-0.1h-3.7c-0.1,0-0.2,0.1-0.2,0.2v0.2H280.6z"/>
	<path d="M270,25.4c11.3,0,21.7,5.8,27.6,15.3l0.2,0.3l-0.3,0.2c0,0-1.8,1-2.9,2.4c0.7,0.2,1.2,0.8,1.5,1.4c0.2,0.5,0.1,1-0.1,1.4
		c-0.3,0.4-0.8,0.6-1.2,0.6c-0.4,0-0.8-0.2-1.1-0.4c-0.2-0.2-0.5-0.7-0.5-1.5c0-0.3,0.1-0.7,0.2-1c-1.1,0-2.3,0.5-3.4,1.3l-0.3,0.3
		l-0.2-0.4c-4.2-6.6-11.6-10.7-19.5-10.7c-7.9,0-15.3,4-19.5,10.7l-0.2,0.4l-0.3-0.3c-1.1-0.8-2.3-1.3-3.3-1.3h0
		c0.1,0.3,0.2,0.7,0.2,1c0,0.8-0.2,1.3-0.5,1.5c-0.3,0.3-0.7,0.5-1.1,0.5c-0.5,0-1-0.2-1.2-0.6c-0.3-0.4-0.3-1-0.1-1.4
		c0.2-0.7,0.8-1.2,1.5-1.4c-1-1.4-2.9-2.4-2.9-2.4l-0.3-0.2l0.2-0.3C248.3,31.2,258.8,25.4,270,25.4L270,25.4z M296.8,40.7
		c-5.8-9.1-15.9-14.6-26.8-14.6c-10.9,0-20.9,5.5-26.8,14.6c0.7,0.4,2.1,1.4,2.9,2.7h0v0c0.1,0,0.3,0,0.4,0c1.1,0,2.4,0.4,3.5,1.2
		C254.5,38,262,34,270,34c8,0,15.5,4,19.9,10.7c1.1-0.8,2.3-1.2,3.5-1.2c0.1,0,0.3,0,0.4,0v0C294.7,42.2,296.1,41.2,296.8,40.7z
		 M294.7,46.4c0.2,0,0.5-0.1,0.6-0.3c0.1-0.2,0.2-0.5,0-0.7c-0.2-0.5-0.6-0.9-1.2-1c-0.1,0.3-0.2,0.6-0.3,0.9c0,0.4,0.1,0.7,0.3,0.9
		C294.3,46.3,294.5,46.4,294.7,46.4z M245.3,46.4c0.2,0,0.4-0.1,0.5-0.2c0.2-0.2,0.3-0.5,0.3-0.9c0-0.3-0.1-0.6-0.3-0.9
		c-0.5,0.1-1,0.5-1.2,1c-0.1,0.2-0.1,0.5,0,0.7C244.8,46.3,245,46.4,245.3,46.4L245.3,46.4z"/>
	<path d="M248.4,45.2l0.3,0.2c-2.2,3.7-3.3,8-3.3,12.3c0,13.5,11,24.4,24.6,24.4c13.6,0,24.6-11,24.6-24.4c0-4.3-1.1-8.6-3.3-12.3
		l0.3-0.2c2.2,3.8,3.4,8.1,3.4,12.5c0,13.7-11.2,24.8-25,24.8c-13.8,0-25-11.1-25-24.8C245,53.3,246.2,49,248.4,45.2z"/>
	<path d="M249.4,45.8l0.7,0.4c-2,3.5-3.1,7.4-3.1,11.4c0,12.6,10.3,22.9,23,22.9c12.7,0,23-10.3,23-22.9c0-4-1.1-8-3.1-11.4l0.7-0.4
		c2.1,3.6,3.2,7.7,3.2,11.8c0,13.1-10.7,23.7-23.8,23.7c-13.1,0-23.8-10.6-23.8-23.7C246.2,53.5,247.3,49.4,249.4,45.8z"/>
	<path d="M289.2,39.4c0.8,0.8,1.5,1.7,2.2,2.6l0-0.5c-0.5-0.6-1-1.3-1.6-1.9l0.2-0.1c0.7,0.4,1.4,0.8,2.2,1.1c0-0.2,0.1-0.5,0.1-0.7
		c-0.2-0.3-0.4-0.6-0.5-1c-0.1-0.3-0.1-0.6,0-0.8c0-0.3,0.1-0.6,0.1-0.9l-2.4,2.2c-0.2-0.2-0.3-0.3-0.5-0.5L289.2,39.4z M291.9,39.9
		c-0.5-0.2-1-0.4-1.5-0.7l1.2-1.1C291.6,38.7,291.6,39.3,291.9,39.9z"/>
	<path d="M288.2,38.4l0.2,0.2c0,0.1,0,0.2,0,0.3l-0.1,0.2l0,0.2c0.3-0.3,0.6-0.7,0.9-1.1c-0.1,0.2-0.2,0.4-0.2,0.6
		c0,0.2,0.1,0.4,0.3,0.7c0.1,0.1,0.1,0.1,0.2,0.2l0-0.5c-0.2-0.1-0.3-0.3-0.3-0.5c0-0.2,0-0.4,0.2-0.5l1.7-1.7l-0.1-0.5l-2.3,2.4
		c-0.2-0.2-0.3-0.3-0.5-0.5L288.2,38.4z"/>
	<path d="M287.6,36c-0.2,0-0.4,0.1-0.5,0.2c-0.1,0.2-0.2,0.4-0.1,0.6c0.1,0.4,0.4,0.8,0.9,0.7c0.2,0,0.4-0.1,0.5-0.2
		c0.1-0.2,0.2-0.4,0.1-0.6c0-0.2-0.2-0.4-0.3-0.6C288,36.1,287.8,36,287.6,36z M288.2,33.7c0.2,1.2,0.4,2.2,0.6,2.8l0.5-0.5
		c-0.3-0.9-0.6-1.7-0.9-2.5L288.2,33.7z M287.7,36.5c0.2,0,0.3,0.1,0.5,0.2c0.1,0,0.1,0.1,0.1,0.2c0,0.1,0,0.1-0.1,0.2
		c-0.1,0.1-0.3,0.2-0.4,0.2c-0.2,0-0.3,0-0.5-0.2c-0.1,0-0.1-0.1-0.1-0.2c0-0.1,0-0.1,0.1-0.2C287.4,36.5,287.6,36.4,287.7,36.5
		L287.7,36.5z"/>
	<path d="M283.4,34.8c1.1,0.7,2.2,1.4,3.3,2.2c0-0.2-0.1-0.3-0.1-0.5c-0.8-0.6-1.6-1.2-2.4-1.7l0.5-0.7c-0.1,0.4,0,0.7,0.3,0.8
		c0.1,0,0.2,0.1,0.3,0.1c0.1,0,0.2,0,0.3-0.1c0,0.3,0.2,0.6,0.5,0.8c0.2,0.1,0.4,0.2,0.7,0.1c0.2,0,0.4-0.2,0.5-0.3
		c0.2-0.2,0.2-0.4,0.1-0.7c-0.1-0.3-0.3-0.5-0.5-0.7c-0.1-0.1-0.2-0.1-0.4-0.2c-0.1,0-0.3,0-0.3,0.1c-0.1,0.1-0.1,0.2-0.1,0.4
		c0,0.1,0.1,0.3,0.2,0.3c0.1,0.1,0.2,0.1,0.3,0.1c0.1,0,0.2,0,0.2-0.1c0.1-0.1,0.1-0.2,0.1-0.3c0.3,0.2,0.3,0.5,0.2,0.6
		c-0.1,0.1-0.2,0.2-0.4,0.2c-0.2,0-0.4,0-0.5-0.2c-0.2-0.1-0.3-0.3-0.4-0.4c-0.1-0.2-0.1-0.3,0-0.5l-0.2,0c0,0.1-0.1,0.1-0.1,0.2
		c0,0.1-0.1,0.1-0.2,0.1c-0.1,0-0.2,0-0.2-0.1c-0.1-0.1-0.2-0.2-0.2-0.3c0-0.1,0-0.2,0-0.3l0.9-1.5l-0.2-0.5l-1.6,2.7
		c-0.2-0.1-0.4-0.2-0.6-0.3C283.2,34.5,283.3,34.7,283.4,34.8z"/>
	<path d="M282,34.1l0.3,0.1c0,0.1,0,0.2,0,0.3l-0.1,0.2l0.1,0.2c0.2-0.4,0.4-0.8,0.5-1.3c0,0.2,0,0.5,0,0.7c0.1,0.2,0.2,0.4,0.5,0.5
		c0.1,0.1,0.2,0.1,0.3,0.1l-0.2-0.5c-0.2-0.1-0.3-0.2-0.4-0.4c-0.1-0.2-0.1-0.4,0-0.5l1.1-2.1l-0.2-0.5l-1.5,2.9
		c-0.2-0.1-0.4-0.2-0.6-0.3C281.9,33.8,281.9,33.9,282,34.1z"/>
	<path d="M280,33.2c0.7,0.3,1.4,0.6,2.1,1l-0.2-0.5c-0.3-0.2-0.7-0.3-1-0.5c0.7-0.2,1.1-0.6,1.4-1.1c0.2-0.3,0.2-0.7,0.2-1
		c-0.1-0.4-0.4-0.8-0.8-0.9c-0.2-0.1-0.4-0.1-0.5-0.1c-0.2,0-0.3,0.1-0.3,0.3c0,0.2,0.1,0.5,0.3,0.6c0.1,0,0.2,0.1,0.4,0
		c0.1,0,0.2-0.1,0.2-0.2c0-0.1,0-0.3-0.1-0.4l0.1,0c0.2,0.1,0.4,0.3,0.4,0.6c0.1,0.2,0,0.4-0.1,0.6c-0.2,0.4-0.5,0.7-0.8,0.9
		c-0.4,0.2-0.9,0.3-1.4,0.2L280,33.2z"/>
	<path d="M276.7,32.1c1.2,0.3,2.3,0.7,3.4,1.1l-0.2-0.4l-0.4-0.2l0.6-1.7c-0.1-0.2-0.2-0.4-0.4-0.6c-0.2,0.2-0.5,0.4-0.8,0.5
		c-0.3,0.1-0.7,0.2-1.1,0.2c0.2-0.2,0.3-0.5,0.4-0.7c0.1-0.4,0.1-0.9,0.1-1.3l-0.2-0.2c0,0.3,0,0.6-0.1,0.9
		c-0.1,0.4-0.4,0.9-0.9,1.3c0.2,0.2,0.4,0.4,0.5,0.6c0.3,0,0.7-0.1,1-0.1c0.3-0.1,0.6-0.2,1-0.2l-0.4,1.2c-0.9-0.3-1.8-0.6-2.7-0.8
		L276.7,32.1z"/>
	<path d="M272.8,31.4c0.2,0,0.4,0.2,0.4,0.4c0.1,0.1,0.1,0.1,0.2,0.2c0-0.4,0.1-0.9,0.1-1.6c0.1,0.2,0.2,0.4,0.4,0.7
		c0.2,0.3,0.4,0.5,0.5,0.5c0.2,0,0.4,0,0.6-0.1c0.2-0.1,0.3-0.2,0.4-0.3c0,0.2,0.1,0.3,0.2,0.5c0.1,0.1,0.3,0.2,0.5,0.3
		c0.3,0.1,0.5,0.1,0.8,0.2l-0.3-0.4c-0.2,0-0.4-0.1-0.6-0.2c-0.2-0.1-0.3-0.2-0.3-0.4c0.2,0,0.4-0.1,0.5-0.2
		c0.1-0.1,0.2-0.2,0.3-0.4c0-0.1,0-0.2-0.1-0.3c-0.1-0.1-0.2-0.2-0.3-0.2c-0.1,0-0.3,0-0.4,0c-0.1,0-0.2,0.1-0.3,0.2
		c-0.1-0.2-0.3-0.4-0.5-0.4c-0.3-0.1-0.5,0.1-0.6,0.3c0,0.1,0,0.3,0.1,0.4c0.1,0.1,0.2,0.2,0.3,0.3c0,0.1-0.1,0.1-0.2,0.2
		c-0.1,0-0.2,0-0.3,0c-0.1,0-0.3-0.1-0.4-0.3c-0.1-0.2-0.2-0.4-0.2-0.5l0.3-1.9l-0.4-0.4l-0.4,3.2c-0.2,0-0.4,0-0.7-0.1L272.8,31.4z
		"/>
	<path d="M267.1,31.4c1.3-0.1,2.6-0.2,3.9-0.1c-0.1-0.1-0.2-0.2-0.4-0.3c-0.5,0-1,0-1.5,0c0,0,0-0.1,0-0.3c0-0.2,0-0.3,0-0.4
		c0-0.7-0.2-1-0.6-1c-0.2,0-0.4,0.1-0.6,0.3c-0.2,0.2-0.4,0.3-0.4,0.4c-0.1-0.1-0.2-0.2-0.3-0.4c0-0.2,0.1-0.4,0.3-0.6
		c0.2-0.2,0.5-0.3,0.8-0.3c0.5,0,1,0.2,1.3,0.7c0.3,0.4,0.4,0.8,0.5,1.3l0.2,0.1c-0.1-0.9-0.3-1.5-0.7-2c-0.3-0.4-0.9-0.7-1.4-0.6
		c-0.5,0-0.8,0.2-1.1,0.4c-0.2,0.2-0.3,0.6-0.3,0.9c0,0.2,0.1,0.4,0.2,0.6c0.1,0.2,0.3,0.3,0.5,0.4c0.1-0.2,0.3-0.3,0.4-0.4
		c0.1-0.2,0.3-0.3,0.6-0.3l0.1,1.2c-0.7,0-1.4,0.1-2.1,0.2L267.1,31.4z"/>
	<path d="M265.5,31.6l0.3,0c0.1,0.1,0.1,0.1,0.2,0.2l0.1,0.2l0.2,0.1c-0.1-0.5-0.2-0.9-0.3-1.3c0.1,0.2,0.2,0.4,0.4,0.5
		c0.2,0.1,0.4,0.2,0.7,0.1c0.1,0,0.2,0,0.3-0.1c-0.1-0.1-0.3-0.2-0.4-0.3c-0.2,0-0.4,0-0.6-0.1c-0.2-0.1-0.3-0.2-0.3-0.4l-0.3-2.3
		c-0.1-0.1-0.3-0.2-0.4-0.3l0.5,3.2c-0.2,0-0.4,0.1-0.7,0.1L265.5,31.6z"/>
	<path d="M261.5,32.6c1.4-0.5,2.8-0.8,4.2-1c-0.1-0.1-0.3-0.2-0.4-0.2c-0.7,0.1-1.5,0.3-2.2,0.5l-0.1-0.2c0.7-0.4,1.3-0.8,1.9-1.4
		c-0.2-0.1-0.4-0.3-0.6-0.4c-0.9,0.1-1.7-0.2-2.2-0.8l-0.2-0.1l0.7,2.4l-0.1,0c-0.2,0.1-0.5,0.1-0.8,0c-0.2-0.1-0.4-0.2-0.5-0.4
		v-0.1c0.1,0.1,0.3,0.1,0.4,0c0.1,0,0.1-0.1,0.2-0.1c0.1-0.1,0.1-0.2,0.1-0.4c0-0.1-0.1-0.2-0.2-0.2c-0.1,0-0.3,0-0.4,0
		c-0.2,0-0.3,0.2-0.4,0.3c-0.1,0.1-0.1,0.3,0,0.4c0.1,0.3,0.4,0.6,0.7,0.7c0.3,0.2,0.7,0.2,1,0.1l0.1,0l0.1,0.2
		c-0.6,0.2-1.1,0.3-1.6,0.5L261.5,32.6z M264,30.3c-0.4,0.3-0.8,0.7-1.2,0.9l-0.4-1.6C262.9,30,263.4,30.2,264,30.3z"/>
	<path d="M256.3,35.7c0.9,0.2,1.6,0.1,2.3-0.2c0.3-0.2,0.5-0.4,0.7-0.7c0.2-0.3,0.2-0.6,0.1-0.8c0-0.1-0.1-0.1-0.2-0.2l-0.3-0.1
		c0.3-0.1,0.6-0.3,0.9-0.4c-0.2-0.1-0.3-0.1-0.5-0.2l-0.5,0.2l-1.2-2.6l-0.5-0.1l1.4,2.9c-0.2,0.1-0.4,0.2-0.6,0.3
		c0.2,0,0.3,0.1,0.5,0.1l0.4-0.2l0.2,0.2c0.1,0.2,0,0.4-0.2,0.7c-0.1,0.2-0.3,0.4-0.6,0.6c-0.3,0.2-0.6,0.3-1,0.3c-0.1,0-0.5,0-1,0
		L256.3,35.7z"/>
	<path d="M255.4,35.6c1-0.6,2-1.2,3-1.7l-0.5-0.1c-0.7,0.4-1.4,0.8-2.1,1.2l-0.1-0.2c0.6-0.6,1.1-1.3,1.5-2
		c-0.2-0.1-0.5-0.2-0.7-0.3c-0.3,0.2-0.7,0.3-1,0.3c-0.3,0-0.6,0-0.8-0.1c-0.3-0.1-0.6-0.2-0.9-0.3l1.8,2.7
		c-0.2,0.1-0.4,0.3-0.6,0.4L255.4,35.6z M256.4,33.1c-0.3,0.5-0.6,0.9-1,1.3l-0.9-1.4C255.1,33.1,255.7,33.2,256.4,33.1z"/>
	<path d="M252.4,37.9c1-0.9,2.1-1.7,3.2-2.4l-0.5-0.1c-1.1,0.8-2.2,1.6-3.2,2.5C252,37.9,252.2,37.9,252.4,37.9z M251.7,37
		c0.3,0.1,0.6,0.1,0.7,0l0,0c0-0.2,0-0.4,0-0.5c0-0.2,0.1-0.4,0.2-0.5h0c0,0.1,0,0.2,0.1,0.3c0.1,0.1,0.2,0.1,0.3,0.1
		c0.1,0,0.2,0,0.3-0.1c0.1-0.1,0.2-0.2,0.3-0.4c0-0.1,0-0.3-0.1-0.4c-0.1-0.2-0.3-0.2-0.5-0.2c-0.2,0-0.4,0.1-0.6,0.2
		c-0.2,0.1-0.3,0.3-0.5,0.5c-0.1,0.2-0.1,0.4-0.2,0.6l0,0c0,0-0.1,0-0.2,0c-0.1,0-0.1-0.1-0.2-0.2c-0.1-0.2-0.2-0.4-0.1-0.7
		c0.1-0.3,0.2-0.5,0.4-0.7c0.4-0.4,1-0.5,1.5-0.4c0.5,0.1,0.9,0.3,1.3,0.6l0.2-0.1c-0.7-0.5-1.2-0.7-1.5-0.8
		c-0.6-0.2-1.3-0.1-1.8,0.3c-0.3,0.3-0.6,0.6-0.6,1.1c-0.1,0.4,0.1,0.7,0.3,1C251.2,36.9,251.4,36.9,251.7,37L251.7,37z"/>
	<path d="M251.2,39l0.2-0.2c0.1,0,0.2,0,0.3,0l0.2,0.1l0.2,0c-0.3-0.3-0.7-0.6-1.1-0.9c0.2,0.1,0.4,0.2,0.6,0.2
		c0.2,0,0.4-0.1,0.7-0.3c0.1-0.1,0.1-0.1,0.2-0.2c-0.2,0-0.3,0-0.5,0c-0.1,0.2-0.3,0.3-0.5,0.3c-0.2,0-0.4,0-0.5-0.2l-1.6-1.7
		l-0.5,0l2.3,2.3c-0.2,0.2-0.3,0.3-0.5,0.5L251.2,39z"/>
	<path d="M248.8,41.7L248.8,41.7c0.1-0.2,0.2-0.2,0.3-0.2c0.1,0,0.2,0,0.2,0.1l0.1,0.1l0.3-0.1c-0.2-0.1-0.4-0.3-0.7-0.5l-0.7-0.5
		c0.3,0.1,0.6,0.2,0.9,0.2c0.3,0,0.6-0.2,0.9-0.5c0.2-0.2,0.3-0.5,0.4-0.8c0.1-0.3,0-0.6-0.2-0.7c-0.1-0.1-0.2-0.1-0.3-0.1
		c-0.1,0-0.2,0-0.3,0.1c-0.1,0.1-0.1,0.2-0.2,0.4c0,0.1-0.1,0.2-0.1,0.4c-0.1,0.1-0.2,0.1-0.2,0.1c0,0-0.1-0.2-0.1-0.5
		c0-0.2,0-0.4,0-0.6c-0.2,0-0.4,0-0.6,0.1c0,0.7,0.1,1.1,0.3,1.3c0.1,0.1,0.3,0.1,0.5,0.1c0.2-0.1,0.3-0.2,0.5-0.3
		c0.1-0.1,0.2-0.3,0.2-0.4c0.1,0.3,0,0.6-0.2,1c-0.2,0.2-0.5,0.3-0.8,0.3c-0.3,0-0.6,0-0.8-0.2l-1.3-1c-0.2,0-0.4,0.1-0.6,0.1l2.6,2
		c-0.1,0.2-0.3,0.4-0.4,0.5L248.8,41.7z"/>
	<path d="M283.2,73.5c0.4-0.3,0.6-0.7,0.6-1.2c0-0.4-0.1-0.7-0.4-1c-0.2-0.2-0.5-0.4-0.8-0.4c-0.4-0.1-0.7,0-1,0.3
		c-0.1,0.1-0.2,0.2-0.2,0.4c0,0.1,0,0.3,0.1,0.4c0.1,0.1,0.1,0.1,0.2,0.1c0.1,0,0.2,0,0.2-0.1c0.1-0.1,0.2-0.2,0.3-0.3
		c0-0.1,0-0.2-0.1-0.3c0-0.1-0.1-0.1-0.3,0v0c0.2-0.2,0.4-0.2,0.7-0.2c0.2,0,0.4,0.2,0.5,0.3c0.2,0.3,0.4,0.6,0.3,1
		c0,0.5-0.3,0.9-0.6,1.2L283.2,73.5z"/>
	<path d="M279.7,75.8c1.3-0.7,2.4-1.5,3.5-2.4c-0.2,0-0.4,0-0.5,0.1c-0.2,0-0.4,0.1-0.6,0.2c-0.2,0.1-0.4,0.2-0.5,0.3
		c-0.2,0-0.4,0-0.6-0.2c0.1-0.5,0.2-0.8,0.3-0.8c0.1,0,0.2-0.1,0.3,0c0.1,0,0.2,0,0.2,0.1l0.1-0.3c-0.4-0.1-0.6-0.1-0.8-0.1
		c-0.1,0-0.2,0.1-0.3,0.1c-0.1,0.1-0.2,0.3-0.2,0.4c0,0.2-0.1,0.4-0.1,0.5c0,0.2-0.1,0.3-0.3,0.4c-0.1,0.1-0.2,0.1-0.3,0.1
		c-0.1,0-0.2,0-0.3-0.1l-0.6-1c-0.2,0-0.3-0.1-0.4-0.1l1.3,2.3c-0.2,0.1-0.4,0.2-0.6,0.3L279.7,75.8z M280.2,74.5
		c0.1,0,0.3,0,0.4-0.1c0.1-0.1,0.1-0.1,0.2-0.2L281,74l0.1,0.1c0.1,0.1,0.3,0.2,0.7,0.2c-0.5,0.3-1,0.7-1.5,0.9l-0.5-0.8
		C280,74.5,280.2,74.5,280.2,74.5z"/>
	<path d="M276.5,77.2c1.2-0.4,2.3-0.9,3.4-1.5l-0.5-0.1c-0.8,0.4-1.5,0.7-2.3,1l-0.1-0.2c0.7-0.4,1.3-1,1.7-1.6
		c-0.2-0.1-0.4-0.1-0.6-0.2c-0.3,0.1-0.6,0.2-0.9,0.2c-0.2,0-0.5-0.1-0.7-0.2c-0.2-0.1-0.4-0.2-0.7-0.4l0.9,2.5
		c-0.2,0.1-0.5,0.2-0.7,0.2L276.5,77.2z M278,75.1c-0.3,0.4-0.7,0.7-1.1,1l-0.5-1.3C276.8,75.1,277.4,75.2,278,75.1z"/>
	<path d="M275,77.6l0.3-0.1c0.1,0,0.1,0.1,0.2,0.1l0.1,0.2l0.2,0c-0.1-0.4-0.3-0.7-0.5-1.1c0.1,0.2,0.3,0.3,0.4,0.4
		c0.2,0.1,0.4,0.1,0.8,0c0.1,0,0.2-0.1,0.3-0.1l-0.5-0.1c-0.2,0.1-0.4,0.1-0.6,0.1c-0.2,0-0.3-0.1-0.3-0.3l-0.5-1.9l-0.4-0.2
		l0.7,2.6c-0.2,0.1-0.5,0.1-0.7,0.2C274.7,77.5,274.9,77.6,275,77.6z"/>
	<path d="M271.4,78.2l0.3,0c0,0.5,0.5,0.7,1.6,0.5c0.1,0,0.3-0.1,0.5-0.1c0.2-0.1,0.4-0.1,0.5-0.1c0.1,0,0.3,0,0.4,0
		c0.1,0,0.2,0.1,0.2,0.1c0,0.1,0,0.2-0.1,0.3l0.2,0c0.1,0,0.1-0.1,0.2-0.2c0-0.1,0.1-0.1,0.1-0.2c0-0.2-0.2-0.3-0.5-0.3
		c-0.3,0-0.6,0-0.8,0l-0.6,0.1c-0.3,0.1-0.4,0.1-0.6,0.1c-0.1,0-0.2,0-0.4,0c-0.2,0-0.2-0.1-0.2-0.1c0-0.1,0.1-0.1,0.2-0.2
		c0.1,0,0.2-0.1,0.3-0.1c0.9-0.1,1.7-0.3,2.6-0.5l-0.4-0.2c-0.4,0.1-0.8,0.2-1.2,0.2c-0.2-0.1-0.3-0.1-0.3-0.2v0
		c0.2,0,0.4-0.1,0.6-0.3c0.1-0.1,0.2-0.2,0.2-0.4c0-0.1-0.1-0.1-0.2-0.2c-0.1,0-0.2,0-0.3,0c-0.2,0-0.3,0.1-0.5,0.2
		c-0.1,0.1-0.2,0.2-0.2,0.4c-0.1,0-0.1,0-0.2,0.1c-0.1,0-0.3,0-0.4-0.1c-0.1-0.1-0.2-0.2-0.2-0.3c0-0.1,0.1-0.3,0.4-0.4
		c0.2-0.1,0.4-0.2,0.7-0.2c0.4-0.1,0.7-0.1,1.1,0c-0.2-0.2-0.4-0.4-0.6-0.5c-0.5,0-1-0.1-1.5-0.2c-0.4-0.1-0.9-0.3-1.2-0.6l0.1,0.3
		c0.5,0.3,1,0.6,1.6,0.7c-0.4,0.2-0.6,0.3-0.7,0.4c-0.2,0.1-0.3,0.3-0.3,0.5c0,0.2,0.1,0.4,0.3,0.5c0.2,0.1,0.4,0.1,0.6,0.2
		c0.2,0,0.4,0.1,0.4,0.2c-0.7,0.1-1.3,0.2-2,0.2C271.1,78,271.3,78.1,271.4,78.2z"/>
	<path d="M264.6,77.5c1.6,0.4,3.2,0.7,4.8,0.7l-0.4-0.3c-1.2-0.1-2.5-0.2-3.7-0.5l0.4-1.7c0.1,0.2,0.2,0.4,0.2,0.6
		c0,0,0,0.1-0.1,0.1c0,0.3,0,0.5,0.2,0.7c0.2,0.2,0.5,0.4,0.8,0.4c0.2,0,0.3,0,0.5,0c0.2,0,0.3-0.1,0.3-0.2c0-0.1-0.1-0.2-0.2-0.3
		c-0.1-0.1-0.3-0.1-0.4-0.2c-0.2-0.1-0.4,0-0.5,0.2c-0.1,0-0.2-0.1-0.3-0.2c0-0.1-0.1-0.2,0-0.3c0-0.1,0.1-0.2,0.3-0.3
		c0.2-0.1,0.3-0.1,0.5,0c0.4,0,0.8,0.3,1,0.6c0.2,0.3,0.4,0.6,0.5,0.9l0.2,0.1c-0.1-0.4-0.3-0.8-0.6-1.2c-0.4-0.5-0.8-0.7-1.2-0.8
		c-0.3-0.1-0.7,0-0.9,0.2c-0.3-0.3-0.5-0.7-0.5-1.2l-0.1-0.1l-0.7,2.6c-0.2-0.1-0.4-0.1-0.6-0.2C264.4,77.3,264.5,77.4,264.6,77.5z"
		/>
	<path d="M263,77l0.3,0.1c0,0.1,0.1,0.1,0.1,0.2l0,0.2l0.1,0.1c0.1-0.4,0.2-0.7,0.2-1.1c0,0.2,0.1,0.4,0.2,0.6
		c0.1,0.2,0.3,0.3,0.7,0.4c0.1,0,0.2,0.1,0.3,0.1c-0.1-0.1-0.2-0.2-0.3-0.4c-0.2,0-0.4-0.1-0.5-0.3c-0.1-0.1-0.2-0.3-0.1-0.4
		l0.6-1.9c-0.1-0.1-0.2-0.2-0.2-0.4l-0.9,2.6c-0.2-0.1-0.4-0.2-0.7-0.2C262.8,76.8,262.9,76.9,263,77z"/>
	<path d="M259.6,75.4c1.1,0.6,2.3,1.2,3.5,1.6c-0.1-0.1-0.2-0.3-0.3-0.4l-0.4-0.2l0.6-1.4c-0.1-0.2-0.2-0.3-0.3-0.5
		c-0.2,0.2-0.5,0.3-0.8,0.3c-0.3,0.1-0.7,0-1,0c0.2-0.2,0.3-0.3,0.4-0.5c0.1-0.3,0.2-0.7,0.3-1.1l-0.2-0.2c-0.1,0.3-0.2,0.5-0.3,0.7
		c-0.2,0.3-0.5,0.6-1,0.8c0.1,0.2,0.3,0.4,0.4,0.6c0.3,0.1,0.6,0.1,1,0.1c0.3,0,0.6,0,0.9-0.1l-0.4,1c-0.9-0.4-1.8-0.8-2.6-1.3
		C259.5,75.2,259.5,75.3,259.6,75.4z"/>
	<path d="M256.2,73c0.2,0.2,0.2,0.4,0.1,0.5c0,0.1,0.1,0.2,0.1,0.3c0.2-0.3,0.4-0.6,0.8-1.1c0,0.2,0,0.4,0,0.7
		c0.1,0.4,0.1,0.6,0.2,0.6c0.2,0.1,0.4,0.2,0.6,0.2c0.2,0,0.3,0,0.5-0.1c0,0.2,0,0.3,0.1,0.5c0.1,0.2,0.2,0.3,0.4,0.4
		c0.2,0.2,0.5,0.3,0.7,0.4l-0.2-0.4c-0.2-0.1-0.4-0.2-0.5-0.4c-0.1-0.1-0.2-0.3-0.2-0.5c0.2,0.1,0.3,0.1,0.5,0.1
		c0.1,0,0.3-0.1,0.4-0.2c0-0.1,0.1-0.2,0-0.3c0-0.1-0.1-0.2-0.2-0.3c-0.1-0.1-0.2-0.1-0.3-0.1c-0.1,0-0.2,0-0.3,0
		c0-0.2-0.1-0.4-0.3-0.6c-0.3-0.2-0.4-0.2-0.6,0c-0.1,0.1-0.1,0.2,0,0.3c0.1,0.1,0.1,0.3,0.2,0.4c0,0-0.1,0.1-0.2,0
		c-0.1,0-0.2-0.1-0.2-0.1c-0.1-0.1-0.2-0.3-0.2-0.5c0-0.2,0-0.4,0-0.5l1.1-1.2c0-0.1-0.1-0.3-0.1-0.4l-1.7,2
		c-0.2-0.2-0.3-0.3-0.5-0.5C256.1,72.7,256.2,72.8,256.2,73z"/>
	<path d="M255,73.6c0.8,0.3,1.7,0.5,2.5,0.7c-0.3-0.2-0.5-0.4-0.8-0.6c-0.7-0.1-1.3-0.2-2-0.4L255,73.6z"/>
</g>
<text transform="matrix(1 0 0 1 202.9226 237.4387)" class="st8 st9">  </text>
<text transform="matrix(1 0 0 1 231.0849 217.7365)" class="st8 st3"> </text>
<text transform="matrix(1 0 0 1 379.4671 191.4386)" class="st8 st3">  </text>
<text transform="matrix(1 0 0 1 202.4898 256.042)" class="st8 st7">(    )</text>
<line class="st10" x1="203.1" y1="242.8" x2="336" y2="242.8"/>
<text id="barcode_x5F_text" transform="matrix(1 0 0 1 382.777 174.6045)" class="st6 st11">EC100000025BD</text>
<g id="barcode">
	<rect x="325.2" y="124.9" width="2.6" height="36"/>
	<rect x="329.1" y="124.9" width="1.3" height="36"/>
	<rect x="332.9" y="124.9" width="1.3" height="36"/>
	<rect x="339.4" y="124.9" width="2.6" height="36"/>
	<rect x="345.9" y="124.9" width="1.3" height="36"/>
	<rect x="348.5" y="124.9" width="3.9" height="36"/>
	<rect x="353.6" y="124.9" width="2.6" height="36"/>
	<rect x="360.1" y="124.9" width="1.3" height="36"/>
	<rect x="362.7" y="124.9" width="3.9" height="36"/>
	<rect x="367.8" y="124.9" width="3.9" height="36"/>
	<rect x="373" y="124.9" width="1.3" height="36"/>
	<rect x="376.9" y="124.9" width="2.6" height="36"/>
	<rect x="382.1" y="124.9" width="1.3" height="36"/>
	<rect x="384.6" y="124.9" width="3.9" height="36"/>
	<rect x="389.8" y="124.9" width="5.2" height="36"/>
	<rect x="396.3" y="124.9" width="2.6" height="36"/>
	<rect x="400.1" y="124.9" width="2.6" height="36"/>
	<rect x="405.3" y="124.9" width="2.6" height="36"/>
	<rect x="410.5" y="124.9" width="2.6" height="36"/>
	<rect x="414.4" y="124.9" width="2.6" height="36"/>
	<rect x="419.5" y="124.9" width="2.6" height="36"/>
	<rect x="424.7" y="124.9" width="2.6" height="36"/>
	<rect x="429.9" y="124.9" width="1.3" height="36"/>
	<rect x="438.9" y="124.9" width="1.3" height="36"/>
	<rect x="441.5" y="124.9" width="5.2" height="36"/>
	<rect x="448" y="124.9" width="1.3" height="36"/>
	<rect x="453.1" y="124.9" width="3.9" height="36"/>
	<rect x="458.3" y="124.9" width="1.3" height="36"/>
	<rect x="460.9" y="124.9" width="5.2" height="36"/>
	<rect x="467.3" y="124.9" width="1.3" height="36"/>
	<rect x="472.5" y="124.9" width="1.3" height="36"/>
	<rect x="475.1" y="124.9" width="2.6" height="36"/>
	<rect x="481.6" y="124.9" width="1.3" height="36"/>
	<rect x="484.1" y="124.9" width="2.6" height="36"/>
	<rect x="490.6" y="124.9" width="1.3" height="36"/>
	<rect x="495.8" y="124.9" width="1.3" height="36"/>
	<rect x="499.7" y="124.9" width="1.3" height="36"/>
	<rect x="504.8" y="124.9" width="2.6" height="36"/>
	<rect x="510" y="124.9" width="2.6" height="36"/>
	<rect x="516.5" y="124.9" width="3.9" height="36"/>
	<rect x="521.6" y="124.9" width="1.3" height="36"/>
	<rect x="524.2" y="124.9" width="2.6" height="36"/>
</g>
</svg>
