<?xml version="1.0" encoding="utf-8"?>
<!-- Generator: Adobe Illustrator 28.4.1, SVG Export Plug-In . SVG Version: 6.00 Build 0)  -->
<svg version="1.1" xmlns="http://www.w3.org/2000/svg" xmlns:xlink="http://www.w3.org/1999/xlink" x="0px" y="0px"
	 viewBox="0 0 432 288" style="enable-background:new 0 0 432 288;" xml:space="preserve">
<style type="text/css">
	.st0{fill:none;stroke:#000000;stroke-width:2;stroke-miterlimit:10;}
	.st1{opacity:0.05;}
	.st2{font-family:'BerlinSansFB-Reg';}
	.st3{font-size:9.8785px;}
	.st4{font-size:13.7593px;}
	.st5{fill-rule:evenodd;clip-rule:evenodd;}
	.st6{font-family:'ArialMT';}
	.st7{font-size:7.8202px;}
	.st8{font-family:'HelveticaLTStd-Roman';}
	.st9{font-size:13.8477px;}
</style>
<g id="bg">
	<g>
		<path class="st0" d="M421.51,270.3c0,4.36-3.56,7.92-7.92,7.92H18.41c-4.36,0-7.92-3.56-7.92-7.92V17.7
			c0-4.36,3.56-7.92,7.92-7.92h395.18c4.36,0,7.92,3.56,7.92,7.92V270.3z"/>
	</g>
</g>
<g id="watermark" class="st1">
	<g>
		<g>
			<g>
				<path d="M199.16,83.05c0,0-12.32,2.75-11.98-3.55c0.17-2.12,1.43-2.92,2.64-2.69c0.06-1.15-2.41-4.47,2.98-5.79
					c1.89-2.58,3.44-4.64,3.95-6.25c0.52-1.6,2.01-3.78,6.88-2.75c4.87,1.03,10.14,5.73,10.89,7.11c2.86,0.06,5.85,0.52,4.76,1.09
					c-1.09,0.57-1.72,1.66-1.49,1.83c0.23,0.17,1.78,1.03-3.21,1.15c0.17,1.03,1.12,1.32,1.99,1.83c0.87,0.52-0.24,1.15,0,1.38
					c0.24,0.23,0.7,2.64-1.82,1.66c-2.52-0.97-2.69-1.83-3.38-1.72c-0.69,0.11-2.52,0.4-2.24,1.09c0.29,0.69,2.75,2.29-0.4,2.87
					c-0.63,0.57,0.97,1.49-0.23,1.95c-1.2,0.46-6.48,4.59-9,5.62c-2.47,0-3.27-0.69-3.04-1.72c0.23-1.03,1.32-1.78,2.92-1.95
					C199.39,83.51,199.55,82.97,199.16,83.05z"/>
			</g>
			<g>
				<path d="M198.07,96.18c-1.2,0.06-4.7-2.35-2.87-3.67c1.83-1.32,10.09-6.65,11.92-7.16c1.83-0.52,4.24,1.89,2.01,3.73
					C206.89,90.9,198.07,96.18,198.07,96.18z"/>
			</g>
			<g>
				<path d="M210.85,90.22c-0.21-1.28,1.26-6.59,1.38-7.62c0.11-1.03,4.18-1.49,3.21,2.98C214.46,90.04,211.08,91.59,210.85,90.22z"
					/>
			</g>
			<g>
				<path d="M216.56,80.65c0,0,22.91-1.02,24.8,0c1.89,1.02,9.74,13.23,7.85,23.99c-1.89,10.76-5.23,13.52-20.06,15.26
					c-0.29-3.49-0.79-12.49-2.24-14.93c-1.45-2.44-6.42-8.09-8.71-8.02c0,2.52-0.46,10-0.46,10s-7.33,0.54-8.32-0.99
					c-0.15-2.83,0-11.22,0-11.22s6.8-5.96,7.14-7.33c1.11,0.61,1.26,4.12,9.5,3.32C225.92,89.93,216.3,90.92,216.56,80.65z"/>
			</g>
			<g>
				<path d="M207.82,90.73c0,0-7.26,6.15-8.71,7.29c-0.76,1.99-1.6,8.17,7.87,8.25C207.59,102.45,207.82,90.73,207.82,90.73z"/>
			</g>
			<g>
				<path d="M190.41,100.05c-2.21-0.05-4.12-0.58-3.89-2.41c0.23-1.83,3.36-3.74,5.42-3.28c2.06,0.46,5.42,1.37,5.42,9.24
					c1.45,1.68,6.03,4.81,11.61,5.12c5.57,0.3,8.93-0.38,8.93,1.3c0,1.68,0,10.69,0,10.69s-6.66-0.23-23.22-11.84
					c-1.37-1.83-2.28-2.98-2.13-5.73C192.4,101.38,191.17,100.07,190.41,100.05z"/>
			</g>
			<g>
				<path d="M185.41,101.3c-2.76-0.11-10.77,6.66-4.84,9.44c1.69-1.45,3.15-3.25,3.15-3.25s-1.45,3.85,1.7,4.82
					c3.15,0.97,1.94-1.94,3.63-1.82c0.97,1.57,1.21,2.54,2.78,2.54c1.57-0.24,2.06-4.72,0-7.38
					C189.77,102.99,188.44,101.42,185.41,101.3z"/>
			</g>
			<g>
				<path d="M219.5,102.16v21.1c0,0,7.04-2.18,7.73-3.95C226.95,115.64,225.8,102.03,219.5,102.16z"/>
			</g>
			<g>
				<path d="M202.64,116.1c0,0,8.14,5.53,13.44,7.72c-0.74,0.94-4.25,5.46-5.45,5.11C209.43,128.57,203.11,120,202.64,116.1z"/>
			</g>
			<g>
				<polygon points="173.47,128.19 152.92,128.19 152.19,124.12 173.47,124.12 				"/>
			</g>
			<g>
				<polygon points="245.87,127.9 317.83,127.9 317.83,121.94 238.02,121.94 				"/>
			</g>
			<g>
				<path d="M229.02,121.54c0.85-0.88,6.24,3.57,4.7,4.38c-1.54,0.81-16.21,6.97-17.63,6.49c-1.42-0.49-0.95-4.22,0.48-4.95
					C217.99,126.73,226.42,124.22,229.02,121.54z"/>
			</g>
			<g>
				<path d="M212.72,131.52c-1.76-0.9-11.2,8.27-7.06,8.92c4.14,0.65,14.12,2.68,16.79,3.81c2.35-1.05,4.54-3,4.13-4.14
					c1.62,0.08,4.38,2.59,6.49,1.62c2.11-0.97,13.78-9.32,14.51-10.7c-2.35-2.03-7.46-4.97-9.57-4.88
					C235.91,126.25,220.34,135.41,212.72,131.52z"/>
			</g>
			<g>
				<path d="M207.77,143.11c1.05,0.05,12.97,4.54,15.97,3.97c3-0.57,3.57-3.49,5.27-3.32c1.7,0.16,2.51,1.7,5.35-0.08
					c2.84-1.78,7.94-6.24,8.76-7.3c0.16,1.87,0,6.97-11.03,11.92c-11.03,4.95-36.49,12.24-37.14,15.73
					c0.97,0.41,4.22-0.65,6.32-1.78c1.38,1.05,3.89,4.46,3.24,9.97c-0.65,5.51-4.86,15-4.86,17.67c0,2.68-0.24,14.43-0.08,15.65
					c0.16,1.22,2.19,7.95-1.05,7.46c-3.24-0.49-5.19-0.57-6.49-0.32c-1.3,0.24-3.89,2.35-6.16,2.03c-2.27-0.32-6.16-1.46-6-2.59
					c0.16-1.14,2.68-1.14,4.86-1.95c2.19-0.81,3.65-3.24,7.87-4.78c-0.16-2.84-1.41-23.25-1.41-27.62c0-4.36-1.45-13.23,0.44-17.01
					C193.53,156.97,203.26,142.91,207.77,143.11z"/>
			</g>
			<g>
				<path d="M223.33,155.37c-0.29,1.31,7.37,19.87,10.66,20.18c3.3,0.31,33.83-6.23,39.64-4.48c1.74,2.33,5.38,6.83,5.23,9.3
					c0,0,0.77,6.07,0.29,6.39c0.95,0.24,3.57-0.64,4.21-2.34c0.63-1.71,0.16-9.89,0.4-11.32c0.24-1.43,3.85-8.74-1.07-8.62
					c-4.92,0.12-19.14,0.11-23.7-1.13c-4.56-1.24-14.94-3.15-17.51-1.83c-2.57,1.33-5.56,5.56-5.56,6.72
					c-1.08,0.25-1.41-0.83-0.33-3.98c1.08-3.15,4.81-12.61,4.4-17.67C236.26,147.93,223.33,155.37,223.33,155.37z"/>
			</g>
			<g>
				<path d="M205.96,126.15c0.32,0.86,0.81,2.4,1.7,3.13l-24.47-1.56c0,0-2.84-1.76-1.7-2.17L205.96,126.15z"/>
			</g>
			<g>
				<path d="M179.06,124.12h24.47c0,0-2.03-2.78-2.51-4.56c-4.3,0-22.58,0.35-22.58,0.35s-2.62-0.19-2.62,4.59
					C175.82,125.79,177.76,127.71,179.06,124.12z"/>
			</g>
			<g>
				<path d="M145.75,128.19h5.02c0,0,1.62-0.69,0-2.64c-1.62-1.94-4.78-3-2.51-6.4c-2.35-0.41-5.83-1.13-5.27,6.4
					c-1.05,0-2.43,0-2.43,0s-0.89-4.29-6.48-4.29c-5.59,0-19.53,5.75-19.53,5.75s15.64,4.29,19.61,4.29c3.97,0,6.56-3.89,6.56-3.89
					h1.94c0,0,0.89,2.92,1.87,4.21c0,2.03,0.08,4.75,0.08,4.75s-2.35,0.84-2.02,3.68c0.32,2.84,1.86,2.76,2.35,2.76
					s1.13-0.89,3.08-0.89c0.97-0.97,0.33-4.45-1.54-5.19c0-1.62-0.16-3.4-0.16-3.4s2.03-1.28,1.78-2.47
					C147.86,129.68,145.75,129.77,145.75,128.19z"/>
			</g>
			<g>
				<g>
					<path d="M185.32,151.86l0.15-0.09c1.58-0.94,2.23-3.32,2.26-3.42l0.02-0.09l0-0.09c0-0.11-0.21-11.16-0.21-14.41
						c0-3.69-6.22-6.08-6.48-6.18l-0.37-0.14l-0.3,0.27c-0.54,0.49-2.21,1.78-3.4,1.78c-1.54,0-2.43-0.24-3.94-1.75l-0.19-0.19
						h-0.27c-5.01,0-7.44,6.02-7.54,6.28l-0.05,0.22c-0.05,1.18-0.43,11.54,0.02,13.32c0.38,1.51,1.67,3.13,2.22,3.76
						c-1,3.52-6.1,22.64,0.73,25.05v3.27h16.41v-3.43C190.63,173.16,186.64,156.68,185.32,151.86z M166.31,134.19
						c0.31-0.72,2.37-5.14,6.02-5.35c1.7,1.63,2.92,1.94,4.66,1.94c1.55,0,3.26-1.26,3.96-1.85c1.75,0.73,5.28,2.66,5.28,4.82
						c0,3.09,0.19,13.23,0.21,14.33c-0.17,0.57-0.69,1.87-1.5,2.46l-3.26-0.05v-6.25h-11.14v6.08l-2.28-0.04
						c-0.46-0.53-1.66-2.01-1.97-3.26C166,145.83,166.14,138.74,166.31,134.19z M177.76,173.4h-2.98c-0.72,0-1.31-0.59-1.31-1.31
						c0-0.72,0.59-1.31,1.31-1.31h2.98c0.72,0,1.31,0.59,1.31,1.31C179.07,172.81,178.48,173.4,177.76,173.4z M183.93,174.75
						l-8.05-9.01l-7.42,9.21l0.01-0.02c-4.98-1.63-1.8-16.96,0-23.34l15.5,0.24C185.73,158.17,188.58,172.44,183.93,174.75z"/>
				</g>
				<g>
					<path d="M181.73,158.19c1.82-2.65-0.5-4.47-0.5-4.47s-6.57,0-9.66,0c-3.09,0-2.1,4.3-2.1,4.3l6.12,5.22
						C175.61,163.25,179.91,160.84,181.73,158.19z"/>
				</g>
				<g>
					<path d="M177.7,164.26l5.79,6.95c0,0-0.61-8.22-0.83-10.92C181.29,160.5,177.7,164.26,177.7,164.26z"/>
				</g>
				<g>
					<path d="M169.21,160.28c-0.22,2.7-0.83,10.92-0.83,10.92l5.79-6.95C174.17,164.26,170.58,160.5,169.21,160.28z"/>
				</g>
				<g>
					<path d="M180.68,142.35h1.01v-1.01c0-0.56-0.45-1.01-1.01-1.01h-9.12c-0.56,0-1.01,0.45-1.01,1.01v1.01h1.01H180.68z"/>
				</g>
				<g>
					<path d="M167.39,180.38h-1.09v1.09c0,0.6,0.49,1.09,1.09,1.09h17.02c0.6,0,1.09-0.49,1.09-1.09v-1.09h-1.09H167.39z"/>
				</g>
			</g>
		</g>
		<g>
			<path d="M216,276.02c-25.87,0-51.36-6.73-73.72-19.45c-21.68-12.34-40.08-30.07-53.24-51.28l-0.96-1.55l1.59-0.89
				c0.09-0.05,8.49-4.82,13.2-11.28c-3.29-1.21-5.67-3.52-6.82-6.68c-0.88-2.44-0.66-4.8,0.63-6.64c1.27-1.81,3.4-2.89,5.71-2.89
				c1.9,0,3.64,0.74,4.91,2.09c1.08,1.14,2.31,3.28,2.09,6.95c-0.09,1.52-0.46,3.06-1.09,4.62c4.94,0.1,10.62-2.17,15.59-6.1
				l1.52-1.2l1.04,1.64c19.57,30.88,53.04,49.32,89.55,49.32c36.5,0,69.98-18.44,89.55-49.32l1.04-1.64l1.52,1.2
				c4.9,3.88,10.51,6.1,15.38,6.1c0.07,0,0.14,0,0.22,0c-0.63-1.56-1-3.11-1.09-4.62c-0.23-3.67,1.01-5.81,2.09-6.95
				c1.27-1.35,3.01-2.09,4.91-2.09c2.31,0,4.44,1.08,5.71,2.89c1.29,1.84,1.51,4.2,0.63,6.64c-1.15,3.16-3.52,5.47-6.82,6.68
				c4.71,6.47,13.1,11.23,13.2,11.28l1.59,0.89l-0.96,1.55c-13.15,21.21-31.56,38.95-53.24,51.28
				C267.36,269.29,241.87,276.02,216,276.02z M92.95,204.94c26.95,42.36,72.82,67.59,123.05,67.59s96.1-25.23,123.05-67.59
				c-3.03-1.91-9.7-6.55-13.55-12.5l-0.04,0.01l-0.02-0.04c-0.64,0.07-1.29,0.1-1.96,0.1c-5.21,0-10.83-2.01-16.01-5.7
				c-20.34,30.94-54.39,49.36-91.47,49.36c-37.08,0-71.13-18.41-91.47-49.36c-5.18,3.69-10.8,5.7-16.01,5.7
				c-0.67,0-1.32-0.03-1.96-0.1l-0.03,0.04l-0.04-0.01C102.65,198.39,95.98,203.03,92.95,204.94z M102.4,178.84
				c-1.16,0-2.25,0.54-2.86,1.4c-0.63,0.9-0.7,2.09-0.2,3.45c0.85,2.34,2.74,4.01,5.39,4.81c0.71-1.49,1.11-2.94,1.2-4.32
				c0.12-1.92-0.28-3.43-1.15-4.35C104.17,179.19,103.33,178.84,102.4,178.84z M329.6,178.84c-0.93,0-1.77,0.35-2.37,0.99
				c-0.87,0.92-1.26,2.43-1.15,4.35c0.08,1.38,0.49,2.83,1.19,4.32c2.65-0.79,4.54-2.47,5.39-4.81c0.49-1.36,0.42-2.56-0.21-3.45
				C331.85,179.38,330.76,178.84,329.6,178.84z"/>
		</g>
		<g>
			<path d="M315.25,184.39l-1.51-0.88c9.99-17.17,15.28-36.8,15.28-56.77c0-62.32-50.7-113.02-113.02-113.02
				s-113.02,50.7-113.02,113.02c0,19.97,5.28,39.6,15.28,56.77l-1.51,0.88c-10.15-17.44-15.51-37.37-15.51-57.65
				c0-63.28,51.48-114.76,114.76-114.76s114.76,51.48,114.76,114.76C330.76,147.02,325.4,166.95,315.25,184.39z"/>
		</g>
		<g>
			<path d="M310.81,181.4l-3.02-1.75c9.25-16.02,14.15-34.31,14.15-52.92c0-58.41-47.52-105.93-105.93-105.93
				S110.07,68.33,110.07,126.74c0,18.6,4.89,36.9,14.14,52.91l-3.02,1.75c-9.56-16.55-14.61-35.45-14.61-54.66
				c0-60.33,49.09-109.42,109.42-109.42c60.33,0,109.42,49.09,109.42,109.42C325.42,145.96,320.37,164.86,310.81,181.4z"/>
		</g>
		<g>
			<g>
				<g>
					<path d="M127.76,211.21c-3.67-3.84-7.1-7.92-10.25-12.2l-0.18,2.23c2.26,2.99,4.66,5.88,7.18,8.65l-0.73,0.66
						c-3.09-1.95-6.45-3.67-10.13-5.26c-0.23,1.14-0.44,2.29-0.63,3.45c1.1,1.56,1.81,3.04,2.12,4.47c0.26,1.11,0.31,2.4,0.15,3.9
						c-0.2,1.39-0.37,2.8-0.53,4.21l10.9-10.18c0.73,0.78,1.47,1.55,2.22,2.32L127.76,211.21z M115.39,208.73
						c2.62,1.1,4.84,2.19,6.7,3.35l-5.63,5.11C116.93,214.64,116.54,211.84,115.39,208.73z"/>
				</g>
				<g>
					<path d="M132.53,215.92l-1.01-0.96c-0.01-0.46,0.06-0.86,0.18-1.2l0.62-1.01l-0.12-0.77c-1.69,1.72-3.02,3.37-3.96,4.98
						c0.59-1.41,0.89-2.4,0.89-2.98c0.03-0.97-0.46-1.98-1.48-3.04c-0.31-0.33-0.66-0.66-1.04-0.98l0.16,2.27
						c0.78,0.7,1.22,1.49,1.34,2.38c0.12,0.9-0.12,1.66-0.72,2.28l-7.6,7.73l0.25,2.34l10.5-10.96c0.75,0.72,1.52,1.44,2.29,2.14
						L132.53,215.92z"/>
				</g>
				<g>
					<path d="M135.1,226.73c0.99-0.06,1.75-0.44,2.28-1.11c0.57-0.71,0.76-1.56,0.61-2.55c-0.15-0.99-0.62-1.81-1.42-2.49
						c-0.75-0.63-1.63-0.95-2.68-0.94c-1.03,0-1.84,0.31-2.39,0.92c-0.59,0.66-0.81,1.51-0.65,2.56c0.18,1.05,0.68,1.95,1.53,2.66
						C133.21,226.48,134.12,226.78,135.1,226.73z M132.35,237.4c-0.97-5.72-1.72-10.06-2.65-13.15l-2.17,2.44
						c1.56,4.18,2.95,8.08,4.06,11.69L132.35,237.4z M134.6,224.75c-0.84-0.01-1.58-0.29-2.21-0.83c-0.52-0.45-0.55-0.95-0.08-1.49
						c0.43-0.49,1.08-0.75,1.92-0.78c0.84-0.03,1.56,0.18,2.14,0.68c0.59,0.49,0.63,1.03,0.13,1.64
						C136.07,224.49,135.44,224.76,134.6,224.75z"/>
				</g>
				<g>
					<path d="M154.64,232.39c-5.24-3.05-10.25-6.49-14.98-10.29c0.16,0.75,0.31,1.51,0.48,2.26c3.58,2.79,7.32,5.38,11.18,7.76
						l-2.08,3.37c0.29-1.79-0.14-3.04-1.3-3.8c-0.33-0.21-0.82-0.3-1.47-0.24c-0.65,0.05-1.07,0.21-1.26,0.49
						c-0.26-1.6-0.98-2.81-2.19-3.68c-0.94-0.68-1.96-0.88-3.09-0.6c-0.98,0.25-1.79,0.76-2.4,1.57c-0.73,0.95-0.94,2-0.62,3.16
						c0.32,1.17,1.12,2.22,2.39,3.11c0.54,0.39,1.14,0.62,1.77,0.7c0.75,0.09,1.25-0.07,1.52-0.47c0.32-0.48,0.45-1.05,0.39-1.71
						c-0.06-0.66-0.37-1.17-0.91-1.56c-0.43-0.3-0.9-0.45-1.42-0.43c-0.51,0.01-0.89,0.19-1.14,0.53c-0.23,0.31-0.31,0.72-0.24,1.22
						c-1.19-1.12-1.44-2.12-0.79-3c0.44-0.58,1.05-0.88,1.86-0.91c0.8-0.03,1.56,0.22,2.3,0.73c0.73,0.52,1.27,1.19,1.62,2.03
						c0.35,0.84,0.41,1.59,0.16,2.27l0.76,0.23c0.15-0.36,0.3-0.65,0.43-0.86c0.5-0.75,1.14-0.88,1.93-0.37
						c0.46,0.3,0.8,0.74,1,1.33c0.2,0.59,0.19,1.08-0.04,1.45l-4.2,6.82l0.91,2.21l7.58-12.71c0.88,0.52,1.76,1.04,2.65,1.54
						C155.18,233.83,154.9,233.12,154.64,232.39z"/>
				</g>
				<g>
					<path d="M160.86,235.78l-1.24-0.64c-0.13-0.44-0.19-0.84-0.16-1.2l0.32-1.14l-0.33-0.7c-1.14,2.12-1.96,4.08-2.41,5.89
						c0.17-1.52,0.19-2.56,0.02-3.11c-0.24-0.94-1-1.77-2.27-2.51c-0.39-0.23-0.82-0.44-1.28-0.65l0.79,2.14
						c0.94,0.45,1.58,1.09,1.96,1.91c0.37,0.83,0.35,1.63-0.06,2.39l-5.14,9.55l0.9,2.17l7.02-13.46c0.93,0.48,1.86,0.96,2.8,1.41
						C161.45,237.15,161.15,236.46,160.86,235.78z"/>
				</g>
				<g>
					<path d="M169.87,239.89c-3.28-1.34-6.5-2.82-9.65-4.44l0.86,2.09c1.55,0.77,3.13,1.51,4.71,2.22
						c-3.05,1.14-5.17,2.72-6.22,4.91c-0.75,1.56-0.99,3.16-0.67,4.82c0.37,2,1.55,3.44,3.49,4.26c0.85,0.36,1.68,0.46,2.47,0.29
						c0.79-0.17,1.31-0.57,1.56-1.2c0.27-0.7,0.1-1.34-0.53-1.92c-0.15-0.29-0.44-0.51-0.85-0.69c-0.5-0.21-1.04-0.26-1.61-0.16
						c-0.57,0.1-0.94,0.33-1.1,0.71c-0.22,0.51-0.09,1.16,0.42,1.91l-0.47-0.07c-1.03-0.45-1.7-1.33-1.97-2.67
						c-0.22-1.16-0.13-2.15,0.26-2.99c0.94-2.03,2.26-3.46,3.91-4.32c1.84-1,3.96-1.24,6.42-0.79L169.87,239.89z"/>
				</g>
				<g>
					<path d="M185.18,244.98c-5.39-1.4-10.69-3.18-15.84-5.31l1.07,2.02l1.83,0.71l-2.92,7.71c0.54,0.91,1.08,1.82,1.64,2.72
						c1.04-0.98,2.33-1.73,3.88-2.27c1.54-0.54,3.15-0.8,4.84-0.78c-0.77,1.18-1.32,2.29-1.64,3.34c-0.38,1.27-0.61,3.32-0.61,6.12
						l1.15,0.84c0.09-2.02,0.27-3.48,0.53-4.39c0.57-2,2-3.96,4.17-5.96c-0.83-0.87-1.65-1.75-2.45-2.63
						c-1.33,0.06-2.82,0.28-4.52,0.66c-1.44,0.36-2.9,0.69-4.4,0.99l2.06-5.71c4.11,1.48,8.29,2.74,12.53,3.79L185.18,244.98z"/>
				</g>
				<g>
					<path d="M203,248.22c-1.11-0.22-1.67-0.86-1.68-1.91c-0.33-0.39-0.64-0.72-0.91-0.99c-0.17,1.8-0.29,4.28-0.32,7.42
						c-0.2-0.68-0.75-1.67-1.61-3.01c-0.98-1.5-1.7-2.3-2.24-2.39c-0.88-0.13-1.75-0.01-2.64,0.41c-0.76,0.35-1.42,0.85-1.97,1.49
						c-0.02-0.73-0.36-1.44-1.01-2.13c-0.65-0.68-1.39-1.13-2.23-1.32c-1.18-0.28-2.36-0.57-3.54-0.87l1.29,1.85
						c1.48,0.34,2.39,0.58,2.73,0.73c0.81,0.38,1.33,1.04,1.56,1.99c-0.79,0.04-1.56,0.29-2.3,0.77c-0.75,0.48-1.2,1.04-1.35,1.67
						c-0.12,0.5-0.02,1.01,0.3,1.5c0.32,0.49,0.79,0.81,1.41,0.95c0.59,0.12,1.19,0.07,1.79-0.15c0.6-0.22,1.06-0.55,1.38-0.95
						c0.53,1.17,1.34,1.84,2.39,2.02c1.53,0.25,2.39-0.25,2.58-1.49c0.09-0.57-0.13-1.16-0.63-1.77c-0.26-0.3-0.79-0.77-1.54-1.46
						c0.05-0.3,0.33-0.53,0.83-0.68c0.43-0.15,0.83-0.19,1.23-0.13c0.6,0.1,1.22,0.62,1.89,1.59c0.67,0.97,0.99,1.71,0.92,2.24
						l-1.35,8.88l1.8,1.7l1.72-14.7c1.01,0.12,2.03,0.22,3.05,0.32L203,248.22z"/>
				</g>
				<g>
					<path d="M229.45,248.17c-5.99,0.65-12.04,0.87-18.07,0.65c0.55,0.52,1.11,1.02,1.67,1.53c2.33,0.05,4.67,0.05,7-0.03
						c0.01,0.13-0.01,0.59-0.04,1.36c-0.03,0.77-0.05,1.41-0.03,1.9c0.09,3.01,1.04,4.5,2.86,4.41c0.76-0.04,1.72-0.44,2.86-1.21
						c1.14-0.77,1.77-1.45,1.91-2.03c0.72,0.52,1.12,1.08,1.18,1.72c0.1,1.03-0.41,1.98-1.56,2.81c-1.03,0.77-2.25,1.19-3.65,1.27
						c-2.49,0.14-4.56-0.89-6.1-3.03c-1.21-1.66-1.89-3.61-2.09-5.83l-1.01-0.47c0.41,4.02,1.4,7.05,3.01,9.04
						c1.6,1.99,3.83,2.95,6.57,2.79c2.18-0.13,3.82-0.79,4.9-1.94c1.01-1.09,1.4-2.46,1.22-4.13c-0.09-0.88-0.48-1.77-1.15-2.67
						c-0.74-0.95-1.58-1.56-2.52-1.83c-0.6,0.71-1.21,1.4-1.84,2.08c-0.81,0.81-1.68,1.22-2.59,1.28l-0.26-5.57
						c3.2-0.15,6.4-0.42,9.58-0.81L229.45,248.17z"/>
				</g>
				<g>
					<path d="M236.64,247.17l-1.38,0.22c-0.37-0.27-0.65-0.56-0.84-0.86l-0.42-1.11l-0.69-0.37c0.34,2.39,0.86,4.44,1.57,6.17
						c-0.77-1.33-1.37-2.17-1.84-2.51c-0.76-0.62-1.86-0.82-3.32-0.67c-0.45,0.05-0.92,0.13-1.41,0.24c0.63,0.43,1.26,0.84,1.9,1.25
						c1.03-0.19,1.92-0.08,2.71,0.38c0.79,0.45,1.25,1.09,1.38,1.95l1.55,10.73c0.67,0.41,1.34,0.82,2.01,1.22l-2.37-14.99
						c1.03-0.16,2.06-0.34,3.09-0.53L236.64,247.17z"/>
				</g>
				<g>
					<path d="M255.23,242.46c-6.29,2.14-12.75,3.74-19.3,4.82c0.65,0.4,1.3,0.77,1.96,1.16c3.44-0.62,6.86-1.37,10.23-2.28
						l0.29,1.09c-3.19,1.8-6.07,3.9-8.71,6.41c0.96,0.65,1.94,1.3,2.93,1.92c4.28-0.5,7.63,0.69,10.27,3.84l0.81,0.31l-3.15-11.13
						l0.47-0.16c1.14-0.37,2.3-0.35,3.5,0.05c1.2,0.41,1.97,1.08,2.28,2.03l-0.02,0.28c-0.57-0.32-1.2-0.37-1.92-0.14
						c-0.3,0.1-0.62,0.24-0.96,0.45c-0.52,0.62-0.71,1.19-0.55,1.71c0.14,0.46,0.49,0.79,1.06,0.98c0.57,0.19,1.16,0.2,1.75,0
						c0.83-0.26,1.43-0.74,1.79-1.43c0.36-0.69,0.43-1.36,0.21-2.02c-0.45-1.33-1.47-2.38-3-3.18c-1.62-0.85-3.2-1.04-4.82-0.58
						l-0.33,0.1l-0.28-0.97c2.54-0.72,5.06-1.52,7.55-2.41L255.23,242.46z M243.37,253.38c2.07-1.84,3.88-3.3,5.53-4.35l1.98,7.4
						C248.92,254.74,246.43,253.76,243.37,253.38z"/>
				</g>
				<g>
					<path d="M279.11,228.43c-4.16-0.7-7.56-0.38-10.48,1.12c-1.18,0.61-2.17,1.62-3.01,3.06c-0.87,1.52-1.1,2.79-0.63,3.85
						c0.14,0.32,0.49,0.57,1.04,0.76l1.36,0.36c-1.33,0.61-2.67,1.21-4.02,1.78c0.71,0.24,1.42,0.46,2.14,0.68l2.31-1.04l5.55,11.99
						l2.37,0.45l-6.33-13.19c0.89-0.43,1.78-0.86,2.66-1.32c-0.74-0.18-1.46-0.35-2.19-0.55l-1.62,0.78l-1.15-0.93
						c-0.35-0.91-0.05-2,0.85-3.32c0.81-1.23,1.71-2.12,2.73-2.66c1.44-0.76,2.95-1.19,4.56-1.31c0.58-0.05,2.12,0.01,4.66,0.06
						L279.11,228.43z"/>
				</g>
				<g>
					<path d="M283.15,228.8c-4.43,2.93-9.07,5.56-13.84,7.88l2.16,0.58c3.34-1.69,6.62-3.52,9.79-5.5l0.52,0.83
						c-2.47,2.7-4.77,5.68-6.99,9.03c1.08,0.43,2.17,0.83,3.28,1.24c1.73-0.81,3.32-1.23,4.78-1.28c1.14-0.06,2.42,0.12,3.86,0.56
						c1.33,0.44,2.69,0.88,4.05,1.28l-8.06-12.55c0.9-0.57,1.79-1.17,2.68-1.77L283.15,228.8z M278.49,240.52
						c1.56-2.37,3.03-4.37,4.5-5.99l4.02,6.45C284.58,240.07,281.76,239.96,278.49,240.52z"/>
				</g>
				<g>
					<path d="M297.08,218.11c-4.6,4.09-9.51,7.83-14.67,11.18l2.27,0.27c5.19-3.47,10.11-7.33,14.71-11.55
						C298.62,218.05,297.84,218.08,297.08,218.11z M299.94,222.18c-1.6-0.35-2.65-0.31-3.19,0.12l-0.04,0.11
						c0.16,0.59,0.16,1.42-0.04,2.48c-0.2,1.17-0.55,1.95-1.03,2.35l-0.09,0c0.03-0.76-0.08-1.29-0.32-1.6
						c-0.3-0.38-0.73-0.56-1.29-0.54c-0.55,0.01-1.06,0.2-1.52,0.55c-0.68,0.53-1.1,1.1-1.27,1.73c-0.17,0.63-0.05,1.23,0.36,1.79
						c0.53,0.71,1.29,1.05,2.3,0.99c0.93-0.04,1.85-0.43,2.74-1.13c0.97-0.76,1.67-1.57,2.11-2.41c0.4-0.76,0.64-1.71,0.71-2.83
						l0.06-0.09c0.21-0.19,0.59-0.13,1.13,0.16c0.43,0.24,0.75,0.48,0.97,0.73c0.65,0.74,0.83,1.74,0.51,3.02
						c-0.32,1.27-0.98,2.32-1.97,3.12c-2.03,1.64-4.43,2.28-7.07,1.87c-2.04-0.32-4.04-1.21-5.99-2.64l-1.08,0.39
						c3.07,2.12,5.39,3.39,6.89,3.88c3.17,1.01,6.07,0.53,8.5-1.42c1.71-1.39,2.69-3.04,2.92-4.9c0.22-1.75-0.27-3.27-1.42-4.54
						C302.39,222.89,301.42,222.51,299.94,222.18z"/>
				</g>
				<g>
					<path d="M302.36,213.13l-0.99,0.98c-0.46-0.01-0.85-0.08-1.19-0.21l-0.98-0.66l-0.78,0.1c1.66,1.74,3.27,3.13,4.85,4.13
						c-1.39-0.64-2.38-0.98-2.95-0.99c-0.97-0.07-1.99,0.4-3.09,1.38c-0.34,0.3-0.67,0.64-1.01,1.01c0.76-0.02,1.51-0.05,2.27-0.08
						c0.73-0.75,1.52-1.18,2.43-1.26c0.9-0.09,1.65,0.17,2.25,0.79l7.48,7.85l2.34-0.17l-10.61-10.85c0.75-0.73,1.49-1.47,2.22-2.22
						L302.36,213.13z"/>
				</g>
				<g>
					<path d="M313.52,200.41l-0.33,0.43c-0.6,0.78-1.3,0.85-2.1,0.22l-0.28-0.35l-1.28,0.27c0.83,0.66,1.92,1.46,3.28,2.38
						l3.37,2.26c-1.83-0.6-3.22-0.85-4.18-0.75c-1.37,0.13-2.66,0.91-3.91,2.35c-0.95,1.08-1.56,2.24-1.87,3.53
						c-0.33,1.45-0.08,2.59,0.76,3.4c0.32,0.31,0.78,0.48,1.39,0.49c0.61,0.02,1.09-0.16,1.45-0.55c0.25-0.26,0.5-0.84,0.77-1.74
						c0.27-0.9,0.48-1.45,0.67-1.66c0.43-0.47,0.79-0.58,1.11-0.3c0.22,0.19,0.34,0.98,0.32,2.39c0,1.22-0.08,2.14-0.2,2.76
						c0.94-0.1,1.89-0.2,2.83-0.32c0.12-3.2-0.34-5.14-1.2-5.86c-0.62-0.52-1.32-0.66-2.12-0.45c-0.72,0.22-1.41,0.71-2.08,1.45
						c-0.43,0.49-0.82,1.12-1.14,1.91c-0.56-1.53-0.2-2.98,1.03-4.41c0.85-0.98,2.05-1.48,3.64-1.54c1.49-0.08,2.68,0.2,3.55,0.9
						l5.8,4.83c0.97-0.15,1.95-0.31,2.92-0.49l-11.93-9.24c0.64-0.82,1.25-1.64,1.87-2.47L313.52,200.41z"/>
				</g>
			</g>
		</g>
		<g>
			<g>
				<g>
					<path d="M155.54,53.42c-1.72,1.42-2.58,3.32-2.53,5.56c0.04,1.95,0.65,3.48,1.75,4.61c1,1.03,2.22,1.66,3.63,1.93
						c1.7,0.3,3.17-0.1,4.5-1.23c0.56-0.48,0.92-1.04,1.09-1.7c0.17-0.66,0.09-1.21-0.26-1.65c-0.19-0.24-0.51-0.38-0.96-0.43
						c-0.45-0.04-0.83,0.06-1.14,0.31c-0.61,0.5-0.99,0.93-1.15,1.28c-0.19,0.45-0.09,0.89,0.28,1.31c0.21,0.24,0.67,0.3,1.39,0.19
						l-0.02,0.08c-0.94,0.81-1.98,1.08-3.16,0.82c-0.96-0.21-1.79-0.67-2.49-1.41c-1.1-1.18-1.64-2.66-1.53-4.47
						c0.13-2,1.05-3.84,2.77-5.4L155.54,53.42z"/>
				</g>
				<g>
					<path d="M171.21,42.91c-5.77,3.09-11.21,6.78-16.23,10.98c1.38-0.16,2.19-0.28,2.42-0.41c0.84,0.09,1.76-0.21,2.81-0.88
						c1.38-0.88,2.22-1.33,2.49-1.4c0.93-0.25,1.8,0.1,2.62,1.01c-0.47,2.25-0.8,3.49-1.15,3.74c-0.29,0.21-0.7,0.26-1.24,0.14
						c-0.47-0.1-0.82-0.25-1.03-0.45l-0.42,1.29c1.8,0.5,2.93,0.65,3.45,0.38c0.21,0.02,0.61-0.18,1.2-0.6
						c0.57-0.41,0.95-1.08,1.15-2.02c0.11-0.83,0.25-1.66,0.42-2.49c0.19-0.92,0.58-1.57,1.17-1.93c0.37-0.23,0.9-0.36,1.56-0.39
						c0.67-0.02,1.07,0.09,1.21,0.34l2.77,4.76c0.68,0.13,1.35,0.27,2.02,0.42l-5.96-10.71c0.96-0.54,1.94-1.05,2.92-1.56
						L171.21,42.91z M169.14,48.87c-0.89-0.1-1.56,0-2.01,0.29c-0.18,0.11-0.43,0.42-0.76,0.94l-0.69,1.08l-0.33-0.49
						c-0.44-0.66-1.52-0.93-3.26-0.73c2.22-1.56,4.5-3.02,6.84-4.38l2.12,3.64C170,48.99,169.36,48.89,169.14,48.87z"/>
				</g>
				<g>
					<path d="M186.12,36.5c-5.4,1.79-10.63,4.06-15.61,6.79l2.14,0.24c3.46-1.81,7.04-3.4,10.7-4.76l0.28,0.76
						c-3.1,2.02-5.83,4.56-8.07,7.51c0.98,0.31,1.95,0.64,2.9,0.99c1.61-0.66,3.07-0.94,4.35-0.85c1,0.05,2.08,0.35,3.21,0.91
						c1.04,0.56,2.06,1.13,3.06,1.73l-4.08-11.65c1.05-0.37,2.11-0.72,3.18-1.05L186.12,36.5z M179.06,46.06
						c1.68-1.98,3.46-3.57,5.23-4.75l2.19,5.9C184.61,46.08,182.12,45.64,179.06,46.06z"/>
				</g>
				<g>
					<path d="M193.01,34.51l-1.45,0.37c-0.4-0.17-0.71-0.37-0.94-0.59l-0.52-0.85l-0.78-0.18c0.55,1.92,1.25,3.53,2.08,4.86
						c-0.86-0.98-1.55-1.58-2.06-1.77c-0.84-0.37-2.02-0.32-3.52,0.18c-0.46,0.15-0.94,0.34-1.42,0.57l2.14,0.53
						c1.01-0.4,1.95-0.49,2.79-0.26c0.84,0.22,1.36,0.69,1.55,1.38l2.46,8.63l1.75,0.81l-3.22-12.14c1.05-0.28,2.11-0.54,3.18-0.78
						C194.38,34.99,193.7,34.75,193.01,34.51z"/>
				</g>
				<g>
					<path d="M209.54,31.92l-1.49,0.11c0.08-2.21-2.37-3.22-7.31-2.48c-0.5,0.08-1.23,0.24-2.19,0.49
						c-0.96,0.25-1.69,0.44-2.18,0.54c-0.62,0.13-1.21,0.14-1.8,0.05c-0.67-0.1-1.04-0.31-1.12-0.67c-0.1-0.41,0.12-0.81,0.67-1.17
						l-0.69,0.1c-0.25,0.04-0.5,0.27-0.73,0.69c-0.23,0.42-0.32,0.71-0.28,0.88c0.2,0.81,1,1.29,2.39,1.48
						c1.18,0.16,2.44,0.12,3.8-0.13l2.61-0.52c1.16-0.24,2.04-0.38,2.63-0.45c0.57-0.07,1.11-0.09,1.63-0.04
						c0.73,0.07,1.1,0.24,1.13,0.51c0.03,0.28-0.27,0.54-0.88,0.76c-0.47,0.18-0.96,0.3-1.46,0.36c-4,0.49-7.97,1.24-11.88,2.24
						l2.05,0.75c1.83-0.43,3.68-0.81,5.53-1.12c0.82,0.26,1.24,0.49,1.27,0.68l-0.03,0.05c-1,0.19-1.87,0.61-2.57,1.25
						c-0.71,0.64-0.98,1.29-0.85,1.94c0.07,0.34,0.33,0.57,0.77,0.71c0.45,0.13,0.92,0.15,1.44,0.06c0.76-0.14,1.44-0.48,2.05-1.04
						c0.61-0.56,0.89-1.09,0.81-1.63c0.27-0.12,0.54-0.2,0.82-0.23c0.7-0.09,1.28,0.03,1.76,0.37c0.47,0.34,0.73,0.76,0.78,1.25
						c0.07,0.65-0.52,1.27-1.73,1.89c-1.02,0.52-2.02,0.86-3.04,1.03c-1.76,0.3-3.38,0.3-4.91-0.02c0.88,0.83,1.74,1.66,2.57,2.51
						c2.39-0.05,4.72,0.25,6.94,0.91c2.27,0.69,4.16,1.69,5.68,2.9l-0.58-1.6c-2.78-1.75-5.24-2.84-7.19-3.37
						c1.82-1.04,2.87-1.58,3.06-1.72c0.98-0.71,1.44-1.52,1.37-2.45c-0.08-1-0.6-1.77-1.57-2.28c-0.5-0.25-1.42-0.54-2.8-0.81
						c-1.08-0.22-1.71-0.45-1.87-0.76c3.06-0.45,6.14-0.75,9.23-0.9C210.8,32.66,210.18,32.28,209.54,31.92z"/>
				</g>
				<g>
					<path d="M240.99,35.03c-7.17-1.95-14.57-3.05-21.99-3.28l1.76,1.29c5.7,0.29,11.39,1.09,16.95,2.41l-1.81,7.64
						c-0.36-0.89-0.74-1.78-1.14-2.66c0.11-0.19,0.19-0.39,0.24-0.61c0.23-1.06-0.12-2.15-1.11-3.25c-0.99-1.1-2.29-1.78-3.84-2.02
						c-0.87-0.13-1.63-0.1-2.28,0.07c-0.79,0.21-1.21,0.59-1.28,1.12c-0.05,0.48,0.19,0.9,0.73,1.28c0.53,0.38,1.14,0.62,1.82,0.72
						c1.16,0.17,1.99-0.11,2.53-0.86c0.53,0.07,0.92,0.44,1.15,1.08c0.21,0.53,0.27,1,0.18,1.42c-0.12,0.6-0.52,1.01-1.2,1.27
						c-0.68,0.26-1.45,0.31-2.3,0.18c-2.02-0.31-3.59-1.16-4.8-2.63c-0.68-0.8-1.44-2.21-2.35-4.19l-1.09-0.38
						c0.42,1.95,1.31,3.77,2.6,5.5c1.64,2.2,3.44,3.44,5.61,3.78c1.58,0.25,2.97-0.08,4.23-1.03c1.49,1.96,2.23,3.75,2.33,5.34
						l0.49,0.49l3.05-11.84c1,0.25,1.99,0.53,2.98,0.82C241.97,36.15,241.49,35.58,240.99,35.03z"/>
				</g>
				<g>
					<path d="M248.25,37.32l-1.41-0.5c-0.24-0.37-0.39-0.7-0.45-1.01l0.04-1l-0.54-0.58c-0.61,1.9-0.93,3.63-0.97,5.19
						c-0.16-1.29-0.41-2.18-0.73-2.62c-0.49-0.77-1.5-1.39-3.02-1.81c-0.47-0.13-0.97-0.24-1.5-0.32c0.5,0.54,1,1.09,1.49,1.63
						c1.06,0.23,1.89,0.68,2.47,1.34c0.58,0.65,0.74,1.33,0.52,2.01l-2.76,8.54c0.35,0.55,0.68,1.1,1.01,1.65l4.08-11.88
						c1.03,0.36,2.06,0.72,3.08,1.12C249.11,38.49,248.69,37.9,248.25,37.32z"/>
				</g>
				<g>
					<path d="M263.75,44.56c-5.15-3-10.59-5.51-16.21-7.49c0.45,0.59,0.89,1.18,1.32,1.78l1.91,0.74l-2.53,6.34
						c0.49,0.79,0.96,1.58,1.41,2.37c0.94-0.74,2.12-1.26,3.57-1.5c1.44-0.24,2.96-0.18,4.52,0.21c-0.87,0.81-1.5,1.62-1.91,2.43
						c-0.51,0.98-0.96,2.62-1.45,4.89l0.76,0.87c0.45-1.61,0.85-2.76,1.22-3.45c0.82-1.51,2.36-2.84,4.73-3.86
						c-0.62-0.95-1.26-1.89-1.93-2.84c-1.29-0.29-2.77-0.42-4.4-0.38c-1.39,0.07-2.78,0.16-4.16,0.28l1.96-4.63
						c4.2,1.78,8.26,3.86,12.15,6.23C264.39,45.89,264.08,45.22,263.75,44.56z"/>
				</g>
				<g>
					<path d="M279.39,55.94c-0.84-0.86-1.05-1.66-0.6-2.41c-0.13-0.49-0.26-0.92-0.41-1.28c-0.91,1.19-2.05,2.9-3.46,5.1
						c0.14-0.59,0.12-1.6-0.08-3.05c-0.24-1.64-0.62-2.64-1.08-2.99c-0.75-0.57-1.61-0.93-2.57-1.04c-0.82-0.1-1.59-0.01-2.28,0.25
						c0.2-0.58,0.09-1.28-0.33-2.11c-0.43-0.83-1.04-1.5-1.82-1.99c-1.1-0.69-2.21-1.37-3.33-2.02l0.94,1.97
						c1.36,0.81,2.17,1.36,2.46,1.62c0.68,0.63,0.99,1.37,0.93,2.21c-0.73-0.3-1.51-0.4-2.31-0.3c-0.8,0.11-1.35,0.4-1.63,0.85
						c-0.23,0.36-0.27,0.8-0.11,1.3c0.15,0.5,0.47,0.91,0.95,1.23c0.47,0.31,0.99,0.49,1.57,0.55c0.58,0.06,1.07,0,1.48-0.18
						c0.08,1.11,0.51,1.95,1.3,2.55c1.15,0.87,2.03,0.92,2.68,0.1c0.29-0.37,0.36-0.91,0.16-1.61c-0.11-0.35-0.37-0.96-0.8-1.85
						c0.15-0.21,0.48-0.24,0.97-0.1c0.43,0.1,0.81,0.28,1.13,0.53c0.49,0.38,0.83,1.11,1.01,2.17c0.17,1.06,0.1,1.76-0.19,2.1
						l-4.9,5.6c0.16,0.66,0.32,1.33,0.46,1.99l8.04-9.25c0.81,0.7,1.6,1.41,2.38,2.14C279.75,57.34,279.58,56.64,279.39,55.94z"/>
				</g>
				<g>
					<path d="M285.15,52.98c-3.88-1.31-7.77-2.35-11.62-3.11c1.18,0.88,2.33,1.79,3.47,2.73c3.07,0.39,6.17,0.94,9.29,1.66
						L285.15,52.98z"/>
				</g>
			</g>
		</g>
	</g>
</g>
<g id="post_x5F_office_x5F_logo">
	<g>
		<g>
			<g>
				<path d="M43.42,35.82c0,0-2.85,0.64-2.77-0.82c0.04-0.49,0.33-0.68,0.61-0.62c0.01-0.27-0.56-1.03,0.69-1.34
					c0.44-0.6,0.8-1.07,0.92-1.45c0.12-0.37,0.46-0.88,1.59-0.64c1.13,0.24,2.35,1.33,2.52,1.64c0.66,0.01,1.35,0.12,1.1,0.25
					c-0.25,0.13-0.4,0.38-0.34,0.42c0.05,0.04,0.41,0.24-0.74,0.27c0.04,0.24,0.26,0.31,0.46,0.42c0.2,0.12-0.06,0.27,0,0.32
					c0.06,0.05,0.16,0.61-0.42,0.38c-0.58-0.23-0.62-0.42-0.78-0.4c-0.16,0.03-0.58,0.09-0.52,0.25c0.07,0.16,0.64,0.53-0.09,0.66
					c-0.15,0.13,0.23,0.34-0.05,0.45c-0.28,0.11-1.5,1.06-2.08,1.3c-0.57,0-0.76-0.16-0.7-0.4c0.05-0.24,0.3-0.41,0.68-0.45
					C43.47,35.93,43.51,35.8,43.42,35.82z"/>
			</g>
			<g>
				<path d="M43.17,38.86c-0.28,0.01-1.09-0.54-0.66-0.85c0.42-0.31,2.33-1.54,2.76-1.66c0.42-0.12,0.98,0.44,0.46,0.86
					C45.21,37.64,43.17,38.86,43.17,38.86z"/>
			</g>
			<g>
				<path d="M46.13,37.48c-0.05-0.3,0.29-1.53,0.32-1.76c0.03-0.24,0.97-0.34,0.74,0.69C46.96,37.44,46.18,37.8,46.13,37.48z"/>
			</g>
			<g>
				<path d="M47.45,35.26c0,0,5.3-0.24,5.74,0c0.44,0.24,2.25,3.06,1.82,5.55c-0.44,2.49-1.21,3.13-4.64,3.53
					c-0.07-0.81-0.18-2.89-0.52-3.46c-0.34-0.57-1.49-1.87-2.02-1.86c0,0.58-0.11,2.32-0.11,2.32s-1.7,0.12-1.93-0.23
					c-0.04-0.65,0-2.6,0-2.6s1.57-1.38,1.65-1.7c0.26,0.14,0.29,0.95,2.2,0.77C49.61,37.41,47.39,37.64,47.45,35.26z"/>
			</g>
			<g>
				<path d="M45.43,37.6c0,0-1.68,1.42-2.02,1.69c-0.18,0.46-0.37,1.89,1.82,1.91C45.37,40.31,45.43,37.6,45.43,37.6z"/>
			</g>
			<g>
				<path d="M41.4,39.75c-0.51-0.01-0.95-0.13-0.9-0.56c0.05-0.42,0.78-0.87,1.25-0.76c0.48,0.11,1.25,0.32,1.25,2.14
					c0.34,0.39,1.4,1.11,2.69,1.18c1.29,0.07,2.07-0.09,2.07,0.3c0,0.39,0,2.47,0,2.47s-1.54-0.05-5.37-2.74
					c-0.32-0.42-0.53-0.69-0.49-1.33C41.86,40.06,41.57,39.76,41.4,39.75z"/>
			</g>
			<g>
				<path d="M40.24,40.04c-0.64-0.03-2.49,1.54-1.12,2.19c0.39-0.34,0.73-0.75,0.73-0.75s-0.34,0.89,0.39,1.12
					c0.73,0.22,0.45-0.45,0.84-0.42c0.22,0.36,0.28,0.59,0.64,0.59c0.36-0.06,0.48-1.09,0-1.71C41.25,40.44,40.94,40.07,40.24,40.04
					z"/>
			</g>
			<g>
				<path d="M48.13,40.24v4.88c0,0,1.63-0.5,1.79-0.91C49.85,43.36,49.59,40.21,48.13,40.24z"/>
			</g>
			<g>
				<path d="M44.23,43.47c0,0,1.89,1.28,3.11,1.79c-0.17,0.22-0.98,1.26-1.26,1.18C45.8,46.36,44.34,44.37,44.23,43.47z"/>
			</g>
			<g>
				<polygon points="37.47,46.27 32.72,46.27 32.55,45.33 37.47,45.33 				"/>
			</g>
			<g>
				<polygon points="54.23,46.2 70.89,46.2 70.89,44.82 52.42,44.82 				"/>
			</g>
			<g>
				<path d="M50.33,44.73c0.2-0.2,1.44,0.83,1.09,1.01c-0.36,0.19-3.75,1.61-4.08,1.5c-0.33-0.11-0.22-0.98,0.11-1.14
					C47.78,45.93,49.73,45.35,50.33,44.73z"/>
			</g>
			<g>
				<path d="M46.56,47.04c-0.41-0.21-2.59,1.91-1.63,2.06c0.96,0.15,3.27,0.62,3.89,0.88c0.54-0.24,1.05-0.69,0.96-0.96
					c0.38,0.02,1.01,0.6,1.5,0.38c0.49-0.23,3.19-2.16,3.36-2.48c-0.54-0.47-1.73-1.15-2.21-1.13
					C51.93,45.82,48.32,47.94,46.56,47.04z"/>
			</g>
			<g>
				<path d="M45.41,49.72c0.24,0.01,3,1.05,3.7,0.92c0.69-0.13,0.83-0.81,1.22-0.77c0.39,0.04,0.58,0.39,1.24-0.02
					c0.66-0.41,1.84-1.45,2.03-1.69c0.04,0.43,0,1.61-2.55,2.76c-2.55,1.15-8.45,2.83-8.6,3.64c0.23,0.09,0.98-0.15,1.46-0.41
					c0.32,0.24,0.9,1.03,0.75,2.31c-0.15,1.28-1.13,3.47-1.13,4.09c0,0.62-0.06,3.34-0.02,3.62c0.04,0.28,0.51,1.84-0.24,1.73
					c-0.75-0.11-1.2-0.13-1.5-0.08c-0.3,0.06-0.9,0.54-1.43,0.47c-0.53-0.08-1.43-0.34-1.39-0.6c0.04-0.26,0.62-0.26,1.13-0.45
					c0.51-0.19,0.84-0.75,1.82-1.11c-0.04-0.66-0.33-5.38-0.33-6.39c0-1.01-0.34-3.06,0.1-3.94C42.12,52.93,44.37,49.68,45.41,49.72
					z"/>
			</g>
			<g>
				<path d="M49.02,52.56c-0.07,0.3,1.71,4.6,2.47,4.67c0.76,0.07,7.83-1.44,9.18-1.04c0.4,0.54,1.24,1.58,1.21,2.15
					c0,0,0.18,1.41,0.07,1.48c0.22,0.06,0.83-0.15,0.97-0.54c0.15-0.4,0.04-2.29,0.09-2.62c0.05-0.33,0.89-2.02-0.25-1.99
					c-1.14,0.03-4.43,0.03-5.49-0.26c-1.06-0.29-3.46-0.73-4.05-0.42c-0.6,0.31-1.29,1.29-1.29,1.56c-0.25,0.06-0.33-0.19-0.08-0.92
					s1.11-2.92,1.02-4.09C52.01,50.84,49.02,52.56,49.02,52.56z"/>
			</g>
			<g>
				<path d="M44.99,45.8c0.08,0.2,0.19,0.55,0.39,0.72l-5.66-0.36c0,0-0.66-0.41-0.39-0.5L44.99,45.8z"/>
			</g>
			<g>
				<path d="M38.77,45.33h5.66c0,0-0.47-0.64-0.58-1.06c-0.99,0-5.23,0.08-5.23,0.08s-0.61-0.04-0.61,1.06
					C38.02,45.71,38.47,46.16,38.77,45.33z"/>
			</g>
			<g>
				<path d="M31.06,46.27h1.16c0,0,0.38-0.16,0-0.61c-0.38-0.45-1.11-0.69-0.58-1.48c-0.54-0.09-1.35-0.26-1.22,1.48
					c-0.24,0-0.56,0-0.56,0s-0.21-0.99-1.5-0.99c-1.29,0-4.52,1.33-4.52,1.33s3.62,0.99,4.54,0.99c0.92,0,1.52-0.9,1.52-0.9h0.45
					c0,0,0.21,0.68,0.43,0.98c0,0.47,0.02,1.1,0.02,1.1s-0.54,0.19-0.47,0.85c0.08,0.66,0.43,0.64,0.54,0.64
					c0.11,0,0.26-0.21,0.71-0.21c0.23-0.23,0.08-1.03-0.36-1.2c0-0.38-0.04-0.79-0.04-0.79s0.47-0.3,0.41-0.57
					C31.55,46.61,31.06,46.63,31.06,46.27z"/>
			</g>
			<g>
				<g>
					<path d="M40.22,51.75l0.03-0.02c0.36-0.22,0.52-0.77,0.52-0.79l0.01-0.02l0-0.02c0-0.03-0.05-2.58-0.05-3.33
						c0-0.85-1.44-1.41-1.5-1.43l-0.09-0.03l-0.07,0.06c-0.13,0.11-0.51,0.41-0.79,0.41c-0.36,0-0.56-0.06-0.91-0.41l-0.04-0.04
						h-0.06c-1.16,0-1.72,1.39-1.74,1.45l-0.01,0.05c-0.01,0.27-0.1,2.67,0,3.08c0.09,0.35,0.39,0.72,0.51,0.87
						c-0.23,0.82-1.41,5.24,0.17,5.8v0.76H40v-0.79C41.45,56.68,40.52,52.86,40.22,51.75z M35.82,47.66
						c0.07-0.17,0.55-1.19,1.39-1.24c0.39,0.38,0.68,0.45,1.08,0.45c0.36,0,0.75-0.29,0.92-0.43c0.41,0.17,1.22,0.62,1.22,1.12
						c0,0.72,0.04,3.06,0.05,3.32c-0.04,0.13-0.16,0.43-0.35,0.57l-0.76-0.01v-1.45H36.8v1.41l-0.53-0.01
						c-0.11-0.12-0.38-0.47-0.46-0.75C35.75,50.35,35.78,48.71,35.82,47.66z M38.47,56.73h-0.69c-0.17,0-0.3-0.14-0.3-0.3
						c0-0.17,0.14-0.3,0.3-0.3h0.69c0.17,0,0.3,0.14,0.3,0.3C38.77,56.6,38.63,56.73,38.47,56.73z M39.9,57.05l-1.86-2.08
						l-1.72,2.13l0,0c-1.15-0.38-0.42-3.93,0-5.4l3.59,0.06C40.31,53.21,40.97,56.51,39.9,57.05z"/>
				</g>
				<g>
					<path d="M39.39,53.21c0.42-0.61-0.11-1.03-0.11-1.03s-1.52,0-2.24,0c-0.72,0-0.49,1-0.49,1l1.42,1.21
						C37.97,54.38,38.96,53.82,39.39,53.21z"/>
				</g>
				<g>
					<path d="M38.45,54.62l1.34,1.61c0,0-0.14-1.9-0.19-2.53C39.28,53.75,38.45,54.62,38.45,54.62z"/>
				</g>
				<g>
					<path d="M36.49,53.7c-0.05,0.63-0.19,2.53-0.19,2.53l1.34-1.61C37.64,54.62,36.81,53.75,36.49,53.7z"/>
				</g>
				<g>
					<path d="M39.14,49.55h0.23v-0.23c0-0.13-0.1-0.23-0.23-0.23h-2.11c-0.13,0-0.23,0.1-0.23,0.23v0.23h0.23H39.14z"/>
				</g>
				<g>
					<path d="M36.07,58.35h-0.25v0.25c0,0.14,0.11,0.25,0.25,0.25h3.94c0.14,0,0.25-0.11,0.25-0.25v-0.25h-0.25H36.07z"/>
				</g>
			</g>
		</g>
		<g>
			<path d="M47.32,80.49c-5.99,0-11.89-1.56-17.06-4.5c-5.02-2.86-9.28-6.96-12.32-11.87l-0.22-0.36l0.37-0.21
				c0.02-0.01,1.97-1.12,3.05-2.61c-0.76-0.28-1.31-0.82-1.58-1.55c-0.2-0.57-0.15-1.11,0.15-1.54c0.29-0.42,0.79-0.67,1.32-0.67
				c0.44,0,0.84,0.17,1.14,0.48c0.25,0.26,0.54,0.76,0.48,1.61c-0.02,0.35-0.11,0.71-0.25,1.07c1.14,0.02,2.46-0.5,3.61-1.41
				l0.35-0.28l0.24,0.38c4.53,7.15,12.28,11.42,20.73,11.42c8.45,0,16.2-4.27,20.73-11.42l0.24-0.38l0.35,0.28
				c1.13,0.9,2.43,1.41,3.56,1.41c0.02,0,0.03,0,0.05,0c-0.15-0.36-0.23-0.72-0.25-1.07c-0.05-0.85,0.23-1.34,0.48-1.61
				c0.29-0.31,0.7-0.48,1.14-0.48c0.53,0,1.03,0.25,1.32,0.67c0.3,0.43,0.35,0.97,0.15,1.54c-0.27,0.73-0.82,1.27-1.58,1.55
				c1.09,1.5,3.03,2.6,3.05,2.61l0.37,0.21l-0.22,0.36c-3.04,4.91-7.31,9.02-12.32,11.87C59.21,78.93,53.31,80.49,47.32,80.49z
				 M18.84,64.03c6.24,9.8,16.86,15.64,28.48,15.64s22.24-5.84,28.48-15.64c-0.7-0.44-2.24-1.52-3.14-2.89l-0.01,0l-0.01-0.01
				c-0.15,0.02-0.3,0.02-0.45,0.02c-1.21,0-2.51-0.47-3.71-1.32C63.78,67,55.9,71.26,47.32,71.26c-8.58,0-16.46-4.26-21.17-11.42
				c-1.2,0.85-2.5,1.32-3.71,1.32c-0.15,0-0.31-0.01-0.45-0.02l-0.01,0.01l-0.01,0C21.08,62.52,19.54,63.59,18.84,64.03z
				 M21.02,57.99c-0.27,0-0.52,0.12-0.66,0.32c-0.14,0.21-0.16,0.48-0.05,0.8c0.2,0.54,0.63,0.93,1.25,1.11
				c0.16-0.34,0.26-0.68,0.28-1c0.03-0.44-0.06-0.79-0.27-1.01C21.43,58.07,21.24,57.99,21.02,57.99z M73.61,57.99
				c-0.21,0-0.41,0.08-0.55,0.23c-0.2,0.21-0.29,0.56-0.27,1.01c0.02,0.32,0.11,0.66,0.28,1c0.61-0.18,1.05-0.57,1.25-1.11
				c0.11-0.32,0.1-0.59-0.05-0.8C74.13,58.12,73.88,57.99,73.61,57.99z"/>
		</g>
		<g>
			<path d="M70.29,59.28l-0.35-0.2c2.31-3.97,3.54-8.52,3.54-13.14c0-14.42-11.74-26.16-26.16-26.16S21.16,31.51,21.16,45.93
				c0,4.62,1.22,9.17,3.54,13.14l-0.35,0.2c-2.35-4.04-3.59-8.65-3.59-13.34c0-14.65,11.92-26.56,26.56-26.56
				s26.56,11.92,26.56,26.56C73.88,50.63,72.64,55.24,70.29,59.28z"/>
		</g>
		<g>
			<path d="M69.26,58.59l-0.7-0.4c2.14-3.71,3.27-7.94,3.27-12.25c0-13.52-11-24.52-24.52-24.52s-24.52,11-24.52,24.52
				c0,4.31,1.13,8.54,3.27,12.25l-0.7,0.4c-2.21-3.83-3.38-8.21-3.38-12.65c0-13.97,11.36-25.33,25.33-25.33
				c13.97,0,25.33,11.36,25.33,25.33C72.65,50.38,71.48,54.76,69.26,58.59z"/>
		</g>
		<g>
			<g>
				<g>
					<path d="M26.89,65.48c-0.85-0.89-1.64-1.83-2.37-2.82l-0.04,0.52c0.52,0.69,1.08,1.36,1.66,2l-0.17,0.15
						c-0.72-0.45-1.49-0.85-2.35-1.22c-0.05,0.26-0.1,0.53-0.15,0.8c0.25,0.36,0.42,0.7,0.49,1.03c0.06,0.26,0.07,0.56,0.03,0.9
						c-0.05,0.32-0.09,0.65-0.12,0.97l2.52-2.36c0.17,0.18,0.34,0.36,0.51,0.54L26.89,65.48z M24.03,64.91
						c0.61,0.26,1.12,0.51,1.55,0.77l-1.3,1.18C24.39,66.28,24.3,65.63,24.03,64.91z"/>
				</g>
				<g>
					<path d="M28,66.58l-0.23-0.22c0-0.11,0.01-0.2,0.04-0.28l0.14-0.23l-0.03-0.18c-0.39,0.4-0.7,0.78-0.92,1.15
						c0.14-0.33,0.21-0.56,0.21-0.69c0.01-0.23-0.11-0.46-0.34-0.7c-0.07-0.08-0.15-0.15-0.24-0.23l0.04,0.53
						c0.18,0.16,0.28,0.34,0.31,0.55c0.03,0.21-0.03,0.38-0.17,0.53l-1.76,1.79l0.06,0.54l2.43-2.54c0.17,0.17,0.35,0.33,0.53,0.5
						L28,66.58z"/>
				</g>
				<g>
					<path d="M28.59,69.08c0.23-0.01,0.4-0.1,0.53-0.26c0.13-0.16,0.18-0.36,0.14-0.59c-0.03-0.23-0.14-0.42-0.33-0.58
						c-0.17-0.15-0.38-0.22-0.62-0.22c-0.24,0-0.42,0.07-0.55,0.21c-0.14,0.15-0.19,0.35-0.15,0.59c0.04,0.24,0.16,0.45,0.36,0.62
						C28.15,69.02,28.37,69.09,28.59,69.08z M27.96,71.55c-0.22-1.32-0.4-2.33-0.61-3.04l-0.5,0.57c0.36,0.97,0.68,1.87,0.94,2.71
						L27.96,71.55z M28.48,68.62c-0.19,0-0.37-0.07-0.51-0.19c-0.12-0.1-0.13-0.22-0.02-0.34c0.1-0.11,0.25-0.17,0.44-0.18
						c0.19-0.01,0.36,0.04,0.5,0.16c0.14,0.11,0.15,0.24,0.03,0.38C28.82,68.56,28.67,68.62,28.48,68.62z"/>
				</g>
				<g>
					<path d="M33.12,70.39c-1.21-0.71-2.37-1.5-3.47-2.38c0.04,0.17,0.07,0.35,0.11,0.52c0.83,0.65,1.69,1.25,2.59,1.8l-0.48,0.78
						c0.07-0.42-0.03-0.7-0.3-0.88c-0.08-0.05-0.19-0.07-0.34-0.06c-0.15,0.01-0.25,0.05-0.29,0.11c-0.06-0.37-0.23-0.65-0.51-0.85
						c-0.22-0.16-0.45-0.2-0.71-0.14c-0.23,0.06-0.41,0.18-0.56,0.36c-0.17,0.22-0.22,0.46-0.14,0.73c0.07,0.27,0.26,0.51,0.55,0.72
						c0.13,0.09,0.26,0.14,0.41,0.16c0.17,0.02,0.29-0.02,0.35-0.11c0.07-0.11,0.1-0.24,0.09-0.4c-0.01-0.15-0.09-0.27-0.21-0.36
						c-0.1-0.07-0.21-0.1-0.33-0.1c-0.12,0-0.21,0.04-0.26,0.12c-0.05,0.07-0.07,0.17-0.06,0.28c-0.28-0.26-0.33-0.49-0.18-0.69
						c0.1-0.14,0.24-0.2,0.43-0.21c0.19-0.01,0.36,0.05,0.53,0.17c0.17,0.12,0.29,0.28,0.38,0.47c0.08,0.19,0.09,0.37,0.04,0.53
						l0.18,0.05c0.03-0.08,0.07-0.15,0.1-0.2c0.12-0.17,0.26-0.2,0.45-0.09c0.11,0.07,0.18,0.17,0.23,0.31
						c0.05,0.14,0.04,0.25-0.01,0.34l-0.97,1.58l0.21,0.51l1.75-2.94c0.2,0.12,0.41,0.24,0.61,0.36
						C33.24,70.72,33.18,70.56,33.12,70.39z"/>
				</g>
				<g>
					<path d="M34.56,71.17l-0.29-0.15c-0.03-0.1-0.04-0.19-0.04-0.28l0.07-0.26l-0.08-0.16c-0.26,0.49-0.45,0.94-0.56,1.36
						c0.04-0.35,0.04-0.59,0-0.72c-0.06-0.22-0.23-0.41-0.53-0.58c-0.09-0.05-0.19-0.1-0.3-0.15l0.18,0.49
						c0.22,0.1,0.37,0.25,0.45,0.44c0.09,0.19,0.08,0.38-0.01,0.55l-1.19,2.21l0.21,0.5l1.62-3.11c0.21,0.11,0.43,0.22,0.65,0.33
						C34.69,71.49,34.62,71.33,34.56,71.17z"/>
				</g>
				<g>
					<path d="M36.64,72.12c-0.76-0.31-1.5-0.65-2.23-1.03l0.2,0.48c0.36,0.18,0.72,0.35,1.09,0.51c-0.71,0.26-1.2,0.63-1.44,1.14
						c-0.17,0.36-0.23,0.73-0.16,1.11c0.09,0.46,0.36,0.8,0.81,0.99c0.2,0.08,0.39,0.11,0.57,0.07c0.18-0.04,0.3-0.13,0.36-0.28
						c0.06-0.16,0.02-0.31-0.12-0.45c-0.04-0.07-0.1-0.12-0.2-0.16c-0.12-0.05-0.24-0.06-0.37-0.04c-0.13,0.02-0.22,0.08-0.25,0.16
						c-0.05,0.12-0.02,0.27,0.1,0.44l-0.11-0.02c-0.24-0.1-0.39-0.31-0.46-0.62c-0.05-0.27-0.03-0.5,0.06-0.69
						c0.22-0.47,0.52-0.8,0.9-1c0.43-0.23,0.92-0.29,1.49-0.18L36.64,72.12z"/>
				</g>
				<g>
					<path d="M40.18,73.3c-1.25-0.32-2.47-0.74-3.67-1.23l0.25,0.47l0.42,0.16l-0.68,1.78c0.12,0.21,0.25,0.42,0.38,0.63
						c0.24-0.23,0.54-0.4,0.9-0.53c0.36-0.12,0.73-0.19,1.12-0.18c-0.18,0.27-0.31,0.53-0.38,0.77c-0.09,0.29-0.14,0.77-0.14,1.42
						l0.27,0.19c0.02-0.47,0.06-0.81,0.12-1.02c0.13-0.46,0.46-0.92,0.97-1.38c-0.19-0.2-0.38-0.4-0.57-0.61
						c-0.31,0.01-0.65,0.06-1.05,0.15c-0.33,0.08-0.67,0.16-1.02,0.23l0.48-1.32c0.95,0.34,1.92,0.64,2.9,0.88L40.18,73.3z"/>
				</g>
				<g>
					<path d="M44.31,74.05c-0.26-0.05-0.39-0.2-0.39-0.44c-0.08-0.09-0.15-0.17-0.21-0.23c-0.04,0.42-0.07,0.99-0.07,1.72
						c-0.05-0.16-0.17-0.39-0.37-0.7c-0.23-0.35-0.39-0.53-0.52-0.55c-0.2-0.03-0.4,0-0.61,0.09c-0.18,0.08-0.33,0.2-0.46,0.35
						c-0.01-0.17-0.08-0.33-0.23-0.49c-0.15-0.16-0.32-0.26-0.52-0.3c-0.27-0.06-0.55-0.13-0.82-0.2l0.3,0.43
						c0.34,0.08,0.55,0.13,0.63,0.17c0.19,0.09,0.31,0.24,0.36,0.46c-0.18,0.01-0.36,0.07-0.53,0.18c-0.17,0.11-0.28,0.24-0.31,0.39
						c-0.03,0.12,0,0.23,0.07,0.35c0.07,0.11,0.18,0.19,0.33,0.22c0.14,0.03,0.28,0.02,0.41-0.03c0.14-0.05,0.25-0.13,0.32-0.22
						c0.12,0.27,0.31,0.42,0.55,0.47c0.36,0.06,0.55-0.06,0.6-0.34c0.02-0.13-0.03-0.27-0.14-0.41c-0.06-0.07-0.18-0.18-0.36-0.34
						c0.01-0.07,0.08-0.12,0.19-0.16c0.1-0.03,0.19-0.04,0.28-0.03c0.14,0.02,0.28,0.14,0.44,0.37c0.16,0.22,0.23,0.4,0.21,0.52
						l-0.31,2.06l0.42,0.39l0.4-3.4c0.23,0.03,0.47,0.05,0.71,0.07L44.31,74.05z"/>
				</g>
				<g>
					<path d="M50.43,74.04c-1.39,0.15-2.79,0.2-4.18,0.15c0.13,0.12,0.26,0.24,0.39,0.35c0.54,0.01,1.08,0.01,1.62-0.01
						c0,0.03,0,0.14-0.01,0.31c-0.01,0.18-0.01,0.33-0.01,0.44c0.02,0.7,0.24,1.04,0.66,1.02c0.18-0.01,0.4-0.1,0.66-0.28
						c0.26-0.18,0.41-0.34,0.44-0.47c0.17,0.12,0.26,0.25,0.27,0.4c0.02,0.24-0.09,0.46-0.36,0.65c-0.24,0.18-0.52,0.28-0.84,0.29
						c-0.58,0.03-1.06-0.21-1.41-0.7c-0.28-0.39-0.44-0.84-0.48-1.35l-0.23-0.11c0.09,0.93,0.32,1.63,0.7,2.09
						c0.37,0.46,0.89,0.68,1.52,0.65c0.5-0.03,0.89-0.18,1.13-0.45c0.23-0.25,0.32-0.57,0.28-0.96c-0.02-0.2-0.11-0.41-0.27-0.62
						c-0.17-0.22-0.37-0.36-0.58-0.42c-0.14,0.17-0.28,0.32-0.42,0.48c-0.19,0.19-0.39,0.28-0.6,0.3l-0.06-1.29
						c0.74-0.04,1.48-0.1,2.22-0.19L50.43,74.04z"/>
				</g>
				<g>
					<path d="M52.1,73.81l-0.32,0.05c-0.09-0.06-0.15-0.13-0.2-0.2l-0.1-0.26l-0.16-0.09c0.08,0.55,0.2,1.03,0.36,1.43
						c-0.18-0.31-0.32-0.5-0.42-0.58c-0.18-0.14-0.43-0.19-0.77-0.15c-0.1,0.01-0.21,0.03-0.33,0.05c0.15,0.1,0.29,0.19,0.44,0.29
						c0.24-0.04,0.44-0.02,0.63,0.09c0.18,0.1,0.29,0.25,0.32,0.45l0.36,2.48c0.15,0.1,0.31,0.19,0.47,0.28l-0.55-3.47
						c0.24-0.04,0.48-0.08,0.72-0.12L52.1,73.81z"/>
				</g>
				<g>
					<path d="M56.4,72.72c-1.45,0.49-2.95,0.87-4.47,1.12c0.15,0.09,0.3,0.18,0.45,0.27c0.8-0.14,1.59-0.32,2.37-0.53l0.07,0.25
						c-0.74,0.42-1.4,0.9-2.02,1.48c0.22,0.15,0.45,0.3,0.68,0.44c0.99-0.12,1.77,0.16,2.38,0.89l0.19,0.07l-0.73-2.58l0.11-0.04
						c0.26-0.08,0.53-0.08,0.81,0.01c0.28,0.09,0.46,0.25,0.53,0.47l-0.01,0.07c-0.13-0.07-0.28-0.09-0.44-0.03
						c-0.07,0.02-0.14,0.06-0.22,0.1c-0.12,0.14-0.16,0.28-0.13,0.4c0.03,0.11,0.11,0.18,0.25,0.23c0.13,0.04,0.27,0.05,0.4,0
						c0.19-0.06,0.33-0.17,0.42-0.33c0.08-0.16,0.1-0.32,0.05-0.47c-0.11-0.31-0.34-0.55-0.69-0.74c-0.38-0.2-0.74-0.24-1.12-0.14
						l-0.08,0.02l-0.06-0.23c0.59-0.17,1.17-0.35,1.75-0.56L56.4,72.72z M53.65,75.25c0.48-0.43,0.9-0.76,1.28-1.01l0.46,1.71
						C54.94,75.56,54.36,75.33,53.65,75.25z"/>
				</g>
				<g>
					<path d="M61.93,69.47c-0.96-0.16-1.75-0.09-2.42,0.26c-0.27,0.14-0.5,0.38-0.7,0.71c-0.2,0.35-0.26,0.65-0.15,0.89
						c0.03,0.07,0.11,0.13,0.24,0.18l0.32,0.08c-0.31,0.14-0.62,0.28-0.93,0.41c0.16,0.06,0.33,0.11,0.5,0.16l0.53-0.24l1.28,2.78
						l0.55,0.1l-1.47-3.05c0.21-0.1,0.41-0.2,0.61-0.31c-0.17-0.04-0.34-0.08-0.51-0.13l-0.38,0.18l-0.27-0.21
						c-0.08-0.21-0.01-0.46,0.2-0.77c0.19-0.29,0.4-0.49,0.63-0.62c0.33-0.18,0.68-0.28,1.06-0.3c0.13-0.01,0.49,0,1.08,0.01
						L61.93,69.47z"/>
				</g>
				<g>
					<path d="M62.86,69.56c-1.03,0.68-2.1,1.29-3.2,1.82l0.5,0.13c0.77-0.39,1.53-0.81,2.27-1.27l0.12,0.19
						c-0.57,0.62-1.1,1.32-1.62,2.09c0.25,0.1,0.5,0.19,0.76,0.29c0.4-0.19,0.77-0.28,1.11-0.3c0.26-0.01,0.56,0.03,0.89,0.13
						c0.31,0.1,0.62,0.2,0.94,0.3l-1.87-2.91c0.21-0.13,0.41-0.27,0.62-0.41L62.86,69.56z M61.78,72.27
						c0.36-0.55,0.7-1.01,1.04-1.39l0.93,1.49C63.19,72.17,62.54,72.14,61.78,72.27z"/>
				</g>
				<g>
					<path d="M66.09,67.08c-1.07,0.95-2.2,1.81-3.4,2.59l0.53,0.06c1.2-0.8,2.34-1.7,3.41-2.67C66.44,67.07,66.26,67.08,66.09,67.08
						z M66.75,68.02c-0.37-0.08-0.61-0.07-0.74,0.03L66,68.08c0.04,0.14,0.04,0.33-0.01,0.57c-0.05,0.27-0.13,0.45-0.24,0.54
						l-0.02,0c0.01-0.18-0.02-0.3-0.07-0.37c-0.07-0.09-0.17-0.13-0.3-0.13c-0.13,0-0.25,0.05-0.35,0.13
						c-0.16,0.12-0.26,0.25-0.29,0.4c-0.04,0.15-0.01,0.28,0.08,0.41c0.12,0.17,0.3,0.24,0.53,0.23c0.22-0.01,0.43-0.1,0.63-0.26
						c0.22-0.18,0.39-0.36,0.49-0.56c0.09-0.18,0.15-0.4,0.16-0.66l0.01-0.02c0.05-0.04,0.14-0.03,0.26,0.04
						c0.1,0.06,0.17,0.11,0.22,0.17c0.15,0.17,0.19,0.4,0.12,0.7c-0.07,0.29-0.23,0.54-0.46,0.72c-0.47,0.38-1.03,0.53-1.64,0.43
						c-0.47-0.07-0.94-0.28-1.39-0.61l-0.25,0.09c0.71,0.49,1.25,0.78,1.6,0.9c0.73,0.23,1.4,0.12,1.97-0.33
						c0.4-0.32,0.62-0.7,0.68-1.13c0.05-0.41-0.06-0.76-0.33-1.05C67.32,68.19,67.09,68.1,66.75,68.02z"/>
				</g>
				<g>
					<path d="M67.31,65.93l-0.23,0.23c-0.11,0-0.2-0.02-0.28-0.05l-0.23-0.15l-0.18,0.02c0.38,0.4,0.76,0.72,1.12,0.96
						c-0.32-0.15-0.55-0.23-0.68-0.23c-0.23-0.02-0.46,0.09-0.72,0.32c-0.08,0.07-0.16,0.15-0.23,0.23c0.18,0,0.35-0.01,0.53-0.02
						c0.17-0.17,0.35-0.27,0.56-0.29c0.21-0.02,0.38,0.04,0.52,0.18l1.73,1.82l0.54-0.04l-2.46-2.51c0.17-0.17,0.34-0.34,0.51-0.51
						L67.31,65.93z"/>
				</g>
				<g>
					<path d="M69.89,62.98l-0.08,0.1c-0.14,0.18-0.3,0.2-0.49,0.05l-0.06-0.08l-0.3,0.06c0.19,0.15,0.44,0.34,0.76,0.55l0.78,0.52
						c-0.42-0.14-0.74-0.2-0.97-0.17c-0.32,0.03-0.62,0.21-0.91,0.54c-0.22,0.25-0.36,0.52-0.43,0.82c-0.08,0.34-0.02,0.6,0.18,0.79
						c0.07,0.07,0.18,0.11,0.32,0.11c0.14,0,0.25-0.04,0.34-0.13c0.06-0.06,0.12-0.2,0.18-0.4c0.06-0.21,0.11-0.34,0.16-0.38
						c0.1-0.11,0.18-0.13,0.26-0.07c0.05,0.04,0.08,0.23,0.08,0.55c0,0.28-0.02,0.5-0.05,0.64c0.22-0.02,0.44-0.05,0.65-0.07
						c0.03-0.74-0.08-1.19-0.28-1.36c-0.14-0.12-0.31-0.15-0.49-0.1c-0.17,0.05-0.33,0.16-0.48,0.34c-0.1,0.11-0.19,0.26-0.26,0.44
						c-0.13-0.36-0.05-0.69,0.24-1.02c0.2-0.23,0.47-0.34,0.84-0.36c0.34-0.02,0.62,0.05,0.82,0.21l1.34,1.12
						c0.22-0.04,0.45-0.07,0.68-0.11l-2.76-2.14c0.15-0.19,0.29-0.38,0.43-0.57L69.89,62.98z"/>
				</g>
			</g>
		</g>
		<g>
			<g>
				<g>
					<path d="M33.32,28.96c-0.4,0.33-0.6,0.77-0.59,1.29c0.01,0.45,0.15,0.8,0.41,1.07c0.23,0.24,0.51,0.38,0.84,0.45
						c0.39,0.07,0.73-0.02,1.04-0.28c0.13-0.11,0.21-0.24,0.25-0.39c0.04-0.15,0.02-0.28-0.06-0.38c-0.04-0.05-0.12-0.09-0.22-0.1
						c-0.1-0.01-0.19,0.01-0.26,0.07c-0.14,0.12-0.23,0.22-0.27,0.3c-0.04,0.1-0.02,0.21,0.06,0.3c0.05,0.06,0.16,0.07,0.32,0.04
						l0,0.02c-0.22,0.19-0.46,0.25-0.73,0.19c-0.22-0.05-0.41-0.15-0.58-0.33c-0.26-0.27-0.38-0.62-0.35-1.03
						c0.03-0.46,0.24-0.89,0.64-1.25L33.32,28.96z"/>
				</g>
				<g>
					<path d="M36.95,26.53c-1.34,0.71-2.6,1.57-3.76,2.54c0.32-0.04,0.51-0.06,0.56-0.09c0.19,0.02,0.41-0.05,0.65-0.2
						c0.32-0.2,0.51-0.31,0.58-0.32c0.21-0.06,0.42,0.02,0.61,0.23c-0.11,0.52-0.19,0.81-0.27,0.87c-0.07,0.05-0.16,0.06-0.29,0.03
						c-0.11-0.02-0.19-0.06-0.24-0.11l-0.1,0.3c0.42,0.12,0.68,0.15,0.8,0.09c0.05,0.01,0.14-0.04,0.28-0.14
						c0.13-0.09,0.22-0.25,0.27-0.47c0.03-0.19,0.06-0.38,0.1-0.58c0.04-0.21,0.13-0.36,0.27-0.45c0.09-0.05,0.21-0.08,0.36-0.09
						c0.15-0.01,0.25,0.02,0.28,0.08l0.64,1.1c0.16,0.03,0.31,0.06,0.47,0.1l-1.38-2.48c0.22-0.12,0.45-0.24,0.68-0.36L36.95,26.53z
						 M36.47,27.91c-0.21-0.02-0.36,0-0.47,0.07c-0.04,0.03-0.1,0.1-0.18,0.22l-0.16,0.25l-0.08-0.11c-0.1-0.15-0.35-0.22-0.75-0.17
						c0.51-0.36,1.04-0.7,1.58-1.01l0.49,0.84C36.67,27.94,36.52,27.91,36.47,27.91z"/>
				</g>
				<g>
					<path d="M40.4,25.04c-1.25,0.41-2.46,0.94-3.61,1.57l0.5,0.06c0.8-0.42,1.63-0.79,2.48-1.1l0.07,0.18
						c-0.72,0.47-1.35,1.05-1.87,1.74c0.23,0.07,0.45,0.15,0.67,0.23c0.37-0.15,0.71-0.22,1.01-0.2c0.23,0.01,0.48,0.08,0.74,0.21
						c0.24,0.13,0.48,0.26,0.71,0.4l-0.94-2.7c0.24-0.09,0.49-0.17,0.74-0.24L40.4,25.04z M38.77,27.26c0.39-0.46,0.8-0.83,1.21-1.1
						l0.51,1.37C40.05,27.26,39.48,27.16,38.77,27.26z"/>
				</g>
				<g>
					<path d="M42,24.58l-0.33,0.09c-0.09-0.04-0.17-0.09-0.22-0.14l-0.12-0.2l-0.18-0.04c0.13,0.44,0.29,0.82,0.48,1.12
						c-0.2-0.23-0.36-0.36-0.48-0.41c-0.19-0.09-0.47-0.07-0.81,0.04c-0.11,0.04-0.22,0.08-0.33,0.13l0.5,0.12
						c0.23-0.09,0.45-0.11,0.65-0.06c0.2,0.05,0.31,0.16,0.36,0.32l0.57,2l0.41,0.19l-0.75-2.81c0.24-0.06,0.49-0.13,0.74-0.18
						C42.31,24.7,42.16,24.64,42,24.58z"/>
				</g>
				<g>
					<path d="M45.82,23.98l-0.34,0.03c0.02-0.51-0.55-0.75-1.69-0.57c-0.11,0.02-0.28,0.05-0.51,0.11c-0.22,0.06-0.39,0.1-0.5,0.12
						c-0.14,0.03-0.28,0.03-0.42,0.01c-0.15-0.02-0.24-0.07-0.26-0.15c-0.02-0.1,0.03-0.19,0.16-0.27l-0.16,0.02
						c-0.06,0.01-0.11,0.06-0.17,0.16c-0.05,0.1-0.07,0.16-0.06,0.2c0.05,0.19,0.23,0.3,0.55,0.34c0.27,0.04,0.56,0.03,0.88-0.03
						l0.6-0.12c0.27-0.05,0.47-0.09,0.61-0.1c0.13-0.02,0.26-0.02,0.38-0.01c0.17,0.02,0.25,0.06,0.26,0.12
						c0.01,0.07-0.06,0.12-0.2,0.18c-0.11,0.04-0.22,0.07-0.34,0.08c-0.93,0.11-1.84,0.29-2.75,0.52l0.47,0.17
						c0.42-0.1,0.85-0.19,1.28-0.26c0.19,0.06,0.29,0.11,0.29,0.16L43.9,24.7c-0.23,0.04-0.43,0.14-0.6,0.29
						c-0.16,0.15-0.23,0.3-0.2,0.45c0.02,0.08,0.08,0.13,0.18,0.16c0.1,0.03,0.21,0.03,0.33,0.01c0.18-0.03,0.33-0.11,0.48-0.24
						c0.14-0.13,0.21-0.25,0.19-0.38c0.06-0.03,0.12-0.05,0.19-0.05c0.16-0.02,0.3,0.01,0.41,0.09c0.11,0.08,0.17,0.18,0.18,0.29
						c0.02,0.15-0.12,0.29-0.4,0.44c-0.24,0.12-0.47,0.2-0.7,0.24c-0.41,0.07-0.78,0.07-1.14,0c0.2,0.19,0.4,0.39,0.6,0.58
						c0.55-0.01,1.09,0.06,1.61,0.21c0.53,0.16,0.96,0.39,1.31,0.67l-0.14-0.37c-0.64-0.41-1.21-0.66-1.66-0.78
						c0.42-0.24,0.66-0.37,0.71-0.4c0.23-0.16,0.33-0.35,0.32-0.57c-0.02-0.23-0.14-0.41-0.36-0.53c-0.11-0.06-0.33-0.12-0.65-0.19
						c-0.25-0.05-0.39-0.11-0.43-0.17c0.71-0.1,1.42-0.17,2.14-0.21C46.12,24.16,45.97,24.07,45.82,23.98z"/>
				</g>
				<g>
					<path d="M53.1,24.7c-1.66-0.45-3.37-0.71-5.09-0.76l0.41,0.3c1.32,0.07,2.64,0.25,3.92,0.56l-0.42,1.77
						c-0.08-0.21-0.17-0.41-0.26-0.62c0.03-0.04,0.04-0.09,0.05-0.14c0.05-0.25-0.03-0.5-0.26-0.75c-0.23-0.25-0.53-0.41-0.89-0.47
						c-0.2-0.03-0.38-0.02-0.53,0.02c-0.18,0.05-0.28,0.14-0.3,0.26c-0.01,0.11,0.04,0.21,0.17,0.3c0.12,0.09,0.26,0.14,0.42,0.17
						c0.27,0.04,0.46-0.03,0.58-0.2c0.12,0.02,0.21,0.1,0.27,0.25c0.05,0.12,0.06,0.23,0.04,0.33c-0.03,0.14-0.12,0.23-0.28,0.29
						c-0.16,0.06-0.33,0.07-0.53,0.04c-0.47-0.07-0.83-0.27-1.11-0.61c-0.16-0.19-0.33-0.51-0.54-0.97l-0.25-0.09
						c0.1,0.45,0.3,0.87,0.6,1.27c0.38,0.51,0.8,0.8,1.3,0.88c0.37,0.06,0.69-0.02,0.98-0.24c0.35,0.45,0.52,0.87,0.54,1.24
						l0.11,0.11l0.71-2.74c0.23,0.06,0.46,0.12,0.69,0.19C53.33,24.96,53.22,24.83,53.1,24.7z"/>
				</g>
				<g>
					<path d="M54.78,25.23l-0.33-0.11c-0.05-0.08-0.09-0.16-0.11-0.23l0.01-0.23l-0.13-0.13c-0.14,0.44-0.21,0.84-0.23,1.2
						c-0.04-0.3-0.1-0.5-0.17-0.61c-0.11-0.18-0.35-0.32-0.7-0.42c-0.11-0.03-0.22-0.06-0.35-0.07c0.12,0.12,0.23,0.25,0.34,0.38
						c0.25,0.05,0.44,0.16,0.57,0.31c0.13,0.15,0.17,0.31,0.12,0.47l-0.64,1.98c0.08,0.13,0.16,0.25,0.23,0.38l0.94-2.75
						c0.24,0.08,0.48,0.17,0.71,0.26C54.98,25.5,54.89,25.37,54.78,25.23z"/>
				</g>
				<g>
					<path d="M58.37,26.91c-1.19-0.69-2.45-1.28-3.75-1.73c0.1,0.14,0.21,0.27,0.31,0.41l0.44,0.17l-0.59,1.47
						c0.11,0.18,0.22,0.36,0.33,0.55c0.22-0.17,0.49-0.29,0.83-0.35c0.33-0.06,0.69-0.04,1.05,0.05c-0.2,0.19-0.35,0.37-0.44,0.56
						c-0.12,0.23-0.22,0.61-0.33,1.13l0.18,0.2c0.1-0.37,0.2-0.64,0.28-0.8c0.19-0.35,0.55-0.66,1.1-0.89
						c-0.14-0.22-0.29-0.44-0.45-0.66c-0.3-0.07-0.64-0.1-1.02-0.09c-0.32,0.02-0.64,0.04-0.96,0.07l0.45-1.07
						c0.97,0.41,1.91,0.89,2.81,1.44C58.52,27.22,58.45,27.06,58.37,26.91z"/>
				</g>
				<g>
					<path d="M61.99,29.55c-0.2-0.2-0.24-0.38-0.14-0.56c-0.03-0.11-0.06-0.21-0.09-0.3c-0.21,0.28-0.47,0.67-0.8,1.18
						c0.03-0.14,0.03-0.37-0.02-0.71c-0.05-0.38-0.14-0.61-0.25-0.69c-0.17-0.13-0.37-0.21-0.6-0.24c-0.19-0.02-0.37,0-0.53,0.06
						c0.05-0.13,0.02-0.3-0.08-0.49c-0.1-0.19-0.24-0.35-0.42-0.46c-0.25-0.16-0.51-0.32-0.77-0.47l0.22,0.46
						c0.32,0.19,0.5,0.31,0.57,0.38c0.16,0.15,0.23,0.32,0.21,0.51c-0.17-0.07-0.35-0.09-0.54-0.07c-0.19,0.02-0.31,0.09-0.38,0.2
						c-0.05,0.08-0.06,0.18-0.03,0.3c0.03,0.12,0.11,0.21,0.22,0.29c0.11,0.07,0.23,0.11,0.36,0.13c0.13,0.01,0.25,0,0.34-0.04
						c0.02,0.26,0.12,0.45,0.3,0.59c0.27,0.2,0.47,0.21,0.62,0.02c0.07-0.09,0.08-0.21,0.04-0.37c-0.03-0.08-0.09-0.22-0.19-0.43
						c0.04-0.05,0.11-0.06,0.22-0.02c0.1,0.02,0.19,0.07,0.26,0.12c0.11,0.09,0.19,0.26,0.23,0.5c0.04,0.25,0.02,0.41-0.04,0.49
						l-1.13,1.3c0.04,0.15,0.07,0.31,0.11,0.46l1.86-2.14c0.19,0.16,0.37,0.33,0.55,0.5C62.07,29.87,62.03,29.71,61.99,29.55z"/>
				</g>
				<g>
					<path d="M63.32,28.86c-0.9-0.3-1.8-0.54-2.69-0.72c0.27,0.2,0.54,0.41,0.8,0.63c0.71,0.09,1.43,0.22,2.15,0.39L63.32,28.86z"/>
				</g>
			</g>
		</g>
	</g>
</g>
<g id="stamp">
	<polygon points="314.42,66.68 313.86,66.68 313.86,60.57 315.39,59.18 315.82,35.19 316.43,34.45 315.21,33.54 315.21,32.22 
		316.33,32.22 316.33,32.79 315.77,32.79 315.77,33.26 317.24,34.35 316.38,35.4 315.95,59.43 314.42,60.82 	"/>
	<path d="M324.95,67.19l-0.37-0.43l0.66-0.56l0.11-4.76l-0.87-1.4l0-0.08c-0.01-0.17-0.53-16.75-0.59-20.35
		c-0.05-2.96-0.82-4.91-0.83-4.93L323,34.54l0.72-0.93v-0.82h-0.51v-0.56h1.08v1.57l-0.64,0.83c0.19,0.53,0.76,2.35,0.81,4.98
		c0.06,3.47,0.55,19.04,0.59,20.26l0.88,1.41l-0.11,5.18L324.95,67.19z"/>
	<path d="M323.36,67.46l-0.56-0.62c-0.19-0.2-0.44-0.69-0.02-1.22c0.31-0.39,0.86-1.07,1.04-1.29v-1.35l-1.25-0.96
		c-0.08-0.05-0.33-0.23-0.43-0.61c-0.12-0.44,0-0.96,0.35-1.56l0.4-0.7c0,0,0.27-0.43,0.27-1.04c0-0.69-0.07-1.01-0.3-1.33
		l-0.02-0.03c-0.26-0.36-0.45-0.63-0.85-0.95l0.36-0.44c0.45,0.37,0.67,0.67,0.94,1.06l0.02,0.03c0.35,0.48,0.41,0.95,0.41,1.66
		c0,0.74-0.31,1.26-0.36,1.34l-0.39,0.68c-0.63,1.07-0.13,1.39-0.11,1.4l0.03,0.01l0.01,0.01l1.49,1.14v1.83l-0.06,0.08
		c-0.01,0.01-0.73,0.89-1.1,1.37c-0.2,0.25-0.08,0.42-0.02,0.48l0.01,0.01l0.56,0.63L323.36,67.46z"/>
	<path d="M316.7,67.27h-0.56v-0.62c0-0.06,0.02-0.37,0.41-0.72c0.04-0.04,0.11-0.11,0.11-0.17c0-0.03-0.02-0.12-0.19-0.28
		l-0.01-0.01l-0.5-0.52c-0.04-0.06-0.25-0.38-0.25-1.3c0-0.9,0.03-1.21,0.25-1.65c0.21-0.42,0.85-1.07,0.93-1.14l0.02-0.02
		c0.05-0.04,0.15-0.16,0.15-0.26c0-0.08-0.08-0.15-0.14-0.2l-0.37-0.26l0-3.44c0.01-0.15,0.11-0.38,0.37-0.55
		c0.03-0.02,0.06-0.04,0.08-0.06c-0.01,0-0.02-0.01-0.03-0.01l-0.18-0.07l0-1.84c0-0.05,0.03-0.51,0.49-0.83
		c0.13-0.1,0.21-0.24,0.21-0.37c-0.01-0.17-0.17-0.29-0.3-0.37c-0.15-0.08-0.38-0.28-0.39-0.61l-0.15-2.12
		c-0.01-0.11-0.06-0.69,0.4-1.15c0.38-0.37,0.32-0.51,0.02-0.85c-0.01-0.02-0.42-0.47-0.32-1.21c0.05-0.34,0.19-0.53,0.3-0.67
		c0.1-0.13,0.15-0.2,0.15-0.38c0-0.18-0.04-0.24-0.12-0.34c-0.09-0.13-0.22-0.3-0.22-0.64v-1.44c0-0.23,0.12-0.67,0.53-0.91
		c0.13-0.08,0.22-0.19,0.23-0.28c0.01-0.06-0.03-0.13-0.1-0.2l-0.09-0.08v-2.74c-0.05-0.1-0.14-0.27-0.21-0.49
		c-0.17-0.59,0.23-2.16,0.69-3.16v-2.95h0.56v3.08l-0.03,0.06c-0.52,1.08-0.79,2.47-0.69,2.81c0.07,0.24,0.19,0.42,0.19,0.42
		l0.04,0.07l0,0.08v2.59c0.14,0.17,0.21,0.37,0.19,0.57c-0.03,0.27-0.2,0.52-0.5,0.7c-0.23,0.14-0.25,0.41-0.25,0.44v1.43
		c0,0.16,0.04,0.21,0.11,0.31c0.09,0.13,0.22,0.31,0.22,0.67c0,0.38-0.15,0.57-0.27,0.72c-0.09,0.12-0.16,0.21-0.18,0.4
		c-0.06,0.48,0.18,0.76,0.18,0.76c0.39,0.45,0.66,0.95-0.05,1.63c-0.29,0.28-0.24,0.65-0.24,0.67l0,0.02l0.15,2.15
		c0,0.07,0.08,0.12,0.08,0.12l0.02,0.01c0.49,0.28,0.58,0.64,0.59,0.83c0.02,0.32-0.15,0.65-0.44,0.86
		c-0.22,0.16-0.25,0.37-0.25,0.39v1.47c0.2,0.15,0.25,0.38,0.24,0.51c-0.01,0.16-0.13,0.32-0.36,0.47c-0.08,0.05-0.11,0.1-0.11,0.12
		v3.1l0.15,0.1c0.3,0.23,0.37,0.48,0.37,0.65c0,0.37-0.28,0.63-0.35,0.69c-0.19,0.19-0.67,0.7-0.81,0.98
		c-0.16,0.33-0.19,0.54-0.19,1.4c0,0.64,0.11,0.9,0.14,0.96l0.45,0.47c0.24,0.23,0.36,0.45,0.36,0.68c0,0.21-0.1,0.4-0.29,0.58
		c-0.19,0.17-0.22,0.3-0.22,0.32V67.27z M316.7,66.65L316.7,66.65C316.7,66.65,316.7,66.65,316.7,66.65z"/>
	<path d="M322.29,55.84l-0.24-0.51l0.88-0.41V53.7l-0.7-0.6v-1.9l0.6-1.28l-0.35-0.62v-1.7l0.42-0.81l-0.72-1.35l0.37-1.59v-1.85
		l-0.26-2.44v-2.99l-0.54-1.66l-0.23-0.8c-0.17-0.58-0.01-0.86,0.02-0.92l0.01-0.01c0.13-0.19,0.2-0.32,0.24-0.42h-0.71v-0.56h1.14
		l0.08,0.08c0.15,0.15,0.22,0.48-0.28,1.2c-0.01,0.03-0.05,0.17,0.04,0.46l0.23,0.79l0.56,1.73v3.07l0.26,2.44v1.93l-0.34,1.45
		l0.76,1.42l-0.49,0.95v1.41l0.42,0.75l-0.67,1.43v1.51l0.7,0.6v1.83L322.29,55.84z"/>
	<rect x="319.82" y="34.56" width="2.2" height="0.56"/>
	<path d="M321.02,66.9l-2.66-0.7l0.89-0.3c0.01,0,1.01-0.35,1.47-0.78c0.04-0.04,0.08-0.07,0.11-0.11c0.17-0.16,0.34-0.31,0.42-0.49
		c0.1-0.23,0.12-0.61,0.06-0.97c-0.07-0.39-0.41-0.72-1.03-0.99c-0.71-0.31-1.73-0.32-2.3,0.26c-0.3,0.32-0.22,0.99,0.06,1.3
		c0.27,0.3,0.71,0.5,1.12,0.5c0.01,0,0.01,0,0.02,0c0.19,0,0.48-0.09,0.62-0.24c0.08-0.09,0.09-0.16,0.08-0.21
		c-0.01-0.22-0.32-0.41-0.58-0.54l0.26-0.5c0.26,0.13,0.86,0.44,0.89,1.02c0.01,0.23-0.07,0.44-0.24,0.62
		c-0.27,0.28-0.71,0.42-1.03,0.42c-0.58,0.01-1.19-0.25-1.57-0.68c-0.45-0.51-0.57-1.52-0.04-2.07c0.78-0.81,2.07-0.77,2.93-0.39
		c0.8,0.35,1.26,0.83,1.36,1.42c0.03,0.18,0.11,0.8-0.09,1.29c-0.12,0.29-0.35,0.5-0.55,0.68c-0.04,0.03-0.07,0.07-0.11,0.1
		c-0.24,0.23-0.58,0.43-0.89,0.58l0.95,0.25L321.02,66.9z"/>
	<path d="M321.51,62.86l-0.56-0.06c0.05-0.5-0.11-1.02-0.41-1.36c-0.1-0.11-0.23-0.21-0.37-0.29c-0.08-0.04-0.16-0.08-0.25-0.11
		c-0.18-0.08-0.38-0.16-0.56-0.33c-0.29-0.27-0.45-0.6-0.45-0.95c0-0.08,0-0.84,0.61-1.49c0.34-0.37,0.79-0.52,1.23-0.41
		c0.22,0.05,0.42,0.17,0.63,0.36c0.04,0.03,0.08,0.07,0.12,0.11c0.12,0.11,0.25,0.22,0.35,0.35c0.21,0.26,0.21,0.58-0.01,0.89
		c-0.17,0.24-0.32,0.49-0.49,0.77l-0.48-0.29c0.17-0.29,0.33-0.54,0.5-0.8c0.09-0.14,0.06-0.18,0.03-0.21
		c-0.08-0.09-0.18-0.19-0.29-0.28c-0.04-0.04-0.09-0.08-0.13-0.11c-0.13-0.12-0.25-0.2-0.38-0.23c-0.33-0.08-0.59,0.15-0.69,0.25
		c-0.47,0.5-0.46,1.07-0.46,1.09l0,0.01c0,0.25,0.17,0.44,0.27,0.54c0.11,0.1,0.25,0.16,0.4,0.23c0.09,0.04,0.19,0.08,0.29,0.14
		c0.2,0.11,0.37,0.24,0.52,0.4C321.37,61.52,321.58,62.2,321.51,62.86z"/>
	<path d="M319.07,60.06c-0.2,0-0.41-0.06-0.57-0.17c-0.51-0.35-0.52-1.08-0.48-1.48c0.05-0.49,0.33-0.96,0.78-1.29
		c0.82-0.61,2.65-1.61,2.67-1.61c0.22-0.12,0.35-0.21,0.4-0.37c0.16-0.49-0.44-1.05-0.78-1.27c-0.59-0.39-1.15-0.78-1.61-1.28
		c-0.6-0.66-0.43-1.5,0-2.05c0.46-0.57,1.32-0.98,2.13-0.53c0.11,0.06,0.22,0.14,0.32,0.24c0.41,0.38,0.61,0.82,0.61,1.31l0,0.29
		l-0.29-0.01c-0.26-0.01-0.52-0.01-0.77,0c-0.13,0-0.25,0-0.38,0v-0.56c0.12,0,0.25,0,0.37,0c0.16,0,0.31,0,0.47,0
		c-0.06-0.21-0.19-0.41-0.39-0.6c-0.07-0.06-0.14-0.12-0.22-0.16c-0.52-0.3-1.1-0.01-1.41,0.39c-0.28,0.35-0.43,0.88-0.03,1.32
		c0.42,0.45,0.95,0.82,1.51,1.2c0.62,0.41,1.25,1.16,1,1.92c-0.12,0.37-0.41,0.55-0.67,0.69c-0.02,0.01-1.81,0.99-2.6,1.57
		c-0.32,0.24-0.52,0.56-0.55,0.89c-0.02,0.17-0.05,0.76,0.24,0.96c0.09,0.06,0.21,0.09,0.32,0.07l0.1,0.56
		C319.19,60.06,319.13,60.06,319.07,60.06z"/>
	<path d="M318.85,57.4c-0.18-0.32-0.33-1.04,0.39-1.5c0.61-0.39,0.64-0.95,0.63-1.11c-0.01-0.12-0.12-0.55-0.58-0.55
		c-0.14,0-0.33,0.03-0.43,0.16c-0.11,0.15-0.11,0.44,0,0.81l-0.54,0.16c-0.17-0.57-0.14-1.01,0.08-1.31
		c0.13-0.18,0.39-0.39,0.88-0.39c0.75,0,1.12,0.64,1.14,1.09c0.01,0.24-0.02,1.06-0.89,1.61c-0.42,0.27-0.26,0.64-0.2,0.74
		L318.85,57.4z"/>
	<path d="M319.26,51.84c-0.36,0-0.68-0.14-0.87-0.39c-0.49-0.66,0.04-1.48,0.35-1.96c0.03-0.04,0.05-0.08,0.07-0.12
		c0.36-0.57,0.93-1.35,1.78-1.61c0.54-0.16,1.31-0.15,1.71,0.4c0.15,0.22,0.35,0.16,0.36,0.16l0.17,0.54
		c-0.22,0.07-0.67,0.07-0.99-0.37c-0.21-0.29-0.7-0.31-1.09-0.19c-0.51,0.15-0.99,0.6-1.47,1.37c-0.02,0.04-0.05,0.08-0.08,0.12
		c-0.33,0.52-0.61,1.01-0.37,1.32c0.1,0.13,0.31,0.16,0.46,0.16l0.03,0.56C319.31,51.83,319.28,51.84,319.26,51.84z"/>
	<path d="M320.52,48.12c-0.13-0.27-0.57-1.03-1.06-1.24c-0.29-0.12-0.5-0.09-0.58-0.01c-0.09,0.1-0.07,0.32,0.06,0.6l-0.51,0.25
		c-0.33-0.69-0.12-1.07,0.04-1.23c0.27-0.28,0.73-0.33,1.21-0.12c0.79,0.34,1.32,1.47,1.35,1.52L320.52,48.12z"/>
	<path d="M321.77,47.98h-0.56v-1.57l-2.51-1.92l-0.01-0.01c-0.07-0.07-0.42-0.44-0.42-0.82c0-0.25,0.1-0.75,0.78-1.32l1.19-0.96
		h1.73l1.01,0.64l-0.3,0.48l-0.88-0.55h-1.36l-1.03,0.83c-0.54,0.45-0.58,0.8-0.58,0.89c0,0.11,0.14,0.3,0.24,0.41l2.7,2.07V47.98z"
		/>
	<path d="M320.08,41.76c-0.01-0.02-0.21-0.52-0.21-1.11c-0.21,0.01-0.53,0.04-0.87,0.18l0,0c0,0-0.09,0.04-0.12,0.12
		c-0.04,0.1,0.01,0.23,0.06,0.32l-0.51,0.25c-0.14-0.29-0.17-0.55-0.07-0.78c0.12-0.31,0.41-0.43,0.44-0.44
		c0.73-0.28,1.38-0.21,1.41-0.2l0.28,0.03l-0.03,0.28c-0.07,0.57,0.16,1.13,0.16,1.14L320.08,41.76z"/>
	<rect x="321.2" y="45.47" transform="matrix(0.8674 -0.4976 0.4976 0.8674 19.9223 166.2518)" width="1.36" height="0.56"/>
	<path d="M320.29,45.29l-0.5-0.26l0.25,0.13l-0.25-0.13c0,0,0.21-0.44,0.06-0.99c-0.1-0.36-0.14-0.65-0.01-0.87
		c0.13-0.23,0.39-0.31,0.66-0.37c0.3-0.07,0.85-0.16,1.2,0.11c0.16,0.13,0.25,0.31,0.25,0.54v0.7h-0.56v-0.7
		c0-0.07-0.02-0.08-0.03-0.09c-0.08-0.07-0.34-0.1-0.71-0.01c-0.24,0.06-0.3,0.09-0.31,0.11c0,0.01-0.04,0.08,0.06,0.44
		C320.61,44.66,320.3,45.26,320.29,45.29z"/>
	<polygon points="322.51,39.85 320.55,39.41 318.39,37.24 319.82,35.54 320.25,35.9 319.15,37.21 320.83,38.9 322.63,39.3 	"/>
	<path d="M320.31,38.56l-0.55-0.13c0,0,0.11-0.48,0.11-1.55v-0.28h1.98v1.4h-0.56v-0.84h-0.86
		C320.42,38.11,320.32,38.55,320.31,38.56z"/>
	<circle cx="314.67" cy="66.6" r="0.83"/>
	<circle cx="318.29" cy="32.51" r="0.83"/>
	<polygon points="398,66.68 397.43,66.68 397.43,60.57 398.96,59.18 399.39,35.19 400,34.45 398.78,33.54 398.78,32.22 
		399.91,32.22 399.91,32.79 399.34,32.79 399.34,33.26 400.81,34.35 399.95,35.4 399.52,59.43 398,60.82 	"/>
	<path d="M408.52,67.19l-0.37-0.43l0.66-0.56l0.11-4.76l-0.87-1.4l0-0.08c-0.01-0.17-0.53-16.75-0.59-20.35
		c-0.05-2.96-0.82-4.91-0.83-4.93l-0.06-0.15l0.72-0.93v-0.82h-0.51v-0.56h1.08v1.57l-0.64,0.83c0.19,0.53,0.76,2.35,0.81,4.98
		c0.06,3.47,0.55,19.04,0.59,20.26l0.88,1.41l-0.11,5.18L408.52,67.19z"/>
	<path d="M406.94,67.46l-0.56-0.62c-0.19-0.2-0.44-0.69-0.02-1.22c0.31-0.39,0.86-1.07,1.04-1.29v-1.35l-1.25-0.96
		c-0.08-0.05-0.33-0.23-0.43-0.61c-0.12-0.44,0-0.96,0.35-1.56l0.4-0.7c0,0,0.27-0.43,0.27-1.04c0-0.69-0.07-1.01-0.3-1.33
		l-0.02-0.03c-0.26-0.36-0.45-0.63-0.85-0.95l0.36-0.44c0.45,0.37,0.67,0.67,0.95,1.06l0.02,0.03c0.35,0.48,0.41,0.95,0.41,1.66
		c0,0.74-0.31,1.26-0.36,1.34l-0.39,0.68c-0.63,1.07-0.13,1.39-0.11,1.4l0.03,0.01l0.01,0.01l1.49,1.14v1.83l-0.06,0.08
		c-0.01,0.01-0.73,0.89-1.1,1.37c-0.2,0.25-0.08,0.42-0.02,0.48l0.01,0.01l0.56,0.63L406.94,67.46z"/>
	<path d="M400.28,67.27h-0.56v-0.62c0-0.06,0.02-0.37,0.41-0.72c0.04-0.04,0.11-0.11,0.11-0.17c0-0.03-0.02-0.12-0.19-0.28
		l-0.01-0.01l-0.5-0.52c-0.04-0.06-0.25-0.38-0.25-1.3c0-0.9,0.03-1.21,0.25-1.65c0.21-0.42,0.85-1.07,0.93-1.14l0.02-0.02
		c0.05-0.04,0.15-0.16,0.15-0.26c0-0.08-0.08-0.15-0.14-0.2l-0.37-0.26l0-3.44c0.01-0.15,0.11-0.38,0.37-0.55
		c0.03-0.02,0.06-0.04,0.08-0.06c-0.01,0-0.02-0.01-0.03-0.01l-0.18-0.07l0-1.84c0-0.05,0.03-0.51,0.49-0.83
		c0.13-0.1,0.21-0.24,0.21-0.37c-0.01-0.17-0.17-0.29-0.3-0.37c-0.15-0.08-0.38-0.28-0.39-0.61l-0.15-2.12
		c-0.01-0.11-0.06-0.69,0.4-1.15c0.38-0.37,0.32-0.51,0.02-0.85c-0.01-0.02-0.42-0.47-0.32-1.21c0.05-0.34,0.19-0.53,0.3-0.67
		c0.1-0.13,0.15-0.2,0.15-0.38c0-0.18-0.04-0.24-0.12-0.34c-0.09-0.13-0.22-0.3-0.22-0.64v-1.44c0-0.23,0.12-0.67,0.53-0.91
		c0.13-0.08,0.22-0.19,0.23-0.28c0.01-0.06-0.03-0.13-0.1-0.2l-0.09-0.08v-2.74c-0.05-0.1-0.14-0.27-0.21-0.49
		c-0.17-0.59,0.23-2.16,0.69-3.16v-2.95h0.56v3.08l-0.03,0.06c-0.52,1.08-0.79,2.47-0.69,2.81c0.07,0.24,0.19,0.42,0.19,0.42
		l0.04,0.07l0,0.08v2.59c0.14,0.17,0.21,0.37,0.19,0.57c-0.03,0.27-0.2,0.52-0.5,0.7c-0.23,0.14-0.25,0.41-0.25,0.44v1.43
		c0,0.16,0.04,0.21,0.11,0.31c0.09,0.13,0.22,0.31,0.22,0.67c0,0.38-0.15,0.57-0.27,0.72c-0.09,0.12-0.16,0.21-0.18,0.4
		c-0.06,0.47,0.17,0.75,0.18,0.76c0.39,0.44,0.66,0.95-0.05,1.63c-0.29,0.28-0.24,0.65-0.24,0.67l0,0.02l0.15,2.15
		c0,0.07,0.08,0.12,0.09,0.12l0.01,0.01l0,0c0.49,0.28,0.58,0.64,0.59,0.83c0.02,0.32-0.15,0.65-0.44,0.86
		c-0.22,0.16-0.25,0.36-0.25,0.4v1.46c0.2,0.15,0.25,0.38,0.24,0.51c-0.01,0.16-0.13,0.32-0.36,0.47c-0.08,0.05-0.11,0.1-0.11,0.12
		v3.1l0.15,0.1c0.3,0.23,0.37,0.48,0.37,0.65c0,0.37-0.28,0.63-0.35,0.69c-0.19,0.19-0.67,0.7-0.81,0.98
		c-0.16,0.33-0.19,0.54-0.19,1.4c0,0.64,0.11,0.9,0.14,0.96l0.45,0.47c0.24,0.23,0.36,0.45,0.36,0.68c0,0.21-0.1,0.4-0.29,0.58
		c-0.19,0.17-0.22,0.3-0.22,0.32V67.27z M400.28,66.65L400.28,66.65C400.28,66.65,400.28,66.65,400.28,66.65z"/>
	<path d="M405.86,55.84l-0.24-0.51l0.88-0.41V53.7l-0.7-0.6v-1.9l0.6-1.28l-0.35-0.62v-1.7l0.42-0.81l-0.72-1.35l0.37-1.59v-1.85
		l-0.26-2.44v-2.99l-0.54-1.66l-0.23-0.8c-0.17-0.58-0.01-0.86,0.02-0.92l0.01-0.01c0.13-0.19,0.2-0.32,0.24-0.42h-0.71v-0.56h1.14
		l0.08,0.08c0.15,0.15,0.22,0.48-0.28,1.2c-0.01,0.03-0.05,0.17,0.04,0.46l0.23,0.79l0.56,1.73v3.07l0.26,2.44v1.93l-0.34,1.45
		l0.76,1.42l-0.49,0.95v1.41l0.42,0.75l-0.67,1.43v1.51l0.7,0.6v1.83L405.86,55.84z"/>
	<rect x="403.39" y="34.56" width="2.2" height="0.56"/>
	<path d="M404.6,66.9l-2.66-0.7l0.89-0.3c0.01,0,1.01-0.35,1.47-0.78c0.04-0.04,0.08-0.07,0.11-0.11c0.17-0.16,0.34-0.31,0.42-0.49
		c0.1-0.23,0.12-0.61,0.06-0.97c-0.07-0.39-0.41-0.72-1.03-0.99c-0.71-0.31-1.73-0.32-2.3,0.26c-0.3,0.32-0.22,0.99,0.06,1.3
		c0.27,0.3,0.71,0.5,1.12,0.5c0.01,0,0.01,0,0.02,0c0.19,0,0.48-0.09,0.62-0.24c0.08-0.09,0.09-0.16,0.08-0.21
		c-0.01-0.22-0.32-0.41-0.58-0.54l0.26-0.5c0.26,0.13,0.86,0.44,0.89,1.02c0.01,0.23-0.07,0.44-0.24,0.62
		c-0.27,0.28-0.71,0.42-1.03,0.42c-0.58,0.01-1.19-0.25-1.57-0.68c-0.45-0.51-0.57-1.52-0.04-2.07c0.78-0.81,2.07-0.77,2.93-0.39
		c0.8,0.35,1.26,0.83,1.36,1.42c0.03,0.18,0.11,0.8-0.09,1.29c-0.12,0.29-0.35,0.5-0.55,0.68c-0.04,0.03-0.07,0.07-0.11,0.1
		c-0.24,0.23-0.58,0.43-0.89,0.58l0.95,0.25L404.6,66.9z"/>
	<path d="M405.09,62.86l-0.56-0.06c0.05-0.5-0.11-1.02-0.41-1.36c-0.1-0.11-0.23-0.21-0.37-0.29c-0.08-0.04-0.16-0.08-0.25-0.11
		c-0.18-0.08-0.38-0.16-0.56-0.33c-0.29-0.27-0.45-0.6-0.45-0.95c0-0.08,0-0.84,0.61-1.49c0.34-0.37,0.79-0.52,1.23-0.41
		c0.22,0.05,0.42,0.17,0.63,0.36c0.04,0.03,0.08,0.07,0.12,0.11c0.12,0.11,0.25,0.22,0.35,0.35c0.21,0.26,0.21,0.58-0.01,0.89
		c-0.17,0.25-0.32,0.49-0.49,0.77l-0.48-0.29c0.16-0.27,0.33-0.54,0.5-0.8c0.09-0.14,0.06-0.18,0.03-0.21
		c-0.08-0.09-0.18-0.19-0.29-0.28c-0.04-0.04-0.09-0.08-0.13-0.11c-0.13-0.12-0.25-0.2-0.38-0.23c-0.33-0.08-0.59,0.15-0.69,0.25
		c-0.47,0.5-0.46,1.09-0.46,1.09l0,0.01c0,0.25,0.17,0.44,0.27,0.54c0.11,0.1,0.25,0.16,0.4,0.23c0.09,0.04,0.19,0.08,0.29,0.14
		c0.2,0.11,0.37,0.24,0.52,0.4C404.94,61.52,405.15,62.2,405.09,62.86z"/>
	<path d="M402.64,60.06c-0.2,0-0.41-0.06-0.57-0.17c-0.51-0.35-0.52-1.08-0.48-1.48c0.05-0.49,0.33-0.96,0.78-1.29
		c0.82-0.61,2.65-1.61,2.67-1.61c0.22-0.12,0.35-0.21,0.4-0.37c0.16-0.49-0.44-1.05-0.78-1.27c-0.59-0.39-1.15-0.78-1.61-1.28
		c-0.6-0.66-0.43-1.5,0-2.05c0.46-0.58,1.32-0.98,2.13-0.53c0.11,0.06,0.22,0.14,0.32,0.24c0.41,0.38,0.61,0.82,0.61,1.31l0,0.29
		l-0.29-0.01c-0.26-0.01-0.52-0.01-0.77,0c-0.13,0-0.25,0-0.38,0v-0.56c0.12,0,0.25,0,0.37,0c0.16,0,0.31,0,0.47,0
		c-0.06-0.21-0.19-0.41-0.39-0.6c-0.07-0.06-0.14-0.12-0.22-0.16c-0.52-0.3-1.1-0.01-1.41,0.39c-0.28,0.35-0.43,0.88-0.03,1.32
		c0.42,0.45,0.95,0.82,1.51,1.2c0.62,0.41,1.25,1.16,1,1.92c-0.12,0.37-0.41,0.55-0.67,0.69c-0.02,0.01-1.81,0.99-2.6,1.57
		c-0.32,0.24-0.52,0.56-0.55,0.89c-0.02,0.17-0.05,0.76,0.24,0.96c0.09,0.06,0.21,0.09,0.32,0.07l0.1,0.56
		C402.76,60.06,402.7,60.06,402.64,60.06z"/>
	<path d="M402.43,57.4c-0.18-0.32-0.33-1.04,0.39-1.5c0.61-0.39,0.64-0.95,0.63-1.11c-0.01-0.12-0.12-0.55-0.58-0.55
		c-0.14,0-0.33,0.03-0.43,0.16c-0.11,0.15-0.11,0.44,0,0.81l-0.54,0.16c-0.17-0.57-0.14-1.01,0.08-1.31
		c0.13-0.18,0.39-0.39,0.88-0.39c0.75,0,1.12,0.64,1.14,1.09c0.01,0.24-0.02,1.06-0.89,1.61c-0.42,0.27-0.26,0.64-0.2,0.74
		L402.43,57.4z"/>
	<path d="M402.83,51.84c-0.36,0-0.68-0.14-0.87-0.39c-0.49-0.66,0.04-1.48,0.35-1.96c0.03-0.04,0.05-0.08,0.07-0.12
		c0.36-0.57,0.93-1.35,1.78-1.61c0.54-0.16,1.31-0.15,1.71,0.4c0.14,0.2,0.33,0.16,0.36,0.15l0.16,0.54
		c-0.22,0.07-0.67,0.07-0.99-0.37c-0.21-0.3-0.7-0.31-1.09-0.19c-0.51,0.15-0.99,0.6-1.47,1.37c-0.02,0.04-0.05,0.08-0.08,0.12
		c-0.33,0.52-0.61,1.01-0.37,1.32c0.1,0.13,0.31,0.17,0.46,0.16l0.03,0.56C402.88,51.83,402.85,51.84,402.83,51.84z"/>
	<path d="M404.09,48.12c-0.13-0.27-0.57-1.03-1.06-1.24c-0.29-0.12-0.5-0.09-0.58-0.01c-0.09,0.1-0.07,0.32,0.06,0.6l-0.51,0.25
		c-0.33-0.69-0.12-1.07,0.04-1.23c0.27-0.28,0.73-0.33,1.21-0.12c0.79,0.34,1.32,1.47,1.35,1.52L404.09,48.12z"/>
	<path d="M405.35,47.98h-0.56v-1.57l-2.51-1.92l-0.01-0.01c-0.07-0.07-0.42-0.44-0.42-0.82c0-0.25,0.1-0.75,0.78-1.32l1.19-0.96
		h1.73l1.01,0.64l-0.3,0.48l-0.88-0.55h-1.36l-1.03,0.83c-0.54,0.45-0.58,0.8-0.58,0.89c0,0.11,0.14,0.3,0.24,0.41l2.7,2.07V47.98z"
		/>
	<path d="M403.65,41.76c-0.01-0.02-0.21-0.52-0.21-1.11c-0.21,0.01-0.53,0.04-0.87,0.18v0c0,0-0.09,0.04-0.12,0.12
		c-0.04,0.1,0.01,0.23,0.06,0.32L402,41.52c-0.14-0.29-0.17-0.55-0.07-0.78c0.12-0.31,0.41-0.43,0.44-0.44
		c0.73-0.28,1.38-0.21,1.41-0.2l0.28,0.03l-0.03,0.28c-0.07,0.57,0.16,1.13,0.16,1.14L403.65,41.76z"/>
	<rect x="404.78" y="45.47" transform="matrix(0.8674 -0.4976 0.4976 0.8674 30.9887 207.8021)" width="1.36" height="0.56"/>
	<path d="M403.86,45.29l-0.5-0.26l0.25,0.13l-0.25-0.13c0,0,0.21-0.44,0.06-0.99c-0.1-0.36-0.14-0.65-0.01-0.87
		c0.13-0.23,0.39-0.31,0.66-0.37c0.3-0.07,0.85-0.16,1.2,0.11c0.16,0.13,0.25,0.31,0.25,0.54v0.7h-0.56v-0.7
		c0-0.07-0.02-0.08-0.03-0.09c-0.08-0.07-0.34-0.1-0.71-0.01c-0.24,0.06-0.3,0.09-0.31,0.11c0,0.01-0.04,0.08,0.06,0.44
		C404.18,44.66,403.87,45.26,403.86,45.29z"/>
	<polygon points="406.08,39.85 404.12,39.41 401.96,37.24 403.39,35.54 403.83,35.9 402.73,37.21 404.4,38.9 406.2,39.3 	"/>
	<path d="M403.88,38.56l-0.55-0.13c0,0,0.11-0.48,0.11-1.55v-0.28h1.98v1.4h-0.56v-0.84h-0.86
		C403.99,38.11,403.89,38.55,403.88,38.56z"/>
	<circle cx="398.24" cy="66.6" r="0.83"/>
	<circle cx="401.87" cy="32.51" r="0.83"/>
	<polygon points="310.7,80.15 310.7,81.13 311.59,81.13 311.59,82.17 312.54,82.17 312.54,81 313.46,80.03 312.84,79.33 
		312.08,80.15 	"/>
	<polygon points="410.55,82.06 411.53,82.06 411.53,81.17 412.57,81.17 412.57,80.22 411.4,80.22 410.43,79.3 409.73,79.92 
		410.55,80.68 	"/>
	<polygon points="312.67,18.52 311.69,18.52 311.69,19.42 310.66,19.42 310.66,20.36 311.83,20.36 312.8,21.29 313.5,20.66 
		312.67,19.9 	"/>
	<polygon points="412.48,20.41 412.48,19.42 411.58,19.42 411.58,18.39 410.64,18.39 410.64,19.56 409.72,20.53 410.34,21.23 
		411.1,20.41 	"/>
	<path d="M405.72,20.31c-1.74,0-2.88-0.56-3.36-0.85c-0.5,0.29-1.69,0.85-3.44,0.85c-1.74,0-2.88-0.56-3.36-0.85
		c-0.5,0.29-1.69,0.85-3.44,0.85c-1.74,0-2.88-0.56-3.36-0.85c-0.5,0.29-1.69,0.85-3.44,0.85c-1.74,0-2.88-0.56-3.36-0.85
		c-0.5,0.29-1.69,0.85-3.44,0.85c-1.74,0-2.88-0.56-3.36-0.85c-0.5,0.29-1.69,0.85-3.44,0.85c-1.74,0-2.88-0.56-3.36-0.85
		c-0.5,0.29-1.69,0.85-3.44,0.85c-1.74,0-2.88-0.56-3.36-0.85c-0.5,0.29-1.69,0.85-3.44,0.85c-1.74,0-2.88-0.56-3.36-0.85
		c-0.5,0.29-1.69,0.85-3.44,0.85c-1.74,0-2.88-0.56-3.36-0.85c-0.5,0.29-1.69,0.85-3.44,0.85c-1.74,0-2.88-0.56-3.36-0.85
		c-0.5,0.29-1.69,0.85-3.44,0.85c-1.74,0-2.88-0.56-3.36-0.85c-0.5,0.29-1.69,0.85-3.44,0.85c-1.74,0-2.88-0.56-3.36-0.85
		c-0.5,0.29-1.69,0.85-3.44,0.85c-1.74,0-2.88-0.56-3.36-0.85c-0.5,0.29-1.69,0.85-3.44,0.85c-2.32,0-3.57-1.02-3.63-1.06l0.54-0.65
		c0.01,0.01,1.09,0.87,3.09,0.87c2.01,0,3.18-0.84,3.19-0.85l0.26-0.19l0.25,0.2c0.01,0.01,1.09,0.84,3.09,0.84
		c2.01,0,3.18-0.84,3.19-0.85l0.26-0.19l0.25,0.2c0.01,0.01,1.09,0.84,3.09,0.84c2.01,0,3.18-0.84,3.19-0.85l0.26-0.19l0.25,0.2
		c0.01,0.01,1.09,0.84,3.09,0.84c2.01,0,3.18-0.84,3.19-0.85l0.26-0.19l0.25,0.2c0.01,0.01,1.09,0.84,3.09,0.84
		c2.01,0,3.18-0.84,3.19-0.85l0.26-0.19l0.25,0.2c0.01,0.01,1.09,0.84,3.09,0.84c2.01,0,3.18-0.84,3.19-0.85l0.26-0.19l0.25,0.2
		c0.01,0.01,1.09,0.84,3.09,0.84c2.01,0,3.18-0.84,3.19-0.85l0.26-0.19l0.25,0.2c0.01,0.01,1.09,0.84,3.09,0.84
		c2.01,0,3.18-0.84,3.19-0.85l0.26-0.19l0.25,0.2c0.01,0.01,1.09,0.84,3.09,0.84c2.01,0,3.18-0.84,3.19-0.85l0.26-0.19l0.25,0.2
		c0.01,0.01,1.09,0.84,3.09,0.84c2.01,0,3.18-0.84,3.19-0.85l0.26-0.19l0.25,0.2c0.01,0.01,1.09,0.84,3.09,0.84
		c2.01,0,3.18-0.84,3.19-0.85l0.26-0.19l0.25,0.2c0.01,0.01,1.09,0.84,3.09,0.84c2.01,0,3.18-0.84,3.19-0.85l0.26-0.19l0.25,0.2
		c0.01,0.01,1.09,0.84,3.09,0.84c2.01,0,3.18-0.84,3.19-0.85l0.26-0.19l0.25,0.2c0.01,0.01,1.09,0.84,3.09,0.84
		c2.01,0,3.18-0.84,3.19-0.85l0.5,0.68C409.36,19.33,408.03,20.31,405.72,20.31z"/>
	<path d="M311.56,78.88l-0.68-0.51c0.01-0.01,0.95-1.31,0.95-3.32c0-2-0.93-3.24-0.94-3.25l-0.2-0.25l0.19-0.26
		c0.01-0.01,0.95-1.31,0.95-3.32c0-2-0.93-3.24-0.94-3.25l-0.2-0.25l0.19-0.26c0.01-0.01,0.95-1.3,0.95-3.32
		c0-2-0.93-3.24-0.94-3.25l-0.2-0.25l0.19-0.26c0.01-0.01,0.95-1.3,0.95-3.32c0-2-0.93-3.24-0.94-3.25l-0.2-0.25l0.19-0.26
		c0.01-0.01,0.95-1.3,0.95-3.32c0-2-0.93-3.24-0.94-3.25l-0.2-0.25l0.19-0.26c0.01-0.01,0.95-1.3,0.95-3.32c0-2-0.93-3.24-0.94-3.25
		l-0.2-0.25l0.19-0.26c0.01-0.01,0.95-1.3,0.95-3.32c0-2-0.93-3.24-0.94-3.25l-0.2-0.25l0.19-0.26c0.01-0.01,0.95-1.3,0.95-3.32
		c0-2-0.95-3.23-0.96-3.24l0.66-0.53c0.05,0.06,1.15,1.46,1.15,3.77c0,1.77-0.63,3.05-0.94,3.57c0.32,0.51,0.94,1.74,0.94,3.51
		c0,1.77-0.63,3.05-0.94,3.57c0.32,0.51,0.94,1.74,0.94,3.51c0,1.77-0.63,3.05-0.94,3.57c0.32,0.51,0.94,1.74,0.94,3.51
		c0,1.77-0.63,3.05-0.94,3.57c0.32,0.51,0.94,1.74,0.94,3.51c0,1.77-0.63,3.05-0.94,3.57c0.32,0.51,0.94,1.74,0.94,3.51
		c0,1.77-0.63,3.05-0.94,3.57c0.32,0.51,0.94,1.74,0.94,3.51c0,1.77-0.63,3.05-0.94,3.57c0.32,0.51,0.94,1.74,0.94,3.51
		C312.67,77.36,311.6,78.82,311.56,78.88z"/>
	<circle cx="317.31" cy="18.92" r="0.51"/>
	<circle cx="324.19" cy="18.92" r="0.51"/>
	<circle cx="331" cy="18.92" r="0.51"/>
	<circle cx="337.78" cy="18.92" r="0.51"/>
	<circle cx="344.58" cy="18.92" r="0.51"/>
	<circle cx="351.38" cy="18.92" r="0.51"/>
	<circle cx="358.18" cy="18.92" r="0.51"/>
	<circle cx="364.98" cy="18.92" r="0.51"/>
	<circle cx="371.77" cy="18.92" r="0.51"/>
	<circle cx="378.68" cy="18.92" r="0.51"/>
	<circle cx="385.37" cy="18.92" r="0.51"/>
	<circle cx="392.24" cy="18.92" r="0.51"/>
	<circle cx="399.05" cy="18.92" r="0.51"/>
	<circle cx="405.86" cy="18.92" r="0.51"/>
	<path d="M402.37,82.17l-0.26-0.19c-0.01-0.01-1.18-0.85-3.19-0.85c-2,0-3.08,0.83-3.09,0.84l-0.25,0.2l-0.26-0.19
		c-0.01-0.01-1.18-0.85-3.19-0.85c-2,0-3.08,0.83-3.09,0.84l-0.25,0.2l-0.26-0.19c-0.01-0.01-1.18-0.85-3.19-0.85
		c-2,0-3.08,0.83-3.09,0.84l-0.25,0.2l-0.26-0.19c-0.01-0.01-1.18-0.85-3.19-0.85c-2,0-3.08,0.83-3.09,0.84l-0.25,0.2l-0.26-0.19
		c-0.01-0.01-1.18-0.85-3.19-0.85c-2,0-3.08,0.83-3.09,0.84l-0.25,0.2l-0.26-0.19c-0.01-0.01-1.18-0.85-3.19-0.85
		c-2,0-3.08,0.83-3.09,0.84l-0.25,0.2l-0.26-0.19c-0.01-0.01-1.18-0.85-3.19-0.85c-2,0-3.08,0.83-3.09,0.84l-0.25,0.2l-0.26-0.19
		c-0.01-0.01-1.18-0.85-3.19-0.85c-2,0-3.08,0.83-3.09,0.84l-0.25,0.2l-0.26-0.19c-0.01-0.01-1.18-0.85-3.19-0.85
		c-2,0-3.08,0.83-3.09,0.84l-0.25,0.2l-0.26-0.19c-0.01-0.01-1.18-0.85-3.19-0.85c-2,0-3.08,0.83-3.09,0.84l-0.25,0.2l-0.26-0.19
		c-0.01-0.01-1.18-0.85-3.19-0.85c-2,0-3.08,0.83-3.09,0.84l-0.25,0.2l-0.26-0.19c-0.01-0.01-1.18-0.85-3.19-0.85
		c-2,0-3.08,0.83-3.09,0.84l-0.25,0.2l-0.26-0.19c-0.01-0.01-1.18-0.85-3.19-0.85c-1.99,0-3.08,0.86-3.09,0.87l-0.54-0.65
		c0.05-0.04,1.31-1.06,3.63-1.06c1.75,0,2.94,0.56,3.44,0.85c0.48-0.29,1.62-0.85,3.36-0.85c1.75,0,2.94,0.56,3.44,0.85
		c0.48-0.29,1.62-0.85,3.36-0.85c1.75,0,2.94,0.56,3.44,0.85c0.48-0.29,1.62-0.85,3.36-0.85c1.75,0,2.94,0.56,3.44,0.85
		c0.48-0.29,1.62-0.85,3.36-0.85c1.75,0,2.94,0.56,3.44,0.85c0.48-0.29,1.62-0.85,3.36-0.85c1.75,0,2.94,0.56,3.44,0.85
		c0.48-0.29,1.62-0.85,3.36-0.85c1.75,0,2.94,0.56,3.44,0.85c0.48-0.29,1.62-0.85,3.36-0.85c1.75,0,2.94,0.56,3.44,0.85
		c0.48-0.29,1.62-0.85,3.36-0.85c1.75,0,2.94,0.56,3.44,0.85c0.48-0.29,1.62-0.85,3.36-0.85c1.75,0,2.94,0.56,3.44,0.85
		c0.48-0.29,1.62-0.85,3.36-0.85c1.75,0,2.94,0.56,3.44,0.85c0.48-0.29,1.62-0.85,3.36-0.85c1.75,0,2.94,0.56,3.44,0.85
		c0.48-0.29,1.62-0.85,3.36-0.85c1.75,0,2.94,0.56,3.44,0.85c0.48-0.29,1.62-0.85,3.36-0.85c2.31,0,3.64,0.97,3.7,1.02l-0.51,0.68
		c-0.01-0.01-1.18-0.85-3.19-0.85c-2,0-3.08,0.83-3.09,0.84L402.37,82.17z"/>
	<circle cx="317.31" cy="81.67" r="0.51"/>
	<circle cx="311.28" cy="75.16" r="0.51"/>
	<circle cx="311.28" cy="68.01" r="0.51"/>
	<circle cx="311.28" cy="60.98" r="0.51"/>
	<circle cx="311.28" cy="53.86" r="0.51"/>
	<circle cx="311.28" cy="46.75" r="0.51"/>
	<circle cx="311.28" cy="39.71" r="0.51"/>
	<circle cx="311.28" cy="32.55" r="0.51"/>
	<circle cx="311.28" cy="25.37" r="0.51"/>
	<path d="M411.73,78.66c-0.05-0.06-1.11-1.52-1.11-3.82c0-1.77,0.63-3,0.94-3.51c-0.31-0.52-0.94-1.79-0.94-3.57
		c0-1.77,0.63-3,0.94-3.51c-0.31-0.52-0.94-1.79-0.94-3.57c0-1.77,0.63-3,0.94-3.51c-0.31-0.52-0.94-1.79-0.94-3.57
		c0-1.77,0.63-3,0.94-3.51c-0.31-0.52-0.94-1.79-0.94-3.57c0-1.77,0.63-3,0.94-3.51c-0.31-0.52-0.94-1.79-0.94-3.57
		c0-1.77,0.63-3,0.94-3.51c-0.31-0.52-0.94-1.79-0.94-3.57c0-1.77,0.63-3,0.94-3.51c-0.31-0.52-0.94-1.79-0.94-3.57
		c0-2.31,1.1-3.71,1.15-3.77l0.66,0.53c-0.01,0.01-0.96,1.24-0.96,3.24c0,2.01,0.94,3.3,0.95,3.32l0.19,0.26l-0.2,0.25
		c-0.01,0.01-0.94,1.24-0.94,3.25c0,2.01,0.94,3.3,0.95,3.32l0.19,0.26l-0.2,0.25c-0.01,0.01-0.94,1.24-0.94,3.25
		c0,2.01,0.94,3.3,0.95,3.32l0.19,0.26l-0.2,0.25c-0.01,0.01-0.94,1.24-0.94,3.25c0,2.01,0.94,3.3,0.95,3.32l0.19,0.26l-0.2,0.25
		c-0.01,0.01-0.94,1.24-0.94,3.25c0,2.01,0.94,3.3,0.95,3.32l0.19,0.26l-0.2,0.25c-0.01,0.01-0.94,1.24-0.94,3.25
		c0,2.03,0.94,3.3,0.95,3.32l0.19,0.26l-0.2,0.25c-0.01,0.01-0.94,1.24-0.94,3.25c0,2.01,0.94,3.3,0.95,3.32l0.19,0.26l-0.2,0.25
		c-0.01,0.01-0.94,1.24-0.94,3.25c0,2.01,0.94,3.3,0.95,3.32L411.73,78.66z"/>
	<circle cx="412.02" cy="74.94" r="0.51"/>
	<circle cx="412.02" cy="67.79" r="0.51"/>
	<circle cx="412.02" cy="60.75" r="0.51"/>
	<circle cx="412.02" cy="53.63" r="0.51"/>
	<circle cx="412.02" cy="46.52" r="0.51"/>
	<circle cx="412.02" cy="39.48" r="0.51"/>
	<circle cx="412.02" cy="32.33" r="0.51"/>
	<circle cx="412.02" cy="25.14" r="0.51"/>
	<circle cx="324.19" cy="81.67" r="0.51"/>
	<circle cx="331" cy="81.67" r="0.51"/>
	<circle cx="337.78" cy="81.67" r="0.51"/>
	<circle cx="344.58" cy="81.67" r="0.51"/>
	<circle cx="351.38" cy="81.67" r="0.51"/>
	<circle cx="358.18" cy="81.67" r="0.51"/>
	<circle cx="364.98" cy="81.67" r="0.51"/>
	<circle cx="371.77" cy="81.67" r="0.51"/>
	<circle cx="378.68" cy="81.67" r="0.51"/>
	<circle cx="385.37" cy="81.67" r="0.51"/>
	<circle cx="392.24" cy="81.67" r="0.51"/>
	<circle cx="399.05" cy="81.67" r="0.51"/>
	<circle cx="405.86" cy="81.67" r="0.51"/>
	<g id="bangladesh_x5F_bangla">
		<path d="M338.3,25.12c0.03-0.05,0.09-0.08,0.14-0.11c0.06-0.04,0.12-0.09,0.18-0.13c0.14-0.1,0.28-0.2,0.41-0.29
			c0.12-0.09,0.24-0.17,0.36-0.26c0.12-0.08,0.23-0.16,0.35-0.24c0,0,0.01-0.01,0.01-0.01c0-0.01,0-0.01-0.01-0.02
			c-0.18-0.24-0.37-0.48-0.56-0.72c0,0-14.78,0-14.78,0c-0.54,0-0.67,0.33-0.67,0.7s0.59,0.55,0.59,0.55s4.21,0,4.73,0
			s0.68,0,0.68,0.34c0,0.34-0.22,0.4-0.22,0.4l-3.98,0.73c-1.39,0.14-1.26,0.51-1.26,0.51l0.13,0.69c0.17,0.71,0.61,0.73,0.61,0.73
			c2.18-0.05,4.34,0.51,6.29,1.45c0.75,0.36,1.45,0.78,2.14,1.25c0.03,0.02,0.05,0.04,0.08,0.05c0.04,0.01,0.08,0.01,0.12,0.01
			c0.16,0,0.33,0,0.49,0c0-1.43,0-2.86,0-4.29c0-0.33,0-0.67,0-1c0-0.22,0.24-0.66,1.27-0.66s1.06,0.63,1.06,0.63
			c0,1.11,0.01,2.22,0,3.33c0,0.02,0,0.05,0.01,0.07c0.01,0.03,0.03,0.05,0.05,0.06c0.29,0.25,0.58,0.5,0.87,0.74
			c0.22,0.19,0.49,0.52,0.76,0.64c0.12,0.05,0.25,0.04,0.37,0.02c0.01,0,0.03,0,0.04-0.02c0.01-0.01,0.01-0.03,0.01-0.04
			c0-0.11,0.07-0.5-0.05-0.57c-0.04-0.03-0.09-0.03-0.13-0.03s-0.1-0.03-0.11-0.07c-0.01-0.02-0.01-0.04-0.01-0.06
			c0.01-1.03,0.01-2.07,0-3.1c0-0.4,0-0.8,0-1.2C338.29,25.17,338.29,25.14,338.3,25.12z M331.79,28.49
			c-0.79-0.18-1.49-0.64-2.26-0.86c-0.24-0.07-0.5-0.12-0.68-0.31c-0.02-0.03-0.04-0.05-0.06-0.08c-0.03-0.05-0.05-0.1-0.06-0.16
			c0-0.07,0.03-0.14,0.08-0.2c0.07-0.09,0.15-0.17,0.24-0.23c0.17-0.1,0.36-0.16,0.55-0.2c0.65-0.14,1.3-0.17,1.97-0.15
			c0.36,0.01,0.7,0.06,0.83,0.44c0.07,0.22,0.07,0.47,0.08,0.7c0.01,0.26,0.02,0.52-0.02,0.78c-0.03,0.26-0.2,0.35-0.45,0.31
			C331.93,28.52,331.86,28.51,331.79,28.49z"/>
		<path d="M347.04,24.06c-0.08-0.14-0.17-0.27-0.27-0.38c-0.98-1.15-2.5-1.22-3.87-0.82c-0.49,0.14-0.94,0.4-1.3,0.76
			c-0.36,0.36-0.75,0.87-0.66,1.41c0.11,0.65,0.51,1.18,1.03,1.57c0.63,0.47,1.43,0.63,2.2,0.52c0.85-0.12,1.5-0.56,2.1-1.14
			c0.29-0.28,0.6-0.56,0.83-0.89C347.32,24.77,347.22,24.37,347.04,24.06z M345.4,24.97c0,0.4-0.24,0.74-0.62,0.87
			c-0.42,0.15-0.96,0.1-1.37-0.07c-0.33-0.13-0.56-0.44-0.6-0.8c-0.05-0.46,0.23-0.89,0.63-1.1c0.48-0.25,1.09-0.17,1.51,0.17
			C345.22,24.26,345.39,24.62,345.4,24.97z"/>
		<path d="M343.68,28.36c0.12-0.03,0.26-0.02,0.38-0.03c0.32-0.02,0.63-0.04,0.95-0.04c0.73,0.01,1.47-0.06,2.19,0.07
			c1.23,0.23,2.28,1.1,3.02,2.07c0,0,0.15,0.32,0,0.66c-0.05,0.11-0.4,0.02-0.47-0.01c-0.32-0.11-0.56-0.38-0.84-0.55
			c-0.67-0.39-1.4-0.54-2.17-0.52c-0.65,0.02-1.33,0.04-1.91,0.38c-0.4,0.23-0.74,0.05-0.97-0.33l-0.6-0.93
			C343.27,29.13,342.91,28.56,343.68,28.36z"/>
		<path d="M350.2,23.13h18.41c0,0,0.76,0.07,0.76,0.81c0,0,0.05,0.48-0.73,0.48h-1.03c0,0-0.75-0.05-1.08,0.42
			c0,0-0.27,0.17-0.27,1.56v3.32c0,0,0.03,0.68-0.18,0.91c0,0-0.42,0.27-0.96-0.35l-0.88-0.91c0,0-0.27-0.1-0.27-0.7v-3.37
			c0,0-0.12-0.75-1.05-0.75c0,0-1.01-0.22-1.01,1.15v3.57h0.17v1.26c0,0-1.78-0.1-2.13-1.18v-1.29c0,0,0.03-0.32-0.32-0.51
			c0,0-0.57-0.78-1.73,0.01c0,0-0.71,0.56-1.93-0.01c0,0-1.21-1.05-2.57-1.05c-1.35,0-1.7,0.49-1.7,1.15s0.66,1.13,1.37,1.13
			c0.71,0,1.05-0.5,1.05-0.5s0.3-0.31,0.95-0.31c0.65,0,1.2,0.41,1.49,0.82c0.3,0.42,0.45,0.7,0.46,1.09s-0.07,0.73-0.59,0.73
			s-1.65,0-1.65,0s-1.88-0.18-3.33-1.48c0,0-1.4-1.11-1.44-2.08c-0.03-0.97,1.49-1.71,1.49-1.71s1.77-0.95,3.62-0.04l0.73,0.34
			c0,0,0.65,0.41,1.14,0c0.49-0.41,2.18-0.43,2.97,0.01v-1.1h-9.87c0,0-0.93,0.13-0.93-0.64C349.17,23.14,350.2,23.13,350.2,23.13z"
			/>
		<path d="M374.88,25.28c-0.04,0.06-0.08,0.11-0.13,0.16c-0.15,0.14-0.33,0.25-0.5,0.36c-0.07,0.04-0.77,0.37-0.77,0.43
			c-1.63,1.01-1.26,1.84-1.26,1.84c0.1,1,1.05,0.93,1.05,0.93c0.14-0.3,0.39-0.51,0.64-0.71c0.45-0.36,0.96-0.53,1.49-0.23
			c0.45,0.26,0.77,0.71,1.06,1.13c0.46,0.66-0.29,1.18-0.83,1.46c-0.64,0.33-1.31,0.13-1.97-0.05c-0.7-0.19-1.38-0.45-2.06-0.73
			c-0.46-0.19-0.87-0.37-1.15-0.81c-0.24-0.37-0.35-0.83-0.35-1.27c0-0.71,0.51-1.44,0.51-1.44l0.76-0.85
			c0.18-0.46,0.03-0.68,0.03-0.68c-0.68-0.12-0.66-0.76-0.66-0.76c0-0.8,1.05-0.94,1.05-0.94h13.05c0,0,0.51,0.16,0.51,0.76
			c0,0.6-0.62,0.65-0.62,0.65h-5.56c0,0-0.6,0.31-0.6,1.03c0,0,0.15,0.88,0.87,0.84c0,0,0.56,0.04,1.1-0.74l0.37-0.43
			c0,0,0.18-0.22,0.48-0.22c0,0,0.42-0.02,0.77,0.33l1.19,0.78c0,0,0.35,0.1,0.35,0.62c0,0,0.07,0.25-0.32,0.69l-0.22,0.25
			c0,0-0.14,0.17-0.14,0.62c0,0.45,0.56,1.06,1.94,1.67l0.59,0.26c0,0,0.2,0.13,0.2,0.43s-0.35,0.51-0.82,0.51s-2.23-0.58-3.16-1.96
			c-0.28-0.42-0.1-0.89-0.22-1.33c-0.07-0.22-0.39-0.36-0.61-0.36c-0.23,0-0.35,0.14-0.49,0.3c-0.26,0.3-0.49,0.64-0.64,1.01
			c-0.1,0.25-0.18,0.62-0.52,0.62c-0.37,0-0.84-0.52-1.1-0.74c-0.22-0.19-0.44-0.39-0.66-0.6c-0.2-0.18-0.5-0.39-0.62-0.63
			c-0.23-0.43-0.03-0.91-0.04-1.35c-0.01-0.2-0.14-0.32-0.24-0.48c-0.09-0.15-0.19-0.3-0.28-0.46c-0.09-0.15-0.17-0.46-0.34-0.55
			c-0.22-0.11-0.53-0.05-0.77-0.04c-0.03,0-0.05,0-0.07,0.02c-0.02,0.02-0.03,0.04-0.05,0.07C375.06,24.9,375,25.11,374.88,25.28z"
			/>
		<path d="M386.45,24.51l0.65-0.85c0,0,0.36-0.53,1.1-0.53s1.16,0.25,1.89,0.94c0,0,0.54,0.76,1.34,0.76c0.81,0,1.69-0.91,1.69-0.91
			s0.45-0.47,1.02-0.47c0.57,0,0.87,0.4,0.87,0.4s0.21,0.34,0.56,0.34c0.35,0,0.91-0.65,0.91-0.65s0.24-0.27,0.61-0.27
			s0.62,0.41,0.62,0.41c0.16-0.05,0.33-0.14,0.49-0.21c0.16-0.07,0.31-0.17,0.49-0.12c0.21,0.06,0.43,0.18,0.63,0.28
			c0.03,0.01,0.05,0.03,0.07,0.05c0.02,0.03,0.02,0.06,0.02,0.09c0,0.07,0,0.15,0.01,0.22c0,0.07,0,0.14-0.03,0.2
			c-0.02,0.05-0.07,0.08-0.11,0.11c-0.36,0.29-0.73,0.58-1.1,0.87c-0.03,0.02-0.06,0.05-0.08,0.08c-0.02,0.04-0.02,0.08-0.02,0.12
			c0,1.07,0,2.15,0,3.22c0,0.33,0,0.67,0,1c0,0.01,0,0.02,0,0.02c0.01,0.01,0.03,0.02,0.04,0.02c0.07,0,0.15,0,0.22,0
			c0.01,0,0.02,0,0.03,0.01c0,0.01,0,0.01,0,0.02c0,0.23,0,0.46,0,0.69c0,0.13,0,0.26,0,0.39c0,0.1,0,0.19,0,0.29
			c-0.12-0.04-0.23-0.08-0.35-0.13c-0.11-0.05-0.23-0.09-0.34-0.15c-0.11-0.05-0.22-0.1-0.33-0.16c-0.01-0.01-0.03-0.01-0.04-0.02
			c-0.3-0.16-0.62-0.34-0.84-0.6c-0.08-0.1-0.16-0.22-0.16-0.36c0-1.04,0-2.08,0-3.13c0-0.02,0-0.05-0.01-0.07
			c-0.04-0.12-0.27-0.24-0.37-0.31c-0.16-0.11-0.32-0.2-0.5-0.27c-0.34-0.15-0.72-0.23-1.09-0.23c-1.23,0-1.83,0.65-1.83,1.25
			c0,0,0.05,0.61,0.61,0.61c0.56,0,0.62-0.14,0.62-0.14s0.43,0.13,0.43,0.7c0,0.56-0.65,1.25-1.36,1.25c0,0-0.86,0.05-1.73-0.86
			c0,0-1.19,1.08-1.93,1.08c0,0-1.3,0.12-1.66-1.18c0,0-0.01-0.34,0.19-0.55c0,0,1.16-0.24,1.73-0.6c0,0,0.39-0.27,0.39-0.9
			c0,0,0.07-0.49-0.61-0.96c0,0-0.33-0.29-0.93-0.29c0,0-0.57-0.08-0.93,0.28c0,0-0.3,0.3-0.66,0.3s-0.47-0.19-0.47-0.52
			C386.22,24.73,386.45,24.51,386.45,24.51z"/>
	</g>
	<text transform="matrix(1.1571 0 0 1 324.1273 76.9427)"><tspan x="0" y="0" class="st2 st3">B</tspan><tspan x="6.12" y="0" class="st2 st4">an</tspan><tspan x="21.19" y="0" class="st2 st3">GL</tspan><tspan x="33.14" y="0" class="st2 st4">a</tspan><tspan x="40.89" y="0" class="st2 st3">DESH</tspan></text>
	<path class="st5" d="M329.93,41.54c-0.36,0-0.71,0-1.07,0c-0.05,0-0.1,0-0.15-0.01c-0.16-0.04-0.28-0.19-0.29-0.36
		c-0.02-0.23,0.13-0.46,0.35-0.53c0.18-0.06,0.38-0.05,0.58-0.04c0.42,0.01,0.81-0.06,1.12-0.37c0.06-0.06,0.11-0.12,0.14-0.2
		c0.1-0.25,0.04-0.55,0.03-0.81c-0.01-0.23-0.04-0.47-0.11-0.69c-0.05-0.17-0.15-0.34-0.3-0.44c-0.11-0.07-0.23-0.09-0.36-0.1
		c-0.44-0.01-0.74,0.28-0.94,0.65c-0.16,0.3-0.29,0.77-0.6,0.96c-0.22,0.13-0.33-0.09-0.36-0.29c-0.13-0.98,0.37-1.99,1.17-2.55
		c0.44-0.31,0.92-0.27,1.43,0c0.46,0.24,0.77,0.71,0.92,1.2c0.16,0.51,0.07,1.01,0.05,1.53c-0.01,0.29,0.04,0.61,0.23,0.83
		c0.26,0.3,0.68,0.29,1.05,0.29c0.36,0,0.71-0.02,1.07,0c0.26,0.02,0.52,0.11,0.53,0.42c0.01,0.34-0.21,0.49-0.53,0.5
		c-0.51,0-1.04-0.04-1.54,0.01c-0.17,0.02-0.34,0.06-0.49,0.14c-0.11,0.06-0.21,0.15-0.25,0.27c-0.03,0.07-0.03,0.15-0.03,0.23
		c-0.02,0.58-0.05,1.16-0.05,1.73c0,0.6,0,1.2,0,1.8c0,0.3,0,0.59,0,0.89c0,0.25,0,0.52,0.15,0.74c0.44,0.64,1.4,0.46,1.8-0.1
		c0.31-0.43,0.44-0.99,0.48-1.51c0.03-0.38-0.08-0.8-0.4-1.02c-0.13-0.08-0.28-0.13-0.41-0.2c-0.13-0.07-0.26-0.18-0.29-0.33
		c-0.03-0.18,0.09-0.35,0.22-0.47c0.19-0.16,0.43-0.26,0.67-0.35c0.08-0.03,0.16-0.05,0.25-0.05c0.15,0,0.29,0.09,0.39,0.2
		c0.35,0.36,0.37,0.91,0.39,1.4c0.03,0.82,0.06,1.68-0.26,2.43c-0.22,0.51-0.6,0.94-1.08,1.22c-0.57,0.34-1.32,0.44-1.91,0.14
		c-0.46-0.24-0.77-0.7-0.92-1.19c-0.15-0.48-0.13-0.95-0.11-1.44c0.02-0.49,0.04-0.99,0.03-1.49c0-0.79,0-1.57-0.01-2.36
		c0-0.14,0-0.29-0.06-0.42C330.39,41.61,330.14,41.54,329.93,41.54z"/>
</g>
<g id="postage_x5F_paid">
	<text transform="matrix(0.9602 0 0 1 339.3256 67.4818)" class="st6 st7">Postage Paid</text>
</g>
<g id="mashul">
	<text transform="matrix(0.9649 0 0 1 336.5131 48.5941)" class="st8 st9">00098.00</text>
</g>
</svg>
