<?xml version="1.0" encoding="utf-8"?>
<!-- Generator: Adobe Illustrator 28.4.1, SVG Export Plug-In . SVG Version: 6.00 Build 0)  -->
<svg version="1.1" id="Layer_1" xmlns="http://www.w3.org/2000/svg" xmlns:xlink="http://www.w3.org/1999/xlink" x="0px" y="0px"
	 viewBox="0 0 1536 608" style="enable-background:new 0 0 1536 608;" xml:space="preserve">
<style type="text/css">
	.st0{fill:#FFFFFF;}
	.st1{fill:#597BBD;}
	.st2{opacity:0.3;}
	.st3{fill:#242568;}
	.st4{opacity:0.55;}
	.st5{fill:#45B753;}
	.st6{fill:#EF4423;}
	.st7{fill:#27306B;}
	.st8{fill:#FEBE10;}
	.st9{opacity:0.2;}
	.st10{fill:#FEEEEE;}
	.st11{opacity:0.6;}
	.st12{opacity:0.35;}
	.st13{opacity:0.21;fill:#ACDEE3;enable-background:new    ;}
	.st14{fill:none;}
	.st15{opacity:0.42;fill:#ACDEE3;enable-background:new    ;}
	.st16{fill:#EC2227;}
</style>
<rect x="-7.82" y="-8.24" class="st0" width="1551.65" height="624.47"/>
<g>
	<g>
		<g>
			<path class="st1" d="M1148.26,316.85H998.43c-21.14,0-38.34-17.2-38.34-38.34s17.2-38.34,38.34-38.34h149.83"/>
		</g>
	</g>
	<g class="st2">
		<g>
			<path class="st3" d="M1148.26,302.28v14.57H998.43c-21.15,0-38.34-17.2-38.34-38.34c0-2.49,0.24-4.92,0.7-7.28
				c3.4,17.66,18.98,31.05,37.64,31.05H1148.26z"/>
		</g>
	</g>
	<g class="st4">
		<g>
			<path class="st0" d="M1148.26,240.18v7.63H998.43c-19.86,0-36.23,15.17-38.15,34.53c-0.12-1.26-0.19-2.53-0.19-3.82
				c0-21.14,17.19-38.34,38.34-38.34H1148.26z"/>
		</g>
	</g>
	<g>
		<g>
			<path class="st1" d="M1262.73,316.85h-119.65c-21.14,0-38.34-17.2-38.34-38.34s17.2-38.34,38.34-38.34h119.65
				c5.17,0,9.37,4.19,9.37,9.37c0,5.17-4.19,9.37-9.37,9.37h-119.65c-10.81,0-19.61,8.79-19.61,19.61s8.8,19.61,19.61,19.61h119.65
				c5.17,0,9.37,4.19,9.37,9.37C1272.1,312.66,1267.9,316.85,1262.73,316.85z"/>
		</g>
	</g>
	<g class="st4">
		<g>
			<path class="st0" d="M1272.1,306.05c0,1.93-0.58,3.73-1.59,5.21c-1.04-4.05-4.7-7.03-9.07-7.03h-119.65
				c-10.81,0-19.61-8.79-19.61-19.61c0-2.48,0.47-4.86,1.31-7.05c0.26,10.58,8.95,19.11,19.59,19.11h119.65
				C1267.9,296.69,1272.1,300.88,1272.1,306.05z"/>
		</g>
		<g>
			<path class="st0" d="M1141.78,246.29c-17.59,0-32.43,11.89-36.93,28.06c1.4-19.87,18-35.6,38.23-35.6h119.65
				c5.17,0,9.37,4.19,9.37,9.37c0,1.93-0.58,3.73-1.59,5.21c-1.04-4.05-4.7-7.03-9.07-7.03h-119.66V246.29z"/>
		</g>
	</g>
	<g>
		<g>
			<path class="st3" d="M1262.73,319.97h-119.65c-22.86,0-41.46-18.6-41.46-41.46s18.6-41.46,41.46-41.46h119.65
				c6.89,0,12.49,5.6,12.49,12.49s-5.6,12.49-12.49,12.49h-119.65c-9.09,0-16.48,7.4-16.48,16.48s7.39,16.48,16.48,16.48h119.65
				c6.89,0,12.49,5.6,12.49,12.49C1275.22,314.37,1269.62,319.97,1262.73,319.97z M1143.08,243.3c-19.42,0-35.21,15.8-35.21,35.21
				s15.8,35.21,35.21,35.21h119.65c3.44,0,6.24-2.8,6.24-6.24s-2.8-6.24-6.24-6.24h-119.65c-12.53,0-22.73-10.2-22.73-22.73
				s10.2-22.73,22.73-22.73h119.65c3.44,0,6.24-2.8,6.24-6.24s-2.8-6.24-6.24-6.24H1143.08z"/>
		</g>
	</g>
	<g>
		<g>
			<path class="st3" d="M1148.26,319.97H998.43c-22.86,0-41.46-18.6-41.46-41.46s18.6-41.46,41.46-41.46h149.83
				c1.72,0,3.12,1.4,3.12,3.12s-1.4,3.12-3.12,3.12H998.43c-19.42,0-35.22,15.8-35.22,35.21s15.8,35.21,35.22,35.21h149.83
				c1.72,0,3.12,1.4,3.12,3.12C1151.38,318.57,1149.99,319.97,1148.26,319.97z"/>
		</g>
	</g>
	<g>
		<path class="st0" d="M1261.18,298.12h-118.1c-10.81,0-19.61-8.79-19.61-19.61c0-10.81,8.79-19.61,19.61-19.61h118.1
			C1246.96,258.91,1246.96,298.12,1261.18,298.12z"/>
		<path class="st3" d="M1261.18,298.64h-118.1c-11.1,0-20.13-9.03-20.13-20.13s9.03-20.13,20.13-20.13h118.1v1.04
			c-6.97,0-10.15,9.89-10.15,19.08s3.18,19.08,10.15,19.08V298.64z M1143.08,259.43c-10.52,0-19.09,8.56-19.09,19.08
			s8.56,19.08,19.09,19.08h114.19c-4.97-2.87-7.28-11.22-7.28-19.08c0-5.21,0.97-10.08,2.72-13.71c1.22-2.53,2.77-4.34,4.57-5.38
			h-114.2V259.43z"/>
	</g>
	<g class="st2">
		<path class="st3" d="M1261.18,258.91c-5.53,0-8.91,5.91-10.14,13.15h-111.88c-6.38,0-12.06,3.06-15.64,7.79
			c-0.04-0.45-0.05-0.89-0.05-1.34c0-10.81,8.79-19.61,19.61-19.61L1261.18,258.91L1261.18,258.91z"/>
	</g>
	<g>
		<path class="st3" d="M1261.18,301.24h-118.1c-12.53,0-22.73-10.2-22.73-22.73s10.2-22.73,22.73-22.73h118.1
			c1.72,0,3.12,1.4,3.12,3.12s-1.4,3.12-3.12,3.12c-4.72,0-7.55,8.38-7.55,16.48s2.82,16.48,7.55,16.48c1.72,0,3.12,1.4,3.12,3.12
			C1264.3,299.84,1262.91,301.24,1261.18,301.24z M1143.08,262.03c-9.09,0-16.48,7.4-16.48,16.48s7.39,16.48,16.48,16.48h108.22
			c-2.65-4.41-3.91-10.57-3.91-16.48s1.26-12.07,3.91-16.48H1143.08z"/>
	</g>
</g>
<g>
	<g>
		<g>
			<path class="st5" d="M1118.1,394.14H968.27c-21.14,0-38.34-17.2-38.34-38.34s17.2-38.34,38.34-38.34h149.83"/>
			<path class="st3" d="M1118.1,394.66H968.27c-21.43,0-38.86-17.43-38.86-38.86s17.43-38.86,38.86-38.86h149.83v1.04H968.27
				c-20.85,0-37.82,16.96-37.82,37.82c0,20.85,16.96,37.82,37.82,37.82h149.83V394.66z"/>
		</g>
	</g>
	<g class="st2">
		<g>
			<path class="st3" d="M1118.1,379.58v14.57H968.27c-21.15,0-38.34-17.2-38.34-38.34c0-2.49,0.24-4.92,0.7-7.28
				c3.4,17.66,18.98,31.05,37.64,31.05H1118.1z"/>
		</g>
	</g>
	<g class="st4">
		<g>
			<path class="st0" d="M1118.1,317.47v7.63H968.27c-19.86,0-36.23,15.17-38.15,34.53c-0.12-1.26-0.19-2.53-0.19-3.82
				c0-21.14,17.19-38.34,38.34-38.34H1118.1z"/>
		</g>
	</g>
	<g>
		<g>
			<path class="st5" d="M1232.57,394.14h-119.65c-21.14,0-38.34-17.2-38.34-38.34s17.2-38.34,38.34-38.34h119.65
				c5.17,0,9.37,4.19,9.37,9.37s-4.19,9.37-9.37,9.37h-119.65c-10.81,0-19.61,8.79-19.61,19.61c0,10.81,8.79,19.61,19.61,19.61
				h119.65c5.17,0,9.37,4.19,9.37,9.37C1241.94,389.95,1237.74,394.14,1232.57,394.14z"/>
			<path class="st3" d="M1232.57,394.66h-119.65c-21.43,0-38.86-17.43-38.86-38.86s17.43-38.86,38.86-38.86h119.65
				c5.45,0,9.89,4.44,9.89,9.89s-4.43,9.89-9.89,9.89h-119.65c-10.52,0-19.09,8.56-19.09,19.08s8.56,19.08,19.09,19.08h119.65
				c5.45,0,9.89,4.44,9.89,9.89C1242.46,390.23,1238.02,394.66,1232.57,394.66z M1112.92,317.99c-20.85,0-37.82,16.96-37.82,37.82
				c0,20.85,16.96,37.82,37.82,37.82h119.65c4.88,0,8.85-3.97,8.85-8.84c0-4.88-3.97-8.85-8.85-8.85h-119.65
				c-11.1,0-20.13-9.03-20.13-20.13s9.03-20.13,20.13-20.13h119.65c4.88,0,8.85-3.97,8.85-8.84c0-4.88-3.97-8.85-8.85-8.85H1112.92z
				"/>
		</g>
	</g>
	<g class="st4">
		<g>
			<path class="st0" d="M1241.94,383.35c0,1.93-0.58,3.73-1.59,5.21c-1.04-4.05-4.7-7.03-9.07-7.03h-119.65
				c-10.81,0-19.61-8.79-19.61-19.61c0-2.48,0.47-4.86,1.31-7.04c0.26,10.58,8.95,19.11,19.59,19.11h119.65
				C1237.74,373.98,1241.94,378.17,1241.94,383.35z"/>
		</g>
		<g>
			<path class="st0" d="M1111.62,323.58c-17.59,0-32.43,11.89-36.93,28.06c1.4-19.87,18-35.6,38.23-35.6h119.65
				c5.17,0,9.37,4.19,9.37,9.37c0,1.93-0.58,3.73-1.59,5.21c-1.04-4.05-4.7-7.03-9.07-7.03L1111.62,323.58L1111.62,323.58z"/>
		</g>
	</g>
	<g>
		<g>
			<path class="st3" d="M1232.57,397.26h-119.65c-22.86,0-41.46-18.6-41.46-41.46s18.6-41.46,41.46-41.46h119.65
				c6.89,0,12.49,5.6,12.49,12.49c0,6.89-5.6,12.49-12.49,12.49h-119.65c-9.09,0-16.48,7.4-16.48,16.48s7.39,16.48,16.48,16.48
				h119.65c6.89,0,12.49,5.6,12.49,12.49C1245.06,391.66,1239.46,397.26,1232.57,397.26z M1112.92,320.59
				c-19.42,0-35.22,15.8-35.22,35.22s15.8,35.21,35.22,35.21h119.65c3.44,0,6.24-2.8,6.24-6.24s-2.8-6.24-6.24-6.24h-119.65
				c-12.53,0-22.73-10.19-22.73-22.73c0-12.53,10.2-22.73,22.73-22.73h119.65c3.44,0,6.24-2.8,6.24-6.24s-2.8-6.24-6.24-6.24
				h-119.65V320.59z"/>
		</g>
	</g>
	<g>
		<g>
			<path class="st3" d="M1118.1,397.26H968.27c-22.86,0-41.46-18.6-41.46-41.46s18.6-41.46,41.46-41.46h149.83
				c1.72,0,3.12,1.4,3.12,3.12s-1.4,3.12-3.12,3.12H968.27c-19.42,0-35.22,15.8-35.22,35.22s15.8,35.21,35.22,35.21h149.83
				c1.72,0,3.12,1.4,3.12,3.12C1121.22,395.87,1119.83,397.26,1118.1,397.26z"/>
		</g>
	</g>
	<g>
		<path class="st0" d="M1231.02,375.41h-118.1c-10.81,0-19.61-8.79-19.61-19.61c0-10.81,8.79-19.61,19.61-19.61h118.1
			C1216.79,336.2,1216.79,375.41,1231.02,375.41z"/>
		<path class="st3" d="M1231.02,375.93h-118.1c-11.1,0-20.13-9.03-20.13-20.13s9.03-20.13,20.13-20.13h118.1v1.04
			c-6.97,0-10.15,9.89-10.15,19.08c0,9.19,3.18,19.08,10.15,19.08V375.93z M1112.92,336.72c-10.52,0-19.09,8.56-19.09,19.08
			s8.56,19.08,19.09,19.08h114.19c-4.97-2.87-7.28-11.22-7.28-19.08c0-5.21,0.97-10.08,2.72-13.71c1.22-2.53,2.77-4.34,4.57-5.38
			h-114.2V336.72z"/>
	</g>
	<g class="st2">
		<path class="st3" d="M1231.02,336.2c-5.53,0-8.91,5.91-10.14,13.15H1109c-6.38,0-12.06,3.06-15.64,7.79
			c-0.04-0.45-0.05-0.9-0.05-1.34c0-10.81,8.79-19.61,19.61-19.61h118.1V336.2z"/>
	</g>
	<g>
		<path class="st3" d="M1231.02,378.53h-118.1c-12.53,0-22.73-10.2-22.73-22.73s10.2-22.73,22.73-22.73h118.1
			c1.72,0,3.12,1.4,3.12,3.12s-1.4,3.12-3.12,3.12c-4.72,0-7.55,8.38-7.55,16.48s2.82,16.48,7.55,16.48c1.72,0,3.12,1.4,3.12,3.12
			C1234.14,377.13,1232.74,378.53,1231.02,378.53z M1112.92,339.32c-9.09,0-16.48,7.39-16.48,16.48s7.39,16.48,16.48,16.48h108.22
			c-2.65-4.41-3.91-10.57-3.91-16.48s1.26-12.07,3.91-16.48H1112.92z"/>
	</g>
</g>
<g>
	<g>
		<g>
			<path class="st6" d="M1148.35,471.8H998.52c-21.14,0-38.34-17.2-38.34-38.34s17.2-38.34,38.34-38.34h149.83"/>
		</g>
	</g>
	<g class="st2">
		<g>
			<path class="st7" d="M1148.35,457.23v14.57H998.52c-21.15,0-38.34-17.2-38.34-38.34c0-2.49,0.24-4.92,0.7-7.28
				c3.4,17.66,18.98,31.05,37.64,31.05H1148.35z"/>
			<path class="st3" d="M1148.87,472.32H998.52c-21.43,0-38.86-17.43-38.86-38.86c0-2.48,0.24-4.96,0.71-7.38l0.51-2.64l0.51,2.64
				c3.42,17.75,19.03,30.63,37.13,30.63h150.35L1148.87,472.32L1148.87,472.32z M960.98,428.93c-0.18,1.5-0.27,3.02-0.27,4.54
				c0,20.85,16.96,37.82,37.82,37.82h149.31v-13.53H998.52C980.84,457.75,965.47,445.78,960.98,428.93z"/>
		</g>
	</g>
	<g class="st4">
		<g>
			<path class="st0" d="M1148.35,395.13v7.63H998.52c-19.86,0-36.23,15.17-38.15,34.53c-0.12-1.26-0.19-2.53-0.19-3.82
				c0-21.14,17.19-38.34,38.34-38.34H1148.35z"/>
		</g>
	</g>
	<g>
		<g>
			<path class="st6" d="M1262.82,471.8h-119.65c-21.14,0-38.34-17.2-38.34-38.34s17.2-38.34,38.34-38.34h119.65
				c5.17,0,9.37,4.19,9.37,9.37s-4.19,9.37-9.37,9.37h-119.65c-10.81,0-19.61,8.79-19.61,19.61c0,10.81,8.8,19.61,19.61,19.61
				h119.65c5.17,0,9.37,4.19,9.37,9.37S1267.99,471.8,1262.82,471.8z"/>
		</g>
	</g>
	<g class="st4">
		<g>
			<path class="st0" d="M1272.18,461.01c0,1.93-0.58,3.73-1.59,5.21c-1.04-4.05-4.7-7.03-9.07-7.03h-119.65
				c-10.81,0-19.61-8.79-19.61-19.61c0-2.48,0.47-4.86,1.31-7.04c0.26,10.58,8.95,19.11,19.59,19.11h119.65
				C1267.99,451.64,1272.18,455.83,1272.18,461.01z"/>
		</g>
		<g>
			<path class="st0" d="M1141.87,401.24c-17.59,0-32.43,11.89-36.93,28.06c1.4-19.87,18-35.6,38.23-35.6h119.65
				c5.17,0,9.37,4.19,9.37,9.37c0,1.93-0.58,3.73-1.59,5.21c-1.04-4.05-4.7-7.03-9.07-7.03L1141.87,401.24L1141.87,401.24z"/>
		</g>
	</g>
	<g>
		<g>
			<path class="st3" d="M1262.82,474.92h-119.65c-22.86,0-41.46-18.6-41.46-41.46s18.6-41.46,41.46-41.46h119.65
				c6.89,0,12.49,5.6,12.49,12.49c0,6.89-5.6,12.49-12.49,12.49h-119.65c-9.09,0-16.48,7.4-16.48,16.48s7.39,16.48,16.48,16.48
				h119.65c6.89,0,12.49,5.6,12.49,12.49C1275.31,469.32,1269.7,474.92,1262.82,474.92z M1143.16,398.25
				c-19.42,0-35.21,15.8-35.21,35.21s15.8,35.21,35.21,35.21h119.65c3.44,0,6.24-2.8,6.24-6.24s-2.8-6.24-6.24-6.24h-119.65
				c-12.53,0-22.73-10.19-22.73-22.73c0-12.53,10.2-22.73,22.73-22.73h119.65c3.44,0,6.24-2.8,6.24-6.24s-2.8-6.24-6.24-6.24
				H1143.16z"/>
		</g>
	</g>
	<g>
		<g>
			<path class="st3" d="M1148.35,474.92H998.52c-22.86,0-41.46-18.6-41.46-41.46S975.66,392,998.52,392h149.83
				c1.72,0,3.12,1.4,3.12,3.12s-1.4,3.12-3.12,3.12H998.52c-19.42,0-35.22,15.8-35.22,35.21s15.8,35.21,35.22,35.21h149.83
				c1.72,0,3.12,1.4,3.12,3.12C1151.47,473.53,1150.07,474.92,1148.35,474.92z"/>
		</g>
	</g>
	<g>
		<path class="st0" d="M1261.27,453.07h-118.1c-10.81,0-19.61-8.79-19.61-19.61c0-10.81,8.79-19.61,19.61-19.61h118.1
			C1247.04,413.86,1247.04,453.07,1261.27,453.07z"/>
		<path class="st3" d="M1261.27,453.59h-118.1c-11.1,0-20.13-9.03-20.13-20.13s9.03-20.13,20.13-20.13h118.1v1.04
			c-6.97,0-10.15,9.89-10.15,19.08c0,9.19,3.18,19.08,10.15,19.08V453.59z M1143.17,414.38c-10.52,0-19.08,8.56-19.08,19.08
			s8.56,19.08,19.08,19.08h114.19c-4.97-2.87-7.28-11.22-7.28-19.08c0-5.21,0.97-10.08,2.72-13.71c1.22-2.53,2.77-4.34,4.57-5.38
			h-114.2V414.38z"/>
	</g>
	<g class="st2">
		<path class="st7" d="M1261.27,413.86c-5.53,0-8.91,5.91-10.14,13.15h-111.88c-6.38,0-12.06,3.06-15.64,7.79
			c-0.04-0.45-0.05-0.89-0.05-1.34c0-10.81,8.79-19.61,19.61-19.61h118.1V413.86z"/>
		<path class="st3" d="M1123.22,436.19l-0.13-1.33c-0.04-0.46-0.05-0.93-0.05-1.39c0-11.1,9.03-20.13,20.13-20.13h118.1v1.04
			c-4.67,0-8.27,4.75-9.62,12.72l-0.07,0.43h-112.32c-6.03,0-11.58,2.77-15.23,7.59L1123.22,436.19z M1143.17,414.38
			c-10.5,0-19.05,8.53-19.08,19.02c3.83-4.41,9.28-6.91,15.17-6.91h111.44c1.1-6.02,3.49-10.26,6.7-12.11H1143.17z"/>
	</g>
	<g>
		<path class="st3" d="M1261.27,456.19h-118.1c-12.53,0-22.73-10.19-22.73-22.73c0-12.53,10.2-22.73,22.73-22.73h118.1
			c1.72,0,3.12,1.4,3.12,3.12s-1.4,3.12-3.12,3.12c-4.72,0-7.55,8.38-7.55,16.48s2.82,16.48,7.55,16.48c1.72,0,3.12,1.4,3.12,3.12
			C1264.39,454.79,1262.99,456.19,1261.27,456.19z M1143.17,416.98c-9.09,0-16.48,7.4-16.48,16.48s7.39,16.48,16.48,16.48h108.22
			c-2.65-4.41-3.91-10.57-3.91-16.48s1.26-12.07,3.91-16.48H1143.17z"/>
	</g>
</g>
<g>
	<g>
		<path class="st8" d="M1339.83,393.42h19.99c5.92-16.44,12.57-32.65,19.93-48.66l-7.48-14.12c0,0,9.39-2.13,16.04-3.78
			c6.63-13.36,13.76-26.57,21.35-39.63l-14.12-11.98l20.83,0.7c10.59-17.47,22.04-34.67,34.3-51.64
			c-49.75-5.73-84.04,8.31-101.51,43.85l8.64,18.85c0,0-7.99,0.45-15.95,0.69C1334.43,314.34,1333.66,349.44,1339.83,393.42z"/>
	</g>
	<g class="st4">
		<path class="st0" d="M1339.36,389.96c0.15,1.14,0.3,2.3,0.47,3.47h19.99c5.92-16.44,12.57-32.65,19.93-48.66l-7.48-14.12
			c0,0,9.39-2.13,16.04-3.78c6.63-13.36,13.76-26.57,21.35-39.63l-14.13-11.98l20.83,0.7c10.59-17.47,22.04-34.67,34.3-51.64
			c-3.35-0.39-6.63-0.68-9.83-0.88c-11.56,16.13-22.39,32.47-32.45,49.06l-6.83-0.23c-4.62-0.15-6.84,5.6-3.32,8.59l3.45,2.92
			c-7.6,13.06-14.72,26.27-21.35,39.63c-2.48,0.61-5.34,1.3-7.96,1.91c-4.08,0.96-6.15,5.52-4.18,9.22l3.59,6.77
			c-7.36,16-14.01,32.22-19.93,48.66h-12.49V389.96z"/>
	</g>
	<g class="st2">
		<path class="st3" d="M1339.83,393.58h7.19c-6.08-43.69-5.29-78.58,2.08-105.09c4.27-0.13,8.56-0.32,11.61-0.46
			c2.08-0.1,3.41-2.27,2.54-4.17l-6.83-14.9c16.37-33.29,47.49-47.72,92.26-44.69c-48.68-5.14-82.29,9-99.54,44.07l8.64,18.85
			c0,0-7.99,0.45-15.95,0.69C1334.43,314.5,1333.66,349.6,1339.83,393.58z"/>
	</g>
	<g>
		<path class="st3" d="M1359.82,396.54h-19.99c-1.56,0-2.88-1.15-3.09-2.69c-6.15-43.86-5.45-79.85,2.08-106.99
			c0.37-1.32,1.55-2.24,2.91-2.29c4.11-0.12,8.27-0.3,11.29-0.45l-6.72-14.66c-0.39-0.85-0.38-1.84,0.04-2.68
			c17.8-36.2,53.01-51.53,104.67-45.58c1.1,0.13,2.05,0.83,2.5,1.84s0.32,2.19-0.33,3.09c-12.28,16.99-23.77,34.29-34.16,51.43
			c-0.58,0.97-1.65,1.53-2.77,1.5l-11.86-0.4l7.28,6.18c1.15,0.98,1.44,2.64,0.68,3.95c-7.61,13.08-14.76,26.35-21.26,39.44
			c-0.41,0.82-1.16,1.42-2.05,1.64c-3.9,0.96-8.77,2.1-12.12,2.88l5.58,10.53c0.46,0.86,0.48,1.88,0.08,2.77
			c-7.33,15.95-14,32.24-19.83,48.41C1362.31,395.72,1361.14,396.54,1359.82,396.54z M1342.55,390.3h15.08
			c5.53-15.19,11.8-30.46,18.64-45.44l-6.76-12.76c-0.46-0.86-0.48-1.88-0.08-2.76c0.41-0.88,1.2-1.53,2.15-1.74
			c0.09-0.02,8.18-1.86,14.58-3.42c6.01-12.04,12.55-24.21,19.49-36.25l-12.13-10.29c-1.01-0.86-1.37-2.26-0.89-3.5
			s1.69-2.06,3.02-2l19,0.64c9.33-15.29,19.52-30.71,30.34-45.9c-45.81-4.07-76.08,9.49-92.37,41.35l8.01,17.48
			c0.43,0.94,0.37,2.03-0.16,2.91s-1.47,1.45-2.5,1.5c-0.07,0-6.62,0.37-13.71,0.62C1337.65,316.24,1337.08,349.7,1342.55,390.3z"/>
	</g>
	<g>
		<path class="st3" d="M1450.66,224.32c-16.91,5.37-33.02,13.48-46.61,24.79c-6.79,5.63-12.94,12.01-18.31,18.97
			c-5.37,6.97-9.94,14.53-13.78,22.42c-7.69,15.82-12.41,32.93-15.19,50.28c-2.77,17.37-3.64,35.02-3.41,52.64h-6.24
			c0.28-17.89,1.69-35.82,5.04-53.45c3.35-17.6,8.68-34.95,17.01-50.88c4.16-7.95,9.05-15.53,14.74-22.47
			c5.68-6.93,12.12-13.23,19.17-18.73C1417.16,236.85,1433.6,229.2,1450.66,224.32z"/>
	</g>
	<g>
		<path class="st1" d="M1387.9,434.35l-3.91,21.98l-1.41,7.92c-1,5.62-5.88,9.7-11.59,9.7h-43.73c-5.71,0-10.59-4.08-11.59-9.7
			l-1.41-7.92l-3.91-21.98c-1.03-5.76,0-11.66,2.83-16.68c0.62-1.12,1.33-2.19,2.14-3.21l10.1-12.85c1.31-1.65,0.12-4.1-2-4.1h-1.39
			c-1.64,0-3.13-0.66-4.2-1.74c-1.08-1.07-1.74-2.56-1.74-4.2c0-3.29,2.66-5.95,5.95-5.95h54.19c3.29,0,5.95,2.66,5.95,5.95
			c0,1.64-0.66,3.13-1.74,4.2c-1.07,1.08-2.56,1.74-4.2,1.74h-1.39c-2.11,0-3.3,2.45-2,4.1l10.1,12.85
			c0.81,1.02,1.52,2.09,2.14,3.21C1387.9,422.7,1388.93,428.59,1387.9,434.35z"/>
	</g>
	<g class="st4">
		<path class="st0" d="M1387.9,434.35l-3.91,21.98l-1.41,7.92c-1,5.62-5.88,9.7-11.59,9.7h-9.25c5.71,0,10.59-4.08,11.59-9.7
			l1.41-7.92l3.91-21.98c1.03-5.76,0-11.66-2.83-16.68c-0.62-1.12-1.33-2.19-2.14-3.21l-10.1-12.85c-1.31-1.65-0.12-4.1,2-4.1h1.39
			c1.64,0,3.13-0.66,4.2-1.74c1.08-1.07,1.74-2.56,1.74-4.2c0-3.29-2.66-5.95-5.95-5.95h9.25c3.29,0,5.95,2.66,5.95,5.95
			c0,1.64-0.66,3.13-1.74,4.2c-1.07,1.08-2.56,1.74-4.2,1.74h-1.39c-2.11,0-3.3,2.45-2,4.1l10.1,12.85
			c0.81,1.02,1.52,2.09,2.14,3.21C1387.9,422.7,1388.93,428.59,1387.9,434.35z"/>
	</g>
	<g>
		<path class="st3" d="M1370.98,477.08h-43.72c-7.23,0-13.39-5.16-14.67-12.27l-5.33-29.9c-1.41-7.9,0.63-16.06,5.59-22.37
			l9.35-11.89h-0.18c-2.44,0-4.72-0.95-6.42-2.67c-1.7-1.68-2.65-3.96-2.65-6.4c0-5,4.07-9.07,9.07-9.07h54.19
			c5,0,9.07,4.07,9.07,9.07c0,2.44-0.95,4.72-2.67,6.42c-1.68,1.7-3.96,2.65-6.4,2.65h-0.18l9.35,11.89
			c4.96,6.31,7,14.47,5.59,22.37l-5.33,29.9C1384.38,471.92,1378.21,477.08,1370.98,477.08z M1322.03,388.74
			c-1.56,0-2.83,1.27-2.83,2.83c0,0.76,0.29,1.46,0.82,1.98c0.55,0.55,1.25,0.84,2.01,0.84h1.39c2.19,0,4.14,1.22,5.1,3.2
			c0.95,1.97,0.7,4.25-0.65,5.96l-10.09,12.84c-3.86,4.91-5.45,11.26-4.35,17.42l5.33,29.9c0.74,4.13,4.32,7.13,8.52,7.13H1371
			c4.2,0,7.78-3,8.52-7.13l5.33-29.9l0,0c1.1-6.15-0.49-12.5-4.35-17.42l-10.1-12.85c-1.35-1.7-1.6-3.98-0.64-5.95
			c0.95-1.97,2.91-3.2,5.09-3.2h1.39c0.76,0,1.46-0.29,1.98-0.82c0.55-0.55,0.84-1.25,0.84-2.01c0-1.56-1.27-2.83-2.83-2.83h-54.2
			V388.74z M1322.95,399.68L1322.95,399.68L1322.95,399.68z M1375.28,399.68L1375.28,399.68L1375.28,399.68z"/>
	</g>
	<g class="st2">
		<path class="st3" d="M1341.57,473.95h-14.32c-5.71,0-10.59-4.08-11.59-9.7l-1.41-7.92l-3.91-21.98c-1.03-5.76,0-11.66,2.83-16.68
			c0.62-1.12,1.33-2.19,2.14-3.21l10.1-12.85c1.31-1.65,0.12-4.1-2-4.1h-1.39c-1.64,0-3.13-0.66-4.2-1.74
			c-1.08-1.07-1.74-2.56-1.74-4.2c0-3.29,2.66-5.95,5.95-5.95h14.32c-3.29,0-5.95,2.66-5.95,5.95c0,1.64,0.66,3.13,1.74,4.2
			c1.07,1.08,2.56,1.74,4.2,1.74h1.39c2.11,0,3.3,2.45,2,4.1l-10.1,12.85c-0.81,1.02-1.52,2.09-2.14,3.21
			c-2.83,5.02-3.86,10.92-2.83,16.68l3.91,21.98l1.41,7.92C1330.99,469.87,1335.86,473.95,1341.57,473.95z"/>
	</g>
	<g class="st9">
		<path class="st0" d="M1372.38,430.19c-0.35,5.47-3.46,9.72-6.96,9.5s-2.29-4.59-1.94-10.06c0.35-5.47-0.3-9.96,3.2-9.73
			S1372.73,424.72,1372.38,430.19z"/>
	</g>
</g>
<g>
	<g>
		<path class="st10" d="M291.24,381.9l-11.85,63.86l-27.14,6.16l25.73,1.49l-1.83,9.88c-1.31,7.07-2.28,13.85-2.79,20.26h-71.72
			c-0.83-0.06-1.69-0.06-2.57,0h2.57c6.27,0.48,11.1,4.46,14.09,10.09c6.67,12.47,4.39,33.03-10.89,41.37
			c-1,0.55-2.03,1.02-3.07,1.42c-2.77,1.06-5.7,1.63-8.66,1.71c-3.34,0.1-6.71-0.41-9.93-1.49c-25.99-8.75-28.24-37.32-21.56-73.36
			l6.09-32.85l25.4-5.22l-24.08-1.85l4.8-25.91l2.89-15.56c0.8-4.29,1.16-8.66,0.9-13.03c-1.09-17.91-11.02-27.78-20.98-27.89H271
			c8.17,0,16.36,6.6,19.68,18.83l-18.89,3.97l20.23,3.73c0.04,0.45,0.08,0.9,0.11,1.36C292.4,373.23,292.04,377.61,291.24,381.9z"/>
	</g>
	<g class="st11">
		<path class="st0" d="M291.24,381.9l-11.85,63.86l-27.14,6.16l25.73,1.49l-1.83,9.88c-1.31,7.07-2.28,13.85-2.79,20.26h-5.69
			c0.51-6.4,1.48-13.18,2.79-20.26l1.83-9.88l-12.38-0.72c-2.19-0.13-2.44-3.25-0.31-3.73l14.1-3.2l11.85-63.86
			c0.8-4.29,1.16-8.66,0.89-13.03c-0.03-0.45-0.06-0.91-0.11-1.36l-9.04-1.67c-2.42-0.45-2.46-3.9-0.05-4.4l7.76-1.63
			c-3.32-12.23-11.51-18.83-19.68-18.83H271c8.17,0,16.36,6.6,19.68,18.83l-18.89,3.97l20.23,3.73c0.04,0.45,0.08,0.9,0.11,1.36
			C292.4,373.23,292.04,377.61,291.24,381.9z"/>
	</g>
	<g>
		<path class="st10" d="M333.66,511.56c-0.77,9.29-5.27,18.51-14.31,23.45c-3.68,2-7.75,3.04-11.86,3.13H193.11
			c4.07-0.12,8.09-1.15,11.73-3.13c9.77-5.34,14.23-15.69,14.42-25.71c0.24-12.7-6.35-24.9-17.63-25.75h111.94
			c11.33-0.83,18.6,9.23,19.98,20.98c-9.18,1.65-24.8,4.64-24.8,4.64l1.41,0.14h0.02L333.66,511.56z"/>
	</g>
	<g class="st11">
		<path class="st0" d="M313.58,489H212.49c-2.84-3.09-6.5-5.12-10.85-5.45h111.94c11.33-0.83,18.6,9.23,19.98,20.98
			c-0.34,0.06-0.69,0.12-1.04,0.18C329.85,495.39,323.17,488.3,313.58,489z"/>
	</g>
	<g class="st2">
		<path class="st3" d="M204.84,535.01c-1,0.55-2.03,1.02-3.07,1.42c3.33-5.05,4.94-11.1,5.05-17.04c0.18-9.48-3.45-18.67-9.98-23.08
			c-1.19-0.8-0.59-2.67,0.84-2.67h18.04C222.4,506.11,220.12,526.66,204.84,535.01z"/>
	</g>
	<g>
		<path class="st10" d="M177.59,375.15c-0.16,2.26-0.45,4.51-0.87,6.75l-2.89,15.56h-21.61c-0.41,0.02-0.81,0.03-1.22,0h-0.03
			c-7.7-0.41-15.42-9.16-15.42-26.21c0.23-3.58,0.7-6.82,1.39-9.73c3.31-14.09,11.51-20.62,19.7-20.53
			c9.95,0.11,19.88,9.98,20.98,27.89C177.75,370.97,177.73,373.06,177.59,375.15z"/>
	</g>
	<g>
		<path class="st3" d="M193.11,540.27c-1.17,0-2.11-0.94-2.13-2.1c-0.02-1.17,0.9-2.13,2.07-2.16c3.8-0.11,7.53-1.11,10.77-2.88
			c11.9-6.5,14.87-20.82,12.6-31.37c-1.58-7.35-6.34-15.44-14.94-16.1c-1.14-0.09-2.01-1.06-1.97-2.21s0.98-2.05,2.13-2.05H313.5
			c11.38-0.8,20.5,8.6,22.17,22.86c0.13,1.12-0.63,2.15-1.74,2.35c-2.92,0.53-6.52,1.19-10.07,1.85l10,0.96
			c1.16,0.11,2.02,1.14,1.92,2.3c-0.92,11.13-6.54,20.3-15.41,25.14c-3.88,2.11-8.32,3.29-12.83,3.4L193.11,540.27L193.11,540.27z
			 M207.35,536.01h100.14c3.79-0.09,7.56-1.09,10.84-2.88c7.04-3.84,11.69-10.94,12.96-19.66l-22.75-2.19
			c-1.06-0.1-1.88-0.96-1.93-2.02s0.69-1.99,1.73-2.19c0.15-0.03,13.59-2.6,22.79-4.28c-1.69-9.33-7.51-17.84-17.41-17.12
			c-0.05,0-0.1,0.01-0.16,0.01H212.12c4.06,3.4,7.06,8.65,8.47,15.19C223.09,512.48,219.93,528.13,207.35,536.01z"/>
	</g>
	<g class="st2">
		<path class="st3" d="M333.66,511.56c-0.77,9.29-5.27,18.51-14.31,23.45c-3.68,2-7.75,3.04-11.86,3.13H193.11
			c4.07-0.12,8.09-1.15,11.73-3.13c9.77-5.34,14.23-15.69,14.42-25.71h90.92L333.66,511.56z"/>
	</g>
	<g>
		<path class="st3" d="M192.28,540.29c-3.29,0-6.58-0.54-9.78-1.62c-31.24-10.52-28.07-48.28-22.98-75.77l6.09-32.85
			c0.16-0.85,0.82-1.53,1.67-1.7l10.55-2.17l-8.97-0.69c-0.6-0.05-1.16-0.35-1.53-0.83c-0.37-0.48-0.52-1.09-0.41-1.69l7.69-41.47
			c0.81-4.34,1.1-8.55,0.86-12.51c-1.03-16.87-10.27-25.8-18.87-25.89c-1.17-0.01-2.12-0.97-2.11-2.14s0.96-2.12,2.13-2.12H271
			c9.84,0,18.38,8.01,21.74,20.4c0.15,0.57,0.07,1.17-0.24,1.67s-0.81,0.85-1.38,0.97l-8.31,1.75l9.61,1.77
			c0.94,0.17,1.65,0.95,1.74,1.89c0.04,0.47,0.08,0.95,0.11,1.43c0.26,4.27-0.05,8.83-0.92,13.55l0,0l-11.85,63.86
			c-0.16,0.84-0.79,1.5-1.62,1.69l-12.44,2.82l10.68,0.62c0.61,0.04,1.18,0.33,1.55,0.81c0.38,0.48,0.53,1.1,0.42,1.7l-1.83,9.88
			c-1.37,7.38-2.28,13.94-2.76,20.04c-0.09,1.11-1.01,1.96-2.13,1.96h-61.24c4.06,3.4,7.06,8.65,8.47,15.19
			c2.6,12.05-0.9,28.46-14.72,36.01c-3.83,2.09-8.22,3.26-12.69,3.39C192.88,540.28,192.58,540.29,192.28,540.29z M169.55,432.24
			l-5.83,31.44c-3.65,19.67-4.13,34.73-1.49,46.04c3.01,12.87,10.08,21.02,21.63,24.91c3.01,1.01,6.09,1.47,9.19,1.38
			c3.8-0.11,7.53-1.11,10.77-2.88c11.9-6.5,14.87-20.82,12.6-31.37c-1.58-7.33-6.31-15.4-14.86-16.09h-2.49
			c-1.15,0-2.09-0.91-2.13-2.05c-0.04-1.15,0.83-2.12,1.98-2.2c0.95-0.07,1.9-0.07,2.81-0.01h69.68c0.53-5.69,1.4-11.77,2.65-18.51
			l1.39-7.5l-23.32-1.35c-1.06-0.06-1.91-0.89-2-1.95s0.62-2.02,1.65-2.26l25.78-5.84l11.59-62.48c0.79-4.26,1.08-8.36,0.87-12.2
			l-18.61-3.43c-1-0.18-1.73-1.05-1.75-2.07c-0.01-1.02,0.7-1.9,1.69-2.11l16.6-3.49c-3.16-9.24-9.65-15.09-16.96-15.09H168.16
			c6.07,4.74,10.84,13.36,11.59,25.63c0.26,4.31-0.05,8.87-0.93,13.55l-7.26,39.13l21.72,1.67c1.06,0.08,1.9,0.93,1.96,1.99
			c0.07,1.06-0.66,2.01-1.7,2.22L169.55,432.24z M291.24,381.9L291.24,381.9L291.24,381.9z"/>
	</g>
	<g>
		<path class="st3" d="M151.54,399.61c-0.11,0-0.22,0-0.34,0c-8.56-0.24-17.77-9.21-17.77-28.36c0-0.04,0-0.09,0-0.13
			c1.4-22.32,12.56-32.27,23.06-32.27c0.06,0,0.11,0,0.17,0c1.18,0.01,2.12,0.98,2.11,2.15c-0.01,1.18-0.99,2.12-2.15,2.11
			c-0.04,0-0.08,0-0.12,0c-8.49,0-17.56,8.7-18.8,28.2c0.02,15.53,6.86,23.84,13.63,24.03c5.36,0.15,11.4-5.08,12.68-16.85
			l-17.61-0.62c-1.03-0.04-1.89-0.81-2.04-1.83c-1.36-9.55,0.63-17.17,5.46-20.89c2.94-2.27,6.7-2.78,10.07-1.36
			c4.41,1.85,7.47,6.62,8.2,12.77c0.42,3.53,0.54,6.89,0.36,10c0,0,0,0,0,0.01C167.55,392.46,159.12,399.61,151.54,399.61z
			 M148.37,373.68l15.89,0.56c0.03-2.27-0.11-4.67-0.41-7.17c-0.55-4.6-2.65-8.09-5.62-9.34c-1.96-0.82-4.08-0.53-5.81,0.81
			C149.16,361.04,147.69,366.63,148.37,373.68z"/>
	</g>
	<g class="st2">
		<path class="st3" d="M166.31,376.44l-19.84-0.7c-3.55-24.99,17.43-26.38,19.5-8.93C166.38,370.32,166.48,373.53,166.31,376.44z"/>
	</g>
	<g>
		<path class="st3" d="M173.83,399.59h-22.86c-1.18,0-2.13-0.95-2.13-2.13s0.95-2.13,2.13-2.13h22.86c1.18,0,2.13,0.95,2.13,2.13
			S175.01,399.59,173.83,399.59z"/>
	</g>
	<g>
		<path class="st3" d="M173.83,357.29h-17.2c-1.18,0-2.13-0.95-2.13-2.13s0.95-2.13,2.13-2.13h17.2c1.18,0,2.13,0.95,2.13,2.13
			C175.97,356.34,175.01,357.29,173.83,357.29z"/>
	</g>
	<g class="st2">
		<path class="st3" d="M177.59,375.15h-10.1l-3.36-14.49c-5.18-8.18-10.87-6.71-16.87,0.85h-10.3l-0.01-0.01
			c3.31-14.09,11.51-20.62,19.7-20.53c9.95,0.11,19.88,9.98,20.98,27.89C177.75,370.97,177.73,373.06,177.59,375.15z"/>
	</g>
	<g class="st12">
		<g>
			<path class="st3" d="M242.89,388.3h-44.78c-1.18,0-2.13-0.95-2.13-2.13s0.95-2.13,2.13-2.13h44.78c1.18,0,2.13,0.95,2.13,2.13
				C245.03,387.35,244.07,388.3,242.89,388.3z"/>
		</g>
		<g>
			<path class="st3" d="M246.33,413.89h-52.36c-1.18,0-2.13-0.95-2.13-2.13s0.95-2.13,2.13-2.13h52.36c1.18,0,2.13,0.95,2.13,2.13
				S247.51,413.89,246.33,413.89z"/>
		</g>
		<g>
			<path class="st3" d="M219.27,458.93h-30.28c-1.18,0-2.13-0.95-2.13-2.13s0.95-2.13,2.13-2.13h30.28c1.18,0,2.13,0.95,2.13,2.13
				S220.45,458.93,219.27,458.93z"/>
		</g>
		<g>
			<path class="st3" d="M209.25,470.22h-21.33c-1.18,0-2.13-0.95-2.13-2.13s0.95-2.13,2.13-2.13h21.33c1.18,0,2.13,0.95,2.13,2.13
				S210.43,470.22,209.25,470.22z"/>
		</g>
		<g>
			<path class="st3" d="M260.54,402.04c-0.01,0-0.02,0-0.03,0l-64.44-0.95c-1.18-0.02-2.12-0.99-2.1-2.16
				c0.02-1.17,0.97-2.1,2.13-2.1c0.01,0,0.02,0,0.03,0l64.44,0.95c1.18,0.02,2.12,0.99,2.1,2.16
				C262.66,401.11,261.7,402.04,260.54,402.04z"/>
		</g>
	</g>
</g>
<g>
	<path class="st3" d="M913.18,476.07c9.98-1.57,19.95-1.94,29.93-2.14c4.99-0.11,9.98-0.13,14.96-0.1
		c4.99-0.01,9.98,0.06,14.96,0.12c9.98,0.09,19.95,0.12,29.93,0.1h29.93h119.7h119.7h59.85l14.96-0.01l7.48-0.07l7.48-0.13
		c4.99-0.06,9.98,0.02,14.96,0.3c4.99,0.31,9.98,0.78,14.96,1.92c0.46,0.11,0.76,0.64,0.68,1.2c-0.07,0.43-0.34,0.74-0.68,0.82
		c-4.99,1.14-9.98,1.62-14.96,1.92c-4.99,0.28-9.98,0.36-14.96,0.3l-7.48-0.13l-7.48-0.07l-14.96-0.01h-59.85h-119.7h-119.7h-29.93
		c-9.98-0.01-19.95,0.01-29.93,0.1c-4.99,0.05-9.98,0.12-14.96,0.12c-4.99,0.03-9.98,0.01-14.96-0.1
		c-9.98-0.19-19.95-0.57-29.93-2.14c-0.46-0.07-0.79-0.58-0.73-1.14C912.51,476.48,912.81,476.12,913.18,476.07z"/>
</g>
<path class="st13" d="M1330.29,236.97c-22.16-20.09-48.28-38.26-75.92-55.55c-91.37-57.14-140.46-161.9-234.94-214.27
	C931.65-81.5,823.96-84.14,730.5-50.77C670.37-29.3,619.01,4.67,568.52,43.02c-123.45,93.77-296.69,30.53-419.3,127.07
	c-65.8,51.81-93.07,140.33-80.7,221.45c12.46,81.68,70.55,152.44,142.62,190.28c120.85,63.44,253.56,9.14,378.9,41.83
	c53.73,14.01,95.68,53.05,143.73,78.81c66.76,35.78,144.22,34.66,210.27-1.21c75.69-41.11,127.09-95.13,213.79-115.01
	c90.35-20.72,196.31-54.92,228.5-152.61C1414.99,346.62,1384.46,286.07,1330.29,236.97z"/>
<path class="st14" d="M1387.99,251.18c-19.94-18.08-43.45-34.44-68.33-49.99c-82.23-51.42-126.4-145.7-211.44-192.83
	C1029.23-35.42,932.31-37.8,848.2-7.77c-54.11,19.32-100.34,49.9-145.77,84.41C591.33,161.03,435.42,104.12,325.08,191
	c-59.22,46.63-83.76,126.29-72.63,199.29c11.21,73.51,63.49,137.19,128.35,171.24c108.76,57.1,228.19,8.23,341,37.64
	c48.35,12.61,86.1,47.74,129.35,70.92c60.09,32.2,129.79,31.2,189.24-1.09c68.12-37,114.38-85.62,192.41-103.51
	c81.31-18.65,176.67-49.42,205.64-137.35C1464.22,349.87,1436.74,295.38,1387.99,251.18z"/>
<path class="st15" d="M387.51,141.24H56.77c-13.67,0-22.91-14.15-17.21-26.58c7.07-15.41,21.66-29,51.63-13.47
	c0,0,15.06-53.83,52.61-53.83s46.94,31.92,46.94,31.92s3.75-63.84,63.84-65.71c60.08-1.88,67.59,67.59,67.59,67.59
	s30.99-21.07,60.73-1.78c6.07,3.93,11.13,9.1,15.05,15.04c5.28,8.01,7.92,17.49,8.37,27.08l0,0
	C406.84,132.24,398.27,141.24,387.51,141.24z"/>
<path class="st15" d="M748.12,474.84H528.83c-9.07,0-15.06-9.39-11.28-17.63c4.69-10.2,14.35-19.17,34.19-8.9
	c0,0,9.98-35.66,34.85-35.66c24.88,0,31.1,21.15,31.1,21.15s2.49-42.29,42.29-43.53s44.78,44.78,44.78,44.78s20.53-13.96,40.24-1.18
	c3.93,2.55,7.22,5.88,9.8,9.71c3.61,5.39,5.41,11.79,5.72,18.27l0,0C760.86,468.91,755.21,474.84,748.12,474.84z"/>
<path class="st15" d="M1263.56,69.08c-15.15-2.76-24.8,13.78-24.8,13.78s0.69-19.98-17.22-24.8s-28.93,10.33-28.93,10.33
	s-9.64-35.82-46.84-28.93c-17.01,3.15-23.64,17.68-25.84,32.52c-0.11-0.05-0.22-0.1-0.34-0.14c-17.22-6.89-22.73,12.39-22.73,12.4
	c2.03-7.1-10.71-13.81-15.76-14.65c-7.69-1.28-16.27,1.43-21.31,7.5c-6.83,8.23-6.49,21.9-1.84,31.11c6,11.86,23.55,7.05,34.23,6.96
	c53.44-0.44,106.9,0.08,160.34,0.08c1.92,0,23.37,1.6,24.12,0C1282.84,102.14,1278.71,71.83,1263.56,69.08z"/>
<path class="st15" d="M1462.7,165.62c-11.67-2.12-19.1,10.61-19.1,10.61s0.53-15.39-13.27-19.1s-22.29,7.96-22.29,7.96
	s-7.43-27.59-36.09-22.29c-13.1,2.43-18.22,13.62-19.91,25.05c-0.09-0.04-0.17-0.07-0.26-0.11c-13.26-5.31-17.51,9.55-17.51,9.55
	c1.56-5.47-8.25-10.64-12.14-11.29c-5.92-0.99-12.54,1.1-16.42,5.78c-5.26,6.34-5,16.87-1.41,23.97c4.62,9.14,18.14,5.43,26.37,5.36
	c41.17-0.34,82.36,0.06,123.53,0.06c1.48,0,18,1.23,18.59,0C1477.56,191.09,1474.37,167.74,1462.7,165.62z"/>
<path class="st3" d="M832.82,207.96v-23.49v-11.1h59.96v-8.22h-3.32l0.14-4.76c0-6.63-2.12-12.11-6.34-16.43
	c-6.34-6.15-16.1-9.22-29.26-9.22c-3.27,0-5.77,0.1-7.5,0.29l-2.59,0.29v8.65l5.19-0.29c1.73,0,3.12,0.05,4.18,0.14
	c3.94,0.67,6.75,2.14,8.43,4.4s2.64,4.54,2.88,6.85c0.24,2.31,0.36,4.23,0.36,5.76v4.32h-61.4h-2.88h-47.71h-3.03h-94.4h-5.04
	h-43.81h-3.03H490.08h-2.88H384.15v8.22h39.06v30.99l21.48,6.2c4.9-2.5,8.98-4.95,12.25-7.35l4.61-3.75v6.34
	c-0.1,1.73-0.27,3.2-0.5,4.4c-0.24,1.2-0.84,2.38-1.8,3.53c-4.42,5.09-11.34,7.69-20.75,7.78c-9.32-0.19-16.67-3.22-22.05-9.08
	c-3.46-3.94-5.81-8.05-7.06-12.32s-1.87-7.76-1.87-10.45l-18.45,0.43v1.58c0,12.68,3.36,22.68,10.09,29.98
	c8.26,8.07,18.11,12.11,29.55,12.11h1.15c12.2,0,22.34-0.94,30.41-2.81s13.55-3.96,16.43-6.27c3.55-2.79,5.86-5.64,6.92-8.58
	c1.06-2.93,1.59-6.46,1.59-10.59v-16l-24.65-4.61c-2.02,4.81-5.04,8.84-9.08,12.11l-4.61,3.6v-27.24h40.36h2.88h47.42l-45.54,26.81
	l12.25,23.06c2.31-0.58,5.52-0.86,9.66-0.86c4.13,0,8.26,1.06,12.4,3.17c6.53,3.75,10.95,8.02,13.26,12.83l0,0v5.19l-13.26,0.87
	c-5.38,0.48-8.98,2.26-10.81,5.33c-1.15,1.82-1.73,3.65-1.73,5.48v1.15c0,3.26,1.44,5.91,4.32,7.93c5.19,3.17,9.8,4.76,13.84,4.76
	h6.49c7.02,0,12.49-0.86,16.43-2.59c2.88-0.86,4.9-2.07,6.05-3.6c0.86-0.77,1.59-3.51,2.16-8.22l0.14-2.74
	c2.21,1.15,4.16,2.47,5.84,3.96c1.68,1.49,3,2.81,3.96,3.96l1.3,1.87l2.88-3.6c-2.79-4.52-6.92-7.98-12.4-10.38l-1.59-0.72v-8.65
	v-5.91v-12.54c-0.09-0.15-0.16-0.3-0.25-0.45h0.25v-18.72V184.9l2.88,0.14c3.46,0.29,7.08,1.22,10.88,2.81
	c3.79,1.58,6.36,3.1,7.71,4.54c1.54,2.21,2.45,4.09,2.74,5.62c-1.83-1.44-4.08-2.16-6.77-2.16l-1.87,0.29
	c-1.73,0.1-3.41,0.58-5.04,1.44c-3.84,2.5-5.77,6.15-5.77,10.95c0,3.56,1.06,6.68,3.17,9.37c2.69,3.46,6.15,5.19,10.38,5.19
	c1.82,0,3.75-0.29,5.77-0.86c2.88-0.77,5.38-1.82,7.49-3.17c4.61-3.17,6.92-8.12,6.92-14.85c0-1.92-0.19-3.75-0.58-5.48
	c-0.67-3.07-1.54-5.67-2.59-7.78c-2.4-5.19-7.69-9.22-15.85-12.11l-16.14-5.48h37.19h3.03h21.48l-6.77,5.04
	c-3.65,2.79-6.29,5.72-7.93,8.79c-3.17,6.25-4.76,15.76-4.76,28.54c0,19.6,4.18,33.44,12.54,41.51c7.49,6.34,15.13,9.51,22.92,9.51
	c2.5,0,5-0.34,7.5-1.01c5.86-1.92,9.46-5.09,10.81-9.51c0.48-2.21,0.72-4.23,0.72-6.05c0-4.23-1.35-7.59-4.04-10.09
	c-1.73-1.35-3.65-2.02-5.77-2.02c-2.02,0-4.28,0.62-6.77,1.87c-2.5,1.25-4.06,2.64-4.68,4.18c-0.63,1.54-0.94,2.83-0.94,3.89
	c0,1.92,0.41,3.53,1.23,4.83c0.81,1.3,1.8,2.14,2.95,2.52l5.77,1.87c-1.64,2.69-4.04,4.04-7.21,4.04c-3.08,0-5.86-1.35-8.36-4.04
	c-3.65-5.38-5.48-15.33-5.48-29.83c0-33.82,8.55-51.84,25.65-54.05h2.02l1.15,7.64c2.69-0.38,5.86-0.58,9.51-0.58h2.31
	c4.61,0,8.45,0.84,11.53,2.52c3.07,1.68,4.61,4.3,4.61,7.85l-0.14,2.59c-9.51-0.87-15.9-1.3-19.17-1.3
	c-7.98,6.63-11.96,13.79-11.96,21.47c0,9.42,4.13,17.01,12.4,22.77c5.28,3.17,9.78,4.92,13.48,5.26c3.7,0.34,6.46,0.5,8.29,0.5
	c3.36,0,6.39-0.34,9.08-1.01c6.05-1.63,10.09-4.08,12.11-7.35c1.63-2.98,2.45-5.81,2.45-8.5c0-3.46-0.96-6.05-2.88-7.78
	c-3.56-2.4-7.06-3.6-10.52-3.6c-0.77,0-1.49,0.05-2.16,0.14c-6.34,0.87-9.51,3.94-9.51,9.22c0,2.79,1.3,6.1,3.89,9.95l-4.04,0.87
	c-0.39,0-1.06-0.12-2.02-0.36s-2.07-0.79-3.31-1.66c-1.25-0.86-2.31-2.16-3.17-3.89c-0.77-2.98-1.15-5.67-1.15-8.07
	c0-4.8,1.44-8.55,4.32-11.24c4.04-3.75,9.08-5.62,15.13-5.62c7.49,0,13.98,2.83,19.46,8.5c1.92,2.69,3.03,5.57,3.31,8.65
	c0.29,3.08,0.43,5.82,0.43,8.22l-0.14,9.8h23.64v-65h5.48h3.03h47.71h2.88h5.62v26.29c-6.26-7.64-13.23-12.78-20.9-15.41
	c-8.26-2.83-15.9-0.98-22.92,5.55c-1.35,2.21-2.55,4.11-3.6,5.69c-1.06,1.58-2.09,3.17-3.1,4.76s-2.23,3.48-3.67,5.69
	c0.86,11.24,4.47,19.17,10.81,23.78c4.71,2.88,9.99,4.4,15.85,4.54s10.93-1.06,15.21-3.6c4.27-2.54,6.46-6.36,6.56-11.46
	c-0.2-5.09-2.21-8.5-6.05-10.23c-7.02-1.63-11.7-0.24-14.05,4.18c-2.36,4.42-0.94,9.27,4.25,14.56c-4.71,1.92-8.31,1.51-10.81-1.23
	c-2.5-2.74-3.94-6.03-4.32-9.87l4.76-9.22c2.79-5,7.11-7.95,12.97-8.86s10.96,0.41,15.28,3.96c1.54,1.31,2.79,2.65,3.75,4.03v27.68
	c6.63,2.02,14.22,3.7,22.77,5.04c5.76,1.06,11.05,1.59,15.85,1.59c10.67,0,19.65-2.69,26.95-8.07c7.3-5.67,11.62-12.73,12.97-21.19
	l0.14-3.46c0-6.15-1.92-11.72-5.77-16.72c-5.38-6.63-12.64-9.95-21.76-9.95c-4.04,0-7.59,0.38-10.67,1.15
	c-5,1.25-8.41,3.65-10.23,7.21c-1.35,2.31-2.02,4.23-2.02,5.77c0,3.36,0.58,6.2,1.73,8.5c2.02,3.56,5.28,5.33,9.8,5.33
	c7.88,0,11.82-3.46,11.82-10.38c0-2.11-0.58-3.79-1.73-5.04l-1.3-1.3h1.3c0.87,0.1,1.9,0.31,3.1,0.65c1.2,0.34,2.35,0.99,3.46,1.95
	c1.1,0.96,1.9,2.36,2.38,4.18c0.19,0.58,0.29,1.35,0.29,2.31c0,5.48-1.92,11.05-5.77,16.72c-4.81,7.21-13.17,11.05-25.08,11.53
	l-4.61-0.43v-21.44v-0.16H832.82z M539.38,222.09l-4.47-3.17c-2.11-1.73-5.24-3.26-9.37-4.61l-6.63-1.73l20.47-11.96V222.09z
	 M539.38,261.72c-0.58,1.15-1.34,1.82-2.31,2.02c-0.96,0.19-1.78,0.29-2.45,0.29l-1.87-0.14c-1.82-0.38-2.74-0.77-2.74-1.15
	c-0.38-0.77-0.58-1.71-0.58-2.81c0-1.11,0-1.85,0-2.23c0-3.65,0.58-6.15,1.73-7.5c1.15-0.77,3.99-1.15,8.5-1.15
	C539.67,256.54,539.57,260.76,539.38,261.72z M720.83,203.93c-4.32-2.21-8.89-4.08-13.69-5.62c1.63-2.79,2.45-5.33,2.45-7.64
	c0-5.19-4.52-9.08-13.55-11.67l-18.88-5.62h43.67V203.93z"/>
<g>
	<path class="st1" d="M431.15,329.74l-22.35-9.55v-6.3h1.35c2.5,0,5.09-0.17,7.78-0.52c2.68-0.35,5.24-1.23,7.67-2.62
		c1.87-1.07,2.8-2.45,2.8-4.15c0-1.2-0.63-2.28-1.9-3.25c-0.77-0.5-1.6-0.8-2.5-0.9c-0.53-0.07-1.05-0.1-1.55-0.1l-4.15,0.05
		c-1.33,0-2.68-0.05-4.05-0.15c-1.17-0.07-2.28-0.32-3.35-0.75s-1.72-1.13-1.95-2.1c-0.07-0.13-0.12-1.15-0.15-3.05h8.65l0.2,0.7
		c0.5,1.3,1.52,2.07,3.05,2.3c0.57,0.07,1.1,0.1,1.6,0.1c0.4,0,0.78-0.02,1.15-0.05l2.6-0.05c1.87,0,3.9,0.15,6.1,0.45
		c2.07,0.27,3.58,0.92,4.53,1.97s1.42,2.59,1.42,4.62c0,1.63-0.42,3.03-1.25,4.2c-0.93,1.2-2.13,2.06-3.6,2.58s-2.98,0.91-4.55,1.17
		c-0.4,0.07-0.78,0.15-1.15,0.25l-5.5,1.15l14.5,6.8L431.15,329.74z"/>
	<path class="st1" d="M461.55,337.69c-2.67,0-5.3-1.1-7.9-3.3c-2.93-2.83-4.4-7.6-4.4-14.3c0-4.47,0.57-7.8,1.7-10
		c0.63-1.47,1.89-2.95,3.77-4.45c1.88-1.5,3.89-2.57,6.02-3.2h4.85v2.85h-0.05c-5.93,0.77-8.9,7.02-8.9,18.75
		c0,5.03,0.62,8.48,1.85,10.35c0.83,0.9,1.8,1.35,2.9,1.35c1.07,0,1.92-0.45,2.55-1.35l-2-0.65c-0.4-0.13-0.74-0.43-1.02-0.88
		s-0.43-1.01-0.43-1.68c0-0.37,0.11-0.82,0.33-1.35s0.76-1.02,1.62-1.45c0.87-0.43,1.65-0.65,2.35-0.65c0.73,0,1.38,0.23,1.95,0.7
		c0.97,0.9,1.45,2.08,1.45,3.55c0,0.63-0.08,1.32-0.25,2.05c-0.5,1.53-1.77,2.63-3.8,3.3C463.28,337.57,462.42,337.69,461.55,337.69
		z"/>
	<path class="st1" d="M487.4,327.84h-8.2c-0.8-1.67-2.33-3.15-4.6-4.45c-1.43-0.73-2.87-1.1-4.3-1.1s-2.55,0.1-3.35,0.3l-4.25-8
		l15.8-9.3h-17.45v-2.85h41.45v2.85h-13.95l5.6,1.9c2.83,1,4.67,2.4,5.5,4.2c0.37,0.73,0.67,1.63,0.9,2.7c0.13,0.6,0.2,1.23,0.2,1.9
		c0,2.33-0.8,4.05-2.4,5.15c-0.73,0.47-1.6,0.83-2.6,1.1c-0.7,0.2-1.37,0.3-2,0.3c-1.47,0-2.67-0.6-3.6-1.8
		c-0.73-0.93-1.1-2.02-1.1-3.25c0-1.67,0.67-2.93,2-3.8c0.57-0.3,1.15-0.47,1.75-0.5l0.65-0.1c0.93,0,1.72,0.25,2.35,0.75
		c-0.1-0.53-0.42-1.18-0.95-1.95c-0.47-0.5-1.36-1.02-2.67-1.58c-1.32-0.55-2.58-0.88-3.77-0.97l-1-0.05v5.5
		c-0.6,1.03-0.9,2.08-0.9,3.15c0,0.1,0.02,0.48,0.05,1.12c0.03,0.65,0.32,1.44,0.85,2.38L487.4,327.84L487.4,327.84z M479.15,322.19
		v-7.45l-7.1,4.15l2.3,0.6c1.43,0.47,2.52,1,3.25,1.6L479.15,322.19z"/>
	<path class="st1" d="M504.4,302.44v-1.1c-0.03-0.1-0.03-0.58,0-1.42c0.03-0.85,0.27-1.88,0.72-3.08c0.45-1.2,1.26-2.37,2.43-3.5
		c4.33-3.77,12.1-4.48,23.3-2.15l-2.8,4.85c-1.23-0.43-3.08-0.79-5.55-1.08s-4.73,0.14-6.8,1.28c-1.77,1.07-2.8,2.77-3.1,5.1
		l-0.1,1.1h3.05v2.85h-2.95v22.55h-8.2v-22.55h-2.95v-2.85L504.4,302.44L504.4,302.44z"/>
	<path class="st1" d="M561.85,328.59h-8.15c-0.33-1.1-0.57-4.15-0.7-9.15c0-1.5,0.13-3,0.4-4.5l0.5-2.75l-1.55,0.5
		c-1.47,0.47-2.82,0.7-4.05,0.7c-0.73,0-1.69-0.16-2.88-0.47c-1.18-0.32-2.34-0.94-3.48-1.88c-1.13-0.93-1.97-1.77-2.5-2.5l-0.7-1
		l-0.8,0.95c-0.7,0.83-1.22,1.64-1.55,2.42s-0.55,1.43-0.65,1.95c-0.1,0.52-0.15,0.81-0.15,0.88c0,0.83,0.25,1.53,0.75,2.1
		c0.4,0.3,0.8,0.45,1.2,0.45h0.95c1.2-0.2,1.98-0.85,2.35-1.95l8.65,1.75c0.13,0.73,0.2,1.57,0.2,2.5c0,0.67-0.05,1.66-0.15,2.97
		c-0.1,1.32-0.92,2.59-2.45,3.83c-2.4,1.43-6.53,2.15-12.4,2.15c-1.23,0-2.55-0.03-3.95-0.1c-1.7-0.03-3.66-0.31-5.88-0.82
		c-2.22-0.52-4.18-1.69-5.88-3.53c-1.83-2.23-2.75-5.38-2.75-9.45c0-1.07,0.07-2.2,0.2-3.4l8.5-0.2c-0.1,0.6-0.15,1.32-0.15,2.15
		c0,0.8,0.07,1.97,0.2,3.5s0.85,3.18,2.15,4.95c1.7,2.1,4.2,3.17,7.5,3.2c2.77,0,4.65-0.52,5.65-1.55c0.57-0.57,0.85-1.25,0.85-2.05
		v-2.1l-1.6,1.3c-0.27,0.2-0.68,0.4-1.25,0.6s-1.25,0.3-2.05,0.3c-4.77,0-7.35-1.83-7.75-5.5c-0.07-0.67-0.1-1.28-0.1-1.85
		c0-1.33,0.23-2.53,0.67-3.6c0.45-1.07,1.08-1.82,1.88-2.25l3.15-1.85h-19.55v-2.85h50.4v2.85H542.4l1.5,1.65
		c1.27,1.4,2.77,2.23,4.5,2.5c2.07,0,4.17-0.5,6.3-1.5l8.6,2.5c-1.43,3.1-2.15,6.32-2.15,9.65
		C561.15,322.96,561.38,325.79,561.85,328.59z"/>
	<path class="st1" d="M605.1,327.84h-8.2v-9.1l-12.6,6.1l-7.15-3.65l3.1-7.15l-7.05-3.8l1.7-8h0.25c1.1-0.27,2.85-0.5,5.25-0.7
		l1.5-0.05c1.93,0,4.11,0.28,6.52,0.85c2.42,0.57,4.66,1.97,6.73,4.2l1.75,2v-6.1h11.15v2.85h-2.95V327.84z M586.2,320.19l10.7-5.8
		v-1.9l-0.15-0.25c-2.03-3.4-5.1-5.25-9.2-5.55l-2.2-0.05l3.75,4.4L586.2,320.19z"/>
	<path class="st1" d="M634.7,327.84h-8.15c-0.83-1.23-2.58-2.25-5.25-3.05c-1.43-0.43-2.93-0.65-4.5-0.65c-1.4,0-2.87,0.17-4.4,0.5
		l-3.4-6.9l7.2-5.4l-0.25-0.7c-0.5-1.07-1.5-1.7-3-1.9c-0.77-0.1-1.5-0.15-2.2-0.15s-1.37,0.05-2,0.15l0.15-4.45h-1.85v-2.85h30.6
		v2.85h-2.95L634.7,327.84L634.7,327.84z M626.55,324.49v-19.2H613.7l4.6,1.9c1.73,0.73,3.35,1.53,4.85,2.4l0.65,7.25l-4.95,4.5
		l1.9,0.4c1.8,0.33,3.2,0.9,4.2,1.7L626.55,324.49z"/>
	<path class="st1" d="M625.85,299.89l-2.4-5.4c3.67-1.73,7.08-3.92,10.25-6.55l2.3,5.3C632.97,295.81,629.58,298.02,625.85,299.89z"
		/>
	<path class="st1" d="M662.15,332.04c-3.87-0.03-7.08-0.5-9.65-1.4c-2.27-0.8-4.17-2.23-5.7-4.3h0.65c1.07,0,2.02-0.07,2.85-0.2
		c0.83-0.13,1.32-0.22,1.45-0.25s0.44-0.14,0.92-0.33c0.48-0.18,1.04-0.47,1.68-0.88c1.17,2.07,3.18,3.17,6.05,3.3l1.15,0.05
		c6.23,0,9.35-3.05,9.35-9.15c0-0.17-0.03-0.33-0.1-0.5c-0.23-1.23-0.73-2.17-1.48-2.83c-0.75-0.65-1.59-0.97-2.52-0.97
		c-0.77,0-1.48,0.22-2.15,0.65c0.53,0.27,1.08,0.69,1.65,1.27s0.9,1.17,1,1.78l0.05,1c0,1.37-0.42,2.47-1.25,3.33
		c-0.83,0.85-2,1.27-3.5,1.27c-2.8,0-4.67-1.17-5.6-3.5c-0.23-0.73-0.35-1.57-0.35-2.5l0.05-0.9c0.03-0.1,0.05-0.38,0.05-0.85
		c-0.23-0.63-0.62-1.25-1.15-1.85c-1.53-1.67-3.18-2.5-4.95-2.5c-0.6,0-1.2,0.08-1.8,0.25c-1.63,0.4-2.82,1.28-3.55,2.65l-1.3,3.15
		l0.05,0.3c0.07,0.7,0.36,1.44,0.88,2.23c0.52,0.78,1.34,1.24,2.48,1.38l1.9-0.65l-1.2-1.05c-0.53-0.57-0.8-1.27-0.8-2.1
		c0.03-0.7,0.32-1.25,0.85-1.65c0.87-0.63,1.73-0.95,2.6-0.95c0.57,0,1.12,0.12,1.65,0.35c1.2,0.57,1.8,1.63,1.8,3.2
		c0,0.73-0.16,1.37-0.47,1.9c-0.32,0.53-0.7,0.96-1.15,1.27c-0.45,0.32-0.85,0.54-1.2,0.68s-0.55,0.2-0.6,0.2s-0.36,0.05-0.92,0.15
		c-0.57,0.1-1.3,0.17-2.2,0.2h-0.35c-2.07,0-3.87-0.52-5.4-1.55c-2.03-1.43-3.23-3.83-3.6-7.2l3.1-5.2c0.33-0.33,1.13-0.73,2.4-1.2
		c0.7-0.23,1.52-0.35,2.45-0.35c0.73,0,1.79,0.12,3.17,0.38c1.38,0.25,3.26,1.44,5.62,3.58l1.7,1.55v-8h-20.1v-2.85h42.95v2.85
		h-14.65v6.7c3.2,0,5.77,0.35,7.7,1.05c3.5,1.2,5.25,3.92,5.25,8.15c0,1.93-0.48,3.75-1.45,5.45c-1.2,2.1-3.33,3.55-6.4,4.35
		C667.75,331.69,665.12,332.04,662.15,332.04z"/>
	<path class="st1" d="M711.1,327.89c-0.8,0-2.38-0.1-4.75-0.3c-2.37-0.2-4.47-0.6-6.3-1.2c-0.9-0.23-1.73-0.57-2.5-1
		c-5.2-3.03-8.32-7.97-9.35-14.8c-0.23-1.73-0.35-3.3-0.35-4.7c0-1.33,0.08-2.68,0.25-4.05h12.25v7.95c0.13,3.83,0.87,6.66,2.2,8.47
		c1.33,1.82,2.73,2.98,4.18,3.5s2.51,0.78,3.17,0.78l1.35,0.05c3.73,0,6.6-0.98,8.6-2.95c2.2-2.13,3.3-5.45,3.3-9.95v-1.5
		c0-0.4-0.07-0.75-0.2-1.05c-1.33-3.8-3.37-5.7-6.1-5.7c-0.87,0-1.7,0.22-2.5,0.65l-1,0.55l1.8,0.7c2.2,1,3.3,2.42,3.3,4.25
		c0,1.9-0.57,3.45-1.7,4.65c-1.13,1.2-2.6,1.8-4.4,1.8c-1.17,0-2.29-0.23-3.38-0.7c-1.08-0.47-1.98-1.15-2.7-2.05
		c-0.72-0.9-1.08-2-1.08-3.3c0-2.4,0.58-4.42,1.75-6.05c1.13-1.47,2.37-2.48,3.7-3.05c1.33-0.57,3.12-0.85,5.35-0.85
		c3.93,0,7.13,0.91,9.6,2.72c2.47,1.82,4.02,4.39,4.65,7.73c0.23,1.07,0.35,2.6,0.35,4.6c0,0.23-0.02,1.01-0.05,2.33
		c-0.04,1.32-0.69,3.16-1.98,5.52c-1.28,2.37-3.62,4.15-7.02,5.35C717.85,327.36,714.37,327.89,711.1,327.89z"/>
	<path class="st1" d="M761.75,327.84h-9.9c-5.67,0-9.45-0.8-11.35-2.4c-2.37-2.33-3.85-5.28-4.45-8.85
		c-0.37-2.23-0.55-4.42-0.55-6.55c0-1.23,0.11-2.96,0.33-5.17c0.22-2.22,0.49-3.99,0.82-5.33h11.8l-0.45,2.95v0.35l0.15,0.3
		c1.2,1.93,2.82,2.9,4.85,2.9l1.15-0.05c0.47-2.3,1.12-4.42,1.95-6.35l8.7,1.5c-0.7,1.1-1.32,2.67-1.85,4.7
		c-0.27,1-0.4,2.07-0.4,3.2c0,1.2,0.15,2.48,0.45,3.85l0.1,0.25c0.53,0.93,1.25,1.7,2.15,2.3c0.7,0.37,2.07,0.58,4.1,0.65h0.15v2.2
		C769.5,324.66,766.92,327.84,761.75,327.84z M756.3,324.34c2.67,0,4-1.62,4-4.85v-0.95h-0.95c-2.7-0.13-4.42-1.32-5.15-3.55
		c-0.3-0.87-0.45-1.82-0.45-2.85v-0.95l0.2-1.2l-2.8,0.1c-0.37-0.07-0.76-0.13-1.17-0.2c-0.42-0.07-0.83-0.25-1.25-0.55
		s-0.88-0.6-1.38-0.9c-0.13,2.3-0.2,3.8-0.2,4.5c0,2.3,0.26,4.6,0.78,6.9s1.99,3.8,4.42,4.5L756.3,324.34L756.3,324.34z"/>
	<path class="st1" d="M795.35,328.69c-1.67,0-3.5-0.18-5.5-0.55c-2.97-0.47-5.6-1.05-7.9-1.75v-21.1H779v-2.85h22.3v-1.5
		c0-0.53-0.04-1.2-0.12-2s-0.42-1.59-1-2.38c-0.58-0.78-1.56-1.29-2.92-1.52c-0.37-0.03-0.85-0.05-1.45-0.05l-1.8,0.1v-3l0.9-0.1
		c0.6-0.07,1.47-0.1,2.6-0.1c4.57,0,7.95,1.07,10.15,3.2c1.47,1.5,2.2,3.4,2.2,5.7l-0.05,1.65h1.15v2.85h-20.8v3.85
		c-0.4,0.8-0.7,1.97-0.9,3.5c-0.03,0.3-0.05,0.62-0.05,0.95c0,1.23,0.32,2.47,0.95,3.7v7.5l1.6,0.15c4.13-0.17,7.03-1.5,8.7-4
		c1.33-1.97,2-3.9,2-5.8c0-0.33-0.03-0.6-0.1-0.8c-0.17-0.63-0.44-1.12-0.82-1.45c-0.38-0.33-0.78-0.56-1.2-0.67
		c-0.42-0.12-0.78-0.19-1.08-0.22h-0.45l0.45,0.45c0.4,0.43,0.6,1.02,0.6,1.75c0,2.4-1.37,3.6-4.1,3.6c-1.57,0-2.7-0.62-3.4-1.85
		c-0.4-0.8-0.6-1.78-0.6-2.95c0-0.53,0.23-1.2,0.7-2c0.63-1.23,1.82-2.07,3.55-2.5c1.07-0.27,2.3-0.4,3.7-0.4
		c3.17,0,5.68,1.15,7.55,3.45c1.33,1.73,2,3.67,2,5.8l-0.05,1.2c-0.47,2.93-1.97,5.38-4.5,7.35
		C802.17,327.76,799.05,328.69,795.35,328.69z"/>
	<path class="st1" d="M821.05,328.04h-8.2v-22.75h-2.95v-2.85H824v2.85h-2.95V328.04z"/>
	<path class="st1" d="M849.35,327.84h-8.2c-0.8-1.67-2.33-3.15-4.6-4.45c-1.43-0.73-2.87-1.1-4.3-1.1s-2.55,0.1-3.35,0.3l-4.25-8
		l15.8-9.3H823v-2.85h41.45v2.85H850.5l5.6,1.9c2.83,1,4.67,2.4,5.5,4.2c0.37,0.73,0.67,1.63,0.9,2.7c0.13,0.6,0.2,1.23,0.2,1.9
		c0,2.33-0.8,4.05-2.4,5.15c-0.73,0.47-1.6,0.83-2.6,1.1c-0.7,0.2-1.37,0.3-2,0.3c-1.47,0-2.67-0.6-3.6-1.8
		c-0.73-0.93-1.1-2.02-1.1-3.25c0-1.67,0.67-2.93,2-3.8c0.57-0.3,1.15-0.47,1.75-0.5l0.65-0.1c0.93,0,1.72,0.25,2.35,0.75
		c-0.1-0.53-0.42-1.18-0.95-1.95c-0.47-0.5-1.36-1.02-2.67-1.58c-1.32-0.55-2.58-0.88-3.78-0.97l-1-0.05v5.5
		c-0.6,1.03-0.9,2.08-0.9,3.15c0,0.1,0.02,0.48,0.05,1.12c0.03,0.65,0.32,1.44,0.85,2.38V327.84z M841.1,322.19v-7.45l-7.1,4.15
		l2.3,0.6c1.43,0.47,2.52,1,3.25,1.6L841.1,322.19z"/>
	<path class="st1" d="M874.55,328.04h-8.2v-22.75h-2.95v-2.85h14.1v2.85h-2.95L874.55,328.04L874.55,328.04z"/>
</g>
<g>
	<g id="sub-title_00000150087708192033229580000013988895352709105027_">
		<g>
			<g>
				<g>
					<path class="st16" d="M91.08,52.48c-0.65,0.54-0.98,1.25-0.96,2.1c0.01,0.74,0.25,1.31,0.66,1.74
						c0.38,0.39,0.84,0.63,1.37,0.73c0.64,0.11,1.2-0.04,1.69-0.47c0.21-0.18,0.34-0.39,0.41-0.64c0.07-0.25,0.04-0.46-0.1-0.62
						c-0.07-0.09-0.19-0.14-0.36-0.16s-0.32,0.02-0.43,0.11c-0.23,0.19-0.37,0.35-0.43,0.49c-0.07,0.17-0.04,0.34,0.11,0.5
						c0.08,0.1,0.25,0.11,0.53,0.08l-0.01,0.03c-0.35,0.31-0.75,0.4-1.2,0.31c-0.36-0.08-0.67-0.25-0.94-0.54
						c-0.42-0.44-0.62-1.01-0.57-1.68c0.05-0.76,0.39-1.45,1.04-2.04L91.08,52.48z"/>
				</g>
				<g>
					<path class="st16" d="M97.01,48.51c-2.18,1.17-4.23,2.56-6.13,4.15c0.53-0.06,0.82-0.11,0.92-0.15
						c0.32,0.04,0.67-0.08,1.06-0.34c0.53-0.34,0.84-0.5,0.94-0.53c0.35-0.1,0.68,0.04,0.99,0.38c-0.18,0.85-0.31,1.32-0.43,1.42
						c-0.11,0.09-0.27,0.1-0.47,0.06c-0.18-0.04-0.31-0.1-0.38-0.17l-0.16,0.49c0.68,0.19,1.11,0.25,1.3,0.14
						c0.08,0.01,0.23-0.07,0.45-0.23c0.22-0.15,0.35-0.4,0.43-0.77c0.04-0.32,0.1-0.62,0.15-0.94c0.07-0.34,0.22-0.59,0.44-0.73
						c0.14-0.09,0.34-0.13,0.58-0.14c0.25-0.01,0.4,0.04,0.46,0.13l1.04,1.8c0.26,0.05,0.51,0.11,0.77,0.16l-2.25-4.04
						c0.36-0.2,0.73-0.39,1.1-0.58L97.01,48.51z M96.22,50.76c-0.34-0.04-0.59,0-0.76,0.11c-0.07,0.04-0.16,0.16-0.29,0.35
						l-0.26,0.41l-0.12-0.18c-0.16-0.25-0.57-0.35-1.23-0.28c0.83-0.58,1.69-1.14,2.58-1.66l0.8,1.38
						C96.55,50.81,96.3,50.77,96.22,50.76z"/>
				</g>
				<g>
					<path class="st16" d="M102.63,46.09c-2.04,0.68-4.01,1.53-5.9,2.57l0.8,0.1c1.31-0.68,2.66-1.28,4.04-1.8l0.11,0.29
						c-1.17,0.77-2.2,1.72-3.04,2.83c0.37,0.11,0.74,0.24,1.09,0.37c0.61-0.25,1.16-0.35,1.65-0.32c0.37,0.02,0.79,0.13,1.21,0.34
						c0.39,0.21,0.78,0.43,1.16,0.65l-1.54-4.4c0.39-0.13,0.79-0.27,1.2-0.39L102.63,46.09z M99.97,49.7
						c0.63-0.75,1.3-1.35,1.97-1.8l0.82,2.23C102.06,49.71,101.13,49.55,99.97,49.7z"/>
				</g>
				<g>
					<path class="st16" d="M105.23,45.34l-0.55,0.14c-0.15-0.07-0.27-0.13-0.35-0.22l-0.2-0.32l-0.3-0.07
						c0.21,0.73,0.47,1.33,0.79,1.84c-0.33-0.37-0.58-0.59-0.78-0.67c-0.32-0.13-0.77-0.12-1.33,0.07
						c-0.17,0.06-0.35,0.12-0.54,0.21l0.81,0.2c0.38-0.15,0.74-0.18,1.05-0.1c0.32,0.09,0.52,0.26,0.58,0.52l0.93,3.25L106,50.5
						l-1.22-4.59c0.4-0.11,0.79-0.2,1.2-0.3C105.75,45.53,105.49,45.43,105.23,45.34z"/>
				</g>
				<g>
					<path class="st16" d="M111.47,44.36l-0.56,0.04c0.03-0.83-0.89-1.22-2.76-0.94c-0.19,0.03-0.46,0.09-0.82,0.18
						c-0.36,0.1-0.63,0.16-0.82,0.2c-0.23,0.05-0.46,0.06-0.68,0.02c-0.25-0.04-0.39-0.11-0.42-0.25c-0.04-0.15,0.05-0.31,0.26-0.44
						l-0.27,0.05c-0.1,0.02-0.19,0.11-0.28,0.26c-0.09,0.15-0.12,0.27-0.11,0.34c0.08,0.31,0.38,0.49,0.9,0.56
						c0.45,0.06,0.92,0.04,1.44-0.05l0.99-0.2c0.44-0.09,0.77-0.14,1-0.17c0.21-0.03,0.42-0.03,0.62-0.02
						c0.28,0.03,0.41,0.09,0.43,0.19c0.01,0.11-0.1,0.2-0.34,0.29c-0.18,0.07-0.36,0.11-0.56,0.13c-1.51,0.18-3.01,0.47-4.48,0.84
						l0.78,0.29c0.69-0.16,1.39-0.31,2.09-0.42c0.31,0.1,0.47,0.18,0.48,0.26l-0.01,0.02c-0.38,0.08-0.71,0.23-0.97,0.47
						c-0.27,0.24-0.37,0.49-0.32,0.74c0.03,0.13,0.12,0.22,0.29,0.27s0.34,0.06,0.55,0.02c0.29-0.06,0.55-0.18,0.78-0.39
						s0.34-0.41,0.31-0.61c0.1-0.05,0.2-0.08,0.31-0.09c0.26-0.04,0.49,0.01,0.66,0.14c0.18,0.12,0.28,0.29,0.3,0.47
						c0.03,0.25-0.19,0.48-0.65,0.72c-0.38,0.19-0.77,0.33-1.15,0.39c-0.67,0.11-1.27,0.11-1.86-0.01c0.34,0.32,0.66,0.63,0.97,0.95
						c0.9-0.02,1.78,0.1,2.62,0.34c0.86,0.26,1.57,0.64,2.14,1.09l-0.22-0.6c-1.05-0.66-1.98-1.07-2.72-1.27
						c0.69-0.39,1.08-0.59,1.15-0.65c0.37-0.27,0.55-0.57,0.52-0.93c-0.03-0.37-0.23-0.67-0.59-0.86c-0.19-0.1-0.54-0.2-1.05-0.31
						c-0.41-0.08-0.64-0.17-0.71-0.29c1.16-0.17,2.32-0.29,3.48-0.34C111.95,44.65,111.71,44.5,111.47,44.36z"/>
				</g>
				<g>
					<path class="st16" d="M123.35,45.54c-2.71-0.74-5.5-1.15-8.31-1.23l0.66,0.49c2.15,0.11,4.3,0.41,6.4,0.91l-0.68,2.88
						c-0.13-0.34-0.28-0.67-0.43-1.01c0.04-0.07,0.08-0.15,0.09-0.23c0.09-0.4-0.05-0.81-0.42-1.23s-0.86-0.67-1.46-0.77
						c-0.33-0.05-0.62-0.04-0.86,0.03c-0.3,0.08-0.46,0.22-0.48,0.42c-0.02,0.18,0.08,0.34,0.28,0.49c0.2,0.14,0.43,0.23,0.69,0.27
						c0.44,0.07,0.76-0.04,0.96-0.33c0.2,0.03,0.34,0.16,0.43,0.41c0.08,0.2,0.1,0.38,0.07,0.54c-0.05,0.23-0.19,0.38-0.45,0.48
						s-0.55,0.11-0.87,0.07c-0.77-0.11-1.36-0.44-1.81-1c-0.26-0.31-0.55-0.83-0.89-1.58l-0.41-0.14c0.16,0.74,0.5,1.43,0.99,2.08
						c0.62,0.83,1.3,1.3,2.12,1.43c0.59,0.1,1.12-0.03,1.6-0.39c0.56,0.74,0.84,1.42,0.88,2.02l0.18,0.18l1.15-4.47
						c0.37,0.1,0.76,0.2,1.13,0.31C123.72,45.96,123.54,45.75,123.35,45.54z"/>
				</g>
				<g>
					<path class="st16" d="M126.09,46.4l-0.54-0.19c-0.09-0.13-0.14-0.27-0.17-0.38l0.02-0.37l-0.21-0.22
						c-0.23,0.72-0.35,1.37-0.36,1.96c-0.07-0.49-0.15-0.82-0.28-0.99c-0.18-0.3-0.56-0.53-1.14-0.68
						c-0.17-0.05-0.36-0.09-0.56-0.12c0.19,0.2,0.38,0.41,0.56,0.61c0.4,0.09,0.72,0.26,0.93,0.51c0.22,0.25,0.28,0.5,0.2,0.76
						l-1.04,3.23c0.13,0.2,0.26,0.41,0.38,0.62l1.54-4.49c0.39,0.13,0.78,0.28,1.16,0.42C126.42,46.84,126.26,46.63,126.09,46.4z"/>
				</g>
				<g>
					<path class="st16" d="M131.94,49.14c-1.94-1.13-4-2.09-6.13-2.83c0.17,0.22,0.34,0.45,0.5,0.67l0.72,0.28l-0.96,2.39
						c0.18,0.3,0.36,0.59,0.54,0.89c0.35-0.28,0.8-0.47,1.35-0.56c0.55-0.09,1.12-0.07,1.7,0.08c-0.33,0.31-0.56,0.61-0.72,0.92
						c-0.19,0.37-0.36,0.99-0.55,1.85l0.29,0.33c0.17-0.6,0.32-1.04,0.46-1.3c0.31-0.57,0.89-1.07,1.79-1.46
						c-0.23-0.36-0.48-0.72-0.73-1.07c-0.49-0.11-1.04-0.16-1.66-0.14c-0.53,0.03-1.05,0.06-1.57,0.11l0.74-1.74
						c1.58,0.67,3.12,1.46,4.59,2.36C132.19,49.63,132.07,49.38,131.94,49.14z"/>
				</g>
				<g>
					<path class="st16" d="M137.85,53.43c-0.32-0.33-0.39-0.62-0.23-0.91c-0.05-0.18-0.1-0.34-0.15-0.49
						c-0.34,0.45-0.78,1.09-1.3,1.92c0.05-0.22,0.05-0.6-0.03-1.15c-0.09-0.62-0.24-1-0.41-1.13c-0.29-0.22-0.61-0.34-0.97-0.39
						c-0.31-0.04-0.6,0-0.86,0.1c0.08-0.22,0.04-0.49-0.12-0.79c-0.16-0.32-0.39-0.56-0.69-0.75c-0.41-0.26-0.83-0.52-1.26-0.77
						l0.35,0.75c0.52,0.31,0.82,0.52,0.93,0.61c0.26,0.24,0.37,0.52,0.35,0.83c-0.28-0.11-0.57-0.15-0.87-0.11
						c-0.31,0.04-0.51,0.15-0.62,0.33c-0.09,0.13-0.1,0.3-0.05,0.49c0.06,0.19,0.17,0.34,0.36,0.47c0.17,0.11,0.37,0.18,0.59,0.21
						c0.22,0.02,0.4,0,0.56-0.07c0.03,0.42,0.19,0.74,0.49,0.97c0.43,0.33,0.77,0.34,1.01,0.04c0.11-0.14,0.13-0.34,0.06-0.6
						c-0.04-0.13-0.14-0.36-0.31-0.7c0.06-0.08,0.18-0.09,0.36-0.04c0.16,0.04,0.31,0.11,0.43,0.2c0.18,0.14,0.32,0.42,0.38,0.82
						c0.07,0.4,0.04,0.66-0.08,0.79l-1.85,2.12c0.07,0.25,0.11,0.5,0.17,0.75l3.03-3.49c0.31,0.27,0.6,0.54,0.9,0.8
						C137.98,53.96,137.93,53.69,137.85,53.43z"/>
				</g>
				<g>
					<path class="st16" d="M140.02,52.31c-1.46-0.5-2.94-0.88-4.38-1.18c0.44,0.34,0.88,0.68,1.31,1.03
						c1.16,0.14,2.33,0.35,3.5,0.63L140.02,52.31z"/>
				</g>
			</g>
		</g>
	</g>
	<g id="title_00000116207247249625116620000010363564417869699756_">
		<g>
			<g>
				<g>
					<path class="st16" d="M80.6,112.06c-1.39-1.46-2.68-2.99-3.87-4.6l-0.07,0.84c0.85,1.13,1.76,2.22,2.71,3.26l-0.27,0.25
						c-1.17-0.74-2.43-1.39-3.83-1.98c-0.09,0.43-0.16,0.86-0.24,1.3c0.41,0.59,0.68,1.15,0.8,1.68c0.1,0.42,0.11,0.91,0.06,1.47
						c-0.08,0.53-0.14,1.05-0.2,1.59l4.12-3.85c0.28,0.3,0.56,0.58,0.84,0.87L80.6,112.06z M75.93,111.12
						c0.99,0.41,1.83,0.83,2.53,1.26l-2.13,1.93C76.51,113.35,76.36,112.3,75.93,111.12z"/>
				</g>
				<g>
					<path class="st16" d="M82.4,113.84l-0.38-0.36c0-0.17,0.02-0.33,0.07-0.45l0.24-0.38l-0.05-0.29
						c-0.64,0.65-1.14,1.27-1.49,1.88c0.22-0.54,0.34-0.91,0.34-1.13c0.01-0.36-0.17-0.75-0.56-1.15c-0.11-0.12-0.25-0.25-0.39-0.37
						l0.06,0.86c0.3,0.27,0.46,0.56,0.51,0.9s-0.05,0.62-0.28,0.86l-2.87,2.92l0.1,0.88l3.96-4.14c0.29,0.27,0.57,0.55,0.86,0.8
						L82.4,113.84z"/>
				</g>
				<g>
					<path class="st16" d="M83.37,117.92c0.37-0.02,0.66-0.16,0.86-0.42c0.21-0.27,0.29-0.59,0.23-0.96s-0.23-0.69-0.54-0.94
						c-0.29-0.24-0.61-0.35-1.01-0.35c-0.39,0-0.69,0.11-0.9,0.34c-0.23,0.25-0.31,0.57-0.25,0.97c0.07,0.39,0.26,0.74,0.58,1.01
						C82.66,117.82,83,117.94,83.37,117.92z M82.33,121.95c-0.36-2.16-0.65-3.8-1-4.96l-0.81,0.92c0.59,1.58,1.11,3.05,1.53,4.41
						L82.33,121.95z M83.18,117.17c-0.32,0-0.59-0.11-0.83-0.32c-0.2-0.17-0.21-0.35-0.03-0.56c0.16-0.18,0.4-0.29,0.73-0.3
						c0.32-0.01,0.58,0.07,0.8,0.26c0.22,0.18,0.24,0.39,0.05,0.62C83.74,117.08,83.5,117.17,83.18,117.17z"/>
				</g>
				<g>
					<path class="st16" d="M90.75,120.05c-1.98-1.15-3.87-2.45-5.66-3.89c0.06,0.29,0.11,0.57,0.18,0.85
						c1.35,1.05,2.77,2.03,4.22,2.93l-0.79,1.27c0.11-0.68-0.05-1.15-0.49-1.44c-0.12-0.08-0.31-0.11-0.56-0.1
						c-0.25,0.02-0.4,0.08-0.48,0.18c-0.1-0.6-0.37-1.06-0.82-1.39c-0.35-0.26-0.75-0.34-1.17-0.22c-0.37,0.1-0.67,0.29-0.91,0.59
						c-0.28,0.35-0.35,0.76-0.23,1.2c0.12,0.44,0.42,0.84,0.9,1.18c0.2,0.14,0.43,0.24,0.67,0.27c0.28,0.04,0.47-0.03,0.57-0.17
						c0.12-0.18,0.17-0.39,0.14-0.65c-0.02-0.25-0.13-0.44-0.34-0.59c-0.16-0.11-0.34-0.17-0.54-0.16c-0.19,0-0.34,0.07-0.43,0.2
						c-0.09,0.11-0.11,0.27-0.1,0.46c-0.45-0.42-0.55-0.8-0.3-1.13c0.16-0.22,0.39-0.34,0.7-0.34c0.31-0.01,0.59,0.09,0.87,0.28
						c0.28,0.2,0.48,0.45,0.61,0.77s0.15,0.6,0.06,0.86l0.29,0.09c0.06-0.13,0.11-0.25,0.16-0.33c0.19-0.29,0.43-0.34,0.73-0.14
						c0.17,0.11,0.3,0.28,0.37,0.51c0.08,0.22,0.08,0.4-0.02,0.55l-1.58,2.58l0.34,0.83l2.86-4.8c0.34,0.19,0.67,0.39,1.01,0.58
						C90.95,120.6,90.84,120.33,90.75,120.05z"/>
				</g>
				<g>
					<path class="st16" d="M93.09,121.34l-0.47-0.24c-0.05-0.16-0.07-0.32-0.06-0.45l0.11-0.43l-0.12-0.27
						c-0.43,0.8-0.74,1.54-0.91,2.22c0.07-0.57,0.07-0.97,0.01-1.18c-0.1-0.35-0.37-0.67-0.86-0.95c-0.14-0.09-0.31-0.16-0.48-0.25
						l0.3,0.8c0.35,0.17,0.59,0.41,0.74,0.72c0.14,0.32,0.13,0.61-0.02,0.9l-1.94,3.62l0.34,0.82l2.65-5.08
						c0.35,0.18,0.7,0.36,1.05,0.54C93.32,121.85,93.21,121.6,93.09,121.34z"/>
				</g>
				<g>
					<path class="st16" d="M96.5,122.89c-1.23-0.51-2.45-1.06-3.64-1.68l0.33,0.79c0.58,0.29,1.18,0.56,1.78,0.84
						c-1.15,0.43-1.95,1.02-2.35,1.86c-0.29,0.59-0.37,1.2-0.26,1.82c0.14,0.76,0.58,1.3,1.32,1.61c0.33,0.13,0.63,0.17,0.94,0.11
						c0.3-0.07,0.5-0.21,0.58-0.45c0.11-0.27,0.04-0.51-0.2-0.73c-0.06-0.11-0.16-0.19-0.32-0.26c-0.19-0.08-0.39-0.1-0.61-0.06
						c-0.22,0.04-0.35,0.12-0.41,0.27c-0.09,0.19-0.04,0.44,0.16,0.72l-0.18-0.03c-0.38-0.17-0.64-0.51-0.75-1.01
						c-0.09-0.44-0.05-0.81,0.1-1.13c0.35-0.77,0.85-1.31,1.47-1.63c0.7-0.38,1.49-0.47,2.42-0.3L96.5,122.89z"/>
				</g>
				<g>
					<path class="st16" d="M102.27,124.81c-2.04-0.53-4.04-1.2-5.98-2l0.4,0.77l0.69,0.27l-1.1,2.91c0.2,0.34,0.41,0.69,0.62,1.02
						c0.39-0.37,0.88-0.65,1.46-0.86c0.58-0.2,1.19-0.31,1.83-0.3c-0.29,0.44-0.5,0.86-0.62,1.26c-0.14,0.48-0.23,1.25-0.23,2.31
						l0.43,0.32c0.03-0.77,0.11-1.31,0.2-1.66c0.22-0.76,0.76-1.49,1.58-2.25c-0.32-0.33-0.62-0.66-0.93-1
						c-0.5,0.02-1.06,0.11-1.7,0.25c-0.55,0.13-1.1,0.26-1.66,0.37l0.78-2.15c1.55,0.56,3.13,1.03,4.73,1.43L102.27,124.81z"/>
				</g>
				<g>
					<path class="st16" d="M109,126.03c-0.42-0.09-0.63-0.33-0.63-0.72c-0.12-0.14-0.24-0.28-0.34-0.37
						c-0.07,0.68-0.11,1.62-0.12,2.81c-0.08-0.26-0.29-0.63-0.61-1.14c-0.37-0.56-0.64-0.87-0.84-0.9c-0.34-0.05-0.66-0.01-1,0.15
						c-0.29,0.13-0.54,0.33-0.75,0.56c-0.01-0.28-0.13-0.55-0.38-0.8s-0.53-0.43-0.84-0.5c-0.45-0.11-0.89-0.21-1.34-0.34l0.49,0.7
						c0.56,0.12,0.9,0.22,1.03,0.28c0.31,0.14,0.5,0.39,0.59,0.75c-0.3,0.02-0.58,0.11-0.87,0.29s-0.45,0.39-0.51,0.63
						c-0.05,0.19-0.01,0.38,0.11,0.56c0.12,0.19,0.3,0.31,0.54,0.35c0.22,0.05,0.45,0.03,0.68-0.06s0.4-0.21,0.53-0.36
						c0.2,0.44,0.51,0.69,0.9,0.77c0.57,0.1,0.9-0.1,0.98-0.56c0.03-0.21-0.05-0.44-0.24-0.67c-0.1-0.11-0.3-0.29-0.58-0.55
						c0.02-0.11,0.12-0.2,0.32-0.26c0.16-0.06,0.32-0.08,0.46-0.05c0.23,0.04,0.46,0.24,0.72,0.6s0.37,0.64,0.34,0.84l-0.51,3.35
						l0.68,0.64l0.65-5.55c0.38,0.05,0.77,0.09,1.15,0.12L109,126.03z"/>
				</g>
				<g>
					<path class="st16" d="M118.99,126.01c-2.26,0.25-4.55,0.34-6.83,0.24c0.21,0.19,0.42,0.38,0.63,0.57
						c0.88,0.02,1.76,0.02,2.64-0.01c0,0.05,0,0.22-0.02,0.51c-0.01,0.29-0.02,0.53-0.01,0.72c0.03,1.14,0.39,1.69,1.08,1.67
						c0.29-0.01,0.65-0.16,1.08-0.46c0.43-0.29,0.67-0.55,0.72-0.77c0.27,0.19,0.42,0.41,0.45,0.65c0.04,0.39-0.15,0.75-0.58,1.06
						c-0.39,0.29-0.85,0.45-1.38,0.48c-0.94,0.06-1.72-0.34-2.3-1.15c-0.46-0.63-0.72-1.36-0.79-2.2l-0.38-0.17
						c0.15,1.51,0.53,2.66,1.14,3.42c0.6,0.76,1.45,1.12,2.48,1.05c0.82-0.05,1.45-0.3,1.85-0.73c0.38-0.41,0.53-0.93,0.46-1.56
						c-0.04-0.34-0.18-0.67-0.43-1.01c-0.28-0.36-0.59-0.59-0.95-0.69c-0.23,0.27-0.46,0.53-0.69,0.79
						c-0.31,0.31-0.63,0.46-0.98,0.48l-0.1-2.11c1.21-0.06,2.41-0.16,3.62-0.31L118.99,126.01z"/>
				</g>
				<g>
					<path class="st16" d="M121.71,125.64l-0.52,0.09c-0.14-0.11-0.25-0.21-0.32-0.33l-0.16-0.42l-0.26-0.14
						c0.12,0.9,0.33,1.68,0.59,2.33c-0.29-0.5-0.52-0.81-0.69-0.95c-0.29-0.24-0.7-0.31-1.25-0.25c-0.17,0.02-0.34,0.05-0.54,0.09
						c0.24,0.16,0.48,0.32,0.72,0.47c0.38-0.07,0.73-0.03,1.02,0.14c0.3,0.17,0.47,0.41,0.52,0.74l0.58,4.05
						c0.25,0.15,0.51,0.31,0.76,0.46l-0.9-5.66c0.39-0.06,0.78-0.13,1.17-0.2L121.71,125.64z"/>
				</g>
				<g>
					<path class="st16" d="M128.73,123.86c-2.37,0.8-4.82,1.42-7.29,1.82c0.25,0.15,0.49,0.29,0.74,0.44
						c1.3-0.23,2.58-0.52,3.87-0.86l0.11,0.41c-1.21,0.68-2.29,1.47-3.28,2.42c0.36,0.24,0.74,0.49,1.11,0.73
						c1.62-0.19,2.88,0.26,3.88,1.46l0.31,0.11l-1.19-4.2l0.17-0.06c0.43-0.13,0.87-0.13,1.32,0.02c0.45,0.15,0.75,0.4,0.86,0.77
						l-0.01,0.11c-0.21-0.12-0.45-0.14-0.72-0.06c-0.11,0.04-0.23,0.1-0.36,0.17c-0.19,0.24-0.27,0.45-0.21,0.64
						c0.05,0.17,0.18,0.3,0.4,0.37c0.22,0.07,0.44,0.08,0.66,0c0.32-0.1,0.54-0.28,0.68-0.55c0.13-0.26,0.16-0.52,0.08-0.77
						c-0.17-0.51-0.56-0.9-1.13-1.2c-0.61-0.33-1.21-0.39-1.82-0.22l-0.12,0.04l-0.11-0.36c0.96-0.27,1.91-0.57,2.85-0.91
						L128.73,123.86z M124.25,127.98c0.79-0.7,1.46-1.24,2.09-1.64l0.75,2.8C126.34,128.5,125.4,128.13,124.25,127.98z"/>
				</g>
				<g>
					<path class="st16" d="M137.74,118.56c-1.57-0.27-2.85-0.14-3.95,0.42c-0.45,0.23-0.81,0.61-1.14,1.15
						c-0.33,0.57-0.41,1.05-0.24,1.46c0.05,0.11,0.18,0.21,0.39,0.29l0.52,0.13c-0.5,0.23-1.01,0.46-1.51,0.67
						c0.27,0.09,0.54,0.17,0.81,0.26l0.87-0.39l2.1,4.53l0.9,0.17l-2.39-4.98c0.34-0.16,0.67-0.33,1.01-0.5
						c-0.28-0.07-0.56-0.13-0.83-0.21l-0.61,0.3l-0.43-0.35c-0.13-0.34-0.02-0.76,0.32-1.25c0.31-0.47,0.65-0.79,1.03-1.01
						c0.55-0.29,1.11-0.45,1.72-0.5c0.22-0.02,0.8,0,1.76,0.02L137.74,118.56z"/>
				</g>
				<g>
					<path class="st16" d="M139.27,118.71c-1.68,1.11-3.43,2.1-5.23,2.98l0.81,0.22c1.26-0.64,2.5-1.33,3.7-2.08l0.19,0.32
						c-0.93,1.01-1.8,2.14-2.64,3.41c0.41,0.16,0.82,0.32,1.23,0.47c0.65-0.31,1.25-0.46,1.8-0.49c0.43-0.02,0.91,0.05,1.46,0.21
						c0.51,0.16,1.01,0.34,1.53,0.48l-3.03-4.74c0.34-0.22,0.68-0.44,1.01-0.67L139.27,118.71z M137.51,123.13
						c0.58-0.9,1.15-1.65,1.69-2.26l1.51,2.44C139.81,122.96,138.74,122.92,137.51,123.13z"/>
				</g>
				<g>
					<path class="st16" d="M144.53,114.67c-1.74,1.54-3.59,2.96-5.54,4.22l0.86,0.11c1.96-1.31,3.82-2.77,5.55-4.36
						C145.12,114.65,144.82,114.66,144.53,114.67z M145.6,116.2c-0.6-0.13-1-0.11-1.21,0.05l-0.02,0.04
						c0.07,0.22,0.06,0.54-0.02,0.94c-0.08,0.44-0.21,0.74-0.38,0.89h-0.04c0.01-0.29-0.03-0.49-0.11-0.6
						c-0.11-0.14-0.28-0.21-0.49-0.21s-0.4,0.08-0.57,0.21c-0.26,0.2-0.41,0.41-0.48,0.65c-0.07,0.24-0.02,0.46,0.13,0.67
						c0.2,0.27,0.49,0.39,0.87,0.37c0.35-0.02,0.7-0.16,1.03-0.42c0.36-0.29,0.63-0.59,0.79-0.91c0.15-0.29,0.24-0.64,0.27-1.07
						l0.02-0.04c0.08-0.07,0.22-0.05,0.43,0.06c0.16,0.09,0.29,0.18,0.36,0.28c0.24,0.28,0.32,0.66,0.19,1.14
						c-0.12,0.48-0.37,0.88-0.75,1.18c-0.77,0.62-1.68,0.86-2.67,0.71c-0.77-0.11-1.52-0.46-2.26-1l-0.41,0.14
						c1.16,0.8,2.04,1.28,2.6,1.46c1.2,0.38,2.29,0.2,3.21-0.54c0.64-0.53,1.01-1.15,1.1-1.85c0.09-0.66-0.11-1.23-0.54-1.71
						C146.53,116.47,146.17,116.32,145.6,116.2z"/>
				</g>
				<g>
					<path class="st16" d="M146.52,112.78l-0.37,0.37c-0.17,0-0.33-0.03-0.45-0.08l-0.37-0.25l-0.3,0.04
						c0.63,0.66,1.23,1.18,1.83,1.56c-0.53-0.24-0.9-0.36-1.11-0.37c-0.36-0.03-0.76,0.15-1.17,0.53c-0.12,0.11-0.26,0.24-0.38,0.38
						c0.29-0.01,0.57-0.02,0.86-0.03c0.28-0.29,0.57-0.44,0.92-0.48c0.34-0.04,0.62,0.07,0.85,0.3l2.82,2.97l0.88-0.07l-4-4.1
						c0.29-0.28,0.56-0.56,0.83-0.84L146.52,112.78z"/>
				</g>
				<g>
					<path class="st16" d="M150.73,107.98l-0.12,0.16c-0.22,0.3-0.49,0.32-0.79,0.08l-0.11-0.13l-0.48,0.1
						c0.32,0.25,0.73,0.55,1.23,0.9l1.27,0.85c-0.69-0.23-1.22-0.33-1.58-0.29c-0.52,0.05-1.01,0.34-1.47,0.89
						c-0.35,0.4-0.59,0.84-0.71,1.33c-0.12,0.55-0.03,0.98,0.29,1.28c0.11,0.11,0.3,0.18,0.53,0.19s0.41-0.07,0.55-0.21
						c0.1-0.1,0.19-0.32,0.29-0.65s0.18-0.55,0.25-0.62c0.16-0.18,0.3-0.22,0.42-0.11c0.08,0.08,0.12,0.37,0.12,0.9
						c0,0.46-0.03,0.81-0.08,1.04c0.35-0.04,0.71-0.08,1.07-0.12c0.05-1.21-0.13-1.93-0.45-2.21c-0.24-0.2-0.5-0.25-0.79-0.17
						c-0.27,0.08-0.53,0.27-0.79,0.55c-0.16,0.18-0.31,0.42-0.43,0.72c-0.21-0.57-0.08-1.13,0.39-1.67
						c0.32-0.36,0.78-0.56,1.37-0.58c0.56-0.03,1.01,0.08,1.34,0.34l2.19,1.82c0.36-0.06,0.74-0.11,1.1-0.18l-4.51-3.48
						c0.24-0.31,0.48-0.62,0.71-0.94L150.73,107.98z"/>
				</g>
			</g>
		</g>
	</g>
	<g id="frame_00000132777391559259020670000011713457180958207909_">
		<g>
			<path class="st16" d="M149.71,100.8l-1.14-0.66c3.49-6.05,5.34-12.95,5.34-19.98c0-22.06-17.94-40-40-40s-40,17.95-40,40
				c0,7.03,1.85,13.93,5.34,19.98l-1.14,0.66c-3.6-6.25-5.5-13.38-5.5-20.64c-0.01-22.78,18.52-41.31,41.31-41.31
				s41.32,18.53,41.32,41.32C155.23,87.42,153.32,94.56,149.71,100.8z"/>
		</g>
		<g>
			<path class="st16" d="M151.39,101.93l-0.57-0.34c3.77-6.48,5.76-13.9,5.76-21.43c0-23.53-19.15-42.68-42.67-42.68
				S71.24,56.63,71.24,80.16c0,7.54,1.99,14.95,5.77,21.43l-0.56,0.34c-3.83-6.59-5.86-14.11-5.86-21.77
				c0-23.89,19.43-43.33,43.33-43.33s43.33,19.44,43.33,43.33C157.24,87.82,155.22,95.35,151.39,101.93z"/>
		</g>
		<g>
			<path class="st16" d="M113.92,136.53c-9.76,0-19.4-2.54-27.84-7.34c-8.19-4.66-15.14-11.35-20.1-19.37l-0.36-0.58l0.6-0.34
				c0.04-0.02,3.21-1.82,4.98-4.26c-1.24-0.46-2.14-1.33-2.58-2.53c-0.34-0.92-0.25-1.81,0.24-2.51c0.48-0.68,1.28-1.09,2.15-1.09
				c0.72,0,1.38,0.28,1.86,0.79c0.4,0.43,0.87,1.23,0.79,2.62c-0.04,0.57-0.17,1.16-0.41,1.74c1.87,0.04,4.01-0.81,5.89-2.31
				l0.57-0.45l0.39,0.62c7.4,11.67,20.04,18.63,33.82,18.63c13.79,0,26.42-6.96,33.81-18.62l0.39-0.62l0.57,0.45
				c1.85,1.46,3.96,2.31,5.81,2.31c0.03,0,0.06,0,0.08,0c-0.24-0.59-0.38-1.18-0.41-1.74c-0.09-1.39,0.38-2.19,0.79-2.62
				c0.48-0.51,1.14-0.79,1.86-0.79c0.87,0,1.68,0.41,2.15,1.09c0.49,0.7,0.57,1.59,0.24,2.51c-0.43,1.2-1.33,2.07-2.58,2.53
				c1.78,2.44,4.95,4.24,4.98,4.26l0.6,0.34l-0.36,0.58c-4.97,8.01-11.92,14.7-20.1,19.37
				C133.31,133.99,123.68,136.53,113.92,136.53z M67.46,109.69c10.18,15.99,27.49,25.52,46.46,25.52s36.28-9.53,46.46-25.52
				c-1.15-0.72-3.66-2.47-5.11-4.72h-0.01l-0.01-0.02c-0.24,0.03-0.49,0.04-0.74,0.04c-1.96,0-4.09-0.76-6.04-2.15
				c-7.7,11.7-20.55,18.65-34.55,18.65s-26.85-6.95-34.54-18.64c-1.95,1.39-4.08,2.15-6.05,2.15c-0.25,0-0.5-0.01-0.74-0.04
				l-0.01,0.02h-0.01C71.11,107.22,68.6,108.97,67.46,109.69z M71.02,99.84c-0.44,0-0.85,0.2-1.08,0.53
				c-0.24,0.34-0.27,0.79-0.08,1.3c0.32,0.88,1.03,1.51,2.03,1.82c0.27-0.56,0.42-1.11,0.45-1.63c0.05-0.73-0.11-1.29-0.43-1.65
				C71.69,99.97,71.37,99.84,71.02,99.84z M156.8,99.84c-0.35,0-0.67,0.13-0.89,0.37c-0.33,0.34-0.48,0.92-0.43,1.65
				c0.03,0.53,0.18,1.07,0.45,1.63c1.01-0.3,1.71-0.93,2.03-1.82c0.18-0.52,0.16-0.97-0.08-1.3
				C157.66,100.04,157.24,99.84,156.8,99.84z"/>
		</g>
	</g>
	<g id="hurricane_00000090266977255350013400000007069085289923069574_">
		<g>
			<g>
				<path class="st16" d="M102.33,89.65l0.06-0.03c0.59-0.35,0.84-1.25,0.85-1.29l0.01-0.04v-0.04c0-0.04-0.08-4.21-0.08-5.44
					c0-1.4-2.35-2.3-2.45-2.34l-0.14-0.06l-0.11,0.11c-0.2,0.19-0.83,0.67-1.28,0.67c-0.58,0-0.92-0.1-1.48-0.66l-0.08-0.08h-0.11
					c-1.9,0-2.81,2.28-2.84,2.37l-0.02,0.09c-0.02,0.44-0.16,4.36,0.01,5.03c0.14,0.56,0.63,1.18,0.83,1.42
					c-0.38,1.33-2.3,8.55,0.28,9.46v1.23h6.19v-1.29C104.33,97.69,102.83,91.47,102.33,89.65z M95.15,82.98
					c0.11-0.27,0.9-1.94,2.27-2.02c0.64,0.61,1.1,0.73,1.76,0.73c0.58,0,1.23-0.48,1.49-0.7c0.66,0.28,1.99,1.01,1.99,1.82
					c0,1.17,0.08,5,0.08,5.41c-0.07,0.21-0.26,0.71-0.56,0.93l-1.23-0.02v-2.35h-4.2v2.3l-0.86-0.01c-0.17-0.2-0.62-0.76-0.75-1.23
					C95.04,87.37,95.09,84.7,95.15,82.98z M99.48,97.79h-1.13c-0.28,0-0.5-0.22-0.5-0.5s0.22-0.5,0.5-0.5h1.13
					c0.28,0,0.5,0.22,0.5,0.5C99.97,97.56,99.75,97.79,99.48,97.79z M101.81,98.29l-3.04-3.4l-2.81,3.48v-0.01
					c-1.88-0.61-0.68-6.4,0-8.81l5.85,0.1C102.48,92.03,103.57,97.42,101.81,98.29z"/>
			</g>
			<g>
				<path class="st16" d="M100.97,92.04c0.69-1.01-0.19-1.68-0.19-1.68s-2.48,0-3.65,0s-0.79,1.63-0.79,1.63l2.32,1.97
					C98.67,93.95,100.29,93.04,100.97,92.04z"/>
			</g>
			<g>
				<path class="st16" d="M99.46,94.33l2.19,2.62c0,0-0.23-3.1-0.32-4.13C100.81,92.91,99.46,94.33,99.46,94.33z"/>
			</g>
			<g>
				<path class="st16" d="M96.24,92.83c-0.09,1.02-0.32,4.13-0.32,4.13l2.19-2.62C98.12,94.33,96.77,92.91,96.24,92.83z"/>
			</g>
			<g>
				<path class="st16" d="M100.58,86.06h0.38v-0.38c0-0.21-0.17-0.38-0.38-0.38h-3.45c-0.21,0-0.38,0.17-0.38,0.38v0.38h0.38H100.58
					z"/>
			</g>
			<g>
				<path class="st16" d="M95.56,100.42h-0.41v0.41c0,0.23,0.18,0.41,0.41,0.41h6.42c0.23,0,0.41-0.18,0.41-0.41v-0.41h-0.41H95.56z
					"/>
			</g>
		</g>
	</g>
	<g id="borsha_00000155143469848901344160000006119675773938324378_">
		<g>
			<path class="st16" d="M87.4,80.71h1.9c0,0,0.61-0.26,0-1s-1.81-1.13-0.95-2.41c-0.89-0.15-2.2-0.43-1.99,2.41
				c-0.39,0-0.92,0-0.92,0s-0.34-1.62-2.45-1.62c-2.12,0-7.37,2.17-7.37,2.17s5.91,1.62,7.4,1.62c1.49,0,2.48-1.46,2.48-1.46h0.74
				c0,0,0.34,1.1,0.71,1.59c0,0.77,0.03,1.79,0.03,1.79s-0.89,0.32-0.77,1.39s0.7,1.04,0.89,1.04s0.43-0.34,1.16-0.34
				c0.36-0.36,0.12-1.68-0.58-1.96c0-0.61-0.06-1.28-0.06-1.28s0.77-0.49,0.67-0.93C88.19,81.27,87.4,81.31,87.4,80.71z"/>
		</g>
		<g>
			<path class="st16" d="M99.97,79.18h9.24c0,0-0.77-1.05-0.95-1.72c-1.62,0-8.53,0.13-8.53,0.13s-0.99-0.07-0.99,1.73
				C98.74,79.81,99.48,80.54,99.97,79.18z"/>
		</g>
		<g>
			<path class="st16" d="M110.12,79.94c0.12,0.33,0.31,0.91,0.64,1.18l-9.24-0.59c0,0-1.07-0.66-0.64-0.81L110.12,79.94z"/>
		</g>
		<g>
			<polygon class="st16" points="125.19,80.6 152.36,80.6 152.36,78.35 122.23,78.35 			"/>
		</g>
		<g>
			<polygon class="st16" points="97.86,80.71 90.1,80.71 89.83,79.18 97.86,79.18 			"/>
		</g>
	</g>
	<g id="top-body_00000088830275323376555490000012964084892155022511_">
		<g>
			<path class="st16" d="M108.87,76.15c0,0,3.07,2.09,5.07,2.91c-0.28,0.35-1.61,2.06-2.06,1.92S109.05,77.62,108.87,76.15z"/>
		</g>
		<g>
			<path class="st16" d="M115.24,70.89v7.97c0,0,2.66-0.82,2.92-1.49C118.05,75.97,117.62,70.84,115.24,70.89z"/>
		</g>
		<g>
			<path class="st16" d="M102.37,70.56c-1.04-0.04-4.07,2.51-1.83,3.56c0.64-0.55,1.19-1.23,1.19-1.23s-0.55,1.46,0.64,1.82
				s0.73-0.73,1.37-0.69c0.36,0.59,0.46,0.96,1.05,0.96c0.59-0.1,0.78-1.78,0-2.79C104.01,71.2,103.51,70.61,102.37,70.56z"/>
		</g>
		<g>
			<path class="st16" d="M104.26,70.09c-0.83-0.02-1.56-0.22-1.47-0.91s1.26-1.42,2.05-1.24c0.79,0.17,2.05,0.52,2.05,3.48
				c0.55,0.63,2.28,1.82,4.38,1.93c2.11,0.11,3.37-0.14,3.37,0.49s0,4.04,0,4.04s-2.52-0.09-8.77-4.47
				c-0.52-0.69-0.86-1.12-0.8-2.16C105,70.59,104.54,70.09,104.26,70.09z"/>
		</g>
		<g>
			<path class="st16" d="M110.82,66.57c0,0-2.74,2.32-3.28,2.76c-0.29,0.75-0.6,3.08,2.97,3.11
				C110.74,70.99,110.82,66.57,110.82,66.57z"/>
		</g>
		<g>
			<path class="st16" d="M114.13,62.76c0,0,8.64-0.38,9.36,0s3.68,5,2.97,9.06c-0.72,4.06-1.97,5.1-7.57,5.76
				c-0.11-1.32-0.3-4.72-0.84-5.64s-2.42-3.05-3.28-3.03c0,0.95-0.17,3.78-0.17,3.78s-2.78,0.2-3.16-0.37c-0.06-1.06,0-4.24,0-4.24
				s2.57-2.25,2.7-2.77c0.42,0.23,0.48,1.55,3.59,1.25C117.66,66.26,114.03,66.64,114.13,62.76z"/>
		</g>
		<g>
			<path class="st16" d="M111.97,66.38c-0.08-0.48,0.48-2.49,0.52-2.88c0.05-0.39,1.58-0.56,1.22,1.13
				C113.33,66.31,112.06,66.89,111.97,66.38z"/>
		</g>
		<g>
			<path class="st16" d="M107.15,68.63c-0.46,0.02-1.77-0.89-1.08-1.39s3.81-2.51,4.5-2.71c0.69-0.19,1.6,0.72,0.76,1.41
				C110.48,66.64,107.15,68.63,107.15,68.63z"/>
		</g>
		<g>
			<path class="st16" d="M107.56,63.67c0,0-4.65,1.04-4.52-1.34c0.07-0.8,0.54-1.1,1-1.01c0.02-0.43-0.91-1.68,1.13-2.18
				c0.72-0.98,1.29-1.75,1.49-2.36c0.19-0.6,0.76-1.43,2.59-1.04c1.84,0.39,3.83,2.16,4.12,2.68c1.08,0.02,2.2,0.19,1.8,0.41
				c-0.41,0.22-0.65,0.63-0.56,0.69c0.09,0.07,0.67,0.39-1.22,0.43c0.07,0.39,0.42,0.5,0.76,0.69s-0.1,0.43,0,0.52s0.27,1-0.69,0.62
				c-0.95-0.37-1.01-0.69-1.27-0.65c-0.26,0.05-0.96,0.15-0.84,0.41c0.11,0.26,1.03,0.86-0.15,1.08c-0.24,0.22,0.37,0.56-0.09,0.74
				c-0.46,0.17-2.44,1.73-3.4,2.12c-0.93,0-1.23-0.26-1.15-0.65s0.5-0.67,1.1-0.74C107.64,63.84,107.7,63.64,107.56,63.67z"/>
		</g>
	</g>
	<g id="komor_00000063628317457738088240000005591143332205329804_">
		<g>
			<path class="st16" d="M112.68,81.97c-0.67-0.34-4.23,3.12-2.67,3.37s5.33,1.01,6.34,1.44c0.89-0.4,1.71-1.13,1.56-1.56
				c0.61,0.03,1.66,0.98,2.45,0.61c0.79-0.36,5.21-3.52,5.48-4.04c-0.89-0.77-2.81-1.88-3.61-1.84
				C121.43,79.98,115.55,83.44,112.68,81.97z"/>
		</g>
		<g>
			<path class="st16" d="M118.83,78.2c0.33-0.34,2.36,1.35,1.77,1.66c-0.58,0.31-6.12,2.63-6.65,2.45
				c-0.54-0.18-0.36-1.59,0.18-1.87C114.67,80.16,117.85,79.21,118.83,78.2z"/>
		</g>
	</g>
	<g id="front-leg_00000018958077003869044960000002279376097653562765_">
		<g>
			<path class="st16" d="M110.81,86.35c0.39,0.02,4.9,1.71,6.03,1.5s1.35-1.32,1.99-1.25c0.64,0.06,0.95,0.64,2.02-0.03
				s3-2.36,3.3-2.76c0.06,0.71,0,2.63-4.16,4.5s-13.78,4.61-14.03,5.94c0.36,0.15,1.59-0.25,2.38-0.67c0.52,0.4,1.47,1.68,1.23,3.76
				c-0.25,2.08-1.84,5.67-1.84,6.67c0,1.01-0.1,5.45-0.03,5.91c0.06,0.46,0.82,3-0.4,2.81c-1.23-0.18-1.96-0.21-2.45-0.12
				c-0.49,0.1-1.47,0.89-2.33,0.77s-2.33-0.56-2.27-0.98c0.06-0.43,1.01-0.43,1.84-0.74s1.38-1.23,2.97-1.81
				c-0.06-1.07-0.53-8.78-0.53-10.43s-0.55-5,0.16-6.42C105.43,91.58,109.11,86.27,110.81,86.35z"/>
		</g>
	</g>
	<g id="back-leg_00000072239733202576313470000004203110633280682685_">
		<g>
			<path class="st16" d="M116.68,90.98c-0.11,0.5,2.78,7.51,4.02,7.62s12.77-2.36,14.96-1.69c0.66,0.88,2.03,2.58,1.97,3.51
				c0,0,0.29,2.3,0.11,2.41c0.36,0.09,1.35-0.24,1.59-0.88s0.06-3.73,0.15-4.27c0.09-0.54,1.46-3.3-0.4-3.25s-7.23,0.05-8.95-0.43
				c-1.72-0.47-5.64-1.19-6.61-0.69c-0.98,0.5-2.1,2.1-2.1,2.54c-0.41,0.1-0.54-0.32-0.12-1.5s1.82-4.77,1.66-6.67
				C121.56,88.17,116.68,90.98,116.68,90.98z"/>
		</g>
	</g>
</g>
</svg>
