<?xml version="1.0" encoding="utf-8"?>
<!-- Generator: Adobe Illustrator 28.4.1, SVG Export Plug-In . SVG Version: 6.00 Build 0)  -->
<svg version="1.1" id="Layer_1" xmlns="http://www.w3.org/2000/svg" xmlns:xlink="http://www.w3.org/1999/xlink" x="0px" y="0px"
	 viewBox="0 0 1536 608" style="enable-background:new 0 0 1536 608;" xml:space="preserve">
<style type="text/css">
	.st0{fill:#FFFFFF;}
	.st1{fill:#EC2227;}
	.st2{fill:#FAEFD2;}
	.st3{opacity:0.3;fill:#5A5A5C;enable-background:new    ;}
	.st4{fill:#F6DD8C;}
	.st5{fill:#E04269;}
	.st6{fill:#F4D072;}
	.st7{fill:#ECA95F;}
	.st8{fill:#4A5476;}
	.st9{clip-path:url(#SVGID_00000060710689069282131320000008463798649113068696_);fill:#80D2E8;}
	
		.st10{clip-path:url(#SVGID_00000077301751999393803690000018108062776967261082_);fill:none;stroke:#23275C;stroke-width:3;stroke-miterlimit:10;}
	.st11{fill:#23275C;}
	.st12{opacity:0.3;fill:#4A5476;enable-background:new    ;}
	.st13{clip-path:url(#SVGID_00000179641498107557323550000013929919486694528657_);fill:#F4D072;}
	.st14{fill:none;stroke:#ECA95F;stroke-width:3;stroke-linecap:round;stroke-miterlimit:10;}
	.st15{fill:#ADE1FA;stroke:#6C3741;stroke-width:2;stroke-linecap:round;stroke-linejoin:round;stroke-miterlimit:10;}
	.st16{fill:#8DC641;stroke:#6C3741;stroke-width:2;stroke-linecap:round;stroke-linejoin:round;stroke-miterlimit:10;}
	.st17{fill:none;stroke:#6C3741;stroke-width:2;stroke-linecap:round;stroke-linejoin:round;stroke-miterlimit:10;}
	.st18{fill:#FFC757;stroke:#6C3741;stroke-width:2;stroke-linecap:round;stroke-linejoin:round;stroke-miterlimit:10;}
	.st19{fill:none;stroke:#6C3741;stroke-width:2;stroke-linecap:round;stroke-linejoin:round;}
	.st20{fill:none;stroke:#6C3741;stroke-width:2;stroke-linecap:round;stroke-linejoin:round;stroke-dasharray:7.0216,7.0216;}
	
		.st21{fill:none;stroke:#6C3741;stroke-width:2;stroke-linecap:round;stroke-linejoin:round;stroke-miterlimit:10;stroke-dasharray:7;}
	.st22{fill:#FFEDC5;fill-opacity:0.7;stroke:#6C3741;stroke-width:2;stroke-linejoin:round;stroke-miterlimit:10;}
	.st23{fill:#FFEDC5;stroke:#6C3741;stroke-width:2;stroke-linecap:round;stroke-linejoin:round;stroke-miterlimit:10;}
	.st24{fill:none;stroke:#6C3741;stroke-width:2;stroke-linejoin:round;stroke-miterlimit:10;}
	.st25{fill:#8DC641;stroke:#6C3741;stroke-width:2;stroke-linecap:round;stroke-linejoin:round;stroke-miterlimit:9.9998;}
	.st26{fill:#ACD36A;stroke:#6C3741;stroke-width:2;stroke-linecap:round;stroke-linejoin:round;stroke-miterlimit:10;}
	.st27{fill:#8DC641;stroke:#6C3741;stroke-width:2;stroke-linecap:round;stroke-linejoin:round;stroke-miterlimit:10.0001;}
	
		.st28{clip-path:url(#SVGID_00000113316720392280948660000010653741653111132565_);fill:none;stroke:#6C3741;stroke-linecap:round;stroke-linejoin:round;stroke-miterlimit:10;}
	
		.st29{clip-path:url(#SVGID_00000047020637423084412630000006592194570533867454_);fill:none;stroke:#6C3741;stroke-linecap:round;stroke-linejoin:round;stroke-miterlimit:10;}
	.st30{fill:none;stroke:#6C3741;stroke-width:2;stroke-linecap:round;stroke-linejoin:round;stroke-dasharray:6.9262,6.9262;}
	.st31{fill:none;stroke:#6C3741;stroke-width:2;stroke-linecap:round;stroke-linejoin:round;stroke-dasharray:7.4451,7.4451;}
	.st32{fill:none;stroke:#6C3741;stroke-width:2;stroke-linecap:round;stroke-linejoin:round;stroke-dasharray:7.1215,7.1215;}
</style>
<rect class="st0" width="1538.24" height="619.24"/>
<g>
	<g id="sub-title_00000150087708192033229580000013988895352709105027_">
		<g>
			<g>
				<g>
					<path class="st1" d="M103.61,57.73c-0.71,0.58-1.06,1.36-1.04,2.28c0.01,0.8,0.27,1.42,0.72,1.89
						c0.42,0.43,0.91,0.69,1.49,0.79c0.7,0.12,1.3-0.04,1.84-0.51c0.23-0.2,0.37-0.43,0.45-0.7c0.07-0.27,0.04-0.5-0.1-0.68
						c-0.07-0.09-0.21-0.16-0.4-0.18s-0.34,0.02-0.47,0.12c-0.25,0.21-0.41,0.38-0.47,0.53c-0.07,0.19-0.04,0.36,0.11,0.54
						c0.08,0.1,0.27,0.12,0.57,0.08l-0.01,0.03c-0.38,0.33-0.81,0.44-1.3,0.33c-0.4-0.08-0.73-0.27-1.02-0.58
						c-0.46-0.48-0.68-1.09-0.62-1.83c0.05-0.82,0.43-1.57,1.13-2.21L103.61,57.73z"/>
				</g>
				<g>
					<path class="st1" d="M110.05,53.42c-2.37,1.27-4.6,2.78-6.65,4.5c0.57-0.06,0.89-0.11,1-0.17c0.34,0.04,0.73-0.08,1.15-0.36
						c0.57-0.36,0.91-0.54,1.02-0.57c0.38-0.1,0.74,0.04,1.07,0.42c-0.2,0.93-0.33,1.43-0.47,1.54c-0.11,0.09-0.29,0.1-0.51,0.06
						c-0.2-0.04-0.33-0.1-0.42-0.19l-0.18,0.53c0.74,0.21,1.21,0.27,1.41,0.16c0.08,0.01,0.25-0.07,0.49-0.25
						c0.24-0.17,0.38-0.44,0.47-0.83c0.04-0.34,0.1-0.68,0.17-1.02c0.07-0.37,0.24-0.64,0.48-0.79c0.16-0.09,0.36-0.15,0.63-0.16
						s0.44,0.04,0.5,0.15l1.13,1.95c0.28,0.05,0.55,0.11,0.83,0.18l-2.44-4.39c0.4-0.22,0.79-0.43,1.2-0.63L110.05,53.42z
						 M109.19,55.86c-0.36-0.04-0.64,0-0.82,0.11c-0.07,0.04-0.18,0.18-0.31,0.38l-0.28,0.45l-0.14-0.2
						c-0.18-0.27-0.62-0.38-1.33-0.3c0.9-0.63,1.84-1.24,2.81-1.8l0.87,1.5C109.55,55.92,109.28,55.87,109.19,55.86z"/>
				</g>
				<g>
					<path class="st1" d="M116.15,50.79c-2.21,0.74-4.36,1.66-6.4,2.79l0.87,0.1c1.42-0.74,2.89-1.39,4.39-1.95l0.11,0.31
						c-1.27,0.83-2.39,1.87-3.31,3.08c0.41,0.12,0.8,0.26,1.19,0.41c0.67-0.27,1.26-0.38,1.79-0.34c0.41,0.02,0.85,0.15,1.31,0.37
						c0.43,0.23,0.84,0.47,1.26,0.71l-1.67-4.78c0.43-0.15,0.86-0.29,1.3-0.43L116.15,50.79z M113.26,54.71
						c0.69-0.81,1.41-1.47,2.14-1.95l0.89,2.42C115.53,54.72,114.52,54.54,113.26,54.71z"/>
				</g>
				<g>
					<path class="st1" d="M118.98,49.98l-0.59,0.16c-0.17-0.07-0.29-0.15-0.38-0.24l-0.22-0.34l-0.32-0.07
						c0.23,0.79,0.51,1.45,0.85,2c-0.35-0.41-0.63-0.64-0.84-0.73c-0.34-0.15-0.83-0.14-1.45,0.07c-0.19,0.06-0.38,0.14-0.58,0.23
						l0.88,0.22c0.42-0.17,0.8-0.2,1.14-0.1c0.34,0.09,0.56,0.28,0.63,0.56l1.01,3.53l0.72,0.33l-1.32-4.98
						c0.44-0.11,0.86-0.22,1.3-0.32C119.54,50.18,119.26,50.07,118.98,49.98z"/>
				</g>
				<g>
					<path class="st1" d="M125.75,48.91l-0.61,0.04c0.03-0.9-0.97-1.32-2.99-1.02c-0.21,0.03-0.5,0.09-0.89,0.2
						c-0.4,0.1-0.69,0.18-0.89,0.22c-0.25,0.05-0.5,0.06-0.74,0.02c-0.27-0.04-0.43-0.12-0.46-0.27c-0.04-0.17,0.05-0.33,0.28-0.48
						l-0.29,0.05c-0.1,0.02-0.21,0.11-0.3,0.28s-0.14,0.29-0.11,0.36c0.08,0.33,0.42,0.53,0.98,0.6c0.49,0.06,1,0.04,1.56-0.05
						l1.07-0.22c0.48-0.09,0.83-0.16,1.08-0.19c0.23-0.03,0.46-0.03,0.68-0.02c0.3,0.03,0.45,0.09,0.47,0.21
						c0.01,0.11-0.1,0.22-0.36,0.31c-0.2,0.07-0.4,0.12-0.6,0.15c-1.64,0.2-3.26,0.51-4.87,0.91l0.84,0.31
						c0.75-0.18,1.51-0.33,2.27-0.46c0.33,0.1,0.51,0.2,0.52,0.28l-0.01,0.02c-0.42,0.08-0.77,0.25-1.05,0.51
						c-0.29,0.26-0.41,0.53-0.34,0.8c0.03,0.15,0.14,0.24,0.31,0.29c0.19,0.05,0.37,0.06,0.59,0.02c0.31-0.06,0.59-0.2,0.84-0.43
						s0.36-0.45,0.33-0.67c0.1-0.05,0.22-0.08,0.33-0.09c0.28-0.04,0.53,0.01,0.72,0.16c0.2,0.14,0.3,0.31,0.32,0.51
						c0.03,0.27-0.21,0.52-0.71,0.78c-0.42,0.21-0.83,0.35-1.25,0.43c-0.73,0.12-1.38,0.12-2.02-0.01c0.36,0.34,0.72,0.69,1.05,1.03
						c0.98-0.02,1.93,0.1,2.85,0.37c0.94,0.28,1.71,0.7,2.33,1.19l-0.24-0.65c-1.14-0.72-2.15-1.16-2.95-1.38
						c0.75-0.43,1.17-0.64,1.25-0.71c0.41-0.29,0.59-0.62,0.56-1.01c-0.03-0.41-0.25-0.73-0.64-0.94c-0.21-0.1-0.58-0.22-1.14-0.33
						c-0.45-0.08-0.7-0.19-0.77-0.31c1.26-0.19,2.52-0.31,3.78-0.37C126.27,49.22,126.01,49.06,125.75,48.91z"/>
				</g>
				<g>
					<path class="st1" d="M138.66,50.19c-2.94-0.8-5.98-1.25-9.02-1.34l0.72,0.53c2.34,0.11,4.67,0.45,6.96,0.99l-0.74,3.13
						c-0.15-0.36-0.3-0.73-0.47-1.09c0.04-0.07,0.08-0.17,0.09-0.25c0.09-0.44-0.05-0.88-0.46-1.33s-0.94-0.73-1.58-0.83
						c-0.35-0.05-0.68-0.04-0.94,0.03c-0.32,0.08-0.5,0.24-0.52,0.46c-0.02,0.2,0.08,0.37,0.3,0.53s0.47,0.25,0.75,0.29
						c0.48,0.07,0.82-0.04,1.04-0.35c0.22,0.03,0.37,0.18,0.47,0.45c0.08,0.22,0.1,0.42,0.07,0.58c-0.05,0.25-0.21,0.42-0.49,0.52
						c-0.28,0.1-0.59,0.12-0.95,0.07c-0.83-0.12-1.48-0.48-1.96-1.08c-0.28-0.33-0.59-0.9-0.97-1.72l-0.45-0.16
						c0.18,0.8,0.54,1.55,1.07,2.26c0.68,0.9,1.41,1.41,2.3,1.55c0.64,0.1,1.22-0.03,1.74-0.43c0.61,0.8,0.91,1.54,0.96,2.19
						l0.2,0.2l1.25-4.86c0.41,0.1,0.82,0.22,1.23,0.33C139.05,50.65,138.85,50.42,138.66,50.19z"/>
				</g>
				<g>
					<path class="st1" d="M141.63,51.12l-0.58-0.21c-0.09-0.15-0.16-0.29-0.19-0.42l0.02-0.41l-0.23-0.24
						c-0.25,0.78-0.38,1.49-0.4,2.13c-0.07-0.53-0.17-0.89-0.3-1.07c-0.2-0.32-0.61-0.57-1.24-0.74c-0.19-0.05-0.4-0.09-0.61-0.14
						c0.21,0.22,0.42,0.45,0.61,0.67c0.44,0.09,0.78,0.28,1.01,0.55c0.24,0.27,0.3,0.54,0.22,0.82l-1.13,3.5
						c0.15,0.22,0.28,0.45,0.42,0.68l1.67-4.88c0.43,0.15,0.84,0.3,1.26,0.46C141.98,51.6,141.81,51.37,141.63,51.12z"/>
				</g>
				<g>
					<path class="st1" d="M147.98,54.1c-2.11-1.23-4.35-2.27-6.65-3.08c0.19,0.24,0.36,0.49,0.54,0.73l0.78,0.3l-1.04,2.6
						c0.2,0.32,0.4,0.64,0.58,0.97c0.38-0.3,0.87-0.51,1.47-0.61c0.59-0.1,1.22-0.07,1.85,0.08c-0.35,0.33-0.61,0.67-0.78,1
						c-0.21,0.41-0.4,1.07-0.59,2.01l0.31,0.35c0.19-0.65,0.34-1.13,0.5-1.41c0.33-0.62,0.97-1.16,1.94-1.58
						c-0.25-0.4-0.52-0.78-0.79-1.16c-0.53-0.11-1.13-0.18-1.8-0.16c-0.57,0.03-1.14,0.06-1.71,0.11l0.8-1.89
						c1.72,0.73,3.39,1.58,4.98,2.56C148.25,54.64,148.12,54.37,147.98,54.1z"/>
				</g>
				<g>
					<path class="st1" d="M154.4,58.76c-0.34-0.35-0.43-0.68-0.25-0.99c-0.05-0.2-0.1-0.37-0.17-0.53
						c-0.37,0.49-0.84,1.19-1.41,2.09c0.05-0.24,0.05-0.65-0.03-1.25c-0.09-0.68-0.26-1.08-0.45-1.23
						c-0.31-0.24-0.67-0.37-1.05-0.43c-0.33-0.04-0.65,0-0.94,0.1c0.08-0.24,0.04-0.53-0.14-0.86c-0.18-0.34-0.43-0.61-0.75-0.81
						c-0.45-0.28-0.9-0.56-1.37-0.83l0.38,0.81c0.56,0.33,0.89,0.56,1.01,0.67c0.28,0.26,0.41,0.56,0.38,0.9
						c-0.3-0.12-0.62-0.17-0.95-0.12c-0.33,0.04-0.55,0.17-0.68,0.35c-0.09,0.15-0.1,0.32-0.05,0.53c0.06,0.21,0.19,0.37,0.4,0.51
						c0.19,0.12,0.41,0.2,0.64,0.23c0.24,0.02,0.44,0,0.6-0.07c0.03,0.46,0.21,0.8,0.53,1.05c0.47,0.35,0.83,0.37,1.1,0.04
						c0.12-0.16,0.15-0.37,0.06-0.65c-0.04-0.15-0.16-0.4-0.33-0.76c0.06-0.08,0.2-0.09,0.4-0.04c0.18,0.04,0.33,0.11,0.47,0.22
						c0.2,0.16,0.34,0.46,0.42,0.89c0.07,0.44,0.04,0.72-0.08,0.86l-2.01,2.3c0.07,0.27,0.12,0.54,0.19,0.81l3.3-3.79
						c0.33,0.29,0.65,0.58,0.98,0.87C154.54,59.34,154.48,59.05,154.4,58.76z"/>
				</g>
				<g>
					<path class="st1" d="M156.76,57.55c-1.59-0.54-3.19-0.96-4.76-1.28c0.48,0.36,0.96,0.74,1.42,1.12
						c1.26,0.16,2.53,0.38,3.81,0.69L156.76,57.55z"/>
				</g>
			</g>
		</g>
	</g>
	<g id="title_00000116207247249625116620000010363564417869699756_">
		<g>
			<g>
				<g>
					<path class="st1" d="M92.23,122.43c-1.51-1.58-2.91-3.24-4.2-5l-0.07,0.91c0.93,1.23,1.91,2.41,2.94,3.55l-0.3,0.27
						c-1.27-0.8-2.64-1.51-4.16-2.15c-0.09,0.47-0.18,0.94-0.26,1.41c0.45,0.64,0.74,1.25,0.87,1.83c0.1,0.46,0.12,0.99,0.06,1.6
						c-0.08,0.57-0.16,1.14-0.22,1.73l4.47-4.18c0.3,0.32,0.6,0.63,0.91,0.95L92.23,122.43z M87.15,121.41
						c1.07,0.45,1.99,0.9,2.74,1.37l-2.31,2.1C87.79,123.84,87.62,122.69,87.15,121.41z"/>
				</g>
				<g>
					<path class="st1" d="M94.18,124.37l-0.42-0.4c0-0.19,0.02-0.35,0.07-0.49l0.26-0.42l-0.05-0.31c-0.7,0.71-1.24,1.38-1.62,2.04
						c0.24-0.58,0.36-0.99,0.36-1.23c0.01-0.4-0.19-0.81-0.61-1.25c-0.12-0.14-0.27-0.27-0.43-0.41l0.06,0.94
						c0.32,0.29,0.5,0.61,0.55,0.98c0.05,0.36-0.05,0.68-0.3,0.94l-3.12,3.17l0.1,0.96l4.3-4.49c0.31,0.29,0.62,0.59,0.94,0.87
						L94.18,124.37z"/>
				</g>
				<g>
					<path class="st1" d="M95.23,128.8c0.41-0.02,0.72-0.18,0.94-0.46c0.23-0.29,0.31-0.64,0.25-1.04
						c-0.06-0.41-0.25-0.75-0.58-1.02c-0.31-0.26-0.67-0.38-1.1-0.38s-0.75,0.12-0.98,0.37c-0.25,0.27-0.33,0.62-0.27,1.05
						c0.07,0.43,0.28,0.8,0.63,1.09C94.46,128.69,94.84,128.82,95.23,128.8z M94.11,133.17c-0.4-2.35-0.71-4.13-1.08-5.39l-0.88,1
						c0.64,1.72,1.21,3.32,1.66,4.79L94.11,133.17z M95.03,127.99c-0.34,0-0.64-0.11-0.9-0.34c-0.22-0.19-0.23-0.38-0.03-0.61
						c0.18-0.2,0.44-0.31,0.79-0.32c0.34-0.01,0.63,0.07,0.87,0.28c0.24,0.2,0.26,0.43,0.05,0.68
						C95.64,127.88,95.38,127.99,95.03,127.99z"/>
				</g>
				<g>
					<path class="st1" d="M103.25,131.11c-2.15-1.25-4.2-2.66-6.14-4.22c0.06,0.31,0.12,0.62,0.2,0.93c1.47,1.14,3,2.2,4.58,3.18
						l-0.85,1.38c0.12-0.74-0.05-1.25-0.53-1.56c-0.14-0.08-0.33-0.12-0.6-0.1s-0.44,0.08-0.52,0.2c-0.1-0.65-0.41-1.15-0.89-1.51
						c-0.38-0.28-0.81-0.36-1.27-0.24c-0.41,0.1-0.73,0.31-0.99,0.64c-0.3,0.38-0.38,0.82-0.25,1.3c0.14,0.48,0.46,0.91,0.98,1.28
						c0.22,0.16,0.47,0.26,0.73,0.29c0.3,0.04,0.51-0.03,0.62-0.19c0.14-0.2,0.19-0.43,0.16-0.71c-0.02-0.27-0.15-0.48-0.37-0.64
						c-0.18-0.12-0.37-0.19-0.58-0.18c-0.21,0-0.36,0.07-0.47,0.22c-0.09,0.12-0.12,0.29-0.1,0.5c-0.49-0.46-0.59-0.87-0.32-1.23
						c0.18-0.24,0.43-0.36,0.76-0.37s0.64,0.09,0.95,0.3c0.3,0.22,0.52,0.49,0.67,0.83s0.17,0.65,0.06,0.94l0.31,0.09
						c0.06-0.15,0.12-0.27,0.18-0.35c0.21-0.31,0.47-0.36,0.79-0.16c0.19,0.12,0.32,0.3,0.41,0.55c0.08,0.24,0.08,0.44-0.02,0.59
						l-1.72,2.8l0.37,0.9l3.11-5.21c0.36,0.21,0.73,0.43,1.09,0.63C103.46,131.71,103.35,131.42,103.25,131.11z"/>
				</g>
				<g>
					<path class="st1" d="M105.79,132.51l-0.51-0.26c-0.05-0.18-0.07-0.34-0.06-0.49l0.12-0.47L105.2,131
						c-0.47,0.87-0.8,1.67-0.99,2.41c0.07-0.62,0.07-1.05,0.01-1.28c-0.1-0.38-0.41-0.73-0.94-1.03c-0.16-0.09-0.33-0.18-0.52-0.27
						l0.32,0.87c0.38,0.19,0.64,0.45,0.8,0.78c0.16,0.34,0.15,0.67-0.02,0.98l-2.11,3.93l0.36,0.89l2.88-5.52
						c0.38,0.2,0.76,0.4,1.14,0.58C106.04,133.07,105.92,132.79,105.79,132.51z"/>
				</g>
				<g>
					<path class="st1" d="M109.49,134.19c-1.34-0.55-2.66-1.15-3.95-1.82l0.35,0.85c0.63,0.31,1.28,0.61,1.93,0.91
						c-1.25,0.47-2.12,1.11-2.55,2.02c-0.31,0.64-0.41,1.3-0.28,1.98c0.16,0.82,0.63,1.41,1.43,1.75c0.35,0.15,0.69,0.19,1.02,0.11
						c0.32-0.07,0.54-0.23,0.63-0.49c0.11-0.29,0.04-0.55-0.22-0.79c-0.06-0.12-0.18-0.21-0.34-0.28c-0.21-0.08-0.43-0.1-0.67-0.06
						s-0.38,0.14-0.45,0.29c-0.09,0.21-0.04,0.48,0.18,0.78l-0.2-0.03c-0.42-0.19-0.7-0.55-0.81-1.09c-0.09-0.48-0.05-0.88,0.1-1.23
						c0.38-0.83,0.93-1.42,1.6-1.77c0.76-0.42,1.62-0.51,2.63-0.32L109.49,134.19z"/>
				</g>
				<g>
					<path class="st1" d="M115.76,136.28c-2.21-0.57-4.39-1.3-6.5-2.17l0.44,0.83l0.75,0.29l-1.2,3.16
						c0.22,0.37,0.45,0.75,0.68,1.11c0.43-0.41,0.96-0.71,1.59-0.94c0.63-0.22,1.29-0.33,1.99-0.32c-0.31,0.48-0.54,0.94-0.68,1.37
						c-0.16,0.52-0.25,1.36-0.25,2.51l0.47,0.34c0.03-0.83,0.11-1.42,0.22-1.8c0.24-0.82,0.82-1.62,1.72-2.44
						c-0.34-0.35-0.68-0.72-1.01-1.08c-0.54,0.02-1.15,0.11-1.85,0.27c-0.59,0.15-1.2,0.28-1.8,0.41l0.84-2.34
						c1.68,0.6,3.4,1.12,5.14,1.55L115.76,136.28z"/>
				</g>
				<g>
					<path class="st1" d="M123.07,137.6c-0.46-0.09-0.69-0.35-0.69-0.78c-0.14-0.16-0.26-0.3-0.37-0.41
						c-0.07,0.74-0.11,1.76-0.14,3.05c-0.08-0.28-0.31-0.69-0.67-1.24c-0.41-0.61-0.7-0.95-0.91-0.98
						c-0.36-0.05-0.72-0.01-1.08,0.17c-0.31,0.15-0.58,0.35-0.81,0.61c-0.01-0.3-0.15-0.59-0.42-0.87s-0.57-0.47-0.91-0.54
						c-0.49-0.11-0.97-0.23-1.46-0.36l0.53,0.76c0.6,0.14,0.98,0.24,1.12,0.3c0.33,0.16,0.54,0.43,0.64,0.81
						c-0.32,0.02-0.63,0.11-0.95,0.31c-0.31,0.2-0.49,0.43-0.55,0.69c-0.05,0.21-0.01,0.42,0.12,0.61c0.14,0.21,0.32,0.33,0.58,0.38
						c0.24,0.05,0.49,0.03,0.74-0.06s0.44-0.23,0.57-0.4c0.22,0.48,0.55,0.75,0.98,0.83c0.62,0.1,0.98-0.1,1.06-0.61
						c0.03-0.23-0.05-0.48-0.26-0.73c-0.1-0.12-0.32-0.31-0.63-0.59c0.02-0.12,0.14-0.22,0.34-0.28c0.18-0.06,0.34-0.08,0.5-0.05
						c0.25,0.04,0.5,0.26,0.78,0.65s0.41,0.7,0.37,0.91l-0.55,3.64l0.74,0.7l0.71-6.03c0.42,0.05,0.83,0.09,1.25,0.14L123.07,137.6z
						"/>
				</g>
				<g>
					<path class="st1" d="M133.92,137.58c-2.45,0.27-4.94,0.36-7.41,0.26c0.23,0.21,0.46,0.42,0.69,0.62
						c0.96,0.02,1.91,0.02,2.87-0.01c0,0.05,0,0.24-0.02,0.55c-0.01,0.31-0.02,0.57-0.01,0.78c0.03,1.24,0.43,1.84,1.17,1.81
						c0.31-0.01,0.71-0.18,1.17-0.5c0.47-0.31,0.73-0.59,0.78-0.83c0.29,0.21,0.46,0.45,0.49,0.71c0.04,0.43-0.17,0.81-0.63,1.15
						c-0.43,0.31-0.93,0.49-1.5,0.52c-1.02,0.06-1.87-0.36-2.5-1.25c-0.5-0.69-0.78-1.48-0.85-2.39l-0.42-0.19
						c0.17,1.64,0.57,2.89,1.24,3.71c0.65,0.82,1.57,1.22,2.69,1.14c0.89-0.05,1.57-0.32,2.01-0.79c0.42-0.45,0.57-1.01,0.5-1.69
						c-0.04-0.36-0.2-0.73-0.47-1.09c-0.3-0.4-0.64-0.64-1.03-0.75c-0.25,0.29-0.5,0.57-0.75,0.85c-0.33,0.33-0.69,0.5-1.06,0.52
						l-0.1-2.29c1.31-0.06,2.62-0.18,3.93-0.33L133.92,137.58z"/>
				</g>
				<g>
					<path class="st1" d="M136.87,137.18l-0.56,0.09c-0.16-0.11-0.27-0.23-0.34-0.35l-0.18-0.46l-0.28-0.16
						c0.14,0.98,0.35,1.82,0.64,2.53c-0.31-0.54-0.56-0.88-0.75-1.03c-0.31-0.26-0.76-0.33-1.36-0.27
						c-0.19,0.02-0.37,0.05-0.58,0.09c0.26,0.18,0.52,0.34,0.78,0.51c0.42-0.07,0.79-0.03,1.11,0.16s0.51,0.45,0.56,0.8l0.63,4.4
						c0.27,0.17,0.55,0.33,0.82,0.5l-0.98-6.14c0.43-0.06,0.84-0.15,1.27-0.22L136.87,137.18z"/>
				</g>
				<g>
					<path class="st1" d="M144.49,135.24c-2.58,0.87-5.23,1.54-7.91,1.98c0.27,0.17,0.53,0.31,0.8,0.48
						c1.41-0.25,2.81-0.56,4.2-0.94l0.12,0.45c-1.31,0.74-2.48,1.6-3.57,2.63c0.4,0.26,0.8,0.53,1.21,0.79
						c1.76-0.21,3.13,0.28,4.21,1.58l0.33,0.12l-1.29-4.56l0.19-0.06c0.47-0.15,0.95-0.15,1.43,0.02c0.49,0.17,0.81,0.44,0.94,0.83
						l-0.01,0.11c-0.23-0.14-0.49-0.16-0.78-0.06c-0.12,0.04-0.25,0.1-0.4,0.19c-0.21,0.26-0.29,0.49-0.23,0.7
						c0.05,0.19,0.2,0.32,0.44,0.41c0.24,0.07,0.48,0.08,0.72,0c0.34-0.1,0.58-0.3,0.74-0.59c0.15-0.28,0.18-0.56,0.08-0.83
						c-0.19-0.55-0.6-0.98-1.23-1.3c-0.67-0.35-1.31-0.43-1.98-0.24l-0.14,0.04l-0.11-0.4c1.04-0.29,2.08-0.62,3.1-0.99
						L144.49,135.24z M139.62,139.72c0.85-0.76,1.59-1.35,2.27-1.78l0.81,3.04C141.9,140.28,140.88,139.88,139.62,139.72z"/>
				</g>
				<g>
					<path class="st1" d="M154.28,129.49c-1.71-0.29-3.1-0.16-4.29,0.46c-0.49,0.25-0.88,0.67-1.24,1.25
						c-0.35,0.62-0.45,1.14-0.26,1.58c0.05,0.12,0.2,0.23,0.43,0.31l0.56,0.15c-0.54,0.25-1.09,0.5-1.64,0.73
						c0.29,0.09,0.58,0.19,0.88,0.28l0.95-0.43l2.28,4.92l0.98,0.19l-2.6-5.41c0.36-0.18,0.73-0.35,1.09-0.54
						c-0.3-0.07-0.6-0.15-0.9-0.23l-0.67,0.32l-0.47-0.38c-0.15-0.37-0.02-0.82,0.34-1.36c0.33-0.51,0.71-0.86,1.12-1.09
						c0.59-0.31,1.21-0.49,1.87-0.54c0.24-0.02,0.87,0,1.91,0.02L154.28,129.49z"/>
				</g>
				<g>
					<path class="st1" d="M155.94,129.65c-1.82,1.21-3.72,2.28-5.68,3.23l0.88,0.24c1.37-0.7,2.71-1.45,4.01-2.26l0.21,0.34
						c-1.01,1.1-1.95,2.33-2.87,3.7c0.45,0.18,0.89,0.34,1.34,0.51c0.71-0.33,1.36-0.5,1.95-0.53c0.47-0.02,0.99,0.05,1.58,0.23
						c0.55,0.18,1.1,0.36,1.66,0.52l-3.29-5.15c0.36-0.24,0.74-0.48,1.09-0.73L155.94,129.65z M154.03,134.45
						c0.63-0.98,1.25-1.79,1.84-2.45l1.64,2.65C156.53,134.26,155.36,134.22,154.03,134.45z"/>
				</g>
				<g>
					<path class="st1" d="M161.65,125.26c-1.89,1.67-3.9,3.21-6.02,4.58l0.94,0.11c2.13-1.42,4.15-3,6.03-4.73
						C162.29,125.24,161.97,125.25,161.65,125.26z M162.82,126.92c-0.65-0.15-1.08-0.12-1.31,0.05l-0.02,0.04
						c0.07,0.24,0.06,0.58-0.02,1.02c-0.08,0.48-0.23,0.8-0.42,0.97h-0.04c0.01-0.31-0.03-0.53-0.12-0.65
						c-0.12-0.16-0.3-0.23-0.53-0.23s-0.44,0.08-0.62,0.23c-0.28,0.22-0.45,0.45-0.52,0.71c-0.07,0.26-0.02,0.5,0.15,0.73
						c0.22,0.29,0.53,0.43,0.95,0.41c0.38-0.02,0.76-0.18,1.12-0.46c0.4-0.31,0.69-0.64,0.86-0.99c0.17-0.31,0.26-0.7,0.29-1.16
						l0.02-0.04c0.08-0.07,0.24-0.05,0.47,0.06c0.18,0.09,0.31,0.2,0.4,0.3c0.26,0.3,0.34,0.72,0.21,1.24
						c-0.14,0.52-0.41,0.96-0.81,1.28c-0.83,0.68-1.82,0.94-2.9,0.77c-0.83-0.12-1.65-0.5-2.45-1.08l-0.45,0.16
						c1.26,0.87,2.21,1.39,2.83,1.59c1.3,0.42,2.48,0.22,3.48-0.58c0.7-0.57,1.1-1.25,1.2-2.01c0.09-0.72-0.11-1.34-0.58-1.86
						C163.83,127.23,163.43,127.06,162.82,126.92z"/>
				</g>
				<g>
					<path class="st1" d="M163.82,123.21l-0.41,0.41c-0.19,0-0.35-0.03-0.49-0.08l-0.41-0.27l-0.32,0.04
						c0.69,0.72,1.34,1.28,1.99,1.69c-0.57-0.26-0.98-0.4-1.21-0.41c-0.4-0.03-0.82,0.17-1.27,0.57c-0.14,0.12-0.28,0.26-0.42,0.42
						c0.31-0.01,0.62-0.02,0.94-0.03c0.3-0.31,0.62-0.48,1-0.52c0.36-0.04,0.68,0.07,0.93,0.32l3.07,3.22l0.96-0.07l-4.35-4.45
						c0.31-0.3,0.61-0.6,0.9-0.91L163.82,123.21z"/>
				</g>
				<g>
					<path class="st1" d="M168.39,118l-0.14,0.18c-0.24,0.32-0.53,0.34-0.86,0.08l-0.11-0.15l-0.52,0.1
						c0.34,0.27,0.79,0.59,1.34,0.98l1.38,0.93c-0.75-0.25-1.32-0.35-1.72-0.31c-0.56,0.05-1.09,0.37-1.6,0.97
						c-0.38,0.44-0.64,0.91-0.77,1.45c-0.14,0.59-0.03,1.06,0.31,1.39c0.12,0.12,0.32,0.2,0.57,0.21s0.45-0.07,0.59-0.23
						c0.1-0.1,0.21-0.34,0.31-0.71c0.1-0.36,0.2-0.59,0.27-0.68c0.18-0.2,0.32-0.24,0.46-0.12c0.08,0.08,0.14,0.41,0.14,0.98
						c0,0.5-0.03,0.88-0.08,1.13c0.38-0.04,0.77-0.08,1.16-0.14c0.05-1.31-0.15-2.1-0.49-2.4c-0.26-0.22-0.54-0.27-0.86-0.19
						c-0.29,0.08-0.57,0.29-0.85,0.59c-0.18,0.2-0.33,0.46-0.47,0.78c-0.23-0.62-0.08-1.23,0.43-1.81c0.34-0.4,0.84-0.6,1.49-0.63
						c0.61-0.03,1.09,0.08,1.46,0.36l2.38,1.98c0.4-0.06,0.8-0.12,1.2-0.2l-4.9-3.78c0.26-0.33,0.52-0.68,0.77-1.02L168.39,118z"/>
				</g>
			</g>
		</g>
	</g>
	<g id="frame_00000132777391559259020670000011713457180958207909_">
		<g>
			<path class="st1" d="M167.28,110.21l-1.24-0.72c3.79-6.57,5.8-14.07,5.8-21.7c0-23.95-19.48-43.44-43.44-43.44
				s-43.43,19.5-43.43,43.44c0,7.63,2.01,15.13,5.8,21.7l-1.24,0.72c-3.92-6.79-5.99-14.53-5.99-22.41
				c-0.01-24.73,20.12-44.86,44.86-44.86s44.87,20.13,44.87,44.87C173.28,95.67,171.2,103.43,167.28,110.21z"/>
		</g>
		<g>
			<path class="st1" d="M169.1,111.43l-0.62-0.36c4.1-7.04,6.26-15.1,6.26-23.28c0-25.55-20.79-46.35-46.34-46.35
				s-46.34,20.8-46.34,46.35c0,8.19,2.16,16.24,6.27,23.28l-0.61,0.36c-4.16-7.15-6.36-15.32-6.36-23.64
				c0-25.94,21.11-47.05,47.05-47.05s47.05,21.12,47.05,47.05C175.46,96.11,173.27,104.28,169.1,111.43z"/>
		</g>
		<g>
			<path class="st1" d="M128.41,149.01c-10.6,0-21.06-2.76-30.23-7.97c-8.89-5.06-16.44-12.33-21.83-21.03l-0.4-0.63L76.6,119
				c0.04-0.02,3.48-1.98,5.41-4.63c-1.35-0.5-2.33-1.45-2.8-2.74c-0.36-1-0.27-1.96,0.26-2.72c0.52-0.74,1.39-1.19,2.34-1.19
				c0.78,0,1.5,0.3,2.02,0.85c0.44,0.47,0.95,1.34,0.85,2.85c-0.04,0.62-0.19,1.26-0.45,1.89c2.03,0.04,4.36-0.88,6.39-2.51
				l0.62-0.49l0.43,0.68c8.04,12.67,21.76,20.23,36.73,20.23s28.69-7.56,36.72-20.22l0.43-0.68l0.62,0.49
				c2.01,1.59,4.3,2.51,6.31,2.51c0.03,0,0.06,0,0.08,0c-0.26-0.64-0.42-1.28-0.45-1.89c-0.09-1.51,0.42-2.38,0.85-2.85
				c0.52-0.55,1.24-0.85,2.02-0.85c0.95,0,1.82,0.45,2.34,1.19c0.53,0.76,0.62,1.73,0.26,2.72c-0.47,1.3-1.45,2.25-2.8,2.74
				c1.93,2.65,5.38,4.61,5.41,4.63l0.65,0.36l-0.4,0.63c-5.4,8.7-12.94,15.97-21.83,21.03
				C149.47,146.25,139.01,149.01,128.41,149.01z M77.95,119.86c11.05,17.36,29.86,27.72,50.45,27.72s39.4-10.34,50.45-27.72
				c-1.25-0.78-3.97-2.68-5.55-5.13h-0.01l-0.01-0.02c-0.26,0.03-0.53,0.04-0.8,0.04c-2.13,0-4.44-0.82-6.56-2.34
				c-8.36,12.7-22.32,20.25-37.52,20.25c-15.2,0-29.16-7.55-37.51-20.24c-2.12,1.51-4.43,2.34-6.57,2.34c-0.27,0-0.54-0.01-0.8-0.04
				l-0.01,0.02H83.5C81.92,117.17,79.19,119.08,77.95,119.86z M81.82,109.16c-0.48,0-0.93,0.22-1.17,0.57
				c-0.26,0.36-0.29,0.85-0.08,1.41c0.34,0.96,1.12,1.64,2.2,1.98c0.29-0.61,0.46-1.21,0.49-1.77c0.05-0.79-0.11-1.4-0.47-1.79
				C82.55,109.3,82.2,109.16,81.82,109.16z M174.98,109.16c-0.38,0-0.73,0.15-0.97,0.41c-0.35,0.37-0.52,1-0.47,1.79
				c0.03,0.57,0.2,1.16,0.49,1.77c1.09-0.32,1.86-1.01,2.2-1.98c0.2-0.56,0.18-1.05-0.08-1.41
				C175.91,109.38,175.46,109.16,174.98,109.16z"/>
		</g>
	</g>
	<g id="hurricane_00000090266977255350013400000007069085289923069574_">
		<g>
			<g>
				<path class="st1" d="M115.83,98.1l0.06-0.03c0.64-0.38,0.91-1.36,0.93-1.4l0.01-0.04v-0.04c0-0.04-0.08-4.57-0.08-5.91
					c0-1.52-2.55-2.5-2.66-2.54l-0.16-0.06l-0.12,0.11c-0.22,0.21-0.9,0.73-1.39,0.73c-0.63,0-1-0.1-1.61-0.72l-0.08-0.08h-0.11
					c-2.06,0-3.05,2.47-3.09,2.58l-0.02,0.09c-0.02,0.48-0.18,4.73,0.01,5.46c0.16,0.61,0.69,1.28,0.9,1.54
					c-0.42,1.45-2.5,9.28,0.3,10.27v1.34h6.73V108C118,106.83,116.37,100.07,115.83,98.1z M108.03,90.85
					c0.12-0.29,0.98-2.11,2.46-2.19c0.7,0.67,1.2,0.79,1.91,0.79c0.63,0,1.33-0.52,1.62-0.76c0.72,0.3,2.16,1.09,2.16,1.98
					c0,1.27,0.08,5.43,0.08,5.87c-0.07,0.23-0.28,0.77-0.61,1.01l-1.34-0.02v-2.55h-4.56v2.5l-0.94-0.01
					c-0.19-0.22-0.68-0.82-0.81-1.34C107.9,95.62,107.97,92.72,108.03,90.85z M112.73,106.93h-1.23c-0.3,0-0.54-0.24-0.54-0.54
					s0.24-0.54,0.54-0.54h1.23c0.3,0,0.54,0.24,0.54,0.54C113.26,106.68,113.02,106.93,112.73,106.93z M115.25,107.48l-3.31-3.69
					l-3.05,3.77v-0.01c-2.04-0.67-0.74-6.96,0-9.56l6.35,0.1C115.99,100.68,117.17,106.54,115.25,107.48z"/>
			</g>
			<g>
				<path class="st1" d="M114.35,100.69c0.75-1.09-0.21-1.83-0.21-1.83s-2.69,0-3.96,0s-0.86,1.77-0.86,1.77l2.52,2.14
					C111.84,102.76,113.61,101.78,114.35,100.69z"/>
			</g>
			<g>
				<path class="st1" d="M112.71,103.18l2.38,2.85c0,0-0.25-3.37-0.34-4.48C114.17,101.64,112.71,103.18,112.71,103.18z"/>
			</g>
			<g>
				<path class="st1" d="M109.21,101.55c-0.09,1.11-0.34,4.48-0.34,4.48l2.38-2.85C111.25,103.18,109.79,101.64,109.21,101.55z"/>
			</g>
			<g>
				<path class="st1" d="M113.92,94.2h0.42v-0.42c0-0.23-0.19-0.42-0.42-0.42h-3.74c-0.23,0-0.42,0.19-0.42,0.42v0.42h0.42H113.92z"
					/>
			</g>
			<g>
				<path class="st1" d="M108.48,109.79h-0.45v0.45c0,0.25,0.2,0.45,0.45,0.45h6.98c0.25,0,0.45-0.2,0.45-0.45v-0.45h-0.45H108.48z"
					/>
			</g>
		</g>
	</g>
	<g id="borsha_00000155143469848901344160000006119675773938324378_">
		<g>
			<path class="st1" d="M99.61,88.38h2.06c0,0,0.67-0.28,0-1.08s-1.96-1.23-1.03-2.62c-0.97-0.17-2.39-0.47-2.16,2.62
				c-0.43,0-1,0-1,0s-0.36-1.76-2.66-1.76s-8.01,2.36-8.01,2.36s6.41,1.76,8.04,1.76c1.62,0,2.69-1.59,2.69-1.59h0.8
				c0,0,0.36,1.2,0.77,1.73c0,0.83,0.03,1.94,0.03,1.94s-0.97,0.34-0.83,1.51c0.14,1.16,0.76,1.13,0.97,1.13s0.47-0.36,1.26-0.36
				c0.4-0.4,0.14-1.82-0.63-2.13c0-0.67-0.06-1.39-0.06-1.39s0.83-0.53,0.73-1.01C100.47,89,99.61,89.04,99.61,88.38z"/>
		</g>
		<g>
			<path class="st1" d="M113.26,86.72h10.03c0,0-0.83-1.14-1.03-1.87C120.5,84.85,113,85,113,85s-1.07-0.07-1.07,1.88
				C111.93,87.41,112.73,88.2,113.26,86.72z"/>
		</g>
		<g>
			<path class="st1" d="M124.29,87.55c0.14,0.35,0.33,0.99,0.7,1.28l-10.03-0.64c0,0-1.16-0.72-0.7-0.88L124.29,87.55z"/>
		</g>
		<g>
			<polygon class="st1" points="140.65,88.27 170.16,88.27 170.16,85.83 137.43,85.83 			"/>
		</g>
		<g>
			<polygon class="st1" points="110.97,88.38 102.54,88.38 102.25,86.72 110.97,86.72 			"/>
		</g>
	</g>
	<g id="top-body_00000088830275323376555490000012964084892155022511_">
		<g>
			<path class="st1" d="M122.93,83.44c0,0,3.34,2.27,5.51,3.16c-0.3,0.38-1.75,2.24-2.24,2.09S123.12,85.03,122.93,83.44z"/>
		</g>
		<g>
			<path class="st1" d="M129.84,77.72v8.65c0,0,2.89-0.89,3.17-1.62C132.9,83.24,132.43,77.67,129.84,77.72z"/>
		</g>
		<g>
			<path class="st1" d="M115.87,77.36c-1.13-0.04-4.42,2.72-1.99,3.87c0.7-0.59,1.29-1.33,1.29-1.33s-0.59,1.58,0.7,1.98
				c1.29,0.4,0.79-0.79,1.49-0.75c0.4,0.64,0.5,1.04,1.14,1.04c0.64-0.1,0.84-1.93,0-3.03C117.65,78.06,117.1,77.42,115.87,77.36z"
				/>
		</g>
		<g>
			<path class="st1" d="M117.92,76.85c-0.9-0.02-1.69-0.24-1.6-0.99s1.37-1.54,2.22-1.35s2.22,0.56,2.22,3.78
				c0.59,0.69,2.47,1.98,4.76,2.1c2.29,0.12,3.66-0.16,3.66,0.53s0,4.39,0,4.39s-2.73-0.09-9.52-4.86
				c-0.56-0.75-0.94-1.22-0.87-2.35C118.73,77.4,118.23,76.85,117.92,76.85z"/>
		</g>
		<g>
			<path class="st1" d="M125.05,73.03c0,0-2.97,2.52-3.57,2.99c-0.31,0.81-0.65,3.35,3.22,3.38
				C124.95,77.83,125.05,73.03,125.05,73.03z"/>
		</g>
		<g>
			<path class="st1" d="M128.63,68.89c0,0,9.39-0.42,10.17,0s3.99,5.43,3.22,9.84c-0.78,4.41-2.14,5.54-8.22,6.26
				c-0.11-1.43-0.32-5.13-0.91-6.12s-2.63-3.32-3.57-3.29c0,1.03-0.19,4.11-0.19,4.11s-3.01,0.22-3.43-0.41
				c-0.06-1.15,0-4.61,0-4.61s2.79-2.44,2.93-3c0.46,0.25,0.52,1.68,3.9,1.36C132.47,72.7,128.53,73.1,128.63,68.89z"/>
		</g>
		<g>
			<path class="st1" d="M126.3,72.82c-0.08-0.52,0.52-2.7,0.56-3.13c0.05-0.43,1.72-0.61,1.32,1.23
				C127.77,72.75,126.39,73.38,126.3,72.82z"/>
		</g>
		<g>
			<path class="st1" d="M121.06,75.26c-0.5,0.02-1.92-0.97-1.17-1.51s4.14-2.72,4.89-2.94c0.75-0.21,1.74,0.78,0.82,1.53
				C124.67,73.1,121.06,75.26,121.06,75.26z"/>
		</g>
		<g>
			<path class="st1" d="M121.5,69.88c0,0-5.05,1.13-4.91-1.46c0.07-0.87,0.58-1.2,1.08-1.1c0.02-0.47-0.99-1.83,1.23-2.37
				c0.78-1.06,1.4-1.9,1.62-2.56c0.21-0.65,0.82-1.55,2.82-1.13c2,0.43,4.16,2.35,4.47,2.91c1.17,0.02,2.39,0.21,1.95,0.45
				c-0.45,0.24-0.71,0.69-0.61,0.75c0.09,0.07,0.73,0.43-1.32,0.47c0.07,0.43,0.46,0.54,0.82,0.75s-0.1,0.47,0,0.56
				s0.29,1.08-0.75,0.68c-1.03-0.41-1.1-0.75-1.38-0.71c-0.28,0.05-1.04,0.17-0.91,0.45c0.11,0.28,1.12,0.94-0.17,1.17
				c-0.26,0.24,0.41,0.61-0.09,0.8s-2.65,1.88-3.69,2.3c-1.01,0-1.34-0.28-1.25-0.71s0.54-0.73,1.2-0.8
				C121.6,70.07,121.66,69.85,121.5,69.88z"/>
		</g>
	</g>
	<g id="komor_00000063628317457738088240000005591143332205329804_">
		<g>
			<path class="st1" d="M127.06,89.76c-0.73-0.36-4.6,3.39-2.9,3.66s5.79,1.1,6.88,1.56c0.97-0.44,1.86-1.23,1.69-1.69
				c0.67,0.03,1.8,1.06,2.66,0.67c0.86-0.4,5.66-3.83,5.95-4.39c-0.97-0.83-3.06-2.04-3.92-2
				C136.57,87.59,130.18,91.35,127.06,89.76z"/>
		</g>
		<g>
			<path class="st1" d="M133.74,85.66c0.35-0.36,2.56,1.47,1.92,1.8s-6.64,2.86-7.23,2.66c-0.58-0.2-0.4-1.73,0.2-2.03
				S132.68,86.76,133.74,85.66z"/>
		</g>
	</g>
	<g id="front-leg_00000018958077003869044960000002279376097653562765_">
		<g>
			<path class="st1" d="M125.04,94.51c0.43,0.02,5.32,1.86,6.55,1.63s1.47-1.43,2.16-1.36c0.7,0.06,1.03,0.7,2.19-0.03
				s3.25-2.56,3.59-2.99c0.06,0.77,0,2.86-4.52,4.89s-14.96,5.01-15.23,6.45c0.4,0.17,1.73-0.27,2.59-0.73
				c0.56,0.44,1.6,1.83,1.33,4.09c-0.27,2.26-2,6.15-2,7.25s-0.1,5.92-0.03,6.41c0.06,0.5,0.89,3.25-0.44,3.06
				c-1.33-0.2-2.13-0.23-2.66-0.14c-0.53,0.1-1.6,0.97-2.53,0.83c-0.94-0.14-2.53-0.6-2.46-1.06c0.06-0.47,1.1-0.47,2-0.8
				c0.89-0.33,1.5-1.33,3.22-1.96c-0.06-1.16-0.57-9.53-0.57-11.32s-0.59-5.43,0.18-6.98C119.19,100.2,123.19,94.43,125.04,94.51z"
				/>
		</g>
	</g>
	<g id="back-leg_00000072239733202576313470000004203110633280682685_">
		<g>
			<path class="st1" d="M131.41,99.54c-0.11,0.54,3.01,8.15,4.37,8.28c1.35,0.12,13.87-2.56,16.25-1.84
				c0.72,0.96,2.2,2.81,2.14,3.82c0,0,0.31,2.5,0.11,2.62c0.4,0.09,1.47-0.26,1.73-0.96s0.06-4.05,0.17-4.64
				c0.09-0.58,1.58-3.59-0.44-3.53c-2.02,0.05-7.85,0.05-9.72-0.47c-1.87-0.51-6.12-1.29-7.17-0.75c-1.06,0.54-2.28,2.28-2.28,2.76
				c-0.45,0.1-0.58-0.34-0.14-1.63c0.45-1.29,1.98-5.18,1.8-7.25C136.71,96.48,131.41,99.54,131.41,99.54z"/>
		</g>
	</g>
</g>
<path class="st2" d="M650.97,526.52c51.62-11.17,102.63-29.74,144.22-62.29s73.02-80.43,77.64-133.05
	c6.65-75.81-43.52-147.81-108.22-187.87S622.74,89.34,547.33,79.18c-71.51-9.63-144.82-16.53-215.33-1.2
	C191.11,108.61,117.19,226,153.89,365.57c27.74,105.51,163.66,144.22,258.22,162.66C490.78,543.59,572.57,543.49,650.97,526.52z"/>
<ellipse class="st3" cx="508.99" cy="589.03" rx="225.3" ry="19.19"/>
<path class="st4" d="M908.97,238.6H776.11c-1.87-2.34,0.18-6.57,2.6-8.33s5.47-2.69,7.47-4.92c3.13-3.5,2.61-8.79,2.32-13.48
	c-0.29-4.68,0.35-10.3,4.5-12.5c3.82-2.03,8.64,0.01,12.79-1.22c4.1-1.21,6.57-5.23,9.08-8.69c8.39-11.56,21.26-19.78,35.28-22.51
	c6.04-1.18,12.48-1.33,18.15,1.04c5.67,2.37,10.39,7.69,10.72,13.83c0.23,4.34-1.65,8.48-2.6,12.73c-0.95,4.24-0.66,9.38,2.8,12.02
	c2.8,2.14,6.66,1.9,10.15,2.35c3.49,0.45,7.5,2.47,7.6,5.99c0.11,3.82-4.57,6.89-3.61,10.59c0.59,2.26,3.07,3.46,5.37,3.87
	c2.3,0.41,4.74,0.34,6.83,1.38C907.67,231.77,910.3,236.68,908.97,238.6z"/>
<path class="st4" d="M210.84,227.88H78.56c-1.3-3.33,1.52-7.01,4.81-8.4s7.02-1.03,10.58-0.73c3.56,0.3,7.34,0.48,10.5-1.2
	c6.09-3.26,6.92-11.43,9.69-17.75c4.15-9.48,14.44-15.9,24.78-15.46c10.34,0.44,20.04,7.71,23.37,17.51
	c1.72,5.05,2.07,10.98,5.95,14.63c4.09,3.84,10.54,3.59,15.95,2.11s10.7-3.97,16.31-3.82S211.22,222.28,210.84,227.88z"/>
<path class="st4" d="M216.92,275.35h75.56c0.75-1.9-0.87-4-2.75-4.8s-4.01-0.59-6.05-0.42c-2.03,0.17-4.2,0.27-6-0.69
	c-3.48-1.86-3.95-6.53-5.53-10.14c-2.37-5.41-8.25-9.08-14.15-8.83s-11.45,4.41-13.35,10c-0.98,2.89-1.18,6.27-3.4,8.36
	c-2.34,2.19-6.02,2.05-9.11,1.2c-3.09-0.85-6.11-2.27-9.32-2.18C219.62,267.94,216.71,272.15,216.92,275.35z"/>
<g>
	<path class="st5" d="M881.37,355.77c-43.69,0-79.1,35.42-79.1,79.1c0,43.69,79.1,133.58,79.1,133.58s79.1-89.89,79.1-133.58
		C960.48,391.19,925.06,355.77,881.37,355.77z M881.37,455.11c-15.92,0-28.82-12.9-28.82-28.82s12.9-28.82,28.82-28.82
		s28.82,12.9,28.82,28.82C910.2,442.21,897.29,455.11,881.37,455.11z"/>
	<g>
		<g>
			<rect x="169.49" y="498.05" class="st6" width="108.15" height="108.15"/>
			<rect x="213.93" y="498.05" class="st2" width="19.27" height="33.85"/>
		</g>
		<rect x="119.77" y="498.05" class="st7" width="49.72" height="108.15"/>
	</g>
	<g>
		<g>
			<rect x="815.13" y="476.62" class="st6" width="55.27" height="55.27"/>
			<rect x="837.84" y="476.62" class="st2" width="9.85" height="17.3"/>
		</g>
		<rect x="870.4" y="476.63" class="st7" width="25.41" height="55.27"/>
	</g>
	<g>
		<g>
			<rect x="740.26" y="531.89" class="st6" width="111.08" height="74.3"/>
			<rect x="785.9" y="531.9" class="st2" width="19.8" height="23.25"/>
		</g>
		<rect x="851.34" y="531.9" class="st7" width="51.07" height="74.3"/>
	</g>
	<g>
		<g>
			
				<rect x="155.32" y="398.56" transform="matrix(0.9677 -0.2522 0.2522 0.9677 -101.1109 59.323)" class="st6" width="51.09" height="51.09"/>
			
				<rect x="171.89" y="399.13" transform="matrix(0.9677 -0.2522 0.2522 0.9677 -96.9722 57.6575)" class="st2" width="9.1" height="15.99"/>
		</g>
		
			<rect x="133.05" y="407.97" transform="matrix(0.9677 -0.2522 0.2522 0.9677 -104.6503 50.5283)" class="st7" width="23.49" height="51.09"/>
	</g>
</g>
<g>
	<g>
		<path class="st8" d="M295.45,353.79l2.81,0.81l212.5-50.55l-1-1.24l86.62-20.61l2.83,0.8c0,0,47.88-11.39,105.51-25.1
			c61.55-14.64,91.71,12.43,126.54,20.74c20.22,8.35,26.6,55.85-36.01,70.74c-80.51,19.15-172.65,48.35-172.65,48.35l-133.65,31.79
			l-102.84,24.46c-59.61,14.18-178.08-77.93-178.08-77.93L295.45,353.79z"/>
		<g>
			<g>
				<path class="st6" d="M673.18,313.63c1.26,5.28,6.56,8.54,11.84,7.29c5.28-1.26,8.55-6.56,7.29-11.84
					c-1.26-5.29-6.56-8.55-11.85-7.29C675.19,303.04,671.93,308.34,673.18,313.63z"/>
				<path class="st6" d="M633.82,322.99c1.26,5.28,6.56,8.54,11.84,7.29c5.29-1.26,8.55-6.56,7.29-11.84
					c-1.26-5.29-6.56-8.55-11.85-7.29C635.83,312.4,632.56,317.7,633.82,322.99z"/>
				<path class="st6" d="M594.46,332.35c1.26,5.28,6.56,8.54,11.84,7.29c5.28-1.26,8.54-6.56,7.29-11.84
					c-1.26-5.29-6.56-8.55-11.84-7.3C596.46,321.77,593.2,327.07,594.46,332.35z"/>
				<path class="st6" d="M555.1,341.72c1.26,5.28,6.56,8.54,11.84,7.29c5.29-1.26,8.55-6.56,7.29-11.84
					c-1.26-5.29-6.56-8.55-11.84-7.29C557.11,331.13,553.84,336.43,555.1,341.72z"/>
				<path class="st6" d="M515.74,351.08c1.26,5.28,6.56,8.54,11.84,7.29c5.28-1.26,8.55-6.56,7.29-11.84
					c-1.26-5.29-6.56-8.55-11.84-7.29C517.74,340.49,514.48,345.8,515.74,351.08z"/>
				<g>
					<path class="st0" d="M477.11,360.27c1.26,5.28,6.55,8.55,11.84,7.29c5.28-1.26,8.54-6.56,7.29-11.84
						c-1.26-5.29-6.56-8.55-11.84-7.3C479.11,349.68,475.85,354.98,477.11,360.27z"/>
				</g>
			</g>
		</g>
		<g>
			<path class="st6" d="M477.11,360.27c1.26,5.28,6.55,8.55,11.84,7.29c5.28-1.26,8.54-6.56,7.29-11.84
				c-1.26-5.29-6.56-8.55-11.84-7.3C479.11,349.68,475.85,354.98,477.11,360.27z"/>
			<path class="st6" d="M437.75,369.63c1.26,5.28,6.55,8.55,11.84,7.29c5.28-1.26,8.54-6.56,7.29-11.84
				c-1.26-5.29-6.56-8.55-11.84-7.3C439.75,359.05,436.49,364.35,437.75,369.63z"/>
			<path class="st6" d="M398.38,379c1.26,5.28,6.56,8.54,11.84,7.29c5.28-1.26,8.54-6.56,7.29-11.84
				c-1.26-5.29-6.56-8.55-11.84-7.29C400.39,368.41,397.13,373.71,398.38,379z"/>
			<path class="st6" d="M359.02,388.36c1.26,5.28,6.56,8.54,11.84,7.29c5.28-1.26,8.54-6.56,7.29-11.84
				c-1.26-5.29-6.56-8.55-11.84-7.3C361.03,377.77,357.77,383.08,359.02,388.36z"/>
		</g>
		<g>
			<g>
				<defs>
					<path id="SVGID_1_" d="M510.76,304.05l-40.97-39.15l52.47-12.48L599.21,283c0,0,47.88-11.39,105.51-25.1
						c57.63-13.71,91.28,8.71,126.54,20.74c20.22,8.35,35.56,64.47-39.79,82.4c-49.38,12.47-168.87,36.7-168.87,36.7l-133.65,31.79
						L510.76,304.05z"/>
				</defs>
				<clipPath id="SVGID_00000151503746175162234050000012221603932911142793_">
					<use xlink:href="#SVGID_1_"  style="overflow:visible;"/>
				</clipPath>
				<path style="clip-path:url(#SVGID_00000151503746175162234050000012221603932911142793_);fill:#80D2E8;" d="M757.12,305.87
					l137.19-32.64c6.84-1.63,10.83-9.48,8.91-17.55l-1.52-6.39c-1.92-8.07-9.02-13.29-15.86-11.66l-137.19,32.64
					c-6.84,1.63-11.07,8.58-8.17,20.75C743.37,303.2,750.28,307.5,757.12,305.87z"/>
			</g>
			<g>
				<defs>
					<path id="SVGID_00000023999139891434085300000006002002672057236919_" d="M510.76,304.05l-40.97-39.15l52.47-12.48L599.21,283
						c0,0,47.88-11.39,105.51-25.1c57.63-13.71,91.28,8.71,126.54,20.74c20.22,8.35,35.56,64.47-39.79,82.4
						c-49.38,12.47-168.87,36.7-168.87,36.7l-133.65,31.79L510.76,304.05z"/>
				</defs>
				<clipPath id="SVGID_00000096756715758872509420000015277350390258878638_">
					<use xlink:href="#SVGID_00000023999139891434085300000006002002672057236919_"  style="overflow:visible;"/>
				</clipPath>
				
					<path style="clip-path:url(#SVGID_00000096756715758872509420000015277350390258878638_);fill:none;stroke:#23275C;stroke-width:3;stroke-miterlimit:10;" d="
					M757.12,305.87l137.19-32.64c6.84-1.63,10.83-9.48,8.91-17.55l-1.52-6.39c-1.92-8.07-9.02-13.29-15.86-11.66l-137.19,32.64
					c-6.84,1.63-11.07,8.58-8.17,20.75C743.37,303.2,750.28,307.5,757.12,305.87z"/>
			</g>
		</g>
		<path class="st11" d="M480.05,271.28c0,0,23.99-5.71,36.12-8.59c12.13-2.89,15.59,0.32,15.59,0.32l67.79,20.07l-88.76,21.12
			c0,0-30.17-22.27-33.9-26.3C473.16,273.86,480.05,271.28,480.05,271.28z"/>
		<path class="st11" d="M171.55,324.88c-2.6-2.98-3.4-6.33,2.79-7.81c6.19-1.47,23.74-5.65,33.8-8.04s14.47,1.48,14.47,1.48
			l75.74,44.55l-90.22,21.46C208.15,376.53,174.15,327.85,171.55,324.88z"/>
		<path class="st12" d="M187.88,336.3c-2.01-2.3-2.62-4.88,2.15-6.01c4.77-1.13,18.29-4.35,26.04-6.19s11.15,1.14,11.15,1.14
			l58.35,34.32l-69.5,16.53C216.07,376.08,189.88,338.59,187.88,336.3z"/>
		<g>
			<g>
				<defs>
					<path id="SVGID_00000103257504774977576270000009313505863694633117_" d="M288.63,423.37l2.92,0.14l195.04-98.35l-1.26-0.97
						l79.5-40.1l2.94,0.12c0,0,43.95-22.16,96.84-48.83c56.49-28.49,92.1-9.13,127.91-9.1c21.6,3.44,38.8,48.18-18.66,77.16
						c-73.9,37.26-156.78,86.99-156.78,86.99l-122.67,61.86l-94.39,47.59c-54.71,27.59-191.29-34.61-191.29-34.61L288.63,423.37z"/>
				</defs>
				<clipPath id="SVGID_00000141421093837764335390000008212010585510954150_">
					<use xlink:href="#SVGID_00000103257504774977576270000009313505863694633117_"  style="overflow:visible;"/>
				</clipPath>
				
					<rect x="286.04" y="366.9" transform="matrix(0.9729 -0.2314 0.2314 0.9729 -80.6813 147.5159)" style="clip-path:url(#SVGID_00000141421093837764335390000008212010585510954150_);fill:#F4D072;" width="604.98" height="101.6"/>
			</g>
		</g>
		<line class="st14" x1="675.51" y1="356.31" x2="747.33" y2="339.23"/>
		<line class="st14" x1="384.98" y1="425.43" x2="429.92" y2="414.74"/>
	</g>
	<path class="st11" d="M466.56,504.96c-17.55,4.17-33.99,8.09-45.76,10.88c-11.76,2.8,0.42-12.94,0.42-12.94l82.09-105.49
		c0,0,40.76-21.96,142.43-33.88c-14.23,11.36-152.43,127.83-152.43,127.83S484.11,500.79,466.56,504.96z"/>
	<path class="st12" d="M500.75,464.6c-10.84,2.58-21.01,5-28.28,6.73s0.26-8,0.26-8l50.74-65.2c0,0,25.19-13.57,88.03-20.94
		c-8.8,7.02-94.21,79.01-94.21,79.01S511.59,462.02,500.75,464.6z"/>
</g>
<g>
	<path class="st15" d="M1361.97,293.43c0,80.7-65.43,146.13-146.14,146.13s-146.13-65.43-146.13-146.13
		c0-80.71,65.43-146.14,146.13-146.14C1296.54,147.3,1361.97,212.72,1361.97,293.43z"/>
	<path class="st16" d="M1077.81,245.32c7.56,7.56,12.95,16.35,6.54,30.85c-14.98,33.9-10.95,29.88,6.58,57.72
		c8,12.7,7.11,29.06,5.51,43.82c6.84,9.68,14.83,18.49,23.77,26.23c7.77-27.84,26.72-40.08,40.97-48.22
		c36.7-20.97,30.53-54,5.39-69.36c-25.13-15.36-48.42-4.92-57.15-37.55c-7.08-26.48,7.94-26.06,41.27-34.06
		c13.61-3.27,26.51-12.23,25.48-34.53c-0.71-15.41,7.68-26.53,20.95-9.08c13.26,17.46,25.83-4.89,25.13-20.94
		c-0.03-0.87-0.37-1.81-0.94-2.79c-1.82-0.06-3.65-0.11-5.49-0.11C1151.98,147.3,1097.7,188.25,1077.81,245.32z"/>
	<path class="st16" d="M1328.72,360.34c25.96-32.58,30.23-63.26,32.29-83.63c-2.37-20.76-9.08-40.2-19.21-57.38
		c-0.01-0.02-0.01-0.03-0.02-0.04c-0.67-1.14-1.36-2.26-2.05-3.37c-0.01-0.01-0.01-0.02-0.02-0.03c-4.23-6.74-9-13.12-14.24-19.06
		c-0.01-0.01-0.02-0.02-0.03-0.03c-0.85-0.97-1.72-1.92-2.59-2.87c-0.03-0.03-0.07-0.07-0.1-0.1c-0.88-0.94-1.77-1.88-2.68-2.8
		c-0.01-0.01-0.02-0.02-0.03-0.03c-5.54-5.64-11.54-10.83-17.93-15.51c-0.04-0.03-0.08-0.06-0.12-0.08
		c-1.02-0.75-2.06-1.49-3.11-2.21c-0.04-0.03-0.08-0.06-0.13-0.09c-1.07-0.74-2.16-1.47-3.25-2.18l0,0
		c-3.34-2.18-6.78-4.23-10.31-6.13c-49.75,0.64-103.03,54.69-45.47,93.06c46.6,31.07,50.6,40.35,38.73,95.51
		C1266.59,408.51,1303.17,392.4,1328.72,360.34z"/>
	<path class="st17" d="M1095.26,153.38"/>
	<path class="st17" d="M1282.94,170.76c-16.6-1.16-35.53,11.65-46.6,22.43"/>
	<path class="st17" d="M1232.55,196.98c-2.33,2.62-3.79,5.53-5.24,8.74"/>
	<path class="st17" d="M1287.89,298.34c2.62,6.7,3.49,12.82,3.2,19.81c-0.29,9.61-3.79,20.1-5.24,27.67"/>
	<path class="st17" d="M1282.94,283.19c1.17,1.75,2.33,3.49,2.62,5.53"/>
	<path class="st17" d="M1134.39,210.08c17.48,0.29,34.66-10.49,34.37-29.42"/>
	<path class="st17" d="M1169.34,172.8c0-2.91,1.17-5.53,2.04-8.16"/>
	<path class="st17" d="M1178.86,314.65c3.79,7.86-2.33,17.09-6.7,23.2"/>
	<path class="st17" d="M1168.18,342.32c-1.75,2.33-3.79,4.37-6.12,6.12"/>
</g>
<g>
	<path class="st18" d="M1377.89,204.84l11.65,49.22l20.97,13.4l48.06-21.26l-11.94-48.06l-23.3-16.31
		C1423.33,181.83,1378.18,205.13,1377.89,204.84z"/>
	<polyline class="st17" points="1423.33,181.83 1435.27,233.1 1389.83,254.07 	"/>
	<line class="st17" x1="1435.27" y1="233.1" x2="1457.41" y2="246.49"/>
	<polyline class="st17" points="1394.2,196.98 1397.99,212.12 1406.72,207.76 1403.23,192.61 	"/>
	<line class="st17" x1="1410.22" y1="194.65" x2="1421.58" y2="189.11"/>
	<line class="st17" x1="1412.26" y1="197.27" x2="1421" y2="193.77"/>
	<line class="st17" x1="1391.29" y1="242.71" x2="1408.18" y2="235.72"/>
	<polygon class="st17" points="1393.33,235.43 1392.45,229.4 1387.89,231.44 1391.97,219.79 1400.32,226.01 1396.24,227.85 
		1399.15,232.8 	"/>
</g>
<g>
	<g>
		<path class="st19" d="M1095.26,123.87c0.94-0.66,1.9-1.32,2.89-1.97"/>
		<path class="st20" d="M1104.13,118.23c39.8-22.84,110.52-34.59,156.57-13c49.71,23.3,81.56,71.65-40.39,120.58
			c-117.87,47.3-197.83,79.9-148.32,120.43"/>
		<path class="st19" d="M1074.76,348.42c0.91,0.68,1.85,1.37,2.83,2.06"/>
	</g>
</g>
<path class="st21" d="M1423.42,273c0,61.36-57.32,118.68-156.51,80.78c-221.56-84.66-158.06-255.15-103.11-198.45"/>
<path class="st21" d="M1075.84,443.1c-62.91-52.04,84.37-118.64,239.96-55.81c148.78,60.08,14.41,149.02-29.86,44.16"/>
<g>
	<polygon class="st18" points="972.15,149.5 1016.82,108.33 1062.25,104.06 1095.26,153.38 1046.57,197.71 1007.88,205.81 	"/>
	<polyline class="st17" points="1016.82,108.33 1051.77,165.42 1007.88,205.81 	"/>
	<line class="st17" x1="1051.77" y1="165.42" x2="1095.26" y2="153.38"/>
	<line class="st17" x1="1043.81" y1="106" x2="1073.81" y2="158.97"/>
	<line class="st17" x1="979.43" y1="149.79" x2="992.54" y2="138.43"/>
	<path class="st17" d="M981.86,153.19c0.87-0.58,8.49-7.48,8.49-7.48"/>
	<polyline class="st22" points="1037.01,107.17 1068.56,161.15 1052.11,177.75 1061.43,176.15 1080.21,157.66 1050.02,105.81 	"/>
	<line class="st17" x1="1016.82" y1="108.33" x2="1062.25" y2="104.06"/>
</g>
<g>
	<polygon class="st23" points="1071.77,518.05 1074.82,454.66 1111.68,438.21 1170.9,449.36 1165.36,515.92 1140.6,532.81 	"/>
	<polyline class="st17" points="1074.82,454.66 1145.09,469.09 1140.6,532.81 	"/>
	<line class="st17" x1="1145.09" y1="469.09" x2="1170.9" y2="449.36"/>
	<polyline class="st24" points="1090.97,447.44 1154.87,461.18 1154.1,481.55 1160.56,476.45 1161.87,455.62 1101.28,442.81 	"/>
	<line class="st17" x1="1080.27" y1="463.99" x2="1104.93" y2="468.95"/>
	<line class="st17" x1="1080.1" y1="469.45" x2="1089.83" y2="471.45"/>
	<line class="st17" x1="1119.42" y1="520.76" x2="1135.89" y2="523.63"/>
	<line class="st17" x1="1123.94" y1="515.63" x2="1133.78" y2="517.49"/>
	<path class="st17" d="M1087.24,512.03v-10.56c4.53,0.45,8.08-2.67,8.2-7.33l-18.12-3.53c0.12,4.7,3.67,9.21,8.2,10.53v10.56
		c-3.52-0.47-6.27,0.5-6.36,2.34l14.44,2.82C1093.51,514.98,1090.77,512.93,1087.24,512.03z"/>
</g>
<g>
	
		<rect x="1226.6" y="477.57" transform="matrix(0.8628 -0.5055 0.5055 0.8628 -76.9587 703.9091)" class="st25" width="63.77" height="32.36"/>
	<path class="st26" d="M1232.72,502.3l5.67,9.69c2.5-1.46,5.7-0.62,7.16,1.87c0.01,0.02,0.02,0.04,0.03,0.06l36.85-21.59
		c-0.01-0.02-0.03-0.03-0.04-0.05c-1.46-2.49-0.62-5.7,1.87-7.17l-5.67-9.69c-2.49,1.46-5.7,0.63-7.16-1.87l-36.85,21.59
		C1236.05,497.63,1235.21,500.83,1232.72,502.3z"/>
	<path class="st16" d="M1248.46,499.61c0.93,1.58,0.4,3.62-1.19,4.55c-1.58,0.93-3.62,0.39-4.54-1.19c-0.93-1.58-0.4-3.61,1.18-4.54
		C1245.5,497.5,1247.54,498.03,1248.46,499.61z"/>
	<path class="st16" d="M1274.29,484.48c0.93,1.58,0.4,3.61-1.19,4.54c-1.58,0.93-3.62,0.39-4.54-1.19c-0.93-1.58-0.4-3.61,1.19-4.54
		C1271.33,482.37,1273.36,482.9,1274.29,484.48z"/>
	<path class="st16" d="M1264.15,490.42c1.83,3.11,0.78,7.12-2.34,8.95c-3.12,1.83-7.12,0.78-8.95-2.34
		c-1.82-3.11-0.78-7.12,2.34-8.95C1258.32,486.26,1262.33,487.3,1264.15,490.42z"/>
</g>
<g>
	
		<rect x="1330.65" y="71.12" transform="matrix(0.3966 -0.918 0.918 0.3966 719.6185 1295.9268)" class="st27" width="29.88" height="58.89"/>
	<path class="st26" d="M1325.14,86.06l-4.11,9.52c2.45,1.06,3.58,3.91,2.52,6.36c-0.01,0.02-0.02,0.03-0.02,0.05l36.2,15.64
		c0.01-0.02,0.01-0.04,0.02-0.05c1.06-2.45,3.91-3.58,6.36-2.52l4.11-9.52c-2.45-1.06-3.58-3.91-2.52-6.36l-36.2-15.64
		C1330.43,85.99,1327.59,87.12,1325.14,86.06z"/>
	<path class="st16" d="M1335.74,96.32c-0.67,1.56-2.48,2.27-4.03,1.6c-1.56-0.67-2.27-2.48-1.6-4.03c0.67-1.55,2.48-2.27,4.03-1.6
		C1335.69,92.96,1336.41,94.77,1335.74,96.32z"/>
	<path class="st16" d="M1361.11,107.28c-0.67,1.55-2.48,2.27-4.03,1.6s-2.27-2.48-1.6-4.03c0.67-1.55,2.47-2.27,4.03-1.6
		C1361.06,103.92,1361.78,105.73,1361.11,107.28z"/>
	<path class="st16" d="M1351.15,102.98c-1.32,3.06-4.88,4.47-7.94,3.15c-3.06-1.32-4.47-4.88-3.15-7.94
		c1.32-3.06,4.88-4.47,7.94-3.15C1351.07,96.37,1352.48,99.92,1351.15,102.98z"/>
</g>
<g>
	<path class="st18" d="M1439.23,410.33c-5.64,11.83-17.52,17.95-26.52,13.65c-9-4.29-11.73-17.37-6.08-29.2
		c5.64-11.83,17.52-17.95,26.52-13.65C1442.16,385.42,1444.88,398.5,1439.23,410.33z"/>
	<g>
		<g>
			<defs>
				<path id="SVGID_00000056406724471147182360000007154852035840682116_" d="M1439.23,410.33c-5.64,11.83-17.52,17.95-26.52,13.65
					c-9-4.29-11.73-17.37-6.08-29.2c5.64-11.83,17.52-17.95,26.52-13.65C1442.16,385.42,1444.88,398.5,1439.23,410.33z"/>
			</defs>
			<clipPath id="SVGID_00000154422077352882617630000014644871399902569387_">
				<use xlink:href="#SVGID_00000056406724471147182360000007154852035840682116_"  style="overflow:visible;"/>
			</clipPath>
			
				<path style="clip-path:url(#SVGID_00000154422077352882617630000014644871399902569387_);fill:none;stroke:#6C3741;stroke-linecap:round;stroke-linejoin:round;stroke-miterlimit:10;" d="
				M1433.44,385.32l16.26,7.75 M1431.71,388.94l16.26,7.75 M1429.98,392.57l16.26,7.75 M1428.25,396.19l16.26,7.75 M1426.53,399.82
				l16.26,7.76 M1424.8,403.44l16.26,7.75 M1423.07,407.07l16.26,7.75 M1421.34,410.69l16.26,7.75 M1419.61,414.32l16.26,7.75
				 M1417.88,417.95l16.26,7.75 M1416.15,421.57l16.26,7.75"/>
		</g>
	</g>
	<path class="st18" d="M1434.68,408.16c-5.64,11.83-17.52,17.94-26.52,13.65s-11.72-17.37-6.08-29.2
		c5.64-11.83,17.52-17.95,26.52-13.65C1437.6,383.25,1440.32,396.32,1434.68,408.16z"/>
	<path class="st18" d="M1410.66,416.55c-5.98-2.85-7.51-12.67-3.33-21.43c4.18-8.76,12.77-13.76,18.75-10.9
		c5.98,2.86,7.51,12.67,3.33,21.44C1425.24,414.41,1416.65,419.4,1410.66,416.55z"/>
</g>
<g>
	<path class="st18" d="M1007.44,410.91c7.52,6.54,17.66,7.21,22.64,1.49s2.92-15.67-4.61-22.21c-7.52-6.54-17.66-7.21-22.64-1.49
		C997.86,394.43,999.92,404.37,1007.44,410.91z"/>
	<g>
		<g>
			<defs>
				<path id="SVGID_00000042001891189420638030000016172911445005275827_" d="M1007.44,410.91c7.52,6.54,17.66,7.21,22.64,1.49
					s2.92-15.67-4.61-22.21c-7.52-6.54-17.66-7.21-22.64-1.49C997.86,394.43,999.92,404.37,1007.44,410.91z"/>
			</defs>
			<clipPath id="SVGID_00000049210982544193684740000012216588195217930633_">
				<use xlink:href="#SVGID_00000042001891189420638030000016172911445005275827_"  style="overflow:visible;"/>
			</clipPath>
			
				<path style="clip-path:url(#SVGID_00000049210982544193684740000012216588195217930633_);fill:none;stroke:#6C3741;stroke-linecap:round;stroke-linejoin:round;stroke-miterlimit:10;" d="
				M994.91,402.05l8.99-10.33 M997.22,404.05l8.99-10.33 M999.52,406.06l8.99-10.33 M1001.83,408.06l8.99-10.33 M1004.13,410.07
				l8.99-10.33 M1006.44,412.07l8.99-10.34 M1008.74,414.08l8.99-10.33 M1011.05,416.08l8.99-10.34 M1013.35,418.09l8.99-10.33
				 M1015.66,420.09l8.99-10.33 M1017.96,422.1l8.99-10.33"/>
		</g>
	</g>
	<path class="st18" d="M1009.97,408.02c7.52,6.54,17.66,7.21,22.63,1.48c4.98-5.72,2.92-15.67-4.61-22.21
		c-7.52-6.54-17.66-7.21-22.64-1.49C1000.38,391.53,1002.44,401.47,1009.97,408.02z"/>
	<path class="st18" d="M1029.26,406.6c3.31-3.81,1.4-11.12-4.17-15.96c-5.57-4.85-13.08-5.73-16.38-1.92
		c-3.31,3.81-1.4,11.12,4.17,15.96C1018.44,409.52,1025.95,410.4,1029.26,406.6z"/>
</g>
<g>
	<g>
		<path class="st19" d="M1311.77,83.09c-1.09-0.28-2.23-0.54-3.41-0.77"/>
		<path class="st30" d="M1301.52,81.24c-33.39-3.96-88.3,7.27-92.08,56.64"/>
		<path class="st19" d="M1209.26,141.34c-0.03,1.15-0.04,2.31-0.01,3.5"/>
	</g>
</g>
<g>
	<g>
		<path class="st19" d="M1432.36,371.45c0.48-1.05,0.91-2.14,1.29-3.25"/>
		<path class="st31" d="M1435.34,360.96c3.45-24.94-14.58-58.98-62.2-65.63"/>
		<path class="st19" d="M1369.43,294.87c-1.15-0.12-2.31-0.23-3.49-0.32"/>
	</g>
</g>
<path class="st21" d="M1245.95,476.3c-44.27-15.15-46.33-153.1,16.89-233.01c72.82-92.04,93.21-41.36,87.38-19.81"/>
<g>
	<g>
		<path class="st19" d="M1029.24,377.86c0.72-0.97,1.38-1.93,1.99-2.88"/>
		<path class="st32" d="M1034.55,368.68c10.64-25.93-21.07-42.53-38.52-67.14c-31.55-44.51,10.47-91.2,74.4-68.39"/>
		<path class="st19" d="M1073.77,234.4c1.08,0.42,2.16,0.86,3.24,1.32"/>
	</g>
</g>
<g>
	
		<rect x="965.63" y="292.31" transform="matrix(0.8628 -0.5055 0.5055 0.8628 -19.1057 546.5731)" class="st25" width="63.77" height="32.36"/>
	<path class="st26" d="M971.74,317.05l5.67,9.69c2.5-1.46,5.7-0.62,7.16,1.87c0.01,0.02,0.02,0.04,0.03,0.06l36.85-21.59
		c-0.01-0.02-0.03-0.03-0.04-0.05c-1.46-2.49-0.62-5.7,1.87-7.17l-5.67-9.69c-2.49,1.46-5.7,0.63-7.16-1.87l-36.85,21.59
		C975.07,312.38,974.23,315.59,971.74,317.05z"/>
	<path class="st16" d="M987.49,314.36c0.93,1.58,0.4,3.62-1.19,4.55c-1.58,0.93-3.62,0.39-4.54-1.19c-0.93-1.58-0.4-3.61,1.18-4.54
		C984.53,312.25,986.56,312.78,987.49,314.36z"/>
	<path class="st16" d="M1013.31,299.24c0.93,1.58,0.4,3.61-1.19,4.54c-1.58,0.93-3.62,0.39-4.54-1.19c-0.93-1.58-0.4-3.61,1.19-4.54
		C1010.35,297.12,1012.38,297.65,1013.31,299.24z"/>
	<path class="st16" d="M1003.18,305.17c1.82,3.12,0.78,7.12-2.34,8.95c-3.12,1.83-7.12,0.78-8.95-2.34
		c-1.82-3.12-0.78-7.12,2.34-8.95C997.35,301.01,1001.35,302.06,1003.18,305.17z"/>
</g>
<g>
	<path d="M356.82,103.39h-37.08v-3.73h23.39c0.04-0.61,0.07-1.24,0.07-1.9c0-0.74-0.07-1.64-0.2-2.69s-0.58-2.09-1.34-3.11
		c-0.76-1.03-2.04-1.67-3.83-1.93c-0.39-0.04-1.22-0.07-2.49-0.07c-3.28,0-6.01,0.04-8.19,0.13l-0.07-3.87
		c0.87,0,1.93-0.02,3.18-0.07c1.24-0.04,2.4-0.09,3.47-0.13s1.8-0.09,2.19-0.13l2.29-0.07c5.94,0,10.35,1.4,13.23,4.19
		c1.92,2.01,2.88,4.52,2.88,7.53l-0.07,2.1h2.55v3.75H356.82z M345.16,139.49l-23.19-8.78v-7.01l5.44,1.18
		c1.27,0.26,2.51,0.39,3.73,0.39c3.01,0,5.79-0.72,8.32-2.16l0.07-0.07c2.27-1.57,3.6-3.54,4-5.9l0.07-0.92
		c0-1.62-0.48-3.01-1.44-4.19c-0.57-0.74-1.27-1.35-2.1-1.83c-1.27-0.7-2.6-1.05-4-1.05c-0.35,0-1.33,0.09-2.95,0.26l2.36,1.9
		c1.18,1.09,1.77,2.27,1.77,3.54c0,1.66-0.45,2.94-1.34,3.83c-0.9,0.9-1.91,1.46-3.05,1.7c-1.14,0.24-2.08,0.36-2.82,0.36
		c-1.75,0-3.43-0.53-5.04-1.6c-1.62-1.07-2.42-2.41-2.42-4.03c0-2.23,0.67-4.01,2-5.34c1.33-1.33,3.02-2.19,5.08-2.59
		c1.83-0.35,3.8-0.52,5.9-0.52h0.79c6.51,0,11.75,1.77,15.72,5.31c1.7,1.7,2.55,3.5,2.55,5.37c0,4.37-2.97,7.19-8.91,8.45
		l-3.87,0.79l13.56,6.29L345.16,139.49z"/>
	<path d="M379.82,103.39h-24.37v-3.73h24.37V103.39z M383.03,119.64c-0.44-1.05-1.22-2.05-2.36-3.01c-1.97-1.62-4.28-2.22-6.94-1.8
		s-4.63,1.76-5.9,4.03l-2.16,4.19c0.17,1.75,0.83,3.24,1.97,4.49s2.77,1.43,4.91,0.56c-2.36-2.4-3-4.61-1.93-6.62s3.2-2.64,6.39-1.9
		c1.75,0.79,2.66,2.34,2.75,4.65c-0.04,2.32-1.04,4.05-2.98,5.21s-4.25,1.7-6.91,1.64c-2.66-0.07-5.07-0.75-7.21-2.06
		c-2.88-2.1-4.52-5.7-4.91-10.81c0.66-1,1.21-1.87,1.67-2.59s0.93-1.44,1.41-2.16s1.03-1.58,1.64-2.59
		c3.19-2.97,6.66-3.81,10.42-2.52s7.14,3.9,10.16,7.83v3.46H383.03z"/>
	<path d="M399.93,134.05c-2.18,0-4.59-0.24-7.21-0.72c-3.89-0.61-7.34-1.38-10.35-2.29v-27.65h-3.87v-3.73h29.22v-1.97
		c0-0.7-0.06-1.57-0.16-2.62c-0.11-1.05-0.55-2.09-1.31-3.11c-0.76-1.03-2.04-1.69-3.83-2c-0.48-0.04-1.11-0.07-1.9-0.07l-2.36,0.13
		V86.1l1.18-0.13c0.79-0.09,1.92-0.13,3.41-0.13c5.98,0,10.42,1.4,13.3,4.19c1.92,1.97,2.88,4.46,2.88,7.47l-0.07,2.16h1.51v3.73
		h-27.25v5.04c-0.52,1.05-0.92,2.58-1.18,4.59c-0.04,0.39-0.07,0.81-0.07,1.25c0,1.62,0.41,3.23,1.25,4.85v9.83l2.1,0.2
		c5.42-0.22,9.22-1.97,11.4-5.24c1.75-2.58,2.62-5.11,2.62-7.6c0-0.44-0.04-0.79-0.13-1.05c-0.22-0.83-0.58-1.46-1.08-1.9
		s-1.03-0.73-1.57-0.88c-0.55-0.15-1.02-0.25-1.41-0.29h-0.59l0.59,0.59c0.52,0.57,0.79,1.33,0.79,2.29c0,3.14-1.79,4.72-5.37,4.72
		c-2.05,0-3.54-0.81-4.46-2.42c-0.52-1.05-0.79-2.34-0.79-3.87c0-0.7,0.31-1.57,0.92-2.62c0.83-1.62,2.38-2.71,4.65-3.28
		c1.4-0.35,3.01-0.52,4.85-0.52c4.15,0,7.45,1.51,9.89,4.52c1.75,2.27,2.62,4.81,2.62,7.6l-0.07,1.57c-0.61,3.84-2.58,7.05-5.9,9.63
		C408.86,132.83,404.78,134.05,399.93,134.05z"/>
	<path d="M433.6,133.2h-10.74v-29.81h-3.87v-3.73h18.48v3.73h-3.87L433.6,133.2L433.6,133.2z"/>
	<path d="M471.01,132.94H460c-0.87-2.36-2.36-4-4.46-4.91c-2.1-0.92-4.26-1.4-6.49-1.44h-1.24c-1.57,0-2.84,0.07-3.8,0.2l-5.7-11.2
		l21.16-12.19h-23.32v-3.73h38.72v3.73H471L471.01,132.94L471.01,132.94z M451.36,136.87c-1.05,0-1.94-0.36-2.69-1.08
		c-0.74-0.72-1.11-1.61-1.11-2.65c0-1.05,0.37-1.93,1.11-2.65s1.64-1.08,2.69-1.08c1,0,1.88,0.36,2.62,1.08s1.11,1.61,1.11,2.65
		c0,1.05-0.37,1.93-1.11,2.65S452.36,136.87,451.36,136.87z M460.27,126v-10.61l-11.07,7.14l3.28,0.52c2.14,0.39,4.1,1.05,5.9,1.97
		L460.27,126z"/>
	<path d="M524.8,132.94h-10.74v-6.68c0-0.17-0.02-0.33-0.07-0.46v-2.56c-0.48-2.75-1.49-4.8-3.01-6.16
		c-2.05-1.53-4.3-2.29-6.75-2.29c-3.63,0-6.16,1.42-7.6,4.26l-1.97,4.85l0.07,0.33c0.13,1.05,0.57,2.17,1.31,3.37
		c0.74,1.2,1.92,1.89,3.54,2.06l3.41,0.2c-0.79-0.79-1.59-1.61-2.42-2.46c-0.83-0.85-1.24-1.93-1.24-3.24
		c0-1.27,0.44-2.27,1.31-3.01c1.27-1,2.73-1.51,4.39-1.51c0.96,0,1.86,0.2,2.69,0.59c1.97,0.92,3.01,2.53,3.14,4.85
		c0,1.4-0.26,2.56-0.79,3.47c-0.92,1.53-2.23,2.69-3.93,3.47c-0.61,0.26-0.95,0.39-1.02,0.39s-0.55,0.08-1.44,0.23
		c-0.9,0.15-2.13,0.23-3.7,0.23c-3.23,0-6.07-0.85-8.52-2.56c-3.32-2.36-5.24-6.27-5.77-11.73l4.78-8.32
		c0.35-0.31,1.14-0.76,2.36-1.38c1.53-0.79,3.38-1.18,5.57-1.18c1.66,0,3.61,0.45,5.86,1.34c2.25,0.9,4.77,2.72,7.57,5.47l2.23,2.29
		v-13.43h-30.6v-3.73h45.21v3.73h-3.87V132.94z"/>
	<path d="M527.29,138.84h-1.24l-0.07-2.1c2.1-0.26,3.49-0.92,4.19-1.97c0.83-1.05,1.24-2.31,1.24-3.8c0-0.35-0.03-0.77-0.1-1.28
		c-0.07-0.5-0.15-1.12-0.26-1.87c-0.11-0.74-0.23-1.62-0.36-2.62c-0.74-7.6-1.11-12.1-1.11-13.5c0-0.79,0.26-1.67,0.79-2.65
		c0.52-0.98,1.79-2.06,3.8-3.24l4.26-2.42h-11.07v-3.73h16.12v4c-0.87,0.17-1.52,0.37-1.93,0.59c-0.42,0.22-0.88,0.57-1.41,1.05
		c-1.18,1.22-1.77,2.97-1.77,5.24c0,3.1,0.31,6.97,0.92,11.6c0.44,3.45,0.71,5.92,0.82,7.4c0.11,1.49,0.16,2.27,0.16,2.36
		c0,2.45-1.29,4.2-3.87,5.27s-5.59,1.61-9.04,1.61L527.29,138.84z"/>
	<path d="M555.79,133.2h-10.74v-29.81h-3.87v-3.73h18.48v3.73h-3.87V133.2z"/>
	<path d="M610.5,132.68h-10.74v-16.84c-0.52-1.09-1.24-2.41-2.16-3.96c-0.92-1.55-1.78-2.7-2.59-3.44
		c-0.81-0.74-1.76-1.11-2.85-1.11c-0.26,0-0.83,0.08-1.7,0.23s-1.66,0.88-2.36,2.19l-3.34,6.55l1.05-0.33
		c0.31-0.04,0.92-0.22,1.83-0.52c0.7-0.17,1.38-0.26,2.03-0.26c1.44,0,2.84,0.46,4.19,1.38c1.66,1.18,2.49,2.71,2.49,4.59
		l-0.13,1.18c-0.57,3.41-2.18,5.66-4.85,6.75c-1.27,0.52-2.55,0.79-3.87,0.79c-5.11,0-8.1-2.66-8.98-7.99l-0.46-3.14l-1.83,2.62
		c-1.97,2.4-4.41,3.6-7.34,3.6c-2.01,0-3.88-0.65-5.6-1.97c-1.73-1.31-2.65-3.41-2.78-6.29c0.35-3.89,2.05-6.42,5.11-7.6
		c1.05-0.39,2.1-0.59,3.14-0.59c2.01,0,4.04,0.74,6.09,2.23c0.17-0.83,0.26-1.59,0.26-2.29c0-3.36-1.83-5.04-5.5-5.04h-11.27v-3.73
		h15.33c1.57,0.35,2.72,1.32,3.44,2.92c0.72,1.59,1.23,3.22,1.54,4.88l0.13,0.52c1.75-5.28,4.37-7.93,7.86-7.93
		c0.79,0,1.66,0.11,2.62,0.33c2.05,0.13,3.85,0.98,5.4,2.56c1.55,1.57,3.24,4.46,5.08,8.65V99.66h14.61v3.73h-3.87v29.29H610.5z"/>
	<path d="M654.39,132.94h-10.74v-6.68c0-0.17-0.02-0.33-0.07-0.46v-2.56c-0.48-2.75-1.49-4.8-3.01-6.16
		c-2.05-1.53-4.3-2.29-6.75-2.29c-3.63,0-6.16,1.42-7.6,4.26l-1.97,4.85l0.07,0.33c0.13,1.05,0.57,2.17,1.31,3.37
		c0.74,1.2,1.92,1.89,3.54,2.06l3.41,0.2c-0.79-0.79-1.59-1.61-2.42-2.46c-0.83-0.85-1.24-1.93-1.24-3.24
		c0-1.27,0.44-2.27,1.31-3.01c1.27-1,2.73-1.51,4.39-1.51c0.96,0,1.86,0.2,2.69,0.59c1.97,0.92,3.01,2.53,3.14,4.85
		c0,1.4-0.26,2.56-0.79,3.47c-0.92,1.53-2.23,2.69-3.93,3.47c-0.61,0.26-0.95,0.39-1.02,0.39s-0.55,0.08-1.44,0.23
		c-0.9,0.15-2.13,0.23-3.7,0.23c-3.23,0-6.07-0.85-8.52-2.56c-3.32-2.36-5.24-6.27-5.77-11.73l4.78-8.32
		c0.35-0.31,1.14-0.76,2.36-1.38c1.53-0.79,3.38-1.18,5.57-1.18c1.66,0,3.61,0.45,5.86,1.34c2.25,0.9,4.77,2.72,7.57,5.47l2.23,2.29
		v-13.43h-30.6v-3.73h45.21v3.73h-3.87L654.39,132.94L654.39,132.94z"/>
	<path d="M671.56,133.2h-10.74v-29.81h-3.87v-3.73h18.48v3.73h-3.87V133.2z"/>
	<path d="M692.2,135.04c-2.75,0-5.35-0.48-7.8-1.44c-5.37-2.14-8.06-6.18-8.06-12.12c0-1,0.09-2.05,0.26-3.14l2.49-5.96
		c1.4-2.97,3.73-4.5,7.01-4.59l3.6,0.07c2.97,0.22,5.2,1.64,6.68,4.26c0.44,0.83,0.92,1.66,1.44,2.49l1.7-3.28
		c0.74-1.27,1.79-1.9,3.14-1.9c0.35,0,0.7,0.04,1.05,0.13c0.52,0.13,1.27,0.71,2.23,1.74c0.96,1.03,1.94,2.68,2.95,4.95v-12.84
		H674.1v-3.73h49.4v3.73h-3.87v29.55H708.9l0.07-10.74c-0.26-0.79-0.68-1.51-1.24-2.16c-0.57-0.66-1.22-0.98-1.97-0.98
		c-1.22,0-2.12,0.57-2.69,1.7l-0.07,0.07l-0.2,0.72l-7.34-2.36c0.35-0.83,0.52-1.57,0.52-2.23c0-0.61-0.15-1.16-0.46-1.64
		c-0.61-0.96-1.59-1.51-2.95-1.64l-0.2-0.07l-0.2,0.07c-1.31,0.35-2.27,1.11-2.88,2.29l-3.21,6.55c-0.74,1.18-1.11,2.56-1.11,4.13
		c0,0.92,0.13,1.75,0.39,2.49c0.44,1.09,1.11,1.77,2.03,2.03l2.56,0.92l-0.85-2.56c-0.13-0.48-0.2-0.96-0.2-1.44
		c0-0.7,0.13-1.4,0.39-2.1c0.96-2.14,2.58-3.21,4.85-3.21c2.23,0,3.95,0.87,5.18,2.62c0.35,0.57,0.52,1.33,0.52,2.29
		c0,0.66-0.07,1.27-0.2,1.83c-0.39,1.75-1.28,3.1-2.65,4.06C695.64,134.56,694.03,135.04,692.2,135.04z"/>
	<path d="M410.84,211.49h-10.81c0-0.35-0.02-0.59-0.07-0.72c-0.92-2.27-2.55-3.47-4.91-3.6h-0.92c-2.1,0-4.43,0.26-7.01,0.79
		c-3.67,0.79-6.84,1.18-9.5,1.18c-8.21,0-12.36-3.38-12.45-10.15v-5.04l12.84-0.39v1.05c0,3.28,0.85,5.57,2.56,6.88
		c1.35,0.92,2.88,1.38,4.59,1.38c1.66,0,3.67-0.28,6.03-0.85c1.79-0.35,2.95-0.52,3.47-0.52c1.18,0,2.31,0.31,3.41,0.92l1.97,1.18
		v-14.15l0.07-0.79c0-2.66-1.03-4.56-3.08-5.7c-1.14-0.66-2.27-0.98-3.41-0.98c-0.65,0-1.31,0.11-1.97,0.33
		c-1.62,0.7-2.42,1.81-2.42,3.34c0,0.74,0.07,1.24,0.2,1.51c0.52-0.17,1.05-0.26,1.57-0.26c2.14,0,3.69,0.98,4.65,2.95
		c0.31,0.66,0.46,1.31,0.46,1.97c0,1.97-0.85,3.45-2.56,4.46c-1.18,0.57-2.56,0.85-4.13,0.85c-1.09,0-2.1-0.22-3.01-0.66
		c-2.18-1.31-3.28-3.89-3.28-7.73c0-2.1,0.59-4.06,1.77-5.9c2.31-3.1,6.9-4.65,13.76-4.65c0.52,0,1.36,0.02,2.52,0.07
		c1.16,0.04,2.5,0.44,4.03,1.18c2.27,1.22,3.89,2.95,4.85,5.18c0.57,1.7,0.85,6.79,0.85,15.27c0,3.23-0.02,6.12-0.07,8.65
		L410.84,211.49L410.84,211.49z"/>
	<path d="M449.69,211.56h-10.74c-1.09-1.62-3.39-2.95-6.88-4c-1.83-0.57-3.8-0.85-5.9-0.85c-1.83,0-3.76,0.22-5.77,0.66l-4.46-9.04
		l9.43-7.08l-0.33-0.92c-0.66-1.4-1.97-2.23-3.93-2.49c-1.01-0.13-1.97-0.2-2.88-0.2c-0.92,0-1.79,0.07-2.62,0.2l0.2-5.83h-2.42
		v-3.73h40.16v3.73h-3.87L449.69,211.56L449.69,211.56z M438.94,207.17v-25.16H422.1l6.03,2.49c2.27,0.96,4.39,2.01,6.35,3.14
		l0.85,9.5l-6.49,5.9l2.49,0.52c2.36,0.44,4.19,1.18,5.5,2.23L438.94,207.17z M429.12,220.86c-1.35,0-2.51-0.48-3.47-1.44
		s-1.44-2.12-1.44-3.47s0.48-2.52,1.44-3.51c0.96-0.98,2.12-1.47,3.47-1.47c1.4,0,2.58,0.49,3.54,1.47
		c0.96,0.98,1.44,2.15,1.44,3.51c0,1.35-0.48,2.51-1.44,3.47C431.69,220.38,430.51,220.86,429.12,220.86z"/>
	<path d="M466.85,211.82h-10.74v-29.81h-3.87v-3.73h18.48v3.73h-3.87L466.85,211.82L466.85,211.82z"/>
	<path d="M504.26,211.56h-11.01c-0.87-2.36-2.36-4-4.46-4.91c-2.1-0.92-4.26-1.4-6.49-1.44h-1.24c-1.57,0-2.84,0.07-3.8,0.2
		l-5.7-11.2l21.16-12.19H469.4v-3.73h38.72v3.73h-3.87L504.26,211.56L504.26,211.56z M484.61,215.49c-1.05,0-1.94-0.36-2.69-1.08
		c-0.74-0.72-1.11-1.61-1.11-2.65c0-1.05,0.37-1.93,1.11-2.65s1.64-1.08,2.69-1.08c1,0,1.88,0.36,2.62,1.08s1.11,1.61,1.11,2.65
		c0,1.05-0.37,1.93-1.11,2.65S485.61,215.49,484.61,215.49z M493.52,204.61V194l-11.07,7.14l3.28,0.52c2.14,0.39,4.1,1.05,5.9,1.97
		L493.52,204.61z"/>
	<path d="M560.74,211.56H550v-11.92l-16.51,7.99l-9.37-4.78l4.06-9.37l-9.24-4.98l2.23-10.48h0.33c1.44-0.35,3.73-0.65,6.88-0.92
		l1.97-0.07c2.53,0,5.38,0.37,8.55,1.11s6.1,2.58,8.81,5.5l2.29,2.62v-7.99h14.61V182h-3.87L560.74,211.56L560.74,211.56z
		 M535.97,201.54l14.02-7.6v-2.49l-0.2-0.33c-2.67-4.46-6.68-6.88-12.06-7.27l-2.88-0.07l4.91,5.77L535.97,201.54z"/>
	<path d="M577.9,211.82h-10.74v-29.81h-3.87v-3.73h18.48v3.73h-3.87V211.82z"/>
	<path d="M598.87,224.47c-3.54,0-7.01-1.44-10.42-4.32c-3.8-3.67-5.7-9.96-5.7-18.87c0-5.81,0.72-10.13,2.16-12.97
		c0.74-1.4,1.94-2.73,3.6-4l3.08-2.29h-11.14v-3.73h23.59v3.73c-7.77,1.01-11.66,9.19-11.66,24.57c0,6.59,0.83,11.12,2.49,13.56
		c1.14,1.22,2.4,1.83,3.8,1.83c1.44,0,2.53-0.61,3.28-1.83l-2.62-0.85c-0.52-0.18-0.97-0.56-1.34-1.15
		c-0.37-0.59-0.56-1.32-0.56-2.19c0-0.48,0.14-1.07,0.43-1.77c0.28-0.7,0.99-1.33,2.13-1.9c1.14-0.57,2.16-0.85,3.08-0.85
		c0.96,0,1.83,0.3,2.62,0.92c1.22,1.14,1.83,2.66,1.83,4.59c0,0.83-0.11,1.75-0.33,2.75c-0.61,2.01-2.25,3.45-4.91,4.32
		C601.14,224.31,600,224.47,598.87,224.47z"/>
	<path d="M638.31,211.76h-10.74v-9.5l-0.33-0.33c-1.57-1.57-3.19-2.36-4.85-2.36l-1.7,0.2l-0.13,2.16
		c-0.13,0.66-0.63,1.97-1.51,3.93c-0.92,1.75-3.04,3.01-6.35,3.8c-1.66,0.39-3.3,0.59-4.91,0.59c-0.57,0-1.52-0.05-2.85-0.16
		c-1.33-0.11-2.65-0.58-3.96-1.41v-4.59c0.74,0.13,1.42,0.2,2.03,0.2c1.53,0,2.82-0.39,3.87-1.18c0.87-0.7,1.5-1.5,1.87-2.39
		c0.37-0.9,0.59-1.71,0.66-2.46c0.07-0.74,0.1-2.4,0.1-4.98c0-2.62-0.02-4.02-0.07-4.19c-0.18-1.48-0.86-2.64-2.06-3.47
		s-2.78-1.24-4.75-1.24c-0.7,0-1.33,0.04-1.9,0.13v-2.49h-2.23v-3.73h43.77v3.73h-3.93v29.74H638.31z M627.57,197.15v-15.13H610.4
		l7.47,2.49c1.14,0.48,1.87,1.43,2.19,2.85c0.33,1.42,0.49,3.05,0.49,4.88v1.7l1.64-0.07c1.27,0,2.51,0.46,3.73,1.38L627.57,197.15z
		"/>
	<path d="M626.71,174.94l-3.14-7.08c4.81-2.27,9.28-5.13,13.43-8.58l3.01,6.94C636.04,169.59,631.61,172.49,626.71,174.94z"/>
	<path d="M658.95,213.66c-2.75,0-5.35-0.48-7.8-1.44c-5.37-2.14-8.06-6.18-8.06-12.12c0-1,0.09-2.05,0.26-3.14l2.49-5.96
		c1.4-2.97,3.73-4.5,7.01-4.59l3.6,0.07c2.97,0.22,5.2,1.64,6.68,4.26c0.44,0.83,0.92,1.66,1.44,2.49l1.7-3.28
		c0.74-1.27,1.79-1.9,3.14-1.9c0.35,0,0.7,0.04,1.05,0.13c0.52,0.13,1.27,0.71,2.23,1.74c0.96,1.03,1.94,2.68,2.95,4.95v-12.84
		h-34.79v-3.73h49.4v3.73h-3.87v29.55h-10.74l0.07-10.74c-0.26-0.79-0.68-1.51-1.24-2.16c-0.57-0.66-1.22-0.98-1.97-0.98
		c-1.22,0-2.12,0.57-2.69,1.7l-0.07,0.07l-0.2,0.72l-7.34-2.36c0.35-0.83,0.52-1.57,0.52-2.23c0-0.61-0.15-1.16-0.46-1.64
		c-0.61-0.96-1.59-1.51-2.95-1.64l-0.2-0.07l-0.2,0.07c-1.31,0.35-2.27,1.11-2.88,2.29l-3.21,6.55c-0.74,1.18-1.11,2.56-1.11,4.13
		c0,0.92,0.13,1.75,0.39,2.49c0.44,1.09,1.11,1.77,2.03,2.03l2.56,0.92l-0.85-2.56c-0.13-0.48-0.2-0.96-0.2-1.44
		c0-0.7,0.13-1.4,0.39-2.1c0.96-2.14,2.58-3.21,4.85-3.21c2.23,0,3.95,0.87,5.18,2.62c0.35,0.57,0.52,1.33,0.52,2.29
		c0,0.66-0.07,1.27-0.2,1.83c-0.39,1.75-1.28,3.1-2.65,4.06C662.39,213.17,660.78,213.66,658.95,213.66z"/>
</g>
</svg>
