<?xml version="1.0" encoding="utf-8"?>
<!-- Generator: Adobe Illustrator 28.4.1, SVG Export Plug-In . SVG Version: 6.00 Build 0)  -->
<svg version="1.1" id="Layer_1" xmlns="http://www.w3.org/2000/svg" xmlns:xlink="http://www.w3.org/1999/xlink" x="0px" y="0px"
	 viewBox="0 0 1536 608" style="enable-background:new 0 0 1536 608;" xml:space="preserve">
<style type="text/css">
	.st0{fill:#FFFFFF;}
	.st1{fill:#A4CC7E;}
	.st2{fill:#99C070;}
	.st3{fill:#EC2227;}
	.st4{fill:#5C5C5C;}
	.st5{fill:#D6EEF4;}
	.st6{fill:#EAE7EE;}
	.st7{fill:#D3D3D3;}
	.st8{fill:#214082;}
	.st9{fill:#ACDEE3;}
	.st10{fill:#A12B2A;}
	.st11{fill:#8D5E29;}
	.st12{fill:#AB733C;}
	.st13{fill:#D84848;}
	.st14{fill:#F15A5B;}
	.st15{fill:#8C8C8C;}
	.st16{fill:#C2C1C1;}
	.st17{fill:#FECF0A;}
	.st18{fill:#E05E4F;}
	.st19{fill:#6DB5E4;}
	.st20{fill:#B5B0B2;}
	.st21{fill:#288672;}
	.st22{fill:#68C07D;}
	.st23{fill:#F15D57;}
	.st24{fill:#577ABD;}
	.st25{fill:#FAA328;}
	.st26{fill:#FEE335;}
	.st27{fill:#85B657;}
	.st28{fill:#62873B;}
	.st29{fill:#77A842;}
	.st30{fill:#253245;}
	.st31{fill:#E69B7A;}
	.st32{fill:#D9886C;}
	.st33{fill:#F8A88C;}
	.st34{fill:#2C3E54;}
	.st35{fill:#40784B;}
	.st36{fill:#335F46;}
	.st37{fill:#264A3E;}
	.st38{fill:#57A359;}
	.st39{fill:#458F51;}
	.st40{fill:#DFE3E6;}
	.st41{fill:#777677;}
	.st42{fill:#0A7993;}
</style>
<rect class="st0" width="1536" height="676.6"/>
<g>
	<path class="st1" d="M305.5,477.4c-7.5-1.5-14.7-0.8-21.1,1.6c-3.8-25.2-25.6-44.5-51.9-44.5c-7.7,0-14.9,1.7-21.5,4.6
		c-0.9-16.7-14.2-30-30.5-30c-3.7,0-7.2,0.7-10.5,1.9c-8.3-13.5-23.3-22.6-40.3-22.6c-15.1,0-28.5,7-37.1,18
		c-1.9-0.3-3.8-0.5-5.8-0.5c-17.3,0-31.4,13.7-31.4,30.6c0,3.7,0.7,7.2,1.9,10.5c-0.2,0.1-0.2,0.1-0.3,0.3c0.1-0.8-8.9-4.9-9.9-5.4
		c-5.2-2.2-10.8-3.1-16.3-2.4C5,442.9-7.1,472.1-0.2,494.8c3.8,12.6,14.7,32.2,28,36.8c1,0.3,2.9-0.1,4,0c9.4,0.6,19.1,0,28.5,0
		c35.9,0,71.7,0,107.6,0c38.1,0,76.2,0,114.3,0c16.2,0,32.4,0,48.6,0c0,0,0,0,0,0h1c0,0,0,0,0,0c2.4-4.8,3.8-10.2,3.9-15.8
		c0-0.2,0-0.3,0-0.5V515C335.8,496.9,323.2,480.9,305.5,477.4z"/>
	<path class="st2" d="M335.8,515.1v0.3c0,0.1,0,0.2,0,0.3c0,5.7-1.3,11-3.6,15.8h-1.4c1-3.4,1.5-6.9,1.5-10.6
		c0-21.1-17.1-38.1-38.1-38.1c-4.7,0-9.2,0.8-13.3,2.4c-3.8-25.2-25.6-44.5-51.8-44.5c-7.7,0-14.9,1.7-21.5,4.6
		c-0.9-16.7-14.2-30-30.5-30c-3.7,0-7.2,0.7-10.5,1.9c-8.3-13.6-23.3-22.6-40.3-22.6c-15.1,0-28.5,7-37.1,18
		c-1.9-0.3-3.8-0.5-5.8-0.5c-10.2,0-19.2,4.7-24.9,12c5-10.4,15.8-17.6,28.4-17.6c2,0,3.9,0.2,5.8,0.5c8.7-11,22.1-18,37.1-18
		c17.1,0,32,9,40.3,22.6c3.3-1.3,6.8-1.9,10.5-1.9c16.3,0,29.7,13.3,30.5,30c6.6-3,13.8-4.6,21.5-4.6c26.3,0,48,19.3,51.9,44.5
		c4.1-1.5,8.6-2.4,13.3-2.4C318.6,477.3,335.6,494.2,335.8,515.1z"/>
</g>
<g>
	<g id="sub-title_00000150087708192033229580000013988895352709105027_">
		<g>
			<g>
				<g>
					<path class="st3" d="M105.6,60.7c-0.7,0.5-1,1.2-1,2.1c0,0.7,0.2,1.3,0.7,1.7c0.4,0.4,0.8,0.6,1.4,0.7c0.6,0.1,1.2,0,1.7-0.5
						c0.2-0.2,0.3-0.4,0.4-0.6c0.1-0.2,0-0.5-0.1-0.6c-0.1-0.1-0.2-0.1-0.4-0.2s-0.3,0-0.4,0.1c-0.2,0.2-0.4,0.3-0.4,0.5
						c-0.1,0.2,0,0.3,0.1,0.5c0.1,0.1,0.2,0.1,0.5,0.1l0,0c-0.3,0.3-0.8,0.4-1.2,0.3c-0.4-0.1-0.7-0.2-0.9-0.5
						c-0.4-0.4-0.6-1-0.6-1.7c0.1-0.8,0.4-1.5,1-2L105.6,60.7z"/>
				</g>
				<g>
					<path class="st3" d="M111.5,56.7c-2.2,1.2-4.2,2.6-6.1,4.2c0.5-0.1,0.8-0.1,0.9-0.2c0.3,0,0.7-0.1,1.1-0.3
						c0.5-0.3,0.8-0.5,0.9-0.5c0.3-0.1,0.7,0,1,0.4c-0.2,0.8-0.3,1.3-0.4,1.4c-0.1,0.1-0.3,0.1-0.5,0.1c-0.2,0-0.3-0.1-0.4-0.2
						l-0.2,0.5c0.7,0.2,1.1,0.2,1.3,0.1c0.1,0,0.2-0.1,0.4-0.2c0.2-0.2,0.3-0.4,0.4-0.8c0-0.3,0.1-0.6,0.2-0.9
						c0.1-0.3,0.2-0.6,0.4-0.7c0.1-0.1,0.3-0.1,0.6-0.1c0.2,0,0.4,0,0.5,0.1l1,1.8c0.3,0,0.5,0.1,0.8,0.2l-2.2-4
						c0.4-0.2,0.7-0.4,1.1-0.6L111.5,56.7z M110.7,59c-0.3,0-0.6,0-0.8,0.1c-0.1,0-0.2,0.2-0.3,0.3l-0.3,0.4l-0.1-0.2
						c-0.2-0.2-0.6-0.3-1.2-0.3c0.8-0.6,1.7-1.1,2.6-1.7l0.8,1.4C111,59,110.8,59,110.7,59z"/>
				</g>
				<g>
					<path class="st3" d="M117.1,54.3c-2,0.7-4,1.5-5.9,2.6l0.8,0.1c1.3-0.7,2.7-1.3,4-1.8l0.1,0.3c-1.2,0.8-2.2,1.7-3,2.8
						c0.4,0.1,0.7,0.2,1.1,0.4c0.6-0.2,1.2-0.3,1.7-0.3c0.4,0,0.8,0.1,1.2,0.3c0.4,0.2,0.8,0.4,1.2,0.7l-1.5-4.4
						c0.4-0.1,0.8-0.3,1.2-0.4L117.1,54.3z M114.5,57.9c0.6-0.8,1.3-1.3,2-1.8l0.8,2.2C116.6,57.9,115.6,57.7,114.5,57.9z"/>
				</g>
				<g>
					<path class="st3" d="M119.7,53.5l-0.6,0.1c-0.2-0.1-0.3-0.1-0.3-0.2l-0.2-0.3l-0.3-0.1c0.2,0.7,0.5,1.3,0.8,1.8
						c-0.3-0.4-0.6-0.6-0.8-0.7c-0.3-0.1-0.8-0.1-1.3,0.1c-0.2,0.1-0.3,0.1-0.5,0.2l0.8,0.2c0.4-0.2,0.7-0.2,1.1-0.1
						c0.3,0.1,0.5,0.3,0.6,0.5l0.9,3.2l0.7,0.3l-1.2-4.6c0.4-0.1,0.8-0.2,1.2-0.3C120.2,53.7,120,53.6,119.7,53.5z"/>
				</g>
				<g>
					<path class="st3" d="M126,52.5l-0.6,0c0-0.8-0.9-1.2-2.8-0.9c-0.2,0-0.5,0.1-0.8,0.2c-0.4,0.1-0.6,0.2-0.8,0.2
						c-0.2,0-0.5,0.1-0.7,0c-0.2,0-0.4-0.1-0.4-0.2c0-0.2,0.1-0.3,0.3-0.4l-0.3,0c-0.1,0-0.2,0.1-0.3,0.3c-0.1,0.2-0.1,0.3-0.1,0.3
						c0.1,0.3,0.4,0.5,0.9,0.6c0.4,0.1,0.9,0,1.4,0l1-0.2c0.4-0.1,0.8-0.1,1-0.2c0.2,0,0.4,0,0.6,0c0.3,0,0.4,0.1,0.4,0.2
						c0,0.1-0.1,0.2-0.3,0.3c-0.2,0.1-0.4,0.1-0.6,0.1c-1.5,0.2-3,0.5-4.5,0.8l0.8,0.3c0.7-0.2,1.4-0.3,2.1-0.4
						c0.3,0.1,0.5,0.2,0.5,0.3l0,0c-0.4,0.1-0.7,0.2-1,0.5c-0.3,0.2-0.4,0.5-0.3,0.7c0,0.1,0.1,0.2,0.3,0.3s0.3,0.1,0.6,0
						c0.3-0.1,0.6-0.2,0.8-0.4s0.3-0.4,0.3-0.6c0.1,0,0.2-0.1,0.3-0.1c0.3,0,0.5,0,0.7,0.1c0.2,0.1,0.3,0.3,0.3,0.5
						c0,0.2-0.2,0.5-0.7,0.7c-0.4,0.2-0.8,0.3-1.2,0.4c-0.7,0.1-1.3,0.1-1.9,0c0.3,0.3,0.7,0.6,1,1c0.9,0,1.8,0.1,2.6,0.3
						c0.9,0.3,1.6,0.6,2.1,1.1l-0.2-0.6c-1.1-0.7-2-1.1-2.7-1.3c0.7-0.4,1.1-0.6,1.2-0.7c0.4-0.3,0.6-0.6,0.5-0.9
						c0-0.4-0.2-0.7-0.6-0.9c-0.2-0.1-0.5-0.2-1.1-0.3c-0.4-0.1-0.6-0.2-0.7-0.3c1.2-0.2,2.3-0.3,3.5-0.3
						C126.4,52.8,126.2,52.7,126,52.5z"/>
				</g>
				<g>
					<path class="st3" d="M137.8,53.7c-2.7-0.7-5.5-1.2-8.3-1.2l0.7,0.5c2.1,0.1,4.3,0.4,6.4,0.9l-0.7,2.9c-0.1-0.3-0.3-0.7-0.4-1
						c0-0.1,0.1-0.2,0.1-0.2c0.1-0.4-0.1-0.8-0.4-1.2s-0.9-0.7-1.5-0.8c-0.3,0-0.6,0-0.9,0c-0.3,0.1-0.5,0.2-0.5,0.4
						c0,0.2,0.1,0.3,0.3,0.5c0.2,0.1,0.4,0.2,0.7,0.3c0.4,0.1,0.8,0,1-0.3c0.2,0,0.3,0.2,0.4,0.4c0.1,0.2,0.1,0.4,0.1,0.5
						c-0.1,0.2-0.2,0.4-0.4,0.5s-0.6,0.1-0.9,0.1c-0.8-0.1-1.4-0.4-1.8-1c-0.3-0.3-0.6-0.8-0.9-1.6l-0.4-0.1c0.2,0.7,0.5,1.4,1,2.1
						c0.6,0.8,1.3,1.3,2.1,1.4c0.6,0.1,1.1,0,1.6-0.4c0.6,0.7,0.8,1.4,0.9,2l0.2,0.2l1.1-4.5c0.4,0.1,0.8,0.2,1.1,0.3
						C138.2,54.2,138,53.9,137.8,53.7z"/>
				</g>
				<g>
					<path class="st3" d="M140.6,54.6l-0.5-0.2c-0.1-0.1-0.1-0.3-0.2-0.4l0-0.4l-0.2-0.2c-0.2,0.7-0.4,1.4-0.4,2
						c-0.1-0.5-0.1-0.8-0.3-1c-0.2-0.3-0.6-0.5-1.1-0.7c-0.2,0-0.4-0.1-0.6-0.1c0.2,0.2,0.4,0.4,0.6,0.6c0.4,0.1,0.7,0.3,0.9,0.5
						c0.2,0.2,0.3,0.5,0.2,0.8l-1,3.2c0.1,0.2,0.3,0.4,0.4,0.6l1.5-4.5c0.4,0.1,0.8,0.3,1.2,0.4C140.9,55,140.8,54.8,140.6,54.6z"/>
				</g>
				<g>
					<path class="st3" d="M146.4,57.3c-1.9-1.1-4-2.1-6.1-2.8c0.2,0.2,0.3,0.5,0.5,0.7l0.7,0.3l-1,2.4c0.2,0.3,0.4,0.6,0.5,0.9
						c0.4-0.3,0.8-0.5,1.4-0.6s1.1-0.1,1.7,0.1c-0.3,0.3-0.6,0.6-0.7,0.9c-0.2,0.4-0.4,1-0.6,1.8l0.3,0.3c0.2-0.6,0.3-1,0.5-1.3
						c0.3-0.6,0.9-1.1,1.8-1.5c-0.2-0.4-0.5-0.7-0.7-1.1c-0.5-0.1-1-0.2-1.7-0.1c-0.5,0-1.1,0.1-1.6,0.1l0.7-1.7
						c1.6,0.7,3.1,1.5,4.6,2.4C146.7,57.8,146.6,57.6,146.4,57.3z"/>
				</g>
				<g>
					<path class="st3" d="M152.3,61.6c-0.3-0.3-0.4-0.6-0.2-0.9c-0.1-0.2-0.1-0.3-0.1-0.5c-0.3,0.5-0.8,1.1-1.3,1.9
						c0.1-0.2,0.1-0.6,0-1.2c-0.1-0.6-0.2-1-0.4-1.1c-0.3-0.2-0.6-0.3-1-0.4c-0.3,0-0.6,0-0.9,0.1c0.1-0.2,0-0.5-0.1-0.8
						c-0.2-0.3-0.4-0.6-0.7-0.8c-0.4-0.3-0.8-0.5-1.3-0.8l0.4,0.8c0.5,0.3,0.8,0.5,0.9,0.6c0.3,0.2,0.4,0.5,0.4,0.8
						c-0.3-0.1-0.6-0.2-0.9-0.1c-0.3,0-0.5,0.2-0.6,0.3c-0.1,0.1-0.1,0.3-0.1,0.5c0.1,0.2,0.2,0.3,0.4,0.5c0.2,0.1,0.4,0.2,0.6,0.2
						c0.2,0,0.4,0,0.6-0.1c0,0.4,0.2,0.7,0.5,1c0.4,0.3,0.8,0.3,1,0c0.1-0.1,0.1-0.3,0.1-0.6c0-0.1-0.1-0.4-0.3-0.7
						c0.1-0.1,0.2-0.1,0.4,0c0.2,0,0.3,0.1,0.4,0.2c0.2,0.1,0.3,0.4,0.4,0.8c0.1,0.4,0,0.7-0.1,0.8l-1.9,2.1
						c0.1,0.2,0.1,0.5,0.2,0.8l3-3.5c0.3,0.3,0.6,0.5,0.9,0.8C152.5,62.2,152.4,61.9,152.3,61.6z"/>
				</g>
				<g>
					<path class="st3" d="M154.5,60.5c-1.5-0.5-2.9-0.9-4.4-1.2c0.4,0.3,0.9,0.7,1.3,1c1.2,0.1,2.3,0.3,3.5,0.6L154.5,60.5z"/>
				</g>
			</g>
		</g>
	</g>
	<g id="title_00000116207247249625116620000010363564417869699756_">
		<g>
			<g>
				<g>
					<path class="st3" d="M95.1,120.2c-1.4-1.5-2.7-3-3.9-4.6l-0.1,0.8c0.8,1.1,1.8,2.2,2.7,3.3l-0.3,0.2c-1.2-0.7-2.4-1.4-3.8-2
						c-0.1,0.4-0.2,0.9-0.2,1.3c0.4,0.6,0.7,1.2,0.8,1.7c0.1,0.4,0.1,0.9,0.1,1.5c-0.1,0.5-0.1,1.1-0.2,1.6l4.1-3.8
						c0.3,0.3,0.6,0.6,0.8,0.9L95.1,120.2z M90.4,119.3c1,0.4,1.8,0.8,2.5,1.3l-2.1,1.9C91,121.5,90.8,120.5,90.4,119.3z"/>
				</g>
				<g>
					<path class="st3" d="M96.9,122l-0.4-0.4c0-0.2,0-0.3,0.1-0.4l0.2-0.4l-0.1-0.3c-0.6,0.7-1.1,1.3-1.5,1.9
						c0.2-0.5,0.3-0.9,0.3-1.1c0-0.4-0.2-0.8-0.6-1.2c-0.1-0.1-0.2-0.2-0.4-0.4l0.1,0.9c0.3,0.3,0.5,0.6,0.5,0.9s-0.1,0.6-0.3,0.9
						l-2.9,2.9l0.1,0.9l4-4.1c0.3,0.3,0.6,0.6,0.9,0.8L96.9,122z"/>
				</g>
				<g>
					<path class="st3" d="M97.9,126.1c0.4,0,0.7-0.2,0.9-0.4c0.2-0.3,0.3-0.6,0.2-1s-0.2-0.7-0.5-0.9c-0.3-0.2-0.6-0.3-1-0.3
						c-0.4,0-0.7,0.1-0.9,0.3c-0.2,0.2-0.3,0.6-0.2,1c0.1,0.4,0.3,0.7,0.6,1C97.2,126,97.5,126.1,97.9,126.1z M96.8,130.1
						c-0.4-2.2-0.7-3.8-1-5l-0.8,0.9c0.6,1.6,1.1,3,1.5,4.4L96.8,130.1z M97.7,125.4c-0.3,0-0.6-0.1-0.8-0.3c-0.2-0.2-0.2-0.3,0-0.6
						c0.2-0.2,0.4-0.3,0.7-0.3c0.3,0,0.6,0.1,0.8,0.3c0.2,0.2,0.2,0.4,0.1,0.6C98.2,125.3,98,125.4,97.7,125.4z"/>
				</g>
				<g>
					<path class="st3" d="M105.2,128.2c-2-1.2-3.9-2.4-5.7-3.9c0.1,0.3,0.1,0.6,0.2,0.8c1.3,1.1,2.8,2,4.2,2.9l-0.8,1.3
						c0.1-0.7-0.1-1.1-0.5-1.4c-0.1-0.1-0.3-0.1-0.6-0.1c-0.2,0-0.4,0.1-0.5,0.2c-0.1-0.6-0.4-1.1-0.8-1.4c-0.3-0.3-0.8-0.3-1.2-0.2
						c-0.4,0.1-0.7,0.3-0.9,0.6c-0.3,0.3-0.3,0.8-0.2,1.2c0.1,0.4,0.4,0.8,0.9,1.2c0.2,0.1,0.4,0.2,0.7,0.3c0.3,0,0.5,0,0.6-0.2
						c0.1-0.2,0.2-0.4,0.1-0.6c0-0.2-0.1-0.4-0.3-0.6c-0.2-0.1-0.3-0.2-0.5-0.2c-0.2,0-0.3,0.1-0.4,0.2c-0.1,0.1-0.1,0.3-0.1,0.5
						c-0.4-0.4-0.6-0.8-0.3-1.1c0.2-0.2,0.4-0.3,0.7-0.3c0.3,0,0.6,0.1,0.9,0.3c0.3,0.2,0.5,0.5,0.6,0.8s0.2,0.6,0.1,0.9l0.3,0.1
						c0.1-0.1,0.1-0.2,0.2-0.3c0.2-0.3,0.4-0.3,0.7-0.1c0.2,0.1,0.3,0.3,0.4,0.5c0.1,0.2,0.1,0.4,0,0.6l-1.6,2.6l0.3,0.8l2.9-4.8
						c0.3,0.2,0.7,0.4,1,0.6C105.4,128.8,105.3,128.5,105.2,128.2z"/>
				</g>
				<g>
					<path class="st3" d="M107.6,129.5l-0.5-0.2c-0.1-0.2-0.1-0.3-0.1-0.4l0.1-0.4l-0.1-0.3c-0.4,0.8-0.7,1.5-0.9,2.2
						c0.1-0.6,0.1-1,0-1.2c-0.1-0.4-0.4-0.7-0.9-0.9c-0.1-0.1-0.3-0.2-0.5-0.2l0.3,0.8c0.3,0.2,0.6,0.4,0.7,0.7
						c0.1,0.3,0.1,0.6,0,0.9l-1.9,3.6l0.3,0.8l2.7-5.1c0.3,0.2,0.7,0.4,1.1,0.5C107.8,130,107.7,129.8,107.6,129.5z"/>
				</g>
				<g>
					<path class="st3" d="M111,131.1c-1.2-0.5-2.4-1.1-3.6-1.7l0.3,0.8c0.6,0.3,1.2,0.6,1.8,0.8c-1.2,0.4-1.9,1-2.3,1.9
						c-0.3,0.6-0.4,1.2-0.3,1.8c0.1,0.8,0.6,1.3,1.3,1.6c0.3,0.1,0.6,0.2,0.9,0.1c0.3-0.1,0.5-0.2,0.6-0.4c0.1-0.3,0-0.5-0.2-0.7
						c-0.1-0.1-0.2-0.2-0.3-0.3c-0.2-0.1-0.4-0.1-0.6-0.1c-0.2,0-0.3,0.1-0.4,0.3c-0.1,0.2,0,0.4,0.2,0.7l-0.2,0
						c-0.4-0.2-0.6-0.5-0.8-1c-0.1-0.4-0.1-0.8,0.1-1.1c0.3-0.8,0.8-1.3,1.5-1.6c0.7-0.4,1.5-0.5,2.4-0.3L111,131.1z"/>
				</g>
				<g>
					<path class="st3" d="M116.8,133c-2-0.5-4-1.2-6-2l0.4,0.8l0.7,0.3l-1.1,2.9c0.2,0.3,0.4,0.7,0.6,1c0.4-0.4,0.9-0.6,1.5-0.9
						c0.6-0.2,1.2-0.3,1.8-0.3c-0.3,0.4-0.5,0.9-0.6,1.3c-0.1,0.5-0.2,1.2-0.2,2.3l0.4,0.3c0-0.8,0.1-1.3,0.2-1.7
						c0.2-0.8,0.8-1.5,1.6-2.2c-0.3-0.3-0.6-0.7-0.9-1c-0.5,0-1.1,0.1-1.7,0.2c-0.6,0.1-1.1,0.3-1.7,0.4l0.8-2.1
						c1.6,0.6,3.1,1,4.7,1.4L116.8,133z"/>
				</g>
				<g>
					<path class="st3" d="M123.5,134.2c-0.4-0.1-0.6-0.3-0.6-0.7c-0.1-0.1-0.2-0.3-0.3-0.4c-0.1,0.7-0.1,1.6-0.1,2.8
						c-0.1-0.3-0.3-0.6-0.6-1.1c-0.4-0.6-0.6-0.9-0.8-0.9c-0.3-0.1-0.7,0-1,0.1c-0.3,0.1-0.5,0.3-0.8,0.6c0-0.3-0.1-0.6-0.4-0.8
						s-0.5-0.4-0.8-0.5c-0.4-0.1-0.9-0.2-1.3-0.3l0.5,0.7c0.6,0.1,0.9,0.2,1,0.3c0.3,0.1,0.5,0.4,0.6,0.8c-0.3,0-0.6,0.1-0.9,0.3
						s-0.4,0.4-0.5,0.6c-0.1,0.2,0,0.4,0.1,0.6c0.1,0.2,0.3,0.3,0.5,0.4c0.2,0.1,0.4,0,0.7-0.1s0.4-0.2,0.5-0.4
						c0.2,0.4,0.5,0.7,0.9,0.8c0.6,0.1,0.9-0.1,1-0.6c0-0.2-0.1-0.4-0.2-0.7c-0.1-0.1-0.3-0.3-0.6-0.6c0-0.1,0.1-0.2,0.3-0.3
						c0.2-0.1,0.3-0.1,0.5-0.1c0.2,0,0.5,0.2,0.7,0.6s0.4,0.6,0.3,0.8l-0.5,3.4l0.7,0.6l0.7-5.6c0.4,0.1,0.8,0.1,1.2,0.1
						L123.5,134.2z"/>
				</g>
				<g>
					<path class="st3" d="M133.5,134.2c-2.3,0.2-4.6,0.3-6.8,0.2c0.2,0.2,0.4,0.4,0.6,0.6c0.9,0,1.8,0,2.6,0c0,0.1,0,0.2,0,0.5
						c0,0.3,0,0.5,0,0.7c0,1.1,0.4,1.7,1.1,1.7c0.3,0,0.6-0.2,1.1-0.5c0.4-0.3,0.7-0.6,0.7-0.8c0.3,0.2,0.4,0.4,0.4,0.6
						c0,0.4-0.1,0.8-0.6,1.1c-0.4,0.3-0.9,0.4-1.4,0.5c-0.9,0.1-1.7-0.3-2.3-1.1c-0.5-0.6-0.7-1.4-0.8-2.2l-0.4-0.2
						c0.2,1.5,0.5,2.7,1.1,3.4c0.6,0.8,1.4,1.1,2.5,1.1c0.8-0.1,1.4-0.3,1.9-0.7c0.4-0.4,0.5-0.9,0.5-1.6c0-0.3-0.2-0.7-0.4-1
						c-0.3-0.4-0.6-0.6-0.9-0.7c-0.2,0.3-0.5,0.5-0.7,0.8c-0.3,0.3-0.6,0.5-1,0.5l-0.1-2.1c1.2-0.1,2.4-0.2,3.6-0.3L133.5,134.2z"/>
				</g>
				<g>
					<path class="st3" d="M136.2,133.8l-0.5,0.1c-0.1-0.1-0.2-0.2-0.3-0.3l-0.2-0.4l-0.3-0.1c0.1,0.9,0.3,1.7,0.6,2.3
						c-0.3-0.5-0.5-0.8-0.7-0.9c-0.3-0.2-0.7-0.3-1.2-0.2c-0.2,0-0.3,0.1-0.5,0.1c0.2,0.2,0.5,0.3,0.7,0.5c0.4-0.1,0.7,0,1,0.1
						c0.3,0.2,0.5,0.4,0.5,0.7l0.6,4.1c0.2,0.1,0.5,0.3,0.8,0.5l-0.9-5.7c0.4-0.1,0.8-0.1,1.2-0.2L136.2,133.8z"/>
				</g>
				<g>
					<path class="st3" d="M143.2,132.1c-2.4,0.8-4.8,1.4-7.3,1.8c0.2,0.1,0.5,0.3,0.7,0.4c1.3-0.2,2.6-0.5,3.9-0.9l0.1,0.4
						c-1.2,0.7-2.3,1.5-3.3,2.4c0.4,0.2,0.7,0.5,1.1,0.7c1.6-0.2,2.9,0.3,3.9,1.5l0.3,0.1l-1.2-4.2l0.2-0.1c0.4-0.1,0.9-0.1,1.3,0
						c0.4,0.1,0.8,0.4,0.9,0.8l0,0.1c-0.2-0.1-0.4-0.1-0.7-0.1c-0.1,0-0.2,0.1-0.4,0.2c-0.2,0.2-0.3,0.4-0.2,0.6
						c0.1,0.2,0.2,0.3,0.4,0.4c0.2,0.1,0.4,0.1,0.7,0c0.3-0.1,0.5-0.3,0.7-0.6c0.1-0.3,0.2-0.5,0.1-0.8c-0.2-0.5-0.6-0.9-1.1-1.2
						c-0.6-0.3-1.2-0.4-1.8-0.2l-0.1,0l-0.1-0.4c1-0.3,1.9-0.6,2.9-0.9L143.2,132.1z M138.7,136.2c0.8-0.7,1.5-1.2,2.1-1.6l0.8,2.8
						C140.8,136.7,139.9,136.3,138.7,136.2z"/>
				</g>
				<g>
					<path class="st3" d="M152.2,126.8c-1.6-0.3-2.9-0.1-3.9,0.4c-0.4,0.2-0.8,0.6-1.1,1.1c-0.3,0.6-0.4,1.1-0.2,1.5
						c0.1,0.1,0.2,0.2,0.4,0.3l0.5,0.1c-0.5,0.2-1,0.5-1.5,0.7c0.3,0.1,0.5,0.2,0.8,0.3l0.9-0.4l2.1,4.5l0.9,0.2l-2.4-5
						c0.3-0.2,0.7-0.3,1-0.5c-0.3-0.1-0.6-0.1-0.8-0.2l-0.6,0.3l-0.4-0.4c-0.1-0.3,0-0.8,0.3-1.2c0.3-0.5,0.6-0.8,1-1
						c0.6-0.3,1.1-0.4,1.7-0.5c0.2,0,0.8,0,1.8,0L152.2,126.8z"/>
				</g>
				<g>
					<path class="st3" d="M153.8,126.9c-1.7,1.1-3.4,2.1-5.2,3l0.8,0.2c1.3-0.6,2.5-1.3,3.7-2.1l0.2,0.3c-0.9,1-1.8,2.1-2.6,3.4
						c0.4,0.2,0.8,0.3,1.2,0.5c0.6-0.3,1.2-0.5,1.8-0.5c0.4,0,0.9,0.1,1.5,0.2c0.5,0.2,1,0.3,1.5,0.5l-3-4.7c0.3-0.2,0.7-0.4,1-0.7
						L153.8,126.9z M152,131.3c0.6-0.9,1.1-1.6,1.7-2.3l1.5,2.4C154.3,131.1,153.2,131.1,152,131.3z"/>
				</g>
				<g>
					<path class="st3" d="M159,122.9c-1.7,1.5-3.6,3-5.5,4.2l0.9,0.1c2-1.3,3.8-2.8,5.6-4.4C159.6,122.8,159.3,122.8,159,122.9z
						 M160.1,124.4c-0.6-0.1-1-0.1-1.2,0.1l0,0c0.1,0.2,0.1,0.5,0,0.9c-0.1,0.4-0.2,0.7-0.4,0.9h0c0-0.3,0-0.5-0.1-0.6
						c-0.1-0.1-0.3-0.2-0.5-0.2s-0.4,0.1-0.6,0.2c-0.3,0.2-0.4,0.4-0.5,0.7c-0.1,0.2,0,0.5,0.1,0.7c0.2,0.3,0.5,0.4,0.9,0.4
						c0.4,0,0.7-0.2,1-0.4c0.4-0.3,0.6-0.6,0.8-0.9c0.1-0.3,0.2-0.6,0.3-1.1l0,0c0.1-0.1,0.2-0.1,0.4,0.1c0.2,0.1,0.3,0.2,0.4,0.3
						c0.2,0.3,0.3,0.7,0.2,1.1c-0.1,0.5-0.4,0.9-0.8,1.2c-0.8,0.6-1.7,0.9-2.7,0.7c-0.8-0.1-1.5-0.5-2.3-1l-0.4,0.1
						c1.2,0.8,2,1.3,2.6,1.5c1.2,0.4,2.3,0.2,3.2-0.5c0.6-0.5,1-1.2,1.1-1.8c0.1-0.7-0.1-1.2-0.5-1.7
						C161,124.7,160.7,124.5,160.1,124.4z"/>
				</g>
				<g>
					<path class="st3" d="M161,121l-0.4,0.4c-0.2,0-0.3,0-0.4-0.1l-0.4-0.2l-0.3,0c0.6,0.7,1.2,1.2,1.8,1.6
						c-0.5-0.2-0.9-0.4-1.1-0.4c-0.4,0-0.8,0.2-1.2,0.5c-0.1,0.1-0.3,0.2-0.4,0.4c0.3,0,0.6,0,0.9,0c0.3-0.3,0.6-0.4,0.9-0.5
						c0.3,0,0.6,0.1,0.9,0.3l2.8,3l0.9-0.1l-4-4.1c0.3-0.3,0.6-0.6,0.8-0.8L161,121z"/>
				</g>
				<g>
					<path class="st3" d="M165.2,116.2l-0.1,0.2c-0.2,0.3-0.5,0.3-0.8,0.1l-0.1-0.1l-0.5,0.1c0.3,0.2,0.7,0.6,1.2,0.9l1.3,0.8
						c-0.7-0.2-1.2-0.3-1.6-0.3c-0.5,0.1-1,0.3-1.5,0.9c-0.4,0.4-0.6,0.8-0.7,1.3c-0.1,0.6,0,1,0.3,1.3c0.1,0.1,0.3,0.2,0.5,0.2
						s0.4-0.1,0.6-0.2c0.1-0.1,0.2-0.3,0.3-0.7s0.2-0.6,0.2-0.6c0.2-0.2,0.3-0.2,0.4-0.1c0.1,0.1,0.1,0.4,0.1,0.9c0,0.5,0,0.8-0.1,1
						c0.4,0,0.7-0.1,1.1-0.1c0.1-1.2-0.1-1.9-0.4-2.2c-0.2-0.2-0.5-0.2-0.8-0.2c-0.3,0.1-0.5,0.3-0.8,0.6c-0.2,0.2-0.3,0.4-0.4,0.7
						c-0.2-0.6-0.1-1.1,0.4-1.7c0.3-0.4,0.8-0.6,1.4-0.6c0.6,0,1,0.1,1.3,0.3l2.2,1.8c0.4-0.1,0.7-0.1,1.1-0.2l-4.5-3.5
						c0.2-0.3,0.5-0.6,0.7-0.9L165.2,116.2z"/>
				</g>
			</g>
		</g>
	</g>
	<g id="frame_00000132777391559259020670000011713457180958207909_">
		<g>
			<path class="st3" d="M164.2,109l-1.1-0.7c3.5-6.1,5.3-12.9,5.3-20c0-22.1-17.9-40-40-40s-40,17.9-40,40c0,7,1.8,13.9,5.3,20
				l-1.1,0.7c-3.6-6.2-5.5-13.4-5.5-20.6c0-22.8,18.5-41.3,41.3-41.3s41.3,18.5,41.3,41.3C169.7,95.6,167.8,102.8,164.2,109z"/>
		</g>
		<g>
			<path class="st3" d="M165.9,110.1l-0.6-0.3c3.8-6.5,5.8-13.9,5.8-21.4c0-23.5-19.1-42.7-42.7-42.7S85.7,64.8,85.7,88.3
				c0,7.5,2,14.9,5.8,21.4l-0.6,0.3c-3.8-6.6-5.9-14.1-5.9-21.8c0-23.9,19.4-43.3,43.3-43.3s43.3,19.4,43.3,43.3
				C171.7,96,169.7,103.5,165.9,110.1z"/>
		</g>
		<g>
			<path class="st3" d="M128.4,144.7c-9.8,0-19.4-2.5-27.8-7.3c-8.2-4.7-15.1-11.3-20.1-19.4l-0.4-0.6l0.6-0.3c0,0,3.2-1.8,5-4.3
				c-1.2-0.5-2.1-1.3-2.6-2.5c-0.3-0.9-0.2-1.8,0.2-2.5c0.5-0.7,1.3-1.1,2.2-1.1c0.7,0,1.4,0.3,1.9,0.8c0.4,0.4,0.9,1.2,0.8,2.6
				c0,0.6-0.2,1.2-0.4,1.7c1.9,0,4-0.8,5.9-2.3l0.6-0.4l0.4,0.6c7.4,11.7,20,18.6,33.8,18.6c13.8,0,26.4-7,33.8-18.6l0.4-0.6
				l0.6,0.4c1.9,1.5,4,2.3,5.8,2.3c0,0,0.1,0,0.1,0c-0.2-0.6-0.4-1.2-0.4-1.7c-0.1-1.4,0.4-2.2,0.8-2.6c0.5-0.5,1.1-0.8,1.9-0.8
				c0.9,0,1.7,0.4,2.1,1.1c0.5,0.7,0.6,1.6,0.2,2.5c-0.4,1.2-1.3,2.1-2.6,2.5c1.8,2.4,4.9,4.2,5,4.3l0.6,0.3l-0.4,0.6
				c-5,8-11.9,14.7-20.1,19.4C147.8,142.2,138.2,144.7,128.4,144.7z M81.9,117.9c10.2,16,27.5,25.5,46.5,25.5s36.3-9.5,46.5-25.5
				c-1.1-0.7-3.7-2.5-5.1-4.7h0l0,0c-0.2,0-0.5,0-0.7,0c-2,0-4.1-0.8-6-2.2c-7.7,11.7-20.6,18.7-34.6,18.7s-26.8-6.9-34.5-18.6
				c-1.9,1.4-4.1,2.2-6.1,2.2c-0.2,0-0.5,0-0.7,0l0,0h0C85.6,115.4,83.1,117.2,81.9,117.9z M85.5,108c-0.4,0-0.8,0.2-1.1,0.5
				c-0.2,0.3-0.3,0.8-0.1,1.3c0.3,0.9,1,1.5,2,1.8c0.3-0.6,0.4-1.1,0.4-1.6c0.1-0.7-0.1-1.3-0.4-1.7C86.2,108.2,85.9,108,85.5,108z
				 M171.3,108c-0.4,0-0.7,0.1-0.9,0.4c-0.3,0.3-0.5,0.9-0.4,1.7c0,0.5,0.2,1.1,0.4,1.6c1-0.3,1.7-0.9,2-1.8c0.2-0.5,0.2-1-0.1-1.3
				C172.1,108.2,171.7,108,171.3,108z"/>
		</g>
	</g>
	<g id="hurricane_00000090266977255350013400000007069085289923069574_">
		<g>
			<g>
				<path class="st3" d="M116.8,97.8L116.8,97.8c0.6-0.4,0.9-1.3,0.9-1.3l0,0v0c0,0-0.1-4.2-0.1-5.4c0-1.4-2.3-2.3-2.4-2.3l-0.1-0.1
					l-0.1,0.1c-0.2,0.2-0.8,0.7-1.3,0.7c-0.6,0-0.9-0.1-1.5-0.7l-0.1-0.1H112c-1.9,0-2.8,2.3-2.8,2.4l0,0.1c0,0.4-0.2,4.4,0,5
					c0.1,0.6,0.6,1.2,0.8,1.4c-0.4,1.3-2.3,8.6,0.3,9.5v1.2h6.2v-1.3C118.8,105.9,117.3,99.7,116.8,97.8z M109.6,91.2
					c0.1-0.3,0.9-1.9,2.3-2c0.6,0.6,1.1,0.7,1.8,0.7c0.6,0,1.2-0.5,1.5-0.7c0.7,0.3,2,1,2,1.8c0,1.2,0.1,5,0.1,5.4
					c-0.1,0.2-0.3,0.7-0.6,0.9l-1.2,0V95h-4.2v2.3l-0.9,0c-0.2-0.2-0.6-0.8-0.8-1.2C109.5,95.6,109.6,92.9,109.6,91.2z M114,106
					h-1.1c-0.3,0-0.5-0.2-0.5-0.5s0.2-0.5,0.5-0.5h1.1c0.3,0,0.5,0.2,0.5,0.5C114.5,105.8,114.2,106,114,106z M116.3,106.5l-3-3.4
					l-2.8,3.5v0c-1.9-0.6-0.7-6.4,0-8.8l5.8,0.1C117,100.2,118.1,105.6,116.3,106.5z"/>
			</g>
			<g>
				<path class="st3" d="M115.5,100.2c0.7-1-0.2-1.7-0.2-1.7s-2.5,0-3.7,0s-0.8,1.6-0.8,1.6l2.3,2
					C113.2,102.1,114.8,101.2,115.5,100.2z"/>
			</g>
			<g>
				<path class="st3" d="M113.9,102.5l2.2,2.6c0,0-0.2-3.1-0.3-4.1C115.3,101.1,113.9,102.5,113.9,102.5z"/>
			</g>
			<g>
				<path class="st3" d="M110.7,101c-0.1,1-0.3,4.1-0.3,4.1l2.2-2.6C112.6,102.5,111.3,101.1,110.7,101z"/>
			</g>
			<g>
				<path class="st3" d="M115.1,94.2h0.4v-0.4c0-0.2-0.2-0.4-0.4-0.4h-3.4c-0.2,0-0.4,0.2-0.4,0.4v0.4h0.4H115.1z"/>
			</g>
			<g>
				<path class="st3" d="M110.1,108.6h-0.4v0.4c0,0.2,0.2,0.4,0.4,0.4h6.4c0.2,0,0.4-0.2,0.4-0.4v-0.4h-0.4H110.1z"/>
			</g>
		</g>
	</g>
	<g id="borsha_00000155143469848901344160000006119675773938324378_">
		<g>
			<path class="st3" d="M101.9,88.9h1.9c0,0,0.6-0.3,0-1s-1.8-1.1-0.9-2.4c-0.9-0.2-2.2-0.4-2,2.4c-0.4,0-0.9,0-0.9,0
				s-0.3-1.6-2.4-1.6c-2.1,0-7.4,2.2-7.4,2.2s5.9,1.6,7.4,1.6c1.5,0,2.5-1.5,2.5-1.5h0.7c0,0,0.3,1.1,0.7,1.6c0,0.8,0,1.8,0,1.8
				s-0.9,0.3-0.8,1.4s0.7,1,0.9,1s0.4-0.3,1.2-0.3c0.4-0.4,0.1-1.7-0.6-2c0-0.6-0.1-1.3-0.1-1.3s0.8-0.5,0.7-0.9
				C102.7,89.5,101.9,89.5,101.9,88.9z"/>
		</g>
		<g>
			<path class="st3" d="M114.5,87.4h9.2c0,0-0.8-1.1-0.9-1.7c-1.6,0-8.5,0.1-8.5,0.1s-1-0.1-1,1.7C113.2,88,114,88.7,114.5,87.4z"/>
		</g>
		<g>
			<path class="st3" d="M124.6,88.1c0.1,0.3,0.3,0.9,0.6,1.2l-9.2-0.6c0,0-1.1-0.7-0.6-0.8L124.6,88.1z"/>
		</g>
		<g>
			<polygon class="st3" points="139.7,88.8 166.9,88.8 166.9,86.5 136.7,86.5 			"/>
		</g>
		<g>
			<polygon class="st3" points="112.3,88.9 104.6,88.9 104.3,87.4 112.3,87.4 			"/>
		</g>
	</g>
	<g id="top-body_00000088830275323376555490000012964084892155022511_">
		<g>
			<path class="st3" d="M123.4,84.3c0,0,3.1,2.1,5.1,2.9c-0.3,0.3-1.6,2.1-2.1,1.9S123.5,85.8,123.4,84.3z"/>
		</g>
		<g>
			<path class="st3" d="M129.7,79.1v8c0,0,2.7-0.8,2.9-1.5C132.5,84.2,132.1,79,129.7,79.1z"/>
		</g>
		<g>
			<path class="st3" d="M116.9,78.8c-1,0-4.1,2.5-1.8,3.6c0.6-0.6,1.2-1.2,1.2-1.2s-0.6,1.5,0.6,1.8s0.7-0.7,1.4-0.7
				c0.4,0.6,0.5,1,1.1,1c0.6-0.1,0.8-1.8,0-2.8C118.5,79.4,118,78.8,116.9,78.8z"/>
		</g>
		<g>
			<path class="st3" d="M118.8,78.3c-0.8,0-1.6-0.2-1.5-0.9s1.3-1.4,2.1-1.2c0.8,0.2,2.1,0.5,2.1,3.5c0.6,0.6,2.3,1.8,4.4,1.9
				c2.1,0.1,3.4-0.1,3.4,0.5s0,4,0,4s-2.5-0.1-8.8-4.5c-0.5-0.7-0.9-1.1-0.8-2.2C119.5,78.8,119,78.3,118.8,78.3z"/>
		</g>
		<g>
			<path class="st3" d="M125.3,74.8c0,0-2.7,2.3-3.3,2.8c-0.3,0.8-0.6,3.1,3,3.1C125.2,79.2,125.3,74.8,125.3,74.8z"/>
		</g>
		<g>
			<path class="st3" d="M128.6,70.9c0,0,8.6-0.4,9.4,0s3.7,5,3,9.1c-0.7,4.1-2,5.1-7.6,5.8c-0.1-1.3-0.3-4.7-0.8-5.6s-2.4-3.1-3.3-3
				c0,0.9-0.2,3.8-0.2,3.8s-2.8,0.2-3.2-0.4c-0.1-1.1,0-4.2,0-4.2s2.6-2.2,2.7-2.8c0.4,0.2,0.5,1.6,3.6,1.2
				C132.1,74.4,128.5,74.8,128.6,70.9z"/>
		</g>
		<g>
			<path class="st3" d="M126.5,74.6c-0.1-0.5,0.5-2.5,0.5-2.9c0.1-0.4,1.6-0.6,1.2,1.1C127.8,74.5,126.6,75.1,126.5,74.6z"/>
		</g>
		<g>
			<path class="st3" d="M121.6,76.8c-0.5,0-1.8-0.9-1.1-1.4s3.8-2.5,4.5-2.7c0.7-0.2,1.6,0.7,0.8,1.4
				C125,74.8,121.6,76.8,121.6,76.8z"/>
		</g>
		<g>
			<path class="st3" d="M122.1,71.9c0,0-4.7,1-4.5-1.3c0.1-0.8,0.5-1.1,1-1c0-0.4-0.9-1.7,1.1-2.2c0.7-1,1.3-1.8,1.5-2.4
				c0.2-0.6,0.8-1.4,2.6-1c1.8,0.4,3.8,2.2,4.1,2.7c1.1,0,2.2,0.2,1.8,0.4c-0.4,0.2-0.6,0.6-0.6,0.7c0.1,0.1,0.7,0.4-1.2,0.4
				c0.1,0.4,0.4,0.5,0.8,0.7s-0.1,0.4,0,0.5s0.3,1-0.7,0.6c-0.9-0.4-1-0.7-1.3-0.7c-0.3,0.1-1,0.2-0.8,0.4c0.1,0.3,1,0.9-0.2,1.1
				c-0.2,0.2,0.4,0.6-0.1,0.7c-0.5,0.2-2.4,1.7-3.4,2.1c-0.9,0-1.2-0.3-1.2-0.7s0.5-0.7,1.1-0.7C122.1,72,122.2,71.8,122.1,71.9z"/>
		</g>
	</g>
	<g id="komor_00000063628317457738088240000005591143332205329804_">
		<g>
			<path class="st3" d="M127.2,90.2c-0.7-0.3-4.2,3.1-2.7,3.4s5.3,1,6.3,1.4c0.9-0.4,1.7-1.1,1.6-1.6c0.6,0,1.7,1,2.4,0.6
				c0.8-0.4,5.2-3.5,5.5-4c-0.9-0.8-2.8-1.9-3.6-1.8C135.9,88.2,130,91.6,127.2,90.2z"/>
		</g>
		<g>
			<path class="st3" d="M133.3,86.4c0.3-0.3,2.4,1.3,1.8,1.7c-0.6,0.3-6.1,2.6-6.6,2.4c-0.5-0.2-0.4-1.6,0.2-1.9
				C129.2,88.3,132.3,87.4,133.3,86.4z"/>
		</g>
	</g>
	<g id="front-leg_00000018958077003869044960000002279376097653562765_">
		<g>
			<path class="st3" d="M125.3,94.5c0.4,0,4.9,1.7,6,1.5s1.4-1.3,2-1.2c0.6,0.1,0.9,0.6,2,0s3-2.4,3.3-2.8c0.1,0.7,0,2.6-4.2,4.5
				s-13.8,4.6-14,5.9c0.4,0.2,1.6-0.2,2.4-0.7c0.5,0.4,1.5,1.7,1.2,3.8c-0.2,2.1-1.8,5.7-1.8,6.7c0,1-0.1,5.4,0,5.9
				c0.1,0.5,0.8,3-0.4,2.8c-1.2-0.2-2-0.2-2.4-0.1c-0.5,0.1-1.5,0.9-2.3,0.8s-2.3-0.6-2.3-1c0.1-0.4,1-0.4,1.8-0.7s1.4-1.2,3-1.8
				c-0.1-1.1-0.5-8.8-0.5-10.4s-0.6-5,0.2-6.4C119.9,99.8,123.6,94.5,125.3,94.5z"/>
		</g>
	</g>
	<g id="back-leg_00000072239733202576313470000004203110633280682685_">
		<g>
			<path class="st3" d="M131.2,99.2c-0.1,0.5,2.8,7.5,4,7.6s12.8-2.4,15-1.7c0.7,0.9,2,2.6,2,3.5c0,0,0.3,2.3,0.1,2.4
				c0.4,0.1,1.4-0.2,1.6-0.9s0.1-3.7,0.1-4.3c0.1-0.5,1.5-3.3-0.4-3.2s-7.2,0.1-8.9-0.4c-1.7-0.5-5.6-1.2-6.6-0.7
				c-1,0.5-2.1,2.1-2.1,2.5c-0.4,0.1-0.5-0.3-0.1-1.5s1.8-4.8,1.7-6.7C136.1,96.4,131.2,99.2,131.2,99.2z"/>
		</g>
	</g>
</g>
<g>
	<g>
		<path class="st4" d="M337.5,213l-1.6-1.2c0.9-1.2,1.9-2.4,3-3.5l1.4,1.4C339.4,210.7,338.4,211.9,337.5,213z"/>
	</g>
	<g>
		<path class="st4" d="M609.6,249.6h-0.9l0-2h0.9c2.8,0,5.5,0,8-0.1l0.1,2C615.1,249.5,612.5,249.6,609.6,249.6z M603.7,249.5
			c-3.1-0.1-6.1-0.1-8.9-0.2l0.1-2c2.8,0.1,5.8,0.2,8.9,0.2L603.7,249.5z M622.7,249.2l-0.1-2c3.1-0.2,6.1-0.5,8.8-0.8l0.2,2
			C628.8,248.7,625.8,249,622.7,249.2z M589.8,249.1c-3-0.1-6-0.3-9-0.5l0.1-2c2.9,0.2,5.9,0.4,8.9,0.5L589.8,249.1z M575.9,248.2
			c-3-0.3-6-0.6-8.9-1l0.3-2c2.9,0.4,5.8,0.7,8.8,1L575.9,248.2z M636.6,247.6l-0.3-2c3.1-0.5,6-1.2,8.6-1.9l0.5,1.9
			C642.7,246.4,639.7,247.1,636.6,247.6z M562.1,246.5c-3-0.4-6-1-8.8-1.5l0.4-2c2.8,0.6,5.8,1.1,8.8,1.5L562.1,246.5z M650.2,244.1
			l-0.7-1.9c2.9-1.1,5.5-2.3,7.9-3.7l1,1.7C656,241.7,653.2,243,650.2,244.1z M548.3,244c-2.9-0.6-5.9-1.4-8.7-2.1l0.5-1.9
			c2.8,0.8,5.7,1.5,8.6,2.1L548.3,244z M689.2,241.3h-0.5l0-2h0.5c2.8,0,5.6-0.1,8.3-0.3l0.1,2C695,241.2,692.1,241.3,689.2,241.3z
			 M683.7,241.2c-3.1-0.1-6.2-0.4-9-0.8l0.3-2c2.8,0.4,5.8,0.6,8.8,0.8L683.7,241.2z M702.7,240.5l-0.3-2c3-0.4,5.8-1,8.6-1.8
			l0.5,1.9C708.7,239.5,705.7,240.1,702.7,240.5z M534.8,240.5c-2.9-0.9-5.8-1.8-8.5-2.8l0.7-1.9c2.8,1,5.6,1.9,8.4,2.8L534.8,240.5
			z M669.7,239.6c-3.2-0.6-6.2-1.4-8.8-2.4l0.5-1.3l-0.1-0.1l0.2-0.1l0.1-0.3c0.1,0,0.1,0,0.2,0.1c2-1.7,3.8-3.8,5.1-6.1l1.7,1
			c-1.2,2.1-2.8,4.1-4.6,5.8c1.9,0.6,3.9,1.1,6.1,1.5L669.7,239.6z M716.3,237.1l-0.7-1.9c2.7-1,5.4-2.2,8-3.7l1,1.8
			C721.9,234.8,719.1,236.1,716.3,237.1z M521.6,235.9c-0.9-0.4-1.8-0.7-2.8-1.1c-1.8-0.7-3.6-1.5-5.5-2.4l0.8-1.8
			c1.9,0.9,3.7,1.6,5.4,2.4c0.9,0.4,1.8,0.7,2.7,1.1L521.6,235.9z M656.3,235.1c-3-1.6-5.5-3.6-7.2-5.8l1.6-1.2
			c1.6,2,3.8,3.8,6.6,5.3L656.3,235.1z M728.9,230.7l-1.1-1.7c2.4-1.6,4.7-3.3,7-5.3l1.3,1.5C733.8,227.3,731.3,229.1,728.9,230.7z
			 M508.9,230.2c-2.5-1.2-5.1-2.5-8-4.1l0.9-1.8c2.9,1.5,5.5,2.9,7.9,4L508.9,230.2z M670.7,225.6l-1.9-0.6c0.5-1.8,0.8-3.5,0.8-5.3
			c0-1-0.1-2.1-0.3-3.1l2-0.4c0.2,1.1,0.3,2.3,0.3,3.5C671.6,221.6,671.3,223.6,670.7,225.6z M646.6,224.6c-0.6-1.7-0.9-3.6-0.9-5.6
			v-0.2c0-1.2,0.2-2.4,0.5-3.5l1.9,0.5c-0.2,1-0.4,2-0.4,3.1v0.2c0,1.7,0.3,3.4,0.8,4.9L646.6,224.6z M496.5,223.9
			c-1.6-0.9-3.2-1.7-4.8-2.6l-3-1.6l1-1.8l3,1.6c1.6,0.9,3.2,1.7,4.8,2.6L496.5,223.9z M739.8,221.9l-1.4-1.4c2-1.9,4.1-4.1,6.1-6.4
			l1.5,1.3C744,217.8,741.9,220,739.8,221.9z M484.2,217.3c-3-1.6-5.5-2.9-7.9-4.1l0.9-1.8c2.4,1.2,4.9,2.5,8,4.1L484.2,217.3z
			 M667.7,212.4c-1.5-2.5-3.7-4.1-6.3-4.8l0.5-1.9c3.2,0.8,5.8,2.7,7.6,5.6L667.7,212.4z M650,211.7l-1.6-1.2c2-2.6,4.8-4.3,8-4.9
			l0.4,2C654.1,208,651.7,209.5,650,211.7z M749.3,211.6l-1.5-1.3c1-1.2,2-2.4,2.9-3.6c0.8-1.1,1.7-2.2,2.5-3.4l1.6,1.2
			c-0.9,1.2-1.7,2.3-2.6,3.4C751.3,209.2,750.3,210.5,749.3,211.6z M471.9,211c-2.8-1.4-5.5-2.5-8.1-3.6l0.8-1.9
			c2.6,1.1,5.3,2.3,8.2,3.6L471.9,211z M344,206.4l-1.2-1.6c2.3-1.8,4.9-3.5,7.7-4.9l0.9,1.8C348.6,203.1,346.2,204.7,344,206.4z
			 M459.2,205.6c-0.6-0.2-1.3-0.5-1.9-0.7c-2.2-0.8-4.4-1.5-6.5-2.1l0.6-1.9c2.2,0.7,4.4,1.4,6.6,2.2c0.6,0.2,1.3,0.5,1.9,0.7
			L459.2,205.6z M446,201.4c-2.9-0.8-5.8-1.6-8.6-2.2l0.5-1.9c2.9,0.7,5.8,1.4,8.7,2.2L446,201.4z M757.8,200.6l-1.6-1.2
			c1.6-2.2,3.5-4.7,5.3-7.2l1.6,1.2C761.3,195.9,759.5,198.4,757.8,200.6z M355.8,199.8l-0.7-1.9c2.7-1.1,5.6-2,8.6-2.8l0.5,1.9
			C361.1,197.8,358.3,198.7,355.8,199.8z M432.6,198.1c-2.9-0.6-5.8-1.1-8.7-1.6l0.3-2c2.9,0.5,5.9,1,8.8,1.6L432.6,198.1z
			 M368.9,196l-0.4-2c2.8-0.5,5.8-1,8.9-1.3l0.2,2C374.6,195.1,371.7,195.5,368.9,196z M419,195.8c-2.9-0.4-5.9-0.7-8.8-1l0.2-2
			c3,0.3,6,0.6,8.9,1L419,195.8z M405.2,194.4c-2.9-0.2-5.9-0.3-8.9-0.3l0-2c3,0.1,6,0.2,9,0.4L405.2,194.4z M382.6,194.4l-0.1-2
			c0.5,0,1.1-0.1,1.6-0.1c2.4-0.1,4.9-0.2,7.4-0.2l0,2c-2.4,0-4.9,0.1-7.3,0.2C383.6,194.3,383.1,194.3,382.6,194.4z M766.2,189.5
			l-1.6-1.2c2.1-2.6,4-4.8,5.9-6.8l1.5,1.4C770.1,184.8,768.2,187,766.2,189.5z M775.4,179.3l-1.4-1.4c2.3-2.2,4.7-4.2,7-5.8
			l1.2,1.6C780,175.3,777.7,177.1,775.4,179.3z M786.3,171.1l-1-1.8c2.8-1.5,5.7-2.6,8.5-3.3l0.5,1.9
			C791.7,168.6,788.9,169.7,786.3,171.1z"/>
	</g>
	<g>
		<path class="st4" d="M803.5,167.5c-1.5-0.2-2.9-0.2-4.3-0.2l-0.1-2c1.5-0.1,3.1,0,4.7,0.2L803.5,167.5z"/>
	</g>
</g>
<path class="st5" d="M1096.9,291h-74.4c-3.1,0-5.2-3.2-3.9-6c1.6-3.5,4.9-6.5,11.6-3c0,0,3.4-12.1,11.8-12.1
	c8.4,0,10.6,7.2,10.6,7.2s0.8-14.4,14.4-14.8c13.5-0.4,15.2,15.2,15.2,15.2s7-4.7,13.7-0.4c1.4,0.9,2.5,2,3.4,3.4
	c1.2,1.8,1.8,3.9,1.9,6.1l0,0C1101.2,289,1099.3,291,1096.9,291z"/>
<path class="st5" d="M835.4,137.7H729c-4.4,0-7.3-4.6-5.5-8.6c2.3-4.9,7-9.3,16.6-4.3c0,0,4.8-17.3,16.9-17.3
	c12.1,0,15.1,10.3,15.1,10.3s1.2-20.5,20.5-21.1c19.3-0.6,21.7,21.7,21.7,21.7s10-6.8,19.5-0.6c1.9,1.2,3.5,2.8,4.8,4.7
	c1.8,2.6,2.6,5.7,2.8,8.9l0,0C841.6,134.8,838.8,137.7,835.4,137.7z"/>
<path class="st5" d="M325.5,209c-7.4-1.3-12,6.7-12,6.7s0.3-9.7-8.4-12c-8.7-2.3-14,5-14,5s-4.7-17.4-22.7-14
	c-8.2,1.5-11.5,8.6-12.5,15.8c-0.1,0-0.1-0.1-0.2-0.1c-8.4-3.3-11,6-11,6c1-3.4-5.2-6.7-7.6-7.1c-3.7-0.6-7.9,0.7-10.3,3.6
	c-3.3,4-3.1,10.6-0.9,15.1c2.9,5.8,11.4,3.4,16.6,3.4c25.9-0.2,51.9,0,77.8,0c0.9,0,11.3,0.8,11.7,0
	C334.8,225,332.8,210.3,325.5,209z"/>
<path class="st5" d="M1412.6,75.5c-5.7-1-9.3,5.2-9.3,5.2s0.3-7.5-6.4-9.3s-10.8,3.9-10.8,3.9s-3.6-13.4-17.5-10.8
	c-6.4,1.2-8.8,6.6-9.7,12.2c0,0-0.1,0-0.1-0.1c-6.4-2.6-8.5,4.6-8.5,4.6c0.8-2.7-4-5.2-5.9-5.5c-2.9-0.5-6.1,0.5-8,2.8
	c-2.6,3.1-2.4,8.2-0.7,11.6c2.2,4.4,8.8,2.6,12.8,2.6c20-0.2,40,0,59.9,0c0.7,0,8.7,0.6,9,0C1419.8,87.8,1418.3,76.5,1412.6,75.5z"
	/>
<g>
	<g>
		<path class="st4" d="M1129.8,199.3l-0.7-1.7c1.3-0.5,2.5-1,3.8-1.5l0.7,1.7C1132.3,198.3,1131.1,198.8,1129.8,199.3z"/>
	</g>
	<g>
		<path class="st4" d="M1016.8,210.9c-0.8-0.3-1.5-0.6-2.3-1l0.7-1.7c0.7,0.3,1.5,0.6,2.2,0.9c0,0,0,0,0,0c1.8,0.7,3.6,1.4,5.3,1.9
			l-0.5,1.7C1020.5,212.3,1018.7,211.7,1016.8,210.9z M1010.4,208.1c-2.3-1.1-4.7-2.4-7.3-3.8l0.9-1.6c2.5,1.4,4.9,2.6,7.2,3.7
			L1010.4,208.1z M1026.6,214.1l0.4-1.8c2.7,0.7,5.3,1.1,7.9,1.4l-0.2,1.8C1032.2,215.3,1029.4,214.8,1026.6,214.1z M922.3,171.4
			l0.3-1.8c3,0.4,5.6,0.9,8.1,1.3l-0.3,1.8C927.9,172.2,925.3,171.8,922.3,171.4z M999.2,202c-0.8-0.5-1.6-0.9-2.4-1.4
			c-1.5-0.9-3.1-1.9-4.6-2.8l1-1.5c1.5,0.9,3,1.9,4.6,2.8c0.8,0.5,1.6,0.9,2.4,1.4L999.2,202z M988.4,195.4
			c-2.3-1.4-4.6-2.9-6.9-4.3l1-1.6c2.3,1.4,4.6,2.9,6.9,4.3L988.4,195.4z M1039.4,215.7l0-1.8c2.7,0,5.3-0.3,7.9-0.8l0.4,1.8
			C1045,215.4,1042.2,215.7,1039.4,215.7z M934.8,173.4l0.3-1.8c2.8,0.5,5.5,1.1,8,1.6l-0.4,1.8
			C940.2,174.4,937.6,173.9,934.8,173.4z M977.6,188.8c-2.5-1.5-4.9-2.8-7.1-3.9l0.8-1.6c2.2,1.2,4.6,2.4,7.2,4L977.6,188.8z
			 M947.1,176.1l0.5-1.8c2.7,0.7,5.4,1.5,7.9,2.3l-0.6,1.7C952.4,177.5,949.8,176.8,947.1,176.1z M966.5,182.9l-0.6-0.3
			c-2.2-1-4.5-1.9-6.8-2.8l0.6-1.7c2.4,0.9,4.7,1.8,7,2.9l0.6,0.3L966.5,182.9z M1052.1,213.7l-0.6-1.7c2.4-0.8,4.8-1.9,7.3-3.2
			l0.9,1.6C1057.2,211.7,1054.6,212.8,1052.1,213.7z M1063.7,208l-1-1.5c2.3-1.5,4.4-3.1,6.3-4.9l1.2,1.3c-0.1,0.1-0.2,0.2-0.3,0.3
			c0.5,0.2,1,0.4,1.6,0.6c1.4,0.5,2.9,1,4.4,1.4l-0.4,1.8c-1.6-0.4-3.1-0.9-4.6-1.4c-0.8-0.3-1.7-0.6-2.4-1
			C1066.9,205.7,1065.3,206.9,1063.7,208z M1063.6,201.6c-2.4-1.8-4.3-3.9-5.7-6.2l1.6-0.9c1.3,2.1,3.1,4,5.3,5.7L1063.6,201.6z
			 M1079.9,207.8l0.3-1.8c2.5,0.4,5.2,0.6,8,0.7l0,1.8C1085.3,208.4,1082.6,208.2,1079.9,207.8z M1092.8,208.4l-0.1-1.8
			c2.6-0.1,5.3-0.4,8-0.8l0.3,1.8C1098.2,208,1095.4,208.3,1092.8,208.4z M1073.4,199.6l-1.4-1.2c1.9-2.1,3.3-4.3,4.4-6.5l1.6,0.8
			C1077,195,1075.4,197.3,1073.4,199.6z M1055.9,191.1c-0.8-2.8-0.7-5.8,0.3-8.6l1.7,0.6c-0.9,2.5-1,5-0.3,7.4L1055.9,191.1z
			 M1105.4,206.8l-0.3-1.8c2.5-0.5,5.2-1.1,7.9-1.9l0.5,1.8C1110.7,205.6,1108,206.3,1105.4,206.8z M1077.9,187.8
			c0.5-2.2,0.6-4.5,0.2-6.6c-0.1-0.4-0.1-0.7-0.2-1l1.8-0.4c0.1,0.4,0.2,0.7,0.2,1.1c0.4,2.4,0.3,4.9-0.3,7.4L1077.9,187.8z
			 M1117.8,203.6l-0.5-1.7c2.5-0.8,5.1-1.6,7.7-2.6l0.6,1.7C1122.9,201.9,1120.3,202.8,1117.8,203.6z M1060,179.5l-1.4-1.1
			c1.7-2.3,4.1-4.2,6.6-5.3l0.8,1.6C1063.7,175.7,1061.6,177.4,1060,179.5z M1076.3,176.4c-1.5-2-3.7-3-6.3-2.8l-0.1-1.8
			c3.3-0.2,6.1,1,7.9,3.5L1076.3,176.4z"/>
	</g>
	<g>
		<path class="st4" d="M913.7,170.1l0.2-1.8c1.3,0.2,2.7,0.4,4,0.6l-0.2,1.8C916.4,170.5,915.1,170.3,913.7,170.1z"/>
	</g>
</g>
<polygon class="st6" points="826.8,174.2 881.7,192.5 888.1,162.8 901.4,160.7 892.2,145.1 896.8,125 "/>
<polygon class="st6" points="888.7,158.5 888.1,162.8 901.4,160.7 "/>
<polygon class="st7" points="888.7,158.5 826.8,174.2 892.2,145.1 901.4,160.7 "/>
<polygon class="st6" points="1222.2,196.5 1189.3,234.7 1171.2,215.4 1160.3,219.8 1160.2,203.9 1147.8,191 "/>
<polygon class="st6" points="1168.8,212.5 1171.2,215.4 1160.3,219.8 "/>
<polygon class="st7" points="1168.8,212.5 1222.2,196.5 1160.2,203.9 1160.3,219.8 "/>
<path class="st8" d="M344.9,138l1.6-4.6l1.6,4.6c2.1,6.1,6.4,11.3,12.1,14.4l0,0l0,0c-5.7,3.1-9.9,8.3-11.8,14.5l-1.9,6.4l-1.9-6.4
	c-1.9-6.2-6.1-11.4-11.8-14.5l0,0l0,0C338.5,149.2,342.8,144.1,344.9,138z"/>
<path class="st8" d="M1347.7,146.7l1.6-4.6l1.6,4.6c2.1,6.1,6.4,11.3,12.1,14.4l0,0l0,0c-5.7,3.1-9.9,8.3-11.8,14.5l-1.9,6.4
	l-1.9-6.4c-1.9-6.2-6.1-11.4-11.8-14.5l0,0l0,0C1341.2,158,1345.6,152.9,1347.7,146.7z"/>
<g>
	<path class="st9" d="M530.1,333c-4.6,0-8.4-3.8-8.4-8.4c0-4.6,3.8-8.4,8.4-8.4c4.6,0,8.4,3.8,8.4,8.4
		C538.5,329.3,534.7,333,530.1,333z M530.1,319.2c-3,0-5.4,2.4-5.4,5.4c0,3,2.4,5.4,5.4,5.4s5.4-2.4,5.4-5.4
		C535.5,321.6,533.1,319.2,530.1,319.2z"/>
</g>
<g>
	<path class="st9" d="M1368.1,134c-4.6,0-8.4-3.8-8.4-8.4s3.8-8.4,8.4-8.4s8.4,3.8,8.4,8.4C1376.5,130.2,1372.7,134,1368.1,134z
		 M1368.1,120.2c-3,0-5.4,2.4-5.4,5.4c0,3,2.4,5.4,5.4,5.4s5.4-2.4,5.4-5.4C1373.5,122.6,1371.1,120.2,1368.1,120.2z"/>
</g>
<g>
	<path class="st0" d="M770.7,279.6c-4.6,0-8.4-3.8-8.4-8.4s3.8-8.4,8.4-8.4c4.6,0,8.4,3.8,8.4,8.4
		C779.2,275.9,775.4,279.6,770.7,279.6z M770.7,265.8c-3,0-5.4,2.4-5.4,5.4c0,3,2.4,5.4,5.4,5.4s5.4-2.4,5.4-5.4
		C776.2,268.2,773.7,265.8,770.7,265.8z"/>
</g>
<circle class="st9" cx="1017.6" cy="167.4" r="6"/>
<path class="st0" d="M773.2,234.6h-5.5v-5.5c0-0.9-0.7-1.6-1.6-1.6s-1.6,0.7-1.6,1.6v5.5h-5.5c-0.9,0-1.6,0.7-1.6,1.6
	s0.7,1.6,1.6,1.6h5.5v5.5c0,0.9,0.7,1.6,1.6,1.6s1.6-0.7,1.6-1.6v-5.5h5.5c0.9,0,1.6-0.7,1.6-1.6
	C774.8,235.3,774.1,234.6,773.2,234.6z"/>
<path class="st9" d="M1387,148.6h-5.5v-5.5c0-0.9-0.7-1.6-1.6-1.6s-1.6,0.7-1.6,1.6v5.5h-5.5c-0.9,0-1.6,0.7-1.6,1.6
	s0.7,1.6,1.6,1.6h5.5v5.5c0,0.9,0.7,1.6,1.6,1.6s1.6-0.7,1.6-1.6v-5.5h5.5c0.9,0,1.6-0.7,1.6-1.6
	C1388.6,149.3,1387.9,148.6,1387,148.6z"/>
<path class="st9" d="M327.3,115.6h-5.5v-5.5c0-0.9-0.7-1.6-1.6-1.6s-1.6,0.7-1.6,1.6v5.5h-5.5c-0.9,0-1.6,0.7-1.6,1.6
	s0.7,1.6,1.6,1.6h5.5v5.5c0,0.9,0.7,1.6,1.6,1.6s1.6-0.7,1.6-1.6v-5.5h5.5c0.9,0,1.6-0.7,1.6-1.6
	C328.8,116.3,328.1,115.6,327.3,115.6z"/>
<path class="st0" d="M570,322.4h-5.5v-5.5c0-0.9-0.7-1.6-1.6-1.6s-1.6,0.7-1.6,1.6v5.5h-5.5c-0.9,0-1.6,0.7-1.6,1.6s0.7,1.6,1.6,1.6
	h5.5v5.5c0,0.9,0.7,1.6,1.6,1.6s1.6-0.7,1.6-1.6v-5.5h5.5c0.9,0,1.6-0.7,1.6-1.6S570.8,322.4,570,322.4z"/>
<path class="st9" d="M1029.8,185.2c0,2.7-2.2,4.9-4.9,4.9c-2.7,0-4.9-2.2-4.9-4.9s2.2-4.9,4.9-4.9
	C1027.6,180.3,1029.8,182.5,1029.8,185.2z"/>
<circle class="st9" cx="1037.1" cy="170.3" r="3.8"/>
<g>
	<path class="st10" d="M396.6,353.5v51.9c0,0.1,0,0.2,0,0.3c-0.1,3.6-2.5,6.4-5.4,6.4h-61.5v-58c0-21.7,12.9-39.9,29.7-42.3
		c1.2-0.2,2.4-0.3,3.6-0.3h0.1c9.2,0,17.6,4.7,23.7,12.3c5.9,7.4,9.6,17.4,9.8,28.6C396.6,352.8,396.6,353.1,396.6,353.5z"/>
	<g>
		<rect x="289" y="410.6" class="st11" width="18.6" height="185.4"/>
		<g>
			<polygon class="st12" points="307.6,464.6 307.6,477.6 289,497.9 289,484.9 			"/>
		</g>
		<g>
			<polygon class="st12" points="307.6,439.8 307.6,456.8 289,477.1 289,460.1 			"/>
		</g>
		<g>
			<polygon class="st12" points="307.6,534.4 307.6,547.4 289,567.7 289,554.7 			"/>
		</g>
		<g>
			<polygon class="st12" points="307.6,509.7 307.6,526.7 289,547 289,530 			"/>
		</g>
	</g>
	<path class="st13" d="M355.5,311.8c-16.8,2.4-29.7,20.6-29.7,42.3v58h-81.5c-2.7,0-5-1.6-6.1-3.9c-0.4-0.9-0.6-1.9-0.6-2.9v-51.9
		c0-23.2,18.8-42,42-42h71.3C352.3,311.5,353.9,311.6,355.5,311.8z"/>
	<path class="st14" d="M360.8,311.7c-17.1,2-30.3,20.5-30.3,42.4v58h-6.4v-58c0-23.2,14.8-42.5,33.3-42.6h0.1
		C358.7,311.5,359.8,311.6,360.8,311.7z"/>
	<path class="st13" d="M332.3,412.2c-2.8,0-4.4,3.1-2.7,5.4l12.8,17.9c4.3,6,12,11.5,20.9,15.4c8.9,4,19,6.4,28.2,6.4h0.1
		c18.5,0,26.1-10.1,17.4-22.1l-14.4-20.1c-1.3-1.8-3.3-2.8-5.5-2.8L332.3,412.2L332.3,412.2z"/>
	<polygon class="st15" points="377.4,413.8 351.5,414.3 351.5,410.4 377.5,410.5 	"/>
	<path class="st16" d="M355,412.2c0,0.6-0.5,1-1,1s-1-0.5-1-1c0-0.6,0.5-1,1-1S355,411.7,355,412.2z"/>
	<circle class="st16" cx="375.2" cy="412.2" r="0.9"/>
	<g>
		<path class="st14" d="M338.8,311.5l-92.4,100.6h-2.2c-2.7,0-5-1.6-6.1-3.9l88.8-96.7H338.8z"/>
	</g>
	<g>
		<polygon class="st14" points="319.8,311.5 237.4,401.2 237.4,384.2 304.1,311.5 		"/>
	</g>
	<path class="st17" d="M326.4,297.6l6,7h-18.7v32.3c0,1.6-1.3,2.9-2.9,2.9c0,0,0,0,0,0c-1.6,0-2.9-1.3-2.9-2.9v-46.6h24.5
		L326.4,297.6z"/>
	<g>
		<path class="st0" d="M420,352c-9.5-14.8-19-29.5-28.5-44.3c-19.7,8.2-36.9,23.3-48.8,43.5c5.8,9,11.6,18.1,17.5,27.1
			C375.7,363.9,396.6,354.4,420,352z"/>
		<g>
			<path class="st18" d="M344.2,353.8c0.8,1.3,1.6,2.5,2.4,3.8c-0.5-3.4-1-6.9-1.5-10.4c-0.5,0.8-1,1.6-1.5,2.4
				C343.8,351,344,352.4,344.2,353.8z"/>
			<path class="st19" d="M348.1,342.8c-0.5,0.8-1.1,1.6-1.6,2.4c0.8,5.3,1.5,10.5,2.2,15.5c0.8,1.3,1.6,2.5,2.4,3.8
				C350.2,357.5,349.2,350.3,348.1,342.8z"/>
			<path class="st18" d="M351.5,338.3c-0.6,0.7-1.2,1.5-1.7,2.2c1.5,9.7,2.7,18.9,3.7,27.6c0.8,1.3,1.6,2.5,2.4,3.8
				C354.8,361.4,353.4,350.2,351.5,338.3z"/>
			<path class="st19" d="M353,336.5c2.2,13.8,3.8,26.6,5,38.5c0.7,1.1,1.5,2.2,2.2,3.4c0.1-0.1,0.1-0.1,0.2-0.2
				c-1.2-13.4-3-28-5.5-43.8C354.2,335,353.6,335.8,353,336.5z"/>
			<path class="st18" d="M358.6,330.3c-0.6,0.7-1.3,1.3-1.9,2c2.5,15.9,4.4,30.6,5.6,44.1c0.7-0.6,1.3-1.1,2-1.7
				C363,361.1,361.1,346.3,358.6,330.3z"/>
			<path class="st19" d="M362.1,326.7c-0.7,0.6-1.3,1.3-2,1.9c2.6,16.1,4.5,31,5.8,44.7c0.7-0.5,1.4-1.1,2.1-1.6
				C366.8,357.9,364.8,342.9,362.1,326.7z"/>
			<path class="st18" d="M366.2,323.1c-0.7,0.6-1.4,1.2-2.1,1.8c2.7,16.3,4.7,31.4,6.1,45.3c0.7-0.5,1.5-1,2.2-1.5
				C371.1,354.7,369,339.5,366.2,323.1z"/>
			<path class="st19" d="M370.1,320c-0.7,0.5-1.4,1.1-2.1,1.7c2.9,16.4,4.9,31.7,6.3,45.8c0.8-0.5,1.5-0.9,2.3-1.4
				C375.1,351.9,373,336.5,370.1,320z"/>
			<path class="st18" d="M374.5,316.9c-0.7,0.5-1.5,1-2.2,1.5c3,16.6,5.2,32,6.6,46.3c0.8-0.4,1.6-0.9,2.4-1.3
				C379.8,349.1,377.5,333.5,374.5,316.9z"/>
			<path class="st19" d="M378.6,314.2c-0.8,0.5-1.5,0.9-2.3,1.4c3.1,16.7,5.4,32.3,7,46.8c0.8-0.4,1.6-0.8,2.5-1.2
				C384.1,346.7,381.8,331,378.6,314.2z"/>
			<path class="st18" d="M383.2,311.6c-0.8,0.4-1.6,0.9-2.3,1.3c3.3,16.9,5.7,32.6,7.4,47.3c0.8-0.4,1.7-0.7,2.5-1
				C389,344.4,386.5,328.5,383.2,311.6z"/>
			<path class="st19" d="M387.5,309.4c-0.8,0.4-1.6,0.8-2.4,1.2c3.4,17,6,32.9,7.8,47.7c0.9-0.3,1.7-0.6,2.6-0.9
				C393.6,342.5,391,326.5,387.5,309.4z"/>
			<path class="st18" d="M392.9,309.9c-0.5-0.8-1-1.5-1.5-2.2c-0.5,0.2-1,0.4-1.5,0.7c3.6,17.1,6.3,33.2,8.2,48.1
				c0.9-0.3,1.8-0.5,2.7-0.8C398.9,341.4,396.3,326.2,392.9,309.9z"/>
			<path class="st19" d="M400.1,321.1c-1.3-2-2.6-4.1-4-6.1c2.9,14.1,5.2,27.5,6.9,40.1c0.9-0.2,1.8-0.5,2.7-0.7
				C404.3,343.8,402.4,332.7,400.1,321.1z"/>
			<path class="st18" d="M408,333.4c-1.3-2-2.6-4.1-4-6.1c1.8,9.2,3.3,18,4.5,26.5c0.9-0.2,1.9-0.4,2.8-0.5
				C410.4,346.8,409.3,340.2,408,333.4z"/>
			<path class="st19" d="M415.2,344.6c-1.3-2-2.6-4.1-4-6.1c0.9,4.9,1.7,9.7,2.4,14.4c0.9-0.1,1.9-0.3,2.9-0.4
				C416.1,349.8,415.7,347.2,415.2,344.6z"/>
		</g>
		<path class="st0" d="M361.2,373.7c-5-7.8-10-15.6-15.1-23.4c11.4-17.1,26.9-30.1,44.5-37.6c7.8,12.1,15.5,24.1,23.3,36.2
			C393.6,352.1,375.3,360.9,361.2,373.7z"/>
		<path class="st20" d="M367,338.2c-5.1,4.2-9.9,8.9-14.2,14.1c-0.4-0.6-0.7-1.1-1.1-1.7c4.2-5.3,8.9-10.1,14-14.4
			C366.2,336.9,366.6,337.5,367,338.2z"/>
		<path class="st20" d="M370.3,343.4c-5.3,3.9-10.2,8.4-14.7,13.3c-0.4-0.6-0.7-1.1-1.1-1.7c4.4-5,9.2-9.6,14.5-13.6
			C369.5,342,369.9,342.7,370.3,343.4z"/>
		<path class="st20" d="M373.6,348.5c-5.5,3.7-10.5,7.9-15.2,12.6c-0.4-0.6-0.7-1.1-1.1-1.7c4.6-4.8,9.6-9.1,15-12.9
			C372.8,347.2,373.2,347.8,373.6,348.5z"/>
		<path class="st20" d="M399,336.2c-5.1,1.6-10,3.6-14.7,6c-3.3-5.2-6.7-10.4-10-15.6c4.3-2.9,8.9-5.5,13.6-7.7
			C391.6,324.7,395.3,330.4,399,336.2z"/>
	</g>
	<g>
		<g>
			<polygon class="st21" points="368.2,346.2 432.7,341.1 430.7,409.5 361.7,406.2 			"/>
			<polygon class="st22" points="373.8,351.1 427,346.9 425.4,403.3 368.4,400.7 			"/>
			<polygon class="st21" points="411,353.1 409.3,369.4 420,368.9 422.2,352.9 			"/>
		</g>
		<g>
			<path class="st0" d="M395.1,403.9l-8.7-1.5l-1.2-0.2l-5.9-1l0,0l-0.9-0.1l-2.7-0.5l-1.8-0.3l-1.2-0.2l-4.1-0.7l-0.1,0l-2.3-0.4
				l-3.6-0.6l-5.1-0.9L355,397l-11.1-1.9l-1.6-0.3l-6.5-1.1l-2.9-0.5l-3-0.5l0-5.9l0.1-19.9v-2.2l0-2.8l0-9.8l0-1.8
				c0-0.1,0-0.1,0-0.2c0-0.2,0-0.4,0-0.6c0-1.8,0.2-3.6,0.6-5.4c0.1-0.5,0.2-0.9,0.3-1.4c0.1-0.4,0.2-0.7,0.3-1.1
				c0.5-2,1.2-4,2.1-5.9l1.6-0.1l3.2-0.2l10.2-0.6l2-0.1l12.5-0.7l1.8-0.1l9-0.5l2-0.1l8.3-0.5l2.2-0.1l8.7-0.5h0l0.1,0l1.5-0.1
				l8.6-0.5l-0.9,6.4l-0.3,2.1l-0.4,3l-0.7,5.4l-0.3,2.1l-0.4,2.6l-0.7,5.5l-0.8,6.1l-0.4,3.1l-0.3,2.2v0l-1.2,8.7l-0.3,2.4l-1,7
				l-0.4,3l-1.4,10.3L395.1,403.9z"/>
			<polygon class="st23" points="398.3,336.6 398,338.6 404.1,338.3 405,331.9 396.4,332.4 395.7,336.8 			"/>
			<polygon class="st24" points="402.4,351 403.8,340.4 397.7,340.6 396.3,350.9 			"/>
			<polygon class="st23" points="402,353.6 396,353.5 394.4,364.9 400.4,365.2 			"/>
			<polygon class="st24" points="400,368.3 394,368 392.5,378.7 398.5,379.3 			"/>
			<polygon class="st23" points="398.2,381.7 392.2,381 391.3,388 397.2,388.6 			"/>
			<polygon class="st24" points="390.9,391 390,397.2 387.2,396.7 386.4,402.4 395.1,403.9 396.8,391.6 			"/>
			<polygon class="st24" points="394.2,336.8 394.9,332.5 386,332.9 385.5,337.3 			"/>
			<polygon class="st23" points="383.3,337.5 383.8,333.1 375.5,333.5 375.1,337.9 			"/>
			<polygon class="st24" points="373.1,338 373.6,333.6 364.6,334.1 364.1,338.5 			"/>
			<polygon class="st23" points="362.3,338.6 362.8,334.2 350.4,334.9 349.9,339.3 			"/>
			<polygon class="st24" points="347.9,339.4 348.3,335 338.1,335.6 338,340 			"/>
			<path class="st23" d="M333.2,340.2l-0.2,1.4l-1.8,0.1c0.5-2,1.2-4,2.1-5.9v0l1.6-0.1v0l-0.1,4.4L333.2,340.2z"/>
			<path class="st24" d="M332,350.2l-1.9,0c0-0.2,0-0.4,0-0.6c0-1.8,0.2-3.6,0.6-5.4c0.1-0.5,0.2-0.9,0.3-1.4l1.9-0.1l-0.1,1.3
				l-0.6,5.4L332,350.2z"/>
			<polygon class="st23" points="330.6,362 330.1,362 330.1,352.2 331.8,352.2 			"/>
			<polygon class="st24" points="330.1,367 330.1,364.8 330.3,364.9 			"/>
			<polygon class="st24" points="333,393.3 330,392.7 330,386.9 333.2,387.4 			"/>
			<polygon class="st23" points="342.9,389.1 336,387.9 335.8,393.7 342.3,394.9 			"/>
			<polygon class="st24" points="355.8,391.3 344.5,389.4 343.9,395.1 355,397 			"/>
			<polygon class="st23" points="366.8,393.2 358.1,391.7 357.5,397.5 366.2,399 			"/>
			<polygon class="st24" points="376.3,394.8 369.1,393.6 368.4,399.3 375.6,400.6 			"/>
			<polygon class="st23" points="386,396.5 379,395.3 378.4,401 385.2,402.2 			"/>
		</g>
		<g>
			<path class="st25" d="M379,408.6l-48.9-2.3c-0.1-0.4-0.2-0.9-0.2-1.4l0-4.5l0-7.7l0-5.9l0.1-19.9v-2.2l0-2.8l0-9.8l0-1.8
				c0-0.1,0-0.1,0-0.2c0-0.2,0-0.4,0-0.6c0-1.8,0.2-3.6,0.6-5.4l2-0.2l48.3-3.8l-0.1,4.9l-0.2,5.3l-1.3,44.8l-0.2,5.8v0l-0.2,5.9v0
				L379,408.6z"/>
			<path class="st26" d="M373.7,402.5l-11.6-0.5l-32.2-1.5l0-7.7l0-5.9l0.1-19.9v-2.2l0-2.8l0-9.8l0-1.8c0-0.1,0-0.1,0-0.2
				c0-0.2,0-0.4,0-0.6l2-0.1l36.1-2.8l7.2-0.6l-0.1,4.9l-1.3,43.5l-0.2,5.8v0l0,0.7L373.7,402.5z"/>
			<polygon class="st25" points="359.4,352.2 357.7,368.5 368.4,368 370.5,352 			"/>
		</g>
	</g>
</g>
<path class="st27" d="M1425.4,473.7c0,0,14.5-0.1,30.6-22.5c14.1-19.6-12.6-80.2-27.6-94.2c-14.9-14-44.1,62.2-40.7,81.5
	C1392.6,466.1,1413.3,473,1425.4,473.7z"/>
<path class="st28" d="M1449,436l-22.3,22.2l2.2,56.5h-7.3c-0.1-0.4,0.2-39.3,0.4-84.8l-17.1-16.4c1.3,0-1-2.2-1.3-2.4L1422,424
	c0.2-28.4,0.3-51.2,0.3-51.2l1.7-2.1l0.9,30.4l15.8-11.4c-0.2,0.2-2.6,2.4-1.3,2.4l-14.4,14.3l1.3,43.7l24.4-17.5
	C1450.4,432.9,1447.1,436,1449,436z"/>
<path class="st27" d="M1380.4,483.8c0,0,17.6-1.3,26.4-18c9.5-18.1-13.7-61-25.5-64.2c-13-3.5-33.5,30.8-29.3,57.4
	C1354.9,477.2,1372.3,483.3,1380.4,483.8z"/>
<path class="st28" d="M1393.7,451l-12.3,9.8c-0.4-23-0.7-41.3-0.7-41.3l-1.6-1.7l-0.6,23.4l0,0.5l-10.4-8.2c0,0,1.7,1.7,0.8,1.7
	l9.5,10.3l-0.6,26.9l-15.8-12.4c0,0,2.4,2.4,1.2,2.4l14.5,15.7l-0.1,3.1l-0.1,3.4l-0.5,21.2l5.1,0c-0.1-6.8-0.2-14-0.3-21.2
	c-0.1-6.1-0.2-12.2-0.3-18.1c0-0.4,0-0.9,0-1.3l11.3-12.4C1391.8,453,1393.7,451,1393.7,451z"/>
<g>
	<g>
		<path class="st1" d="M1491.8,476c-4.2-1.4-8.7-1.6-13-0.5c-1.2,0.3-8.8,2.5-8.9,4c2.6-28.5-25.2-26.1-25.2-26.1l0,0
			c-4.2,0.2-8.3,1.6-11.7,4.2c-6.8,5.2-9.9,14.8-7.4,23c-6.5-1.9-14.1,2.5-15.6,9.1c0.3-5.5-2.5-11.3-7.3-14
			c-4.8-2.8-11.4-2.2-15.5,1.5c-6.2,5.6-5.4,15.4-4,23.7c-5.7-1.2-12,1.4-15.2,6.2c-3.2,4.8-3.1,11.6,0.2,16.4h76.5l51.7,0
			c0,0,9.6-10.1,11.6-18.2C1510.9,493.3,1503.8,480,1491.8,476z"/>
		<path class="st2" d="M1409.1,483.3c-1.3-2.1-3-4-5.2-5.2c-4.8-2.8-11.4-2.2-15.5,1.5c-6.2,5.6-5.4,15.4-4,23.7
			c-5.7-1.2-11.9,1.4-15.2,6.2c-2.6,4-3,9.2-1.3,13.6c-2.8-4.7-2.8-11.1,0.2-15.7c3.2-4.9,9.5-7.4,15.2-6.2
			c-1.3-8.3-2.2-18.1,4-23.7c4.1-3.7,10.7-4.2,15.5-1.5C1405.7,477.6,1407.9,480.3,1409.1,483.3z"/>
		<path class="st2" d="M1468.4,465.9c-6.7-11.5-22.4-10.1-22.4-10.1v0c-4.2,0.2-8.3,1.6-11.7,4.2c-6.8,5.2-9.9,14.8-7.4,23
			c-6.5-1.9-14.1,2.5-15.6,9.1c0.1-1.4,0-2.8-0.3-4.1c2.4-5.4,9.1-8.8,14.9-7.1c-2.5-8.2,0.6-17.8,7.4-23c1.7-1.3,3.5-2.3,5.5-3
			s4.1-1.1,6.2-1.2C1444.9,453.7,1462.5,452.1,1468.4,465.9z"/>
		<path class="st2" d="M1506.6,489.8c-2.9-5.3-7.6-9.5-13.6-11.5c-4.2-1.4-8.7-1.6-13-0.5c-1.2,0.3-8.8,2.5-8.9,4
			c0.1-1.1,0.2-2.2,0.2-3.2c2.2-1.3,6.8-2.6,7.7-2.9c4.3-1.1,8.8-1,13,0.5C1498.7,478.5,1503.9,483.6,1506.6,489.8z"/>
	</g>
	<g>
		<g>
			<path class="st27" d="M1501.1,518c-0.2-4.3-1.8-8.6-4.9-12.1c-1.6-1.8-3.6-3.4-5.8-4.5c-1.6-0.8-3.4-1.4-5.1-1.7
				c-0.1,0-0.2,0-0.3-0.1c-5.6-1-11.6,0.4-16,4c0.1-0.1,0.1-0.3,0.2-0.5c2.5-6,0.9-13.5-3.9-17.9c-2.2-2.1-5.1-3.4-8.1-3.9
				c-1.6-0.3-3.2-0.3-4.9-0.1c-1.6-0.2-3.2-0.2-4.9,0.1c-3,0.5-5.9,1.8-8.1,3.9c-4.8,4.4-6.4,11.9-3.9,17.9c0.1,0.1,0.1,0.3,0.2,0.5
				c-4.4-3.5-10.5-4.9-16-4c-0.1,0-0.2,0-0.3,0.1c-1.8,0.3-3.5,0.9-5.1,1.7c-6.7,3.4-11.2,10.8-11,18.3c0,0.1,0,0.2,0,0.3
				c-5.7-4.7-13.6-6.7-20.9-5.3c-1.6,0.3-3.2,0.7-4.7,1.3c-6.6,2.6-12,8.2-14.5,14.9c0.3,0,0.6,0,0.9,0c0.9,0,1.8,0,2.8,0h130.6
				C1500,527.1,1501.3,522.5,1501.1,518z"/>
		</g>
		<g>
			<path class="st29" d="M1501.1,521.1c0.1-0.4,0.1-0.8,0.2-1.2c0,0-0.1,0.1-0.1,0.1c0.2-7.6-4.2-15.2-11-18.6
				c-1.5-0.8-3.1-1.3-4.8-1.7c-0.1,0-0.2,0-0.3-0.1c-5.5-1-11.4,0.2-15.8,3.5c-0.2,0.1-0.3,0.3-0.5,0.4c2.8-6.1,1.2-13.9-3.7-18.4
				c-2.2-2-4.9-3.3-7.8-3.8c-1.6-0.3-3.2-0.4-4.9-0.2c-1.6-0.2-3.3-0.1-4.9,0.2c-2.9,0.5-5.6,1.8-7.8,3.8
				c-4.9,4.5-6.5,12.3-3.7,18.4c-0.2-0.1-0.3-0.3-0.5-0.4c-4.5-3.3-10.4-4.5-15.8-3.5c-0.1,0-0.2,0-0.3,0.1
				c-1.7,0.3-3.3,0.9-4.8,1.7c-6.8,3.4-11.3,11-11,18.6c-0.1-0.1-0.2-0.2-0.3-0.3c-5.8-4.6-13.7-6.4-20.9-5
				c-1.5,0.3-2.9,0.7-4.3,1.3c-6.7,2.6-12,8.3-14.5,15c0.2,0,0.4,0,0.6,0c0.7,0,1.3,0,2,0c2.8-5.7,7.7-10.4,13.6-12.7
				c8.4-3.3,18.6-1.7,25.6,4c-0.3-7.6,4.2-15.2,11-18.6c6.8-3.4,15.6-2.5,21.5,2.2c-2.8-6.1-1.2-13.9,3.7-18.4
				c2.4-2.2,5.5-3.5,8.7-4v0c0.8-0.1,1.6-0.2,2.3-0.2c0.8,0,1.6,0.1,2.3,0.2v0c3.2,0.4,6.3,1.8,8.7,4c4.9,4.5,6.5,12.3,3.7,18.4
				c6-4.7,14.7-5.6,21.5-2.2c6.8,3.4,11.3,11,11,18.6C1500,521.9,1500.5,521.5,1501.1,521.1z"/>
		</g>
	</g>
</g>
<g>
	<g>
		<path class="st27" d="M226.9,531.9H-0.6c-24.3-16-13.2-54.8,13.6-61.2c0.6-0.1,1.1-0.3,1.7-0.4c13.9-2.5,28.8,3.4,38.2,14
			c-1.8-17,12-34.1,29-36c17-1.9,34.2,11.7,36.3,28.7c12.3-11.3,31.4-14.8,46.5-7.9c14.2,6.4,23.9,21.9,23.3,37.4c0,0.3,0,0.6,0,0.9
			c-0.1,0.8-0.1,1.5-0.2,2.2c10.2-3.2,21.8-1.3,30.4,4.9c5.9,4.2,10.3,10.5,12.6,17.4"/>
	</g>
	<g>
		<path class="st29" d="M230.8,531.9h-3.9c-2.4-4.4-5.9-8.3-10-11.3c-8.6-6.2-20.3-8.1-30.4-4.9c2.2-16.5-7.9-33.7-23.1-40.6
			c-15.2-6.9-34.2-3.4-46.5,7.9c-2.1-17-19.3-30.6-36.3-28.7c-12.8,1.5-23.7,11.5-27.6,23.5c1.8-14.6,14.1-27.7,28.9-29.3
			c17-1.9,34.2,11.7,36.3,28.7c12.3-11.3,31.4-14.8,46.5-7.9c14.1,6.4,23.8,21.8,23.3,37.2c0,0.3,0,0.6,0,0.9c0,0.8-0.1,1.5-0.2,2.2
			c0,0.1,0,0.1,0,0.2c10.2-3.2,21.8-1.3,30.4,4.9C224.1,519,228.5,525.1,230.8,531.9z"/>
	</g>
</g>
<g>
	<path class="st27" d="M1754.2,717.8h-1822c-3.9,0-7.1-42.2-7.1-94.2s3.2-94.2,7.1-94.2h1822c3.9,0,7.1,42.2,7.1,94.2
		S1758.2,717.8,1754.2,717.8z"/>
</g>
<g>
	<path class="st30" d="M1289.4,331c0,0,4.1,26.6,0.3,32.8s-18.2,25.6-3.1,32.5s21.8-4.9,23.3-15.1s-0.3-35.6-3.6-41.5
		C1303,333.9,1289.4,331,1289.4,331z"/>
	<path class="st31" d="M1312.3,331.3c-3.9-5.1-6.9-7.5-14.3-7.5c-5.1,0-9.8,3.1-11.7,7.9c-0.7,1.9-1.3,3.9-1.7,6.2
		c-0.3,1.1-1.2,3.6-2.2,4.7c-1.1,1.1,1.3,1.9,2.4,2.2c0.2,0.7,0.3,1.4,0.6,2.1c4,11.1,12,7.4,12,7.4s-1.4,10-2.7,11.9l11.6-3.3
		c0,0,0.7-9.3,2.2-11.5C1310.2,349.1,1317.3,337.8,1312.3,331.3z"/>
	<path class="st32" d="M1288.2,422.1c0,0-2.9,42.7-1.8,48.2c1,5.5,36.1,42.6,36.1,42.6l4.8-4.9c0,0-12.8-23.4-17.5-29.6
		s-4.9-11.5-4.9-11.5s9.9-28.9,10.4-32.3c0.5-3.4-1.8-15.1-1.8-15.1L1288.2,422.1z"/>
	<path class="st31" d="M1291.9,422.3c0,0,0.3,43,1.3,50.5s7.8,49.8,7.8,49.8l7.6-1c0,0,3.1-17.5,1.6-26.6
		c-1.6-9.1-4.9-15.1-4.2-18.2c0.8-3.1,9.9-32,10.2-39.9c0.3-7.8-2.6-17.5-2.6-17.5L1291.9,422.3z"/>
	<path class="st17" d="M1306.9,358.6c0,0-7.5,5.6-9.9,5.2c-2.4-0.5-3.6,2.4-5.2,4.7c-1.7,2.4-2.8,5.7-3.8,7.8
		c-0.9,2.1,0.2,4.4,0.9,8c0.8,3.6,0.7,5.9-0.2,10.2s-7.1,51.6-6.3,58.9c0,0,26.3,2.6,39.6-5.1c0,0-4.2-27.8-7.5-34.9
		c-3.3-7.1-5.7-7.3-5.2-12.3c0.5-5,4.5-17,5.2-23.2c0.7-6.1-0.5-9.5-2.1-12.1C1310.7,363.3,1306.9,358.6,1306.9,358.6z"/>
	<path class="st30" d="M1301,522.7c0,0-7.1,7-11.3,7.5c-4.2,0.5-2.7,4.8,4.2,3.8c6.9-0.9,10.6-1.8,12.4-1.5s3.5,0.2,4.2-1.1
		c0.7-1.3-2-9.8-2-9.8L1301,522.7z"/>
	<path class="st30" d="M1322.5,512.9c0,0,0.4,10.6-0.6,14.4c-0.8,3,6.1-0.3,7.4-2.8s2.8-7.1,4.3-7.7c1.5-0.7,3.3-2.3,3-3.6
		c-0.3-1.3-9.2-5.1-9.2-5.1L1322.5,512.9z"/>
	<path class="st31" d="M1297.3,370.4c-0.5,0.7-0.8,1.5-1,2.3c-0.8,4.1-4.2,20.9-6.1,22.6c-2.2,1.9-26.6-1.1-29.8-2.2
		c-1.1-0.4-2.9-1.6-4.9-3.1c-1.5,0.8-3.3,0.5-5.2,0.5c0,0,0,0,0,0c-1.3,1.3-8-4.5-8.6-2.4s8.2,9.1,14.7,10.1
		c6.5,1.1,36.7,8.4,38.7,7.3c1.9-1.1,10.4-12.5,12.5-25.7C1309.5,367.9,1300.7,366,1297.3,370.4z"/>
	<path class="st33" d="M1255.5,390c-4.2-3-9.1-6.9-9.1-5.3c0,2.4,5.1,4.5,3.9,5.8C1252.1,390.6,1253.9,390.9,1255.5,390z"/>
	<path class="st30" d="M1336.9,395.1c-4.8,4.6-13.1,7.4-20.4,3.4c-3-1.7-5.4-5-4.2-19.3s-11.3-28.6-13-29c-1.8-0.4-1.1-5.7,0-5.9
		s3.2-2.7,1.8-3.9c-1.4-1.2-3.2,0-3.2,0c-8.4,0-10.4-11.4-10.4-11.4c1.7-1.9,3.6-3.2,5.5-4.1c8.3-3.9,17.6,0.4,19.7,5.6
		c2.6,6.4,6.4,9.4,9.2,10.9c4.4,2.3,8.2,5.6,10.6,10c0.8,1.4,1.5,3,2,4.7c2.7,8.2-1.4,15.4-1.4,15.4s5.5,5.8,7.8,13.9
		C1341.7,388.4,1340,392.1,1336.9,395.1z"/>
	<path class="st34" d="M1336.9,395.1l-0.3,0.1c2-11.9-9.8-23.1-9.8-23.1c2.2-13.9,1-21.7-6.3-26.2c-7.4-4.5-7.2-7-12.7-15.1
		c-3.6-5.3-10.4-6.1-14.7-5.9c8.3-3.9,17.6,0.4,19.7,5.6c2.6,6.4,6.4,9.4,9.2,10.9c4.4,2.3,8.2,5.6,10.6,10c0.8,1.4,1.5,3,2,4.7
		c2.7,8.2-1.4,15.4-1.4,15.4s5.5,5.8,7.8,13.9C1341.7,388.4,1340,392.1,1336.9,395.1z"/>
	<g>
		<polygon class="st35" points="1233.2,376.5 1232.6,389.5 1254.8,400.4 1252.1,379.4 		"/>
		<polygon class="st36" points="1252.9,385.7 1233.1,379.7 1233.2,376.5 1252.1,379.7 		"/>
		<polygon class="st36" points="1272.1,372.8 1275.1,387.8 1254.8,400.4 1252.1,379.4 		"/>
		<polygon class="st37" points="1252.4,381.9 1252.9,385.7 1272.7,375.8 1272.1,373.6 		"/>
		<polygon class="st38" points="1231.4,372.9 1252.8,376.3 1272.1,369.5 1253.5,367.3 		"/>
		<polygon class="st39" points="1231.4,372.9 1231.7,377.1 1253.4,382.1 1252.8,376.3 		"/>
		<polygon class="st35" points="1272.1,369.5 1273.8,374.3 1253.4,382.1 1252.8,376.3 		"/>
		<path class="st40" d="M1262.8,372.9c0-0.2-0.1-0.3-0.3-0.3l-9.2-1.7c0,0,0.1,0,0.1,0l6.6-2.4c0.2-0.1,0.3-0.3,0.2-0.5
			c-0.1-0.2-0.3-0.3-0.5-0.2l-1.5,0.6c0.6-0.5,1.1-1.1,1.3-1.7c0.2-0.5,0-1.1-0.3-1.6c-0.4-0.5-0.9-0.7-1.4-0.7
			c-2.2,0.2-4.9,4.7-5.7,6c-0.7-1.6-2.8-5.7-4.5-5.8c-0.3,0-0.8,0.1-1.2,0.7c-0.3,0.5-0.4,1-0.2,1.6c0.4,1.3,2,2.5,3.4,3.3l-5.4-1
			c-0.2,0-0.4,0.1-0.4,0.3s0.1,0.4,0.3,0.4l6.5,1.2l-8.6,3.1c-0.2,0.1-0.2,0.2-0.2,0.4l0.5,19.8c0,0.2,0.2,0.4,0.4,0.4h0
			c0.2,0,0.4-0.2,0.4-0.4l-0.5-19.5l6.4-2.4c-1.6,1.5-3.1,3.9-2.9,7.7c0.2,3.9-0.6,5.5-1.2,6.2c-0.5,0.5-0.9,0.5-0.9,0.5
			c-0.2,0-0.4,0.1-0.4,0.4s0.2,0.4,0.4,0.4c0,0,0,0,0,0c0.2,0,0.8,0,1.4-0.7c1.1-1.1,1.6-3.4,1.5-6.8c-0.3-6.3,4.3-8.5,5.2-8.8
			l0.1,0l10.2,1.9l2.8,21.1c0,0.2,0.2,0.3,0.4,0.3c0,0,0,0,0.1,0c0.2,0,0.3-0.2,0.3-0.4L1262.8,372.9z M1257.7,365.1
			C1257.7,365.1,1257.8,365.1,1257.7,365.1c0.3,0,0.6,0.1,0.8,0.4c0.2,0.3,0.3,0.6,0.2,0.9c-0.4,1.4-3.7,3-5.7,3.8l0,0
			C1254.1,368.3,1256.2,365.2,1257.7,365.1z M1246.9,366.6c-0.1-0.4-0.1-0.7,0.1-1c0.2-0.3,0.3-0.3,0.4-0.3c0,0,0,0,0,0
			c0.9,0.1,2.5,2.6,3.6,4.9C1249.5,369.4,1247.3,367.9,1246.9,366.6z"/>
	</g>
</g>
<path class="st41" d="M697.9,172.4"/>
<g>
	<path class="st42" d="M725.4,416.5h-14.7v-23.6l-19.8,12.6l-10.1-5.7l5.1-12.1l-13.3-6.1v15.5c-0.6-0.2-4.3-1-11.2-2.5
		c-6.5-1.3-10.8-2-12.8-2h-0.4c-0.1,3.6-0.6,6.3-1.7,8.1c-1.6,2-4,3.5-7.3,4.4c-2.8,0.7-5.6,1.1-8.3,1.1c-0.6,0-1.9-0.1-3.8-0.2
		c-2-0.1-3.9-0.9-5.8-2.3v-5.9c1.4,0.4,2.7,0.6,3.8,0.6c2.5,0,4.4-1.1,5.8-3.2s2.1-4.8,2.2-8v-2.5c-0.7-4.2-4-6.3-10-6.3
		c-0.8,0-1.7,0-2.5,0.1c-1.4,0.1-2.1,0.2-2.1,0.4h0.5v-0.3l2-3.9h-2.7V370h56.7v2.1c2.6-0.8,5.8-1.4,9.6-1.7l2.3-0.1
		c3.1,0,6.7,0.6,10.8,1.7c4,1.1,8.4,3.8,13.2,7.9v-9.9h18.6v4.7h-3.9L725.4,416.5L725.4,416.5z M658.1,388.7v-14h-25.3
		c5,1.6,8.5,3,10.7,4.1s3.5,2.1,3.8,3.1c0.4,1,0.6,2.1,0.6,3.4v1h0.6C651.8,386.3,655,387.1,658.1,388.7z M693.5,397.5l16.3-10.2
		l-1-3.5c-1.8-5.1-7.5-7.6-17-7.6h-1.4l6.5,6.7L693.5,397.5z"/>
	<path class="st42" d="M749.7,376.9v40.9h-14.9v-40.9h-20.7v-5.2h3l0.4-1.3c0.3-0.9,0.3-1.6,0.1-2s-0.7-0.9-1.5-1.4H716
		c-0.2-0.2-0.5-0.4-1-0.6c-0.5-0.2-1.4-0.5-2.5-0.7s-2.8-0.4-5-0.5c-2.2-0.1-5-0.2-8.5-0.1c-0.6,0-1.2-0.3-1.6-0.9
		c-0.5-0.6-0.9-1.1-1.2-1.7c-0.5-1.1-0.5-2.1,0.2-3.1c3.6-4.8,10-7.6,19.2-8.4c5.7-0.4,11.2,0,16.5,1.1s9.2,3,11.7,5.3
		c1.9,1.9,3.2,3.9,4.1,5.8c0.8,1.9,1.4,3.5,1.6,4.8c0.2,1.3,0.3,1.9,0.2,2v1.8h5.3v5.2L749.7,376.9L749.7,376.9z M734.8,371.7v-1.8
		c0-3.8-1.6-6.8-4.8-9c-2.7-1.6-5.6-2.5-8.5-2.5c-2.4,0-4.8,0.5-7.3,1.5c-0.5,0.2-0.9,0.4-1.1,0.6s-0.4,0.4-0.4,0.8
		c0.1,0.7,0.5,1.3,1.3,1.6c0.7,0.3,1.8,0.6,3.4,1l0.3,0.1c2.1,0.5,4.3,1.2,6.5,2.3c0.5,0.3,0.9,0.7,1.2,1.1c0.4,0.9,0.6,1.7,0.6,2.5
		l-0.2,1.9L734.8,371.7L734.8,371.7z"/>
	<path class="st42" d="M782,414.9h-0.7c-7.2,0-13.4-2.5-18.6-7.6c-4.2-4.6-6.3-10.9-6.3-18.9v-1l11.6-0.3c0,1.7,0.4,3.9,1.2,6.6
		s2.3,5.3,4.4,7.8c3.4,3.7,8,5.6,13.9,5.7c5.9-0.1,10.3-1.7,13.1-4.9c0.6-0.7,1-1.5,1.1-2.2s0.3-1.7,0.3-2.8v-4l-2.9,2.4
		c-2.1,1.5-4.6,3-7.7,4.6l-13.5-3.9v-19.5h-24.6v-5.2h66.7v5.2h-27.2V394l2.9-2.3c2.5-2,4.4-4.6,5.7-7.6l15.5,2.9v10.1
		c0,2.6-0.3,4.8-1,6.7c-0.7,1.8-2.1,3.6-4.3,5.4c-1.8,1.5-5.3,2.8-10.3,4C796,414.3,789.7,414.9,782,414.9z"/>
	<path class="st42" d="M857.1,435.6c-4.8,0-9.6-2-14.3-6c-5.3-5.1-8-13.8-8-25.9c0-8.1,1-14.1,3.1-18.1c1.2-2.7,3.4-5.4,6.8-8.1
		s7.1-4.7,10.9-5.8h8.8v5.2h-0.1c-10.8,1.4-16.1,12.7-16.1,34c0,9.1,1.1,15.4,3.4,18.8c1.5,1.6,3.3,2.5,5.3,2.5
		c1.9,0,3.5-0.8,4.6-2.5l-3.6-1.2c-0.7-0.2-1.3-0.8-1.9-1.6s-0.8-1.8-0.8-3c0-0.7,0.2-1.5,0.6-2.5s1.4-1.8,3-2.6s3-1.2,4.3-1.2
		c1.3,0,2.5,0.4,3.5,1.3c1.8,1.6,2.6,3.8,2.6,6.4c0,1.1-0.2,2.4-0.5,3.7c-0.9,2.8-3.2,4.8-6.9,6
		C860.2,435.4,858.6,435.6,857.1,435.6z"/>
	<path class="st42" d="M917.1,417.8h-14.9v-16.5l-22.8,11.1l-13-6.6l5.6-13l-12.8-6.9l3.1-14.5h0.5c2-0.5,5.2-0.9,9.5-1.3l2.7-0.1
		c3.5,0,7.5,0.5,11.8,1.5s8.5,3.6,12.2,7.6l3.2,3.6v-11.1h20.2v5.2h-5.3L917.1,417.8L917.1,417.8z M882.8,403.9l19.4-10.5v-3.5
		l-0.3-0.5c-3.7-6.2-9.2-9.5-16.7-10.1l-4-0.1l6.8,8L882.8,403.9z"/>
	<path class="st42" d="M940.8,418.1H926v-41.3h-5.3v-5.2h25.6v5.2h-5.3L940.8,418.1L940.8,418.1z"/>
	<path class="st42" d="M1009,419.4c-3,0-6.7-0.4-11.2-1.1s-8.9-1.7-13.1-3v-17c-2.2-2.5-4.7-3.8-7.4-3.8c-0.7,0-1.4,0.1-2.1,0.3
		c0,1.5-0.1,2.9-0.4,4.4c-0.7,3.9-3.5,6.5-8.6,7.8c-2.8,0.7-5.6,1.1-8.5,1.1c-0.5,0-1.8-0.1-3.9-0.2s-4-0.8-5.9-2.1v-6.4
		c1.3,0.3,2.4,0.5,3.5,0.5c2.2,0,4-0.6,5.3-1.8c2-1.7,3-3.9,3-6.5v-1.7c0-1.9,0-2.9-0.1-3.2c-0.5-4.3-3.8-6.4-9.7-6.4
		c-0.8,0-1.6,0.1-2.4,0.2v-3.5h-3.1v-5.2h75.4c0.1-1,0.2-1.9,0.2-2.7c0-3.1-0.7-5.6-2-7.7c-1.4-2-4-3.1-8-3.1c-1,0-2.1,0.1-3.3,0.2
		l-0.1-5.4c2.2-0.3,4.4-0.5,6.5-0.5c2.8,0,6.1,0.4,9.7,1.2c3.6,0.8,6.7,2.7,9.4,5.6c2.2,2.4,3.3,5.6,3.3,9.6c0,0.9-0.1,1.8-0.2,2.8
		h2.2v5.2h-37.8v7.2c-0.7,1.4-1.2,3.5-1.5,6.4l-0.1,1.7c0,2.2,0.5,4.4,1.6,6.6v13.6l2.2,1c4.3-0.1,7.9-1,10.7-2.7
		c2.8-1.7,4.7-3.4,5.8-5.2c2.4-3.9,3.6-7.2,3.6-9.9c0-2.5-1-4.6-3.1-6.2l-3.7-1.2l0.2,0.6c1,2.4,1.5,4.3,1.5,5.7
		c0,1.1-0.3,2-0.8,2.8c-0.8,1.1-2.1,1.8-3.8,2.2c-0.7,0.1-1.3,0.2-2,0.2c-1,0-2.2-0.2-3.5-0.6c-1.3-0.4-2.3-1.3-3-2.9
		c-0.7-1.5-1-3-1-4.4c0-1.3,0.4-2.8,1.2-4.7s3-3.3,6.5-4.4c2-0.4,4.2-0.6,6.6-0.6c5.8,0,10.4,2.1,13.7,6.3c2.5,3.1,3.7,6.5,3.7,10.3
		c0,0.8-0.1,1.6-0.2,2.4c-0.8,4.9-3.1,9-6.8,12.1c-3.8,3.2-8.2,5.2-13.2,5.9C1012.4,419.3,1010.7,419.4,1009,419.4z M984.7,392.1
		v-15.2h-22.9l9.7,3.6c1.8,0.6,2.8,1.4,3.2,2.5c0.3,0.8,0.5,1.6,0.5,2.5l-0.1,2.5l1.6-0.1c1.3,0,2.4,0.3,3.5,0.8
		c1.1,0.5,2.4,1.5,3.9,2.9L984.7,392.1z"/>
</g>
<g>
	<g>
		<path class="st42" d="M638.2,472.2c-0.6,0-1.8-0.1-3.6-0.2c-1.8-0.1-3.4-0.5-4.8-0.9c-0.7-0.2-1.3-0.4-1.9-0.8
			c-3.9-2.3-6.3-6-7.1-11.2c-0.2-1.3-0.3-2.5-0.3-3.6c0-1,0.1-2,0.2-3.1h9.3v6c0.1,2.9,0.7,5,1.7,6.4s2.1,2.3,3.2,2.6
			s1.9,0.6,2.4,0.6l1,0c2.8,0,5-0.8,6.5-2.2c1.7-1.6,2.5-4.1,2.5-7.5v-1.1c0-0.3,0-0.6-0.2-0.8c-1-2.9-2.5-4.3-4.6-4.3
			c-0.7,0-1.3,0.2-1.9,0.5l-0.8,0.4l1.4,0.5c1.7,0.8,2.5,1.8,2.5,3.2c0,1.4-0.4,2.6-1.3,3.5s-2,1.4-3.3,1.4c-0.9,0-1.7-0.2-2.6-0.5
			s-1.5-0.9-2-1.5c-0.5-0.7-0.8-1.5-0.8-2.5c0-1.8,0.4-3.4,1.3-4.6c0.9-1.1,1.8-1.9,2.8-2.3s2.4-0.6,4-0.6c3,0,5.4,0.7,7.3,2.1
			c1.9,1.4,3,3.3,3.5,5.9c0.2,0.8,0.3,2,0.3,3.5c0,0.2,0,0.8,0,1.8c0,1-0.5,2.4-1.5,4.2c-1,1.8-2.8,3.1-5.3,4
			C643.3,471.8,640.7,472.2,638.2,472.2z"/>
		<path class="st42" d="M667.9,472.1c-4,0-6.8-0.7-8.6-2.1c-1.7-1.4-2.6-3.8-2.7-7.1c-0.2-3.7,0.5-6.3,2.1-7.9
			c1.5-1.6,4-2.4,7.6-2.5c2,0,3.9,0,5.6,0.1c1.7,0.1,3.1,0.5,4.2,1.1c2.1,1.1,3.2,3.6,3.4,7.6c0.2,3.7-0.6,6.4-2.2,8.1
			C675.7,471.3,672.6,472.1,667.9,472.1z M663.6,461c0,0.5,0,1.1,0,1.7v1.2c0,1,0,1.9,0.1,2.6c0.1,0.7,0.4,1.3,0.8,1.8
			c0.6,0.7,1.8,1,3.7,1h0.3c2-0.1,3.3-0.6,3.7-1.5c0.4-0.9,0.6-2.1,0.5-3.5c0-0.6,0-1.2,0-2V461c0-0.9,0-1.7-0.1-2.4
			s-0.3-1.2-0.7-1.6c-0.6-0.7-1.8-1-3.7-1h0c-1.9,0-3.1,0.3-3.8,1c-0.4,0.4-0.6,1-0.7,1.6C663.6,459.3,663.6,460,663.6,461z"/>
		<path class="st42" d="M697.3,479.6c-2,0-4-0.8-6-2.5c-2.2-2.1-3.3-5.8-3.3-10.8c0-3.4,0.4-5.9,1.3-7.6c0.5-1.1,1.4-2.2,2.9-3.4
			c1.4-1.1,3-1.9,4.6-2.4h3.7v2.2h0c-4.5,0.6-6.7,5.3-6.7,14.2c0,3.8,0.5,6.4,1.4,7.8c0.6,0.7,1.4,1,2.2,1c0.8,0,1.5-0.3,1.9-1
			l-1.5-0.5c-0.3-0.1-0.6-0.3-0.8-0.7c-0.2-0.3-0.3-0.8-0.3-1.3c0-0.3,0.1-0.6,0.2-1c0.2-0.4,0.6-0.8,1.2-1.1
			c0.7-0.3,1.2-0.5,1.8-0.5c0.6,0,1,0.2,1.5,0.5c0.7,0.7,1.1,1.6,1.1,2.7c0,0.5-0.1,1-0.2,1.5c-0.4,1.2-1.3,2-2.9,2.5
			C698.6,479.5,697.9,479.6,697.3,479.6z"/>
		<path class="st42" d="M716.8,472.1h-6.2c-0.6-1.3-1.8-2.4-3.5-3.4c-1.1-0.5-2.2-0.8-3.3-0.8s-1.9,0.1-2.5,0.2l-3.2-6.1l12-7h-13.2
			v-2.2h31.4v2.2h-10.6l4.2,1.4c2.2,0.8,3.5,1.8,4.2,3.2c0.3,0.6,0.5,1.2,0.7,2c0.1,0.5,0.2,0.9,0.2,1.4c0,1.8-0.6,3.1-1.8,3.9
			c-0.6,0.4-1.2,0.6-2,0.8c-0.5,0.1-1,0.2-1.5,0.2c-1.1,0-2-0.5-2.7-1.4c-0.6-0.7-0.8-1.5-0.8-2.5c0-1.3,0.5-2.2,1.5-2.9
			c0.4-0.2,0.9-0.4,1.3-0.4l0.5-0.1c0.7,0,1.3,0.2,1.8,0.6c-0.1-0.4-0.3-0.9-0.7-1.5c-0.3-0.4-1-0.8-2-1.2c-1-0.4-2-0.7-2.9-0.7
			l-0.8,0v4.2c-0.5,0.8-0.7,1.6-0.7,2.4c0,0.1,0,0.4,0,0.9c0,0.5,0.2,1.1,0.6,1.8L716.8,472.1L716.8,472.1z M710.6,467.8v-5.6
			l-5.4,3.1l1.7,0.5c1.1,0.4,1.9,0.8,2.5,1.2L710.6,467.8z"/>
		<path class="st42" d="M729.7,452.9v-0.8c0-0.1,0-0.4,0-1.1c0-0.6,0.2-1.4,0.5-2.3c0.3-0.9,1-1.8,1.8-2.6c3.3-2.9,9.2-3.4,17.7-1.6
			l-2.1,3.7c-0.9-0.3-2.3-0.6-4.2-0.8c-1.9-0.2-3.6,0.1-5.2,1c-1.3,0.8-2.1,2.1-2.3,3.9l-0.1,0.8h2.3v2.2h-2.2v17.1h-6.2V455h-2.2
			v-2.2L729.7,452.9L729.7,452.9z"/>
		<path class="st42" d="M773.2,472.7h-6.2c-0.2-0.8-0.4-3.1-0.5-6.9c0-1.1,0.1-2.3,0.3-3.4l0.4-2.1l-1.2,0.4
			c-1.1,0.4-2.1,0.5-3.1,0.5c-0.6,0-1.3-0.1-2.2-0.4c-0.9-0.2-1.8-0.7-2.6-1.4c-0.9-0.7-1.5-1.3-1.9-1.9l-0.5-0.8l-0.6,0.7
			c-0.5,0.6-0.9,1.2-1.2,1.8c-0.2,0.6-0.4,1.1-0.5,1.5c-0.1,0.4-0.1,0.6-0.1,0.7c0,0.6,0.2,1.2,0.6,1.6c0.3,0.2,0.6,0.3,0.9,0.3h0.7
			c0.9-0.1,1.5-0.6,1.8-1.5l6.5,1.3c0.1,0.6,0.2,1.2,0.2,1.9c0,0.5,0,1.3-0.1,2.2s-0.7,2-1.9,2.9c-1.8,1.1-5,1.6-9.4,1.6
			c-0.9,0-1.9,0-3-0.1c-1.3,0-2.8-0.2-4.5-0.6c-1.7-0.4-3.2-1.3-4.5-2.7c-1.4-1.7-2.1-4.1-2.1-7.2c0-0.8,0-1.7,0.2-2.6l6.4-0.1
			c-0.1,0.5-0.1,1-0.1,1.6c0,0.6,0,1.5,0.2,2.6c0.1,1.2,0.6,2.4,1.6,3.8c1.3,1.6,3.2,2.4,5.7,2.4c2.1,0,3.5-0.4,4.3-1.2
			c0.4-0.4,0.6-1,0.6-1.5v-1.6l-1.2,1c-0.2,0.1-0.5,0.3-1,0.5c-0.4,0.1-1,0.2-1.5,0.2c-3.6,0-5.6-1.4-5.9-4.2c0-0.5-0.1-1-0.1-1.4
			c0-1,0.2-1.9,0.5-2.7s0.8-1.4,1.4-1.7l2.4-1.4h-14.8v-2.2h38.2v2.2h-17.1l1.1,1.2c1,1.1,2.1,1.7,3.4,1.9c1.6,0,3.2-0.4,4.8-1.1
			l6.5,1.9c-1.1,2.4-1.6,4.8-1.6,7.3C772.7,468.4,772.9,470.6,773.2,472.7z"/>
		<path class="st42" d="M806,472.1h-6.2v-6.9l-9.5,4.6l-5.4-2.8l2.3-5.4l-5.3-2.9l1.3-6.1h0.2c0.8-0.2,2.2-0.4,4-0.5l1.1,0
			c1.5,0,3.1,0.2,4.9,0.6c1.8,0.4,3.5,1.5,5.1,3.2l1.3,1.5v-4.6h8.5v2.2H806V472.1z M791.7,466.3l8.1-4.4v-1.4l-0.1-0.2
			c-1.5-2.6-3.9-4-7-4.2l-1.7,0l2.8,3.3L791.7,466.3z"/>
		<path class="st42" d="M828.4,472.1h-6.2c-0.6-0.9-2-1.7-4-2.3c-1.1-0.3-2.2-0.5-3.4-0.5c-1.1,0-2.2,0.1-3.3,0.4l-2.6-5.2l5.5-4.1
			l-0.2-0.5c-0.4-0.8-1.1-1.3-2.3-1.4c-0.6-0.1-1.1-0.1-1.7-0.1s-1,0-1.5,0.1l0.1-3.4h-1.4v-2.2h23.2v2.2h-2.2L828.4,472.1
			L828.4,472.1z M822.2,469.6V455h-9.7l3.5,1.4c1.3,0.6,2.5,1.2,3.7,1.8l0.5,5.5l-3.8,3.4l1.4,0.3c1.4,0.2,2.4,0.7,3.2,1.3
			L822.2,469.6z"/>
		<path class="st42" d="M821.7,451l-1.8-4.1c2.8-1.3,5.4-3,7.8-5l1.7,4C827.1,447.9,824.5,449.5,821.7,451z"/>
		<path class="st42" d="M849.2,475.3c-2.9,0-5.4-0.4-7.3-1.1c-1.7-0.6-3.2-1.7-4.3-3.3h0.5c0.8,0,1.5,0,2.2-0.1
			c0.6-0.1,1-0.2,1.1-0.2c0.1,0,0.3-0.1,0.7-0.2s0.8-0.4,1.3-0.7c0.9,1.6,2.4,2.4,4.6,2.5l0.9,0c4.7,0,7.1-2.3,7.1-6.9
			c0-0.1,0-0.2-0.1-0.4c-0.2-0.9-0.5-1.6-1.1-2.1c-0.6-0.5-1.2-0.7-1.9-0.7c-0.6,0-1.1,0.2-1.6,0.5c0.4,0.2,0.8,0.5,1.2,1
			c0.4,0.4,0.7,0.9,0.8,1.3l0,0.8c0,1-0.3,1.9-1,2.5c-0.6,0.6-1.5,1-2.7,1c-2.1,0-3.5-0.9-4.2-2.6c-0.2-0.5-0.3-1.2-0.3-1.9l0-0.7
			c0-0.1,0-0.3,0-0.6c-0.2-0.5-0.5-1-0.9-1.4c-1.2-1.3-2.4-1.9-3.8-1.9c-0.5,0-0.9,0.1-1.4,0.2c-1.2,0.3-2.1,1-2.7,2l-1,2.4l0,0.2
			c0,0.5,0.3,1.1,0.7,1.7c0.4,0.6,1,0.9,1.9,1l1.4-0.5l-0.9-0.8c-0.4-0.4-0.6-1-0.6-1.6c0-0.5,0.2-1,0.6-1.2c0.7-0.5,1.3-0.7,2-0.7
			c0.4,0,0.8,0.1,1.2,0.3c0.9,0.4,1.4,1.2,1.4,2.4c0,0.6-0.1,1-0.4,1.4s-0.5,0.7-0.9,1s-0.6,0.4-0.9,0.5c-0.3,0.1-0.4,0.1-0.5,0.1
			c0,0-0.3,0-0.7,0.1c-0.4,0.1-1,0.1-1.7,0.1h-0.3c-1.6,0-2.9-0.4-4.1-1.2c-1.5-1.1-2.5-2.9-2.7-5.5l2.3-3.9
			c0.2-0.2,0.9-0.5,1.8-0.9c0.5-0.2,1.2-0.3,1.9-0.3c0.5,0,1.4,0.1,2.4,0.3s2.5,1.1,4.3,2.7l1.3,1.2v-6.1h-15.2v-2.2h32.5v2.2h-11.1
			v5.1c2.4,0,4.4,0.3,5.8,0.8c2.7,0.9,4,3,4,6.2c0,1.5-0.4,2.8-1.1,4.1c-0.9,1.6-2.5,2.7-4.8,3.3C853.5,475,851.5,475.3,849.2,475.3
			z"/>
		<path class="st42" d="M880.2,472.2c-1.3,0-2.8-0.1-4.3-0.3c-2-0.2-3.7-1.1-5.1-2.5c-0.8-0.9-1.1-2-1.1-3.3c0-0.8,0.1-1.5,0.4-2.2
			c0.7-1.8,2.2-2.8,4.4-3c0,0,0.2,0,0.6,0c2,0,3.6,0.7,4.8,2c0.6,0.8,0.9,1.6,0.9,2.6l0,0.7c-0.2,1.2-0.8,2.2-1.9,2.8l-2.3,1.4
			l2.7,0c0.5,0,1.1,0,1.5-0.1c1.7-0.3,3-1.1,3.9-2.5c1-1.6,1.5-3.5,1.5-5.5c0-0.5-0.1-1.3-0.2-2.1c-0.1-0.9-0.6-1.8-1.4-2.8
			c-1-1-2.2-1.7-3.5-2s-2.6-0.4-3.9-0.5c-1,0-2-0.1-2.8-0.3s-1.6-0.5-2-1c-0.6-0.6-0.9-1.4-0.9-2.4v-0.6c0-0.3,0-0.5,0-0.7l7.1-0.1
			c0,1,0.2,1.7,0.8,2.1c0.5,0.3,1,0.5,1.6,0.6c1.5,0.3,2.8,0.5,3.9,0.6s2.2,0.4,3.2,0.7c3.7,1.4,5.5,4.1,5.5,8.3c0,2.1-0.7,4-2,5.8
			C889.2,470.8,885.4,472.2,880.2,472.2z"/>
		<path class="st42" d="M917.2,472.1h-7.5c-4.3,0-7.2-0.6-8.6-1.8c-1.8-1.8-2.9-4-3.4-6.7c-0.3-1.7-0.4-3.4-0.4-5
			c0-0.9,0.1-2.2,0.2-3.9c0.2-1.7,0.4-3,0.6-4h8.9l-0.3,2.2v0.3l0.1,0.2c0.9,1.5,2.1,2.2,3.7,2.2l0.9,0c0.3-1.7,0.8-3.4,1.5-4.8
			l6.6,1.1c-0.5,0.8-1,2-1.4,3.6c-0.2,0.8-0.3,1.6-0.3,2.4c0,0.9,0.1,1.9,0.3,2.9l0.1,0.2c0.4,0.7,1,1.3,1.6,1.7
			c0.5,0.3,1.6,0.4,3.1,0.5h0.1v1.7C923,469.7,921.1,472.1,917.2,472.1z M913,469.5c2,0,3-1.2,3-3.7v-0.7h-0.7c-2-0.1-3.3-1-3.9-2.7
			c-0.2-0.7-0.3-1.4-0.3-2.2v-0.7l0.2-0.9l-2.1,0.1c-0.3,0-0.6-0.1-0.9-0.1s-0.6-0.2-1-0.4s-0.7-0.5-1-0.7c-0.1,1.7-0.2,2.9-0.2,3.4
			c0,1.7,0.2,3.5,0.6,5.2s1.5,2.9,3.3,3.4L913,469.5L913,469.5z"/>
		<path class="st42" d="M946.6,472.1h-7.5c-4.3,0-7.2-0.6-8.6-1.8c-1.8-1.8-2.9-4-3.4-6.7c-0.3-1.7-0.4-3.4-0.4-5
			c0-0.9,0.1-2.2,0.2-3.9c0.2-1.7,0.4-3,0.6-4h8.9l-0.3,2.2v0.3l0.1,0.2c0.9,1.5,2.1,2.2,3.7,2.2l0.9,0c0.3-1.7,0.8-3.4,1.5-4.8
			l6.6,1.1c-0.5,0.8-1,2-1.4,3.6c-0.2,0.8-0.3,1.6-0.3,2.4c0,0.9,0.1,1.9,0.3,2.9l0.1,0.2c0.4,0.7,1,1.3,1.6,1.7
			c0.5,0.3,1.6,0.4,3.1,0.5h0.1v1.7C952.5,469.7,950.5,472.1,946.6,472.1z M942.5,469.5c2,0,3-1.2,3-3.7v-0.7h-0.7
			c-2-0.1-3.3-1-3.9-2.7c-0.2-0.7-0.3-1.4-0.3-2.2v-0.7l0.2-0.9l-2.1,0.1c-0.3,0-0.6-0.1-0.9-0.1s-0.6-0.2-1-0.4s-0.7-0.5-1-0.7
			c-0.1,1.7-0.2,2.9-0.2,3.4c0,1.7,0.2,3.5,0.6,5.2s1.5,2.9,3.3,3.4L942.5,469.5L942.5,469.5z"/>
		<path class="st42" d="M972.1,472.8c-1.3,0-2.7-0.1-4.2-0.4c-2.2-0.4-4.2-0.8-6-1.3v-16h-2.2v-2.2h16.9v-1.1c0-0.4,0-0.9-0.1-1.5
			s-0.3-1.2-0.8-1.8s-1.2-1-2.2-1.2c-0.3,0-0.6,0-1.1,0l-1.4,0.1V445l0.7-0.1c0.5,0,1.1-0.1,2-0.1c3.5,0,6,0.8,7.7,2.4
			c1.1,1.1,1.7,2.6,1.7,4.3l0,1.2h0.9v2.2h-15.8v2.9c-0.3,0.6-0.5,1.5-0.7,2.6c0,0.2,0,0.5,0,0.7c0,0.9,0.2,1.9,0.7,2.8v5.7l1.2,0.1
			c3.1-0.1,5.3-1.1,6.6-3c1-1.5,1.5-3,1.5-4.4c0-0.2,0-0.5-0.1-0.6c-0.1-0.5-0.3-0.8-0.6-1.1c-0.3-0.2-0.6-0.4-0.9-0.5
			c-0.3-0.1-0.6-0.1-0.8-0.2h-0.3l0.3,0.3c0.3,0.3,0.5,0.8,0.5,1.3c0,1.8-1,2.7-3.1,2.7c-1.2,0-2-0.5-2.6-1.4
			c-0.3-0.6-0.5-1.4-0.5-2.2c0-0.4,0.2-0.9,0.5-1.5c0.5-0.9,1.4-1.6,2.7-1.9c0.8-0.2,1.7-0.3,2.8-0.3c2.4,0,4.3,0.9,5.7,2.6
			c1,1.3,1.5,2.8,1.5,4.4l0,0.9c-0.3,2.2-1.5,4.1-3.4,5.6C977.2,472.1,974.9,472.8,972.1,472.8z"/>
		<path class="st42" d="M991.5,472.3h-6.2V455h-2.2v-2.2h10.7v2.2h-2.2L991.5,472.3L991.5,472.3z"/>
		<path class="st42" d="M1013,472.1h-6.2c-0.6-1.3-1.8-2.4-3.5-3.4c-1.1-0.5-2.2-0.8-3.3-0.8s-1.9,0.1-2.5,0.2l-3.2-6.1l12-7H993
			v-2.2h31.4v2.2h-10.6l4.2,1.4c2.2,0.8,3.5,1.8,4.2,3.2c0.3,0.6,0.5,1.2,0.7,2c0.1,0.5,0.2,0.9,0.2,1.4c0,1.8-0.6,3.1-1.8,3.9
			c-0.6,0.4-1.2,0.6-2,0.8c-0.5,0.1-1,0.2-1.5,0.2c-1.1,0-2-0.5-2.7-1.4c-0.6-0.7-0.8-1.5-0.8-2.5c0-1.3,0.5-2.2,1.5-2.9
			c0.4-0.2,0.9-0.4,1.3-0.4l0.5-0.1c0.7,0,1.3,0.2,1.8,0.6c-0.1-0.4-0.3-0.9-0.7-1.5c-0.3-0.4-1-0.8-2-1.2c-1-0.4-2-0.7-2.9-0.7
			l-0.8,0v4.2c-0.5,0.8-0.7,1.6-0.7,2.4c0,0.1,0,0.4,0,0.9c0,0.5,0.2,1.1,0.6,1.8L1013,472.1L1013,472.1z M1006.7,467.8v-5.6
			l-5.4,3.1l1.7,0.5c1.1,0.4,1.9,0.8,2.5,1.2L1006.7,467.8z"/>
		<path class="st42" d="M1032.1,472.3h-6.2V455h-2.2v-2.2h10.7v2.2h-2.2L1032.1,472.3L1032.1,472.3z"/>
	</g>
</g>
</svg>
