<?xml version="1.0" encoding="utf-8"?>
<!-- Generator: Adobe Illustrator 27.8.1, SVG Export Plug-In . SVG Version: 6.00 Build 0)  -->
<svg version="1.1" xmlns="http://www.w3.org/2000/svg" xmlns:xlink="http://www.w3.org/1999/xlink" x="0px" y="0px"
	 viewBox="0 0 750 324.7" style="enable-background:new 0 0 750 324.7;" xml:space="preserve">
<style type="text/css">
	.st0{fill:#F4F4F7;}
	.st1{fill:#E5E2F0;}
	.st2{fill:#B7C0DE;}
	.st3{fill:#E26678;}
	.st4{fill:#FF8591;}
	.st5{opacity:0.2;fill:#E26678;}
	.st6{fill:#2B335B;}
	.st7{fill:#FFFEFF;}
	.st8{fill:#33395A;}
	.st9{fill:#2A2B3B;}
	.st10{fill:#0D67A4;}
	.st11{fill:#448FB1;}
	.st12{fill:#3BC5CA;}
	.st13{fill:#FFFFFF;}
	.st14{fill:#F9F4F4;}
	.st15{opacity:0.95;fill:#F9F4F4;}
	.st16{fill:#CCBCBC;}
	.st17{fill:#65B6E8;}
	.st18{fill:#E0614C;}
	.st19{fill:#3E7E9C;}
	.st20{fill:none;}
	.st21{fill:#D00C09;}
</style>
<g id="BACKGROUND">
</g>
<g id="OBJECTS">
	<g>
		<g>
			<rect x="-0.36" y="-166.42" class="st0" width="750" height="500"/>
		</g>
		<g>
			<path class="st1" d="M-0.36,312.8c37.07-31.88,64.72-74.76,76.07-122.37c7.9-33.15,9.33-69.82,30.53-96.51
				c21.3-26.81,57.81-37.08,81.4-61.9C218.08,0,221.99-50.54,252.08-82.89c29.89-32.14,84.22-37.66,119.97-12.2
				c9.77,6.96,18.13,15.81,28.19,22.34c21.01,13.63,47.6,15.87,72.47,12.93c24.87-2.95,48.91-10.61,73.5-15.35
				c68.55-13.2,141.23-2.16,203.44,29.34v-120.59h-750V312.8z"/>
		</g>
		<g>
			<path class="st2" d="M-0.36-166.42v412.56c16.27-19.4,28.86-41.99,39.87-64.91c11.6-24.17,21.75-49.09,29.16-74.86
				C79.43,68.93,86.05,26.92,115.31,1.21c40.15-35.28,105.57-24.32,148.32-56.41c23.49-17.63,36.41-45.52,53.17-69.64
				c10.71-15.41,23.35-29.32,37.46-41.58H-0.36z"/>
		</g>
	</g>
	<g>
		<g>
			<path class="st3" d="M0.43,24.81c0,0,28-26.99,77.69-19.42c49.69,7.57,57.26,19.68,57.26,19.68L0.43,24.81z"/>
			<polygon class="st4" points="0.43,24.81 0.68,30.11 8.25,30.61 9.01,42.96 5.72,42.97 6.62,56.56 124.45,55.66 125.79,31.62 
				134.62,32.63 135.38,25.06 			"/>
			<polygon class="st4" points="17.86,344.22 10.52,71.47 117.63,74.42 129.15,343.39 			"/>
			<polygon class="st5" points="63.96,72.94 10.52,71.47 16.58,296.75 64.57,304.75 			"/>
			<polygon class="st3" points="31.44,102.82 30.59,87.17 104.58,88.44 104.16,107.89 			"/>
			<polygon class="st3" points="37.81,193.49 36.91,113.39 97.66,117.44 99.46,195.29 			"/>
			<polygon class="st6" points="9.91,346.49 129.15,343.39 127.85,274.24 12.16,274.94 			"/>
			<path class="st3" d="M126.05,76.36c0-0.76,0.5-7.82,0.5-7.82l-5.05-0.25l0.5-6.56l5.55-0.5l0.76-7.82L1.69,52.4l-0.76,7.57
				l5.8-0.25l-1.01,5.3L1.18,64l-0.5,9.33C0.68,73.34,126.05,77.12,126.05,76.36z"/>
			<polygon class="st6" points="13.74,45.51 13.15,33.61 22.13,34 21.54,44.93 			"/>
			<polygon class="st6" points="28.18,45.12 27.98,33.02 35.79,33.22 35.99,44.73 			"/>
			<polygon class="st6" points="45.16,44.15 44.97,31.07 54.14,32.44 52.38,44.54 			"/>
			<polygon class="st6" points="63.9,44.34 63.51,33.8 72.88,34.58 72.29,44.54 			"/>
			<polygon class="st6" points="81.66,44.93 81.66,34.97 89.47,35.56 89.66,44.93 			"/>
			<polygon class="st6" points="96.3,44.93 95.13,33.02 105.08,33.41 104.69,44.93 			"/>
			<polygon class="st6" points="111.72,40.83 110.94,31.85 119.53,31.85 119.72,40.44 			"/>
			<polygon class="st6" points="34.43,92.94 102.16,91.77 100.79,102.51 36.38,101.53 			"/>
			<polygon class="st7" points="42.82,187.81 41.45,122.42 93.96,121.83 95.32,188.59 			"/>
			<polygon class="st3" points="10.21,267.25 133.37,265.69 133.96,276.03 9.23,277.59 			"/>
		</g>
		<polygon class="st4" points="3.53,71.32 3.74,66.25 124.24,69.42 123.6,74.28 		"/>
		<polygon class="st4" points="2.38,58.38 3.31,53.27 126.34,54.2 125.99,58.96 		"/>
	</g>
	<g>
		<g>
			<path class="st4" d="M601.94,33.43c1.47-1.37,3.28-2.33,5.21-2.89c11.76-3.42,68.35-19.84,70.19-19.6
				c2.06,0.27,10.32,0.49,16.74,12.26c6.42,11.77,13.4,42.6,13.4,42.6L607.45,94.22C607.45,94.22,585.4,48.91,601.94,33.43z"/>
			<path class="st8" d="M607.45,94.22l100.02-28.42c0,0-0.77-3.41-2.04-8.38L603.96,86.13C605.91,91.06,607.45,94.22,607.45,94.22z"
				/>
			<path class="st3" d="M608.46,92.71c0,0-18.11-39.69-8.38-53.33c9.06-12.69,29.8-12.52,37.79,2.62
				c7.98,15.14,11.39,39.02,11.39,39.02L608.46,92.71z"/>
			<path class="st8" d="M610.67,90.3c0,0-21.75-42.25-4.19-53.1c34.09-21.08,40.18,40.76,40.56,43.43L610.67,90.3z"/>
			<polygon class="st8" points="650.63,66.91 647.35,56.04 659.56,52.61 662.25,63.41 			"/>
			<polygon class="st3" points="650.08,57.12 652.97,56.31 642.87,24.92 659.72,21.11 661.53,27.54 650.4,34.02 655.54,55.59 
				658.22,54.83 660.21,61.91 652.02,64.44 			"/>
			<path class="st9" d="M657.84,72.71c-0.19-0.67,11.03-3.1,11.03-3.1l74.11,228.28l-16.16,3.05
				C726.82,300.93,658.03,73.38,657.84,72.71z"/>
		</g>
		<g>
			<path class="st4" d="M591.58,122.5c0,0,3.06,5.05,15.1,1.17c12.04-3.88,22.29-11.19,25.43-15.19c3.14-4,19.19-23.94,17.46-25.42
				c-1.73-1.48-42.1,11.35-42.1,11.35S583.77,116.33,591.58,122.5z"/>
			<path class="st3" d="M646.16,85.06c0,0-14.21,21.82-23.27,28.27c-12.71,9.04-27.72,11.39-30.73,7.35
				c-3.01-4.04,15.93-25.2,15.93-25.2L646.16,85.06z"/>
		</g>
	</g>
	<g>
		<path class="st10" d="M752.3,333.58V146.31c-123.79,14.97-230.26,86.15-293.12,187.28H752.3z"/>
		<path class="st11" d="M752.3,333.58V146.31c-123.79,14.97-230.26,86.15-293.12,187.28H752.3z"/>
		<path class="st12" d="M741.25,147.8c-0.5,0.07-0.99,0.15-1.49,0.23c-1.34,0.2-2.67,0.41-4,0.63c-0.58,0.09-1.16,0.19-1.73,0.29
			c-1.25,0.21-2.5,0.43-3.75,0.65c-0.62,0.11-1.24,0.22-1.86,0.33c-1.21,0.22-2.43,0.45-3.63,0.68c-0.63,0.12-1.25,0.24-1.88,0.36
			c-1.23,0.24-2.45,0.49-3.67,0.74c-0.59,0.12-1.19,0.24-1.78,0.37c-0.27,0.06-0.54,0.12-0.81,0.18
			c4.81,10.48,11.86,13.03,6.92,17.97c-6.1,6.1-24.42,7.33-13.43,18.31c10.99,10.99,24.42,0,25.64,19.54
			c1.22,19.54-9.77,20.76,1.22,32.97c10.99,12.21-8.55-12.21,10.99,12.21c1.51,1.89,2.94,3.69,4.32,5.43V146.31
			c-1.85,0.22-3.7,0.46-5.55,0.71c-0.33,0.05-0.67,0.09-1,0.14C744.25,147.37,742.75,147.58,741.25,147.8z"/>
		<path class="st12" d="M651.53,280.12c-6.1-12.21-9.77-1.22-28.08,3.66c-18.31,4.88-15.87-4.88-45.17-6.1
			c-29.3-1.22-20.76,3.66-29.3,3.66c-8.55,0-3.66-7.33-13.43-19.54c-9.77-12.21-9.77,0-21.98,7.33c-2.1,1.26-3.81,1.4-5.35,0.76
			c-0.14,0.15-0.28,0.29-0.42,0.44c-3.56,3.79-7.05,7.66-10.47,11.59c-0.27,0.31-0.53,0.61-0.8,0.92c-1.72,1.99-3.43,4-5.11,6.02
			c0,0,0,0-0.01,0.01c-1.66,2-3.29,4.01-4.91,6.04c-0.24,0.3-0.48,0.6-0.72,0.9c-1.63,2.06-3.25,4.13-4.85,6.22
			c-0.06,0.08-0.12,0.15-0.17,0.23c-1.53,2.02-3.05,4.05-4.54,6.09c-0.21,0.29-0.43,0.58-0.64,0.87c-1.55,2.13-3.07,4.26-4.58,6.42
			c-0.1,0.14-0.2,0.28-0.29,0.42c-1.42,2.05-2.83,4.11-4.22,6.18c-0.18,0.27-0.37,0.55-0.55,0.82c-1.46,2.19-2.9,4.39-4.31,6.61
			c-0.12,0.19-0.24,0.39-0.37,0.58c-0.7,1.1-1.37,2.21-2.06,3.31h188.46c-0.32-7.62-4.52-15.95-9.57-21.72
			C629.55,302.09,657.63,292.33,651.53,280.12z"/>
		<path class="st12" d="M629.19,243.58c5.42,5.42-0.68,21.68-12.19,16.26C605.49,254.42,623.77,238.16,629.19,243.58z"/>
		<path class="st12" d="M725.53,275.99c0,0-5.65-7.34,0.56-7.34c6.21,0,4.52,2.26,10.17,5.65c5.65,3.39,11.3,5.08,3.95,9.04
			c-7.34,3.95-18.08,9.04-20.34,2.82C717.62,279.94,725.53,275.99,725.53,275.99z"/>
		<path class="st12" d="M671.79,168.97c2.26,6.21,12.99,1.13,20.34-2.82c6.14-3.31,3.19-5.03-1.24-7.49
			c-6.44,1.83-12.81,3.82-19.11,5.95C671.3,165.89,671.2,167.35,671.79,168.97z"/>
	</g>
	<g>
		<path class="st13" d="M217.16-102.55c0,0,31-1.39,51.17-13.71c0,0-37.57-35.45-38.03-67.94c0,0-20.32,28.33-59.86,17.63
			C170.45-166.58,187.43-112.32,217.16-102.55z"/>
		<path class="st13" d="M512.93-94.65c0,0-44.5-22.64-77.92-15.12c0,0,14.49-42.44-11.89-53.49c0,0,43.38-16.49,66.86,7.57
			C489.98-155.69,517.56-137.94,512.93-94.65z"/>
		<path class="st13" d="M540.65-53.76c0,0,36.55-2.05,50.8-20.2c0,0,9.95,33.88,30.68,32.66c0,0-36.46,23.15-60.23,17.61
			C561.89-23.7,540.35-36.8,540.65-53.76z"/>
	</g>
	<g>
		<g>
			<g>
				<path class="st14" d="M291.31,293.24c-0.36-0.61-26.02-77.96-24.4-78.46c1.62-0.5,105.89-34.96,107.72-32.47
					c1.83,2.49,23.78,77.03,23.13,77.23C397.12,259.74,291.31,293.24,291.31,293.24z"/>
				<polygon class="st15" points="291.31,293.24 327.24,224.27 397.77,259.54 				"/>
				<path class="st16" d="M344.84,233.56c0,0,53.57,25.23,52.93,25.98C397.13,260.29,344.84,233.56,344.84,233.56z"/>
				<path class="st16" d="M292.36,292.91c0,0,26.91-54.86,27.41-53.87C320.27,240.04,292.85,293.82,292.36,292.91z"/>
				<polygon class="st13" points="266.46,214.46 335.25,242.74 375.35,180.75 				"/>
				<path class="st17" d="M268.79,223.06l5.65-10.74c-3.86,1.26-6.44,2.11-7.26,2.38l-0.32,0.61
					C266.97,216.41,267.68,219.18,268.79,223.06z"/>
				<path class="st18" d="M394.84,248.29l-3.83,7.26c0.03,0.24,0.03,0.39-0.02,0.42c-0.03,0.02-0.12,0.05-0.26,0.1l-3.61,6.84
					c2.99-0.95,5.47-1.73,7.27-2.3l2.52-4.79C396.41,253.9,395.7,251.33,394.84,248.29z"/>
				<g>
					<path class="st17" d="M390.26,252.42l3.74-7.1c-0.65-2.29-1.37-4.77-2.13-7.39l-3.8,7.19
						C388.99,248.07,389.74,250.57,390.26,252.42z"/>
					<path class="st17" d="M380.6,259.27l-3.62,6.86c2.61-0.83,5.05-1.6,7.28-2.3l3.58-6.8C386.06,257.58,383.6,258.34,380.6,259.27
						z"/>
				</g>
				<g>
					<path class="st18" d="M387.17,242.24l3.84-7.29c-0.69-2.37-1.41-4.82-2.14-7.31l-3.97,7.51
						C385.71,237.65,386.47,240.04,387.17,242.24z"/>
					<path class="st18" d="M370.53,262.35l-3.68,6.98c2.52-0.8,4.95-1.57,7.28-2.3l3.62-6.88
						C375.54,260.82,373.12,261.56,370.53,262.35z"/>
				</g>
				<g>
					<path class="st17" d="M360.47,265.42l-3.76,7.12c2.47-0.78,4.9-1.55,7.28-2.3l3.69-7.01
						C365.37,263.93,362.95,264.66,360.47,265.42z"/>
					<path class="st17" d="M383.97,232.28l4.01-7.62c-0.71-2.41-1.44-4.84-2.16-7.25l-4.15,7.86
						C382.46,227.64,383.23,230,383.97,232.28z"/>
				</g>
				<g>
					<path class="st18" d="M380.73,222.39l4.2-7.98c-0.73-2.44-1.46-4.85-2.17-7.18l-4.34,8.21
						C379.19,217.73,379.96,220.06,380.73,222.39z"/>
					<path class="st18" d="M350.41,268.48l-3.84,7.27c2.44-0.77,4.87-1.54,7.28-2.3l3.77-7.16
						C355.26,267,352.85,267.74,350.41,268.48z"/>
				</g>
				<g>
					<path class="st17" d="M377.33,212.15l4.39-8.33c-0.77-2.51-1.5-4.89-2.2-7.11l-4.5,8.52
						C375.76,207.43,376.54,209.75,377.33,212.15z"/>
					<path class="st17" d="M339.94,271.65l-3.93,7.44c2.41-0.76,4.85-1.53,7.29-2.31l3.85-7.32
						C344.76,270.19,342.35,270.92,339.94,271.65z"/>
				</g>
				<g>
					<path class="st18" d="M374.06,202.32l4.53-8.6c-0.86-2.73-1.63-5.1-2.26-6.96l-4.57,8.66
						C372.43,197.43,373.2,199.77,374.06,202.32z"/>
					<path class="st18" d="M329.88,274.69l-4.02,7.61c2.38-0.75,4.82-1.53,7.29-2.31l3.94-7.48
						C334.66,273.25,332.25,273.98,329.88,274.69z"/>
				</g>
				<g>
					<path class="st17" d="M369.26,187.79c0.04,0.2,0.64,2.04,1.61,4.99l4.54-8.62c-0.37-1.01-0.64-1.65-0.78-1.84
						c-0.21-0.29-1.8-0.08-4.43,0.51l-2.78,5.25C368.6,187.8,369.25,187.69,369.26,187.79z"/>
					<path class="st17" d="M320.13,277.64l-4.11,7.78c2.34-0.74,4.78-1.51,7.3-2.31l4.03-7.65
						C324.87,276.21,322.46,276.94,320.13,277.64z"/>
				</g>
				<g>
					<path class="st18" d="M363.8,189.05l2.82-5.35c-2.01,0.52-4.33,1.15-6.91,1.88l-2.92,5.52
						C359.5,190.28,361.87,189.59,363.8,189.05z"/>
					<path class="st18" d="M309.35,280.9l-4.21,7.96c2.24-0.71,4.69-1.49,7.31-2.31l4.12-7.83
						C314.03,279.48,311.61,280.22,309.35,280.9z"/>
				</g>
				<g>
					<path class="st17" d="M299.39,283.9l-4.3,8.14c1.86-0.59,4.35-1.38,7.32-2.32l4.22-8.01
						C303.85,282.56,301.41,283.29,299.39,283.9z"/>
					<path class="st17" d="M353.89,191.97l2.93-5.57c-2.2,0.63-4.55,1.32-7.02,2.06l-3,5.67
						C349.32,193.35,351.69,192.63,353.89,191.97z"/>
				</g>
				<g>
					<path class="st18" d="M293.23,285.76c0,0-0.45-1.38-1.22-3.75l-2.76,5.22c1.23,3.67,1.99,5.91,2.06,6.01
						c0,0,0.37-0.12,1.05-0.33l4.31-8.19C294.48,285.38,293.23,285.76,293.23,285.76z"/>
					<path class="st18" d="M343.91,195.02l3-5.7c-2.28,0.69-4.65,1.41-7.07,2.15l-3.04,5.76
						C339.24,196.47,341.62,195.73,343.91,195.02z"/>
				</g>
				<g>
					<path class="st17" d="M333.25,198.34l3.04-5.78c-2.34,0.72-4.71,1.46-7.11,2.21l-3.08,5.82
						C328.52,199.83,330.91,199.08,333.25,198.34z"/>
					<path class="st17" d="M288.63,271.55l-2.81,5.32c0.86,2.6,1.65,4.99,2.35,7.09l2.77-5.26
						C290.27,276.64,289.49,274.22,288.63,271.55z"/>
				</g>
				<g>
					<path class="st18" d="M323.08,201.54l3.07-5.83c-2.37,0.74-4.76,1.5-7.14,2.25l-3.09,5.85
						C318.3,203.06,320.7,202.3,323.08,201.54z"/>
					<path class="st18" d="M285.42,261.56l-2.85,5.4c0.8,2.46,1.58,4.84,2.33,7.11l2.82-5.35
						C286.99,266.44,286.22,264.04,285.42,261.56z"/>
				</g>
				<g>
					<path class="st17" d="M313.23,204.67l3.08-5.85c-2.41,0.76-4.8,1.53-7.17,2.28l-3.1,5.87
						C308.4,206.22,310.8,205.45,313.23,204.67z"/>
					<path class="st17" d="M282.34,251.85l-2.89,5.47c0.78,2.4,1.55,4.79,2.31,7.12l2.86-5.43
						C283.86,256.66,283.1,254.26,282.34,251.85z"/>
				</g>
				<g>
					<path class="st18" d="M302.76,208.02l3.09-5.87c-2.45,0.79-4.86,1.56-7.19,2.31l-3.1,5.88
						C297.85,209.6,300.27,208.82,302.76,208.02z"/>
					<path class="st18" d="M279.09,241.5l-2.93,5.55c0.75,2.36,1.52,4.75,2.28,7.15l2.9-5.51
						C280.57,246.26,279.82,243.84,279.09,241.5z"/>
				</g>
				<g>
					<path class="st17" d="M292.37,211.37l3.09-5.88c-2.51,0.81-4.93,1.59-7.22,2.34l-3.11,5.89
						C287.34,213,289.77,212.21,292.37,211.37z"/>
					<path class="st17" d="M275.92,231.16l-2.99,5.65c0.72,2.31,1.47,4.72,2.25,7.18l2.94-5.59
						C277.34,235.84,276.6,233.4,275.92,231.16z"/>
				</g>
				<g>
					<path class="st18" d="M273,220.98l-3.11,5.88c0.66,2.22,1.4,4.66,2.2,7.26l3-5.7C274.2,225.36,273.47,222.8,273,220.98z"/>
					<path class="st18" d="M282.37,214.63l3.1-5.89c-2.63,0.86-5.06,1.65-7.24,2.36l-3.14,5.94
						C276.8,216.46,279.3,215.63,282.37,214.63z"/>
				</g>
			</g>
			<path class="st16" d="M266.46,214.46c0,0,69.51,27.25,68.78,28.28C334.52,243.78,266.04,215.93,266.46,214.46z"/>
			<path class="st16" d="M339.2,235.89c0,0,35.03-54.19,35.44-53.57C375.05,182.93,339.69,237.55,339.2,235.89z"/>
		</g>
		<g>
			<g>
				<path class="st14" d="M404.57,333.8c0.04-0.53,18.14-59.16,19.35-58.75c1.21,0.41,80.19,24.87,80.22,27.2
					s-19.1,57.61-19.59,57.45C484.07,359.53,404.57,333.8,404.57,333.8z"/>
				<polygon class="st15" points="404.57,333.8 456.76,307.23 484.56,359.69 				"/>
				<path class="st16" d="M463.48,320.63c0,0,21.8,38.89,21.08,39.07C483.84,359.87,463.48,320.63,463.48,320.63z"/>
				<path class="st16" d="M405.37,334.06c0,0,40.48-21.86,40.35-21.03C445.59,313.85,405.26,334.82,405.37,334.06z"/>
				<polygon class="st13" points="423.79,274.65 453.58,322.06 505.27,301.59 				"/>
				<path class="st17" d="M421.45,280.94l8.16-4.11c-2.91-0.91-4.87-1.52-5.49-1.72l-0.46,0.23
					C423.25,276.07,422.47,278.08,421.45,280.94z"/>
				<path class="st18" d="M487.69,351.52l-5.52,2.77c-0.09,0.16-0.15,0.25-0.19,0.25c-0.02,0-0.1-0.02-0.2-0.05l-5.2,2.61
					c2.25,0.73,4.11,1.33,5.47,1.77l3.64-1.83C486.19,355.64,486.88,353.75,487.69,351.52z"/>
				<g>
					<path class="st17" d="M483.07,352.05l5.4-2.72c0.6-1.69,1.25-3.52,1.93-5.46l-5.47,2.75
						C484.2,348.82,483.57,350.68,483.07,352.05z"/>
					<path class="st17" d="M474.16,352.02l-5.22,2.62c1.96,0.63,3.79,1.23,5.47,1.77l5.17-2.6
						C478.24,353.37,476.4,352.76,474.16,352.02z"/>
				</g>
				<g>
					<path class="st18" d="M485.63,344.46l5.54-2.79c0.61-1.76,1.24-3.57,1.88-5.42l-5.71,2.87
						C486.74,341,486.17,342.8,485.63,344.46z"/>
					<path class="st18" d="M466.64,349.51l-5.31,2.66c1.89,0.61,3.72,1.2,5.47,1.77l5.23-2.63
						C470.37,350.76,468.56,350.15,466.64,349.51z"/>
				</g>
				<g>
					<path class="st17" d="M459.13,346.99l-5.42,2.72c1.86,0.6,3.68,1.19,5.47,1.77l5.33-2.68
						C462.78,348.21,460.98,347.61,459.13,346.99z"/>
					<path class="st17" d="M488.02,336.95l5.79-2.92c0.62-1.79,1.24-3.59,1.85-5.39l-5.98,3
						C489.12,333.45,488.57,335.22,488.02,336.95z"/>
				</g>
				<g>
					<path class="st18" d="M490.36,329.47l6.07-3.05c0.62-1.82,1.23-3.61,1.81-5.35l-6.25,3.14
						C491.45,325.94,490.91,327.71,490.36,329.47z"/>
					<path class="st18" d="M451.63,344.46l-5.53,2.78c1.83,0.59,3.66,1.18,5.47,1.77l5.44-2.74
						C455.24,345.68,453.45,345.07,451.63,344.46z"/>
				</g>
				<g>
					<path class="st17" d="M492.76,321.71l6.33-3.19c0.63-1.87,1.22-3.66,1.76-5.31l-6.48,3.25
						C493.86,318.13,493.32,319.89,492.76,321.71z"/>
					<path class="st17" d="M443.82,341.83l-5.66,2.84c1.81,0.59,3.64,1.18,5.47,1.77l5.56-2.8
						C447.41,343.04,445.61,342.43,443.82,341.83z"/>
				</g>
				<g>
					<path class="st18" d="M495.05,314.25l6.54-3.29c0.66-2.05,1.23-3.84,1.66-5.25l-6.59,3.31
						C496.18,310.54,495.64,312.31,495.05,314.25z"/>
					<path class="st18" d="M436.32,339.3l-5.79,2.91c1.79,0.58,3.62,1.17,5.48,1.77l5.69-2.86
						C439.89,340.5,438.09,339.89,436.32,339.3z"/>
				</g>
				<g>
					<path class="st17" d="M498.46,303.25c-0.07,0.14-0.5,1.53-1.19,3.77l6.55-3.3c0.21-0.78,0.33-1.29,0.33-1.47
						c0-0.27-1.07-0.83-2.94-1.62l-4,2.01C498.05,302.96,498.49,303.18,498.46,303.25z"/>
					<path class="st17" d="M429.06,336.84l-5.92,2.97c1.76,0.57,3.59,1.16,5.48,1.77l5.81-2.93
						C432.59,338.03,430.79,337.43,429.06,336.84z"/>
				</g>
				<g>
					<path class="st18" d="M494.56,301.63l4.07-2.05c-1.45-0.56-3.16-1.19-5.06-1.87l-4.2,2.11
						C491.39,300.51,493.14,301.12,494.56,301.63z"/>
					<path class="st18" d="M421.03,334.12l-6.06,3.04c1.68,0.54,3.53,1.14,5.49,1.78l5.95-3
						C424.51,335.3,422.71,334.69,421.03,334.12z"/>
				</g>
				<g>
					<path class="st17" d="M413.61,331.61l-6.2,3.11c1.4,0.45,3.27,1.06,5.5,1.78l6.09-3.06
						C416.93,332.73,415.11,332.12,413.61,331.61z"/>
					<path class="st17" d="M487.21,299.09l4.23-2.13c-1.63-0.57-3.37-1.18-5.2-1.81l-4.32,2.17
						C483.8,297.94,485.57,298.53,487.21,299.09z"/>
				</g>
				<g>
					<path class="st18" d="M409.02,330.05c0,0,0.33-1.05,0.89-2.83l-3.97,1.99c-0.85,2.79-1.36,4.5-1.37,4.59
						c0,0,0.28,0.09,0.79,0.26l6.22-3.13C409.95,330.37,409.02,330.05,409.02,330.05z"/>
					<path class="st18" d="M479.76,296.6l4.33-2.18c-1.7-0.58-3.46-1.17-5.28-1.78l-4.39,2.2
						C476.26,295.44,478.04,296.03,479.76,296.6z"/>
				</g>
				<g>
					<path class="st17" d="M471.78,293.97l4.39-2.21c-1.75-0.58-3.53-1.17-5.33-1.76l-4.43,2.22
						C468.22,292.81,470.02,293.4,471.78,293.97z"/>
					<path class="st17" d="M412.42,319.33l-4.05,2.03c-0.61,1.97-1.17,3.78-1.66,5.38l4-2.01
						C411.2,323.17,411.78,321.35,412.42,319.33z"/>
				</g>
				<g>
					<path class="st18" d="M464.14,291.49l4.43-2.23c-1.78-0.58-3.57-1.16-5.36-1.74l-4.45,2.24
						C460.55,290.33,462.35,290.91,464.14,291.49z"/>
					<path class="st18" d="M414.82,311.81l-4.11,2.06c-0.58,1.86-1.15,3.66-1.68,5.37l4.07-2.05
						C413.64,315.48,414.22,313.67,414.82,311.81z"/>
				</g>
				<g>
					<path class="st17" d="M456.74,289.1l4.45-2.24c-1.81-0.58-3.61-1.16-5.39-1.74l-4.47,2.24
						C453.1,287.93,454.91,288.51,456.74,289.1z"/>
					<path class="st17" d="M417.17,304.51l-4.17,2.09c-0.58,1.81-1.14,3.61-1.7,5.37l4.13-2.08
						C416,308.12,416.59,306.32,417.17,304.51z"/>
				</g>
				<g>
					<path class="st18" d="M448.85,286.57l4.46-2.25c-1.85-0.59-3.66-1.17-5.42-1.73l-4.47,2.25
						C445.15,285.4,446.97,285.97,448.85,286.57z"/>
					<path class="st18" d="M419.71,296.74l-4.23,2.12c-0.57,1.77-1.15,3.58-1.72,5.38l4.19-2.11
						C418.54,300.31,419.13,298.5,419.71,296.74z"/>
				</g>
				<g>
					<path class="st17" d="M441.02,284.08l4.47-2.25c-1.89-0.6-3.72-1.18-5.45-1.72l-4.48,2.25
						C437.22,282.88,439.06,283.46,441.02,284.08z"/>
					<path class="st17" d="M422.29,289.02l-4.3,2.16c-0.57,1.73-1.16,3.54-1.76,5.39l4.25-2.14
						C421.11,292.51,421.72,290.69,422.29,289.02z"/>
				</g>
				<g>
					<path class="st18" d="M424.95,281.5l-4.47,2.25c-0.57,1.65-1.18,3.47-1.83,5.41l4.33-2.18
						C423.77,284.71,424.44,282.83,424.95,281.5z"/>
					<path class="st18" d="M433.46,281.7l4.48-2.26c-1.99-0.63-3.82-1.2-5.47-1.72l-4.52,2.27
						C429.26,280.39,431.15,280.98,433.46,281.7z"/>
				</g>
			</g>
			<path class="st16" d="M423.79,274.65c0,0,30.69,47.1,29.79,47.41C452.69,322.37,422.89,275.36,423.79,274.65z"/>
			<path class="st16" d="M459,319.58c0,0,45.16-17.9,45.15-17.34C504.13,302.8,458.58,320.82,459,319.58z"/>
		</g>
		<g>
			<g>
				<g>
					<path class="st14" d="M10.88,365.8c0.12-1.35,47.85-150.2,50.93-149.13c3.08,1.07,203.59,65.6,203.61,71.52
						c0.02,5.93-50.27,146.23-51.5,145.8C212.68,433.57,10.88,365.8,10.88,365.8z"/>
					<path class="st18" d="M130.15,405.86l114.92-56.3c1.63-4.62,3.22-9.17,4.76-13.58l-133.56,65.22
						C120.92,402.76,125.56,404.31,130.15,405.86z"/>
					<path class="st17" d="M149.48,412.35l88.73-43.47c1.62-4.54,3.25-9.12,4.86-13.67L135.6,407.69
						C140.31,409.27,144.95,410.83,149.48,412.35z"/>
					<path class="st18" d="M168.81,418.84l62.43-30.59c1.61-4.45,3.27-9.07,4.95-13.76l-81.26,39.68
						C159.74,415.79,164.38,417.35,168.81,418.84z"/>
					<path class="st17" d="M188.15,425.34l36.01-17.64c1.58-4.29,3.28-8.94,5.06-13.85l-54.95,26.83
						C179.25,422.35,183.9,423.91,188.15,425.34z"/>
					<path class="st18" d="M207.48,431.83l9.33-4.57c1.38-3.54,3.19-8.33,5.29-14.01l-28.5,13.92
						C199.31,429.08,204.03,430.67,207.48,431.83z"/>
					<path class="st17" d="M110.03,399.1l142.05-69.59c1.65-4.75,3.2-9.28,4.63-13.49L96.13,394.43
						C100.73,395.98,105.37,397.54,110.03,399.1z"/>
					<path class="st18" d="M90.68,392.6l167.95-82.28c1.75-5.21,3.24-9.74,4.37-13.33L76.77,387.93
						C81.31,389.46,85.96,391.02,90.68,392.6z"/>
					<path class="st17" d="M71.92,386.3l192.62-94.37c0.57-1.98,0.88-3.28,0.88-3.74c0-0.69-2.69-2.16-7.44-4.22L58,381.63
						C62.46,383.12,67.12,384.69,71.92,386.3z"/>
					<path class="st18" d="M51.21,379.35l200.21-98.09c-3.69-1.47-8.01-3.12-12.83-4.91L37.26,374.66
						C41.54,376.1,46.22,377.67,51.21,379.35z"/>
					<path class="st17" d="M32.04,372.91l201.15-98.55c-4.13-1.51-8.55-3.1-13.2-4.75l-201.92,98.6
						C21.63,369.41,26.37,371.01,32.04,372.91z"/>
					<path class="st18" d="M201.14,263.01L14.49,354.16c-2.25,7.07-3.6,11.42-3.62,11.64c0,0,0.7,0.24,2.01,0.67l201.65-98.79
						C210.22,266.17,205.74,264.61,201.14,263.01z"/>
					<path class="st17" d="M16.5,347.87l177.94-87.17c-4.43-1.52-8.95-3.07-13.52-4.62L20.89,334.23
						C19.27,339.22,17.8,343.82,16.5,347.87z"/>
					<path class="st18" d="M22.63,328.84l152.52-74.72c-4.52-1.53-9.06-3.06-13.61-4.59L27.06,315.2
						C25.52,319.92,24.04,324.49,22.63,328.84z"/>
					<path class="st17" d="M28.63,310.39L156.4,247.8c-4.59-1.54-9.17-3.07-13.69-4.57l-109.6,53.52
						C31.59,301.35,30.09,305.92,28.63,310.39z"/>
					<path class="st18" d="M35.09,290.77l101.31-49.64c-4.68-1.56-9.28-3.08-13.76-4.56l-83.01,40.54
						C38.12,281.62,36.6,286.19,35.09,290.77z"/>
					<path class="st17" d="M41.59,271.28l74.95-36.72c-4.81-1.58-9.44-3.11-13.83-4.55L46.22,257.6
						C44.72,261.99,43.17,266.58,41.59,271.28z"/>
					<path class="st18" d="M83.51,223.74l-30.74,15.01c-1.49,4.18-3.1,8.8-4.8,13.74l49.42-24.21
						C92.35,226.62,87.69,225.1,83.51,223.74z"/>
					<path class="st17" d="M55.35,231.61l20.9-10.24c-7.4-2.41-12.36-4.02-13.94-4.53l-1.19,0.58
						C60.06,219.25,58.02,224.35,55.35,231.61z"/>
					<g>
						<path class="st14" d="M22.31,356.38c0,0,41.97-128.74,44.49-128.52c2.52,0.22,185.19,60.51,184.09,62.74
							c-1.1,2.24-40.93,130.41-43.45,130.19C204.93,420.58,22.31,356.38,22.31,356.38z"/>
					</g>
				</g>
				<polygon class="st13" points="201.77,318.15 212,289.14 234.55,297.13 224.81,325.51 				"/>
				<g>
					<g>
						<g>
							<path class="st19" d="M133.55,302.06c1.76-8.39,9.82-13.47,18.07-13.47c7.27,0,15.51,3.94,17.62,11.42
								c1.15,4.1,0.87,8.91-0.17,13c-1.02,3.98-3.03,7.69-6.12,10.44c-2.94,2.6-6.78,4.29-10.75,4.22
								c-2.36-0.04-4.66-0.69-6.87-1.47c-1.83-0.65-3.72-1.34-5.24-2.57c-6.11-4.94-8.25-14.02-6.5-21.42
								c0.15-0.63-0.82-0.89-0.96-0.27c-1.76,7.47,0.22,15.91,5.7,21.42c2.82,2.84,7.16,4.28,11.01,5
								c4.17,0.78,8.36-0.09,11.92-2.38c7.7-4.94,10.44-14.6,9.48-23.32c-0.91-8.31-8.05-13.77-16.01-14.85
								c-9.61-1.3-20.03,3.97-22.13,13.99C132.46,302.42,133.42,302.69,133.55,302.06L133.55,302.06z"/>
						</g>
					</g>
					<g>
						<g>
							<path class="st19" d="M134.13,319.32c-3.35-3.84-3.87-9.19-3.19-14.07c0.68-4.87,2.56-9.61,6.12-13.09
								c3.43-3.36,8.06-5.98,12.87-6.55c4.05-0.48,8.16,1.08,11.76,2.81c7.39,3.56,11.3,12.96,10.67,20.78
								c-0.36,4.42-1.8,8.82-4.69,12.24c-2.78,3.28-6.62,6.61-10.99,7.38c-8.31,1.47-17.5-2.82-22.59-9.29
								c-0.4-0.51-1.1,0.21-0.71,0.71c5.08,6.45,13.67,10.39,21.91,9.75c4.27-0.33,8.14-2.77,11.14-5.72
								c3.51-3.46,5.71-7.53,6.58-12.39c1.57-8.77-1.8-18.25-9.24-23.38c-1.68-1.16-3.61-1.82-5.5-2.52
								c-2.01-0.74-3.95-1.41-6.11-1.47c-5-0.15-9.91,2.13-13.77,5.16c-4.63,3.64-7.32,8.75-8.29,14.52
								c-0.92,5.48-0.47,11.48,3.32,15.83C133.85,320.52,134.55,319.81,134.13,319.32L134.13,319.32z"/>
						</g>
					</g>
					<g>
						<g>
							<path class="st19" d="M136.72,302.13c9.73,1.04,19.43,2.42,29.07,4.12c0.63,0.11,0.9-0.85,0.27-0.96
								c-9.73-1.72-19.51-3.11-29.33-4.16C136.09,301.06,136.09,302.06,136.72,302.13L136.72,302.13z"/>
						</g>
					</g>
					<g>
						<g>
							<path class="st19" d="M137.5,310.46c8.6,1.59,17.22,3.07,25.86,4.45c0.63,0.1,0.9-0.86,0.27-0.96
								c-8.64-1.38-17.26-2.86-25.86-4.45C137.13,309.38,136.86,310.34,137.5,310.46L137.5,310.46z"/>
						</g>
					</g>
					<g>
						<g>
							<path class="st19" d="M172.03,300.08c2.65,2.41,6.22,1.69,9.43,1.15c2.14-0.36,4.24-0.4,6.33,0.21
								c1.77,0.52,3.31,1.5,4.91,2.39c1.32,0.74,2.72,1.43,4.23,1.63c1.88,0.25,3.53-0.5,5.33-0.88c2.04-0.43,4.09-0.09,6.02,0.64
								c1.86,0.71,3.47,1.87,5.27,2.7c3.91,1.79,7.76-0.7,11.76-0.22c0.64,0.08,0.63-0.92,0-1c-3.54-0.42-7.11,1.76-10.58,0.62
								c-1.8-0.59-3.35-1.83-5.07-2.6c-1.45-0.65-2.97-1.15-4.56-1.3c-1.8-0.17-3.39,0.27-5.1,0.74c-2.09,0.57-3.86,0.3-5.78-0.65
								c-2.94-1.47-5.45-3.25-8.84-3.53c-4.03-0.33-9.23,2.5-12.66-0.62C172.26,298.94,171.55,299.64,172.03,300.08L172.03,300.08z"
								/>
						</g>
					</g>
					<g>
						<g>
							<path class="st19" d="M172.68,304.53c2.65,2.41,6.22,1.69,9.43,1.15c2.14-0.36,4.24-0.4,6.33,0.21
								c1.77,0.52,3.31,1.5,4.91,2.39c1.32,0.74,2.72,1.43,4.23,1.63c1.88,0.25,3.53-0.5,5.33-0.88c2.04-0.43,4.09-0.09,6.02,0.64
								c1.86,0.71,3.47,1.87,5.27,2.7c3.91,1.79,7.76-0.7,11.76-0.22c0.64,0.08,0.63-0.92,0-1c-3.54-0.42-7.11,1.76-10.58,0.62
								c-1.8-0.59-3.35-1.83-5.07-2.6c-1.45-0.65-2.97-1.15-4.56-1.3c-1.8-0.17-3.39,0.27-5.1,0.74c-2.09,0.57-3.86,0.3-5.78-0.65
								c-2.94-1.47-5.45-3.25-8.84-3.53c-4.03-0.33-9.23,2.5-12.66-0.62C172.91,303.39,172.2,304.09,172.68,304.53L172.68,304.53z"
								/>
						</g>
					</g>
					<g>
						<g>
							<path class="st19" d="M171.92,309.22c2.65,2.41,6.22,1.69,9.43,1.15c2.14-0.36,4.24-0.4,6.33,0.21
								c1.77,0.52,3.31,1.5,4.91,2.39c1.32,0.74,2.72,1.43,4.23,1.63c1.88,0.25,3.53-0.5,5.33-0.88c2.04-0.43,4.09-0.09,6.02,0.64
								c1.86,0.71,3.47,1.87,5.27,2.7c3.91,1.79,7.76-0.7,11.76-0.22c0.64,0.08,0.63-0.92,0-1c-3.54-0.42-7.11,1.76-10.58,0.62
								c-1.8-0.59-3.35-1.83-5.07-2.6c-1.45-0.65-2.97-1.15-4.56-1.3c-1.8-0.17-3.39,0.27-5.1,0.74c-2.09,0.57-3.86,0.3-5.78-0.65
								c-2.94-1.47-5.45-3.25-8.84-3.53c-4.03-0.33-9.23,2.5-12.66-0.62C172.16,308.08,171.45,308.79,171.92,309.22L171.92,309.22z"
								/>
						</g>
					</g>
					<g>
						<g>
							<path class="st19" d="M171.65,314.23c2.65,2.41,6.22,1.69,9.43,1.15c2.14-0.36,4.24-0.4,6.33,0.21
								c1.77,0.52,3.31,1.5,4.91,2.39c1.32,0.74,2.72,1.43,4.23,1.63c1.88,0.25,3.53-0.5,5.33-0.88c2.04-0.43,4.09-0.09,6.02,0.64
								c1.86,0.71,3.47,1.87,5.27,2.7c3.91,1.79,7.76-0.7,11.76-0.22c0.64,0.08,0.63-0.92,0-1c-3.54-0.42-7.11,1.76-10.58,0.62
								c-1.8-0.59-3.35-1.83-5.07-2.6c-1.45-0.65-2.97-1.15-4.56-1.3c-1.8-0.17-3.39,0.27-5.1,0.74c-2.09,0.57-3.86,0.3-5.78-0.65
								c-2.94-1.47-5.45-3.25-8.84-3.53c-4.03-0.33-9.23,2.5-12.66-0.62C171.88,313.09,171.17,313.79,171.65,314.23L171.65,314.23z"
								/>
						</g>
					</g>
					<g>
						<g>
							<path class="st19" d="M171.51,318.41c2.65,2.41,6.22,1.69,9.43,1.15c2.14-0.36,4.24-0.4,6.33,0.21
								c1.77,0.52,3.31,1.5,4.91,2.39c1.32,0.74,2.72,1.43,4.23,1.63c1.88,0.25,3.53-0.5,5.33-0.88c2.04-0.43,4.09-0.09,6.02,0.64
								c1.86,0.71,3.47,1.87,5.27,2.7c3.91,1.79,7.76-0.7,11.76-0.22c0.64,0.08,0.63-0.92,0-1c-3.54-0.42-7.11,1.76-10.58,0.62
								c-1.8-0.59-3.35-1.83-5.07-2.6c-1.45-0.65-2.97-1.15-4.56-1.3c-1.8-0.17-3.39,0.27-5.1,0.74c-2.09,0.57-3.86,0.3-5.78-0.65
								c-2.94-1.47-5.45-3.25-8.84-3.53c-4.03-0.33-9.23,2.5-12.66-0.62C171.74,317.27,171.03,317.97,171.51,318.41L171.51,318.41z"
								/>
						</g>
					</g>
					<g>
						<g>
							<path class="st19" d="M171.24,323.64c2.65,2.41,6.22,1.69,9.43,1.15c2.14-0.36,4.24-0.4,6.33,0.21
								c1.77,0.52,3.31,1.5,4.91,2.39c1.32,0.74,2.72,1.43,4.23,1.63c1.88,0.25,3.53-0.5,5.33-0.88c2.04-0.43,4.09-0.09,6.02,0.64
								c1.86,0.71,3.47,1.87,5.27,2.7c3.91,1.79,7.76-0.7,11.76-0.22c0.64,0.08,0.63-0.92,0-1c-3.54-0.42-7.11,1.76-10.58,0.62
								c-1.8-0.59-3.35-1.83-5.07-2.6c-1.45-0.65-2.97-1.15-4.56-1.3c-1.8-0.17-3.39,0.27-5.1,0.74c-2.09,0.57-3.86,0.3-5.78-0.65
								c-2.94-1.47-5.45-3.25-8.84-3.53c-4.03-0.33-9.23,2.5-12.66-0.62C171.47,322.5,170.76,323.2,171.24,323.64L171.24,323.64z"/>
						</g>
					</g>
				</g>
			</g>
			
				<rect x="65.54" y="260.5" transform="matrix(0.9449 0.3273 -0.3273 0.9449 90.9449 -17.7613)" class="st19" width="65.4" height="1.6"/>
			
				<rect x="63.54" y="267.36" transform="matrix(0.9449 0.3273 -0.3273 0.9449 93.0809 -16.7287)" class="st19" width="65.4" height="1.6"/>
			
				<rect x="60.06" y="274.66" transform="matrix(0.9449 0.3273 -0.3273 0.9449 95.278 -15.1902)" class="st19" width="65.4" height="1.6"/>
			
				<rect x="57.87" y="280.79" transform="matrix(0.9449 0.3273 -0.3273 0.9449 97.1644 -14.1339)" class="st19" width="65.4" height="1.6"/>
		</g>
		<g>
			<g>
				<g>
					<path class="st14" d="M538.82-118.41c-0.18-0.34-12.18-43.66-11.28-43.89c0.91-0.23,59.3-16.34,60.24-14.92
						c0.94,1.42,10.98,43.09,10.61,43.18C598.03-133.94,538.82-118.41,538.82-118.41z"/>
					<path class="st18" d="M573.81-127.59l18.75-31.66c-0.34-1.37-0.67-2.71-1-4.02l-21.83,36.75
						C571.1-126.88,572.47-127.23,573.81-127.59z"/>
					<path class="st17" d="M579.49-129.08l14.48-24.45c-0.33-1.35-0.66-2.71-0.99-4.05l-17.56,29.57
						C576.8-128.37,578.16-128.73,579.49-129.08z"/>
					<path class="st18" d="M585.16-130.56l10.19-17.2c-0.32-1.33-0.64-2.7-0.98-4.09l-13.28,22.36
						C582.49-129.86,583.86-130.22,585.16-130.56z"/>
					<path class="st17" d="M590.83-132.05l5.88-9.92c-0.3-1.28-0.62-2.67-0.97-4.13l-8.98,15.12
						C588.22-131.37,589.59-131.72,590.83-132.05z"/>
					<path class="st18" d="M596.5-133.54l1.52-2.57c-0.23-1.07-0.55-2.51-0.94-4.2l-4.66,7.84
						C594.11-132.91,595.49-133.27,596.5-133.54z"/>
					<path class="st17" d="M567.91-126.04l23.18-39.14c-0.35-1.4-0.69-2.74-1.01-3.97l-26.24,44.18
						C565.18-125.32,566.54-125.68,567.91-126.04z"/>
					<path class="st18" d="M562.23-124.55l27.41-46.28c-0.4-1.53-0.76-2.85-1.05-3.89l-30.44,51.24
						C559.48-123.83,560.85-124.19,562.23-124.55z"/>
					<path class="st17" d="M556.73-123.1l31.43-53.07c-0.18-0.57-0.31-0.93-0.38-1.04c-0.11-0.16-0.99-0.09-2.45,0.16l-32.68,55.02
						C553.95-122.38,555.32-122.74,556.73-123.1z"/>
					<path class="st18" d="M550.65-121.51l32.67-55.16c-1.12,0.23-2.42,0.51-3.86,0.84l-32.9,55.39
						C547.81-120.77,549.19-121.13,550.65-121.51z"/>
					<path class="st17" d="M545.03-120.04l32.82-55.42c-1.23,0.29-2.54,0.6-3.92,0.94l-33,55.56
						C541.97-119.23,543.36-119.6,545.03-120.04z"/>
					<path class="st18" d="M568.35-173.13l-30.5,51.36c0.57,2.05,0.94,3.31,0.97,3.37c0,0,0.21-0.05,0.59-0.15l32.91-55.56
						C571.03-173.8,569.71-173.47,568.35-173.13z"/>
					<path class="st17" d="M537.34-123.6l29.04-49.03c-1.31,0.33-2.64,0.67-3.98,1.02l-26.15,44.03
						C536.64-126.12,537.01-124.78,537.34-123.6z"/>
					<path class="st18" d="M535.81-129.15l24.89-42.02c-1.33,0.34-2.66,0.69-4,1.04l-21.98,37
						C535.1-131.75,535.47-130.41,535.81-129.15z"/>
					<path class="st17" d="M534.35-134.53l20.85-35.2c-1.35,0.35-2.69,0.71-4.01,1.06l-17.91,30.16
						C533.63-137.17,533.99-135.84,534.35-134.53z"/>
					<path class="st18" d="M532.8-140.27l16.53-27.91c-1.37,0.36-2.72,0.72-4.03,1.07l-13.57,22.84
						C532.09-142.95,532.45-141.61,532.8-140.27z"/>
					<path class="st17" d="M531.29-145.98l12.23-20.65c-1.41,0.38-2.76,0.74-4.04,1.09L530.25-150
						C530.58-148.7,530.93-147.36,531.29-145.98z"/>
					<path class="st18" d="M533.88-164.02l-5.02,8.46c0.3,1.24,0.64,2.61,1.01,4.06l8.06-13.62
						C536.46-164.72,535.09-164.35,533.88-164.02z"/>
					<path class="st17" d="M528.35-157.69l3.41-5.76c-2.16,0.59-3.61,0.98-4.07,1.11l-0.19,0.33
						C527.53-161.4,527.84-159.85,528.35-157.69z"/>
					<g>
						<path class="st14" d="M540.08-122.48c0,0-10.21-37.58-9.57-37.92c0.64-0.34,54.07-14.66,54.16-13.95
							c0.09,0.71,10.73,37.81,10.09,38.16C594.12-135.84,540.08-122.48,540.08-122.48z"/>
					</g>
				</g>
				<polygon class="st13" points="577.2,-159.97 575.09,-168.56 581.77,-170.2 583.9,-161.84 				"/>
				<g>
					<g>
						<g>
							<path class="st19" d="M558.36-153.1c-0.94-2.45,0.39-5.01,2.59-6.22c2.1-1.16,4.71-0.98,6.22,1c1.47,1.92,2.22,4.6,0.98,6.83
								c-0.61,1.11-1.6,1.78-2.8,2.13c-0.88,0.26-1.78,0.46-2.69,0.23c-1.97-0.5-3.58-2.05-4.27-3.94c-0.11-0.3-0.59-0.17-0.48,0.13
								c0.72,1.97,2.31,3.56,4.32,4.2c0.98,0.31,1.89,0.21,2.88-0.04c1.23-0.31,2.34-0.87,3.11-1.91c1.67-2.25,1.16-5.26-0.32-7.46
								c-0.73-1.08-1.64-1.95-2.93-2.26c-1.16-0.28-2.41-0.15-3.52,0.3c-2.78,1.12-4.7,4.19-3.57,7.15
								C558-152.67,558.48-152.8,558.36-153.1L558.36-153.1z"/>
						</g>
					</g>
					<g>
						<g>
							<path class="st19" d="M561.16-149.12c-2.6-0.76-4.02-4.26-3.54-6.75c0.23-1.15,0.76-2.3,1.55-3.18
								c0.77-0.85,1.66-1.2,2.74-1.45c1.11-0.25,2.17-0.29,3.27,0.11c1.06,0.39,2.13,1.14,2.83,2.02c1.65,2.09,1.86,4.87,0.56,7.19
								c-0.58,1.04-1.68,1.66-2.78,2.05c-1.5,0.52-3.1,0.56-4.62,0.06c-0.31-0.1-0.44,0.38-0.13,0.48c2.41,0.79,5.75,0.34,7.5-1.67
								c0.93-1.06,1.37-2.69,1.41-4.07c0.03-1.26-0.41-2.55-1.06-3.62c-1.25-2.08-3.87-3.62-6.33-3.19
								c-1.21,0.21-2.38,0.48-3.32,1.31c-0.96,0.85-1.62,2.05-1.97,3.27c-0.84,2.88,0.66,7.02,3.75,7.92
								C561.34-148.55,561.47-149.03,561.16-149.12L561.16-149.12z"/>
						</g>
					</g>
					<g>
						<g>
							<path class="st19" d="M559.08-153.47c2.52-1.29,5.08-2.49,7.67-3.61c0.29-0.13,0.04-0.56-0.25-0.43
								c-2.6,1.11-5.16,2.32-7.67,3.61C558.54-153.75,558.8-153.32,559.08-153.47L559.08-153.47z"/>
						</g>
					</g>
					<g>
						<g>
							<path class="st19" d="M560.56-151.58c2.34-0.98,4.67-1.99,6.98-3.03c0.29-0.13,0.04-0.56-0.25-0.43
								c-2.27,1.02-4.56,2.02-6.86,2.98C560.13-151.94,560.26-151.46,560.56-151.58L560.56-151.58z"/>
						</g>
					</g>
					<g>
						<g>
							<path class="st19" d="M567.23-159.52c1.49,0.18,2.21-1.28,3.36-1.89c1.2-0.64,2.74-0.14,3.84-0.96
								c0.62-0.46,0.95-1.13,1.7-1.43c0.72-0.29,1.46-0.27,2.21-0.36c1.3-0.17,1.84-1.37,2.92-1.93c0.29-0.15,0.03-0.58-0.25-0.43
								c-0.47,0.25-0.84,0.6-1.22,0.98c-0.61,0.6-1.14,0.87-2.01,0.93c-1.2,0.08-2.27,0.35-3.09,1.28c-0.6,0.67-1.14,0.92-2.04,0.98
								c-0.6,0.04-1.19,0.07-1.77,0.28c-0.57,0.21-1.06,0.56-1.5,0.97c-0.62,0.57-1.24,1.22-2.16,1.11
								C566.91-160.06,566.91-159.56,567.23-159.52L567.23-159.52z"/>
						</g>
					</g>
					<g>
						<g>
							<path class="st19" d="M568.09-158.55c1.49,0.18,2.21-1.28,3.36-1.89c1.2-0.64,2.74-0.14,3.84-0.96
								c0.62-0.46,0.95-1.13,1.7-1.43c0.72-0.29,1.46-0.27,2.21-0.36c1.3-0.17,1.84-1.37,2.92-1.93c0.29-0.15,0.03-0.58-0.25-0.43
								c-0.47,0.25-0.84,0.6-1.22,0.97c-0.61,0.6-1.14,0.87-2.01,0.93c-1.2,0.08-2.27,0.35-3.09,1.28c-0.6,0.67-1.14,0.92-2.04,0.98
								c-0.6,0.04-1.19,0.07-1.77,0.28c-0.57,0.21-1.06,0.56-1.5,0.97c-0.62,0.57-1.24,1.22-2.16,1.11
								C567.77-159.09,567.77-158.59,568.09-158.55L568.09-158.55z"/>
						</g>
					</g>
					<g>
						<g>
							<path class="st19" d="M568.65-157.3c1.49,0.18,2.21-1.28,3.36-1.89c1.2-0.64,2.74-0.14,3.84-0.96
								c0.62-0.46,0.95-1.13,1.7-1.43c0.72-0.29,1.46-0.27,2.21-0.36c1.3-0.17,1.84-1.37,2.92-1.93c0.29-0.15,0.03-0.58-0.25-0.43
								c-0.47,0.25-0.84,0.6-1.22,0.97c-0.61,0.6-1.14,0.87-2.01,0.93c-1.2,0.08-2.27,0.35-3.09,1.28c-0.6,0.67-1.14,0.92-2.04,0.98
								c-0.6,0.04-1.19,0.07-1.77,0.28c-0.57,0.21-1.06,0.56-1.5,0.97c-0.62,0.57-1.24,1.22-2.16,1.11
								C568.33-157.84,568.33-157.34,568.65-157.3L568.65-157.3z"/>
						</g>
					</g>
					<g>
						<g>
							<path class="st19" d="M569.37-156.06c1.49,0.18,2.21-1.28,3.36-1.89c1.2-0.64,2.74-0.14,3.84-0.96
								c0.62-0.46,0.95-1.13,1.7-1.43c0.72-0.29,1.46-0.27,2.21-0.36c1.3-0.17,1.84-1.37,2.92-1.93c0.29-0.15,0.03-0.58-0.25-0.43
								c-0.47,0.25-0.84,0.6-1.22,0.98c-0.61,0.6-1.14,0.87-2.01,0.93c-1.2,0.08-2.27,0.35-3.09,1.28c-0.6,0.67-1.14,0.92-2.04,0.98
								c-0.6,0.04-1.19,0.07-1.77,0.28c-0.57,0.21-1.06,0.56-1.5,0.97c-0.62,0.57-1.24,1.22-2.16,1.11
								C569.05-156.59,569.05-156.09,569.37-156.06L569.37-156.06z"/>
						</g>
					</g>
					<g>
						<g>
							<path class="st19" d="M570-155.03c1.49,0.18,2.21-1.28,3.36-1.89c1.2-0.64,2.74-0.14,3.84-0.96c0.62-0.46,0.95-1.13,1.7-1.43
								c0.72-0.29,1.46-0.27,2.21-0.36c1.3-0.17,1.84-1.37,2.92-1.93c0.29-0.15,0.03-0.58-0.25-0.43c-0.47,0.25-0.84,0.6-1.22,0.97
								c-0.61,0.6-1.14,0.87-2.01,0.93c-1.2,0.08-2.27,0.35-3.09,1.28c-0.6,0.67-1.14,0.92-2.04,0.98c-0.6,0.04-1.19,0.07-1.77,0.28
								c-0.57,0.21-1.06,0.56-1.5,0.97c-0.62,0.57-1.24,1.22-2.16,1.11C569.68-155.57,569.68-155.07,570-155.03L570-155.03z"/>
						</g>
					</g>
					<g>
						<g>
							<path class="st19" d="M570.75-153.73c1.49,0.18,2.21-1.28,3.36-1.89c1.2-0.64,2.74-0.14,3.84-0.96
								c0.62-0.46,0.95-1.13,1.7-1.43c0.72-0.29,1.46-0.27,2.21-0.36c1.3-0.17,1.84-1.37,2.92-1.93c0.29-0.15,0.03-0.58-0.25-0.43
								c-0.47,0.25-0.84,0.6-1.22,0.97c-0.61,0.6-1.14,0.87-2.01,0.93c-1.2,0.08-2.27,0.35-3.09,1.28c-0.6,0.67-1.14,0.92-2.04,0.98
								c-0.6,0.04-1.19,0.07-1.77,0.28c-0.57,0.21-1.06,0.56-1.5,0.97c-0.62,0.57-1.24,1.22-2.16,1.11
								C570.44-154.27,570.44-153.77,570.75-153.73L570.75-153.73z"/>
						</g>
					</g>
				</g>
			</g>
			
				<rect x="529.96" y="-178.28" transform="matrix(0.9696 -0.2446 0.2446 0.9696 59.9583 126.8753)" class="st19" width="21.87" height="0.53"/>
			
				<rect x="530.66" y="-175.99" transform="matrix(0.9696 -0.2446 0.2446 0.9696 59.4207 127.1158)" class="st19" width="21.87" height="0.53"/>
			
				<rect x="531.03" y="-173.31" transform="matrix(0.9696 -0.2446 0.2446 0.9696 58.7759 127.2847)" class="st19" width="21.87" height="0.53"/>
			
				<rect x="531.54" y="-171.2" transform="matrix(0.9696 -0.2446 0.2446 0.9696 58.275 127.4761)" class="st19" width="21.87" height="0.53"/>
		</g>
	</g>
	<g>
		<g>
			<path class="st9" d="M710.14,151.22c0,0-19.26-15.23-3.51-20.11C720.47,126.84,712.96,148.78,710.14,151.22z"/>
			<path class="st4" d="M708.44,134.19c4.8-0.63,4.98,6.17,0.61,6.85S703.64,134.82,708.44,134.19z"/>
		</g>
		<g>
			<path class="st9" d="M556.33,296.5c0,0-23.26-7.85-10.07-17.75C557.84,270.06,558.17,293.25,556.33,296.5z"/>
			<path class="st4" d="M549,281.04c4.31-2.21,6.77,4.13,2.88,6.25C547.98,289.41,544.69,283.25,549,281.04z"/>
		</g>
		<g>
			<path class="st9" d="M337.23,324.18c0,0-12.76-20.98,3.7-20.07C355.39,304.91,340.72,322.87,337.23,324.18z"/>
			<path class="st4" d="M341.56,307.62c4.72,1.08,2.53,7.51-1.81,6.64C335.4,313.38,336.84,306.55,341.56,307.62z"/>
		</g>
		<g>
			<path class="st9" d="M18.93,258.52c0,0-19.99-30.27,4.36-29.83C44.69,229.07,24.02,256.39,18.93,258.52z"/>
			<path class="st4" d="M24.41,233.84c7.03,1.33,4.15,10.96-2.32,9.9C15.64,242.68,17.39,232.5,24.41,233.84z"/>
		</g>
		<g>
			<path class="st9" d="M725.2,274.17c0,0-18.13-16.55-2.08-20.3C737.23,250.57,728.19,271.93,725.2,274.17z"/>
			<path class="st4" d="M724.71,257.06c4.83-0.29,4.54,6.5,0.12,6.88S719.88,257.35,724.71,257.06z"/>
		</g>
		<g>
			<path class="st9" d="M565.28,223.17c0,0-18.52-7.22-7.48-14.73C567.49,201.85,566.89,220.61,565.28,223.17z"/>
			<path class="st4" d="M559.93,210.39c3.56-1.63,5.32,3.59,2.09,5.16C558.8,217.12,556.36,212.02,559.93,210.39z"/>
		</g>
		<g>
			<path class="st9" d="M153.26,201.62c0,0-13.85-14.25-0.7-16.5C164.12,183.14,155.78,199.96,153.26,201.62z"/>
			<path class="st4" d="M153.69,187.77c3.92,0,3.35,5.47-0.24,5.56C149.87,193.43,149.77,187.77,153.69,187.77z"/>
		</g>
	</g>
	<g>
		<polygon class="st7" points="715.04,-138.85 714.55,-152.03 721.88,-143.24 731.15,-147.15 727.74,-137.63 734.57,-124.2 
			722.85,-130.55 714.31,-122.24 713.57,-132.99 703.08,-135.43 		"/>
		<polygon class="st13" points="619.84,-123.33 626.14,-129.8 626.66,-121.88 632.38,-118.47 626.9,-115.48 624.95,-108.57 
			619.76,-114.69 613.32,-112.98 617.93,-119.03 611.28,-124.05 		"/>
		<polygon class="st7" points="139.8,-91.16 139.16,-100.07 145.21,-95.14 151.42,-97.52 149.83,-92.75 154.29,-87.17 146.48,-85.9 
			143.46,-78.74 139.8,-86.38 132.31,-86.22 		"/>
		<polygon class="st7" points="264,-148.56 262.95,-153.99 266.97,-152.06 271,-155.56 271.52,-151.36 276.95,-148.21 
			271.35,-146.28 269.95,-140.15 266.62,-144.36 260.67,-143.83 		"/>
		<path class="st13" d="M675.18-150.07c0,0,4.69-0.34,5.24-8.21c0,0,0.8,6.7,4.44,7.9c0,0-4,2.61-4.15,8.76
			C680.71-141.62,680.1-149.31,675.18-150.07z"/>
		<path class="st13" d="M46.18,182.08c0,0,10.52-0.75,11.76-18.41c0,0,1.79,15.03,9.97,17.72c0,0-8.97,5.86-9.31,19.66
			C58.59,201.05,57.21,183.8,46.18,182.08z"/>
		<path class="st13" d="M215.14-70.57c0,0,6.77-0.48,7.57-11.84c0,0,1.15,9.67,6.41,11.4c0,0-5.77,3.77-5.99,12.65
			C223.12-58.37,222.24-69.46,215.14-70.57z"/>
		<path class="st13" d="M92.91,204.99c0,0,4.69-0.34,5.24-8.21c0,0,0.8,6.7,4.44,7.9c0,0-4,2.61-4.15,8.76
			C98.44,213.45,97.83,205.76,92.91,204.99z"/>
		<path class="st13" d="M105.23-21.58c3.76-1.25,6.89,5.64,0.63,5.64S101.84-20.45,105.23-21.58z"/>
		<path class="st13" d="M9.39,195.21c3.76-1.25,6.89,5.64,0.63,5.64S6.01,196.33,9.39,195.21z"/>
		<path class="st13" d="M133.77,32.93c3.76-1.25,6.89,5.64,0.63,5.64C128.13,38.56,130.38,34.05,133.77,32.93z"/>
		<path class="st13" d="M669.82-115.39c3.76-1.25,6.89,5.64,0.63,5.64S666.43-114.26,669.82-115.39z"/>
		<path class="st13" d="M153.93-150.14c2.24-0.98,4.11,4.39,0.37,4.39C150.57-145.74,151.91-149.26,153.93-150.14z"/>
		<path class="st13" d="M620.19-156.04c2.24-0.98,4.11,4.39,0.37,4.39S618.17-155.16,620.19-156.04z"/>
		<path class="st13" d="M303.57-159.26c1.2-0.52,2.2,2.34,0.2,2.34C301.77-156.91,302.49-158.79,303.57-159.26z"/>
		<path class="st13" d="M579.13-115.42c1.2-0.52,2.2,2.34,0.2,2.34C577.34-113.07,578.05-114.95,579.13-115.42z"/>
	</g>
	<g>
		<rect x="2.3" y="-166.42" class="st20" width="750" height="500"/>
	</g>
	<path class="st13" d="M729.85-24.59c0,0,3.61-0.26,4.04-6.33c0,0,0.62,5.17,3.42,6.09c0,0-3.08,2.01-3.2,6.75
		C734.12-18.07,733.64-23.99,729.85-24.59z"/>
	<g>
		<path class="st21" d="M373.93,63.45h2.97c3.97,0.25,7.69,1.49,11.16,3.47c6.45,3.97,11.16,10.41,12.15,17.85
			c0.74,5.7,0,10.91-2.73,15.87c0,0,0,0-0.25,0l0,0v-0.25c0.99-2.23,1.74-4.46,2.23-6.45c0.25-1.74,0.5-3.47,0.5-5.7
			c0-1.74-0.25-3.47-0.5-4.96c-2.48-9.67-9.67-16.61-19.09-18.84c-3.47-0.74-6.69-0.74-10.16,0c-10.16,2.23-18.1,10.41-19.58,20.58
			c-0.74,5.45,0,10.66,2.73,15.87v0.25l0,0c0,0,0,0-0.25,0c-0.25-0.5-0.74-0.99-0.99-1.74c-1.24-2.97-1.98-5.7-2.23-8.18
			c-0.25-2.97,0-6.45,0.74-9.17c0.99-3.47,2.48-6.69,4.96-9.42c2.23-2.48,4.46-4.71,7.19-6.2c2.23-1.24,4.46-1.98,6.94-2.48
			C370.96,63.7,372.45,63.45,373.93,63.45L373.93,63.45z"/>
		<path class="st21" d="M353.11,81.3c-1.74,5.21-1.74,10.16,0.25,15.37c0.5,1.24,0.99,2.23,1.49,3.47v0.25
			c0,0.25-0.25,0.25-0.25,0.25h-0.25c-0.25-0.5-0.5-0.99-0.74-1.49c-0.74-1.74-1.24-3.47-1.74-5.45c-0.5-1.98-0.5-4.46-0.25-6.45
			c0-1.24,0.25-2.73,0.5-3.97c2.73-9.67,10.16-16.61,19.83-18.1c2.48-0.25,4.71-0.25,6.94,0c6.94,1.24,12.4,4.46,16.11,9.92
			c2.23,3.22,3.47,6.69,4.21,10.41c0.74,5.21,0,9.92-2.48,14.63c0,0.25-0.25,0.25-0.5,0.25l0,0c-0.25,0-0.25-0.25-0.25-0.5
			c1.98-3.97,2.97-8.18,2.48-12.89c-0.5-4.71-1.98-8.68-4.96-12.4c-6.94-8.92-19.34-11.65-29.25-6.2
			C359.06,71.14,354.84,75.85,353.11,81.3L353.11,81.3z"/>
		<path class="st21" d="M371.95,67.91c-0.5,0-0.99,0-1.49,0.25c-0.5,0-0.74-0.25-0.74-0.5s0-0.25,0.25-0.25h0.25h0.25
			c1.24,0,1.98-0.5,2.97,0.74v0.25h-0.74c-0.25,0-0.25,0,0,0.25c0.74,0.5,0.5,0.74,0,1.24v0.25l0.99,0.74c0,0,0,0,0,0.25l0,0l0,0
			c-0.74-0.5-1.49-0.74-2.23-0.74c-0.25,0-0.25,0-0.5-0.25l-0.25-0.25c-0.25-0.25,0-0.25,0-0.25c0.5,0,1.24-0.25,1.49-0.5
			c0,0,0,0,0-0.25l0,0c0-0.25-0.25-0.25-0.25,0c-0.5,0.25-0.74,0.5-1.24,0.25c0,0-0.25-0.25,0-0.25l0.25-0.25
			c0.25-0.25,0-0.25,0-0.25l-0.99,0.25c-0.25,0-0.25,0.25-0.25,0.25c0.25,0.74,0.25,1.24,0.5,1.98c0,0.5,0,0.5-0.25,0
			s-0.5-0.99-0.74-1.49c0-0.25-0.25-0.5-0.74-0.5l0,0c-0.25,0-0.5,0.25-0.25,0.5l0.5,1.49c0,0.25,0,0.5-0.25,0.25
			c-0.5-0.5-1.24-0.25-1.98-0.25c-0.5,0-0.5-0.25-0.25-0.5s0.5-0.5,0.5-0.74c0-0.25,0-0.25,0-0.25c-0.5,0.25-0.99,0.5-1.49,0.74
			v0.25l0.74,1.74l0,0l0,0h-0.25l-0.5-0.74c-0.25-0.25-0.74-0.25-0.74,0.25c-0.25,0.5-0.25,1.24-0.99,0.99c-0.5,0-0.5-0.25,0-0.5
			c0.25,0,0.25-0.25,0.25-0.5s0-0.5-0.25-0.25c-0.5,0.25-0.99,0.5-1.49,0.74c-0.5,0.74-0.5,1.24,0.5,1.74c0.25,0,0.25,0,0.25-0.25
			v-0.25c0,0,0-0.25,0.25-0.25s0.25,0,0.5,0c0,0,0.25,0,0.25,0.25c-0.25,0.99-1.24,0.74-1.98,0.25c-0.25-0.25-0.5-0.5-0.5-0.99
			c0-0.74,0.25-0.99,0.74-1.49c1.74-1.24,3.72-2.23,5.45-2.73c0.5-0.25,0.99-0.25,1.49-0.5c0,0,0.25,0,0.25-0.25l0,0
			c0-0.25,0-0.25,0.25-0.25h0.25h0.25L371.95,67.91C372.2,67.91,372.2,67.91,371.95,67.91 M367.49,70.39c-0.25,0-0.25,0.25-0.5,0.25
			v0.25c0.25,0,0.5,0,0.74,0c0,0,0.25,0,0-0.25S367.49,70.39,367.49,70.39C367.49,70.39,367.49,70.39,367.49,70.39 M364.51,71.39
			L364.51,71.39C364.51,71.14,364.51,71.14,364.51,71.39c-0.5-0.25-0.74,0-0.99,0c0,0,0,0,0,0.25l0,0c0,0,0,0,0.25,0
			C364.02,71.63,364.26,71.39,364.51,71.39L364.51,71.39L364.51,71.39z"/>
		<path class="st21" d="M386.82,71.63c0,0,0-0.25-0.25-0.25h-0.25c0,0.5-0.25,0.74-0.74,0.5c-0.25-0.25-0.5-0.25-0.99-0.5
			c0,0-0.25-0.25,0-0.25c0-0.25,0.25-0.25,0.25-0.5c0.25,0,0.25-0.25,0-0.25l-2.48-0.99h-0.25c-0.25,0-0.5,0.25-0.25,0.5l0.25,0.25
			c0.5,0,0.99,0,1.24,0s0.25,0.25,0,0.5s-0.74,0.74-0.74,1.24c0,0,0,0.25-0.25,0c0,0,0,0,0-0.25c0-0.5,0-0.74,0.25-0.99
			c0,0,0-0.25-0.25-0.25l-0.99,0.25c-0.25,0-0.5-0.25-0.5-0.5l0.25-0.99v-0.25l-0.25-0.25h-0.25c-0.25,0.5-0.5,1.49-0.74,2.23
			c0,0,0,0.25-0.25,0c0,0,0,0-0.25-0.25c0-0.25,0-0.25,0-0.5c0-0.5,0.25-0.74,0.25-1.24s0-0.74-0.5-0.74c-0.25,0-0.5,0-0.5,0.25
			l-0.25,1.74c0,0.25,0,0.25-0.25,0l0,0c0,0,0,0,0-0.25c0-0.5-0.25-0.5-0.74-0.5c-1.24,0.25-1.98-0.99-2.48-1.98v-0.25
			c0.25,0,0.74,0,0.99,0c1.24,0,2.48,0.25,3.72,0.5h0.25c0,0,0.25,0,0.25-0.25h0.25c0.25,0.25,0.5,0.5,0.74,0.5
			c1.74,0.5,2.97,0.99,4.21,1.98c0.25,0.25,0.74,0.25,0.99,0h0.25l1.74,0.25c0,0,0.25,0,0.25,0.25l0,0l0,0c-0.25,0-0.5,0-0.74,0
			c-0.5,0-0.5,0.25-0.25,0.5v0.25C387.32,71.14,387.07,71.39,386.82,71.63c-0.25,0.5-0.5,0.99-0.74,1.24h-0.25
			c-0.25,0-0.25-0.25,0-0.25C386.08,72.87,386.33,72.38,386.82,71.63C386.82,71.88,386.82,71.88,386.82,71.63 M376.66,68.66
			c0-0.5-0.25-0.5-0.5-0.5c-0.25,0-0.25,0-0.25,0.25c0.5,0.99,0.99,1.24,1.74,0.99c0,0,0,0,0-0.25l0,0c0-0.25-0.25-0.25-0.25-0.25
			h-0.5C376.66,68.91,376.66,68.91,376.66,68.66 M377.9,68.41l0.5,0.99l0,0l0,0c0.25-0.25,0.25-0.5,0.25-0.74l0,0
			C378.4,68.41,378.15,68.16,377.9,68.41L377.9,68.41L377.9,68.41 M387.07,71.39c0,0,0.25-0.25,0-0.5c0-0.25-0.25-0.25-0.25-0.25
			s-0.25,0.25,0,0.5C386.82,71.39,387.07,71.39,387.07,71.39L387.07,71.39z"/>
		<path class="st21" d="M370.96,79.07c-0.74,0-1.98,0.25-2.23-0.74v-0.25c0.25-0.25,0.25-0.5,0.5-0.74
			c0.25-0.74,0.74-0.99,1.24-1.74c0.25-0.25,0.5-0.74,0.74-0.99c1.24-0.5,2.23,0.25,3.22,0.99c0.25,0.25,0.74,0.25,0.99,0.25
			c0,0,0.25,0,0.25,0.25s-0.25,0.5-0.5,0.74c-0.25,0-0.25,0.25,0,0.25c0,0,0.25,0.25,0,0.25c0,0.25-0.25,0.25-0.25,0.25
			c-0.25,0-0.74,0-0.99,0s-0.25,0,0,0.25l0,0v0.25c-0.5,0.25-0.5,0.74-0.99,0.99c-0.5,0.25-0.99,0.74-1.49,0.99h-0.25
			c-0.25-0.25-0.25-0.5,0-0.74C371.45,79.32,371.45,79.07,370.96,79.07L370.96,79.07z"/>
		<path class="st21" d="M377.16,80.81L377.16,80.81L377.16,80.81C377.16,80.56,377.16,80.56,377.16,80.81
			c-0.99-0.25-1.74-0.99-1.74-1.98c0,0,0-0.25,0.25-0.25c1.98,0,3.47,0,5.21,0c0.25,0,0.5,0,0.5,0.25c0.99,1.49,1.49,3.22,1.24,5.45
			c0,0.99-0.5,1.49-1.24,1.98c-0.74,0.5-1.74,0.74-2.73,0.74c-0.25,0-0.25,0-0.25-0.25c-0.25-0.74-0.25-1.24-0.25-1.98
			c-0.25-1.24-0.99-1.98-1.74-2.73c-0.25,0-0.25,0-0.25,0.25v1.74c0,0.25-0.25,0.25-0.25,0.25h-1.49c-0.25,0-0.25,0-0.25-0.25
			c0-0.74,0-2.23,0.5-2.73c0.5-0.25,0.74-0.74,0.99-1.24h0.25C375.67,80.56,376.41,80.81,377.16,80.81L377.16,80.81z"/>
		<path class="st21" d="M373.93,80.56c0-0.5,0.25-0.99,0.25-1.49c0-0.25,0.25-0.25,0.5-0.25s0.25,0.25,0.25,0.74
			c0,0.25,0,0.25-0.25,0.5C374.68,80.31,374.43,80.56,373.93,80.56C374.18,80.81,373.93,80.56,373.93,80.56L373.93,80.56z"/>
		<path class="st21" d="M373.44,80.56l-2.23,1.24c-0.25,0-0.25,0-0.5,0l-0.5-0.5v-0.25c0.99-0.74,1.98-1.24,2.73-1.49h0.25
			C373.93,79.81,373.93,80.06,373.44,80.56L373.44,80.56L373.44,80.56z"/>
		<path class="st21" d="M372.69,84.03c-0.5-0.25-0.99-0.25-1.24-0.99c-0.25-0.5,0-0.74,0.25-0.99c0.5-0.5,1.24-0.99,1.74-1.24h0.25
			c0,0,0,0,0,0.25c-0.25,0.99-0.25,1.74-0.25,2.73c0,0,0,0.25-0.25,0.25C372.94,84.28,372.69,84.28,372.69,84.03L372.69,84.03z"/>
		<path class="st21" d="M371.45,84.03c0.74,0.25,1.49,0.5,2.23,0.74c0.5,0,0.74,0,1.24,0.25c0.25,0,0.5,0.25,0.5,0.5
			c0,0.5,0,0.99,0,1.49c0,0.25-0.25,0.25-0.5,0.25c-1.74-0.74-3.22-1.49-4.71-2.73c-0.25-0.25-0.25-0.25-0.25-0.5
			c-0.25-0.74-0.5-0.99-1.24-1.24c-0.25,0-0.25-0.25-0.25-0.5c0.74-0.74,1.24-0.74,1.74,0C371.21,82.79,370.71,83.78,371.45,84.03
			L371.45,84.03z"/>
		<path class="st21" d="M367.98,84.77l-0.5,0.25h-0.25c-0.25-0.25-0.5-0.5-0.25-0.99c0.5-0.5,0.99-0.99,1.74-0.99
			c0.99-0.25,1.24,1.24,1.24,1.98c0,0.25,0,0.25-0.25,0.5c-0.5,0.25-0.99,0-1.49-0.25l-0.25-0.25L367.98,84.77L367.98,84.77
			L367.98,84.77z"/>
		<path class="st21" d="M377.4,87.5l-0.74,0.25c-0.25,0.25-0.5,0-0.5-0.25c0-1.49,0-2.73,0-4.21c0,0,0.25-0.25,0.25,0
			c0.99,0.5,1.24,2.48,1.49,3.47C377.65,87.25,377.65,87.5,377.4,87.5L377.4,87.5z"/>
		<path class="st21" d="M372.45,86.51l2.73,1.49c0.25,0,0.25,0.25,0,0.5s-0.5,0.74-0.99,0.74h-0.25
			C373.19,88.24,372.69,87.5,372.45,86.51C372.2,86.51,372.2,86.26,372.45,86.51L372.45,86.51z"/>
		<path class="st21" d="M359.8,89.23c0.25,0.25,0.25,0.5,0,0.99c0,0,0,0.25,0,0.5s0.25,0.74,0.5,0.99c0,0.25,0,0.25-0.25,0.5
			l-0.74,0.25h-0.25c-0.25-0.25-0.25-0.74,0-0.99c0.25-0.74,0.25-1.49-0.25-2.23c0-0.25-0.25-0.25-0.5,0
			c-0.74,0.5-1.49,0.74-2.48,0.5c-0.99-0.25-1.98-0.5-2.97-0.5c-0.5,0-0.5-0.25,0-0.25c1.24-0.5,2.48-0.74,3.47-0.99
			c0.74-0.25,1.24,0.25,1.98,0.74h0.25c0.25-0.5,0.25-0.99,0.74-1.24c0.25,0,0.5,0,0.5,0.25c0,0.5,0.25,0.74,0.74,1.24
			c0.25,0.25,0,0.5-0.25,0.74c-0.25,0-0.25,0-0.5,0C359.8,88.99,359.8,89.23,359.8,89.23L359.8,89.23z"/>
		<path class="st21" d="M372.2,88c-1.74,0-3.22,0-4.71,0c-0.25,0-0.5,0.25-0.74,0.25c-0.25,0-0.25,0-0.5-0.25
			C366,87.25,366.5,87,366.99,87c1.74-0.25,3.22-0.25,4.46-0.25h0.25L372.2,88C372.45,88,372.45,88,372.2,88L372.2,88z"/>
		<path class="st21" d="M375.42,89.98L375.42,89.98C375.42,90.23,375.67,90.23,375.42,89.98c1.74-0.25,2.97-0.74,4.46-1.49
			c0.25,0,0.25,0,0.5,0l1.74,0.74v0.25c-0.99,0.74-2.23,1.49-3.22,2.23c-0.25,0.25-0.5,0.25-0.74,0c-0.74-0.25-0.74,0.74-1.49,0.74
			c-1.24-0.25-2.48-0.5-3.72-0.74c-0.25,0-0.25-0.25,0-0.25c0.5-0.74,1.24-1.24,1.74-1.49c0.25-0.25,0.5-0.5,0.5-0.74
			c0,0,0-0.25,0.25-0.25l2.23-0.99l0,0c0.5-0.25,0.99,0,1.24,0.25s0.25,0.5-0.25,0.74C377.65,89.23,376.66,89.73,375.42,89.98
			L375.42,89.98L375.42,89.98z"/>
		<path class="st21" d="M382.11,88.99c-0.5,0-1.49-0.5-1.74-0.99c-0.25-0.25-0.25-0.25,0-0.25c4.46,0,8.68-0.25,12.89-0.25
			c1.49,0,2.97,0,4.21,0c0,0,0.25,0,0.25,0.25v0.74c0,0,0,0.25-0.25,0.25C392.28,88.99,387.32,88.99,382.11,88.99L382.11,88.99z"/>
		<path class="st21" d="M364.51,89.23C364.76,88.99,364.51,88.99,364.51,89.23h-3.47c0,0-0.25,0-0.25-0.25v-0.74
			c0,0,0-0.25,0.25-0.25h4.46c0.25,0,0.25,0,0.25,0.25c-0.25,0.74,0.5,1.24,1.24,0.74c0.25-0.25,0.25-0.25,0.5-0.5h0.25l4.71,0.25
			c0.25,0,0.25,0,0.5,0.25l0.25,0.25c0.25,0.25,0,0.25,0,0.25c-1.49,0-3.22-0.25-4.71-0.25c-0.5,0-0.5,0.25-0.25,0.5
			c0.99,0.74,0.74,3.22,0.5,4.46c-0.25,0.5-0.25,0.74-0.25,1.24c0,1.24,0.25,2.23,0.25,3.47c0.25,0.99-0.74,1.98-1.74,1.98
			c-0.74,0-1.49,0-2.23,0c-0.25,0-0.25,0-0.25-0.25c-0.25-0.5-0.74-0.99-0.74-1.74c0-1.24,0.25-2.73,0.25-3.72c0-0.25,0-0.74,0-0.99
			c-0.25-0.99-0.25-1.74-0.25-2.73C363.77,90.23,364.26,89.73,364.51,89.23 M367.24,91.96l0.25,1.74c0,0.25,0.25,0.5,0.5,0.25
			c0.25,0,0.25-0.25,0.25-0.5c0.25-0.99,0.25-3.22-0.74-3.97h-0.25c-0.5,0-1.24,0-1.74,0c-0.25,0-0.5,0-0.74,0.25
			c-0.74,0.99-0.74,2.23-0.74,3.22c0,0.5,0.25,0.74,0.5,0.99s0.5,0,0.5-0.25v-0.74c0-0.25,0.25-0.5,0.5-0.5h1.24l0,0l0,0l0,0h-1.49
			l0,0l0,0c0,0,0-0.25,0.25-0.25L367.24,91.96C367.24,91.71,367.24,91.71,367.24,91.96 M366,97.42c0.25-0.25,0.25-0.25,0.5,0
			l0.99,1.24c0.25,0.5,0.5,0.5,0.5-0.25c0-1.24,0-2.48-0.25-3.72c0-0.25-0.25-0.5-0.5-0.5c-0.74,0-1.49-0.25-2.23,0
			c-0.5,0-0.74,0.25-0.74,0.74c-0.25,1.24-0.25,2.73-0.25,3.97c0,0.25,0.25,0.5,0.5,0.25C365.26,98.66,365.75,97.91,366,97.42
			 M366,98.9c0.25,0,0.5,0.25,0.74,0c0.25,0,0.25-0.25,0.25-0.5C366.5,98.16,366,98.41,366,98.9C365.75,98.9,365.75,98.9,366,98.9
			L366,98.9z"/>
		<path class="st21" d="M370.71,96.92L370.71,96.92C370.71,97.17,370.71,97.17,370.71,96.92c0.5-0.25,0.74-0.25,1.24-0.25
			c0.25,0,0.25,0,0.25,0.25c0.74,1.24,0.25,3.47-0.25,4.71c-0.25,0.99-0.5,2.23-0.5,3.22c0,0.74,0,1.74,0,2.48
			c0,0.25-0.25,0.5-0.5,0.5c-0.5,0-0.99-0.25-1.49,0c-0.99,0.25-1.49,0.5-2.48,0c-0.25,0,0-0.25,0-0.25l2.23-1.24l0.25-0.25
			l-0.25-9.42v-0.25c0.99-1.49,1.98-2.73,2.97-3.72c0.25-0.25,0.5-0.25,0.99-0.25c0.74,0.25,1.74,0.25,2.48,0.5
			c0.25,0,0.74,0,0.99,0c0.5-0.25,0.74-0.5,1.24-0.5c0.74,0,1.98-0.99,2.73-1.49c0.25-0.25,0.25,0,0.25,0.25
			c-0.25,0.99-0.74,1.49-1.74,1.98c-2.23,0.99-4.21,1.74-6.2,2.48C372.45,95.93,371.45,96.18,370.71,96.92L370.71,96.92
			L370.71,96.92z"/>
		<path class="st21" d="M379.64,97.42c0.25-0.25,0.5-0.5,0.74-0.74l0.25-0.25c0.5,0,0.99,0,1.74,0c2.23,0.25,4.21,0.5,6.45,0.74
			c0.5,0,0.74,0,1.24,0c0.25,0,0.25,0,0.25,0.25c0.25,0.5,0.25,0.74,0.25,1.24c-0.25,0.74-0.25,1.49-0.25,2.23
			c0,0.5-0.25,0.74-0.5,0.99c0,0-0.25,0-0.25,0.25c-0.25,0.25-0.5,0-0.5-0.25c0-0.74-0.25-1.24-0.5-2.23
			c-0.5-0.99-1.24-0.99-2.23-0.99c-2.23,0.25-4.71,0.5-6.94,0.74c-0.25,0-0.5,0-0.5-0.25c-0.74-1.24-1.49-2.73-1.74-3.72
			c0-0.25,0-0.5,0.25-0.5c0.99-0.74,2.23-1.24,3.22-1.74h0.25v0.25C380.38,94.69,379.88,95.93,379.64,97.42L379.64,97.42
			L379.64,97.42z"/>
		<path class="st21" d="M365.26,94.69c0.5-0.25,1.24-0.25,1.98-0.25h0.25c0.74,0.74-0.25,1.49-0.99,1.98h-0.25
			c-0.25-0.25-0.74-0.5-0.99-0.74S364.76,94.94,365.26,94.69L365.26,94.69z"/>
		<path class="st21" d="M367.74,96.42l0.5,1.98c0,0.25-0.25,0.25-0.25,0.25l-0.99-1.49v-0.25l0.74-0.74
			C367.49,96.18,367.74,96.18,367.74,96.42L367.74,96.42z"/>
		<path class="st21" d="M364.76,96.67l0.25-0.25c0-0.25,0.25-0.25,0.25,0l0.74,0.74v0.25l-0.99,1.24c-0.25,0.25-0.25,0-0.25-0.25
			V96.67C364.51,96.67,364.51,96.67,364.76,96.67L364.76,96.67z"/>
		<path class="st21" d="M375.42,121.96h-1.49c-7.69-0.74-14.38-3.47-20.08-8.43c-2.23-1.98-4.46-4.46-6.45-6.94
			c-0.25-0.25-0.25-0.5-0.5-0.74v-0.25c1.24-0.5,2.23-1.24,2.97-2.48v-0.25c-0.25-0.25-0.5-0.5-0.74-0.74
			c-0.74-0.99-0.5-2.48,0.99-2.73c1.49-0.25,1.49,1.49,1.49,2.48c0,0.25,0,0.5,0.25,0.25c1.24-0.25,2.23-0.74,3.22-1.49
			c0.25-0.25,0.25,0,0.5,0c1.24,1.98,2.48,3.72,4.21,5.21c4.21,3.72,9.17,5.7,14.87,5.95c1.74,0,3.47,0,5.21-0.5
			c4.21-0.74,7.69-2.73,10.91-5.45c1.98-1.74,3.72-3.72,4.96-5.7c0,0,0.25-0.25,0.25,0c0.99,0.74,2.23,1.24,3.22,1.49
			c0.5,0,0.5,0,0.5-0.5c-0.25-0.99,0.25-1.98,1.24-2.23c0.5-0.25,0.74,0,1.24,0.25c0.99,1.24,0,2.73-1.24,3.22
			c-0.25,0-0.25,0.25,0,0.25l2.97,2.97v0.25c-1.24,1.74-2.48,3.47-3.97,4.96c-5.21,5.7-11.65,9.17-19.34,10.16
			c-0.5,0-1.24,0.25-2.48,0.25C376.91,121.71,376.16,121.96,375.42,121.96 M401.45,100.89c0-0.25,0-0.5-0.25-0.74
			c-0.25,0-0.25,0-0.5,0s-0.25,0-0.25,0.25c-0.25,0.5-0.5,0.99-0.25,1.49c0,0.25,0.25,0.25,0.5,0.25
			C401.2,101.88,401.45,101.38,401.45,100.89 M350.38,102.13c0.25,0,0.5-0.5,0.5-0.99c-0.25-0.5-0.5-0.74-0.74-0.74
			c-0.25,0-0.5,0.5-0.5,0.99C349.64,101.88,350.13,102.37,350.38,102.13 M360.79,117.5c2.73,1.49,5.95,2.48,9.67,3.22
			c1.49,0.25,3.22,0.5,4.71,0.5c1.98,0,3.47-0.25,4.96-0.25c4.71-0.5,9.17-2.23,12.89-4.96c3.72-2.48,6.94-5.95,9.42-9.42v-0.25
			c-0.99-0.99-1.98-1.74-2.73-2.97c-0.25-0.25-0.25-0.25-0.5-0.25c-1.24-0.25-2.23-0.74-3.47-1.24c-0.25,0-0.25,0-0.5,0
			c-4.71,7.19-12.4,11.16-20.82,11.16c-5.7,0-11.16-2.23-15.37-5.95c-1.74-1.49-2.97-2.97-4.21-4.71c0,0-0.25-0.25-0.25,0
			c-0.99,0.74-1.98,0.99-3.22,0.99c-0.25,0-0.74,0-0.74,0.25c-0.74,0.74-1.49,1.74-2.48,2.23c0,0-0.25,0.25,0,0.25
			C351.62,111.05,355.84,114.77,360.79,117.5L360.79,117.5z"/>
		<path class="st21" d="M364.26,100.89C364.26,100.89,364.51,100.64,364.26,100.89h2.48c0.74,0,1.24,0,1.24,0.25l0,0
			c0,0-0.5,0.25-1.24,0.25h-2.48l0,0V100.89L364.26,100.89z"/>
		<path class="st21" d="M395.01,107.83c0.25,0,0.25,0,0.5-0.25h0.25c0.5,0.25,0.74,0.74,0.74,1.24c0,0.25,0,0.25-0.25,0.25H396
			c-0.25,0-0.25,0-0.25-0.25v-0.5l0,0l0,0l0,0c0,0.25-0.25,0.5-0.5,0.5h-0.25c-0.99-0.74-0.25-1.98,0.74-2.23
			c0.25,0,0.25-0.25,0-0.25s-0.25-0.25-0.5-0.25c-0.25-0.25-0.25-0.25,0-0.25h0.99c0,0,0.25,0,0,0.25v0.25v0.25l2.48,1.98
			c0,0,0,0,0,0.25h-0.25c-0.25,0-0.25,0-0.5-0.25c-0.74-0.5-1.24-0.99-1.74-1.24C395.5,107.08,395.01,107.33,395.01,107.83
			C394.76,107.83,394.76,107.83,395.01,107.83L395.01,107.83z"/>
		<path class="st21" d="M355.34,107.58c-0.25-0.25-0.5-0.74-0.74-0.99c0-0.25-0.25-0.25-0.25-0.5c0,0,0,0,0.25-0.25h0.25l2.48,2.48
			h0.25l0,0c0.25,0,0.25,0,0.25,0.25v0.99c0,0,0,0.25-0.25,0c-0.25-0.25-0.5,0-0.5,0.25c-0.74,0.74-1.24,1.49-1.98,2.23
			c0,0-0.25,0.25-0.25,0l0,0c0,0,0,0,0-0.25c0.5-0.74,0.99-1.49,1.74-2.23c0.25-0.25,0.25-0.5,0-0.74c0-0.25-0.25-0.25-0.25-0.25
			c-0.25-0.25-0.25-0.25-0.5,0c-0.74,0.74-1.49,1.49-2.23,2.23c-0.25,0.25-0.25,0.25-0.25,0c0.25-0.74,0.25-1.74,0-2.73
			c-0.25-0.5,0-0.74,0.74-0.74L355.34,107.58C355.59,107.83,355.59,107.83,355.34,107.58 M354.35,108.32
			C354.35,108.32,354.1,108.32,354.35,108.32c-0.25,0.5-0.25,0.74-0.25,0.99s0.25,0.25,0.25,0c0.25-0.25,0.5-0.25,0.5-0.5v-0.25
			L354.35,108.32L354.35,108.32z"/>
		<path class="st21" d="M388.31,112.79C388.56,112.54,388.56,112.54,388.31,112.79c-0.74,0.25-1.24,0.5-1.74,0.74c0,0,0,0,0,0.25
			l1.24,2.97c0.25,0.25,0,0.25-0.25,0.25s-0.25-0.25-0.25-0.25c-0.5-0.74-0.74-1.74-1.24-2.48c0,0,0-0.25-0.25-0.25l-0.5-0.25
			c0,0-0.25-0.25,0-0.25l0.25-0.25v-0.25c-0.25-0.99,0-1.74,0.99-1.98c0.5-0.25,0.99,0,1.74,0l0,0l0,0c0,0,0,0-0.25,0
			c-0.74,0-2.23,0-2.23,1.24c0,0.25,0.25,0.25,0.5,0.25c2.23-0.99,4.21-2.23,6.2-3.97c0,0,0,0,0-0.25v-0.25v-0.25h0.74h0.25v0.25
			c0,0.25,0,0.25,0,0.25l1.98,2.23c0.25,0.25,0.25,0.25-0.25,0.25c-0.25,0-0.25,0-0.5-0.25c-0.5-0.5-0.99-1.24-1.74-1.74
			c-0.25-0.25-0.74-0.25-0.99,0l-2.97,2.23c-0.25,0.25-0.25,0.25,0,0.5c0.5,0.74,0.99,1.49,1.49,2.48c0.25,0.5,0.25,0.74-0.25,0.25
			c-0.5-0.25-0.99-0.5-1.74-0.25c-0.5,0-0.74,0-0.99-0.25v-0.25L388.31,112.79 M389.8,114.03l-0.5-0.74c-0.25-0.25-0.25-0.25-0.25,0
			l-0.25,0.5c0,0.25,0,0.25,0.25,0.25C389.3,114.27,389.55,114.27,389.8,114.03L389.8,114.03L389.8,114.03z"/>
		<path class="st21" d="M357.57,111.55C357.32,111.3,357.32,111.55,357.57,111.55c0,0.99,0,1.74,0,2.48s0,0.74-0.25,0
			s-0.5-1.24-0.5-1.98c0-0.25,0-0.25,0.25-0.5s0.5-0.74,0.74-0.99c0-0.25,0.25-0.5,0.5-0.5c0.74-0.5,1.49,0.5,0.99,1.24
			c-0.25,0.25-0.5,0.5-0.99,0.25C357.82,111.79,357.82,111.55,357.57,111.55L357.57,111.55 M358.32,110.8c0,0-0.25-0.25-0.25,0
			c-0.25,0-0.25,0.25-0.25,0.25s0.25,0.25,0.25,0C358.32,111.05,358.56,110.8,358.32,110.8L358.32,110.8z"/>
		<path class="st21" d="M392.77,111.05c0,0.5-0.5,0.99-0.99,0.99c-0.25,0-0.5,0-0.5-0.25c-0.25-0.25-0.25-0.5,0-0.74
			c0-0.25,0.5-0.25,0.74-0.25c0,0,0,0,0.25,0c0,0,0.25,0,0.25-0.25s0-0.25,0.25-0.25c0,0,0.25-0.25,0.25,0
			c1.24,0,1.74,1.24,1.24,2.23c-0.99,1.49-2.73,0.25-3.72-0.5c-0.25-0.25-0.25-0.25,0-0.25s0.5,0.25,0.74,0.25
			c0.74,0.5,1.74,0.5,2.23-0.5c0-0.25,0-0.5,0-0.5l-0.25-0.25C393.02,110.8,392.77,110.8,392.77,111.05L392.77,111.05z"/>
		<path class="st21" d="M371.21,116.26l0.25,0.25v0.25c0,0.25-0.25,0.5-0.5,0.5h-0.25c-0.25-0.25-0.5-0.25-0.74-0.25h-0.25
			c-0.25-0.25-0.25-0.25-0.25-0.5s0.25-0.5,0.5-0.5c0.25-0.25,0-0.25,0-0.5l-2.48-0.74c-0.25,0-0.25,0-0.5,0.25l-0.25,0.5
			c0,0.25,0,0.25,0.25,0.25c0.5-0.25,1.24-0.5,1.74,0.25v0.25c-0.5,0.74-0.74,1.49-0.99,2.48l0,0l0,0c0,0-0.25,0-0.25-0.25
			c0-0.74,0.25-1.49,0.25-1.98c0-0.25,0-0.25-0.25-0.25l-1.24,0.74H366c-0.25-0.25-0.25-0.5-0.25-0.74c0.25-0.5,0.25-0.99,0.5-1.49
			c0-0.25,0-0.25-0.25-0.25c-1.24,0.25-1.98,0.99-1.98,2.23c0,0.25,0,0.25,0.25,0.25s0.25-0.25,0.25-0.25c0-0.25,0.25-0.25,0.5,0
			c0.74,0.99-1.24,1.49-1.24,0c-0.25-0.99,0.25-1.74,0.99-2.48v-0.25l-0.74-0.5h-0.25l-1.49,2.97c0,0.25-0.25,0.25-0.25,0
			c0,0,0,0,0-0.25s0-0.25,0-0.5c0.25-0.74,0.74-1.49,0.99-2.23c0.25-0.25,0-0.74-0.25-0.74c-0.25-0.25-0.5,0-0.5,0.25l-1.49,2.73
			c0,0,0,0-0.25,0l0,0c0-0.25,0-0.25,0-0.5c0.25-0.5,0.5-0.99,0.74-1.49v-0.25c0-0.25,0-0.5-0.25-0.25c-0.25,0-0.5,0.25-0.74,0.5
			h-0.25c-1.24,0-1.49-1.24-0.5-1.98c0.25-0.25,0.74-0.25,1.24,0c0.25,0.25,0.74,0.5,1.24,0.5c0,0,0,0,0.25,0l0,0l0,0
			c-0.74-0.5-1.49-0.99-1.98-1.49c0,0,0,0,0-0.25v-0.25l0,0c0.99,0.74,2.23,1.24,3.22,1.98c0.25,0,0.25,0.25,0.25,0.25h0.25
			c0,0,0-0.25,0.25-0.25c0,0,0-0.25,0.25-0.25l0,0c0,0,0,0,0,0.25c0,0.25,0.25,0.5,0.5,0.74c1.74,0.74,3.47,1.24,5.45,1.74
			c0.25,0,0.5,0.25,0.5,0.25c0,0.25,0.25,0.25,0.5,0c0.25-0.25,0.5-0.25,0.74,0.25c0.25,0.25,0.25,0.25,0.5,0c0-0.25,0-0.25,0-0.5
			c0,0,0-0.25,0.25,0c0.25,0.25,0.5,0.5,0.74,0.99v0.25c-0.25,0-0.5,0.25-0.5,0.5c0,0.99-0.25,1.98-0.5,2.97c0,0,0,0.25-0.25,0.25
			l0,0l0,0c0-0.99,0-1.74,0-2.73C371.7,116.26,371.45,116.01,371.21,116.26C370.96,116.01,370.96,116.01,371.21,116.26
			 M359.31,112.79c0.25,0,0.5,0,0.74,0.25h0.25c0,0,0,0,0-0.25c-0.25-0.25-0.5-0.5-0.74-0.5
			C359.31,112.54,359.31,112.54,359.31,112.79L359.31,112.79L359.31,112.79z"/>
		<path class="st21" d="M381.62,115.27l-1.74,0.25c-0.25,0-0.25,0.25-0.25,0.5l0.5,3.22l0,0l0,0c0,0-0.25,0-0.25-0.25
			c-0.5-0.74-0.25-1.98-0.74-2.73c0-0.25-0.25-0.5-0.5-0.5c-0.5,0-0.99,0-1.74,0.25c0,0-0.25,0-0.25,0.25V117
			c0,0.25,0,0.25,0.25,0.25s0.25-0.25,0.25-0.5s0.25-0.25,0.5,0c0.74,0.74,0.99,2.23-0.25,2.48c-0.99,0.25-1.49,0-1.98-0.99
			c-0.25-0.74-0.5-1.24-0.5-1.98c0,0,0-0.25-0.25-0.25s-0.25-0.25-0.25-0.25s0-0.25,0.25-0.25l3.97-0.25c0.25,0,0.25-0.25,0.25-0.25
			v-0.25c0,0,0-0.25,0.25-0.25l0,0l0.25,0.25h0.25c1.24-0.25,2.48-0.5,3.47-0.74c0.25,0,0.25,0,0.5,0h0.25c0.25,0,0,0.25,0,0.25
			c-0.25,0-0.25,0-0.5,0c-0.5,0-0.5,0.25,0,0.5c0.5,0.25,0.74,0.5,0.99,0.99c0.25,0.5-0.25,0.74-0.74,0.74c-0.25,0-0.5,0-0.25,0.5
			c0,0.25,0.25,0.5,0.25,0.5c0,0.5,0,0.5-0.25,0.25s-0.74-0.74-1.24-0.74c-0.25,0-0.74-0.25-0.99-0.5c-0.25-0.25-0.25-0.5,0-0.74
			C380.87,116.01,381.37,115.76,381.62,115.27C381.87,115.27,381.62,115.27,381.62,115.27 M382.86,116.5L382.86,116.5
			c0.25,0,0.5-0.25,0.74-0.25c0,0,0,0,0-0.25c-0.25-0.25-0.5-0.25-0.74-0.25c0,0-0.25,0,0,0.25V116.5 M382.11,117
			C382.36,117.25,382.36,117,382.11,117v-0.99c0-0.25-0.25-0.25-0.25,0l-0.5,0.5v0.25L382.11,117 M376.41,118.24
			c0.5,0.25,1.24,0,1.49-0.5c0-0.25,0-0.25-0.25-0.25s-0.25,0-0.5,0.25c-0.25,0.25-0.74,0.25-0.74-0.25
			c-0.25-0.5-0.25-0.99-0.25-1.49c0,0,0-0.25-0.25-0.25h-0.25c-0.25,0-0.25,0-0.25,0.25C375.42,117.25,375.67,117.74,376.41,118.24
			L376.41,118.24z"/>
	</g>
</g>
</svg>
