<?xml version="1.0" encoding="utf-8"?>
<!-- Generator: Adobe Illustrator 27.5.0, SVG Export Plug-In . SVG Version: 6.00 Build 0)  -->
<svg version="1.1" xmlns="http://www.w3.org/2000/svg" xmlns:xlink="http://www.w3.org/1999/xlink" x="0px" y="0px"
	 viewBox="0 0 500 500" style="enable-background:new 0 0 500 500;" xml:space="preserve">
<g id="Background_Complete">
	<g>
		<rect y="382.398" style="fill:#EBEBEB;" width="500" height="0.25"/>
		<rect x="416.779" y="398.494" style="fill:#EBEBEB;" width="33.122" height="0.25"/>
		<rect x="322.527" y="401.208" style="fill:#EBEBEB;" width="8.693" height="0.25"/>
		<rect x="396.586" y="389.208" style="fill:#EBEBEB;" width="19.192" height="0.25"/>
		<rect x="52.459" y="390.888" style="fill:#EBEBEB;" width="43.193" height="0.25"/>
		<rect x="104.556" y="390.888" style="fill:#EBEBEB;" width="6.333" height="0.25"/>
		<rect x="131.471" y="395.111" style="fill:#EBEBEB;" width="93.676" height="0.25"/>
		<path style="fill:#EBEBEB;" d="M237.014,337.8H43.915c-3.147,0-5.708-2.561-5.708-5.708V60.66c0-3.147,2.561-5.708,5.708-5.708
			h193.099c3.146,0,5.707,2.561,5.707,5.708v271.432C242.721,335.239,240.16,337.8,237.014,337.8z M43.915,55.203
			c-3.01,0-5.458,2.448-5.458,5.458v271.432c0,3.01,2.448,5.458,5.458,5.458h193.099c3.009,0,5.457-2.448,5.457-5.458V60.66
			c0-3.009-2.448-5.458-5.457-5.458H43.915z"/>
		<path style="fill:#EBEBEB;" d="M453.31,337.8H260.212c-3.147,0-5.707-2.561-5.707-5.708V60.66c0-3.147,2.561-5.708,5.707-5.708
			H453.31c3.148,0,5.708,2.561,5.708,5.708v271.432C459.019,335.239,456.458,337.8,453.31,337.8z M260.212,55.203
			c-3.009,0-5.457,2.448-5.457,5.458v271.432c0,3.01,2.448,5.458,5.457,5.458H453.31c3.01,0,5.458-2.448,5.458-5.458V60.66
			c0-3.009-2.448-5.458-5.458-5.458H260.212z"/>
	</g>
	<g>
		<g>
			<g>
				<polygon style="fill:#EBEBEB;" points="134.985,199.645 56.508,199.645 63.46,113.204 128.034,113.204 				"/>
			</g>
			<rect x="93.614" y="199.645" style="fill:#F5F5F5;" width="4.266" height="182.753"/>
			<path style="fill:#F0F0F0;" d="M113.155,382.398H78.339l0,0c0-2.049,1.661-3.71,3.71-3.71h27.397
				C111.494,378.689,113.155,380.35,113.155,382.398L113.155,382.398z"/>
			<polygon style="fill:#E0E0E0;" points="93.614,206.364 97.88,202.288 97.88,199.645 93.614,199.645 			"/>
		</g>
		<g>
			<g>
				<g>
					<rect x="165.897" y="77.899" style="fill:#E0E0E0;" width="247.738" height="118.66"/>
					<rect x="169.874" y="77.899" style="fill:#F5F5F5;" width="252.867" height="118.66"/>
					
						<rect x="257.769" y="23.877" transform="matrix(6.123234e-17 -1 1 6.123234e-17 159.0789 433.5355)" style="fill:#FFFFFF;" width="77.077" height="226.703"/>
				</g>
			</g>
		</g>
		<g>
			<path style="fill:#F5F5F5;" d="M395.995,270.195h40.865c6.078,0,11.006,4.927,11.006,11.005v90.192
				c0,6.078-4.927,11.005-11.006,11.005h-40.865c-6.078,0-11.006-4.927-11.006-11.005v-90.192
				C384.99,275.123,389.917,270.195,395.995,270.195z"/>
			<path style="fill:#E6E6E6;" d="M377.173,270.195h40.865c6.078,0,11.005,4.927,11.005,11.005v90.192
				c0,6.078-4.927,11.005-11.005,11.005h-40.865c-6.078,0-11.005-4.927-11.005-11.005v-90.192
				C366.168,275.123,371.095,270.195,377.173,270.195z"/>
			<path style="fill:#F5F5F5;" d="M413.813,270.195h19.774c0.596,0,1.08-0.483,1.08-1.08v-0.936c0-0.596-0.483-1.08-1.08-1.08
				h-19.774c-0.596,0-1.08,0.483-1.08,1.08v0.936C412.733,269.711,413.217,270.195,413.813,270.195z"/>
			<path style="fill:#E6E6E6;" d="M407.247,270.195h19.774c0.596,0,1.08-0.483,1.08-1.08v-0.936c0-0.596-0.483-1.08-1.08-1.08
				h-19.774c-0.596,0-1.08,0.483-1.08,1.08v0.936C406.168,269.711,406.651,270.195,407.247,270.195z"/>
			<path style="fill:#F0F0F0;" d="M186.459,330.088h228.068c3.017,0,5.462,2.446,5.462,5.462v41.386
				c0,3.017-2.446,5.462-5.462,5.462H186.459c-3.017,0-5.462-2.446-5.462-5.462V335.55
				C180.997,332.533,183.443,330.088,186.459,330.088z"/>
			<path style="fill:#EBEBEB;" d="M164.712,233.429h194.315c6.116,0,11.49,5.516,12.003,12.32l5.145,68.227
				c0.513,6.804-4.029,12.32-10.144,12.32H171.715c-6.116,0-11.49-5.516-12.003-12.32l-5.145-68.227
				C154.054,238.945,158.596,233.429,164.712,233.429z"/>
			<path style="fill:#FAFAFA;" d="M179.736,233.429h194.315c6.116,0,11.49,5.516,12.003,12.32l5.145,68.227
				c0.513,6.804-4.029,12.32-10.145,12.32H186.74c-6.116,0-11.49-5.516-12.003-12.32l-5.145-68.227
				C169.079,238.945,173.621,233.429,179.736,233.429z"/>
			<path style="fill:#F0F0F0;" d="M288.337,314.024l-5.145-68.228c-0.488-6.471-5.589-11.734-11.371-11.734v-1.268
				c6.43,0,12.098,5.79,12.635,12.906l5.145,68.228L288.337,314.024z"/>
			<path style="fill:#F5F5F5;" d="M170.291,270.195h40.865c6.078,0,11.005,4.927,11.005,11.005v90.192
				c0,6.078-4.927,11.005-11.005,11.005h-40.865c-6.078,0-11.005-4.927-11.005-11.005v-90.192
				C159.286,275.123,164.213,270.195,170.291,270.195z"/>
			<path style="fill:#F5F5F5;" d="M216.237,305.875h203.414c3.603,0,6.524,2.921,6.524,6.524v15.926
				c0,3.603-2.921,6.524-6.524,6.524H216.237c-3.603,0-6.524-2.921-6.524-6.524V312.4
				C209.713,308.796,212.634,305.875,216.237,305.875z"/>
			<path style="fill:#EBEBEB;" d="M311.758,335.484v-1.268c3.061,0,5.551-2.803,5.551-6.248v-15.212c0-3.445-2.49-6.248-5.551-6.248
				v-1.268c3.76,0,6.819,3.371,6.819,7.516v15.212C318.578,332.113,315.519,335.484,311.758,335.484z"/>
			<path style="fill:#E6E6E6;" d="M151.469,270.195h40.865c6.078,0,11.006,4.927,11.006,11.005v90.192
				c0,6.078-4.927,11.005-11.006,11.005h-40.865c-6.078,0-11.006-4.927-11.006-11.005v-90.192
				C140.464,275.123,145.391,270.195,151.469,270.195z"/>
			<path style="fill:#E6E6E6;" d="M349.574,229.092c27.285,2.444,31.562,36.811,33.499,49.786
				c1.936,12.975-22.514-0.488-37.751,0.984c-15.237,1.471-20.198,7.426-37.206,4.711c-17.009-2.714-24.095-4.643-35.789-2.714
				c-11.693,1.929-32.246,2.63-34.372-1.052c-1.956-3.388-7.514-39.059-18.328-46.204c-1.741-1.15-1.074-2.779,1.413-3.522
				C241.579,224.95,325.012,226.892,349.574,229.092z"/>
		</g>
	</g>
</g>
<g id="Background_Simple" style="display:none;">
	<g style="display:inline;">
		<path style="fill:#407BFF;" d="M298.058,100.475c-27.579,1.489-46.27,22.638-76.229,18.998
			c-117.794-30.6-170.098,53.458-110.184,122.579c59.216,67.357,232.025,115.434,288.509,54.633
			C454.167,240.212,388.415,101.556,298.058,100.475z"/>
		<path style="opacity:0.9;fill:#FFFFFF;" d="M298.058,100.475c-27.579,1.489-46.27,22.638-76.229,18.998
			c-117.794-30.6-170.098,53.458-110.184,122.579c59.216,67.357,232.025,115.434,288.509,54.633
			C454.167,240.212,388.415,101.556,298.058,100.475z"/>
	</g>
</g>
<g id="Shadow_1_">
	<ellipse id="_x3C_Path_x3E__230_" style="fill:#F5F5F5;" cx="250" cy="416.238" rx="193.889" ry="11.323"/>
</g>
<g id="Bubble_Speech_1_">
	<g>
		<path style="fill:#407BFF;" d="M397.076,127.608c-0.12-3.115-0.668-5.552-1.628-7.24c-0.94-1.652-3.437-6.04-34.612-6.04v-1
			c31.757,0,34.272,4.421,35.481,6.546c1.041,1.829,1.631,4.419,1.757,7.695L397.076,127.608z"/>
		<path style="fill:#407BFF;" d="M395.944,144.92l-0.974-0.227c0.784-3.38,1.362-6.579,1.717-9.509l0.993,0.121
			C397.321,138.27,396.737,141.505,395.944,144.92z"/>
		<path style="fill:#407BFF;" d="M393.275,121.605c-4.187-7.362-63.176-4.804-74.112-1.662
			c-14.802,4.254-21.453,42.469-22.581,51.687c0,0,8.685-9.125,16.349-11.426c3.651,1.276,43.874,8.307,51.372,10.309
			c8.552,2.283,17.65-0.028,21.83-7.465C390.315,155.612,397.647,129.292,393.275,121.605z"/>
		<path style="fill:#FFFFFF;" d="M380.049,132.247c-0.117,0-0.236-0.008-0.356-0.025c-27.903-3.978-60.194-1.151-60.517-1.122
			c-1.376,0.136-2.59-0.892-2.714-2.267c-0.124-1.375,0.891-2.59,2.266-2.714c0.329-0.027,33.199-2.908,61.671,1.153
			c1.367,0.194,2.317,1.461,2.122,2.828C382.343,131.348,381.274,132.247,380.049,132.247z"/>
		<path style="fill:#FFFFFF;" d="M375.976,145.628c-0.144,0-0.289-0.012-0.435-0.038c-32.059-5.629-60.712-3.986-60.997-3.971
			c-1.379,0.111-2.563-0.967-2.646-2.345c-0.083-1.378,0.966-2.563,2.344-2.645c0.291-0.02,29.501-1.698,62.163,4.037
			c1.36,0.238,2.269,1.534,2.03,2.895C378.222,144.773,377.167,145.628,375.976,145.628z"/>
		<path style="fill:#FFFFFF;" d="M359.48,159.333c-0.228,0-0.458-0.031-0.688-0.097c-24.624-7.03-46.768-5.716-46.989-5.703
			c-1.379,0.087-2.566-0.958-2.654-2.335c-0.088-1.378,0.956-2.566,2.333-2.655c0.936-0.06,23.19-1.393,48.683,5.885
			c1.328,0.38,2.097,1.763,1.717,3.091C361.569,158.616,360.568,159.333,359.48,159.333z"/>
	</g>
</g>
<g id="Emoji">
	<g>
		<path style="fill:#407BFF;" d="M111.362,112.448c3.209-7.838,44.838-11.702,56.087-9.988
			c15.225,2.321,27.082,42.068,29.005,53.036c0,0-9.783-7.936-17.68-9.235c-3.458,1.734-24.83,9.301-32.409,10.977
			c-8.643,1.911-17.508,2.235-22.607-4.604C118.659,145.795,108.012,120.632,111.362,112.448z"/>
		<path style="opacity:0.1;" d="M167.447,102.461c-11.25-1.72-52.88,2.15-56.08,9.99c-0.59,1.43-0.74,3.38-0.57,5.66
			c8.04,12.65,20.26,22.37,34.34,23.01c17.09,0.56,34.07-7.89,40.66-17.89C180.837,112.661,174.517,103.541,167.447,102.461z"/>
		<g>
			<g>
				
					<ellipse transform="matrix(0.6165 -0.7874 0.7874 0.6165 -14.7785 164.3951)" style="fill:#407BFF;" cx="161.366" cy="97.368" rx="29.117" ry="29.117"/>
				
					<ellipse transform="matrix(0.6165 -0.7874 0.7874 0.6165 -14.7785 164.3951)" style="opacity:0.4;fill:#FFFFFF;" cx="161.366" cy="97.368" rx="29.117" ry="29.117"/>
			</g>
			<path style="fill:#407BFF;" d="M159.976,88.324c0.352,0.705-0.705,1.833-2.363,2.518c-1.657,0.685-3.286,0.669-3.639-0.036
				c-0.352-0.705,0.705-1.833,2.363-2.518C157.995,87.602,159.624,87.618,159.976,88.324z"/>
			<path style="fill:#263238;" d="M152.222,81.185c1.854-0.739,3.864-1.078,5.876-1.097c1.009-0.024,2.017,0.074,3.023,0.205
				c1.015,0.16,1.972,0.362,3.014,0.741c0.514,0.188,0.779,0.756,0.592,1.271c-0.134,0.367-0.461,0.607-0.825,0.646l-0.033,0.003
				c-0.779,0.083-1.653,0.253-2.478,0.427c-0.834,0.186-1.653,0.434-2.47,0.697c-0.814,0.275-1.61,0.602-2.393,0.985
				c-0.797,0.368-1.529,0.848-2.307,1.345c0.473-0.781,1.077-1.508,1.78-2.123c0.708-0.604,1.475-1.167,2.311-1.591
				c0.823-0.454,1.697-0.805,2.588-1.096c0.902-0.297,1.785-0.502,2.785-0.626l-0.266,1.92c-0.796-0.272-1.742-0.517-2.643-0.707
				c-0.912-0.211-1.841-0.363-2.778-0.497c-0.937-0.121-1.886-0.243-2.845-0.305C154.191,81.28,153.223,81.27,152.222,81.185z"/>
			<path style="fill:#263238;" d="M179.555,75.351c-0.534,0.293-1.044,0.523-1.492,0.854c-0.46,0.296-0.87,0.644-1.244,1.011
				c-0.368,0.374-0.713,0.763-1.009,1.189c-0.296,0.408-0.577,0.898-0.757,1.29l-1.178-0.949c0.684-0.415,1.314-0.653,2.015-0.834
				c0.687-0.18,1.402-0.253,2.107-0.222c1.411,0.033,2.786,0.539,3.824,1.382c-0.667-0.115-1.292-0.249-1.926-0.261
				c-0.624-0.05-1.241,0.002-1.838,0.082c-0.598,0.089-1.18,0.24-1.742,0.438c-0.548,0.194-1.132,0.467-1.561,0.734l-0.04,0.024
				c-0.368,0.229-0.852,0.116-1.082-0.252c-0.139-0.224-0.15-0.495-0.056-0.721c0.281-0.663,0.615-1.157,1.027-1.655
				c0.411-0.483,0.887-0.913,1.425-1.247c0.528-0.346,1.109-0.605,1.712-0.751C178.342,75.311,178.962,75.278,179.555,75.351z"/>
			<path style="fill:#407BFF;" d="M184.125,82.75c0.077,0.76-1.245,1.493-2.952,1.637c-1.708,0.144-3.154-0.355-3.232-1.116
				c-0.077-0.76,1.245-1.493,2.952-1.637C182.601,81.49,184.048,81.99,184.125,82.75z"/>
			<g>
				<path style="fill:#263238;" d="M160.733,92.158c3.17-1.614,11.555-5.413,21.66-6.249c0.631-0.052,1.188,0.428,1.247,1.037
					c0.825,8.526-14.738,12.981-23.007,6.991C159.978,93.463,160.036,92.513,160.733,92.158z"/>
				<path style="fill:#407BFF;" d="M176.251,90.614c-0.548,0.262-1.049,0.584-1.487,0.943c-1.261-0.334-2.833-0.163-4.344,0.563
					c-2.017,0.976-3.366,2.682-3.589,4.304c1.973,0.337,4.02,0.342,5.985,0.056c1.544-0.224,3.038-0.622,4.391-1.18
					c2.287-0.933,4.194-2.316,5.328-4.037C181.384,89.731,178.736,89.41,176.251,90.614z"/>
			</g>
		</g>
	</g>
</g>
<g id="Heart">
	<g>
		<path style="fill:#407BFF;" d="M238.627,34.361c-13.128-13.315-42.481-3.878-31.286,14.625
			c11.194,18.503,36.217,31.967,41.109,39.071c3.332-14.429,12.607-23.628,18.643-35.691
			C273.129,40.303,257.279,22.534,238.627,34.361z"/>
		<path style="opacity:0.3;" d="M238.627,34.361c-13.128-13.315-42.481-3.878-31.286,14.625
			c11.194,18.503,36.217,31.967,41.109,39.071c3.332-14.429,12.607-23.628,18.643-35.691
			C273.129,40.303,257.279,22.534,238.627,34.361z"/>
	</g>
</g>
<g id="Character_1_">
	<g>
		<g>
			<polygon style="fill:#407BFF;" points="287.676,315.578 295.525,315.578 327.845,416.238 325.229,416.238 			"/>
			<polygon style="fill:#407BFF;" points="255.982,315.578 263.832,315.578 276.067,416.238 273.451,416.238 			"/>
			<polygon style="fill:#407BFF;" points="210.301,315.578 202.452,315.578 170.131,416.238 172.748,416.238 			"/>
			<polygon style="fill:#407BFF;" points="241.994,315.578 234.145,315.578 221.91,416.238 224.526,416.238 			"/>
			<g>
				<path style="fill:#407BFF;" d="M280.932,337.89c-37.865,0.443-91.672-0.823-115.46-47.406
					c-16.124-31.577-33.36-98.624,13.868-117.792c47.228-19.168,119.758,2.464,119.066,39.587s38.227,46.215,50.966,71.483
					C365.198,315.152,330.819,337.307,280.932,337.89z"/>
				<path style="opacity:0.7;fill:#FFFFFF;" d="M280.932,337.89c-37.865,0.443-91.672-0.823-115.46-47.406
					c-16.124-31.577-33.36-98.624,13.868-117.792c47.228-19.168,119.758,2.464,119.066,39.587s38.227,46.215,50.966,71.483
					C365.198,315.152,330.819,337.307,280.932,337.89z"/>
			</g>
			<path style="opacity:0.3;fill:#407BFF;" d="M320.664,302.542c-0.4,5.748-27.74,8.527-61.065,6.207
				c-33.325-2.32-54.377-4.082-60.476-17.204c-12.299-26.463-13.893-103.976,19.432-101.657
				C251.881,192.208,321.064,296.794,320.664,302.542z"/>
		</g>
		<g>
			<path style="fill:#FF8B7B;" d="M270.46,187.634l0.264,1.784l0.306,1.911l0.671,3.86c0.489,2.575,0.995,5.152,1.573,7.708
				c1.138,5.117,2.513,10.155,4.155,15.03c0.434,1.204,0.821,2.443,1.308,3.612c0.46,1.185,0.885,2.4,1.408,3.539
				c0.497,1.135,1.041,2.419,1.373,3.232c0.19,0.428,0.346,0.803,0.425,1.018c0.044,0.229,0.128,0.226-0.717-0.206
				c-0.434-0.202-1.338-0.58-2.642-0.52c-0.634,0.025-1.288,0.2-1.801,0.42c-0.266,0.115-0.501,0.248-0.685,0.361
				c-0.21,0.138-0.363,0.254-0.493,0.364c-0.533,0.472-0.65,0.757-0.695,0.889c-0.036,0.139,0.027,0.14,0.107,0.071
				c0.346-0.303,0.93-1.335,1.357-2.385c0.945-2.146,1.769-4.783,2.644-7.222l8.355,0.41c0.534,3.097,0.74,5.991,0.552,9.279
				c-0.164,1.655-0.28,3.331-1.112,5.545c-0.215,0.559-0.486,1.17-0.918,1.879c-0.438,0.7-1.009,1.523-2.096,2.413
				c-0.266,0.217-0.562,0.434-0.926,0.651c-0.33,0.207-0.725,0.409-1.153,0.585c-0.834,0.354-1.835,0.583-2.815,0.628
				c-2.001,0.081-3.586-0.536-4.621-1.078c-2.045-1.14-2.931-2.17-3.745-3.026c-0.78-0.875-1.39-1.66-1.905-2.426
				c-1.095-1.57-1.687-2.824-2.429-4.17c-1.441-2.667-2.695-5.392-3.833-8.147c-2.296-5.501-4.117-11.117-5.55-16.795
				c-0.735-2.837-1.346-5.697-1.887-8.575c-0.27-1.44-0.502-2.889-0.721-4.346c-0.109-0.732-0.208-1.464-0.296-2.207
				c-0.09-0.763-0.169-1.444-0.255-2.345L270.46,187.634z"/>
			<g>
				<path style="fill:#263238;" d="M248.815,184.859c-5.098,9.483,7.672,34.603,7.672,34.603l22.974-12.51
					c0,0-1.731-6.653-7.416-19.372C265.853,173.727,254.991,173.372,248.815,184.859z"/>
			</g>
			<path style="fill:#FF8B7B;" d="M278.638,223.772l0.457-11.264l12.814,4.311c0,0-1.651,10.149-7.185,10.143L278.638,223.772z"/>
			<path style="fill:#FF8B7B;" d="M287.641,204.504l4.236,2.268c1.686,0.903,2.471,2.894,1.853,4.705l-1.822,5.342l-12.814-4.311
				l3.22-6.331C283.308,204.225,285.711,203.471,287.641,204.504z"/>
			<path style="fill:#263238;" d="M260.881,176.643c-13.102-2.863-26.389-3.456-38.985-2.214
				c-8.437,0.832-15.19,7.423-16.301,15.827c-5.208,39.391-1.901,60.347-2.154,71.125c0,0,59.366,5.267,59.367,5.262
				c-0.482-11.281,0.42-40.722,6.014-78.541C269.607,182.798,266.118,177.788,260.881,176.643z"/>
			<g>
				<polygon style="fill:#FF8B7B;" points="309.59,310.456 320.734,310.733 325.456,285.061 314.312,284.784 				"/>
				<path style="fill:#263238;" d="M322.309,308.779l-11.582-3.661c-0.434-0.137-0.875,0.056-1.061,0.464l-4.147,9.091
					c-0.43,0.942,0.111,2.135,1.115,2.434c4.194,1.247,5.611,1.344,10.863,3.004c6.14,1.941,8.609,3.421,15.81,5.697
					c4.354,1.376,6.51-2.777,4.785-3.784c-5.46-3.187-11.592-8.206-13.407-11.582C324.209,309.557,323.224,309.068,322.309,308.779z
					"/>
				<polygon style="opacity:0.2;" points="325.453,285.068 323.021,298.301 311.872,298.023 314.303,284.791 				"/>
				<g>
					<path style="fill:#407BFF;" d="M330.504,218.308c-13.633-6.806-48.224,29.823-92.085,46.176
						c-0.95,16.728,17.789,25.335,37.846,22.894c19.871-2.418,27.211-12.949,33.324-27.45c-3.438,14.888-0.173,30.362-0.173,30.362
						l17.29,4.879C326.707,295.169,342.975,224.533,330.504,218.308z"/>
					<path style="opacity:0.2;" d="M330.504,218.308c-13.633-6.806-48.224,29.823-92.085,46.176
						c-0.95,16.728,17.789,25.335,37.846,22.894c19.871-2.418,27.211-12.949,33.324-27.45c-3.438,14.888-0.173,30.362-0.173,30.362
						l17.29,4.879C326.707,295.169,342.975,224.533,330.504,218.308z"/>
				</g>
				<polygon style="fill:#263238;" points="328.707,297.318 306.377,295.265 305.896,287.909 330.832,289.816 				"/>
				<g>
					<path style="fill:#407BFF;" d="M320.954,308.746c-0.087-0.045-0.143-0.135-0.143-0.235c0-0.112,0.071-0.212,0.177-0.249
						c0.538-0.188,5.288-1.808,6.523-0.871c0.238,0.181,0.354,0.442,0.333,0.757v0c-0.034,0.526-0.259,0.931-0.669,1.202
						c-1.36,0.9-4.461,0.017-6.188-0.589C320.975,308.756,320.964,308.751,320.954,308.746z M327.102,307.755
						c-0.791-0.406-3.324,0.17-5.191,0.757c2.378,0.75,4.208,0.902,4.972,0.396c0.268-0.178,0.41-0.438,0.433-0.796
						c0.009-0.138-0.029-0.228-0.126-0.302C327.164,307.791,327.135,307.772,327.102,307.755z"/>
					<path style="fill:#407BFF;" d="M320.954,308.746c-0.022-0.011-0.043-0.026-0.062-0.044c-0.068-0.065-0.096-0.161-0.074-0.252
						c0.03-0.124,0.746-3.053,2.311-4.007c0.478-0.291,0.986-0.372,1.512-0.243l0,0c0.708,0.175,0.864,0.568,0.87,0.868
						c0.026,1.276-2.948,3.288-4.363,3.697C321.082,308.783,321.013,308.776,320.954,308.746z M324.774,304.804
						c-0.064-0.033-0.149-0.065-0.259-0.092l0,0c-0.39-0.096-0.753-0.037-1.111,0.181c-1.029,0.627-1.672,2.348-1.935,3.195
						c1.474-0.624,3.531-2.245,3.515-3.01C324.982,305.031,324.98,304.909,324.774,304.804z"/>
				</g>
			</g>
			<path style="fill:#FF8B7B;" d="M252.191,177.08c-6.553-2.933-5.38-6.848-3.229-11.139l-13.782-12.549
				c0.49,5.507,0.389,14.732-3.41,19.546c-1.234,1.563-1.116,3.775,0.359,5.114c3.537,3.21,8.253,6.322,15.577,7.6
				c6.738,1.175,8.235-1.648,7.794-4.499C255.216,179.316,253.889,177.84,252.191,177.08z"/>
			<path style="opacity:0.2;" d="M240.795,158.508c-1.461-0.528-1.815,1.518-1.817,4.309c-0.002,2.714,4.795,7.782,8.394,7.35
				c0.226-1.357,0.849-2.771,1.589-4.229L240.795,158.508z"/>
			<path style="fill:#263238;" d="M264.879,149.355c3.791-3.669,8.64-13.776,7.631-18.767c-2.694-1.241-7.489-2.639-12.523-1.327
				c-5.034,1.311-9.642,5.043-9.642,5.043l6.139,5.236l-0.122,3.541l3.422,3.789l-0.995,3.417c-0.395,1.357,1.024,2.528,2.281,1.883
				L264.879,149.355z"/>
			<path style="fill:#FF8B7B;" d="M237.888,136.294c-2.852,10.669-5.065,16.773-1.555,23.863
				c5.281,10.664,19.848,10.08,25.845,0.452c5.398-8.666,9.154-24.658,0.264-32.155
				C253.682,121.066,240.739,125.624,237.888,136.294z"/>
			<path style="fill:#263238;" d="M232.974,142.714c-0.551-6.589-1.041-11.551-1.041-17.37c2.874-0.735,7.322-2.711,12.037-0.513
				c4.715,2.198,8.574,6.7,8.574,6.7l-6.982,4.042l-0.518,3.505l-4.05,3.11l0.362,3.54c0.144,1.406-1.463,2.302-2.583,1.441
				L232.974,142.714z"/>
			<path style="fill:#263238;" d="M272.517,133.771c5.074-2.654,11.951-15.462,0.128-14.919c-7.67,0.352-17.073,1.365-25.063-3.124
				c0,0,2.322,3.978,8.274,4.52c12.954,1.179,13.361-0.92,17.237-0.048C279.901,121.731,272.517,133.771,272.517,133.771z"/>
			<path style="fill:#263238;" d="M273.536,122.205c-8.544-4.764-17.933-1.056-25.205-3.813c-7.273-2.756-15.082,1.558-16.399,6.952
				l20.611,6.186c7.809,5.605,9.595,6.775,13.873,5.512C272.645,135.206,282.081,126.969,273.536,122.205z"/>
			<path style="fill:#263238;" d="M233.681,124.204c-3.657,0.672-5.608,3.889-2.448,8.047c-1.158-4.434,2.365-5.942,2.365-5.942
				L233.681,124.204z"/>
			<path style="fill:#FF8B7B;" d="M229.49,144.924c0.48,2.929,2.28,5.358,4.298,6.741c3.036,2.081,5.766-0.338,5.939-3.814
				c0.155-3.129-1.238-7.982-4.773-8.677C231.47,138.49,228.94,141.574,229.49,144.924z"/>
			<path style="fill:#263238;" d="M252.161,143.671c-0.285,0.852-0.062,1.689,0.497,1.87c0.559,0.181,1.243-0.362,1.528-1.214
				s0.062-1.689-0.497-1.87C253.129,142.276,252.445,142.82,252.161,143.671z"/>
			<path style="fill:#263238;" d="M262.511,147.521c-0.285,0.852-0.062,1.689,0.497,1.87c0.559,0.181,1.243-0.362,1.528-1.214
				c0.285-0.852,0.062-1.689-0.497-1.87C263.48,146.126,262.796,146.669,262.511,147.521z"/>
			<path style="fill:#FF5652;" d="M259.296,146.948c0,0,0.302,5.544,1.651,8.609c-1.983,0.915-4.341-0.562-4.341-0.562
				L259.296,146.948z"/>
			<path style="fill:#263238;" d="M252.239,156.105c-3.107-1.492-3.865-4.231-3.899-4.359c-0.037-0.14,0.047-0.284,0.189-0.322
				c0.141-0.038,0.286,0.045,0.323,0.185c0.009,0.032,0.9,3.215,4.643,4.43c0.138,0.046,0.214,0.193,0.168,0.332
				c-0.046,0.138-0.196,0.214-0.335,0.169C252.936,156.412,252.574,156.266,252.239,156.105z"/>
			<path style="fill:#263238;" d="M250.815,138.536c-0.079-0.038-0.15-0.096-0.203-0.173c-0.166-0.238-0.104-0.566,0.137-0.732
				c2.414-1.663,4.684-0.777,4.78-0.738c0.271,0.109,0.399,0.416,0.287,0.685c-0.111,0.268-0.419,0.398-0.689,0.291l0,0
				c-0.075-0.029-1.852-0.702-3.778,0.625C251.185,138.606,250.981,138.616,250.815,138.536z"/>
			<path style="fill:#263238;" d="M267.995,144.856c-0.161-0.056-0.292-0.189-0.337-0.366c-0.565-2.25-2.352-2.897-2.428-2.924
				c-0.274-0.096-0.419-0.395-0.322-0.668c0.097-0.274,0.396-0.42,0.671-0.327c0.099,0.036,2.398,0.84,3.106,3.658
				c0.071,0.281-0.102,0.568-0.386,0.64C268.195,144.895,268.09,144.889,267.995,144.856z"/>
			<g>
				<polygon style="fill:#FF8B7B;" points="347.391,400.349 356.532,393.967 345.12,370.492 335.979,376.873 				"/>
				<path style="fill:#263238;" d="M356.294,390.944l-11.108,4.915c-0.416,0.184-0.619,0.62-0.489,1.05l2.903,9.561
					c0.301,0.991,1.495,1.528,2.446,1.088c3.97-1.838,5.097-2.704,10.134-4.932c5.889-2.606,8.719-3.129,15.625-6.185
					c4.176-1.848,3.045-6.389,1.085-6.003c-6.202,1.222-14.121,1.514-17.716,0.183C358.233,390.271,357.172,390.555,356.294,390.944
					z"/>
				<polygon style="opacity:0.2;" points="345.121,370.499 351.005,382.599 341.861,388.983 335.977,376.884 				"/>
				<path style="fill:#407BFF;" d="M295.855,308.807c-75.193-2.35-94.009-1.706-92.414-47.425l38.206,3.388
					c0,0,66.607,4.112,74.863,26.277c12.424,33.35,35.089,84.746,35.089,84.746l-14.976,9.921
					C336.623,385.715,305.803,348.058,295.855,308.807z"/>
				<polygon style="fill:#263238;" points="355.002,378.437 335.8,390.018 331.053,384.379 352.267,371.136 				"/>
				<g>
					<path style="fill:#407BFF;" d="M355.256,391.815c-0.095,0.024-0.197-0.006-0.263-0.081c-0.074-0.084-0.087-0.206-0.032-0.304
						c0.279-0.496,2.77-4.854,4.316-4.968c0.298-0.022,0.558,0.098,0.75,0.347l0,0c0.323,0.417,0.421,0.869,0.293,1.343
						c-0.425,1.575-3.334,2.964-5.03,3.652C355.279,391.809,355.267,391.813,355.256,391.815z M359.212,387.006
						c-0.862,0.219-2.38,2.327-3.393,4.001c2.28-1.011,3.753-2.108,3.991-2.992c0.084-0.311,0.018-0.6-0.201-0.883
						c-0.085-0.109-0.173-0.152-0.294-0.143C359.282,386.991,359.247,386.997,359.212,387.006z"/>
					<path style="fill:#407BFF;" d="M355.256,391.815c-0.024,0.006-0.05,0.009-0.076,0.008c-0.094-0.004-0.179-0.057-0.223-0.14
						c-0.06-0.113-1.461-2.783-0.917-4.534c0.166-0.534,0.493-0.932,0.973-1.182l0,0c0.647-0.337,1.024-0.145,1.227,0.075
						c0.864,0.94-0.036,4.416-0.827,5.659C355.377,391.759,355.32,391.799,355.256,391.815z M355.513,386.332
						c-0.07,0.018-0.154,0.05-0.255,0.103h0c-0.356,0.186-0.589,0.471-0.714,0.871c-0.357,1.151,0.299,2.867,0.662,3.676
						c0.693-1.443,1.163-4.019,0.645-4.583C355.819,386.365,355.737,386.275,355.513,386.332z M355.136,386.201l0.006-0.002
						L355.136,386.201z"/>
				</g>
			</g>
			<g>
				<path style="fill:#407BFF;" d="M291.016,209.339l-12.003-0.191c-0.878-0.012-1.916,0.405-2.306,0.927l-14.924,19.973
					c-0.36,0.481-0.28,0.979,0.105,1.364c0.385,0.386,0.862,0.291,1.591,0.302l11.816,0.18c0.878,0.012,1.915-0.405,2.306-0.927
					l14.773-19.77C292.867,210.555,292.944,209.339,291.016,209.339z"/>
				<path style="fill:#FF8B7B;" d="M228.36,187.756l0.191,2.385l0.232,2.509c0.169,1.678,0.346,3.363,0.546,5.044
					c0.416,3.359,0.863,6.713,1.451,10.021c1.128,6.615,2.627,13.128,4.802,19.086c0.521,1.491,1.15,2.945,1.752,4.305
					c0.284,0.715,0.418,0.866,0.377,0.988c-0.031,0.109,0.223,0.376,1.077,0.43c0.827,0.06,2.048-0.079,3.347-0.442
					c1.302-0.366,2.716-0.875,4.139-1.496c1.42-0.63,2.868-1.354,4.317-2.133c1.439-0.794,2.896-1.627,4.329-2.519
					c1.421-0.869,2.914-1.838,4.229-2.702l5.824,6.004c-1.267,1.588-2.468,2.952-3.8,4.34c-1.323,1.363-2.694,2.697-4.163,3.958
					c-1.46,1.274-2.997,2.499-4.669,3.637c-1.667,1.145-3.445,2.239-5.463,3.163c-2.018,0.919-4.262,1.757-6.989,2.11
					c-1.364,0.163-2.858,0.196-4.448-0.025c-1.583-0.217-3.261-0.709-4.82-1.506c-1.563-0.791-2.965-1.874-4.083-3.058
					c-1.126-1.183-2.007-2.444-2.7-3.673c-1.004-1.818-1.919-3.576-2.729-5.388c-3.253-7.223-5.323-14.579-6.869-21.942
					c-0.74-3.689-1.375-7.378-1.824-11.087c-0.234-1.854-0.437-3.71-0.59-5.578c-0.079-0.933-0.156-1.871-0.207-2.814
					c-0.054-0.968-0.098-1.841-0.133-2.947L228.36,187.756z"/>
				<g>
					<path style="fill:#263238;" d="M209.932,182.456c-6.083,8.883,3.926,35.225,3.926,35.225l24.18-9.98
						c0,0-1.01-6.801-5.301-20.054C228.063,173.21,217.301,171.696,209.932,182.456z"/>
				</g>
				<path style="fill:#FF8B7B;" d="M257.091,224.766l8.272-7.659l6.038,12.097c0,0-8.331,6.026-12.248,2.117L257.091,224.766z"/>
				<path style="fill:#FF8B7B;" d="M277.066,217.466l1.401,4.596c0.558,1.83-0.292,3.794-2.007,4.642l-5.061,2.5l-6.038-12.097
					l6.75-2.214C274.193,214.21,276.428,215.371,277.066,217.466z"/>
			</g>
		</g>
	</g>
</g>
</svg>
