<?xml version="1.0" encoding="utf-8"?>
<!-- Generator: Adobe Illustrator 19.0.0, SVG Export Plug-In . SVG Version: 6.00 Build 0)  -->
<svg version="1.1" id="Layer_1" xmlns="http://www.w3.org/2000/svg" xmlns:xlink="http://www.w3.org/1999/xlink" x="0px" y="0px"
	 viewBox="0 0 500 500" style="enable-background:new 0 0 500 500;" xml:space="preserve">
<style type="text/css">
	.st0{display:none;}
	.st1{display:inline;}
	.st2{fill:#407BFF;}
	.st3{opacity:0.9;fill:#FFFFFF;enable-background:new    ;}
	.st4{opacity:0.7;enable-background:new    ;}
	.st5{fill:#E9E9FF;}
	.st6{fill:#FFFFFF;}
	.st7{opacity:0.1;enable-background:new    ;}
	.st8{opacity:0.4;fill:#FFFFFF;enable-background:new    ;}
	.st9{fill:#263238;}
	.st10{opacity:0.3;enable-background:new    ;}
	.st11{opacity:0.7;fill:#FFFFFF;enable-background:new    ;}
	.st12{opacity:0.3;fill:#407BFF;enable-background:new    ;}
	.st13{fill:#FF8B7B;}
	.st14{opacity:0.2;enable-background:new    ;}
	.st15{fill:#FF5652;}
</style>
<g id="Background_Complete">
</g>
<g id="Background_Simple" class="st0">
	<g class="st1">
		<path class="st2" d="M298.1,100.5c-27.6,1.5-46.3,22.6-76.2,19C104,88.9,51.7,172.9,111.6,242.1c59.2,67.4,232,115.4,288.5,54.6
			C454.2,240.2,388.4,101.6,298.1,100.5z"/>
		<path class="st3" d="M298.1,100.5c-27.6,1.5-46.3,22.6-76.2,19C104,88.9,51.7,172.9,111.6,242.1c59.2,67.4,232,115.4,288.5,54.6
			C454.2,240.2,388.4,101.6,298.1,100.5z"/>
	</g>
</g>
<g id="Shadow_1_" class="st4">
	<ellipse id="_x3C_Path_x3E__230_" class="st5" cx="254.6" cy="447.9" rx="99.9" ry="6.8"/>
</g>
<g id="Bubble_Speech_1_">
	<g>
		<path class="st2" d="M404.6,144.7c-0.1-3.3-0.7-5.9-1.7-7.6c-0.9-1.8-3.6-6.3-36.4-6.3v-1.1c33.4,0,36,4.6,37.3,6.8
			c1.1,1.9,1.7,4.6,1.9,8.1H404.6z"/>
		<path class="st2" d="M403.3,162.9l-1.1-0.2c0.8-3.6,1.5-6.9,1.8-10l1.1,0.1C404.8,156,404.1,159.3,403.3,162.9z"/>
		<path class="st2" d="M400.6,138.4c-4.4-7.8-66.4-5-77.9-1.8c-15.5,4.5-22.6,44.7-23.7,54.3c0,0,9.1-9.6,17.1-12
			c3.9,1.4,46.1,8.7,54,10.8c9,2.4,18.6,0,22.9-7.9C397.4,174.1,405.1,146.5,400.6,138.4z"/>
		<path class="st6" d="M386.6,149.6c-0.1,0-0.2,0-0.4,0c-29.3-4.2-63.2-1.3-63.6-1.2c-1.5,0.1-2.7-0.9-2.8-2.4
			c-0.1-1.5,0.9-2.7,2.4-2.8c0.3,0,34.9-3,64.8,1.3c1.5,0.2,2.4,1.6,2.2,2.9C389,148.6,388,149.6,386.6,149.6z"/>
		<path class="st6" d="M382.4,163.6c-0.1,0-0.3,0-0.4,0c-33.7-5.9-63.8-4.2-64.1-4.2c-1.5,0.1-2.7-1.1-2.7-2.4
			c-0.1-1.5,1.1-2.7,2.4-2.7c0.3,0,31-1.8,65.4,4.2c1.5,0.2,2.4,1.6,2.1,3C384.7,162.8,383.6,163.6,382.4,163.6z"/>
		<path class="st6" d="M365,178c-0.2,0-0.5,0-0.7-0.1c-25.8-7.4-49.2-6-49.4-6c-1.5,0.1-2.7-1.1-2.8-2.4c-0.1-1.5,1.1-2.7,2.4-2.8
			c0.9-0.1,24.4-1.5,51.2,6.2c1.4,0.4,2.2,1.9,1.8,3.3C367.3,177.3,366.2,178,365,178z"/>
	</g>
</g>
<g id="Emoji">
	<g>
		<path class="st2" d="M104.4,128.7c3.4-8.2,47.1-12.3,58.9-10.5c16,2.4,28.5,44.2,30.5,55.7c0,0-10.3-8.3-18.6-9.7
			c-3.7,1.8-26.1,9.8-34,11.6c-9,2-18.4,2.3-23.7-4.8C112,163.8,100.8,137.4,104.4,128.7z"/>
		<path class="st7" d="M163.2,118.3c-11.9-1.8-55.6,2.3-58.9,10.5c-0.6,1.5-0.7,3.6-0.6,6c8.4,13.2,21.3,23.5,36,24.2
			c18,0.6,35.8-8.3,42.8-18.8C177.3,129.1,170.7,119.4,163.2,118.3z"/>
		<g>
			<g>
				<circle class="st2" cx="156.9" cy="113" r="30.6"/>
				<circle class="st8" cx="156.9" cy="113" r="30.6"/>
			</g>
			<path class="st2" d="M155.4,103.4c0.4,0.7-0.7,1.9-2.5,2.6s-3.5,0.7-3.8,0c-0.4-0.7,0.7-1.9,2.5-2.6
				C153.3,102.7,155,102.7,155.4,103.4z"/>
			<path class="st9" d="M147.2,96c2-0.7,4.1-1.2,6.2-1.2c1.1,0,2.1,0.1,3.2,0.2c1.1,0.2,2.1,0.4,3.2,0.7c0.5,0.2,0.8,0.8,0.6,1.4
				c-0.1,0.4-0.5,0.6-0.8,0.6l0,0c-0.8,0.1-1.8,0.3-2.6,0.4c-0.8,0.2-1.8,0.4-2.6,0.7c-0.8,0.3-1.7,0.6-2.5,1.1
				c-0.8,0.4-1.6,0.8-2.4,1.4c0.5-0.8,1.2-1.6,1.9-2.2c0.7-0.6,1.6-1.3,2.4-1.7c0.8-0.5,1.8-0.8,2.7-1.2c0.9-0.3,1.9-0.5,2.9-0.6
				l-0.3,2c-0.8-0.3-1.8-0.5-2.7-0.7c-0.9-0.2-1.9-0.4-2.9-0.5c-0.9-0.1-2-0.2-2.9-0.3C149.3,96.1,148.3,96.1,147.2,96z"/>
			<path class="st9" d="M176,89.9c-0.5,0.3-1.1,0.5-1.6,0.9c-0.5,0.3-0.9,0.6-1.3,1.1c-0.4,0.4-0.7,0.8-1.1,1.3
				c-0.3,0.4-0.6,0.9-0.8,1.4l-1.3-0.9c0.7-0.4,1.4-0.7,2.1-0.8c0.7-0.2,1.5-0.3,2.2-0.2c1.5,0,2.9,0.5,4,1.5
				c-0.7-0.1-1.4-0.2-2-0.3s-1.3,0-1.9,0.1c-0.6,0.1-1.3,0.2-1.8,0.4c-0.5,0.2-1.2,0.5-1.7,0.7l0,0c-0.4,0.2-0.9,0.1-1.2-0.3
				c-0.1-0.2-0.2-0.5-0.1-0.7c0.3-0.7,0.6-1.3,1.1-1.8c0.4-0.5,0.9-0.9,1.5-1.3s1.2-0.6,1.8-0.8C174.7,89.8,175.4,89.8,176,89.9z"/>
			<path class="st2" d="M180.8,97.5c0.1,0.8-1.3,1.6-3.2,1.7c-1.8,0.1-3.4-0.4-3.4-1.2c-0.1-0.8,1.3-1.6,3.2-1.7
				C179.2,96.3,180.7,96.8,180.8,97.5z"/>
			<g>
				<path class="st9" d="M156.2,107.5c3.4-1.7,12.2-5.7,22.8-6.5c0.6-0.1,1.3,0.4,1.3,1.1c0.8,8.9-15.4,13.7-24.2,7.4
					C155.4,108.9,155.4,107.8,156.2,107.5z"/>
				<path class="st2" d="M172.6,105.8c-0.5,0.3-1.1,0.6-1.6,0.9c-1.4-0.3-2.9-0.2-4.5,0.6c-2.1,1.1-3.6,2.8-3.8,4.5
					c2.1,0.3,4.2,0.3,6.3,0.1c1.6-0.2,3.2-0.6,4.6-1.3c2.4-0.9,4.4-2.4,5.6-4.2C177.9,104.9,175.1,104.6,172.6,105.8z"/>
			</g>
		</g>
	</g>
</g>
<g id="Heart">
	<g>
		<path class="st2" d="M238,46.8c-13.8-14.1-44.7-4.1-32.9,15.3c11.8,19.4,38,33.6,43.2,41.1c3.5-15.1,13.2-24.8,19.5-37.5
			C274.3,53,257.7,34.3,238,46.8z"/>
		<path class="st10" d="M238,46.8c-13.8-14.1-44.7-4.1-32.9,15.3c11.8,19.4,38,33.6,43.2,41.1c3.5-15.1,13.2-24.8,19.5-37.5
			C274.3,53,257.7,34.3,238,46.8z"/>
	</g>
</g>
<g id="Character_1_">
	<g>
		<g>
			<polygon class="st2" points="289.6,342.2 297.8,342.2 331.7,447.9 329,447.9 			"/>
			<polygon class="st2" points="256.3,342.2 264.5,342.2 277.4,447.9 274.7,447.9 			"/>
			<polygon class="st2" points="208.3,342.2 200.1,342.2 166.1,447.9 168.8,447.9 			"/>
			<polygon class="st2" points="241.6,342.2 233.3,342.2 220.5,447.9 223.2,447.9 			"/>
			<g>
				<path class="st2" d="M282.5,365.7c-39.8,0.4-96.3-0.8-121.3-49.8c-16.9-33.2-35.1-103.6,14.6-123.8
					c49.6-20.2,125.9,2.6,125.1,41.6s40.1,48.5,53.6,75.1C371,341.8,334.9,365,282.5,365.7z"/>
				<path class="st11" d="M282.5,365.7c-39.8,0.4-96.3-0.8-121.3-49.8c-16.9-33.2-35.1-103.6,14.6-123.8
					c49.6-20.2,125.9,2.6,125.1,41.6s40.1,48.5,53.6,75.1C371,341.8,334.9,365,282.5,365.7z"/>
			</g>
			<path class="st12" d="M324.3,328.5c-0.4,6-29.1,8.9-64.2,6.5c-35-2.4-57.2-4.3-63.6-18.1c-12.9-27.8-14.6-109.3,20.4-106.9
				C252,212.6,324.7,322.5,324.3,328.5z"/>
		</g>
		<g>
			<path class="st13" d="M271.5,207.8l0.3,1.9l0.3,2l0.7,4.1c0.5,2.7,1.1,5.5,1.7,8.1c1.2,5.4,2.6,10.7,4.4,15.8
				c0.4,1.3,0.8,2.5,1.4,3.8c0.5,1.3,0.9,2.5,1.5,3.7s1.1,2.5,1.5,3.4c0.2,0.4,0.3,0.8,0.4,1.1c0,0.2,0.1,0.2-0.7-0.2
				c-0.4-0.2-1.4-0.6-2.7-0.5c-0.6,0-1.4,0.2-1.9,0.4c-0.3,0.1-0.5,0.2-0.7,0.4c-0.2,0.1-0.4,0.3-0.5,0.4c-0.5,0.5-0.7,0.8-0.7,0.9
				c0,0.1,0,0.1,0.1,0.1c0.3-0.3,0.9-1.4,1.5-2.5c0.9-2.2,1.9-5,2.7-7.6l8.8,0.4c0.5,3.3,0.7,6.3,0.6,9.8c-0.2,1.8-0.3,3.5-1.2,5.8
				c-0.2,0.6-0.5,1.3-0.9,2c-0.4,0.7-1.1,1.6-2.2,2.5c-0.3,0.2-0.6,0.4-0.9,0.7c-0.3,0.2-0.7,0.4-1.3,0.6c-0.8,0.4-1.9,0.6-2.9,0.6
				c-2.1,0.1-3.8-0.5-4.8-1.2c-2.1-1.2-3-2.3-3.9-3.2c-0.8-0.9-1.5-1.8-2-2.5c-1.2-1.7-1.8-2.9-2.5-4.4c-1.5-2.8-2.8-5.7-4-8.5
				c-2.4-5.8-4.3-11.7-5.8-17.7c-0.7-2.9-1.4-6-2-9c-0.3-1.5-0.5-3-0.7-4.5c-0.1-0.7-0.2-1.6-0.3-2.3c-0.1-0.8-0.2-1.5-0.3-2.4
				L271.5,207.8z"/>
			<g>
				<path class="st9" d="M248.7,204.9c-5.4,10,8.1,36.4,8.1,36.4l24.2-13.1c0,0-1.8-7-7.8-20.4C266.7,193.2,255.3,192.8,248.7,204.9
					z"/>
			</g>
			<path class="st13" d="M280,245.8l0.5-11.9l13.4,4.5c0,0-1.8,10.6-7.6,10.6L280,245.8z"/>
			<path class="st13" d="M289.5,225.5l4.4,2.4c1.8,0.9,2.6,3,2,4.9l-1.9,5.6l-13.4-4.5l3.4-6.6C285,225.2,287.5,224.5,289.5,225.5z"
				/>
			<path class="st9" d="M261.5,196.2c-13.8-3-27.7-3.7-41-2.3c-8.8,0.8-16,7.8-17.1,16.6c-5.5,41.4-2,63.4-2.3,74.7l62.4,5.6
				c-0.5-11.9,0.4-42.8,6.3-82.5C270.6,202.7,266.9,197.5,261.5,196.2z"/>
			<g>
				<polygon class="st13" points="312.6,336.9 324.3,337.1 329.3,310.2 317.6,309.9 				"/>
				<path class="st9" d="M326,335.1l-12.2-3.9c-0.4-0.1-0.9,0.1-1.2,0.5l-4.3,9.6c-0.4,0.9,0.1,2.2,1.2,2.5
					c4.4,1.3,5.9,1.4,11.5,3.2c6.4,2,9,3.6,16.6,6c4.6,1.5,6.8-2.9,5-4c-5.8-3.4-12.2-8.6-14.1-12.2
					C328,335.9,326.9,335.4,326,335.1z"/>
				<polygon class="st14" points="329.3,310.2 326.7,324.1 315,323.7 317.6,309.9 				"/>
				<g>
					<path class="st2" d="M334.6,240c-14.3-7.1-50.6,31.3-96.8,48.5c-0.9,17.5,18.7,26.6,39.7,24.1c20.9-2.5,28.6-13.6,35-28.8
						c-3.6,15.7-0.2,31.9-0.2,31.9l18.2,5.1C330.6,320.8,347.7,246.5,334.6,240z"/>
					<path class="st14" d="M334.6,240c-14.3-7.1-50.6,31.3-96.8,48.5c-0.9,17.5,18.7,26.6,39.7,24.1c20.9-2.5,28.6-13.6,35-28.8
						c-3.6,15.7-0.2,31.9-0.2,31.9l18.2,5.1C330.6,320.8,347.7,246.5,334.6,240z"/>
				</g>
				<polygon class="st9" points="332.7,323 309.3,320.9 308.7,313.1 334.9,315.1 				"/>
				<g>
					<path class="st2" d="M324.6,335c-0.1,0-0.1-0.1-0.1-0.2s0.1-0.2,0.2-0.2c0.5-0.2,5.6-1.9,6.8-0.9c0.2,0.2,0.4,0.4,0.3,0.8l0,0
						c0,0.5-0.3,0.9-0.7,1.3C329.6,336.6,326.4,335.7,324.6,335C324.6,335.1,324.6,335.1,324.6,335z M331,334
						c-0.8-0.4-3.5,0.2-5.5,0.8c2.5,0.8,4.4,0.9,5.3,0.4c0.3-0.2,0.4-0.4,0.4-0.8C331.2,334.3,331.2,334.1,331,334
						C331.1,334,331,334,331,334z"/>
					<path class="st2" d="M324.6,335C324.5,335,324.5,335,324.6,335c-0.1-0.1-0.2-0.2-0.1-0.3c0-0.1,0.7-3.3,2.4-4.2
						c0.5-0.3,1.1-0.4,1.6-0.2l0,0c0.7,0.2,0.9,0.6,0.9,0.9c0,1.4-3,3.5-4.6,3.9C324.7,335.1,324.6,335.1,324.6,335z M328.6,330.9
						c-0.1,0-0.1-0.1-0.3-0.1l0,0c-0.4-0.1-0.8,0-1.2,0.2c-1.1,0.6-1.8,2.4-2,3.4c1.6-0.6,3.7-2.3,3.7-3.2
						C328.8,331.1,328.8,331,328.6,330.9z"/>
				</g>
			</g>
			<path class="st13" d="M252.3,196.7c-6.9-3-5.7-7.1-3.4-11.7l-14.5-13.1c0.5,5.8,0.4,15.4-3.6,20.5c-1.3,1.7-1.2,4,0.4,5.4
				c3.7,3.4,8.7,6.6,16.4,8c7,1.3,8.6-1.7,8.2-4.7C255.5,199,254.1,197.5,252.3,196.7z"/>
			<path class="st14" d="M240.3,177.2c-1.6-0.5-1.9,1.6-1.9,4.5c0,2.8,5,8.2,8.8,7.8c0.2-1.5,0.8-2.9,1.7-4.4L240.3,177.2z"/>
			<path class="st9" d="M265.7,167.6c4-3.9,9-14.5,8-19.8c-2.8-1.3-7.9-2.7-13.1-1.4c-5.3,1.4-10.1,5.3-10.1,5.3l6.4,5.5l-0.1,3.7
				l3.6,4l-1.1,3.6c-0.4,1.5,1.1,2.6,2.4,2L265.7,167.6z"/>
			<path class="st13" d="M237.3,153.9c-3,11.2-5.4,17.7-1.7,25.1c5.6,11.2,20.8,10.6,27.1,0.5c5.7-9.1,9.7-26,0.3-33.8
				C253.9,137.9,240.2,142.6,237.3,153.9z"/>
			<path class="st9" d="M232.1,160.6c-0.6-6.9-1.1-12.2-1.1-18.3c3-0.7,7.7-2.8,12.6-0.5c4.9,2.3,9,7,9,7l-7.4,4.2l-0.5,3.7
				l-4.2,3.3l0.4,3.7c0.1,1.5-1.6,2.4-2.7,1.5L232.1,160.6z"/>
			<path class="st9" d="M273.6,151.2c5.4-2.8,12.6-16.3,0.1-15.7c-8.1,0.4-18,1.5-26.4-3.3c0,0,2.4,4.2,8.7,4.7
				c13.7,1.3,14.1-0.9,18.1,0C281.4,138.5,273.6,151.2,273.6,151.2z"/>
			<path class="st9" d="M274.7,139c-8.9-5-18.8-1.2-26.5-4c-7.7-2.9-15.9,1.7-17.2,7.4l21.6,6.5c8.2,5.9,10.1,7.1,14.6,5.8
				C273.7,152.7,283.7,144.1,274.7,139z"/>
			<path class="st9" d="M232.9,141.1c-3.9,0.7-5.9,4.1-2.5,8.4c-1.3-4.6,2.5-6.2,2.5-6.2V141.1z"/>
			<path class="st13" d="M228.5,162.9c0.5,3,2.4,5.7,4.5,7c3.2,2.2,6.1-0.3,6.2-4c0.2-3.3-1.3-8.4-5-9.1
				C230.6,156.2,227.8,159.4,228.5,162.9z"/>
			<path class="st9" d="M252.3,161.6c-0.3,0.9-0.1,1.8,0.5,2c0.6,0.2,1.3-0.4,1.6-1.3c0.3-0.8,0.1-1.8-0.5-2
				C253.3,160.2,252.5,160.7,252.3,161.6z"/>
			<path class="st9" d="M263.1,165.6c-0.3,0.9-0.1,1.8,0.5,2s1.3-0.4,1.6-1.3c0.3-0.9,0.1-1.8-0.5-2
				C264.2,164.2,263.4,164.8,263.1,165.6z"/>
			<path class="st15" d="M259.8,165c0,0,0.3,5.8,1.8,9c-2.1,0.9-4.5-0.6-4.5-0.6L259.8,165z"/>
			<path class="st9" d="M252.3,174.7c-3.3-1.6-4.1-4.4-4.1-4.6c0-0.1,0-0.3,0.2-0.3c0.1,0,0.3,0,0.3,0.2c0,0,0.9,3.4,4.8,4.6
				c0.1,0,0.2,0.2,0.2,0.3s-0.2,0.2-0.3,0.2C253,175,252.7,174.9,252.3,174.7z"/>
			<path class="st9" d="M250.8,156.2c-0.1,0-0.1-0.1-0.2-0.2c-0.2-0.2-0.1-0.6,0.1-0.7c2.5-1.8,4.9-0.8,5-0.7
				c0.3,0.1,0.4,0.4,0.3,0.7c-0.1,0.3-0.4,0.4-0.7,0.3l0,0c-0.1,0-2-0.7-4,0.6C251.3,156.3,251.1,156.3,250.8,156.2z"/>
			<path class="st9" d="M268.9,162.9c-0.2-0.1-0.3-0.2-0.3-0.4c-0.6-2.3-2.5-3-2.5-3c-0.3-0.1-0.4-0.4-0.3-0.7
				c0.1-0.3,0.4-0.4,0.7-0.3c0.1,0,2.5,0.8,3.3,3.9c0.1,0.3-0.1,0.6-0.4,0.6C269.1,162.9,269,162.9,268.9,162.9z"/>
			<g>
				<polygon class="st13" points="352.3,431.2 361.9,424.6 349.9,399.9 340.4,406.6 				"/>
				<path class="st9" d="M361.7,421.4l-11.7,5.1c-0.4,0.2-0.6,0.6-0.5,1.1l3,10.1c0.3,1.1,1.6,1.6,2.5,1.2c4.2-1.9,5.4-2.8,10.6-5.1
					c6.2-2.7,9.1-3.3,16.4-6.5c4.4-1.9,3.2-6.7,1.2-6.3c-6.5,1.3-14.8,1.6-18.6,0.2C363.7,420.7,362.6,421,361.7,421.4z"/>
				<polygon class="st14" points="349.9,399.9 356.1,412.6 346.6,419.4 340.4,406.6 				"/>
				<path class="st2" d="M298.2,335.1c-79-2.4-98.8-1.8-97.1-49.8l40.1,3.6c0,0,70,4.3,78.7,27.6c13,35.1,36.9,89,36.9,89
					l-15.8,10.4C341,415.9,308.6,376.4,298.2,335.1z"/>
				<polygon class="st9" points="360.3,408.2 340.1,420.4 335.2,414.5 357.5,400.6 				"/>
				<g>
					<path class="st2" d="M360.6,422.3c-0.1,0-0.2,0-0.3-0.1c-0.1-0.1-0.1-0.2,0-0.3c0.3-0.5,2.9-5.1,4.5-5.3c0.3,0,0.6,0.1,0.8,0.3
						l0,0c0.3,0.4,0.4,0.9,0.3,1.4C365.5,420.1,362.4,421.6,360.6,422.3L360.6,422.3z M364.7,417.3c-0.9,0.2-2.5,2.4-3.6,4.2
						c2.4-1.1,4-2.2,4.2-3.2c0.1-0.3,0-0.6-0.2-0.9c-0.1-0.1-0.2-0.2-0.3-0.1C364.8,417.3,364.7,417.3,364.7,417.3z"/>
					<path class="st2" d="M360.6,422.3C360.5,422.3,360.5,422.3,360.6,422.3c-0.2,0-0.3,0-0.3-0.1c-0.1-0.1-1.6-2.9-0.9-4.7
						c0.2-0.5,0.5-0.9,1.1-1.3l0,0c0.6-0.3,1.1-0.1,1.3,0.1c0.9,0.9,0,4.6-0.8,6C360.7,422.3,360.6,422.3,360.6,422.3z M360.8,416.5
						c-0.1,0-0.2,0-0.3,0.1l0,0c-0.4,0.2-0.6,0.5-0.7,0.9c-0.4,1.3,0.3,3,0.7,3.9c0.7-1.5,1.3-4.2,0.6-4.8
						C361.2,416.6,361.1,416.5,360.8,416.5z M360.4,416.4L360.4,416.4L360.4,416.4z"/>
				</g>
			</g>
			<g>
				<path class="st2" d="M293.1,230.6l-12.6-0.2c-0.9,0-2,0.4-2.4,0.9l-15.7,21c-0.4,0.5-0.3,1.1,0.1,1.5c0.4,0.4,0.9,0.3,1.7,0.3
					l12.4,0.2c0.9,0,2-0.4,2.4-0.9l15.5-20.8C295.1,231.9,295.1,230.6,293.1,230.6z"/>
				<path class="st13" d="M227.3,208l0.2,2.5l0.2,2.6c0.2,1.8,0.3,3.6,0.5,5.3c0.4,3.6,0.9,7,1.6,10.5c1.2,6.9,2.7,13.8,5,20.1
					c0.5,1.6,1.3,3,1.9,4.5c0.3,0.7,0.4,0.9,0.4,1.1s0.2,0.4,1.2,0.4c0.8,0.1,2.1-0.1,3.5-0.4c1.4-0.4,2.8-0.9,4.3-1.6
					c1.5-0.6,3-1.5,4.5-2.2c1.5-0.8,3-1.7,4.5-2.6c1.5-0.9,3-1.9,4.4-2.8l6.1,6.3c-1.4,1.7-2.6,3.2-4,4.5c-1.4,1.5-2.8,2.8-4.4,4.2
					c-1.6,1.4-3.2,2.6-4.9,3.8c-1.8,1.2-3.6,2.3-5.8,3.4c-2.1,0.9-4.5,1.9-7.4,2.2c-1.5,0.2-3,0.2-4.6,0c-1.7-0.2-3.5-0.7-5-1.6
					c-1.7-0.8-3.2-2-4.3-3.3c-1.2-1.3-2.1-2.5-2.8-3.9c-1.1-1.9-2-3.8-2.8-5.7c-3.5-7.6-5.6-15.3-7.2-23c-0.7-3.9-1.5-7.8-1.9-11.7
					c-0.2-2-0.4-3.9-0.6-5.9c-0.1-0.9-0.2-2-0.2-2.9c-0.1-1.1-0.1-1.9-0.1-3L227.3,208z"/>
				<g>
					<path class="st9" d="M207.9,202.4c-6.4,9.4,4.1,37,4.1,37l25.4-10.5c0,0-1.1-7.1-5.6-21.1C227,192.6,215.6,191.1,207.9,202.4z"
						/>
				</g>
				<path class="st13" d="M257.5,246.8l8.7-8.1l6.3,12.7c0,0-8.7,6.3-12.8,2.2L257.5,246.8z"/>
				<path class="st13" d="M278.5,239.2l1.5,4.8c0.6,1.9-0.3,4-2.1,4.8l-5.4,2.6l-6.3-12.7l7-2.3C275.4,235.7,277.7,237,278.5,239.2z
					"/>
			</g>
		</g>
	</g>
</g>
</svg>
