<?xml version="1.0" encoding="utf-8"?>
<!-- Generator: Adobe Illustrator 19.0.0, SVG Export Plug-In . SVG Version: 6.00 Build 0)  -->
<svg version="1.1" id="Layer_1" xmlns="http://www.w3.org/2000/svg" xmlns:xlink="http://www.w3.org/1999/xlink" x="0px" y="0px"
	 viewBox="0 0 300 300" style="enable-background:new 0 0 300 300;" xml:space="preserve">
<style type="text/css">
	.st0{fill:url(#XMLID_2_);}
</style>
<linearGradient id="XMLID_2_" gradientUnits="userSpaceOnUse" x1="167.9903" y1="253.0723" x2="134.1815" y2="59.1172" gradientTransform="matrix(1 0 0 -1 0 300)">
	<stop  offset="0" style="stop-color:#FEDE00"/>
	<stop  offset="0.6003" style="stop-color:#F8BC00"/>
	<stop  offset="1" style="stop-color:#F5AA00"/>
</linearGradient>
<path id="XMLID_4_" class="st0" d="M124.7,36.7l-36,115.9c0,0-4.9,14.2,1.7,14.4c6.5,0.2,46,0,46,0L106,265.2c0,0-1.3,3.5,0.7,5.8
	c0,0,2.4,0.2,5-3.5l99-121.7c0,0,7.8-10.6-4.4-10.6c-12.3,0-44.5,0-44.5,0s-2.2,0.2-0.6-2.6c1.7-2.8,47.7-93.2,47.7-93.2
	s5.6-10.4-2.2-10.4h-75.3C131.4,29,127,29.1,124.7,36.7z"/>
</svg>
