<?xml version="1.0" encoding="utf-8"?>
<!-- Generator: Adobe Illustrator 28.4.1, SVG Export Plug-In . SVG Version: 6.00 Build 0)  -->
<svg version="1.1" id="Layer_1" xmlns="http://www.w3.org/2000/svg" xmlns:xlink="http://www.w3.org/1999/xlink" x="0px" y="0px"
	 viewBox="0 0 500 500" style="enable-background:new 0 0 500 500;" xml:space="preserve">
<style type="text/css">
	.st0{fill:none;stroke:#47B863;stroke-width:40;stroke-linecap:round;stroke-linejoin:round;}
</style>
<g>
	<path class="st0" d="M405.48,166.28v167.44c0,19.82-16.06,35.88-35.88,35.88H130.4c-19.82,0-35.88-16.06-35.88-35.88V166.28"/>
	<path class="st0" d="M405.48,166.28c0-19.82-16.06-35.88-35.88-35.88H130.4c-19.82,0-35.88,16.06-35.88,35.88"/>
	<path class="st0" d="M405.48,166.28v3.88c0,12.46-6.46,24.02-17.06,30.55l-119.6,73.6c-11.54,7.11-26.1,7.11-37.63,0l-119.6-73.58
		c-10.61-6.53-17.06-18.1-17.06-30.55v-3.89"/>
</g>
</svg>
