<?xml version="1.0" encoding="utf-8"?>
<!-- Generator: Adobe Illustrator 19.0.0, SVG Export Plug-In . SVG Version: 6.00 Build 0)  -->
<svg version="1.1" id="Layer_1" xmlns="http://www.w3.org/2000/svg" xmlns:xlink="http://www.w3.org/1999/xlink" x="0px" y="0px"
	 viewBox="0 0 500 500" style="enable-background:new 0 0 500 500;" xml:space="preserve">
<style type="text/css">
	.st0{display:none;}
	.st1{display:inline;}
	.st2{fill:#407BFF;}
	.st3{opacity:0.9;fill:#FFFFFF;enable-background:new    ;}
	.st4{fill:#F4F4F4;}
	.st5{fill:none;stroke:#407BFF;stroke-width:3;stroke-miterlimit:10;}
	.st6{opacity:0.6;fill:#FFFFFF;enable-background:new    ;}
	.st7{opacity:0.5;fill:#FFFFFF;enable-background:new    ;}
	.st8{fill:#FFFFFF;}
	.st9{opacity:0.75;fill:#FFFFFF;enable-background:new    ;}
	.st10{opacity:0.4;}
	.st11{fill:#FD897B;}
	.st12{opacity:0.2;enable-background:new    ;}
	.st13{fill:#1A2E35;}
	.st14{fill:#007CFF;}
	.st15{fill:#FCC1BB;}
	.st16{opacity:0.1;fill:#FFFFFF;enable-background:new    ;}
	.st17{fill:#EB827E;}
	.st18{fill:none;stroke:#1A2E35;stroke-width:0.6862;stroke-linecap:round;stroke-linejoin:round;stroke-miterlimit:10;}
	.st19{fill:none;stroke:#1A2E35;stroke-width:0.5;stroke-linecap:round;stroke-linejoin:round;stroke-miterlimit:10;}
	.st20{opacity:0.7;fill:#FFFFFF;enable-background:new    ;}
</style>
<g id="Background_Complete">
</g>
<g id="Backgorund_Simple" class="st0">
	<g class="st1">
		<path class="st2" d="M115.1,101.2c3.8-3.5,8-6.5,12.6-8.9c51.2-26.3,96.3,27.5,115.5,69c9,19.4,17.3,40.9,35.5,52.2
			c23.1,14.3,50.7,8.9,75.5,16.4c26,7.9,49.4,34.6,49.8,62.5c0.4,31.6-29.4,44.7-55.3,51.4c-37.6,9.7-77.4,9.8-114.9-0.5
			c-74-20.4-128.8-78.4-140.5-155.1C88.9,158.7,92,122.7,115.1,101.2z"/>
		<path class="st3" d="M115.1,101.2c3.8-3.5,8-6.5,12.6-8.9c51.2-26.3,96.3,27.5,115.5,69c9,19.4,17.3,40.9,35.5,52.2
			c23.1,14.3,50.7,8.9,75.5,16.4c26,7.9,49.4,34.6,49.8,62.5c0.4,31.6-29.4,44.7-55.3,51.4c-37.6,9.7-77.4,9.8-114.9-0.5
			c-74-20.4-128.8-78.4-140.5-155.1C88.9,158.7,92,122.7,115.1,101.2z"/>
	</g>
</g>
<g id="Shadow_1_">
</g>
<g id="Plant">
</g>
<g id="Folder">
</g>
<g id="Data_Storage">
</g>
<g id="Character">
</g>
<g id="Button">
</g>
<g id="Shadow_2_">
	<ellipse id="_x3C_Path_x3E__230_" class="st4" cx="80.5" cy="461.4" rx="67.2" ry="3.9"/>
</g>
<g>
	<g>
		<g>
			<circle class="st5" cx="135.6" cy="205.7" r="14.3"/>
		</g>
		<g>
			<rect x="148.5" y="204.2" class="st2" width="237.2" height="2.7"/>
		</g>
		<g>
			<path class="st2" d="M137.2,192.9h-2.7V176c0-0.5,0-0.7,0.2-1L221,88.8c0.2-0.2,0.6-0.5,1-0.5h79v2.7h-78.6l-85.3,85.5V192.9z"/>
		</g>
		<g>
			<path class="st2" d="M342,335.4H235.8c-0.5,0-0.7-0.1-1-0.2L134.6,234.9c-0.2-0.2-0.2-0.6-0.2-1v-14.3h2.7v13.7l99.2,99.3h105.6
				v2.9H342z"/>
		</g>
		<g>
			<path class="st2" d="M271.4,245.1h-57c-0.5,0-0.7-0.1-1-0.2L175.2,207l1.9-2.2l37.7,37.3h56.5L271.4,245.1L271.4,245.1z"/>
		</g>
		<g>
			<path class="st2" d="M231.8,206.7l-1.9-1.9l37.9-38.2c0.2-0.2,0.6-0.5,1-0.5h57.6v2.7h-57L231.8,206.7z"/>
		</g>
		<g>
			<path class="st2" d="M447.9,135.1H223.4c-0.5,0-0.7-0.1-1-0.2L200,112.1l1.9-1.9l22.1,22.3h224v2.5H447.9z"/>
		</g>
		<g>
			<path class="st2" d="M247.7,91l-1.9-1.9l36.8-36.8c0.2-0.2,0.6-0.5,1-0.5h117.8v2.7H284L247.7,91z"/>
		</g>
		<g>
			<path class="st2" d="M270.5,404.7l-56.7-56.9c-0.2-0.2-0.2-0.6-0.2-1v-33.9h2.7v33.4l56.3,56.5L270.5,404.7z"/>
		</g>
		<g>
			<path class="st2" d="M257.8,334.6l-1.9-1.9l37.3-37.7c0.2-0.2,0.6-0.5,1-0.5h142.5v2.7H294.9L257.8,334.6z"/>
		</g>
		<g>
			<path class="st2" d="M389.9,375h-63.6c-0.5,0-0.7-0.1-1-0.2l-39.8-39.6l1.9-2.2l39.4,39.3h63v2.7H389.9z"/>
		</g>
		<g>
			<circle class="st2" cx="401" cy="53.3" r="6.5"/>
		</g>
		<g>
			<path class="st2" d="M313.4,104.9c-8.2,0-15-6.6-15-15c0-8.2,6.6-15,15-15s15,6.6,15,15C328.4,98.2,321.7,104.9,313.4,104.9z
				 M313.4,77.9c-6.6,0-12.1,5.5-12.1,12.1s5.5,12.1,12.1,12.1s12.1-5.5,12.1-12.1C325.6,83.4,320.1,77.9,313.4,77.9z"/>
		</g>
		<g>
			<circle class="st2" cx="313.4" cy="90" r="6.5"/>
		</g>
		<g>
			<circle class="st2" cx="447.5" cy="134" r="6.5"/>
		</g>
		<g>
			<circle class="st2" cx="326.1" cy="167.6" r="6.5"/>
		</g>
		<g>
			<path class="st2" d="M398.2,220.7c-8.2,0-15-6.6-15-15c0-8.2,6.6-15,15-15c8.2,0,15,6.6,15,15
				C413.2,213.9,406.3,220.7,398.2,220.7z M398.2,193.6c-6.6,0-12.1,5.5-12.1,12.1s5.5,12.1,12.1,12.1c6.6,0,12.1-5.5,12.1-12.1
				S404.8,193.6,398.2,193.6z"/>
		</g>
		<g>
			<circle class="st2" cx="398.2" cy="205.7" r="6.5"/>
		</g>
		<g>
			<circle class="st2" cx="271.1" cy="243.8" r="6.5"/>
		</g>
		<g>
			<circle class="st2" cx="436.3" cy="296.1" r="6.5"/>
		</g>
		<g>
			<path class="st2" d="M354.4,348.8c-8.2,0-15-6.6-15-15c0-8.4,6.6-15,15-15c8.2,0,15,6.6,15,15
				C369.4,342.2,362.6,348.8,354.4,348.8z M354.4,321.9c-6.6,0-12.1,5.5-12.1,12.1c0,6.6,5.5,12.1,12.1,12.1s12.1-5.5,12.1-12.1
				C366.6,327.3,361.1,321.9,354.4,321.9z"/>
		</g>
		<g>
			<circle class="st2" cx="354.4" cy="334" r="6.5"/>
		</g>
		<g>
			<circle class="st2" cx="389.7" cy="373.7" r="6.5"/>
		</g>
		<g>
			<circle class="st2" cx="271.5" cy="403.8" r="6.5"/>
		</g>
	</g>
	<g>
		<path class="st2" d="M441.7,72.3h-23.6c-1.1,0-2.2-1-2.2-2.2V38.2c0-1.1,1-2.2,2.2-2.2h23.6c1.1,0,2.2,1,2.2,2.2v32.1
			C443.9,71.3,442.8,72.3,441.7,72.3z"/>
		<path class="st6" d="M441.7,72.3h-23.6c-1.1,0-2.2-1-2.2-2.2V38.2c0-1.1,1-2.2,2.2-2.2h23.6c1.1,0,2.2,1,2.2,2.2v32.1
			C443.9,71.3,442.8,72.3,441.7,72.3z"/>
	</g>
	<rect x="420.5" y="49.7" class="st2" width="1.9" height="19.5"/>
	<rect x="423.9" y="49.7" class="st2" width="1.9" height="19.5"/>
	<rect x="427.4" y="49.7" class="st2" width="1.9" height="19.5"/>
	<rect x="430.8" y="49.7" class="st2" width="1.9" height="19.5"/>
	<rect x="434.2" y="39.2" class="st2" width="1.9" height="30.2"/>
	<rect x="437.8" y="39.2" class="st2" width="1.9" height="30.2"/>
	<rect x="420.5" y="39.2" class="st2" width="12.3" height="9"/>
	<g>
		<g>
			<path class="st2" d="M311.1,262h-23.6c-1.1,0-2.2-1-2.2-2.2v-32.1c0-1.1,1-2.2,2.2-2.2h23.6c1.1,0,2.2,1,2.2,2.2v32.1
				C313.3,261,312.3,262,311.1,262z"/>
			<path class="st6" d="M311.1,262h-23.6c-1.1,0-2.2-1-2.2-2.2v-32.1c0-1.1,1-2.2,2.2-2.2h23.6c1.1,0,2.2,1,2.2,2.2v32.1
				C313.3,261,312.3,262,311.1,262z"/>
		</g>
		<g>
			<rect x="289.6" y="230.9" class="st2" width="19.5" height="1.9"/>
			<rect x="289.6" y="234.2" class="st2" width="19.5" height="1.9"/>
			<rect x="289.6" y="237.8" class="st2" width="19.5" height="1.9"/>
			<rect x="289.6" y="241.2" class="st2" width="19.5" height="1.9"/>
			<rect x="289.6" y="244.6" class="st2" width="19.5" height="1.9"/>
			<rect x="289.6" y="248.1" class="st2" width="19.5" height="1.9"/>
			<rect x="289.6" y="251.5" class="st2" width="19.5" height="1.9"/>
			<rect x="289.6" y="254.8" class="st2" width="12.7" height="1.9"/>
		</g>
	</g>
	<g>
		<path class="st2" d="M449.7,314.6h23.6c1.1,0,2.2-1,2.2-2.2v-32.1c0-1.1-1-2.2-2.2-2.2h-23.6c-1.1,0-2.2,1-2.2,2.2v32.1
			C447.5,313.6,448.6,314.6,449.7,314.6z"/>
		<path class="st6" d="M449.7,314.6h23.6c1.1,0,2.2-1,2.2-2.2v-32.1c0-1.1-1-2.2-2.2-2.2h-23.6c-1.1,0-2.2,1-2.2,2.2v32.1
			C447.5,313.6,448.6,314.6,449.7,314.6z"/>
	</g>
	<rect x="455.1" y="283.3" class="st2" width="10" height="1.9"/>
	<rect x="455.1" y="286.8" class="st2" width="10" height="8.5"/>
	<rect x="455.1" y="297.1" class="st2" width="10" height="1.9"/>
	<rect x="455.1" y="300.5" class="st2" width="10" height="1.9"/>
	<rect x="455.1" y="304.1" class="st2" width="10" height="1.9"/>
	<rect x="455.1" y="307.4" class="st2" width="10" height="1.9"/>
	<rect x="469.9" y="283.3" class="st2" width="1.9" height="26"/>
	<rect x="466.8" y="283.3" class="st2" width="1.9" height="26"/>
	<rect x="451.7" y="283.3" class="st2" width="1.9" height="26"/>
	<g>
		<path class="st2" d="M489.2,150.6h-23.6c-1.1,0-2.2-1-2.2-2.2v-32.1c0-1.1,1-2.2,2.2-2.2h23.6c1.1,0,2.2,1,2.2,2.2v32.1
			C491.4,149.8,490.4,150.6,489.2,150.6z"/>
		<path class="st6" d="M489.2,150.6h-23.6c-1.1,0-2.2-1-2.2-2.2v-32.1c0-1.1,1-2.2,2.2-2.2h23.6c1.1,0,2.2,1,2.2,2.2v32.1
			C491.4,149.8,490.4,150.6,489.2,150.6z"/>
	</g>
	<g>
		<rect x="471.2" y="125.2" class="st2" width="1.9" height="13.4"/>
		<rect x="467.7" y="125.2" class="st2" width="1.9" height="13.4"/>
		<rect x="478.2" y="125.2" class="st2" width="1.9" height="13.4"/>
		<rect x="474.7" y="125.2" class="st2" width="1.9" height="13.4"/>
		<rect x="485.3" y="125.2" class="st2" width="1.9" height="13.4"/>
		<rect x="481.8" y="125.2" class="st2" width="1.9" height="13.4"/>
	</g>
	<rect x="473.2" y="118.6" class="st2" width="14.1" height="1.9"/>
	<rect x="467.7" y="122.1" class="st2" width="19.5" height="1.9"/>
	<rect x="467.7" y="140.2" class="st2" width="19.5" height="1.9"/>
	<rect x="474.6" y="143.6" class="st2" width="12.7" height="1.9"/>
	<g>
		<path class="st2" d="M313.7,423.2h-23.6c-1.1,0-2.2-1-2.2-2.2v-32.1c0-1.1,1-2.2,2.2-2.2h23.6c1.1,0,2.2,1,2.2,2.2V421
			C315.7,422.2,314.9,423.2,313.7,423.2z"/>
		<path class="st6" d="M313.7,423.2h-23.6c-1.1,0-2.2-1-2.2-2.2v-32.1c0-1.1,1-2.2,2.2-2.2h23.6c1.1,0,2.2,1,2.2,2.2V421
			C315.7,422.2,314.9,423.2,313.7,423.2z"/>
	</g>
	<rect x="292.1" y="392" class="st2" width="19.5" height="1.9"/>
	<rect x="292.1" y="395.4" class="st2" width="9.7" height="1.9"/>
	<rect x="292.1" y="398.7" class="st2" width="19.5" height="12"/>
	<rect x="292.1" y="412.7" class="st2" width="19.5" height="1.9"/>
	<rect x="292.1" y="416.1" class="st2" width="12.7" height="1.9"/>
	<path class="st2" d="M418.1,316.4V352c0,0.8-0.7,1.7-1.7,1.7h-35.6c-0.8,0-1.7-0.7-1.7-1.7v-35.6c0-0.8,0.7-1.7,1.7-1.7h35.6
		C417.4,314.8,418.1,315.5,418.1,316.4z"/>
	<g>
		<g>
			<rect x="383.3" y="343.1" class="st7" width="2.7" height="5.5"/>
			<rect x="411.2" y="343.1" class="st8" width="2.7" height="5.5"/>
			<rect x="406.5" y="343.1" class="st8" width="2.7" height="5.5"/>
			<rect x="401.8" y="343.1" class="st9" width="2.7" height="5.5"/>
			<rect x="397.4" y="343.1" class="st7" width="2.7" height="5.5"/>
			<rect x="392.7" y="343.1" class="st7" width="2.7" height="5.5"/>
			<rect x="388" y="343.1" class="st7" width="2.7" height="5.5"/>
		</g>
		<g>
			<rect x="383.3" y="335.6" class="st7" width="2.7" height="5.5"/>
			<rect x="397.4" y="335.6" class="st8" width="2.7" height="5.5"/>
			<rect x="392.7" y="335.6" class="st9" width="2.7" height="5.5"/>
			<rect x="388" y="335.6" class="st7" width="2.7" height="5.5"/>
		</g>
		<g>
			<rect x="383.3" y="328.1" class="st7" width="2.7" height="5.5"/>
			<rect x="401.8" y="328.1" class="st8" width="2.7" height="5.5"/>
			<rect x="397.4" y="328.1" class="st9" width="2.7" height="5.5"/>
			<rect x="392.7" y="328.1" class="st7" width="2.7" height="5.5"/>
			<rect x="388" y="328.1" class="st7" width="2.7" height="5.5"/>
		</g>
		<g>
			<rect x="383.3" y="320.7" class="st7" width="2.7" height="5.5"/>
			<rect x="392.7" y="320.7" class="st8" width="2.7" height="5.5"/>
			<rect x="388" y="320.7" class="st9" width="2.7" height="5.5"/>
		</g>
	</g>
	<path class="st2" d="M383.9,121.2h-46.1c-0.8,0-1.7-0.7-1.7-1.7V73.3c0-0.8,0.7-1.7,1.7-1.7h46.1c0.8,0,1.7,0.7,1.7,1.7v46.1
		C385.6,120.5,384.9,121.2,383.9,121.2z"/>
	<g>
		<rect x="342.6" y="153.1" class="st2" width="43.4" height="28.2"/>
		<rect x="342.6" y="153.1" class="st6" width="43.4" height="28.2"/>
	</g>
	<rect x="344.4" y="158.4" class="st2" width="40.2" height="21.6"/>
	<g>
		<rect x="358.8" y="161.7" class="st8" width="18.6" height="1"/>
		<rect x="358.8" y="164.5" class="st8" width="8.9" height="1"/>
		<rect x="358.8" y="167.3" class="st8" width="11.1" height="1"/>
		<rect x="358.8" y="170.2" class="st8" width="3.9" height="1"/>
		<rect x="358.8" y="173" class="st8" width="2.5" height="1"/>
	</g>
	<g>
		<g>
			<rect x="406.2" y="359.6" class="st2" width="43.4" height="28.2"/>
			<rect x="406.2" y="359.6" class="st6" width="43.4" height="28.2"/>
		</g>
		<rect x="407.8" y="365" class="st2" width="40.2" height="21.6"/>
		<g>
			<rect x="411" y="368.1" class="st8" width="29.8" height="1"/>
			<rect x="411" y="370.9" class="st8" width="14.3" height="1"/>
			<rect x="411" y="373.7" class="st8" width="18" height="1"/>
			<rect x="411" y="376.7" class="st8" width="6.4" height="1"/>
			<rect x="411" y="379.5" class="st8" width="4.1" height="1"/>
		</g>
	</g>
	<g class="st10">
		<g>
			<rect x="147.7" y="204.2" class="st8" width="238.1" height="2.7"/>
		</g>
		<g>
			<path class="st8" d="M137.2,192.9h-2.7V176c0-0.5,0-0.7,0.2-1L221,88.8c0.2-0.2,0.6-0.5,1-0.5h79v2.7h-78.6l-85.3,85.5V192.9z"/>
		</g>
		<g>
			<path class="st8" d="M342,335.4H235.8c-0.5,0-0.7-0.1-1-0.2L134.6,234.9c-0.2-0.2-0.2-0.6-0.2-1v-14.3h2.7v13.7l99.2,99.3h105.6
				v2.9H342z"/>
		</g>
		<g>
			<path class="st8" d="M271.4,245.1h-57c-0.5,0-0.7-0.1-1-0.2L175.2,207l1.9-2.2l37.7,37.3h56.5L271.4,245.1L271.4,245.1z"/>
		</g>
		<g>
			<path class="st8" d="M231.8,206.7l-1.9-1.9l37.9-38.2c0.2-0.2,0.6-0.5,1-0.5h57.6v2.7h-57L231.8,206.7z"/>
		</g>
		<g>
			<path class="st8" d="M447.9,135.1H223.4c-0.5,0-0.7-0.1-1-0.2L200,112.1l1.9-1.9l22.1,22.3h224v2.5H447.9z"/>
		</g>
		<g>
			<path class="st8" d="M247.7,91l-1.9-1.9l36.8-36.8c0.2-0.2,0.6-0.5,1-0.5h117.8v2.7H284L247.7,91z"/>
		</g>
		<g>
			<path class="st8" d="M270.5,404.7l-56.7-56.9c-0.2-0.2-0.2-0.6-0.2-1v-33.9h2.7v33.4l56.3,56.5L270.5,404.7z"/>
		</g>
		<g>
			<path class="st8" d="M257.8,334.6l-1.9-1.9l37.3-37.7c0.2-0.2,0.6-0.5,1-0.5h142.5v2.7H294.9L257.8,334.6z"/>
		</g>
		<g>
			<path class="st8" d="M389.9,375h-63.6c-0.5,0-0.7-0.1-1-0.2l-39.8-39.6l1.9-2.2l39.4,39.3h63v2.7H389.9z"/>
		</g>
		<g>
			<circle class="st8" cx="401" cy="53.3" r="6.5"/>
		</g>
		<g>
			<path class="st8" d="M313.4,104.9c-8.2,0-15-6.6-15-15c0-8.2,6.6-15,15-15s15,6.6,15,15C328.4,98.2,321.7,104.9,313.4,104.9z
				 M313.4,77.9c-6.6,0-12.1,5.5-12.1,12.1s5.5,12.1,12.1,12.1s12.1-5.5,12.1-12.1C325.6,83.4,320.1,77.9,313.4,77.9z"/>
		</g>
		<g>
			<circle class="st8" cx="447.5" cy="134" r="6.5"/>
		</g>
		<g>
			<circle class="st8" cx="326.1" cy="167.6" r="6.5"/>
		</g>
		<g>
			<path class="st8" d="M398.2,220.7c-8.2,0-15-6.6-15-15c0-8.2,6.6-15,15-15c8.2,0,15,6.6,15,15
				C413.2,213.9,406.3,220.7,398.2,220.7z M398.2,193.6c-6.6,0-12.1,5.5-12.1,12.1s5.5,12.1,12.1,12.1c6.6,0,12.1-5.5,12.1-12.1
				S404.8,193.6,398.2,193.6z"/>
		</g>
		<g>
			<circle class="st8" cx="271.1" cy="243.8" r="6.5"/>
		</g>
		<g>
			<circle class="st8" cx="436.3" cy="296.1" r="6.5"/>
		</g>
		<g>
			<path class="st8" d="M354.4,348.8c-8.2,0-15-6.6-15-15c0-8.4,6.6-15,15-15c8.2,0,15,6.6,15,15
				C369.4,342.2,362.6,348.8,354.4,348.8z M354.4,321.9c-6.6,0-12.1,5.5-12.1,12.1c0,6.6,5.5,12.1,12.1,12.1s12.1-5.5,12.1-12.1
				C366.6,327.3,361.1,321.9,354.4,321.9z"/>
		</g>
		<g>
			<circle class="st8" cx="389.7" cy="373.7" r="6.5"/>
		</g>
		<g>
			<circle class="st8" cx="271.5" cy="403.8" r="6.5"/>
		</g>
		<g>
			<g>
				<path class="st8" d="M135.6,222.2c-9,0-16.4-7.3-16.4-16.4s7.3-16.4,16.4-16.4s16.4,7.3,16.4,16.4
					C152,214.9,144.6,222.2,135.6,222.2z M135.6,193.6c-6.8,0-12.1,5.5-12.1,12.1s5.5,12.1,12.1,12.1s12.1-5.5,12.1-12.1
					C147.7,199.1,142.4,193.6,135.6,193.6z"/>
			</g>
		</g>
	</g>
	<g>
		<rect x="369.1" y="113.4" class="st7" width="5.3" height="2.7"/>
		<g>
			<g>
				<rect x="340.2" y="113.4" class="st7" width="5.3" height="2.7"/>
				<rect x="340.2" y="86.7" class="st8" width="5.3" height="2.7"/>
				<rect x="340.2" y="91.1" class="st8" width="5.3" height="2.7"/>
				<rect x="340.2" y="95.7" class="st9" width="5.3" height="2.7"/>
				<rect x="340.2" y="100" class="st7" width="5.3" height="2.7"/>
				<rect x="340.2" y="104.5" class="st7" width="5.3" height="2.7"/>
				<rect x="340.2" y="109.1" class="st7" width="5.3" height="2.7"/>
			</g>
			<g>
				<rect x="347.4" y="113.4" class="st7" width="5.3" height="2.7"/>
				<rect x="347.4" y="100" class="st8" width="5.3" height="2.7"/>
				<rect x="347.4" y="104.5" class="st9" width="5.3" height="2.7"/>
				<rect x="347.4" y="109.1" class="st7" width="5.3" height="2.7"/>
			</g>
			<g>
				<rect x="354.7" y="113.4" class="st7" width="5.3" height="2.7"/>
				<rect x="354.7" y="95.7" class="st8" width="5.3" height="2.7"/>
				<rect x="354.7" y="100" class="st9" width="5.3" height="2.7"/>
				<rect x="354.7" y="104.5" class="st7" width="5.3" height="2.7"/>
				<rect x="354.7" y="109.1" class="st7" width="5.3" height="2.7"/>
			</g>
			<g>
				<rect x="361.8" y="113.4" class="st7" width="5.3" height="2.7"/>
				<rect x="361.8" y="104.5" class="st8" width="5.3" height="2.7"/>
				<rect x="361.8" y="109.1" class="st9" width="5.3" height="2.7"/>
			</g>
			<rect x="369.1" y="109.1" class="st9" width="5.3" height="2.7"/>
			<rect x="376.3" y="113.4" class="st7" width="5.3" height="2.7"/>
		</g>
	</g>
	<g>
		<path class="st2" d="M422.9,181.8v46.1c0,0.8,0.7,1.7,1.7,1.7h46.1c0.8,0,1.7-0.7,1.7-1.7v-46.1c0-0.8-0.7-1.7-1.7-1.7h-46.1
			C423.6,180.1,422.9,180.9,422.9,181.8z"/>
		<g>
			<rect x="427.9" y="191.3" class="st7" width="2.7" height="5.3"/>
			<g>
				<g>
					<rect x="427.9" y="220.1" class="st7" width="2.7" height="5.3"/>
					<rect x="454.6" y="220.1" class="st8" width="2.7" height="5.3"/>
					<rect x="450.3" y="220.1" class="st8" width="2.7" height="5.3"/>
					<rect x="445.8" y="220.1" class="st9" width="2.7" height="5.3"/>
					<rect x="441.2" y="220.1" class="st7" width="2.7" height="5.3"/>
					<rect x="436.9" y="220.1" class="st7" width="2.7" height="5.3"/>
					<rect x="432.3" y="220.1" class="st7" width="2.7" height="5.3"/>
				</g>
				<g>
					<rect x="427.9" y="212.9" class="st7" width="2.7" height="5.3"/>
					<rect x="441.2" y="212.9" class="st8" width="2.7" height="5.3"/>
					<rect x="436.9" y="212.9" class="st9" width="2.7" height="5.3"/>
					<rect x="432.3" y="212.9" class="st7" width="2.7" height="5.3"/>
				</g>
				<g>
					<rect x="427.9" y="205.7" class="st7" width="2.7" height="5.3"/>
					<rect x="445.8" y="205.7" class="st8" width="2.7" height="5.3"/>
					<rect x="441.2" y="205.7" class="st9" width="2.7" height="5.3"/>
					<rect x="436.9" y="205.7" class="st7" width="2.7" height="5.3"/>
					<rect x="432.3" y="205.7" class="st7" width="2.7" height="5.3"/>
				</g>
				<g>
					<rect x="427.9" y="198.7" class="st7" width="2.7" height="5.3"/>
					<rect x="436.9" y="198.7" class="st8" width="2.7" height="5.3"/>
					<rect x="432.3" y="198.7" class="st9" width="2.7" height="5.3"/>
				</g>
				<rect x="432.3" y="191.3" class="st9" width="2.7" height="5.3"/>
				<rect x="427.9" y="184.1" class="st7" width="2.7" height="5.3"/>
			</g>
		</g>
	</g>
	<rect x="346.9" y="161.7" class="st7" width="9.2" height="9.4"/>
	<g>
		<polygon class="st11" points="105,443.9 97.7,445.1 94.8,435.3 92.1,426.3 100.4,423.3 102.9,434.2 		"/>
		<polygon class="st12" points="102.9,434.4 94.8,435.4 92.1,426.4 100.4,423.4 		"/>
		<polygon class="st11" points="56.7,446.9 49.4,446.9 48.2,436.7 47.1,427.3 55.8,425.9 56.4,437 		"/>
		<polygon class="st12" points="56.4,437.2 48.2,436.9 47.1,427.4 55.8,426 		"/>
		<path class="st13" d="M66.7,461.6c-1.1-0.9-2.5-1.7-3.9-2.2l0,0c0,0-4.2-4.2-6.3-16.9l-5.6-1.5c-1.9-0.5-4,0.3-5,1.9
			c-0.1,0.2-0.2,0.5-0.3,0.7c-0.3,1.4-0.5,2.7-0.6,4.1c-0.6,4.4-0.1,14-0.1,14h1l0.3-8.8c0.1-3,2.4,0.6,3.1,3.8
			c0.7,3.2,2.1,6.6,8.6,6.8C65.4,463.8,68.6,463.6,66.7,461.6z"/>
		<path class="st13" d="M115.3,460.8c-1.1-0.9-2.5-1.7-3.9-2.2l0,0c0,0-4.2-4.2-6.3-16.9l-5.6-1.5c-1.9-0.5-4,0.3-5,1.9
			c-0.1,0.2-0.2,0.5-0.3,0.7c-0.3,1.4-0.5,2.7-0.6,4.1c-0.6,4.4-0.1,14-0.1,14h1l0.3-8.8c0.1-3,2.4,0.6,3.1,3.8
			c0.7,3.2,2.1,6.6,8.6,6.8C114.1,463,117.3,462.7,115.3,460.8z"/>
		<g>
			<g>
				<path class="st14" d="M103.5,428.7l-11.9,2.1c-12-29.9-20.5-54.7-26.6-75.5c-3.2-11.1-6-21.1-7.9-29.9l0.3,32.5v72.9H45.9
					c-29.3-139.7-8.6-171.4-8.6-171.4l35-5.7c1.4,5.3,2.3,13.9,3,19.7l1.6,11.7l13.7,70.9L103.5,428.7z"/>
			</g>
			<g class="st12">
				<path d="M103.5,428.7l-11.9,2.1c-12-29.9-20.5-54.7-26.6-75.5c-3.2-11.1-6-21.1-7.9-29.9l0.3,32.5v72.9H45.9
					c-29.3-139.7-8.6-171.4-8.6-171.4l35-5.7c1.4,5.3,2.3,13.9,3,19.7l1.6,11.7l13.7,70.9L103.5,428.7z"/>
			</g>
		</g>
		<path class="st15" d="M114.1,219.2l11.8-11.7c0,0,0.5-3.1,1.6-4c1.1-0.9,9.3-3.8,10.3-3.2c1,0.7,2.4,7.2,1,8.5
			c-1.4,1.1-8.8,2.7-9.5,2.6l-12.8,15.2L114.1,219.2z"/>
		<g>
			<path class="st13" d="M71.6,197.9c5.2,2.7,23.2,28.1,25.9,29.3c2.6,1.3,23.1-15.3,23.1-15.3l3.4,5.8c0,0-16.7,23.7-26.2,22.6
				s-27.6-21.2-27.6-21.2L71.6,197.9z"/>
			<path class="st16" d="M71.6,197.9c5.2,2.7,23.2,28.1,25.9,29.3c2.6,1.3,23.1-15.3,23.1-15.3l3.4,5.8c0,0-16.7,23.7-26.2,22.6
				s-27.6-21.2-27.6-21.2L71.6,197.9z"/>
		</g>
		<polygon class="st14" points="119.5,212.6 120.9,211.2 124.6,217.5 123.2,220.1 		"/>
		<path class="st12" d="M77.5,226.5c-4.2-4-7.3-7.4-7.3-7.4l0.3-5l1.6-4.9C72.2,209.3,79.3,215.8,77.5,226.5z"/>
		<path class="st12" d="M65.2,355.3c-3.2-11.1-5.7-21.1-7.7-29.9c0,0,0.2-17.1,2.3-31.1C59.7,294.2,64.8,334.4,65.2,355.3z"/>
		<g>
			<path class="st13" d="M73.3,251.6c1.4-25.2,0.8-39,0.1-46c-0.7-7.3-1.8-7.7-1.8-7.7s-8-0.8-15-0.7c-5.4,0.2-10.8,0.8-16,1.7
				c-5,0.8-10,2.1-14.9,3.5c0.8,2.3,1.6,4.5,2.3,6.6c0.9,2.7,1.7,5.3,2.4,7.7c1.4,4.5,2.4,8.2,3.3,11.7c2.6,10.6,3.2,17.4,3.8,26.3
				c0,0-8.8,23-10.5,39.8l29.2,3.2l4-16.9l4,17.5l16.4-5.7L73.3,251.6z"/>
			<path class="st16" d="M73.3,251.6c1.4-25.2,0.8-39,0.1-46c-0.7-7.3-1.8-7.7-1.8-7.7s-8-0.8-15-0.7c-5.4,0.2-10.8,0.8-16,1.7
				c-5,0.8-10,2.1-14.9,3.5c0.8,2.3,1.6,4.5,2.3,6.6c0.9,2.7,1.7,5.3,2.4,7.7c1.4,4.5,2.4,8.2,3.3,11.7c2.6,10.6,3.2,17.4,3.8,26.3
				c0,0-8.8,23-10.5,39.8l29.2,3.2l4-16.9l4,17.5l16.4-5.7L73.3,251.6z"/>
		</g>
		<path class="st12" d="M35.2,234.6c-0.3-1.9-0.8-4-1.4-6.2c-0.3-1.4-0.8-2.9-1.1-4.5c1.1-3.9,2.3-0.8,2.3-0.8S36,227.8,35.2,234.6z
			"/>
		<polygon class="st14" points="44.8,205.9 59.3,231.9 62.8,204 56.2,212.2 		"/>
		<g>
			<path class="st14" d="M44.5,196.7c-6.5,1.5-8.5,6.8-7.8,11.5l4.7-1.6c0,0,8.7,3,15.2,8.4c0,0,3.5-6.6,7-8.7l4.9,0.6
				C68.5,206.7,60.9,192.8,44.5,196.7z"/>
			<path class="st16" d="M44.5,196.7c-6.5,1.5-8.5,6.8-7.8,11.5l4.7-1.6c0,0,8.7,3,15.2,8.4c0,0,3.5-6.6,7-8.7l4.9,0.6
				C68.5,206.7,60.9,192.8,44.5,196.7z"/>
		</g>
		<path class="st15" d="M56.2,198.7c-0.3-0.2-0.7-0.3-1.1-0.5c-0.8-0.7-1.8-2.2-1.8-6.1c0-1.3,0.1-2.7,0.5-4.5l-10.6-1.9
			c0,0,3.7,7.1,0.6,12.5c-1,0.5-1.6,1.1-1.6,1.9c0.8,6.2,14,12,14,12S62.7,202.3,56.2,198.7z"/>
		<path class="st12" d="M53.7,187.7c-0.2,1.7-0.3,3.2-0.5,4.5c-7.2,0-10.2-6.4-10.2-6.4L53.7,187.7z"/>
		<g>
			<path class="st13" d="M49,152.7c0,0,12.5-1.6,14.8,8.5c2.3,10.1-5.5,15.6-5.5,15.6L49,152.7z"/>
			<path class="st15" d="M47.9,158.1c9.3-0.5,12.5,4.2,13.6,13.7c1.5,11.8-0.7,20.4-12.4,18.6C33.3,187.7,32.5,158.9,47.9,158.1z"/>
			<path class="st17" d="M55.6,171.6c0,0,1.4,2.3,2.9,3.7c0,0-0.7,1.3-2.4,1.1L55.6,171.6z"/>
			<g>
				
					<ellipse transform="matrix(-7.807084e-002 -0.9969 0.9969 -7.807084e-002 -117.8461 233.4682)" class="st13" cx="49" cy="171.2" rx="1.4" ry="0.9"/>
				<path class="st13" d="M48.7,170l1.6-0.8C50.3,169.2,49.6,170.7,48.7,170z"/>
			</g>
			<g>
				
					<ellipse transform="matrix(-7.812770e-002 -0.9969 0.9969 -7.812770e-002 -106.8094 241.8516)" class="st13" cx="58.4" cy="170.3" rx="1.4" ry="0.9"/>
				<path class="st13" d="M58.1,169.1l1.6-0.8C59.7,168.3,59,169.7,58.1,169.1z"/>
			</g>
			<path class="st18" d="M49.5,164.8c0,0-2.6-0.2-3.9,1.6"/>
			<path class="st18" d="M56.1,164c0,0,1.6-0.7,3.7,0.6"/>
			<path class="st13" d="M38.7,174.2c0,0,3.9-7.8,3-13.6c0,0,17.9-8.5,19.8,10.1c0,0,0.9-16.6-15-16c-15.9,0.5-14.5,23.7-6,30.2
				C40.4,184.6,36.3,179,38.7,174.2z"/>
			<path class="st13" d="M50.6,152c0,0,7.6-1.8,9.7,0.1c2.2,1.9-13.2,16.3-21.2,17.6c0,0-2.7,8.9-0.6,13.1c0,0-9-3.2-9.5-16.9
				C28.6,152.1,43.2,147,50.6,152z"/>
			<path class="st15" d="M40.3,176c-0.1-1.5-1.8-3.9-4.6-3.4c-2.9,0.5-3.9,6.4,3.3,7.4C40.1,180.2,40.6,179.1,40.3,176z"/>
			<path class="st13" d="M36.3,157.5c0,0-3.2-8-11.6-7.4c-8.4,0.6-9.7,13.7-5.3,23.5s1.5,12.9,1.5,12.9s4.7-0.6,4.7-9.3
				c0,0,0.5,2.9,0.3,5.6c0,0,3.2-4.5,0.1-12.9s6.6-4.6,6.6-4.6L36.3,157.5z"/>
			<path class="st18" d="M59.7,152.9c0,0-4,12.9-14.8,16.7"/>
			<path class="st18" d="M48.9,179.8c0,0,2.2,2.3,5.3,2.2"/>
			<ellipse class="st19" cx="52.6" cy="172.5" rx="2.1" ry="2.2"/>
			<ellipse class="st19" cx="59.8" cy="172.2" rx="2.1" ry="2.2"/>
			<path class="st19" d="M54.6,172.5c0,0,1-2.3,3.2-0.3"/>
			<path class="st19" d="M50.5,172.5c0,0-11.5-0.3-12.8-0.3"/>
		</g>
		<g>
			<path class="st14" d="M39,226l-0.6,29.2c0,0.7,0.6,1.3,1.3,1.1l19.2-1.5c0.6,0,1-0.6,1.1-1.1l1-29c0-0.7-0.6-1.3-1.3-1.3
				l-19.7,1.3C39.5,224.8,39.1,225.4,39,226z"/>
			<path class="st6" d="M39,226l-0.6,29.2c0,0.7,0.6,1.3,1.3,1.1l19.2-1.5c0.6,0,1-0.6,1.1-1.1l1-29c0-0.7-0.6-1.3-1.3-1.3
				l-19.7,1.3C39.5,224.8,39.1,225.4,39,226z"/>
			<g>
				<path class="st14" d="M39.5,226.7L39,255.9c0,0.7,0.6,1.3,1.3,1.1l19.2-1.5c0.6,0,1-0.6,1.1-1.1l0.9-29c0-0.7-0.6-1.3-1.3-1.3
					l-19.7,1.3C40.1,225.5,39.6,226,39.5,226.7z"/>
				<path class="st20" d="M39.5,226.7L39,255.9c0,0.7,0.6,1.3,1.3,1.1l19.2-1.5c0.6,0,1-0.6,1.1-1.1l0.9-29c0-0.7-0.6-1.3-1.3-1.3
					l-19.7,1.3C40.1,225.5,39.6,226,39.5,226.7z"/>
			</g>
			<path class="st12" d="M52.8,240.5c0,1.6-1.3,2.9-2.9,2.9s-2.9-1.3-2.9-2.9c0-1.6,1.3-2.9,2.9-2.9h0.1c0.2,1.4,1.4,2.3,2.7,2.4
				C52.8,240.3,52.8,240.4,52.8,240.5z"/>
		</g>
		<path class="st15" d="M22.2,249.8l14.1-8.9c0,0,1-3,2.4-3.5c1.3-0.6,9.8-1.7,10.8-0.9c0.8,0.8,0.8,7.6-0.8,8.5
			c-1.6,0.9-9.2,0.8-9.8,0.5L23,257.5L22.2,249.8z"/>
		<g>
			<path class="st13" d="M25.7,202.5c0,0,9.2,13.4,7.9,24.8l-12.3,20.3l8.2-4.2l3.8,7c0,0-9.5,14.5-21.5,11.1S25.7,202.5,25.7,202.5
				z"/>
			<path class="st16" d="M25.7,202.5c0,0,9.2,13.4,7.9,24.8l-12.3,20.3l8.2-4.2l3.8,7c0,0-9.5,14.5-21.5,11.1S25.7,202.5,25.7,202.5
				z"/>
		</g>
		<polygon class="st14" points="28.8,242.9 33.3,251.6 34.5,249.1 30.7,242.1 		"/>
	</g>
</g>
</svg>
