<svg version="1.1" id="Layer_1" xmlns="http://www.w3.org/2000/svg" xmlns:xlink="http://www.w3.org/1999/xlink" x="0px" y="0px"
	 width="100%" viewBox="0 0 384 416" enable-background="new 0 0 384 416" xml:space="preserve">
<path fill="#000000" opacity="1.000000" stroke="none" 
	d="
M252.781387,353.951294 
	C172.936081,384.318420 83.611488,346.723572 51.027088,268.005157 
	C29.560358,216.145157 34.155022,165.416824 65.374802,118.449486 
	C92.248032,78.021149 130.705673,55.113186 179.026627,49.630272 
	C260.150696,40.425243 334.656799,95.003685 350.958954,175.203400 
	C366.260376,250.479965 325.181915,325.473785 252.781387,353.951294 
M143.071701,91.598221 
	C131.377975,97.079262 120.498291,103.879959 111.121117,112.764389 
	C80.860123,141.435226 66.810410,176.488968 70.213966,218.258926 
	C72.279282,243.605301 81.516304,266.249756 97.513405,285.770752 
	C135.781662,332.468933 196.782501,345.957916 251.385559,320.366302 
	C306.983398,294.308472 336.044250,227.411819 317.176453,168.919067 
	C293.549744,95.673210 214.336075,60.210865 143.071701,91.598221 
z"/>
<path fill="#000000" opacity="1.000000" stroke="none" 
	d="
M181.863617,253.000000 
	C181.867920,232.522751 181.843124,212.545410 181.906845,192.568344 
	C181.916519,189.536026 181.368729,187.383163 178.289505,185.706421 
	C172.075562,182.322678 169.303406,174.879303 171.074631,168.107132 
	C172.750748,161.698608 178.296753,157.189941 185.309372,156.765884 
	C188.627472,156.565231 191.966354,156.681274 195.295624,156.697586 
	C206.976028,156.754761 213.248734,162.922043 213.267273,174.547989 
	C213.314529,204.180862 213.384689,233.814362 213.213928,263.446259 
	C213.185852,268.321198 213.619110,270.941772 219.684586,271.003632 
	C227.499420,271.083344 233.244476,278.211212 233.319183,286.155609 
	C233.398529,294.592773 227.861740,301.231873 219.132965,301.917725 
	C211.692062,302.502411 204.129181,302.502136 196.690201,301.898682 
	C187.396439,301.144745 181.929901,294.552246 181.848160,284.963959 
	C181.758759,274.476776 181.850555,263.988037 181.863617,253.000000 
z"/>
<path fill="#000000" opacity="1.000000" stroke="none" 
	d="
M211.027374,125.180824 
	C209.859558,138.103882 202.459381,145.167343 191.265503,144.501373 
	C181.623825,143.927765 174.342468,136.486984 173.825424,126.679482 
	C173.358109,117.815201 180.814148,108.950294 189.713531,107.789238 
	C199.290649,106.539764 208.090546,112.529411 210.351227,121.844482 
	C210.586121,122.812317 210.773224,123.791733 211.027374,125.180824 
z"/>
</svg>