<?xml version="1.0" encoding="utf-8"?>
<!-- Generator: Adobe Illustrator 27.8.1, SVG Export Plug-In . SVG Version: 6.00 Build 0)  -->
<svg version="1.1" xmlns="http://www.w3.org/2000/svg" xmlns:xlink="http://www.w3.org/1999/xlink" x="0px" y="0px"
	 viewBox="0 0 125.4 78.5" style="enable-background:new 0 0 125.4 78.5;" xml:space="preserve">
<style type="text/css">
	.st0{fill:#FCFCFC;}
	.st1{fill-rule:evenodd;clip-rule:evenodd;}
</style>
<g id="stamp_00000070801634015682282850000014599896613351149985_">
</g>
<g id="postage_x5F_paid_00000068663920927086140290000007907227287646933941_">
</g>
<g id="mashul_00000036216442959513901410000006720694585146062267_">
	<rect x="-0.1" y="0" class="st0" width="125.7" height="78.5"/>
	<g id="stamp_00000056407374470627010820000013487478706160114608_">
		<g id="stamp">
			<polygon points="4.6,59.4 3.9,59.4 3.9,51.9 5.8,50.2 6.3,20.7 7.1,19.7 5.6,18.6 5.6,17 7,17 7,17.7 6.3,17.7 6.3,18.3 
				8.1,19.6 7,20.9 6.5,50.5 4.6,52.2 			"/>
			<path d="M17.6,60l-0.5-0.5l0.8-0.7l0.1-5.9l-1.1-1.7v-0.1c0-0.2-0.7-20.6-0.7-25.1c-0.1-3.6-1-6-1-6.1l-0.1-0.2l0.9-1.1v-1h-0.6
				v-0.7h1.3v1.9l-0.8,1c0.2,0.7,0.9,2.9,1,6.1c0.1,4.3,0.7,23.4,0.7,24.9l1.1,1.7l-0.1,6.4L17.6,60z"/>
			<path d="M15.6,60.4l-0.7-0.8c-0.2-0.2-0.5-0.8,0-1.5c0.4-0.5,1.1-1.3,1.3-1.6v-1.7l-1.5-1.2c-0.1-0.1-0.4-0.3-0.5-0.8
				s0-1.2,0.4-1.9l0.5-0.9c0,0,0.3-0.5,0.3-1.3s-0.1-1.2-0.4-1.6l0,0c-0.3-0.4-0.6-0.8-1-1.2l0.4-0.5c0.6,0.5,0.8,0.8,1.2,1.3l0,0
				c0.4,0.6,0.5,1.2,0.5,2c0,0.9-0.4,1.6-0.4,1.6l-0.5,0.8c-0.8,1.3-0.2,1.7-0.1,1.7l0,0l0,0l1.8,1.4v2.3l-0.1,0.1
				c0,0-0.9,1.1-1.4,1.7c-0.2,0.3-0.1,0.5,0,0.6l0,0l0.7,0.8L15.6,60.4z"/>
			<path d="M7.4,60.1H6.7v-0.8c0-0.1,0-0.5,0.5-0.9c0,0,0.1-0.1,0.1-0.2c0,0,0-0.1-0.2-0.3l0,0l-0.6-0.6c0-0.1-0.3-0.5-0.3-1.6
				s0-1.5,0.3-2c0.3-0.5,1-1.3,1.1-1.4l0,0c0.1,0,0.2-0.2,0.2-0.3c0-0.1-0.1-0.2-0.2-0.2l-0.5-0.3v-4.2c0-0.2,0.1-0.5,0.5-0.7
				c0,0,0.1,0,0.1-0.1l0,0l-0.2-0.1v-2.3c0-0.1,0-0.6,0.6-1c0.2-0.1,0.3-0.3,0.3-0.5S8.2,42.2,8,42.1s-0.5-0.3-0.5-0.8l-0.2-2.6
				c0-0.1-0.1-0.8,0.5-1.4c0.5-0.5,0.4-0.6,0-1c0,0-0.5-0.6-0.4-1.5c0.1-0.4,0.2-0.7,0.4-0.8C7.9,33.8,8,33.8,8,33.5
				c0-0.2,0-0.3-0.1-0.4c-0.1-0.2-0.3-0.4-0.3-0.8v-1.8c0-0.3,0.1-0.8,0.7-1.1c0.2-0.1,0.3-0.2,0.3-0.3c0-0.1,0-0.2-0.1-0.2
				l-0.1-0.1v-3.4c-0.1-0.1-0.2-0.3-0.3-0.6c-0.2-0.7,0.3-2.7,0.8-3.9v-3.6h0.7v3.8v0.1c-0.6,1.3-1,3-0.8,3.5C8.9,25,9,25.2,9,25.2
				v0.1v0.1v3.2c0.2,0.2,0.3,0.5,0.2,0.7c0,0.3-0.2,0.6-0.6,0.9c-0.3,0.2-0.3,0.5-0.3,0.5v1.8c0,0.2,0,0.3,0.1,0.4
				c0.1,0.2,0.3,0.4,0.3,0.8c0,0.5-0.2,0.7-0.3,0.9c-0.1,0.1-0.2,0.3-0.2,0.5C8.1,35.7,8.4,36,8.4,36c0.5,0.6,0.8,1.2-0.1,2
				C7.9,38.3,8,38.8,8,38.8l0,0l0.2,2.6c0,0.1,0.1,0.1,0.1,0.1l0,0c0.6,0.3,0.7,0.8,0.7,1c0,0.4-0.2,0.8-0.5,1.1
				c-0.3,0.2-0.3,0.5-0.3,0.5v1.7c0.2,0.2,0.3,0.5,0.3,0.6c0,0.2-0.2,0.4-0.4,0.6C8,47.1,8,47.1,8,47.1v3.8L8.2,51
				c0.4,0.3,0.5,0.6,0.5,0.8c0,0.5-0.3,0.8-0.4,0.8c-0.2,0.2-0.8,0.9-1,1.2c-0.2,0.4-0.2,0.7-0.2,1.7c0,0.8,0.1,1.1,0.2,1.2l0.6,0.6
				c0.3,0.3,0.4,0.6,0.4,0.8c0,0.3-0.1,0.5-0.4,0.7c-0.2,0.2-0.3,0.4-0.3,0.4L7.4,60.1L7.4,60.1z M7.4,59.4L7.4,59.4L7.4,59.4z"/>
			<path d="M14.3,46.1L14,45.5l1.1-0.5v-1.5l-0.9-0.7v-2.3l0.7-1.6l-0.4-0.8V36l0.5-1l-0.9-1.7l0.5-2V29l-0.3-3v-3.7l-0.7-2l-0.3-1
				c-0.2-0.7,0-1.1,0-1.1l0,0c0.2-0.2,0.2-0.4,0.3-0.5h-0.9V17h1.4l0.1,0.1c0.2,0.2,0.3,0.6-0.3,1.5c0,0-0.1,0.2,0,0.6l0.3,1
				l0.7,2.1v3.8l0.3,3v2.4l-0.4,1.8l0.9,1.7l-0.6,1.2v1.6l0.5,0.9l-0.8,1.8v1.9l0.9,0.7v2.3L14.3,46.1z"/>
			<rect x="11.3" y="19.9" width="2.7" height="0.7"/>
			<path d="M12.7,59.7l-3.3-0.9l1.1-0.4c0,0,1.2-0.4,1.8-1l0.1-0.1c0.2-0.2,0.4-0.4,0.5-0.6c0.1-0.3,0.1-0.8,0.1-1.2
				c-0.1-0.5-0.5-0.9-1.3-1.2c-0.9-0.4-2.1-0.4-2.8,0.3C8.5,55,8.6,55.8,9,56.2c0.3,0.4,0.9,0.6,1.4,0.6l0,0c0.2,0,0.6-0.1,0.8-0.3
				c0.1-0.1,0.1-0.2,0.1-0.3c0-0.3-0.4-0.5-0.7-0.7l0.3-0.6c0.3,0.2,1.1,0.5,1.1,1.3c0,0.3-0.1,0.5-0.3,0.8
				c-0.3,0.3-0.9,0.5-1.3,0.5c-0.7,0-1.5-0.3-1.9-0.8c-0.6-0.6-0.7-1.9,0-2.5c1-1,2.5-0.9,3.6-0.5c1,0.4,1.6,1,1.7,1.7
				c0,0.2,0.1,1-0.1,1.6c-0.1,0.4-0.4,0.6-0.7,0.8l-0.1,0.1c-0.3,0.3-0.7,0.5-1.1,0.7l1.2,0.3L12.7,59.7z"/>
			<path d="M13.3,54.7l-0.7-0.1c0.1-0.6-0.1-1.3-0.5-1.7c-0.1-0.1-0.3-0.3-0.5-0.4c-0.1,0-0.2-0.1-0.3-0.1c-0.2-0.1-0.5-0.2-0.7-0.4
				c-0.4-0.3-0.6-0.7-0.6-1.2c0-0.1,0-1,0.8-1.8c0.4-0.5,1-0.6,1.5-0.5c0.3,0.1,0.5,0.2,0.8,0.4l0.1,0.1c0.1,0.1,0.3,0.3,0.4,0.4
				c0.3,0.3,0.3,0.7,0,1.1c-0.2,0.3-0.4,0.6-0.6,0.9L12.4,51c0.2-0.4,0.4-0.7,0.6-1c0.1-0.2,0.1-0.2,0-0.3c-0.1-0.1-0.2-0.2-0.4-0.3
				c0,0-0.1-0.1-0.2-0.1c-0.2-0.1-0.3-0.2-0.5-0.3c-0.4-0.1-0.7,0.2-0.8,0.3c-0.6,0.6-0.6,1.3-0.6,1.3l0,0c0,0.3,0.2,0.5,0.3,0.7
				c0.1,0.1,0.3,0.2,0.5,0.3c0.1,0,0.2,0.1,0.4,0.2s0.5,0.3,0.6,0.5C13.2,53.1,13.4,53.9,13.3,54.7z"/>
			<path d="M10.3,51.3c-0.2,0-0.5-0.1-0.7-0.2C9,50.7,9,49.8,9,49.3c0.1-0.6,0.4-1.2,1-1.6c1-0.8,3.3-2,3.3-2
				c0.3-0.1,0.4-0.3,0.5-0.5c0.2-0.6-0.5-1.3-1-1.6c-0.7-0.5-1.4-1-2-1.6c-0.7-0.8-0.5-1.8,0-2.5c0.6-0.7,1.6-1.2,2.6-0.7
				c0.1,0.1,0.3,0.2,0.4,0.3c0.5,0.5,0.8,1,0.8,1.6v0.4h-0.4c-0.3,0-0.6,0-0.9,0c-0.2,0-0.3,0-0.5,0v-0.7c0.1,0,0.3,0,0.5,0
				s0.4,0,0.6,0c-0.1-0.3-0.2-0.5-0.5-0.7c-0.1-0.1-0.2-0.1-0.3-0.2c-0.6-0.4-1.4,0-1.7,0.5c-0.3,0.4-0.5,1.1,0,1.6
				c0.5,0.6,1.2,1,1.9,1.5c0.8,0.5,1.5,1.4,1.2,2.4c-0.1,0.5-0.5,0.7-0.8,0.8c0,0-2.2,1.2-3.2,1.9c-0.4,0.3-0.6,0.7-0.7,1.1
				c0,0.2-0.1,0.9,0.3,1.2c0.1,0.1,0.3,0.1,0.4,0.1l0.1,0.7C10.5,51.3,10.4,51.3,10.3,51.3z"/>
			<path d="M10.1,48c-0.2-0.4-0.4-1.3,0.5-1.8c0.8-0.5,0.8-1.2,0.8-1.4c0-0.1-0.1-0.7-0.7-0.7c-0.2,0-0.4,0-0.5,0.2s-0.1,0.5,0,1
				l-0.7,0.2c-0.2-0.7-0.2-1.2,0.1-1.6c0.2-0.2,0.5-0.5,1.1-0.5c0.9,0,1.4,0.8,1.4,1.3c0,0.3,0,1.3-1.1,2c-0.5,0.3-0.3,0.8-0.2,0.9
				L10.1,48z"/>
			<path d="M10.6,41.1c-0.4,0-0.8-0.2-1.1-0.5c-0.6-0.8,0-1.8,0.4-2.4l0.1-0.1c0.4-0.7,1.1-1.7,2.2-2c0.7-0.2,1.6-0.2,2.1,0.5
				c0.2,0.3,0.4,0.2,0.4,0.2l0.2,0.7c-0.3,0.1-0.8,0.1-1.2-0.5c-0.3-0.4-0.9-0.4-1.3-0.2c-0.6,0.2-1.2,0.7-1.8,1.7l-0.1,0.1
				c-0.4,0.6-0.8,1.2-0.5,1.6c0.1,0.2,0.4,0.2,0.6,0.2L10.6,41.1L10.6,41.1z"/>
			<path d="M12.1,36.6c-0.2-0.3-0.7-1.3-1.3-1.5c-0.4-0.1-0.6-0.1-0.7,0c-0.1,0.1-0.1,0.4,0.1,0.7l-0.6,0.3c-0.4-0.8-0.1-1.3,0-1.5
				c0.3-0.3,0.9-0.4,1.5-0.1c1,0.4,1.6,1.8,1.7,1.9L12.1,36.6z"/>
			<path d="M13.7,36.4H13v-1.9l-3.1-2.4l0,0c-0.1-0.1-0.5-0.5-0.5-1c0-0.3,0.1-0.9,1-1.6l1.5-1.2H14l1.2,0.8l-0.4,0.6L13.7,29H12
				l-1.3,1C10,30.6,10,31,10,31.1s0.2,0.4,0.3,0.5l3.3,2.5L13.7,36.4L13.7,36.4z"/>
			<path d="M11.6,28.7c0,0-0.3-0.6-0.3-1.4c-0.3,0-0.7,0-1.1,0.2l0,0c0,0-0.1,0-0.1,0.1s0,0.3,0.1,0.4l-0.6,0.3
				c-0.2-0.4-0.2-0.7-0.1-1c0.1-0.4,0.5-0.5,0.5-0.5c0.9-0.3,1.7-0.3,1.7-0.2H12v0.3c-0.1,0.7,0.2,1.4,0.2,1.4L11.6,28.7z"/>
			<rect x="13" y="33.3" transform="matrix(0.8674 -0.4976 0.4976 0.8674 -14.8983 11.3404)" width="1.7" height="0.7"/>
			<path d="M11.8,33.1l-0.6-0.3l0.3,0.2l-0.3-0.2c0,0,0.3-0.5,0.1-1.2c-0.1-0.4-0.2-0.8,0-1.1c0.2-0.3,0.5-0.4,0.8-0.5
				c0.4-0.1,1-0.2,1.5,0.1c0.2,0.2,0.3,0.4,0.3,0.7v0.9h-0.7v-0.9c0-0.1,0-0.1,0-0.1c-0.1-0.1-0.4-0.1-0.9,0
				c-0.3,0.1-0.4,0.1-0.4,0.1s0,0.1,0.1,0.5C12.2,32.3,11.8,33,11.8,33.1z"/>
			<polygon points="14.6,26.4 12.1,25.8 9.5,23.2 11.3,21.1 11.8,21.5 10.4,23.1 12.5,25.2 14.7,25.7 			"/>
			<path d="M11.9,24.8l-0.7-0.2c0,0,0.1-0.6,0.1-1.9v-0.3h2.4v1.7H13v-1h-1.1C12,24.2,11.9,24.8,11.9,24.8z"/>
			<circle cx="4.9" cy="59.3" r="1"/>
			<circle cx="9.4" cy="17.4" r="1"/>
			<polygon points="107.5,59.4 106.8,59.4 106.8,51.9 108.7,50.2 109.2,20.7 110,19.7 108.5,18.6 108.5,17 109.8,17 109.8,17.7 
				109.1,17.7 109.1,18.3 111,19.6 109.9,20.9 109.4,50.5 107.5,52.2 			"/>
			<path d="M120.4,60l-0.5-0.5l0.8-0.7l0.1-5.9l-1.1-1.7v-0.1c0-0.2-0.7-20.6-0.7-25.1c-0.1-3.6-1-6-1-6.1l-0.1-0.2l0.9-1.1v-1h-0.6
				v-0.7h1.3v1.9l-0.8,1c0.2,0.7,0.9,2.9,1,6.1c0.1,4.3,0.7,23.4,0.7,24.9l1.1,1.7l-0.1,6.4L120.4,60z"/>
			<path d="M118.5,60.4l-0.7-0.8c-0.2-0.2-0.5-0.8,0-1.5c0.4-0.5,1.1-1.3,1.3-1.6v-1.7l-1.5-1.2c-0.1-0.1-0.4-0.3-0.5-0.8
				c-0.1-0.5,0-1.2,0.4-1.9L118,50c0,0,0.3-0.5,0.3-1.3s-0.1-1.2-0.4-1.6l0,0c-0.3-0.4-0.6-0.8-1-1.2l0.4-0.5
				c0.6,0.5,0.8,0.8,1.2,1.3l0,0c0.4,0.6,0.5,1.2,0.5,2c0,0.9-0.4,1.6-0.4,1.6l-0.5,0.8c-0.8,1.3-0.2,1.7-0.1,1.7l0,0l0,0l1.8,1.4
				v2.3l-0.1,0.1c0,0-0.9,1.1-1.4,1.7c-0.2,0.3-0.1,0.5,0,0.6l0,0l0.7,0.8L118.5,60.4z"/>
			<path d="M110.3,60.1h-0.7v-0.8c0-0.1,0-0.5,0.5-0.9c0,0,0.1-0.1,0.1-0.2c0,0,0-0.1-0.2-0.3l0,0l-0.6-0.6c0-0.1-0.3-0.5-0.3-1.6
				s0-1.5,0.3-2s1-1.3,1.1-1.4l0,0c0.1,0,0.2-0.2,0.2-0.3c0-0.1-0.1-0.2-0.2-0.2l-0.5-0.3v-4.2c0-0.2,0.1-0.5,0.5-0.7
				c0,0,0.1,0,0.1-0.1l0,0l-0.2-0.1v-2.3c0-0.1,0-0.6,0.6-1c0.2-0.1,0.3-0.3,0.3-0.5s-0.2-0.4-0.4-0.5c-0.2-0.1-0.5-0.3-0.5-0.8
				l-0.2-2.6c0-0.1-0.1-0.8,0.5-1.4c0.5-0.5,0.4-0.6,0-1c0,0-0.5-0.6-0.4-1.5c0.1-0.4,0.2-0.7,0.4-0.8c0.1-0.2,0.2-0.2,0.2-0.5
				c0-0.2,0-0.3-0.1-0.4c-0.1-0.2-0.3-0.4-0.3-0.8v-1.8c0-0.3,0.1-0.8,0.7-1.1c0.2-0.1,0.3-0.2,0.3-0.3c0-0.1,0-0.2-0.1-0.2
				l-0.1-0.1v-3.4c-0.1-0.1-0.2-0.3-0.3-0.6c-0.2-0.7,0.3-2.7,0.8-3.9v-3.6h0.7v3.8v0.1c-0.6,1.3-1,3-0.8,3.5
				c0.1,0.3,0.2,0.5,0.2,0.5v0.1v0.1v3.2c0.2,0.2,0.3,0.5,0.2,0.7c0,0.3-0.2,0.6-0.6,0.9c-0.3,0.2-0.3,0.5-0.3,0.5v1.8
				c0,0.2,0,0.3,0.1,0.4c0.1,0.2,0.3,0.4,0.3,0.8c0,0.5-0.2,0.7-0.3,0.9c-0.1,0.1-0.2,0.3-0.2,0.5c-0.1,0.6,0.2,0.9,0.2,0.9
				c0.5,0.5,0.8,1.2-0.1,2c-0.4,0.3-0.3,0.8-0.3,0.8l0,0l0.2,2.6c0,0.1,0.1,0.1,0.1,0.1l0,0l0,0c0.6,0.3,0.7,0.8,0.7,1
				c0,0.4-0.2,0.8-0.5,1.1c-0.3,0.2-0.3,0.4-0.3,0.5v1.7c0.2,0.2,0.3,0.5,0.3,0.6c0,0.2-0.2,0.4-0.4,0.6c-0.1,0.1-0.1,0.1-0.1,0.1
				v3.8l0.2,0.1c0.4,0.3,0.5,0.6,0.5,0.8c0,0.5-0.3,0.8-0.4,0.8c-0.2,0.2-0.8,0.9-1,1.2c-0.2,0.4-0.2,0.7-0.2,1.7
				c0,0.8,0.1,1.1,0.2,1.2l0.6,0.6c0.3,0.3,0.4,0.6,0.4,0.8c0,0.3-0.1,0.5-0.4,0.7c-0.2,0.2-0.3,0.4-0.3,0.4L110.3,60.1L110.3,60.1z
				 M110.3,59.4L110.3,59.4L110.3,59.4z"/>
			<path d="M117.2,46.1l-0.3-0.6L118,45v-1.5l-0.9-0.7v-2.3l0.7-1.6l-0.4-0.8V36l0.5-1l-0.9-1.7l0.5-2V29l-0.3-3v-3.7l-0.7-2l-0.3-1
				c-0.2-0.7,0-1.1,0-1.1l0,0c0.2-0.2,0.2-0.4,0.3-0.5h-0.9V17h1.4l0.1,0.1c0.2,0.2,0.3,0.6-0.3,1.5c0,0-0.1,0.2,0,0.6l0.3,1
				l0.7,2.1v3.8l0.3,3v2.4l-0.4,1.8l0.9,1.7l-0.6,1.2v1.6l0.5,0.9l-0.8,1.8v1.9l0.9,0.7v2.3L117.2,46.1z"/>
			<rect x="114.1" y="19.9" width="2.7" height="0.7"/>
			<path d="M115.6,59.7l-3.3-0.9l1.1-0.4c0,0,1.2-0.4,1.8-1l0.1-0.1c0.2-0.2,0.4-0.4,0.5-0.6c0.1-0.3,0.1-0.8,0.1-1.2
				c-0.1-0.5-0.5-0.9-1.3-1.2c-0.9-0.4-2.1-0.4-2.8,0.3c-0.4,0.4-0.3,1.2,0.1,1.6c0.3,0.4,0.9,0.6,1.4,0.6l0,0
				c0.2,0,0.6-0.1,0.8-0.3c0.1-0.1,0.1-0.2,0.1-0.3c0-0.3-0.4-0.5-0.7-0.7l0.3-0.6c0.3,0.2,1.1,0.5,1.1,1.3c0,0.3-0.1,0.5-0.3,0.8
				c-0.3,0.3-0.9,0.5-1.3,0.5c-0.7,0-1.5-0.3-1.9-0.8c-0.6-0.6-0.7-1.9,0-2.5c1-1,2.5-0.9,3.6-0.5c1,0.4,1.6,1,1.7,1.7
				c0,0.2,0.1,1-0.1,1.6c-0.1,0.4-0.4,0.6-0.7,0.8l-0.1,0.1c-0.3,0.3-0.7,0.5-1.1,0.7l1.2,0.3L115.6,59.7z"/>
			<path d="M116.2,54.7l-0.7-0.1c0.1-0.6-0.1-1.3-0.5-1.7c-0.1-0.1-0.3-0.3-0.5-0.4c-0.1,0-0.2-0.1-0.3-0.1
				c-0.2-0.1-0.5-0.2-0.7-0.4c-0.4-0.3-0.6-0.7-0.6-1.2c0-0.1,0-1,0.8-1.8c0.4-0.5,1-0.6,1.5-0.5c0.3,0.1,0.5,0.2,0.8,0.4l0.1,0.1
				c0.1,0.1,0.3,0.3,0.4,0.4c0.3,0.3,0.3,0.7,0,1.1c-0.2,0.3-0.4,0.6-0.6,0.9l-0.6-0.4c0.2-0.3,0.4-0.7,0.6-1c0.1-0.2,0.1-0.2,0-0.3
				c-0.1-0.1-0.2-0.2-0.4-0.3c0,0-0.1-0.1-0.2-0.1c-0.2-0.1-0.3-0.2-0.5-0.3c-0.4-0.1-0.7,0.2-0.8,0.3c-0.6,0.6-0.6,1.3-0.6,1.3l0,0
				c0,0.3,0.2,0.5,0.3,0.7c0.1,0.1,0.3,0.2,0.5,0.3c0.1,0,0.2,0.1,0.4,0.2c0.2,0.1,0.5,0.3,0.6,0.5C116,53.1,116.3,53.9,116.2,54.7z
				"/>
			<path d="M113.2,51.3c-0.2,0-0.5-0.1-0.7-0.2c-0.6-0.4-0.6-1.3-0.6-1.8c0.1-0.6,0.4-1.2,1-1.6c1-0.8,3.3-2,3.3-2
				c0.3-0.1,0.4-0.3,0.5-0.5c0.2-0.6-0.5-1.3-1-1.6c-0.7-0.5-1.4-1-2-1.6c-0.7-0.8-0.5-1.8,0-2.5c0.6-0.7,1.6-1.2,2.6-0.7
				c0.1,0.1,0.3,0.2,0.4,0.3c0.5,0.5,0.8,1,0.8,1.6v0.4h-0.4c-0.3,0-0.6,0-0.9,0c-0.2,0-0.3,0-0.5,0v-0.7c0.1,0,0.3,0,0.5,0
				c0.2,0,0.4,0,0.6,0c-0.1-0.3-0.2-0.5-0.5-0.7c-0.1-0.1-0.2-0.1-0.3-0.2c-0.6-0.4-1.4,0-1.7,0.5c-0.3,0.4-0.5,1.1,0,1.6
				c0.5,0.6,1.2,1,1.9,1.5c0.8,0.5,1.5,1.4,1.2,2.4c-0.1,0.5-0.5,0.7-0.8,0.8c0,0-2.2,1.2-3.2,1.9c-0.4,0.3-0.6,0.7-0.7,1.1
				c0,0.2-0.1,0.9,0.3,1.2c0.1,0.1,0.3,0.1,0.4,0.1l0.1,0.7C113.4,51.3,113.3,51.3,113.2,51.3z"/>
			<path d="M113,48c-0.2-0.4-0.4-1.3,0.5-1.8c0.8-0.5,0.8-1.2,0.8-1.4c0-0.1-0.1-0.7-0.7-0.7c-0.2,0-0.4,0-0.5,0.2
				c-0.1,0.2-0.1,0.5,0,1l-0.7,0.2c-0.2-0.7-0.2-1.2,0.1-1.6c0.2-0.2,0.5-0.5,1.1-0.5c0.9,0,1.4,0.8,1.4,1.3c0,0.3,0,1.3-1.1,2
				c-0.5,0.3-0.3,0.8-0.2,0.9L113,48z"/>
			<path d="M113.4,41.1c-0.4,0-0.8-0.2-1.1-0.5c-0.6-0.8,0-1.8,0.4-2.4l0.1-0.1c0.4-0.7,1.1-1.7,2.2-2c0.7-0.2,1.6-0.2,2.1,0.5
				c0.2,0.2,0.4,0.2,0.4,0.2l0.2,0.7c-0.3,0.1-0.8,0.1-1.2-0.5c-0.3-0.4-0.9-0.4-1.3-0.2c-0.6,0.2-1.2,0.7-1.8,1.7l-0.1,0.1
				c-0.4,0.6-0.8,1.2-0.5,1.6c0.1,0.2,0.4,0.2,0.6,0.2L113.4,41.1C113.5,41.1,113.5,41.1,113.4,41.1z"/>
			<path d="M115,36.6c-0.2-0.3-0.7-1.3-1.3-1.5c-0.4-0.1-0.6-0.1-0.7,0c-0.1,0.1-0.1,0.4,0.1,0.7l-0.6,0.3c-0.4-0.8-0.1-1.3,0-1.5
				c0.3-0.3,0.9-0.4,1.5-0.1c1,0.4,1.6,1.8,1.7,1.9L115,36.6z"/>
			<path d="M116.5,36.4h-0.7v-1.9l-3.1-2.4l0,0c-0.1-0.1-0.5-0.5-0.5-1c0-0.3,0.1-0.9,1-1.6l1.5-1.2h2.1l1.2,0.8l-0.4,0.6l-1.1-0.7
				h-1.7l-1.3,1c-0.7,0.6-0.7,1-0.7,1.1s0.2,0.4,0.3,0.5l3.3,2.5L116.5,36.4L116.5,36.4z"/>
			<path d="M114.5,28.7c0,0-0.3-0.6-0.3-1.4c-0.3,0-0.7,0-1.1,0.2l0,0c0,0-0.1,0-0.1,0.1s0,0.3,0.1,0.4l-0.6,0.3
				c-0.2-0.4-0.2-0.7-0.1-1c0.1-0.4,0.5-0.5,0.5-0.5c0.9-0.3,1.7-0.3,1.7-0.2h0.3v0.3c-0.1,0.7,0.2,1.4,0.2,1.4L114.5,28.7z"/>
			<rect x="115.8" y="33.3" transform="matrix(0.8674 -0.4976 0.4976 0.8674 -1.2791 62.5151)" width="1.7" height="0.7"/>
			<path d="M114.7,33.1l-0.6-0.3l0.3,0.2l-0.3-0.2c0,0,0.3-0.5,0.1-1.2c-0.1-0.4-0.2-0.8,0-1.1c0.2-0.3,0.5-0.4,0.8-0.5
				c0.4-0.1,1-0.2,1.5,0.1c0.2,0.2,0.3,0.4,0.3,0.7v0.9h-0.7v-0.9c0-0.1,0-0.1,0-0.1c-0.1-0.1-0.4-0.1-0.9,0
				c-0.3,0.1-0.4,0.1-0.4,0.1s0,0.1,0.1,0.5C115.1,32.3,114.7,33,114.7,33.1z"/>
			<polygon points="117.4,26.4 115,25.8 112.4,23.2 114.1,21.1 114.7,21.5 113.3,23.1 115.4,25.2 117.6,25.7 			"/>
			<path d="M114.7,24.8l-0.7-0.2c0,0,0.1-0.6,0.1-1.9v-0.3h2.4v1.7h-0.7v-1h-1.1C114.9,24.2,114.7,24.8,114.7,24.8z"/>
			<circle cx="107.8" cy="59.3" r="1"/>
			<circle cx="112.3" cy="17.4" r="1"/>
			<polygon points="0,76 0,77.2 1.1,77.2 1.1,78.5 2.3,78.5 2.3,77 3.4,75.9 2.7,75 1.7,76 			"/>
			<polygon points="122.9,78.4 124.2,78.4 124.2,77.3 125.4,77.3 125.4,76.1 124,76.1 122.8,75 121.9,75.7 122.9,76.7 			"/>
			<polygon points="2.4,0.1 1.2,0.1 1.2,1.2 0,1.2 0,2.4 1.4,2.4 2.6,3.5 3.5,2.8 2.4,1.8 			"/>
			<polygon points="125.3,2.5 125.3,1.2 124.2,1.2 124.2,0 123.1,0 123.1,1.4 121.9,2.6 122.7,3.5 123.6,2.5 			"/>
			<path d="M117,2.3c-2.1,0-3.5-0.7-4.1-1c-0.6,0.4-2.1,1-4.2,1c-2.1,0-3.5-0.7-4.1-1c-0.6,0.4-2.1,1-4.2,1c-2.1,0-3.5-0.7-4.1-1
				c-0.6,0.4-2.1,1-4.2,1c-2.1,0-3.5-0.7-4.1-1c-0.6,0.4-2.1,1-4.2,1c-2.1,0-3.5-0.7-4.1-1c-0.6,0.4-2.1,1-4.2,1
				c-2.1,0-3.5-0.7-4.1-1c-0.6,0.4-2.1,1-4.2,1c-2.1,0-3.5-0.7-4.1-1c-0.6,0.4-2.1,1-4.2,1c-2.1,0-3.5-0.7-4.1-1
				c-0.6,0.4-2.1,1-4.2,1c-2.1,0-3.5-0.7-4.1-1c-0.6,0.4-2.1,1-4.2,1c-2.1,0-3.5-0.7-4.1-1c-0.6,0.4-2.1,1-4.2,1
				c-2.1,0-3.5-0.7-4.1-1c-0.6,0.4-2.1,1-4.2,1c-2.1,0-3.5-0.7-4.1-1c-0.6,0.4-2.1,1-4.2,1c-2.1,0-3.5-0.7-4.1-1
				c-0.6,0.4-2.1,1-4.2,1C6.2,2.3,4.7,1,4.6,1l0.7-0.8c0,0,1.3,1.1,3.8,1.1s3.9-1,3.9-1l0.3-0.2l0.3,0.2c0,0,1.3,1,3.8,1
				s3.9-1,3.9-1l0.3-0.2l0.3,0.2c0,0,1.3,1,3.8,1s3.9-1,3.9-1l0.3-0.2l0.3,0.2c0,0,1.3,1,3.8,1s3.9-1,3.9-1l0.3-0.2l0.3,0.2
				c0,0,1.3,1,3.8,1c2.5,0,3.9-1,3.9-1l0.3-0.2l0.3,0.2c0,0,1.3,1,3.8,1c2.5,0,3.9-1,3.9-1l0.3-0.2l0.3,0.2c0,0,1.3,1,3.8,1
				c2.5,0,3.9-1,3.9-1l0.3-0.2l0.3,0.2c0,0,1.3,1,3.8,1s3.9-1,3.9-1l0.3-0.2l0.3,0.2c0,0,1.3,1,3.8,1s3.9-1,3.9-1l0.3-0.2L80,0.3
				c0,0,1.3,1,3.8,1c2.5,0,3.9-1,3.9-1L88,0.1l0.3,0.2c0,0,1.3,1,3.8,1c2.5,0,3.9-1,3.9-1l0.3-0.2l0.3,0.2c0,0,1.3,1,3.8,1
				c2.5,0,3.9-1,3.9-1l0.3-0.2l0.3,0.2c0,0,1.3,1,3.8,1c2.5,0,3.9-1,3.9-1l0.3-0.2l0.3,0.2c0,0,1.3,1,3.8,1c2.5,0,3.9-1,3.9-1
				l0.6,0.8C121.5,1.1,119.8,2.3,117,2.3z"/>
			<path d="M1.1,74.4l-0.8-0.6c0,0,1.2-1.6,1.2-4.1s-1.1-4-1.2-4l-0.2-0.3l0.2-0.3c0,0,1.2-1.6,1.2-4.1s-1.1-4-1.2-4l-0.2-0.3
				l0.2-0.3c0,0,1.2-1.6,1.2-4.1s-1.1-4-1.2-4L0.1,48l0.2-0.3c0,0,1.2-1.6,1.2-4.1s-1.1-4-1.2-4l-0.2-0.3L0.3,39
				c0,0,1.2-1.6,1.2-4.1s-1.1-4-1.2-4l-0.2-0.3l0.2-0.3c0,0,1.2-1.6,1.2-4.1s-1.1-4-1.2-4l-0.2-0.3l0.2-0.3c0,0,1.2-1.6,1.2-4.1
				s-1.1-4-1.2-4l-0.2-0.3l0.2-0.3c0,0,1.2-1.6,1.2-4.1s-1.2-4-1.2-4l0.8-0.7c0.1,0.1,1.4,1.8,1.4,4.6c0,2.2-0.8,3.8-1.2,4.4
				c0.4,0.6,1.2,2.1,1.2,4.3c0,2.2-0.8,3.8-1.2,4.4c0.4,0.6,1.2,2.1,1.2,4.3c0,2.2-0.8,3.8-1.2,4.4c0.4,0.6,1.2,2.1,1.2,4.3
				c0,2.2-0.8,3.8-1.2,4.4c0.4,0.6,1.2,2.1,1.2,4.3c0,2.2-0.8,3.8-1.2,4.4c0.4,0.6,1.2,2.1,1.2,4.3c0,2.2-0.8,3.8-1.2,4.4
				c0.4,0.6,1.2,2.1,1.2,4.3s-0.8,3.8-1.2,4.4c0.4,0.6,1.2,2.1,1.2,4.3C2.4,72.6,1.1,74.4,1.1,74.4z"/>
			<circle cx="8.2" cy="0.6" r="0.6"/>
			<circle cx="16.6" cy="0.6" r="0.6"/>
			<circle cx="25" cy="0.6" r="0.6"/>
			<circle cx="33.4" cy="0.6" r="0.6"/>
			<circle cx="41.7" cy="0.6" r="0.6"/>
			<circle cx="50.1" cy="0.6" r="0.6"/>
			<circle cx="58.5" cy="0.6" r="0.6"/>
			<circle cx="66.8" cy="0.6" r="0.6"/>
			<circle cx="75.2" cy="0.6" r="0.6"/>
			<circle cx="83.7" cy="0.6" r="0.6"/>
			<circle cx="91.9" cy="0.6" r="0.6"/>
			<circle cx="100.4" cy="0.6" r="0.6"/>
			<circle cx="108.8" cy="0.6" r="0.6"/>
			<circle cx="117.2" cy="0.6" r="0.6"/>
			<path d="M112.9,78.5l-0.3-0.2c0,0-1.5-1-3.9-1c-2.5,0-3.8,1-3.8,1l-0.3,0.2l-0.3-0.2c0,0-1.5-1-3.9-1c-2.5,0-3.8,1-3.8,1
				l-0.3,0.2L96,78.3c0,0-1.5-1-3.9-1c-2.5,0-3.8,1-3.8,1L88,78.5l-0.3-0.2c0,0-1.5-1-3.9-1c-2.5,0-3.8,1-3.8,1l-0.3,0.2l-0.3-0.2
				c0,0-1.5-1-3.9-1c-2.5,0-3.8,1-3.8,1l-0.3,0.2l-0.3-0.2c0,0-1.5-1-3.9-1c-2.5,0-3.8,1-3.8,1l-0.3,0.2l-0.3-0.2c0,0-1.5-1-3.9-1
				c-2.5,0-3.8,1-3.8,1l-0.3,0.2l-0.3-0.2c0,0-1.5-1-3.9-1c-2.5,0-3.8,1-3.8,1l-0.3,0.2l-0.3-0.2c0,0-1.5-1-3.9-1
				c-2.5,0-3.8,1-3.8,1l-0.3,0.2l-0.3-0.2c0,0-1.5-1-3.9-1c-2.5,0-3.8,1-3.8,1l-0.3,0.2l-0.3-0.2c0,0-1.5-1-3.9-1
				c-2.5,0-3.8,1-3.8,1l-0.3,0.2l-0.3-0.2c0,0-1.5-1-3.9-1c-2.5,0-3.8,1-3.8,1l-0.3,0.2L13,78.3c0,0-1.5-1-3.9-1s-3.8,1.1-3.8,1.1
				l-0.7-0.8c0.1,0,1.6-1.3,4.5-1.3c2.2,0,3.6,0.7,4.2,1c0.6-0.4,2-1,4.1-1c2.2,0,3.6,0.7,4.2,1c0.6-0.4,2-1,4.1-1
				c2.2,0,3.6,0.7,4.2,1c0.6-0.4,2-1,4.1-1c2.2,0,3.6,0.7,4.2,1c0.6-0.4,2-1,4.1-1c2.2,0,3.6,0.7,4.2,1c0.6-0.4,2-1,4.1-1
				c2.2,0,3.6,0.7,4.2,1c0.6-0.4,2-1,4.1-1c2.2,0,3.6,0.7,4.2,1c0.6-0.4,2-1,4.1-1c2.2,0,3.6,0.7,4.2,1c0.6-0.4,2-1,4.1-1
				c2.2,0,3.6,0.7,4.2,1c0.6-0.4,2-1,4.1-1c2.2,0,3.6,0.7,4.2,1c0.6-0.4,2-1,4.1-1c2.2,0,3.6,0.7,4.2,1c0.6-0.4,2-1,4.1-1
				c2.2,0,3.6,0.7,4.2,1c0.6-0.4,2-1,4.1-1c2.2,0,3.6,0.7,4.2,1c0.6-0.4,2-1,4.1-1c2.8,0,4.5,1.2,4.6,1.3l-0.6,0.8c0,0-1.5-1-3.9-1
				c-2.5,0-3.8,1-3.8,1L112.9,78.5z"/>
			<circle cx="8.2" cy="77.9" r="0.6"/>
			<circle cx="0.7" cy="69.9" r="0.6"/>
			<circle cx="0.7" cy="61.1" r="0.6"/>
			<circle cx="0.7" cy="52.4" r="0.6"/>
			<circle cx="0.7" cy="43.6" r="0.6"/>
			<circle cx="0.7" cy="34.9" r="0.6"/>
			<circle cx="0.7" cy="26.2" r="0.6"/>
			<circle cx="0.7" cy="17.4" r="0.6"/>
			<circle cx="0.7" cy="8.6" r="0.6"/>
			<path d="M124.4,74.2c-0.1-0.1-1.4-1.9-1.4-4.7c0-2.2,0.8-3.7,1.2-4.3c-0.4-0.6-1.2-2.2-1.2-4.4c0-2.2,0.8-3.7,1.2-4.3
				c-0.4-0.6-1.2-2.2-1.2-4.4c0-2.2,0.8-3.7,1.2-4.3c-0.4-0.6-1.2-2.2-1.2-4.4c0-2.2,0.8-3.7,1.2-4.3c-0.4-0.6-1.2-2.2-1.2-4.4
				c0-2.2,0.8-3.7,1.2-4.3c-0.4-0.6-1.2-2.2-1.2-4.4c0-2.2,0.8-3.7,1.2-4.3c-0.4-0.6-1.2-2.2-1.2-4.4c0-2.2,0.8-3.7,1.2-4.3
				c-0.4-0.6-1.2-2.2-1.2-4.4c0-2.8,1.4-4.6,1.4-4.6l0.8,0.7c0,0-1.2,1.5-1.2,4s1.2,4.1,1.2,4.1l0.2,0.3l-0.2,0.3c0,0-1.2,1.5-1.2,4
				s1.2,4.1,1.2,4.1l0.2,0.3l-0.2,0.3c0,0-1.2,1.5-1.2,4s1.2,4.1,1.2,4.1l0.2,0.3l-0.2,0.3c0,0-1.2,1.5-1.2,4s1.2,4.1,1.2,4.1
				l0.2,0.3l-0.2,0.3c0,0-1.2,1.5-1.2,4s1.2,4.1,1.2,4.1l0.2,0.3l-0.2,0.3c0,0-1.2,1.5-1.2,4s1.2,4.1,1.2,4.1l0.2,0.3l-0.2,0.3
				c0,0-1.2,1.5-1.2,4s1.2,4.1,1.2,4.1l0.2,0.3l-0.2,0.3c0,0-1.2,1.5-1.2,4s1.2,4.1,1.2,4.1L124.4,74.2z"/>
			<circle cx="124.8" cy="69.6" r="0.6"/>
			<circle cx="124.8" cy="60.8" r="0.6"/>
			<circle cx="124.8" cy="52.1" r="0.6"/>
			<circle cx="124.8" cy="43.4" r="0.6"/>
			<circle cx="124.8" cy="34.6" r="0.6"/>
			<circle cx="124.8" cy="25.9" r="0.6"/>
			<circle cx="124.8" cy="17.1" r="0.6"/>
			<circle cx="124.8" cy="8.3" r="0.6"/>
			<circle cx="16.6" cy="77.9" r="0.6"/>
			<circle cx="25" cy="77.9" r="0.6"/>
			<circle cx="33.4" cy="77.9" r="0.6"/>
			<circle cx="41.7" cy="77.9" r="0.6"/>
			<circle cx="50.1" cy="77.9" r="0.6"/>
			<circle cx="58.5" cy="77.9" r="0.6"/>
			<circle cx="66.8" cy="77.9" r="0.6"/>
			<circle cx="75.2" cy="77.9" r="0.6"/>
			<circle cx="83.7" cy="77.9" r="0.6"/>
			<circle cx="91.9" cy="77.9" r="0.6"/>
			<circle cx="100.4" cy="77.9" r="0.6"/>
			<circle cx="108.8" cy="77.9" r="0.6"/>
			<circle cx="117.2" cy="77.9" r="0.6"/>
			<g id="bangladesh_x5F_bangla">
				<path d="M34,8.3c0-0.1,0.1-0.1,0.2-0.1c0.1,0,0.1-0.1,0.2-0.2c0.2-0.1,0.3-0.2,0.5-0.4c0.1-0.1,0.3-0.2,0.4-0.3
					c0.1-0.1,0.3-0.2,0.4-0.3l0,0l0,0c-0.2-0.3-0.5-0.6-0.7-0.9H16.8C16.1,6.1,16,6.5,16,7s0.7,0.7,0.7,0.7s5.2,0,5.8,0
					s0.8,0,0.8,0.4S23,8.6,23,8.6l-4.9,0.9c-1.7,0.2-1.6,0.6-1.6,0.6l0.2,0.8c0.2,0.9,0.8,0.9,0.8,0.9c2.7-0.1,5.3,0.6,7.7,1.8
					c0.9,0.4,1.8,1,2.6,1.5c0,0,0.1,0,0.1,0.1H28c0.2,0,0.4,0,0.6,0c0-1.8,0-3.5,0-5.3c0-0.4,0-0.8,0-1.2c0-0.3,0.3-0.8,1.6-0.8
					s1.3,0.8,1.3,0.8c0,1.4,0,2.7,0,4.1v0.1c0,0,0,0.1,0.1,0.1c0.4,0.3,0.7,0.6,1.1,0.9c0.3,0.2,0.6,0.6,0.9,0.8
					c0.1,0.1,0.3,0,0.5,0l0,0l0,0c0-0.1,0.1-0.6-0.1-0.7c0,0-0.1,0-0.2,0c-0.1,0-0.1,0-0.1-0.1c0,0,0,0,0-0.1c0-1.3,0-2.5,0-3.8
					C34,9.3,34,8.8,34,8.3L34,8.3z M26,12.4c-1-0.2-1.8-0.8-2.8-1.1c-0.3-0.1-0.6-0.1-0.8-0.4c0,0,0-0.1-0.1-0.1
					c0-0.1-0.1-0.1-0.1-0.2c0-0.1,0-0.2,0.1-0.2c0.1-0.1,0.2-0.2,0.3-0.3c0.2-0.1,0.4-0.2,0.7-0.2c0.8-0.2,1.6-0.2,2.4-0.2
					c0.4,0,0.9,0.1,1,0.5c0.1,0.3,0.1,0.6,0.1,0.9c0,0.3,0,0.6,0,1c0,0.3-0.2,0.4-0.6,0.4C26.2,12.4,26.1,12.4,26,12.4z"/>
				<path d="M44.8,6.9c-0.1-0.2-0.2-0.3-0.3-0.5c-1.2-1.4-3.1-1.5-4.8-1c-0.6,0.2-1.2,0.5-1.6,0.9S37.2,7.4,37.3,8
					c0.1,0.8,0.6,1.5,1.3,1.9c0.8,0.6,1.8,0.8,2.7,0.6c1-0.1,1.8-0.7,2.6-1.4c0.4-0.3,0.7-0.7,1-1.1C45.1,7.8,45,7.3,44.8,6.9z
					 M42.7,8.1c0,0.5-0.3,0.9-0.8,1.1c-0.5,0.2-1.2,0.1-1.7-0.1c-0.4-0.2-0.7-0.5-0.7-1c-0.1-0.6,0.3-1.1,0.8-1.4
					c0.6-0.3,1.3-0.2,1.9,0.2C42.5,7.2,42.7,7.6,42.7,8.1z"/>
				<path d="M40.6,12.2c0.1,0,0.3,0,0.5,0c0.4,0,0.8,0,1.2,0c0.9,0,1.8-0.1,2.7,0.1c1.5,0.3,2.8,1.4,3.7,2.5c0,0,0.2,0.4,0,0.8
					c-0.1,0.1-0.5,0-0.6,0c-0.4-0.1-0.7-0.5-1-0.7c-0.8-0.5-1.7-0.7-2.7-0.6c-0.8,0-1.6,0-2.4,0.5c-0.5,0.3-0.9,0.1-1.2-0.4
					l-0.7-1.1C40.1,13.2,39.7,12.5,40.6,12.2z"/>
				<path d="M48.7,5.8h22.7c0,0,0.9,0.1,0.9,1c0,0,0.1,0.6-0.9,0.6h-1.3c0,0-0.9-0.1-1.3,0.5c0,0-0.3,0.2-0.3,1.9v4.1
					c0,0,0,0.8-0.2,1.1c0,0-0.5,0.3-1.2-0.4L66,13.5c0,0-0.3-0.1-0.3-0.9V8.5c0,0-0.1-0.9-1.3-0.9c0,0-1.2-0.3-1.2,1.4v4.4h0.2V15
					c0,0-2.2-0.1-2.6-1.5v-1.6c0,0,0-0.4-0.4-0.6c0,0-0.7-1-2.1,0c0,0-0.9,0.7-2.4,0c0,0-1.5-1.3-3.2-1.3c-1.7,0-2.1,0.6-2.1,1.4
					s0.8,1.4,1.7,1.4c0.9,0,1.3-0.6,1.3-0.6s0.4-0.4,1.2-0.4s1.5,0.5,1.8,1c0.4,0.5,0.6,0.9,0.6,1.3c0,0.5-0.1,0.9-0.7,0.9
					c-0.6,0-2,0-2,0s-2.3-0.2-4.1-1.8c0,0-1.7-1.4-1.8-2.6c0-1.2,1.8-2.1,1.8-2.1s2.2-1.2,4.5,0l0.9,0.4c0,0,0.8,0.5,1.4,0
					c0.6-0.5,2.7-0.5,3.7,0V7.5H48.7c0,0-1.1,0.2-1.1-0.8C47.4,5.8,48.7,5.8,48.7,5.8z"/>
				<path d="M79,8.5c0,0.1-0.1,0.1-0.2,0.2c-0.2,0.2-0.4,0.3-0.6,0.4c-0.1,0-0.9,0.5-0.9,0.5c-2,1.2-1.6,2.3-1.6,2.3
					C75.8,13.1,77,13,77,13c0.2-0.4,0.5-0.6,0.8-0.9c0.6-0.4,1.2-0.7,1.8-0.3c0.6,0.3,0.9,0.9,1.3,1.4c0.6,0.8-0.4,1.5-1,1.8
					c-0.8,0.4-1.6,0.2-2.4-0.1c-0.9-0.2-1.7-0.6-2.5-0.9c-0.6-0.2-1.1-0.5-1.4-1c-0.3-0.5-0.4-1-0.4-1.6c0-0.9,0.6-1.8,0.6-1.8
					l0.9-1c0.2-0.6,0-0.8,0-0.8c-0.8-0.1-0.8-0.9-0.8-0.9c0-1,1.3-1.2,1.3-1.2h16.1c0,0,0.6,0.2,0.6,0.9s-0.8,0.8-0.8,0.8h-6.8
					c0,0-0.7,0.4-0.7,1.3c0,0,0.2,1.1,1.1,1c0,0,0.7,0,1.4-0.9l0.5-0.5c0,0,0.2-0.3,0.6-0.3c0,0,0.5,0,0.9,0.4l1.5,1
					c0,0,0.4,0.1,0.4,0.8c0,0,0.1,0.3-0.4,0.8l-0.3,0.3c0,0-0.2,0.2-0.2,0.8s0.7,1.3,2.4,2.1l0.7,0.3c0,0,0.2,0.2,0.2,0.5
					c0,0.4-0.4,0.6-1,0.6c-0.6,0-2.7-0.7-3.9-2.4c-0.3-0.5-0.1-1.1-0.3-1.6c-0.1-0.3-0.5-0.4-0.8-0.4c-0.3,0-0.4,0.2-0.6,0.4
					c-0.3,0.4-0.6,0.8-0.8,1.2c-0.1,0.3-0.2,0.8-0.6,0.8c-0.5,0-1-0.6-1.4-0.9c-0.3-0.2-0.5-0.5-0.8-0.7c-0.2-0.2-0.6-0.5-0.8-0.8
					c-0.3-0.5,0-1.1,0-1.7c0-0.2-0.2-0.4-0.3-0.6c-0.1-0.2-0.2-0.4-0.3-0.6c-0.1-0.2-0.2-0.6-0.4-0.7c-0.3-0.1-0.7-0.1-0.9,0h-0.1
					c0,0,0,0-0.1,0.1C79.3,8,79.2,8.2,79,8.5z"/>
				<path d="M93.3,7.5l0.8-1c0,0,0.4-0.7,1.4-0.7c1,0,1.4,0.3,2.3,1.2c0,0,0.7,0.9,1.6,0.9c1,0,2.1-1.1,2.1-1.1s0.6-0.6,1.3-0.6
					c0.7,0,1.1,0.5,1.1,0.5s0.3,0.4,0.7,0.4s1.1-0.8,1.1-0.8S106,6,106.5,6s0.8,0.5,0.8,0.5c0.2-0.1,0.4-0.2,0.6-0.3
					c0.2-0.1,0.4-0.2,0.6-0.1c0.3,0.1,0.5,0.2,0.8,0.3c0,0,0.1,0,0.1,0.1v0.1c0,0.1,0,0.2,0,0.3s0,0.2,0,0.2c0,0.1-0.1,0.1-0.1,0.1
					c-0.4,0.4-0.9,0.7-1.4,1.1l-0.1,0.1v0.1c0,1.3,0,2.6,0,4c0,0.4,0,0.8,0,1.2l0,0l0,0c0.1,0,0.2,0,0.3,0l0,0l0,0
					c0,0.3,0,0.6,0,0.8s0,0.3,0,0.5c0,0.1,0,0.2,0,0.4c-0.1,0-0.3-0.1-0.4-0.2c-0.1-0.1-0.3-0.1-0.4-0.2c-0.1-0.1-0.3-0.1-0.4-0.2
					l0,0c-0.4-0.2-0.8-0.4-1-0.7c-0.1-0.1-0.2-0.3-0.2-0.4c0-1.3,0-2.6,0-3.9V9.7c0-0.1-0.3-0.3-0.5-0.4c-0.2-0.1-0.4-0.2-0.6-0.3
					c-0.4-0.2-0.9-0.3-1.3-0.3c-1.5,0-2.3,0.8-2.3,1.5c0,0,0.1,0.8,0.8,0.8s0.8-0.2,0.8-0.2s0.5,0.2,0.5,0.9s-0.8,1.5-1.7,1.5
					c0,0-1.1,0.1-2.1-1.1c0,0-1.5,1.3-2.4,1.3c0,0-1.6,0.1-2-1.5c0,0,0-0.4,0.2-0.7c0,0,1.4-0.3,2.1-0.7c0,0,0.5-0.3,0.5-1.1
					c0,0,0.1-0.6-0.8-1.2c0,0-0.4-0.4-1.1-0.4c0,0-0.7-0.1-1.1,0.3c0,0-0.4,0.4-0.8,0.4s-0.6-0.2-0.6-0.6C93,7.8,93.3,7.5,93.3,7.5z
					"/>
			</g>
			<g>
				<path d="M24.7,69.5c0,0.7-0.2,1.3-0.7,1.8s-1.2,0.8-1.9,0.8c-0.3,0-0.7,0-1.3,0s-1,0-1.3,0c-0.2,0-0.5,0-1,0c-0.4,0-0.8,0-1,0
					c-0.1,0-0.2,0-0.2-0.1c0-0.4,0-1.1,0.1-2s0.1-1.5,0.1-2s0-1.1-0.1-2.1s-0.1-1.6-0.1-2.1c0-0.1,0.1-0.1,0.2-0.1c0.4,0,1,0,1.8,0
					s1.4,0,1.8,0c1,0,1.7,0.2,2.3,0.5c0.7,0.4,1,1,1,1.7c0,0.3-0.1,0.6-0.3,0.8c-0.2,0.3-0.4,0.5-0.7,0.7c-0.1,0.1-0.2,0.1-0.2,0.1
					s0.1,0.1,0.2,0.1c0.3,0.2,0.6,0.4,0.8,0.7C24.6,68.8,24.7,69.1,24.7,69.5z M22.8,66.1c0-0.6-0.3-0.9-0.9-1.1
					c-0.3-0.1-0.9-0.2-1.7-0.2s-1.2,0-1.2,0.1s0,0.3,0,0.6c0,0.3,0,0.5,0,0.6s0,0.2,0,0.4c0,0.2,0,0.3,0,0.4s0.5,0.2,1.6,0.2
					C22,67.1,22.8,66.8,22.8,66.1z M22.9,69.4c0-0.5-0.2-0.8-0.8-1c-0.3-0.1-0.8-0.2-1.5-0.2c-1.2,0-1.7,0-1.7,0.2v1
					c0,0.1,0,0.4,0,0.7s0,0.5,0,0.7c0,0,0.1,0.1,0.4,0.1s0.7,0,1.3,0c0.7,0,1.2-0.1,1.6-0.2C22.7,70.4,22.9,70,22.9,69.4z"/>
				<path d="M35.6,64.6L35.6,64.6c-0.2,1.4-0.4,2.5-0.4,3.4c0,0,0.1,1.3,0.2,3.7v0.1c0,0.2-0.1,0.2-0.3,0.2s-0.4,0-0.8,0
					c-0.4,0-0.6,0-0.8,0c-0.1,0-0.2-0.2-0.3-0.6c-0.1-0.4-0.1-0.6-0.2-0.6c0,0-0.2,0.1-0.5,0.3c-0.4,0.3-0.7,0.5-1.1,0.6
					c-0.5,0.2-1,0.3-1.5,0.3c-1.2,0-2.3-0.4-3.1-1.3c-0.8-0.8-1.2-1.8-1.2-2.9c0-1.2,0.4-2.2,1.2-3s2-1.2,3.3-1.2
					c1,0,1.8,0.3,2.6,0.9c0.1,0.1,0.3,0.3,0.5,0.5c0,0,0,0,0.1,0c0,0,0.1-0.2,0.2-0.5c0.1-0.3,0.2-0.5,0.3-0.5c0.2,0,0.5,0,1,0.1
					C35.3,64.4,35.6,64.5,35.6,64.6z M33.1,68c0-0.7-0.2-1.3-0.7-1.7c-0.5-0.5-1.1-0.8-1.9-0.8s-1.4,0.3-1.9,0.8s-0.7,1.1-0.7,1.7
					c0,0.7,0.2,1.2,0.7,1.7s1.1,0.8,1.9,0.8c0.8,0,1.4-0.3,1.9-0.8C32.9,69.3,33.1,68.7,33.1,68z"/>
				<path d="M45.7,71.9c0,0.1-0.1,0.2-0.2,0.2c-0.2,0-0.5,0-0.9,0s-0.7,0-0.9,0c-0.1,0-0.2-0.1-0.2-0.2c0-0.3,0-0.7,0-1.2
					c0-0.6,0-1,0-1.2s0-0.6,0-1s0-0.8,0-1c0-0.6-0.1-1.1-0.3-1.3c-0.3-0.3-0.7-0.5-1.4-0.5c-0.3,0-0.8,0.2-1.3,0.5
					c-0.6,0.3-0.9,0.6-0.9,0.9v5c0,0.1-0.1,0.2-0.2,0.2c-0.2,0-0.5,0-0.9,0s-0.7,0-0.9,0c-0.1,0-0.2-0.1-0.2-0.2c0-0.4,0-1.1,0-2
					s0-1.5,0-2c0-1.2-0.1-2.3-0.4-3.3v-0.1c0,0,0-0.1,0.1-0.1c0,0,0.4-0.1,1.1-0.1c0.7-0.1,1-0.1,1.1-0.1c0.1,0,0.1,0,0.1,0.1
					c0,0.3,0.1,0.7,0.2,1c0.3-0.2,0.8-0.5,1.3-0.8c0.7-0.4,1.3-0.5,1.9-0.5c1.2,0,2,0.3,2.5,0.9c0.3,0.4,0.5,1.2,0.5,2.1
					c0,0.2,0,0.4,0,0.8s0,0.6,0,0.8c0,0.4,0,0.9,0,1.6C45.7,71,45.7,71.5,45.7,71.9z"/>
				<path d="M55.9,71.8c0,0.1,0,0.1-0.2,0.1c-0.1,0-0.2-0.1-0.5-0.2c-0.3-0.1-0.4-0.2-0.5-0.2c-0.8,0.5-1.8,0.7-3,0.7
					c-1.3,0-2.5-0.4-3.3-1.3c-0.8-0.8-1.2-1.8-1.2-3s0.4-2.2,1.2-3.1c0.9-0.9,2-1.3,3.3-1.3c0.7,0,1.4,0.1,2,0.4
					c0.7,0.3,1.2,0.7,1.6,1.2c0.1,0.1,0.1,0.1,0.1,0.2c0,0-0.2,0.2-0.5,0.6c-0.3,0.3-0.5,0.5-0.6,0.5c0,0-0.2-0.1-0.4-0.4
					c-0.3-0.3-0.6-0.5-0.8-0.7c-0.4-0.2-0.8-0.4-1.3-0.4c-0.9,0-1.6,0.3-2.1,0.9c-0.5,0.6-0.8,1.2-0.8,2s0.3,1.4,0.8,2
					c0.6,0.6,1.3,0.9,2.1,0.9s1.6-0.2,2.3-0.6c0-0.1,0-0.5-0.1-1.1c0-0.5-0.1-0.8-0.1-1.1c0-0.1,0-0.1,0.1-0.1c0.1,0,0.2,0,0.4,0
					s0.3,0,0.4,0c0.1,0,0.2,0,0.4,0s0.3,0,0.4,0c0.1,0,0.1,0.1,0.1,0.2s0,0.3,0,0.6s0,0.5,0,0.6C55.7,69.9,55.8,70.7,55.9,71.8
					L55.9,71.8z"/>
				<path d="M63.6,70.8c0,0.6,0,0.9-0.1,1.2c0,0.1-0.1,0.2-0.2,0.2c-0.3,0-0.8,0-1.5,0c-0.7,0-1.2,0-1.5,0c-0.3,0-0.8,0-1.4,0
					c-0.6,0-1.1,0-1.4,0c-0.1,0-0.2,0-0.2-0.1c0-0.4,0-1.1,0-2s0-1.5,0-2s0-1.1-0.1-2.1c0-0.9-0.1-1.6-0.1-2.1
					c0-0.1,0.1-0.1,0.2-0.1c0.1,0,0.2,0,0.4,0s0.3,0,0.4,0c0.1,0,0.2,0,0.4,0s0.3,0,0.4,0c0.1,0,0.2,0,0.2,0.1c0,0.4,0,1,0,1.9
					c0,0.8,0,1.5,0,1.9c0,0.2,0,0.5,0,0.9s0,0.7,0,0.9c0,0.9,0,1.3,0.1,1.3c1.7,0,3,0,3.8-0.1c0,0,0.1,0,0.3,0
					C63.4,70.7,63.5,70.7,63.6,70.8C63.5,70.6,63.6,70.7,63.6,70.8z"/>
				<path d="M74,64.6L74,64.6c-0.2,1.4-0.4,2.5-0.4,3.4c0,0,0.1,1.3,0.2,3.7v0.1c0,0.2-0.1,0.2-0.3,0.2c-0.2,0-0.4,0-0.8,0
					c-0.4,0-0.6,0-0.8,0c-0.1,0-0.2-0.2-0.3-0.6s-0.1-0.6-0.2-0.6c0,0-0.2,0.1-0.5,0.3c-0.4,0.3-0.7,0.5-1.1,0.6
					c-0.5,0.2-1,0.3-1.5,0.3c-1.2,0-2.3-0.4-3.1-1.3c-0.8-0.8-1.2-1.8-1.2-2.9c0-1.2,0.4-2.2,1.2-3s2-1.2,3.3-1.2
					c1,0,1.8,0.3,2.6,0.9c0.1,0.1,0.3,0.3,0.5,0.5c0,0,0,0,0.1,0c0,0,0.1-0.2,0.2-0.5c0.1-0.3,0.2-0.5,0.3-0.5c0.2,0,0.5,0,1,0.1
					C73.8,64.4,74,64.5,74,64.6z M71.6,68c0-0.7-0.2-1.3-0.7-1.7c-0.5-0.5-1.1-0.8-1.9-0.8c-0.8,0-1.4,0.3-1.9,0.8
					c-0.5,0.5-0.7,1.1-0.7,1.7c0,0.7,0.2,1.2,0.7,1.7c0.5,0.5,1.1,0.8,1.9,0.8c0.8,0,1.4-0.3,1.9-0.8C71.4,69.3,71.6,68.7,71.6,68z"
					/>
				<path d="M84,67.8c0,1.1-0.4,2.1-1.1,2.9c-0.8,0.9-1.8,1.3-3.1,1.3c-0.2,0-0.6,0-1.1,0s-0.8,0-1.1,0c-0.2,0-0.5,0-1,0
					c-0.4,0-0.8,0-1,0c-0.1,0-0.2,0-0.2-0.1c0-0.4,0-1.1,0.1-2s0.1-1.5,0.1-2s0-1.1,0-2.1c0-0.9,0-1.6,0-2.1c0-0.1,0.1-0.1,0.2-0.1
					c0.2,0,0.4,0,0.8,0c0.3,0,0.6,0,0.8,0c0.2,0,0.4,0,0.7,0c0.3,0,0.6,0,0.7,0c1.6,0,2.8,0.3,3.6,0.8c0.6,0.4,1,0.9,1.3,1.5
					C83.8,66.6,84,67.2,84,67.8z M82.3,67.8c0-0.8-0.3-1.6-0.8-2.1c-0.6-0.6-1.4-0.8-2.4-0.8c-0.8,0-1.1,0-1,0
					c-0.5,0-0.8,0.1-0.8,0.3c0,0.3,0,0.8,0,1.4s0,1.1,0,1.4s0,0.8,0,1.4s0,1.1,0,1.4c0,0.1,0.3,0.2,0.8,0.3c-0.1,0,0.3,0,1,0
					c0.5,0,0.9,0,1.3-0.1c0.4-0.1,0.7-0.3,1-0.7C82,69.5,82.3,68.7,82.3,67.8z"/>
				<path d="M91.7,70.9c0,0.1,0,0.2,0,0.3c0,0.1-0.1,0.2-0.1,0.3c0,0.1,0,0.3-0.1,0.6c0,0.1-0.1,0.1-0.2,0.1c0,0-0.1,0-0.3,0
					c-0.6-0.1-1.4-0.1-2.6-0.1c-0.3,0-0.8,0-1.5,0c-0.7,0-1.2,0-1.5,0c-0.1,0-0.2-0.1-0.2-0.2c0-0.4,0-1.1,0.1-2
					c0.1-0.9,0.1-1.6,0.1-2c0-0.5,0-1.3-0.1-2.5c0-0.3,0-0.8-0.1-1.4v-0.1c0-0.1,0-0.1,0.2-0.1c0.3,0,0.8,0,1.4,0c0.6,0,1.1,0,1.4,0
					c0.3,0,0.8,0,1.4,0c0.6,0,1.1,0,1.4,0c0.2,0,0.3,0.1,0.3,0.2c0.1,0.5,0.1,0.8,0.1,1c0,0.1,0,0.1-0.1,0.1c-0.4,0-1,0-1.8-0.1
					c-0.8,0-1.4-0.1-1.8-0.1c-0.4,0-0.6,0-0.7,0.1c-0.1,0.1-0.1,0.3-0.1,0.7v0.9c0,0.2,0,0.4,0,0.4c0,0.1,0.2,0.2,0.4,0.2
					c0,0,0.1,0,0.2,0c0.1,0,0.2,0,0.2,0c0.9,0,1.7,0,2.4,0c0.3,0,0.6,0,1-0.1c0.1,0,0.1,0,0.1,0.1s0,0.3,0,0.6c0,0.3,0,0.5,0,0.6
					s-0.1,0.1-0.2,0.1c0,0-0.3,0-0.6,0c-0.3,0-0.8,0-1.7,0c-0.8,0-1.2,0-1.4,0c-0.2,0-0.3,0.1-0.3,0.2c0,0,0,0.1,0,0.5v0.9
					c0,0.4,0.1,0.7,0.2,0.8c0.1,0.1,0.4,0.1,0.9,0.1h0.8c0.3,0,1.2,0,2.7-0.1H91.7C91.7,70.7,91.7,70.8,91.7,70.9z"/>
				<path d="M98.4,64.3c-0.1,0.1-0.2,0.3-0.4,0.6c0,0.1-0.1,0.3-0.3,0.5h-0.1c0,0-0.2-0.1-0.7-0.2c-0.4-0.1-0.8-0.2-1.1-0.2
					c-0.8,0-1.3,0.3-1.3,1c0,0.4,0.3,0.7,0.9,0.9c1,0.4,1.5,0.7,1.6,0.8c0.6,0.4,0.9,1,0.9,1.6c0,0.9-0.4,1.6-1.2,2.1
					c-0.7,0.5-1.6,0.7-2.7,0.7c-0.5,0-0.8,0-0.8-0.1s-0.1-0.4-0.1-0.7c0-0.1-0.1-0.3-0.2-0.5v-0.1c0,0,0-0.1,0.1-0.1s0.3,0,0.5,0
					c0.2,0,0.4,0,0.5,0c1.4,0,2.1-0.4,2.1-1.2c0-0.4-0.3-0.7-0.9-1c-1-0.5-1.6-0.8-1.6-0.8c-0.6-0.4-0.9-0.9-0.9-1.6
					s0.3-1.3,0.8-1.8c0.5-0.4,1.3-0.6,2.1-0.6c0.4,0,0.8,0,1.3,0.2C97.7,63.9,98.1,64.1,98.4,64.3L98.4,64.3z"/>
				<path d="M108.3,71.9c0,0.1-0.1,0.1-0.2,0.1c-0.1,0-0.2,0-0.4,0c-0.2,0-0.3,0-0.4,0c-0.1,0-0.2,0-0.4,0c-0.2,0-0.3,0-0.4,0
					c-0.1,0-0.2,0-0.2-0.1c0-0.4,0-0.9,0-1.6s0-1.2,0-1.6c0-0.1,0-0.2-0.2-0.3c-0.1,0-0.9,0-2.4,0c-1.4,0-2.2,0-2.4,0
					c-0.1,0-0.1,0.1-0.1,0.3c0,0.3,0,0.9,0,1.6s0,1.2,0,1.6c0,0.1-0.1,0.2-0.2,0.2c-0.1,0-0.2,0-0.4,0s-0.3,0-0.4,0
					c-0.1,0-0.2,0-0.4,0c-0.2,0-0.3,0-0.4,0c-0.1,0-0.2,0-0.2-0.1c0-0.4,0-1.1,0.1-2c0-0.9,0.1-1.5,0.1-2s0-1.1-0.1-2.1
					c0-0.9-0.1-1.6-0.1-2.1c0-0.1,0.1-0.1,0.2-0.1c0.1,0,0.2,0,0.4,0c0.2,0,0.3,0,0.4,0c0.1,0,0.2,0,0.4,0s0.3,0,0.4,0
					c0.1,0,0.2,0,0.2,0.1c0,0.3,0,0.8,0,1.5s0,1.2,0,1.5c0,0.1,0,0.2,0.1,0.2s0.9,0,2.4,0s2.3,0,2.4,0c0.1,0,0.2-0.1,0.2-0.3
					c0-0.3,0-0.8,0-1.5s0-1.2,0-1.5c0-0.1,0-0.1,0.2-0.1c0.1,0,0.2,0,0.4,0c0.2,0,0.3,0,0.4,0c0.1,0,0.2,0,0.4,0c0.2,0,0.3,0,0.4,0
					c0.1,0,0.2,0,0.2,0.1c0,0.5,0,1.1-0.1,2.1s-0.1,1.6-0.1,2.1c0,0.4,0,1.1,0.1,2S108.3,71.5,108.3,71.9z"/>
			</g>
			<path class="st1" d="M23.7,28.5c-0.4,0-0.9,0-1.3,0c-0.1,0-0.1,0-0.2,0c-0.2,0-0.3-0.2-0.4-0.4c0-0.3,0.2-0.6,0.4-0.7
				s0.5-0.1,0.7,0c0.5,0,1-0.1,1.4-0.5c0.1-0.1,0.1-0.1,0.2-0.2c0.1-0.3,0-0.7,0-1s0-0.6-0.1-0.8c-0.1-0.2-0.2-0.4-0.4-0.5
				c-0.1-0.1-0.3-0.1-0.4-0.1c-0.5,0-0.9,0.3-1.2,0.8c-0.2,0.4-0.4,0.9-0.7,1.2c-0.3,0.2-0.4-0.1-0.4-0.4c-0.2-1.2,0.5-2.4,1.4-3.1
				c0.5-0.4,1.1-0.3,1.8,0c0.6,0.3,0.9,0.9,1.1,1.5c0.2,0.6,0.1,1.2,0.1,1.9c0,0.4,0,0.8,0.3,1c0.3,0.4,0.8,0.4,1.3,0.4
				c0.4,0,0.9,0,1.3,0c0.3,0,0.6,0.1,0.7,0.5c0,0.4-0.3,0.6-0.7,0.6c-0.6,0-1.3,0-1.9,0c-0.2,0-0.4,0.1-0.6,0.2
				c-0.1,0.1-0.3,0.2-0.3,0.3c0,0.1,0,0.2,0,0.3c0,0.7-0.1,1.4-0.1,2.1s0,1.5,0,2.2c0,0.4,0,0.7,0,1.1c0,0.3,0,0.6,0.2,0.9
				c0.5,0.8,1.7,0.6,2.2-0.1c0.4-0.5,0.5-1.2,0.6-1.9c0-0.5-0.1-1-0.5-1.3c-0.2-0.1-0.3-0.2-0.5-0.2c-0.2-0.1-0.3-0.2-0.4-0.4
				c0-0.2,0.1-0.4,0.3-0.6s0.5-0.3,0.8-0.4c0.1,0,0.2-0.1,0.3-0.1c0.2,0,0.4,0.1,0.5,0.2c0.4,0.4,0.5,1.1,0.5,1.7c0,1,0.1,2.1-0.3,3
				c-0.3,0.6-0.7,1.2-1.3,1.5c-0.7,0.4-1.6,0.5-2.4,0.2c-0.6-0.3-0.9-0.9-1.1-1.5c-0.2-0.6-0.2-1.2-0.1-1.8c0-0.6,0-1.2,0-1.8
				c0-1,0-1.9,0-2.9c0-0.2,0-0.4-0.1-0.5C24.3,28.6,24,28.5,23.7,28.5z"/>
		</g>
	</g>
	<g id="postage_x5F_paid_00000106106336399447395980000016184510291212505216_">
		<g id="postage_x5F_paid">
			<g>
				<path d="M36,60.4v-6.9h2.5c0.4,0,0.8,0,1,0.1c0.3,0.1,0.6,0.2,0.8,0.3c0.2,0.2,0.4,0.4,0.5,0.7c0.1,0.3,0.2,0.6,0.2,0.9
					c0,0.6-0.2,1.1-0.5,1.5c-0.4,0.4-1,0.6-1.9,0.6h-1.7v2.8H36L36,60.4z M36.9,56.8h1.7c0.6,0,1-0.1,1.2-0.3
					c0.2-0.2,0.4-0.5,0.4-0.9c0-0.3-0.1-0.5-0.2-0.7c-0.1-0.2-0.3-0.3-0.6-0.4c-0.1,0-0.4-0.1-0.8-0.1h-1.7L36.9,56.8L36.9,56.8z"/>
				<path d="M41.7,57.9c0-0.9,0.2-1.6,0.7-2.1c0.4-0.4,0.9-0.6,1.5-0.6c0.7,0,1.2,0.2,1.6,0.7c0.4,0.5,0.6,1.1,0.6,1.9
					c0,0.6-0.1,1.1-0.3,1.5S45.3,60,45,60.2c-0.4,0.2-0.7,0.3-1.2,0.3c-0.7,0-1.2-0.2-1.6-0.7C41.9,59.4,41.7,58.8,41.7,57.9z
					 M42.6,57.9c0,0.6,0.1,1.1,0.4,1.4c0.3,0.3,0.6,0.5,1,0.5s0.7-0.2,1-0.5c0.3-0.3,0.4-0.8,0.4-1.5c0-0.6-0.1-1.1-0.4-1.4
					c-0.3-0.3-0.6-0.5-1-0.5s-0.7,0.2-1,0.5C42.7,56.8,42.6,57.3,42.6,57.9z"/>
				<path d="M46.9,58.9l0.8-0.1c0,0.3,0.2,0.6,0.4,0.8c0.2,0.2,0.5,0.3,0.9,0.3s0.7-0.1,0.8-0.2c0.2-0.2,0.3-0.3,0.3-0.6
					c0-0.2-0.1-0.3-0.2-0.5c-0.1-0.1-0.4-0.2-0.8-0.3c-0.6-0.2-1-0.3-1.2-0.4s-0.4-0.3-0.5-0.5c-0.1-0.2-0.2-0.4-0.2-0.7
					c0-0.2,0-0.4,0.1-0.6c0.1-0.2,0.2-0.3,0.4-0.5c0.1-0.1,0.3-0.2,0.5-0.2c0.2-0.1,0.5-0.1,0.7-0.1c0.4,0,0.7,0.1,1,0.2
					c0.3,0.1,0.5,0.3,0.6,0.5c0.1,0.2,0.2,0.5,0.3,0.8L50,56.9c0-0.3-0.1-0.5-0.3-0.6s-0.4-0.2-0.7-0.2c-0.4,0-0.6,0.1-0.8,0.2
					S48,56.6,48,56.8c0,0.1,0,0.2,0.1,0.3c0.1,0.1,0.2,0.2,0.3,0.2c0.1,0,0.3,0.1,0.7,0.2c0.6,0.2,1,0.3,1.2,0.4s0.4,0.2,0.5,0.4
					c0.1,0.2,0.2,0.4,0.2,0.7c0,0.3-0.1,0.5-0.2,0.8c-0.2,0.2-0.4,0.4-0.7,0.6c-0.3,0.1-0.6,0.2-1,0.2c-0.6,0-1.1-0.1-1.4-0.4
					C47.1,59.8,46.9,59.4,46.9,58.9z"/>
				<path d="M53.6,59.7l0.1,0.8c-0.2,0-0.4,0.1-0.6,0.1c-0.3,0-0.5,0-0.7-0.1s-0.3-0.2-0.3-0.4c-0.1-0.2-0.1-0.5-0.1-1v-2.9h-0.6
					v-0.7H52v-1.2l0.8-0.5v1.7h0.8v0.7h-0.8v2.9c0,0.2,0,0.4,0,0.5s0.1,0.1,0.1,0.2c0.1,0,0.2,0.1,0.3,0.1
					C53.3,59.7,53.4,59.7,53.6,59.7z"/>
				<path d="M57.5,59.8c-0.3,0.3-0.6,0.5-0.9,0.6c-0.3,0.1-0.6,0.2-0.9,0.2c-0.5,0-0.9-0.1-1.2-0.4c-0.3-0.3-0.4-0.6-0.4-1
					c0-0.2,0-0.5,0.2-0.7s0.2-0.4,0.4-0.5s0.4-0.2,0.6-0.3c0.2,0,0.4-0.1,0.7-0.1c0.7-0.1,1.1-0.2,1.5-0.3c0-0.1,0-0.2,0-0.2
					c0-0.3-0.1-0.6-0.2-0.7c-0.2-0.2-0.5-0.3-0.9-0.3s-0.7,0.1-0.8,0.2c-0.2,0.1-0.3,0.4-0.4,0.7l-0.8-0.1c0.1-0.4,0.2-0.6,0.4-0.9
					c0.2-0.2,0.4-0.4,0.7-0.5c0.3-0.1,0.7-0.2,1.1-0.2c0.4,0,0.7,0,1,0.1c0.3,0.1,0.4,0.2,0.6,0.4c0.1,0.2,0.2,0.3,0.3,0.6
					c0,0.1,0,0.4,0,0.8v1.1c0,0.8,0,1.3,0,1.5s0.1,0.4,0.2,0.6h-0.8C57.6,60.2,57.5,60,57.5,59.8z M57.4,57.9
					c-0.3,0.1-0.7,0.2-1.3,0.3c-0.3,0-0.6,0.1-0.7,0.2c-0.1,0.1-0.2,0.2-0.3,0.3C55,58.8,55,59,55,59.1c0,0.2,0.1,0.4,0.2,0.6
					c0.1,0.2,0.4,0.2,0.7,0.2c0.3,0,0.6-0.1,0.8-0.2s0.4-0.3,0.5-0.6c0.1-0.2,0.1-0.5,0.1-0.8v-0.4H57.4z"/>
				<path d="M59.4,60.8l0.8,0.1c0,0.3,0.1,0.4,0.3,0.6s0.5,0.2,0.8,0.2c0.4,0,0.7-0.1,0.9-0.2c0.2-0.2,0.3-0.4,0.4-0.7
					c0-0.2,0.1-0.5,0.1-1.1c-0.4,0.4-0.8,0.7-1.3,0.7c-0.7,0-1.2-0.2-1.5-0.7c-0.4-0.5-0.5-1.1-0.5-1.8c0-0.5,0.1-0.9,0.2-1.3
					c0.2-0.4,0.4-0.7,0.7-0.9c0.3-0.2,0.7-0.3,1.1-0.3c0.6,0,1,0.2,1.4,0.7v-0.6h0.8v4.3c0,0.8-0.1,1.3-0.2,1.6
					c-0.1,0.3-0.4,0.6-0.7,0.8c-0.3,0.2-0.7,0.3-1.2,0.3c-0.6,0-1-0.1-1.4-0.4C59.5,61.8,59.3,61.4,59.4,60.8z M60,57.8
					c0,0.7,0.1,1.1,0.4,1.4c0.2,0.3,0.6,0.5,0.9,0.5c0.4,0,0.7-0.1,0.9-0.4s0.4-0.8,0.4-1.4s-0.1-1.1-0.4-1.4
					c-0.3-0.3-0.6-0.5-0.9-0.5c-0.4,0-0.7,0.1-0.9,0.5C60.1,56.8,60,57.2,60,57.8z"/>
				<path d="M67.9,58.8l0.8,0.1c-0.1,0.5-0.4,0.9-0.7,1.2c-0.4,0.3-0.8,0.4-1.4,0.4c-0.7,0-1.3-0.2-1.7-0.7s-0.6-1.1-0.6-1.9
					s0.2-1.5,0.6-2c0.4-0.5,0.9-0.7,1.6-0.7c0.6,0,1.2,0.2,1.6,0.7c0.4,0.5,0.6,1.1,0.6,1.9c0,0,0,0.1,0,0.2h-3.6
					c0,0.6,0.2,1,0.4,1.3c0.3,0.3,0.6,0.4,1,0.4c0.3,0,0.6-0.1,0.8-0.2C67.6,59.4,67.8,59.2,67.9,58.8z M65.3,57.4H68
					c0-0.4-0.1-0.7-0.3-0.9c-0.3-0.3-0.6-0.5-1-0.5s-0.7,0.1-0.9,0.4C65.4,56.6,65.3,57,65.3,57.4z"/>
				<path d="M72.5,60.4v-6.9H75c0.4,0,0.8,0,1,0.1c0.3,0.1,0.6,0.2,0.8,0.3c0.2,0.2,0.4,0.4,0.5,0.7c0.1,0.3,0.2,0.6,0.2,0.9
					c0,0.6-0.2,1.1-0.5,1.5c-0.3,0.4-1,0.6-1.9,0.6h-1.7v2.8H72.5L72.5,60.4z M73.3,56.8H75c0.6,0,1-0.1,1.2-0.3
					c0.2-0.2,0.4-0.5,0.4-0.9c0-0.3-0.1-0.5-0.2-0.7c-0.1-0.2-0.3-0.3-0.6-0.4c-0.1,0-0.4-0.1-0.8-0.1h-1.7L73.3,56.8L73.3,56.8z"/>
				<path d="M81.7,59.8c-0.3,0.3-0.6,0.5-0.9,0.6c-0.3,0.1-0.6,0.2-0.9,0.2c-0.5,0-0.9-0.1-1.2-0.4s-0.4-0.6-0.4-1
					c0-0.2,0-0.5,0.2-0.7c0.2-0.2,0.2-0.4,0.4-0.5c0.2-0.1,0.4-0.2,0.6-0.3c0.2,0,0.4-0.1,0.7-0.1c0.7-0.1,1.1-0.2,1.5-0.3
					c0-0.1,0-0.2,0-0.2c0-0.3-0.1-0.6-0.2-0.7c-0.2-0.2-0.5-0.3-0.9-0.3s-0.7,0.1-0.8,0.2c-0.2,0.1-0.3,0.4-0.4,0.7l-1-0.2
					c0.1-0.4,0.2-0.6,0.4-0.9c0.2-0.2,0.4-0.4,0.7-0.5s0.7-0.2,1.1-0.2c0.4,0,0.7,0,1,0.1s0.4,0.2,0.6,0.4c0.1,0.2,0.2,0.3,0.3,0.6
					c0,0.1,0,0.4,0,0.8v1.1c0,0.8,0,1.3,0,1.5s0.1,0.4,0.2,0.6h-0.8C81.7,60.2,81.7,60,81.7,59.8z M81.6,57.9
					c-0.3,0.1-0.7,0.2-1.3,0.3c-0.3,0-0.6,0.1-0.7,0.2c-0.1,0.1-0.2,0.2-0.3,0.3c-0.1,0.1-0.1,0.3-0.1,0.4c0,0.2,0.1,0.4,0.2,0.6
					c0.1,0.2,0.4,0.2,0.7,0.2c0.3,0,0.6-0.1,0.8-0.2c0.2-0.1,0.4-0.3,0.5-0.6c0.1-0.2,0.1-0.5,0.1-0.8v-0.4H81.6z"/>
				<path d="M83.7,54.5v-1h0.8v1H83.7z M83.7,60.4v-5h0.8v5H83.7z"/>
				<path d="M88.8,60.4v-0.6c-0.3,0.5-0.8,0.7-1.3,0.7c-0.4,0-0.7-0.1-1.1-0.3c-0.3-0.2-0.6-0.5-0.8-0.9c-0.2-0.4-0.3-0.8-0.3-1.4
					c0-0.5,0.1-0.9,0.2-1.4s0.4-0.7,0.7-0.9c0.3-0.2,0.7-0.3,1.1-0.3c0.3,0,0.5,0.1,0.8,0.2c0.2,0.1,0.4,0.3,0.6,0.5v-2.5h0.8v6.9
					L88.8,60.4L88.8,60.4z M86.3,57.9c0,0.6,0.1,1.1,0.4,1.4c0.3,0.3,0.6,0.5,0.9,0.5c0.4,0,0.7-0.1,0.9-0.5
					c0.2-0.3,0.4-0.8,0.4-1.4c0-0.7-0.1-1.2-0.4-1.5c-0.3-0.3-0.6-0.5-0.9-0.5c-0.4,0-0.7,0.1-0.9,0.5
					C86.4,56.8,86.3,57.3,86.3,57.9z"/>
			</g>
		</g>
	</g>
</g>
</svg>
