<?xml version="1.0" encoding="utf-8"?>
<!-- Generator: Adobe Illustrator 19.0.0, SVG Export Plug-In . SVG Version: 6.00 Build 0)  -->
<svg version="1.1" id="Layer_1" xmlns="http://www.w3.org/2000/svg" xmlns:xlink="http://www.w3.org/1999/xlink" x="0px" y="0px"
	 viewBox="0 0 500 500" style="enable-background:new 0 0 500 500;" xml:space="preserve">
<style type="text/css">
	.st0{opacity:0.2;}
	.st1{opacity:0.3;fill:#5C618A;}
	.st2{fill:#EA2D4B;}
	.st3{fill:#F0516B;}
	.st4{opacity:0.75;fill:#C26776;}
	.st5{fill:#141C26;}
	.st6{fill:#00B0E0;}
	.st7{fill:#0082A6;}
	.st8{fill:#95A8BF;}
	.st9{fill:#2D4057;}
	.st10{fill:#4D4D4D;}
	.st11{fill:#3A6FE6;}
	.st12{opacity:0.3;clip-path:url(#XMLID_2_);fill:#1390BA;}
	.st13{clip-path:url(#XMLID_2_);}
	.st14{fill:#D4C3A9;}
	.st15{fill:#BAAB94;}
	.st16{clip-path:url(#XMLID_2_);fill:#FFFFFF;}
	.st17{fill:#E6E6E6;}
	.st18{fill:#FFF1DB;}
	.st19{fill:#FFFFFF;}
	.st20{fill:#DAECFA;}
	.st21{fill:#456185;}
	.st22{fill:#661C1E;}
	.st23{fill:#52AABF;}
	.st24{fill:#BA313B;}
	.st25{fill:#FBB03B;}
	.st26{fill:#176C80;}
	.st27{fill:#C7363B;}
	.st28{fill:#3362CC;}
	.st29{fill:#407BFF;}
</style>
<path id="XMLID_451_" class="st0" d="M414.5,205.5c90.8,52.4,90.8,137.5,0,189.9s-238.1,52.4-328.9,0c-90.8-52.4-90.8-137.5,0-189.9
	C176.4,153,323.6,153,414.5,205.5z"/>
<path id="XMLID_450_" class="st1" d="M317.6,203.4c-6.6,3.8-6.6,10,0,13.8c6.6,3.8,17.3,3.8,23.9,0c6.6-3.8,6.6-10,0-13.8
	C334.9,199.6,324.2,199.6,317.6,203.4z"/>
<polygon id="XMLID_449_" class="st1" points="328.2,350.3 445.3,282.7 317.5,208.9 118.8,323.6 246.6,397.4 312.5,359.4 "/>
<polygon id="XMLID_448_" class="st1" points="69,358.2 127.6,392 168.6,368.4 110,334.5 "/>
<g id="XMLID_417_">
	<g id="XMLID_418_">
		<path id="XMLID_447_" class="st2" d="M311.5,183.3c11.2,0,22.4,0,33.6,0c2.4,8.8,1.2,18.4-1.8,27.5c-0.6,1.8-2.4,3.5-5.1,4.8
			c-6.1,2.9-13.6,2.9-19.7,0c-2.7-1.3-4.5-3-5.1-4.8C310.3,201.7,309,192,311.5,183.3z"/>
		<path id="XMLID_446_" class="st3" d="M316.4,175.6c-6.6,3.8-6.6,10,0,13.8c6.6,3.8,17.3,3.8,23.9,0c6.6-3.8,6.6-10,0-13.8
			C333.6,171.8,322.9,171.8,316.4,175.6z"/>
		<path id="XMLID_445_" class="st4" d="M315.9,186.1c0.6,0.7,1.5,1.4,2.5,1.9c5.4,3.1,14.3,3.1,19.7,0c1-0.6,1.9-1.2,2.5-1.9
			c2.7-2.9,1.9-6.7-2.5-9.1c-5.4-3.1-14.3-3.1-19.7,0C314,179.5,313.2,183.2,315.9,186.1z"/>
		<path id="XMLID_444_" d="M315.9,186.1c0.6,0.7,1.5,1.4,2.5,1.9c5.4,3.1,14.3,3.1,19.7,0c1-0.6,1.9-1.2,2.5-1.9
			c-0.6-0.7-1.5-1.4-2.5-1.9c-5.4-3.1-14.3-3.1-19.7,0C317.4,184.8,316.5,185.4,315.9,186.1z"/>
		<polygon id="XMLID_443_" class="st5" points="331.6,183.9 329.4,161.6 333.9,150.7 331.7,137.8 340.7,132.9 349.7,126.5 
			354.2,114.4 348.1,125.8 340.3,131.6 331.6,136.1 328.4,128.2 333.3,122 329.2,109.1 334.5,98.4 328.4,108.7 331.7,121.8 
			327,127.7 331.6,149.4 323.1,146.4 318.9,137.9 320.1,131.6 308.9,126.4 318.8,132.2 317.3,138.3 321.7,147.2 330.1,152 
			326,161.9 323.2,183.1 319.5,185.4 325.8,185.4 331.5,187.7 330.8,185.7 335.7,184.8 		"/>
		<g id="XMLID_440_">
			<path id="XMLID_442_" class="st5" d="M320.2,147.9c0.4-0.1,0.8-0.2,1.3-0.3l1.2-0.2l-0.1-0.8l-1.2,0.2c-0.4,0.1-0.9,0.2-1.3,0.3
				L320.2,147.9z"/>
			<path id="XMLID_441_" class="st6" d="M301.8,159.2c0,0,0.6-0.2,1.6-0.5c1-0.3,2.4-0.7,3.9-1c3-0.8,6.4-1.3,8.8-2.4
				c2.4-1.1,3.7-3,4.5-4.7c0.4-0.8,0.7-1.7,0.8-2.2c0.1-0.3,0-0.5,0-0.7c0-0.2,0-0.2,0-0.2s0-0.1-0.1-0.2c-0.1-0.1,0-0.4-0.3-0.6
				c-0.4-0.5-1-1.1-1.9-1.6c-1.7-1.1-4.6-1.8-8.1-0.2c-3.5,1.6-6.4,5.4-7.8,8.6c-0.7,1.6-1.1,3.1-1.3,4.2
				C301.9,158.6,301.8,159.2,301.8,159.2z"/>
		</g>
		<g id="XMLID_437_">
			<path id="XMLID_439_" class="st5" d="M310.3,133.2l1.2,0.4c2.5,0.8,4.9,2,7.1,3.5l0.5-0.6c-2.2-1.6-4.7-2.8-7.3-3.6l-1.3-0.4
				L310.3,133.2z"/>
			<path id="XMLID_438_" class="st6" d="M289.1,135.8c0,0,0.6,0,1.7,0.1c0.5,0,1.1,0.1,1.8,0.2c0.7,0.1,1.4,0.2,2.1,0.3
				c1.5,0.2,3.1,0.6,4.6,0.9c1.5,0.3,2.9,0.6,4.2,0.6c2.6,0,4.4-1,6-2.1c0.7-0.5,1.4-1.1,1.8-1.6c0.4-0.4,0.6-0.8,0.6-0.8
				s0.1-1.5-1-3.3c-1-1.7-3.3-3.8-7.2-3.9c-2,0-4.1,0.5-6,1.3c-1.9,0.9-3.6,2.1-4.9,3.4c-0.7,0.6-1.2,1.2-1.7,1.8
				c-0.5,0.6-0.8,1.1-1.1,1.6C289.4,135.3,289.1,135.8,289.1,135.8z"/>
		</g>
		<g id="XMLID_434_">
			<path id="XMLID_436_" class="st5" d="M344.5,138.2l-1-0.8c-2.1-1.6-4.3-2.9-6.8-3.9l-0.3,0.7c2.4,0.9,4.6,2.2,6.6,3.8l1,0.8
				L344.5,138.2z"/>
			<path id="XMLID_435_" class="st6" d="M354,157.5c0,0,0.3-0.5,0.8-1.6c0.2-0.5,0.4-1.1,0.7-1.8c0.2-0.7,0.4-1.5,0.6-2.4
				c0.3-1.8,0.3-3.9,0-5.9c-0.4-2.1-1.1-4.1-2.3-5.7c-2.3-3.2-5.3-3.9-7.3-3.8c-1,0.1-1.8,0.4-2.4,0.6c-0.6,0.2-0.9,0.5-0.9,0.5
				s-0.1,0.3-0.3,0.9c-0.1,0.6-0.3,1.4-0.3,2.4c-0.1,1.9,0.2,4,1.6,6.1c1.5,2.1,4.1,4.1,6.2,6.4c0.5,0.5,1,1.1,1.5,1.6
				c0.4,0.5,0.9,1,1.2,1.4C353.6,157,354,157.5,354,157.5z"/>
		</g>
		<g id="XMLID_431_">
			<polygon id="XMLID_433_" class="st5" points="334.8,151.2 333.6,150.7 332,150.3 331.8,151 333.3,151.5 334.5,151.9 			"/>
			<path id="XMLID_432_" class="st7" d="M348.7,167.4c0,0,0.2-0.6,0.5-1.7c0.1-0.5,0.2-1.2,0.3-1.9c0-0.7,0.1-1.6,0-2.5
				c-0.1-1.8-0.6-3.9-1.5-5.8c-0.9-2-2.2-3.8-3.8-5c-1.6-1.3-3.2-1.9-4.6-2c-1.4-0.2-2.7,0.1-3.6,0.5c-1,0.4-1.7,0.9-2.1,1.3
				c-0.3,0.2-0.3,0.4-0.4,0.6c-0.1,0.1-0.1,0.2-0.1,0.2s0,0.1-0.1,0.2c0,0.2-0.2,0.4-0.1,0.7c0.1,0.6,0.2,1.4,0.5,2.3
				c0.5,1.8,1.3,3.7,3.2,5.3c1.9,1.5,4.9,2.8,7.4,4.5c0.6,0.4,1.2,0.8,1.8,1.2c0.5,0.4,1,0.8,1.4,1.1
				C348.2,167,348.7,167.4,348.7,167.4z"/>
		</g>
		<g id="XMLID_428_">
			<polygon id="XMLID_430_" class="st5" points="327.8,123.7 328.7,124.6 329.5,125.5 330.1,125 329.3,124.1 328.4,123.1 			"/>
			<path id="XMLID_429_" class="st7" d="M309.6,112.3c0,0,0.5,0.4,1.2,1.2c0.7,0.7,1.7,1.7,2.7,2.9c1,1.1,2,2.4,2.9,3.6
				c0.9,1.2,1.8,2.3,2.9,3.2c2.1,1.8,4.5,2.3,6.4,2.2c1,0,1.8-0.2,2.4-0.4c0.3,0,0.4-0.3,0.6-0.3c0.1-0.1,0.2-0.2,0.2-0.2
				s0.1-0.1,0.2-0.2c0.1-0.1,0.3-0.2,0.4-0.6c0.2-0.6,0.4-1.4,0.5-2.4c0.1-1.9-0.3-4.6-3.1-7.1c-1.4-1.2-3.3-2.2-5.4-2.8
				c-2-0.6-4.1-0.7-5.9-0.6c-1.8,0.1-3.3,0.5-4.3,0.8C310.2,112,309.6,112.3,309.6,112.3z"/>
		</g>
		<g id="XMLID_425_">
			<polygon id="XMLID_427_" class="st5" points="349.3,128 348,127.9 346.2,127.9 346.2,128.7 348,128.7 349.3,128.8 			"/>
			<path id="XMLID_426_" class="st7" d="M370.5,133.5c0,0-0.3-0.6-0.9-1.4c-0.6-0.9-1.6-2.1-2.8-3.3c-2.4-2.5-6.1-5-9.7-5.6
				c-3.6-0.6-6.1,0.8-7.5,2.1c-0.7,0.7-1.2,1.4-1.5,2c-0.2,0.3-0.1,0.5-0.2,0.7c0,0.2,0,0.2,0,0.2s0,0.1,0,0.3c0,0.2,0,0.4,0.1,0.7
				c0.3,0.6,0.7,1.3,1.3,2c1.2,1.5,2.9,3.1,5.8,3.5c2.8,0.5,6.5-0.1,9.6-0.5C367.9,133.8,370.5,133.5,370.5,133.5z"/>
		</g>
		<g id="XMLID_422_">
			<path id="XMLID_424_" class="st5" d="M334.2,120.5c-0.3,0.3-0.6,0.6-0.9,0.9c-0.5,0.5-1,1.1-1.6,1.6l0.6,0.5
				c0.5-0.5,1-1.1,1.5-1.6c0.3-0.3,0.6-0.6,0.9-0.9L334.2,120.5z"/>
			<path id="XMLID_423_" class="st6" d="M353.5,110.3c0,0-0.6-0.2-1.7-0.5c-1-0.3-2.5-0.6-4.3-0.7c-3.5-0.3-8,0.4-11.1,2.5
				c-3.1,2.1-3.9,4.8-3.9,6.8c0,1,0.2,1.9,0.3,2.4c0.1,0.3,0.3,0.4,0.3,0.6c0.1,0.1,0.2,0.2,0.2,0.2s0.1,0.1,0.2,0.2
				c0.1,0.1,0.3,0.3,0.6,0.4c0.6,0.2,1.4,0.4,2.3,0.5c1.9,0.2,4.2,0.1,6.5-1.4c2.3-1.6,4.6-4.4,6.7-6.7c1.1-1.2,2-2.2,2.7-3
				C353.1,110.7,353.5,110.3,353.5,110.3z"/>
		</g>
		<g id="XMLID_419_">
			<path id="XMLID_421_" class="st5" d="M326.8,106.1c0.2,0.4,0.5,0.7,0.7,1.1c0.4,0.8,0.8,1.6,1.2,2.4l0.7-0.3
				c-0.4-0.8-0.8-1.6-1.2-2.4c-0.2-0.4-0.4-0.8-0.7-1.1L326.8,106.1z"/>
			<path id="XMLID_420_" class="st6" d="M309.5,93.6c0,0,0.4,0.5,1.2,1.2c0.7,0.8,1.6,1.8,2.6,3c1.9,2.4,3.6,5.3,5.4,7
				c1.8,1.8,3.9,2.3,5.8,2.5c0.9,0.1,1.8,0.1,2.4,0.1c0.6-0.1,0.9-0.3,0.9-0.3c0,0,0.1-0.1,0.2-0.1c0.1-0.1,0.3-0.2,0.5-0.5
				c0.3-0.5,0.7-1.3,1-2.3c0.5-2,0.2-5-2.7-7.8c-1.4-1.4-3.3-2.4-5.3-3.1c-2-0.6-4.1-0.9-5.9-0.9c-1.8,0-3.3,0.3-4.4,0.6
				C310.1,93.3,309.5,93.6,309.5,93.6z"/>
		</g>
	</g>
</g>
<polygon id="XMLID_416_" points="439.3,281.9 246.6,393.2 124.8,322.9 124.8,316.1 317.5,211.6 439.3,275.2 "/>
<polygon id="XMLID_415_" class="st8" points="439.3,275.2 246.6,386.4 124.8,316.1 317.5,204.9 "/>
<polygon id="XMLID_414_" class="st9" points="153.3,309.8 306.5,221.4 376.7,262 223.6,350.4 "/>
<g id="XMLID_355_">
	<polygon id="XMLID_413_" class="st10" points="157,309.8 168.8,303 177.8,308.2 166,315 	"/>
	<polygon id="XMLID_412_" class="st10" points="170.7,301.9 182.6,295 191.6,300.2 179.8,307.1 	"/>
	<polygon id="XMLID_411_" class="st10" points="184.5,293.9 196.3,287.1 205.4,292.3 193.5,299.1 	"/>
	<polygon id="XMLID_410_" class="st10" points="198.3,286 210.1,279.1 219.1,284.3 207.3,291.2 	"/>
	<polygon id="XMLID_409_" class="st10" points="212,278 223.9,271.2 232.9,276.4 221.1,283.2 	"/>
	<polygon id="XMLID_408_" class="st10" points="225.8,270.1 237.6,263.2 246.7,268.5 234.8,275.3 	"/>
	<polygon id="XMLID_407_" class="st10" points="239.6,262.1 251.4,255.3 260.4,260.5 248.6,267.3 	"/>
	<polygon id="XMLID_406_" class="st10" points="253.3,254.2 265.2,247.3 274.2,252.6 262.4,259.4 	"/>
	<polygon id="XMLID_405_" class="st10" points="267.1,246.2 278.9,239.4 288,244.6 276.1,251.4 	"/>
	<polygon id="XMLID_404_" class="st10" points="280.9,238.3 292.7,231.5 301.7,236.7 289.9,243.5 	"/>
	<polygon id="XMLID_403_" class="st10" points="294.6,230.3 306.5,223.5 315.5,228.7 303.7,235.6 	"/>
	<polygon id="XMLID_402_" class="st10" points="173.2,319.2 185,312.3 194,317.5 182.2,324.4 	"/>
	<polygon id="XMLID_401_" class="st10" points="186.9,311.2 198.8,304.4 207.8,309.6 196,316.4 	"/>
	<polygon id="XMLID_400_" class="st10" points="200.7,303.3 212.5,296.4 221.6,301.6 209.7,308.5 	"/>
	<polygon id="XMLID_399_" class="st10" points="214.5,295.3 226.3,288.5 235.3,293.7 223.5,300.5 	"/>
	<polygon id="XMLID_398_" class="st10" points="228.2,287.4 240.1,280.5 249.1,285.7 237.3,292.6 	"/>
	<polygon id="XMLID_397_" class="st10" points="242,279.4 253.8,272.6 262.8,277.8 251,284.6 	"/>
	<polygon id="XMLID_396_" class="st10" points="255.8,271.5 267.6,264.6 276.6,269.9 264.8,276.7 	"/>
	<polygon id="XMLID_395_" class="st10" points="269.5,263.5 281.4,256.7 290.4,261.9 278.5,268.7 	"/>
	<polygon id="XMLID_394_" class="st10" points="283.3,255.6 295.1,248.7 304.1,254 292.3,260.8 	"/>
	<polygon id="XMLID_393_" class="st10" points="297,247.6 308.9,240.8 317.9,246 306.1,252.8 	"/>
	<polygon id="XMLID_392_" class="st10" points="310.8,239.7 322.6,232.9 331.7,238.1 319.8,244.9 	"/>
	<polygon id="XMLID_391_" class="st10" points="183.5,325.1 195.3,318.3 204.4,323.5 192.5,330.3 	"/>
	<polygon id="XMLID_390_" class="st10" points="197.3,317.2 209.1,310.4 218.1,315.6 206.3,322.4 	"/>
	<polygon id="XMLID_389_" class="st10" points="211,309.2 222.9,302.4 231.9,307.6 220.1,314.4 	"/>
	<polygon id="XMLID_388_" class="st10" points="224.8,301.3 236.6,294.5 245.7,299.7 233.8,306.5 	"/>
	<polygon id="XMLID_387_" class="st10" points="238.6,293.3 250.4,286.5 259.4,291.7 247.6,298.6 	"/>
	<polygon id="XMLID_386_" class="st10" points="252.3,285.4 264.2,278.6 273.2,283.8 261.4,290.6 	"/>
	<polygon id="XMLID_385_" class="st10" points="266.1,277.4 277.9,270.6 287,275.8 275.1,282.7 	"/>
	<polygon id="XMLID_384_" class="st10" points="279.9,269.5 291.7,262.7 300.7,267.9 288.9,274.7 	"/>
	<polygon id="XMLID_383_" class="st10" points="293.6,261.6 305.5,254.7 314.5,259.9 302.7,266.8 	"/>
	<polygon id="XMLID_382_" class="st10" points="307.4,253.6 319.2,246.8 328.3,252 316.4,258.8 	"/>
	<polygon id="XMLID_381_" class="st10" points="193.9,331.1 205.7,324.3 214.7,329.5 202.9,336.3 	"/>
	<polygon id="XMLID_380_" class="st10" points="207.6,323.2 219.5,316.3 228.5,321.5 216.7,328.4 	"/>
	<polygon id="XMLID_379_" class="st10" points="221.4,315.2 233.2,308.4 242.3,313.6 230.4,320.4 	"/>
	<polygon id="XMLID_378_" class="st10" points="235.2,307.3 247,300.4 256,305.6 244.2,312.5 	"/>
	<polygon id="XMLID_377_" class="st10" points="248.9,299.3 260.8,292.5 269.8,297.7 258,304.5 	"/>
	<polygon id="XMLID_376_" class="st10" points="262.7,291.4 274.5,284.5 283.5,289.7 271.7,296.6 	"/>
	<polygon id="XMLID_375_" class="st10" points="276.5,283.4 288.3,276.6 297.3,281.8 285.5,288.6 	"/>
	<polygon id="XMLID_374_" class="st10" points="290.2,275.5 302,268.6 311.1,273.9 299.2,280.7 	"/>
	<polygon id="XMLID_373_" class="st10" points="304,267.5 315.8,260.7 324.8,265.9 313,272.7 	"/>
	<polygon id="XMLID_372_" class="st10" points="321.2,245.7 331.5,251.6 317.7,259.6 326.8,264.8 340.5,256.8 344,254.9 352.4,250 
		344.7,245.6 343.3,244.8 333,238.8 	"/>
	<polygon id="XMLID_371_" class="st10" points="221.6,327.1 218,329.1 204.2,337.1 213.2,342.3 227,334.3 230.6,332.3 238.8,327.5 
		229.8,322.3 	"/>
	<polygon id="XMLID_370_" class="st10" points="231.7,321.2 243.6,314.4 252.6,319.6 240.8,326.4 	"/>
	<polygon id="XMLID_369_" class="st10" points="245.5,313.2 257.3,306.4 266.4,311.6 254.5,318.4 	"/>
	<polygon id="XMLID_368_" class="st10" points="259.3,305.3 271.1,298.5 280.1,303.7 268.3,310.5 	"/>
	<polygon id="XMLID_367_" class="st10" points="273,297.3 284.9,290.5 293.9,295.7 282.1,302.6 	"/>
	<polygon id="XMLID_366_" class="st10" points="286.8,289.4 298.6,282.6 307.7,287.8 295.8,294.6 	"/>
	<polygon id="XMLID_365_" class="st10" points="300.6,281.4 312.4,274.6 321.4,279.8 309.6,286.7 	"/>
	<polygon id="XMLID_364_" class="st10" points="314.3,273.5 326.2,266.7 335.2,271.9 323.4,278.7 	"/>
	<polygon id="XMLID_363_" class="st10" points="339.9,258.7 337.9,259.9 328.1,265.6 337.1,270.8 346.9,265.1 349,263.9 362.7,256 
		353.7,250.8 	"/>
	<polygon id="XMLID_362_" class="st10" points="214.6,343.1 226.4,336.2 235.4,341.4 223.6,348.3 	"/>
	<polygon id="XMLID_361_" class="st10" points="228.3,335.1 240.2,328.3 249.2,333.5 237.4,340.3 	"/>
	<polygon id="XMLID_360_" class="st10" points="242.1,327.2 253.9,320.3 263,325.5 251.1,332.4 	"/>
	<polygon id="XMLID_359_" class="st10" points="316.8,284 310.9,287.4 309,288.5 297.2,295.4 295.2,296.5 283.4,303.3 281.5,304.4 
		269.6,311.3 255.9,319.2 264.9,324.4 278.6,316.5 290.5,309.6 292.4,308.5 304.2,301.7 306.2,300.6 318,293.8 319.9,292.6 
		325.9,289.2 331.8,285.8 322.7,280.6 	"/>
	<polygon id="XMLID_358_" class="st10" points="324.7,279.5 336.5,272.6 345.5,277.9 333.7,284.7 	"/>
	<polygon id="XMLID_357_" class="st10" points="338.4,271.5 350.3,264.7 359.3,269.9 347.5,276.7 	"/>
	<polygon id="XMLID_356_" class="st10" points="352.2,263.6 364,256.8 373.1,262 361.2,268.8 	"/>
</g>
<polygon id="XMLID_354_" class="st8" points="157,308.5 168.8,301.6 177.8,306.8 166,313.7 "/>
<polygon id="XMLID_353_" class="st8" points="170.7,300.5 182.6,293.7 191.6,298.9 179.8,305.7 "/>
<polygon id="XMLID_352_" class="st8" points="184.5,292.6 196.3,285.7 205.4,290.9 193.5,297.8 "/>
<polygon id="XMLID_351_" class="st8" points="198.3,284.6 210.1,277.8 219.1,283 207.3,289.8 "/>
<polygon id="XMLID_350_" class="st8" points="212,276.7 223.9,269.8 232.9,275.1 221.1,281.9 "/>
<polygon id="XMLID_349_" class="st8" points="225.8,268.7 237.6,261.9 246.7,267.1 234.8,273.9 "/>
<polygon id="XMLID_348_" class="st8" points="239.6,260.8 251.4,253.9 260.4,259.2 248.6,266 "/>
<polygon id="XMLID_347_" class="st8" points="253.3,252.8 265.2,246 274.2,251.2 262.4,258 "/>
<polygon id="XMLID_346_" class="st8" points="267.1,244.9 278.9,238.1 288,243.3 276.1,250.1 "/>
<polygon id="XMLID_345_" class="st8" points="280.9,236.9 292.7,230.1 301.7,235.3 289.9,242.2 "/>
<polygon id="XMLID_344_" class="st8" points="294.6,229 306.5,222.2 315.5,227.4 303.7,234.2 "/>
<polygon id="XMLID_343_" class="st8" points="173.2,317.8 185,311 194,316.2 182.2,323 "/>
<polygon id="XMLID_342_" class="st8" points="186.9,309.9 198.8,303 207.8,308.2 196,315.1 "/>
<polygon id="XMLID_341_" class="st8" points="200.7,301.9 212.5,295.1 221.6,300.3 209.7,307.1 "/>
<polygon id="XMLID_340_" class="st8" points="214.5,294 226.3,287.1 235.3,292.3 223.5,299.2 "/>
<polygon id="XMLID_339_" class="st8" points="228.2,286 240.1,279.2 249.1,284.4 237.3,291.2 "/>
<polygon id="XMLID_338_" class="st8" points="242,278.1 253.8,271.2 262.8,276.5 251,283.3 "/>
<polygon id="XMLID_337_" class="st8" points="255.8,270.1 267.6,263.3 276.6,268.5 264.8,275.3 "/>
<polygon id="XMLID_336_" class="st8" points="269.5,262.2 281.4,255.3 290.4,260.6 278.5,267.4 "/>
<polygon id="XMLID_335_" class="st8" points="283.3,254.2 295.1,247.4 304.1,252.6 292.3,259.4 "/>
<polygon id="XMLID_334_" class="st8" points="297,246.3 308.9,239.5 317.9,244.7 306.1,251.5 "/>
<polygon id="XMLID_333_" class="st8" points="310.8,238.3 322.6,231.5 331.7,236.7 319.8,243.5 "/>
<polygon id="XMLID_332_" class="st8" points="183.5,323.8 195.3,317 204.4,322.2 192.5,329 "/>
<polygon id="XMLID_331_" class="st8" points="197.3,315.8 209.1,309 218.1,314.2 206.3,321 "/>
<polygon id="XMLID_330_" class="st8" points="211,307.9 222.9,301.1 231.9,306.3 220.1,313.1 "/>
<polygon id="XMLID_329_" class="st8" points="224.8,299.9 236.6,293.1 245.7,298.3 233.8,305.2 "/>
<polygon id="XMLID_328_" class="st8" points="238.6,292 250.4,285.2 259.4,290.4 247.6,297.2 "/>
<polygon id="XMLID_327_" class="st8" points="252.3,284 264.2,277.2 273.2,282.4 261.4,289.3 "/>
<polygon id="XMLID_326_" class="st8" points="266.1,276.1 277.9,269.3 287,274.5 275.1,281.3 "/>
<polygon id="XMLID_325_" class="st8" points="279.9,268.2 291.7,261.3 300.7,266.5 288.9,273.4 "/>
<polygon id="XMLID_324_" class="st8" points="293.6,260.2 305.5,253.4 314.5,258.6 302.7,265.4 "/>
<polygon id="XMLID_323_" class="st8" points="307.4,252.3 319.2,245.4 328.3,250.6 316.4,257.5 "/>
<polygon id="XMLID_322_" class="st8" points="193.9,329.8 205.7,322.9 214.7,328.1 202.9,335 "/>
<polygon id="XMLID_321_" class="st8" points="207.6,321.8 219.5,315 228.5,320.2 216.7,327 "/>
<polygon id="XMLID_320_" class="st8" points="221.4,313.9 233.2,307 242.3,312.2 230.4,319.1 "/>
<polygon id="XMLID_319_" class="st8" points="235.2,305.9 247,299.1 256,304.3 244.2,311.1 "/>
<polygon id="XMLID_318_" class="st8" points="248.9,298 260.8,291.1 269.8,296.3 258,303.2 "/>
<polygon id="XMLID_317_" class="st8" points="262.7,290 274.5,283.2 283.5,288.4 271.7,295.2 "/>
<polygon id="XMLID_316_" class="st8" points="276.5,282.1 288.3,275.2 297.3,280.5 285.5,287.3 "/>
<polygon id="XMLID_315_" class="st8" points="290.2,274.1 302,267.3 311.1,272.5 299.2,279.3 "/>
<polygon id="XMLID_314_" class="st8" points="304,266.2 315.8,259.3 324.8,264.6 313,271.4 "/>
<polygon id="XMLID_313_" class="st8" points="321.2,244.3 331.5,250.3 317.7,258.2 326.8,263.4 340.5,255.5 344,253.5 352.4,248.7 
	344.7,244.2 343.3,243.5 333,237.5 "/>
<polygon id="XMLID_312_" class="st8" points="221.6,325.7 218,327.8 204.2,335.7 213.2,340.9 227,333 230.6,330.9 238.8,326.2 
	229.8,321 "/>
<polygon id="XMLID_311_" class="st8" points="231.7,319.8 243.6,313 252.6,318.2 240.8,325 "/>
<polygon id="XMLID_310_" class="st8" points="245.5,311.9 257.3,305.1 266.4,310.3 254.5,317.1 "/>
<polygon id="XMLID_309_" class="st8" points="259.3,303.9 271.1,297.1 280.1,302.3 268.3,309.2 "/>
<polygon id="XMLID_308_" class="st8" points="273,296 284.9,289.2 293.9,294.4 282.1,301.2 "/>
<polygon id="XMLID_307_" class="st8" points="286.8,288 298.6,281.2 307.7,286.4 295.8,293.3 "/>
<polygon id="XMLID_306_" class="st8" points="300.6,280.1 312.4,273.3 321.4,278.5 309.6,285.3 "/>
<polygon id="XMLID_305_" class="st8" points="314.3,272.2 326.2,265.3 335.2,270.5 323.4,277.4 "/>
<polygon id="XMLID_304_" class="st8" points="339.9,257.4 337.9,258.5 328.1,264.2 337.1,269.4 346.9,263.8 349,262.6 362.7,254.6 
	353.7,249.4 "/>
<polygon id="XMLID_303_" class="st8" points="214.6,341.7 226.4,334.9 235.4,340.1 223.6,346.9 "/>
<polygon id="XMLID_302_" class="st8" points="228.3,333.8 240.2,326.9 249.2,332.1 237.4,339 "/>
<polygon id="XMLID_301_" class="st8" points="242.1,325.8 253.9,319 263,324.2 251.1,331 "/>
<polygon id="XMLID_300_" class="st8" points="316.8,282.7 310.9,286.1 309,287.2 297.2,294 295.2,295.1 283.4,302 281.5,303.1 
	269.6,309.9 255.9,317.9 264.9,323.1 278.6,315.1 290.5,308.3 292.4,307.2 304.2,300.4 306.2,299.2 318,292.4 319.9,291.3 
	325.9,287.9 331.8,284.5 322.7,279.2 "/>
<polygon id="XMLID_299_" class="st8" points="324.7,278.1 336.5,271.3 345.5,276.5 333.7,283.3 "/>
<polygon id="XMLID_298_" class="st8" points="338.4,270.2 350.3,263.4 359.3,268.6 347.5,275.4 "/>
<polygon id="XMLID_297_" class="st8" points="352.2,262.2 364,255.4 373.1,260.6 361.2,267.4 "/>
<polygon id="XMLID_296_" points="312.1,203.1 124.8,316.1 119.5,314.4 82.6,176.5 275.3,65.3 280.6,67 "/>
<polygon id="XMLID_295_" class="st9" points="317.5,204.9 124.8,316.1 87.9,178.3 280.6,67 "/>
<polygon id="XMLID_294_" points="310.8,202.1 128.5,307.3 127.9,305.2 94.7,181.1 274.9,77.1 277,75.8 "/>
<polygon id="XMLID_293_" class="st11" points="308.1,201.2 127.9,305.2 94.7,181.1 274.9,77.1 "/>
<polygon id="XMLID_292_" class="st9" points="352.2,313 314.2,335 290.3,321.2 328.3,299.3 "/>
<g id="XMLID_24_">
	<defs>
		<polygon id="XMLID_25_" points="471.9,263.9 288.5,384.6 127.6,304.1 94.7,181.1 273.3,78 		"/>
	</defs>
	<clipPath id="XMLID_2_">
		<use xlink:href="#XMLID_25_"  style="overflow:visible;"/>
	</clipPath>
	<polygon id="XMLID_289_" class="st12" points="5.8,201.9 201.6,315.5 283.3,268.4 87.5,154.8 	"/>
	<g id="XMLID_287_" class="st13">
		<polygon id="XMLID_288_" class="st14" points="45.8,178 159.5,111.9 256,167.7 142.3,233.7 		"/>
	</g>
	<g id="XMLID_285_" class="st13">
		<path id="XMLID_286_" class="st14" d="M266.5,168.7l-113.7,66.1c-2.7,1.6-6.4,1.3-10.5-1L256,167.7
			C260.1,170,263.8,170.2,266.5,168.7z"/>
	</g>
	<g id="XMLID_283_" class="st13">
		<path id="XMLID_284_" class="st15" d="M266.9,169.4l-113.7,66.1c2.8-1.6,4.5-5,4.5-9.8l113.7-66.1
			C271.4,164.4,269.7,167.8,266.9,169.4z"/>
	</g>
	<g id="XMLID_281_" class="st13">
		<polygon id="XMLID_282_" class="st15" points="157.8,194.8 271.5,128.7 271.4,159.6 157.7,225.6 		"/>
	</g>
	<path id="XMLID_280_" class="st16" d="M354.3,271.5l-37.6-21.7c-10-5.8-18-19.7-18-31.2L185,284.7c0,11.4,8,25.4,18,31.2l37.2,21.5
		l13.5,7.8l113.7-66.1L354.3,271.5z"/>
	<g id="XMLID_278_" class="st13">
		<polygon id="XMLID_279_" class="st17" points="244.8,329.3 358.4,263.3 358.4,264 244.8,330 		"/>
	</g>
	<g id="XMLID_276_" class="st13">
		<path id="XMLID_277_" class="st15" d="M161.7,186.2l113.7-66.1c-2.4,1.4-3.9,4.4-3.9,8.6l-113.7,66.1
			C157.8,190.6,159.3,187.6,161.7,186.2z"/>
	</g>
	<g id="XMLID_274_" class="st13">
		<path id="XMLID_275_" class="st18" d="M373.8,279.7l-113.7,66.1c-1.6,1-3.9,0.8-6.4-0.6l113.7-66.1
			C369.9,280.5,372.2,280.7,373.8,279.7z"/>
	</g>
	<g id="XMLID_272_" class="st13">
		<path id="XMLID_273_" class="st14" d="M247.4,323.5l113.7-66.1c-1.6,0.9-2.6,2.9-2.6,5.8l-113.7,66.1
			C244.8,326.5,245.8,324.5,247.4,323.5z"/>
	</g>
	<g id="XMLID_49_" class="st13">
		<g id="XMLID_779_">
			<polygon id="XMLID_852_" class="st18" points="185.2,210.6 298.9,144.6 298.7,218.7 185,284.7 			"/>
			<g id="XMLID_805_">
				<polygon id="XMLID_851_" class="st18" points="265.4,162.6 194.3,203.6 194.3,212 265.4,171 				"/>
				<g id="XMLID_835_">
					<polygon id="XMLID_850_" class="st18" points="261,180.9 242.1,191.9 242.1,193.3 261,182.4 					"/>
					<polygon id="XMLID_849_" class="st18" points="293.7,162.1 263.6,179.4 263.6,180.9 293.7,163.5 					"/>
					<polygon id="XMLID_848_" class="st18" points="254.8,188.8 242.1,196.1 242.1,197.6 254.8,190.2 					"/>
					<polygon id="XMLID_847_" class="st18" points="277,176 256.9,187.6 256.9,189 277,177.4 					"/>
					<polygon id="XMLID_846_" class="st18" points="293.8,166.2 278.9,174.9 278.9,176.3 293.8,167.7 					"/>
					<polygon id="XMLID_845_" class="st18" points="293.8,170.5 267.3,185.8 267.3,187.3 293.8,171.9 					"/>
					<polygon id="XMLID_844_" class="st18" points="265.4,186.9 242.1,200.4 242.1,201.8 265.4,188.4 					"/>
					<polygon id="XMLID_843_" class="st18" points="277.9,184 242.1,204.6 242.1,206.1 277.9,185.4 					"/>
					<polygon id="XMLID_842_" class="st18" points="256.3,200.6 242.1,208.9 242.1,210.3 256.3,202.1 					"/>
					<polygon id="XMLID_841_" class="st18" points="293.8,179 268.3,193.7 268.3,195.2 293.8,180.4 					"/>
					<polygon id="XMLID_840_" class="st18" points="266.8,194.6 258.3,199.5 258.3,201 266.8,196.1 					"/>
					<polygon id="XMLID_839_" class="st18" points="280.3,191.1 242.1,213.1 242.1,214.6 280.3,192.5 					"/>
					<polygon id="XMLID_838_" class="st18" points="286.9,191.5 261.2,206.3 261.2,207.8 286.9,192.9 					"/>
					<polygon id="XMLID_837_" class="st18" points="258.1,208.1 242.1,217.4 242.1,218.8 258.1,209.6 					"/>
					<polygon id="XMLID_836_" class="st18" points="275.3,202.5 242.1,221.6 242.1,223.1 275.3,203.9 					"/>
				</g>
				<g id="XMLID_810_">
					<polygon id="XMLID_834_" class="st18" points="212.4,247.5 194.8,257.6 194.8,259 212.4,248.9 					"/>
					<polygon id="XMLID_833_" class="st18" points="232.5,235.8 215.8,245.5 215.8,246.9 232.5,237.3 					"/>
					<polygon id="XMLID_832_" class="st18" points="271.5,213.3 236,233.8 236,235.3 271.5,214.8 					"/>
					<polygon id="XMLID_831_" class="st18" points="274.2,211.8 274.2,213.2 293.7,202 293.7,200.5 					"/>
					<polygon id="XMLID_830_" class="st18" points="223.7,245.2 223.7,246.6 254,229.1 254,227.7 					"/>
					<polygon id="XMLID_829_" class="st18" points="220.8,246.8 194.8,261.8 194.8,263.3 220.8,248.3 					"/>
					<polygon id="XMLID_828_" class="st18" points="257.1,225.9 257.1,227.3 293.7,206.2 293.7,204.8 					"/>
					<polygon id="XMLID_827_" class="st18" points="208.3,258.3 194.8,266.1 194.8,267.5 208.3,259.7 					"/>
					<polygon id="XMLID_826_" class="st18" points="239.8,240.1 211.6,256.4 211.6,257.8 239.8,241.5 					"/>
					<polygon id="XMLID_825_" class="st18" points="270.9,222.2 270.9,223.6 268,225.2 268,223.8 242.9,238.3 242.9,239.8 
						293.7,210.4 293.7,209 					"/>
					<polygon id="XMLID_824_" class="st18" points="256.3,234.8 256.3,236.3 293.7,214.7 293.7,213.3 					"/>
					<polygon id="XMLID_823_" class="st18" points="253,236.7 194.8,270.3 194.8,271.8 253,238.1 					"/>
					<polygon id="XMLID_822_" class="st18" points="222,258.9 194.8,274.6 194.8,276 222,260.3 					"/>
					<polygon id="XMLID_821_" class="st18" points="255.9,239.3 225.2,257 225.2,258.5 255.9,240.7 					"/>
					<polygon id="XMLID_820_" class="st18" points="260,237 260,238.4 293.7,218.9 293.7,217.5 					"/>
					<polygon id="XMLID_819_" class="st18" points="208.9,270.7 194.8,278.8 194.8,280.3 208.9,272.1 					"/>
					<polygon id="XMLID_818_" class="st18" points="211.8,269 211.8,270.5 236.9,255.9 236.9,254.5 					"/>
					<polygon id="XMLID_817_" class="st18" points="267.8,236.7 267.8,238.1 293.7,223.2 293.7,221.8 					"/>
					<polygon id="XMLID_816_" class="st18" points="264.4,238.7 239.4,253.1 239.4,254.5 264.4,240.1 					"/>
					<polygon id="XMLID_815_" class="st18" points="218.5,269.4 194.8,283.1 194.8,284.5 218.5,270.8 					"/>
					<polygon id="XMLID_814_" class="st18" points="221.8,267.5 221.8,268.9 238.8,259.1 238.8,257.6 					"/>
					<polygon id="XMLID_813_" class="st18" points="242.5,255.5 242.5,257 293.7,227.4 293.7,226 					"/>
					<polygon id="XMLID_812_" class="st18" points="226,269.3 194.8,287.3 194.8,288.8 226,270.8 					"/>
					<polygon id="XMLID_811_" class="st18" points="229.4,267.3 229.4,268.8 265.9,247.7 265.9,246.3 					"/>
				</g>
				<g id="XMLID_806_">
					<polygon id="XMLID_809_" class="st18" points="236.3,226.4 195.3,250.1 195.3,218.9 236.3,195.2 					"/>
					<polygon id="XMLID_808_" class="st18" points="195.3,237.8 207.8,220.3 224,233.5 195.3,250.1 					"/>
					<polygon id="XMLID_807_" class="st18" points="217.1,227.9 228.2,213.2 236.3,215.1 236.3,226.4 224,233.5 					"/>
				</g>
			</g>
			<g id="XMLID_780_">
				<polygon id="XMLID_804_" class="st18" points="221.9,294.9 204.3,305 205.7,305.8 223.3,295.7 				"/>
				<polygon id="XMLID_803_" class="st18" points="242,283.2 225.3,292.9 226.8,293.7 243.5,284.1 				"/>
				<polygon id="XMLID_802_" class="st18" points="281,260.7 245.5,281.2 246.9,282.1 282.4,261.6 				"/>
				<polygon id="XMLID_801_" class="st18" points="283.7,259.2 285.1,260 304.6,248.7 303.2,247.9 				"/>
				<polygon id="XMLID_800_" class="st18" points="237.4,290.8 238.9,291.6 269.2,274.1 267.8,273.3 				"/>
				<polygon id="XMLID_799_" class="st18" points="234.6,292.4 208.5,307.5 210,308.3 236,293.3 				"/>
				<polygon id="XMLID_798_" class="st18" points="270.8,271.5 272.3,272.3 308.9,251.2 307.4,250.4 				"/>
				<polygon id="XMLID_797_" class="st18" points="226.3,302.1 212.8,309.9 214.2,310.7 227.8,302.9 				"/>
				<polygon id="XMLID_796_" class="st18" points="257.8,283.9 229.6,300.2 231,301 259.3,284.7 				"/>
				<polygon id="XMLID_795_" class="st18" points="288.9,266 290.3,266.8 287.4,268.4 286,267.6 260.9,282.1 262.3,283 313.1,253.6 
					311.7,252.8 				"/>
				<polygon id="XMLID_794_" class="st18" points="278.6,276.8 280,277.7 317.4,256.1 315.9,255.3 				"/>
				<polygon id="XMLID_793_" class="st18" points="275.3,278.7 217,312.4 218.5,313.2 276.7,279.6 				"/>
				<polygon id="XMLID_792_" class="st18" points="248.5,299.1 221.3,314.8 222.7,315.6 249.9,300 				"/>
				<polygon id="XMLID_791_" class="st18" points="282.4,279.5 251.7,297.2 253.2,298.1 283.9,280.3 				"/>
				<polygon id="XMLID_790_" class="st18" points="286.5,277.2 287.9,278 321.6,258.5 320.2,257.7 				"/>
				<polygon id="XMLID_789_" class="st18" points="239.7,309.1 225.5,317.3 227,318.1 241.1,309.9 				"/>
				<polygon id="XMLID_788_" class="st18" points="242.5,307.5 244,308.3 269.1,293.8 267.7,292.9 				"/>
				<polygon id="XMLID_787_" class="st18" points="298.6,275.1 300,275.9 325.9,261 324.4,260.2 				"/>
				<polygon id="XMLID_786_" class="st18" points="295.1,277.1 270.2,291.5 271.6,292.3 296.6,277.9 				"/>
				<polygon id="XMLID_785_" class="st18" points="253.5,306 229.8,319.7 231.2,320.6 254.9,306.9 				"/>
				<polygon id="XMLID_784_" class="st18" points="256.8,304.1 258.2,305 275.3,295.1 273.8,294.3 				"/>
				<polygon id="XMLID_783_" class="st18" points="277.5,292.2 278.9,293 330.1,263.5 328.7,262.6 				"/>
				<polygon id="XMLID_782_" class="st18" points="265.2,304.2 234,322.2 235.5,323 266.7,305 				"/>
				<polygon id="XMLID_781_" class="st18" points="268.7,302.2 270.1,303 306.6,281.9 305.2,281.1 				"/>
			</g>
		</g>
		<g id="XMLID_705_">
			<polygon id="XMLID_778_" class="st19" points="185.2,210.6 298.9,144.6 298.7,218.7 185,284.7 			"/>
			<g id="XMLID_731_">
				<polygon id="XMLID_777_" class="st2" points="265.4,162.6 194.3,203.6 194.3,212 265.4,171 				"/>
				<g id="XMLID_761_">
					<polygon id="XMLID_776_" class="st5" points="261,180.9 242.1,191.9 242.1,193.3 261,182.4 					"/>
					<polygon id="XMLID_775_" class="st5" points="293.7,162.1 263.6,179.4 263.6,180.9 293.7,163.5 					"/>
					<polygon id="XMLID_774_" class="st5" points="254.8,188.8 242.1,196.1 242.1,197.6 254.8,190.2 					"/>
					<polygon id="XMLID_773_" class="st5" points="277,176 256.9,187.6 256.9,189 277,177.4 					"/>
					<polygon id="XMLID_772_" class="st5" points="293.8,166.2 278.9,174.9 278.9,176.3 293.8,167.7 					"/>
					<polygon id="XMLID_771_" class="st5" points="293.8,170.5 267.3,185.8 267.3,187.3 293.8,171.9 					"/>
					<polygon id="XMLID_770_" class="st5" points="265.4,186.9 242.1,200.4 242.1,201.8 265.4,188.4 					"/>
					<polygon id="XMLID_769_" class="st5" points="277.9,184 242.1,204.6 242.1,206.1 277.9,185.4 					"/>
					<polygon id="XMLID_768_" class="st5" points="256.3,200.6 242.1,208.9 242.1,210.3 256.3,202.1 					"/>
					<polygon id="XMLID_767_" class="st5" points="293.8,179 268.3,193.7 268.3,195.2 293.8,180.4 					"/>
					<polygon id="XMLID_766_" class="st5" points="266.8,194.6 258.3,199.5 258.3,201 266.8,196.1 					"/>
					<polygon id="XMLID_765_" class="st5" points="280.3,191.1 242.1,213.1 242.1,214.6 280.3,192.5 					"/>
					<polygon id="XMLID_764_" class="st5" points="286.9,191.5 261.2,206.3 261.2,207.8 286.9,192.9 					"/>
					<polygon id="XMLID_763_" class="st5" points="258.1,208.1 242.1,217.4 242.1,218.8 258.1,209.6 					"/>
					<polygon id="XMLID_762_" class="st5" points="275.3,202.5 242.1,221.6 242.1,223.1 275.3,203.9 					"/>
				</g>
				<g id="XMLID_736_">
					<polygon id="XMLID_760_" class="st5" points="212.4,247.5 194.8,257.6 194.8,259 212.4,248.9 					"/>
					<polygon id="XMLID_759_" class="st5" points="232.5,235.8 215.8,245.5 215.8,246.9 232.5,237.3 					"/>
					<polygon id="XMLID_758_" class="st5" points="271.5,213.3 236,233.8 236,235.3 271.5,214.8 					"/>
					<polygon id="XMLID_757_" class="st5" points="274.2,211.8 274.2,213.2 293.7,202 293.7,200.5 					"/>
					<polygon id="XMLID_756_" class="st5" points="223.7,245.2 223.7,246.6 254,229.1 254,227.7 					"/>
					<polygon id="XMLID_755_" class="st5" points="220.8,246.8 194.8,261.8 194.8,263.3 220.8,248.3 					"/>
					<polygon id="XMLID_754_" class="st5" points="257.1,225.9 257.1,227.3 293.7,206.2 293.7,204.8 					"/>
					<polygon id="XMLID_753_" class="st5" points="208.3,258.3 194.8,266.1 194.8,267.5 208.3,259.7 					"/>
					<polygon id="XMLID_752_" class="st5" points="239.8,240.1 211.6,256.4 211.6,257.8 239.8,241.5 					"/>
					<polygon id="XMLID_751_" class="st5" points="270.9,222.2 270.9,223.6 268,225.2 268,223.8 242.9,238.3 242.9,239.8 
						293.7,210.4 293.7,209 					"/>
					<polygon id="XMLID_750_" class="st5" points="256.3,234.8 256.3,236.3 293.7,214.7 293.7,213.3 					"/>
					<polygon id="XMLID_749_" class="st5" points="253,236.7 194.8,270.3 194.8,271.8 253,238.1 					"/>
					<polygon id="XMLID_748_" class="st5" points="222,258.9 194.8,274.6 194.8,276 222,260.3 					"/>
					<polygon id="XMLID_747_" class="st5" points="255.9,239.3 225.2,257 225.2,258.5 255.9,240.7 					"/>
					<polygon id="XMLID_746_" class="st5" points="260,237 260,238.4 293.7,218.9 293.7,217.5 					"/>
					<polygon id="XMLID_745_" class="st5" points="208.9,270.7 194.8,278.8 194.8,280.3 208.9,272.1 					"/>
					<polygon id="XMLID_744_" class="st5" points="211.8,269 211.8,270.5 236.9,255.9 236.9,254.5 					"/>
					<polygon id="XMLID_743_" class="st5" points="267.8,236.7 267.8,238.1 293.7,223.2 293.7,221.8 					"/>
					<polygon id="XMLID_742_" class="st5" points="264.4,238.7 239.4,253.1 239.4,254.5 264.4,240.1 					"/>
					<polygon id="XMLID_741_" class="st5" points="218.5,269.4 194.8,283.1 194.8,284.5 218.5,270.8 					"/>
					<polygon id="XMLID_740_" class="st5" points="221.8,267.5 221.8,268.9 238.8,259.1 238.8,257.6 					"/>
					<polygon id="XMLID_739_" class="st5" points="242.5,255.5 242.5,257 293.7,227.4 293.7,226 					"/>
					<polygon id="XMLID_738_" class="st5" points="226,269.3 194.8,287.3 194.8,288.8 226,270.8 					"/>
					<polygon id="XMLID_737_" class="st5" points="229.4,267.3 229.4,268.8 265.9,247.7 265.9,246.3 					"/>
				</g>
				<g id="XMLID_732_">
					<polygon id="XMLID_735_" class="st20" points="236.3,226.4 195.3,250.1 195.3,218.9 236.3,195.2 					"/>
					<polygon id="XMLID_734_" class="st8" points="195.3,237.8 207.8,220.3 224,233.5 195.3,250.1 					"/>
					<polygon id="XMLID_733_" class="st21" points="217.1,227.9 228.2,213.2 236.3,215.1 236.3,226.4 224,233.5 					"/>
				</g>
			</g>
			<g id="XMLID_706_">
				<polygon id="XMLID_730_" class="st5" points="221.9,294.9 204.3,305 205.7,305.8 223.3,295.7 				"/>
				<polygon id="XMLID_729_" class="st5" points="242,283.2 225.3,292.9 226.8,293.7 243.5,284.1 				"/>
				<polygon id="XMLID_728_" class="st5" points="281,260.7 245.5,281.2 246.9,282.1 282.4,261.6 				"/>
				<polygon id="XMLID_727_" class="st5" points="283.7,259.2 285.1,260 304.6,248.7 303.2,247.9 				"/>
				<polygon id="XMLID_726_" class="st5" points="237.4,290.8 238.9,291.6 269.2,274.1 267.8,273.3 				"/>
				<polygon id="XMLID_725_" class="st5" points="234.6,292.4 208.5,307.5 210,308.3 236,293.3 				"/>
				<polygon id="XMLID_724_" class="st5" points="270.8,271.5 272.3,272.3 308.9,251.2 307.4,250.4 				"/>
				<polygon id="XMLID_723_" class="st5" points="226.3,302.1 212.8,309.9 214.2,310.7 227.8,302.9 				"/>
				<polygon id="XMLID_722_" class="st5" points="257.8,283.9 229.6,300.2 231,301 259.3,284.7 				"/>
				<polygon id="XMLID_721_" class="st5" points="288.9,266 290.3,266.8 287.4,268.4 286,267.6 260.9,282.1 262.3,283 313.1,253.6 
					311.7,252.8 				"/>
				<polygon id="XMLID_720_" class="st5" points="278.6,276.8 280,277.7 317.4,256.1 315.9,255.3 				"/>
				<polygon id="XMLID_719_" class="st5" points="275.3,278.7 217,312.4 218.5,313.2 276.7,279.6 				"/>
				<polygon id="XMLID_718_" class="st5" points="248.5,299.1 221.3,314.8 222.7,315.6 249.9,300 				"/>
				<polygon id="XMLID_717_" class="st5" points="282.4,279.5 251.7,297.2 253.2,298.1 283.9,280.3 				"/>
				<polygon id="XMLID_716_" class="st5" points="286.5,277.2 287.9,278 321.6,258.5 320.2,257.7 				"/>
				<polygon id="XMLID_715_" class="st5" points="239.7,309.1 225.5,317.3 227,318.1 241.1,309.9 				"/>
				<polygon id="XMLID_714_" class="st5" points="242.5,307.5 244,308.3 269.1,293.8 267.7,292.9 				"/>
				<polygon id="XMLID_713_" class="st5" points="298.6,275.1 300,275.9 325.9,261 324.4,260.2 				"/>
				<polygon id="XMLID_712_" class="st5" points="295.1,277.1 270.2,291.5 271.6,292.3 296.6,277.9 				"/>
				<polygon id="XMLID_711_" class="st5" points="253.5,306 229.8,319.7 231.2,320.6 254.9,306.9 				"/>
				<polygon id="XMLID_710_" class="st5" points="256.8,304.1 258.2,305 275.3,295.1 273.8,294.3 				"/>
				<polygon id="XMLID_709_" class="st5" points="277.5,292.2 278.9,293 330.1,263.5 328.7,262.6 				"/>
				<polygon id="XMLID_708_" class="st5" points="265.2,304.2 234,322.2 235.5,323 266.7,305 				"/>
				<polygon id="XMLID_707_" class="st5" points="268.7,302.2 270.1,303 306.6,281.9 305.2,281.1 				"/>
			</g>
		</g>
	</g>
	<g id="XMLID_42_" class="st13">
		<g id="XMLID_83_">
			<path id="XMLID_92_" class="st18" d="M161.3,185.5L275,119.4c2.5-1.5,6.1-1.3,10,1l-113.7,66.1
				C167.4,184.2,163.9,184,161.3,185.5z"/>
		</g>
		<g id="XMLID_81_">
			<path id="XMLID_82_" class="st19" d="M161.3,185.5L275,119.4c2.5-1.5,6.1-1.3,10,1l-113.7,66.1
				C167.4,184.2,163.9,184,161.3,185.5z"/>
		</g>
	</g>
	<g id="XMLID_35_" class="st13">
		<g id="XMLID_90_">
			<path id="XMLID_91_" class="st19" d="M171.3,186.4l113.7-66.1c7.7,4.5,14,15.3,14,24.2l-113.7,66.1
				C185.3,201.7,179,190.9,171.3,186.4z"/>
		</g>
		<g id="XMLID_88_">
			<path id="XMLID_89_" class="st19" d="M171.3,186.4l113.7-66.1c7.7,4.5,14,15.3,14,24.2l-113.7,66.1
				C185.3,201.7,179,190.9,171.3,186.4z"/>
		</g>
	</g>
	<g id="XMLID_33_" class="st13">
		<path id="XMLID_34_" class="st19" d="M171.3,186.4c7.7,4.5,14,15.3,14,24.2l-0.2,74.1c0,11.4,8,25.4,18,31.2l50.7,29.3
			c5,2.9,9,0.6,9-5.2c0-6-4-13-9-15.8c-5-2.9-9-0.5-9,5.2l0,0.7l-0.6-0.3l0-0.7c0-6.1,4.3-8.5,9.6-5.5c5.3,3,9.6,10.5,9.5,16.5
			c0,6.4-4.3,8.8-9.6,5.8L203,316.5c-10.3-5.9-18.6-20.4-18.6-32.1l0.2-74.1c0-8.5-6-18.9-13.4-23.2c-7.4-4.3-13.4-0.8-13.5,7.7
			l-0.1,30.8c0,9.7-6.9,13.6-15.4,8.8l-96.5-55.7l0-0.7l96.5,55.7c8.1,4.7,14.8,0.9,14.8-8.4l0.1-30.8
			C157.3,185.6,163.6,182,171.3,186.4z"/>
	</g>
	<g id="XMLID_26_" class="st13">
		<g id="XMLID_86_">
			<path id="XMLID_87_" class="st14" d="M247,322.8l113.7-66.1c1.7-1,4.2-0.9,6.8,0.7c5.3,3,9.6,10.5,9.5,16.5
				c0,3.2-1.1,5.4-2.9,6.4l-113.7,66.1c1.8-1,2.9-3.2,2.9-6.4c0-6.1-4.3-13.5-9.5-16.5C251.2,322,248.7,321.8,247,322.8z"/>
		</g>
		<g id="XMLID_84_">
			<path id="XMLID_85_" class="st14" d="M247,322.8l113.7-66.1c1.7-1,4.2-0.9,6.8,0.7c5.3,3,9.6,10.5,9.5,16.5
				c0,3.2-1.1,5.4-2.9,6.4l-113.7,66.1c1.8-1,2.9-3.2,2.9-6.4c0-6.1-4.3-13.5-9.5-16.5C251.2,322,248.7,321.8,247,322.8z"/>
		</g>
	</g>
</g>
<g id="XMLID_19_">
	<path id="XMLID_23_" class="st22" d="M128.1,389.4l37-21.4l-9-5.2l-28,17.3C126.9,384.3,126.9,387.4,128.1,389.4z"/>
	<path id="XMLID_22_" class="st19" d="M127,388.4l36.3-21l0-9.3l-37,21.4C125.1,383.8,125.8,386.5,127,388.4z"/>
	<path id="XMLID_21_" class="st22" d="M75.1,358.8l53,30.6c-1.2-2.6-1.2-5.7,0-9.3l-53-30.6C74,353.3,74,356.4,75.1,358.8z"/>
	<polygon id="XMLID_20_" class="st23" points="75.1,349.5 128.1,380.1 165.1,358.7 112.1,328.1 	"/>
</g>
<g id="XMLID_14_">
	<path id="XMLID_18_" class="st24" d="M128.9,376.6l37-21.4l-9-5.2l-28,17.3C127.7,371.5,127.7,374.6,128.9,376.6z"/>
	<path id="XMLID_17_" class="st19" d="M127.8,375.6l36.3-21v-9.3l-37,21.4C125.9,370.9,126.6,373.6,127.8,375.6z"/>
	<path id="XMLID_16_" class="st25" d="M70.9,343.1l58,33.5c-1.2-2.6-1.2-5.7,0-9.3l-58-33.5C69.8,337.6,69.8,340.7,70.9,343.1z"/>
	<polygon id="XMLID_15_" class="st22" points="70.9,333.8 128.9,367.3 165.9,345.9 107.9,312.4 	"/>
</g>
<g id="XMLID_9_">
	<path id="XMLID_13_" class="st26" d="M127.8,365.6l37-21.4l-9-5.2l-28,17.3C126.6,360.5,126.6,363.6,127.8,365.6z"/>
	<path id="XMLID_12_" class="st19" d="M126.7,364.7l36.3-21v-9.3l-37,21.4C124.8,360,125.5,362.7,126.7,364.7z"/>
	<path id="XMLID_11_" class="st23" d="M69.7,332.1l58,33.5c-1.2-2.6-1.2-5.7,0-9.3l-58-33.5C68.7,326.6,68.7,329.7,69.7,332.1z"/>
	<polygon id="XMLID_10_" class="st26" points="69.7,322.8 127.8,356.3 164.8,334.9 106.8,301.4 	"/>
</g>
<path id="XMLID_8_" class="st27" d="M128.9,352.8l37-21.4l-9-5.2l-28,17.3C127.7,347.7,127.7,350.8,128.9,352.8z"/>
<path id="XMLID_7_" class="st19" d="M127.8,351.8l36.3-21l0-9.3l-37,21.4C125.9,347.1,126.6,349.8,127.8,351.8z"/>
<path id="XMLID_6_" class="st28" d="M75.9,322.2l53,30.6c-1.2-2.6-1.2-5.7,0-9.3l-53-30.6C74.8,316.7,74.8,319.8,75.9,322.2z"/>
<polygon id="XMLID_5_" class="st29" points="75.9,312.9 128.9,343.5 165.9,322.1 112.9,291.5 "/>
</svg>
