<?xml version="1.0" encoding="utf-8"?>
<!-- Generator: Adobe Illustrator 27.8.1, SVG Export Plug-In . SVG Version: 6.00 Build 0)  -->
<svg version="1.1" id="Layer_1" xmlns="http://www.w3.org/2000/svg" xmlns:xlink="http://www.w3.org/1999/xlink" x="0px" y="0px"
	 viewBox="0 0 500 500" style="enable-background:new 0 0 500 500;" xml:space="preserve">
<path d="M295.2,182.6h-25.8c-5.5,0-10-4.5-10-10s4.5-10,10-10h25.8c5.5,0,10,4.5,10,10S300.7,182.6,295.2,182.6z"/>
<path d="M295.2,234.2h-25.8c-5.5,0-10-4.5-10-10s4.5-10,10-10h25.8c5.5,0,10,4.5,10,10S300.7,234.2,295.2,234.2z"/>
<path d="M295.2,285.8h-129c-5.5,0-10-4.5-10-10s4.5-10,10-10h129c5.5,0,10,4.5,10,10S300.7,285.8,295.2,285.8z"/>
<path d="M295.2,337.4h-129c-5.5,0-10-4.5-10-10s4.5-10,10-10h129c5.5,0,10,4.5,10,10S300.7,337.4,295.2,337.4z"/>
<path d="M385.5,401.9c-26.9,0-48.7-21.8-48.7-48.7V172.6c0-5.5,4.5-10,10-10s10,4.5,10,10v180.6c0,15.8,12.9,28.7,28.7,28.7
	c5.5,0,10,4.5,10,10S391,401.9,385.5,401.9z"/>
<path d="M385.5,401.9H153.2c-26.9,0-48.7-21.8-48.7-48.7V127.4c0-16.2,13.2-29.4,29.4-29.4h193.5c16.2,0,29.4,13.2,29.4,29.4v45.2
	c0,5.5-4.5,10-10,10s-10-4.5-10-10v-45.2c0-5.2-4.2-9.4-9.4-9.4H133.9c-5.2,0-9.4,4.2-9.4,9.4v225.8c0,15.8,12.9,28.7,28.7,28.7
	h232.2c5.5,0,10,4.5,10,10S391,401.9,385.5,401.9z"/>
<path d="M217.7,234.2h-51.6c-5.5,0-10-4.5-10-10v-51.6c0-5.5,4.5-10,10-10h51.6c5.5,0,10,4.5,10,10v51.6
	C227.7,229.7,223.3,234.2,217.7,234.2z M176.1,214.2h31.6v-31.6h-31.6V214.2z"/>
</svg>
