<?xml version="1.0" encoding="utf-8"?>
<!-- Generator: Adobe Illustrator 27.8.1, SVG Export Plug-In . SVG Version: 6.00 Build 0)  -->
<svg version="1.1" id="Layer_1" xmlns="http://www.w3.org/2000/svg" xmlns:xlink="http://www.w3.org/1999/xlink" x="0px" y="0px"
	 viewBox="0 0 500 500" style="enable-background:new 0 0 500 500;" xml:space="preserve">
<style type="text/css">
	.st0{fill:#18C964;}
</style>
<path class="st0" d="M141.78,304.66c-9.8,0-18.36-7.21-19.78-17.2c-1.55-10.94,6.06-21.06,17-22.61c4.39-0.62,8.87-1.22,13.31-1.77
	c10.96-1.37,20.96,6.4,22.33,17.36c1.37,10.96-6.4,20.96-17.36,22.33c-4.23,0.53-8.49,1.1-12.67,1.69
	C143.66,304.59,142.72,304.66,141.78,304.66z"/>
<path class="st0" d="M345.36,302.92c-0.83,0-1.67-0.05-2.51-0.16c-61.56-7.72-123.99-7.72-185.56,0
	c-10.96,1.37-20.96-6.4-22.33-17.36c-1.38-10.96,6.4-20.96,17.35-22.33c64.87-8.14,130.65-8.14,195.51,0
	c10.96,1.38,18.73,11.37,17.36,22.33C363.91,295.52,355.3,302.92,345.36,302.92z"/>
<path class="st0" d="M147.97,378.18c-0.61,0-1.22-0.03-1.84-0.08c-11-1-19.1-10.73-18.1-21.73l6.86-75.26
	c1-11,10.74-19.1,21.73-18.1c11,1,19.1,10.73,18.1,21.73l-6.86,75.26C166.92,370.38,158.19,378.18,147.97,378.18z"/>
<path class="st0" d="M358.35,304.66c-0.93,0-1.88-0.07-2.83-0.2c-4.19-0.59-8.45-1.16-12.67-1.69
	c-10.96-1.37-18.73-11.37-17.36-22.33c1.37-10.96,11.38-18.74,22.33-17.36c4.43,0.55,8.91,1.15,13.31,1.77
	c10.94,1.55,18.55,11.67,17,22.61C376.72,297.44,368.15,304.66,358.35,304.66z"/>
<path class="st0" d="M352.17,378.18c-10.23,0-18.95-7.8-19.89-18.19l-6.86-75.26c-1-11,7.1-20.73,18.1-21.73
	c10.99-1,20.73,7.1,21.73,18.1l6.86,75.26c1,11-7.1,20.73-18.1,21.73C353.39,378.15,352.78,378.18,352.17,378.18z"/>
<path class="st0" d="M336.12,445.84h-172.1c-11.3,0-22.14-4.78-29.75-13.12c-7.62-8.34-11.4-19.58-10.37-30.83l4.13-45.52
	c1-11,10.72-19.11,21.73-18.11c11,1,19.11,10.73,18.11,21.73l-4.13,45.52c-0.01,0.09-0.01,0.14,0.07,0.24
	c0.08,0.09,0.13,0.09,0.22,0.09h172.1c0.09-0.01,0.14-0.01,0.22-0.11s0.07-0.15,0.07-0.22l-4.13-45.53c-1-11,7.11-20.73,18.11-21.73
	c10.99-1,20.73,7.11,21.73,18.11l4.13,45.52c0.98,10.71-2.28,21.17-9.17,29.44c-6.89,8.27-16.59,13.36-27.31,14.34
	C338.56,445.79,337.33,445.84,336.12,445.84z"/>
<path class="st0" d="M371.86,378.18c-0.01,0-0.02,0-0.03,0h-19.67c-11.05,0-20-8.95-20-20s8.95-20,20-20h19.68c0,0,0.01,0,0.01,0
	c5.51,0,10.68-2.14,14.57-6.03c3.89-3.89,6.04-9.06,6.04-14.56V204.02c0-9.88-6.77-18.07-16.1-19.46
	c-11.16-1.67-22.5-3.13-33.72-4.35c-10.98-1.19-18.92-11.06-17.72-22.05c1.19-10.98,11.06-18.91,22.04-17.72
	c11.75,1.28,23.63,2.81,35.31,4.56c14.12,2.11,26.96,9.33,36.18,20.33c9.03,10.78,14.01,24.53,14.01,38.7v113.56
	c-0.01,16.21-6.32,31.43-17.77,42.87C403.25,371.88,388.04,378.18,371.86,378.18z"/>
<path class="st0" d="M147.94,378.18h-19.67c-33.41,0-60.6-27.18-60.6-60.6V204.02c0-14.17,4.98-27.92,14.01-38.7
	c9.21-10.99,22.06-18.21,36.18-20.33c11.69-1.75,23.57-3.28,35.31-4.56c10.98-1.2,20.85,6.74,22.04,17.72
	c1.19,10.98-6.74,20.85-17.72,22.05c-11.22,1.22-22.56,2.68-33.72,4.35c-9.33,1.4-16.1,9.58-16.1,19.46v113.56
	c0,11.36,9.24,20.6,20.6,20.6h19.67c11.05,0,20,8.95,20,20S158.99,378.18,147.94,378.18z"/>
<path class="st0" d="M344.82,180.32c-0.72,0-1.45-0.04-2.19-0.12c-61.42-6.68-123.71-6.68-185.13,0
	c-10.99,1.19-20.85-6.74-22.05-17.72c-1.19-10.98,6.74-20.85,17.72-22.05c64.29-7,129.49-7,193.78,0
	c10.98,1.19,18.91,11.07,17.72,22.05C363.56,172.73,354.89,180.32,344.82,180.32z"/>
<path class="st0" d="M344.79,180.32c-11.05,0-20-8.95-20-20V94.3c0-0.16-0.14-0.3-0.3-0.3H175.64c-0.16,0-0.3,0.14-0.3,0.3v66.02
	c0,11.05-8.95,20-20,20s-20-8.95-20-20V94.3c0-22.22,18.08-40.3,40.3-40.3H324.5c22.22,0,40.3,18.08,40.3,40.3v66.02
	C364.79,171.36,355.84,180.32,344.79,180.32z"/>
<path class="st0" d="M358.47,243h-0.14c-11.05,0-20-8.95-20-20v-0.14c0-11.05,8.95-20,20-20h0.14c11.05,0,20,8.95,20,20V223
	C378.47,234.05,369.52,243,358.47,243z"/>
<path class="st0" d="M304.34,243h-0.14c-11.05,0-20-8.95-20-20v-0.14c0-11.05,8.95-20,20-20h0.14c11.05,0,20,8.95,20,20V223
	C324.34,234.05,315.39,243,304.34,243z"/>
</svg>
