<?xml version="1.0" encoding="utf-8"?>
<!-- Generator: Adobe Illustrator 19.0.0, SVG Export Plug-In . SVG Version: 6.00 Build 0)  -->
<svg version="1.1" id="Layer_1" xmlns="http://www.w3.org/2000/svg" xmlns:xlink="http://www.w3.org/1999/xlink" x="0px" y="0px"
	 viewBox="0 100 560 362" style="enable-background:new 0 100 560 362;" xml:space="preserve">
<style type="text/css">
	.st0{fill:#FFFFFF;stroke:#2647A3;stroke-linecap:round;stroke-linejoin:round;}
	.st1{fill:#BADBF7;stroke:#2647A3;stroke-linecap:round;stroke-linejoin:round;}
	.st2{fill:#5190F5;stroke:#2647A3;stroke-linecap:round;stroke-linejoin:round;}
	.st3{fill:none;stroke:#2647A3;stroke-linecap:round;stroke-linejoin:round;}
	.st4{fill:none;stroke:#2647A3;stroke-linecap:round;stroke-linejoin:round;stroke-dasharray:4.9987,4.9987;}
	.st5{fill:none;stroke:#2647A3;stroke-linecap:round;stroke-linejoin:round;stroke-dasharray:5.0198,5.0198;}
	.st6{fill:#D4DEE6;stroke:#2647A3;stroke-width:2;stroke-linecap:round;stroke-linejoin:round;}
	.st7{fill:#FFFFFF;stroke:#2647A3;stroke-width:2;stroke-linecap:round;stroke-linejoin:round;}
	.st8{fill:#BADBF7;stroke:#2647A3;stroke-width:2;stroke-linecap:round;stroke-linejoin:round;}
	.st9{fill:none;stroke:#2647A3;stroke-width:2;stroke-linecap:round;stroke-linejoin:round;}
	.st10{fill:#F9F9F9;stroke:#2647A3;stroke-linecap:round;stroke-linejoin:round;}
	.st11{fill:#2647A3;}
	.st12{fill:#FDFDFD;}
	.st13{fill:#EFF2F4;}
	.st14{fill:#FF879F;}
	.st15{fill:#D2DFE4;}
	.st16{fill:#F76D8E;}
	.st17{fill:#FFFFFF;}
	.st18{fill:#FDDAD3;}
	.st19{fill:#D4DEE6;}
	.st20{fill:#E8EFF5;stroke:#2647A3;stroke-linecap:round;stroke-linejoin:round;}
	.st21{fill:#98D3FD;stroke:#2647A3;stroke-linecap:round;stroke-linejoin:round;}
	.st22{fill:#FFD373;stroke:#2647A3;stroke-linecap:round;stroke-linejoin:round;}
	.st23{fill:#64B05B;stroke:#2647A3;stroke-linecap:round;stroke-linejoin:round;}
	.st24{fill:#00CBFE;}
	.st25{fill:#018ECB;}
	.st26{fill:#FDFDFE;}
	.st27{fill:#090909;}
	.st28{fill:#FDF7E7;}
	.st29{fill:#FEF3D5;}
	.st30{fill:#FA6CD0;}
</style>
<path id="XMLID_72_" class="st0" d="M306.7,295.3c-1.2,0-2.2,0.1-3.3,0.3c-3.8-7.8-11.8-13.2-20.9-13.2c-12.3,0-22.2,9.4-23.3,21.3
	c-0.7-0.1-1.4-0.2-2.1-0.2c-7,0-12.7,5.7-12.7,12.7c0,7,5.7,12.7,12.7,12.7c4.3,0,45.5,0,49.6,0c9.4,0,16.9-7.5,16.9-16.9
	C323.6,302.8,316,295.3,306.7,295.3z"/>
<polygon id="XMLID_71_" class="st1" points="291.5,309.3 291.5,317.2 276.3,317.2 276.3,309.3 272.9,309.3 272.9,320.3 294.9,320.3 
	294.9,309.3 "/>
<polygon id="XMLID_70_" class="st1" points="290.5,305.3 283.9,298.7 277.4,305.3 279.2,307 282.6,303.7 282.6,311.7 285.3,311.7 
	285.3,303.7 288.7,307 "/>
<rect id="XMLID_69_" x="217.7" y="339.4" class="st0" width="132.4" height="6.8"/>
<rect id="XMLID_68_" x="217.7" y="339.4" class="st2" width="65.2" height="6.8"/>
<g id="XMLID_67_">
	<g id="XMLID_201_">
		<polyline id="XMLID_209_" class="st3" points="375.6,360.5 375.6,362.9 373.2,362.9 		"/>
		<line id="XMLID_208_" class="st4" x1="368.4" y1="362.9" x2="197.1" y2="362.9"/>
		<polyline id="XMLID_207_" class="st3" points="194.7,362.9 192.3,362.9 192.3,360.5 		"/>
		<line id="XMLID_206_" class="st5" x1="192.3" y1="355.7" x2="192.3" y2="261.2"/>
		<polyline id="XMLID_205_" class="st3" points="192.3,258.8 192.3,256.4 194.7,256.4 		"/>
		<line id="XMLID_204_" class="st4" x1="199.5" y1="256.4" x2="370.8" y2="256.4"/>
		<polyline id="XMLID_203_" class="st3" points="373.2,256.4 375.6,256.4 375.6,258.8 		"/>
		<line id="XMLID_202_" class="st5" x1="375.6" y1="263.7" x2="375.6" y2="358.1"/>
	</g>
</g>
<path id="XMLID_66_" class="st6" d="M431.5,354.8c0,1.6-1.3,2.9-2.9,2.9h-34.4c-1.6,0-2.9-1.3-2.9-2.9v-52.6c0-1.6,1.3-2.9,2.9-2.9
	h34.4c1.6,0,2.9,1.3,2.9,2.9V354.8z"/>
<path id="XMLID_65_" class="st7" d="M426.4,359.2c0,1.6-1.3,2.9-2.9,2.9h-34.4c-1.6,0-2.9-1.3-2.9-2.9v-52.6c0-1.6,1.3-2.9,2.9-2.9
	h24.1l13,13L426.4,359.2L426.4,359.2z"/>
<path id="XMLID_64_" class="st8" d="M413.3,312.6c0,2.3,1.8,4.1,4.1,4.1h8.9l-13-13V312.6z"/>
<g>
	<line id="XMLID_63_" class="st9" x1="390.5" y1="322.8" x2="413" y2="322.8"/>
	<line id="XMLID_62_" class="st9" x1="390.5" y1="326.7" x2="422.1" y2="326.7"/>
	<line id="XMLID_61_" class="st9" x1="390.5" y1="330.7" x2="422.1" y2="330.7"/>
	<line id="XMLID_60_" class="st9" x1="390.5" y1="334.6" x2="422.1" y2="334.6"/>
	<line id="XMLID_59_" class="st9" x1="390.5" y1="338.5" x2="422.1" y2="338.5"/>
	<line id="XMLID_58_" class="st9" x1="390.5" y1="342.5" x2="422.1" y2="342.5"/>
	<line id="XMLID_57_" class="st9" x1="390.5" y1="346.4" x2="422.1" y2="346.4"/>
	<line id="XMLID_56_" class="st9" x1="390.5" y1="350.4" x2="422.1" y2="350.4"/>
	<line id="XMLID_55_" class="st9" x1="390.5" y1="354.3" x2="422.1" y2="354.3"/>
</g>
<path id="XMLID_44_" class="st0" d="M220.3,322.5l-0.9-8.4c-0.2-1.4-1.4-2.6-3-2.4c-1.4,0.2-2.6,1.4-2.4,3l0.2,1.8
	c-15.2-10.4-34.2-6.4-35-6.2c-1.4,0.3-2.4,1.7-2,3.2c0.3,1.4,1.7,2.4,3.2,2c0.2,0,17.2-3.8,30.5,5.2l-2,0.2c-1.4,0.2-2.6,1.4-2.4,3
	c0.1,1.4,1.4,2.4,2.7,2.4c0.1,0,0.2,0,0.3,0l8.4-0.9C219.3,325.3,220.4,323.9,220.3,322.5z"/>
<path id="XMLID_2_" class="st0" d="M244.6,271.9l-5.5-6.4c-0.1-0.1-0.1-0.1-0.2-0.2c-1-0.9-2.6-1-3.6-0.1c-1.2,1-1.2,2.7-0.3,3.8
	l1.3,1.5c-15.8-2.7-25.5-17.2-25.6-17.3c-0.8-1.3-2.5-1.6-3.7-0.7c-1.3,0.8-1.6,2.5-0.7,3.7c0.5,0.7,11.4,16.7,29.6,19.8l-1.4,1.2
	c-1.2,1-1.2,2.7-0.3,3.8c1,1.2,2.7,1.2,3.8,0.3l6.4-5.5C245.4,274.8,245.5,273.1,244.6,271.9z"/>
<path id="XMLID_43_" class="st10" d="M338.3,317.7l0.9-8.4c0.2-1.4,1.4-2.6,3-2.4c1.4,0.2,2.6,1.4,2.4,3l-0.2,1.8
	c15.2-10.4,34.2-6.4,35-6.2c1.4,0.3,2.4,1.7,2,3.2c-0.3,1.4-1.7,2.4-3.2,2c-0.2,0-17.2-3.8-30.5,5.2l2,0.2c1.4,0.2,2.6,1.4,2.4,3
	c-0.1,1.4-1.4,2.4-2.7,2.4c-0.1,0-0.2,0-0.3,0l-8.4-0.9C339.3,320.5,338.2,319.2,338.3,317.7z"/>
<path id="XMLID_1_" class="st0" d="M310.3,275.3l-4.3-7.3c-0.7-1.3-0.4-3,1-3.7c1.3-0.7,3-0.4,3.7,1l0.9,1.6
	c6.1-17.4,23.8-25.3,24.6-25.7c1.3-0.6,3,0,3.5,1.4c0.6,1.3,0,3-1.4,3.5c-0.2,0.1-16.1,7.1-21.5,22.2l1.7-1c1.3-0.7,3-0.4,3.7,1
	c0.7,1.1,0.3,2.7-0.8,3.5c-0.1,0.1-0.2,0.1-0.2,0.2l-7.3,4.3C312.8,277,311.2,276.6,310.3,275.3z"/>
<g>
	<path class="st11" d="M403.3,280.8c-0.5,0-1,0-1.6,0c-0.3-0.2-0.6-0.4-0.6-0.8c0.1-0.5,0.4-0.8,1-0.7c0.2,0,0.3,0,0.5,0
		c2.1,0,3.8-1.7,3.8-3.8c0-10.4,0-20.7,0-31.1c0-1.5-1.1-2.6-2.6-2.6c-1.5,0-3,0-4.5,0c-3.2,0-5.6-2.3-5.6-5.6c0-1.4,0-2.8,0-4.2
		c0-1.9-1-2.9-2.9-2.9c-7.7,0-15.3,0-23,0c-0.2,0-0.4,0-0.6,0c-0.4,0-0.7,0-1.1,0c-2,0.4-3.2,1.9-3.2,3.9c0,6,0,12,0,17.9
		c0,0.1,0,0.1,0,0.2c0,0.2,0.1,0.3,0.3,0.3c0.7,0,1.5,0,2.2,0c0.4,0,0.8,0,1.3,0c0.5,0,0.9,0.2,1,0.8c-0.2,0.6-0.4,0.8-1.1,0.8
		c-1.6,0-3.3,0-4.9,0c-0.7,0-1.4,0-2,0c-1.8,0.1-3.4,1.6-3.4,3.4c0,3.6,0,7.2,0,10.8c0,1.7,1.3,3.1,3,3.4c0.8,0.1,1.7,0.1,2.5,0
		c0.1,0,0.2,0,0.4,0c7.9,0,15.7,0,23.6,0c2.3,0,3.8-1.5,3.8-3.8c0-3.4,0-6.7,0-10.1c0-0.3,0-0.6-0.1-0.9c-0.4-1.8-1.8-2.9-3.7-2.9
		c-5.1,0-10.2,0-15.3,0c-0.8,0-1-0.1-1.2-0.8c0.1-0.5,0.4-0.8,1-0.8c5.2,0,10.4,0,15.7,0c1.3,0,2.5,0.4,3.4,1.3
		c0.3,0.2,0.5,0.3,0.8,0.3c3,0,6,0,9,0c0.2,0,0.4,0,0.6,0c0.4,0.1,0.6,0.3,0.6,0.7c0,0.4-0.1,0.7-0.5,0.8c-0.2,0.1-0.4,0.1-0.7,0.1
		c-2.5,0-5.1,0-7.6,0c-0.2,0-0.4,0-0.6,0c-0.2,0-0.3,0.1-0.2,0.3c0.4,1,0.3,2,0.3,3c0,0.3,0.1,0.4,0.4,0.4c0.6,0,1.2,0,1.8,0
		c2,0,4.1,0,6.1,0c0.7,0,1.1,0.6,0.8,1.1c-0.2,0.4-0.5,0.4-0.9,0.4c-2.6,0-5.2,0-7.7,0c-0.3,0-0.5,0.1-0.5,0.4c0,0.9,0,1.8,0,2.7
		c0,0.4,0.1,0.5,0.5,0.5c2.5,0,5,0,7.5,0c0.2,0,0.4,0,0.6,0c0.4,0.1,0.6,0.4,0.6,0.8c0,0.4-0.2,0.7-0.6,0.7c-0.2,0-0.4,0-0.6,0
		c-2.5,0-5,0-7.5,0c-0.4,0-0.5,0.1-0.5,0.5c0,0.8,0.1,1.7,0,2.5c-0.2,1.6-1.1,2.8-2.4,3.7c-1.1,0.6-2.2,0.7-3.5,0.7
		c-7.2,0-14.4,0-21.6,0c-0.3,0-0.6,0-0.5,0.5c0,0.8,0,1.6,0,2.4c0,2.5,1.7,4.2,4.3,4c0.2,0,0.4,0,0.7,0c10.2,0,20.4,0,30.7,0
		c0.6,0,1,0.1,1.1,0.7c0,0.4-0.3,0.6-0.5,0.8c-11.1,0-22.3,0-33.4,0c-0.1-0.2-0.3-0.1-0.4-0.2c-2.4-0.7-3.9-2.6-4-5
		c0-0.9,0-1.8,0-2.7c0-0.4-0.1-0.5-0.5-0.5c-0.3,0-0.6,0-0.8,0c-2.5,0-4.4-1.5-5.1-3.9c0-0.1,0-0.3-0.2-0.4c0-4.1,0-8.3,0-12.4
		c0.2-0.1,0.2-0.3,0.2-0.4c0.4-1.5,1.3-2.5,2.7-3.2c1-0.5,2.2-0.6,3.3-0.5c0.4,0,0.5-0.1,0.5-0.5c0-3.1,0-6.2,0-9.4c0-3,0-6,0-9
		c0-2.3,1.6-4.2,3.8-4.9c0.2-0.1,0.5-0.1,0.7-0.2c9.1,0,18.1,0,27.2,0c0,0,0.1,0.1,0.1,0.1c1.5,0.2,2.7,0.9,3.7,1.9
		c3.1,3,6.1,6.1,9.2,9.1c0.4,0.4,0.8,0.9,1.2,1.5c0.4,0.7,0.6,1.5,0.9,2.3c0,11.3,0,22.7,0,34c-0.2,0.1-0.1,0.3-0.2,0.4
		c-0.5,1.8-1.7,3-3.4,3.7C404.1,280.6,403.7,280.7,403.3,280.8z M405.5,240.5c-0.2-0.6-9.9-10.2-10.4-10.4c0.4,0.9,0.3,1.8,0.3,2.6
		c0,1.1,0,2.3,0,3.4c0,2.4,1.6,4,4,4c1.5,0,3,0,4.5,0C404.4,240.2,404.9,240.2,405.5,240.5z"/>
	<path class="st12" d="M399.2,280.8c0.3-0.2,0.5-0.5,0.5-0.8c0.5,0,1,0,1.5,0c0,0.4,0.2,0.6,0.6,0.8
		C400.9,280.8,400.1,280.8,399.2,280.8z"/>
	<path class="st13" d="M401.2,279.9c-0.5,0-1,0-1.5,0c-0.2-0.6-0.6-0.7-1.1-0.7c-10.2,0-20.4,0-30.7,0c-0.2,0-0.4,0-0.7,0
		c0-0.2-0.2-0.3-0.3-0.4c-1.1-1-1.5-2.2-1.5-3.6c0-0.5,0.2-0.7,0.7-0.7c6.1,0,12.3,0,18.4,0c0.6,0,1.2-0.1,1.8-0.3
		c1.1-0.6,2-1.3,2.3-2.6c1.3-0.9,2.3-2.1,2.4-3.7c0.1-0.8,0.1-1.7,0-2.5c0-0.4,0.1-0.5,0.5-0.5c2.5,0,5,0,7.5,0c0.2,0,0.4,0,0.6,0
		c0.4-0.1,0.6-0.3,0.6-0.7c0-0.4-0.2-0.7-0.6-0.8c-0.2,0-0.4,0-0.6,0c-2.5,0-5,0-7.5,0c-0.3,0-0.5-0.1-0.5-0.5c0-0.9,0-1.8,0-2.7
		c0-0.4,0.1-0.4,0.5-0.4c2.6,0,5.2,0,7.7,0c0.4,0,0.7-0.1,0.9-0.4c0.3-0.6-0.1-1.1-0.8-1.1c-2,0-4.1,0-6.1,0c-0.6,0-1.2,0-1.8,0
		c-0.3,0-0.4,0-0.4-0.4c0-1,0.1-2-0.3-3c-0.1-0.2,0-0.3,0.2-0.3c0.2,0,0.4,0,0.6,0c2.5,0,5.1,0,7.6,0c0.2,0,0.5,0,0.7-0.1
		c0.4-0.1,0.5-0.4,0.5-0.8c0-0.4-0.2-0.6-0.6-0.7c-0.2,0-0.4,0-0.6,0c-3,0-6,0-9,0c-0.3,0-0.6-0.1-0.8-0.3c-1-0.9-2.1-1.3-3.4-1.3
		c-5.2,0-10.4,0-15.7,0c-0.6,0-0.9,0.2-1,0.8c-0.5,0-1,0-1.5,0c-0.1-0.6-0.4-0.8-1-0.8c-0.4,0-0.8,0-1.3,0c0-6.2,0-12.3,0-18.5
		c0-1.4,0.4-2.5,1.4-3.4c0.1-0.1,0.3-0.3,0.4-0.5c0.2,0,0.4,0,0.6,0c7.7,0,15.3,0,23,0c1.9,0,2.9,1,2.9,2.9c0,1.4,0,2.8,0,4.2
		c0,3.2,2.3,5.6,5.6,5.6c1.5,0,3,0,4.5,0c1.5,0,2.6,1.1,2.6,2.6c0,10.4,0,20.7,0,31.1c0,2.1-1.7,3.8-3.8,3.8c-0.2,0-0.3,0-0.5,0
		C401.7,279.2,401.3,279.4,401.2,279.9z M384.7,247.9c-4.8,0-9.6,0-14.4,0c-0.2,0-0.3,0-0.5,0c-0.4,0.1-0.7,0.4-0.7,0.8
		c0,0.4,0.3,0.7,0.7,0.7c0.1,0,0.3,0,0.4,0c9.7,0,19.3,0,29,0c0.1,0,0.3,0,0.4,0c0.4-0.1,0.6-0.4,0.6-0.8c0-0.4-0.2-0.7-0.6-0.8
		c-0.2,0-0.3,0-0.5,0C394.3,247.9,389.5,247.9,384.7,247.9z M380.5,244.3c3.4,0,6.9,0,10.3,0c0.8,0,1.2-0.3,1.2-0.8
		c0-0.5-0.4-0.8-1.2-0.8c-6.8,0-13.7,0-20.5,0c-0.2,0-0.3,0-0.5,0c-0.4,0.1-0.7,0.3-0.7,0.7c0,0.4,0.2,0.7,0.7,0.8
		c0.2,0,0.3,0,0.5,0C373.7,244.3,377.1,244.3,380.5,244.3z"/>
	<path class="st14" d="M367.7,252.2c0.5,0,1,0,1.5,0c0.2,0.7,0.4,0.8,1.2,0.8c5.1,0,10.2,0,15.3,0c1.9,0,3.3,1.1,3.7,2.9
		c0.1,0.3,0.1,0.6,0.1,0.9c0,3.4,0,6.7,0,10.1c0,2.3-1.5,3.8-3.8,3.8c-7.9,0-15.7,0-23.6,0c-0.1,0-0.2,0-0.4,0
		c-0.1-0.1-0.3-0.3-0.4-0.4c-0.9-0.9-1.3-1.9-1.3-3.2c0-3.5,0-7.1,0-10.6c0-0.6,0.2-1.1,0.4-1.6c0.3-0.7,0.8-1.2,1.3-1.7
		c1.6,0,3.3,0,4.9,0C367.3,253,367.5,252.9,367.7,252.2z M369.5,262C369.5,262,369.5,262,369.5,262c0,1.5,0,3,0,4.5c0,0.8,0.3,1,1,1
		c0.9,0,1.8,0,2.7-0.1c1.2-0.1,2.2-0.5,2.9-1.4c1.6-1.9,1.7-4.1,1-6.4c-0.6-2-2.2-3.1-4.3-3.1c-0.7,0-1.5,0-2.2,0
		c-0.9,0-1.1,0.2-1.1,1.1C369.5,259.1,369.5,260.6,369.5,262z M361.6,261.9c0,1.6,0,3.2,0,4.7c0,0.4,0.1,0.7,0.6,0.9
		c0.5,0.2,1-0.2,1-0.9c0-1,0-1.9,0-2.9c0-0.3,0.1-0.4,0.4-0.4c0.5,0,1.1,0,1.6,0c1.9,0,3.5-1.6,3.5-3.5c0-1.9-1.5-3.5-3.4-3.5
		c-0.8,0-1.7,0-2.5,0c-0.8,0-1,0.2-1,1.1C361.6,258.9,361.6,260.4,361.6,261.9z M378.8,261.9c0,1.5,0,3.1,0,4.6c0,0.6,0.3,1,0.8,1
		c0.5,0,0.8-0.4,0.8-1c0-1.1,0-2.3,0-3.4c0-0.4,0.1-0.5,0.5-0.5c0.7,0,1.5,0,2.2,0c0.6,0,0.9-0.3,0.9-0.8c0-0.5-0.3-0.8-0.9-0.8
		c-0.8,0-1.5,0-2.3,0c-0.3,0-0.4-0.1-0.4-0.4c0-0.8,0-1.6,0-2.4c0-0.3,0.1-0.4,0.4-0.4c0.8,0,1.7,0,2.5,0c0.6,0,1-0.3,1-0.7
		c0-0.5-0.4-0.8-1-0.8c-1.1,0-2.3,0-3.4,0c-0.8,0-1.1,0.3-1.1,1.1C378.8,258.9,378.8,260.4,378.8,261.9z"/>
	<path class="st15" d="M388.6,271.6c-0.3,1.3-1.2,2-2.3,2.6c-0.5,0.3-1.1,0.3-1.8,0.3c-6.1,0-12.3,0-18.4,0c-0.5,0-0.7,0.1-0.7,0.7
		c0,1.4,0.4,2.6,1.5,3.6c0.1,0.1,0.3,0.2,0.3,0.4c-2.5,0.2-4.3-1.5-4.3-4c0-0.8,0-1.6,0-2.4c0-0.5,0.2-0.5,0.5-0.5
		c7.2,0,14.4,0,21.6,0C386.3,272.3,387.5,272.2,388.6,271.6z"/>
	<path class="st16" d="M361.7,253.1c-0.5,0.6-1,1-1.3,1.7c-0.2,0.5-0.4,1.1-0.4,1.6c0,3.5,0,7.1,0,10.6c0,1.3,0.4,2.3,1.3,3.2
		c0.2,0.1,0.3,0.3,0.4,0.4c-0.8,0-1.7,0.1-2.5,0c-1.7-0.3-3-1.7-3-3.4c0-3.6,0-7.2,0-10.8c0-1.8,1.5-3.4,3.4-3.4
		C360.4,253,361.1,253.1,361.7,253.1z"/>
	<path class="st15" d="M367.2,229.1c0,0.2-0.2,0.4-0.4,0.5c-1,0.9-1.4,2.1-1.4,3.4c0,6.2,0,12.3,0,18.5c-0.7,0-1.5,0-2.2,0
		c-0.2,0-0.3-0.1-0.3-0.3c0-0.1,0-0.1,0-0.2c0-6,0-12,0-17.9c0-2.1,1.2-3.6,3.2-3.9C366.5,229,366.9,229,367.2,229.1z"/>
	<path class="st15" d="M405.5,240.5c-0.6-0.3-1.1-0.3-1.6-0.3c-1.5,0-3,0-4.5,0c-2.4,0-4-1.6-4-4c0-1.1,0-2.3,0-3.4
		c0-0.9,0.1-1.8-0.3-2.6C395.6,230.3,405.2,239.9,405.5,240.5z"/>
	<path class="st11" d="M384.7,247.9c4.8,0,9.6,0,14.5,0c0.2,0,0.4,0,0.5,0c0.4,0.1,0.6,0.4,0.6,0.8c0,0.4-0.2,0.7-0.6,0.8
		c-0.1,0-0.3,0-0.4,0c-9.7,0-19.3,0-29,0c-0.1,0-0.3,0-0.4,0c-0.4-0.1-0.7-0.3-0.7-0.7c0-0.4,0.2-0.7,0.7-0.8c0.2,0,0.3,0,0.5,0
		C375.1,247.9,379.9,247.9,384.7,247.9z"/>
	<path class="st11" d="M380.5,244.3c-3.4,0-6.8,0-10.2,0c-0.2,0-0.3,0-0.5,0c-0.4-0.1-0.7-0.3-0.7-0.8c0-0.4,0.3-0.7,0.7-0.7
		c0.2,0,0.3,0,0.5,0c6.8,0,13.7,0,20.5,0c0.8,0,1.2,0.2,1.2,0.8c0,0.5-0.4,0.8-1.2,0.8C387.4,244.3,383.9,244.3,380.5,244.3z"/>
	<path class="st11" d="M369.5,262c0-1.5,0-2.9,0-4.4c0-0.9,0.2-1.1,1.1-1.1c0.7,0,1.5,0,2.2,0c2.1,0,3.7,1.1,4.3,3.1
		c0.7,2.3,0.6,4.5-1,6.4c-0.7,0.9-1.7,1.4-2.9,1.4c-0.9,0-1.8,0.1-2.7,0.1c-0.8,0-1-0.2-1-1C369.5,265,369.5,263.5,369.5,262
		C369.5,262,369.5,262,369.5,262z M371,262.1C371.1,262.1,371.1,262.1,371,262.1c0,1.1,0,2.2,0,3.3c0,0.4,0.1,0.6,0.6,0.6
		c0.4-0.1,0.8,0,1.2,0c1.3,0,2.1-0.6,2.6-1.7c0.6-1.4,0.6-2.9,0.1-4.3c-0.4-1-1.2-1.6-2.3-1.7c-0.6,0-1.1,0-1.7,0
		c-0.4,0-0.5,0.1-0.5,0.5C371.1,259.7,371,260.9,371,262.1z"/>
	<path class="st11" d="M361.6,261.9c0-1.5,0-3,0-4.5c0-0.8,0.2-1.1,1-1.1c0.8,0,1.7,0,2.5,0c1.9,0.1,3.4,1.6,3.4,3.5
		c0,1.9-1.5,3.4-3.5,3.5c-0.5,0-1.1,0-1.6,0c-0.3,0-0.4,0.1-0.4,0.4c0,1,0,1.9,0,2.9c0,0.7-0.5,1-1,0.9c-0.4-0.1-0.6-0.4-0.6-0.9
		C361.6,265,361.6,263.4,361.6,261.9z M363.2,259.8C363.2,259.8,363.2,259.8,363.2,259.8c0,0.5,0,1.1,0,1.6c0,0.3,0,0.4,0.3,0.4
		c0.6,0,1.1,0,1.7,0c1-0.1,1.8-0.9,1.8-2c0-1-0.8-1.8-1.8-1.9c-0.6,0-1.1,0-1.7,0c-0.3,0-0.4,0.1-0.4,0.4
		C363.2,258.7,363.2,259.2,363.2,259.8z"/>
	<path class="st11" d="M378.8,261.9c0-1.5,0-3,0-4.5c0-0.8,0.3-1.1,1.1-1.1c1.1,0,2.3,0,3.4,0c0.6,0,1,0.3,1,0.8
		c0,0.5-0.4,0.7-1,0.7c-0.8,0-1.7,0-2.5,0c-0.3,0-0.4,0.1-0.4,0.4c0,0.8,0,1.6,0,2.4c0,0.3,0.1,0.4,0.4,0.4c0.8,0,1.5,0,2.3,0
		c0.6,0,0.9,0.3,0.9,0.8c0,0.5-0.3,0.8-0.9,0.8c-0.7,0-1.5,0-2.2,0c-0.4,0-0.5,0.1-0.5,0.5c0,1.1,0,2.3,0,3.4c0,0.6-0.3,1-0.8,1
		c-0.5,0-0.8-0.4-0.8-1C378.8,265,378.8,263.4,378.8,261.9z"/>
	<path class="st14" d="M371,262.1c0-1.2,0-2.3,0-3.5c0-0.4,0.1-0.5,0.5-0.5c0.6,0,1.1,0,1.7,0c1.1,0.1,1.9,0.7,2.3,1.7
		c0.6,1.4,0.6,2.9-0.1,4.3c-0.5,1.1-1.4,1.7-2.6,1.7c-0.4,0-0.8,0-1.2,0c-0.5,0.1-0.6-0.1-0.6-0.6
		C371.1,264.3,371.1,263.2,371,262.1C371.1,262.1,371.1,262.1,371,262.1z"/>
	<path class="st14" d="M363.2,259.8c0-0.5,0-1,0-1.6c0-0.3,0.1-0.4,0.4-0.4c0.6,0,1.1,0,1.7,0c1,0.1,1.8,0.9,1.8,1.9
		c0,1-0.8,1.9-1.8,2c-0.6,0-1.1,0-1.7,0c-0.3,0-0.3-0.1-0.3-0.4C363.2,260.8,363.2,260.3,363.2,259.8
		C363.2,259.8,363.2,259.8,363.2,259.8z"/>
</g>
<path class="st11" d="M285.4,198.2c0.2-0.1,0.2-0.2,0.2-0.4c0.8-2.5,2.7-3.8,5.3-3.8c13.9,0,27.8,0,41.7,0c4.7,0,9.4,0,14.1,0
	c3.1,0,4.8,1.3,5.7,4.3c0,0,0.1,0,0.1,0.1c0,11.4,0,22.8,0,34.2c-0.2,0.1-0.2,0.3-0.2,0.5c-0.7,2.2-2.6,3.7-4.9,3.7
	c-7.4,0-14.8,0-22.2,0c-0.9,0-1.3-0.4-1.5-1.3c0.2-1,0.6-1.3,1.7-1.3c7.2,0,14.4,0,21.6,0c1.9,0,2.9-1,2.9-3c0-10.5,0-21.1,0-31.6
	c0-1.9-1-3-2.9-3c-18.7,0-37.3,0-56,0c-1.9,0-3,1-3,2.9c0,10.5,0,21.1,0,31.6c0,2,1,3,3,3c7.2,0,14.4,0,21.6,0
	c1.1,0,1.5,0.2,1.8,1.3c-0.3,1.1-0.6,1.3-1.8,1.3c-7.2,0-14.3,0-21.5,0c-2.9,0-4.6-1.3-5.6-4c0-0.1,0-0.2-0.1-0.2
	C285.4,221.1,285.4,209.7,285.4,198.2z"/>
<path class="st17" d="M314.3,235.5c-0.3-1.1-0.6-1.3-1.8-1.3c-7.2,0-14.4,0-21.6,0c-2,0-3-1-3-3c0-10.5,0-21.1,0-31.6
	c0-1.9,1-2.9,3-2.9c18.7,0,37.3,0,56,0c1.9,0,2.9,1,2.9,3c0,10.5,0,21.1,0,31.6c0,1.9-1,3-2.9,3c-7.2,0-14.4,0-21.6,0
	c-1.1,0-1.5,0.3-1.7,1.3c-1.1,0-2.2,0-3.3,0c-0.2-0.9-0.7-1.3-1.4-1.3c-0.7,0-1.1,0.5-1.3,1.3C316.5,235.5,315.4,235.5,314.3,235.5z
	 M290.6,215.3c0,4.8,0,9.6,0,14.3c0,1.5,0.4,1.9,1.9,1.9c8.1,0,16.2,0,24.4,0c1.4,0,1.8-0.4,1.8-1.8c0-9.5,0-19.1,0-28.6
	c0-1.4-0.4-1.8-1.8-1.8c-8.1,0-16.3,0-24.4,0c-1.4,0-1.8,0.4-1.8,1.8C290.6,205.7,290.6,210.5,290.6,215.3z M334.3,219.5
	c3.7,0,7.4,0,11.1,0c0.3,0,0.5,0,0.8,0c0.7-0.1,1.1-0.7,1.1-1.4c-0.1-0.8-0.6-1.2-1.7-1.2c-7.5,0-15,0-22.5,0
	c-1.2,0-1.8,0.5-1.8,1.3c0,0.9,0.6,1.3,1.8,1.3C326.9,219.5,330.6,219.5,334.3,219.5z M334.3,214.3c3.7,0,7.4,0,11.1,0
	c0.2,0,0.5,0,0.7,0c0.7-0.1,1.2-0.7,1.1-1.4c0-0.8-0.6-1.2-1.7-1.2c-7.5,0-15.1,0-22.6,0c-0.3,0-0.6,0-0.8,0.1
	c-0.6,0.2-0.9,0.7-0.9,1.3c0,0.6,0.4,1,0.9,1.2c0.3,0.1,0.6,0.1,0.8,0.1C326.8,214.3,330.6,214.3,334.3,214.3z M334.3,209
	c2.6,0,5.2,0,7.7,0c1.3,0,2.6,0,3.9,0c0.8,0,1.4-0.6,1.3-1.4c0-0.8-0.6-1.2-1.6-1.2c-7.6,0-15.2,0-22.7,0c-0.3,0-0.5,0-0.8,0.1
	c-0.6,0.2-0.9,0.8-0.9,1.3c0.1,0.6,0.4,1,1,1.2c0.3,0.1,0.5,0,0.8,0C326.8,209,330.6,209,334.3,209z M334.3,224.8c2.1,0,4.1,0,6.2,0
	c1.2,0,1.9-0.5,1.8-1.3c0-0.9-0.6-1.3-1.8-1.3c-4.1,0-8.2,0-12.2,0c-0.3,0-0.6,0-0.8,0.1c-0.6,0.1-1,0.6-1,1.2
	c0,0.6,0.4,1.1,0.9,1.3c0.3,0.1,0.5,0.1,0.8,0.1C330.2,224.8,332.2,224.8,334.3,224.8z"/>
<path class="st11" d="M290.6,215.3c0-4.8,0-9.5,0-14.3c0-1.4,0.4-1.8,1.8-1.8c8.1,0,16.3,0,24.4,0c1.4,0,1.8,0.4,1.8,1.8
	c0,9.5,0,19.1,0,28.6c0,1.4-0.4,1.8-1.8,1.8c-8.1,0-16.2,0-24.4,0c-1.5,0-1.9-0.4-1.9-1.9C290.6,224.8,290.6,220.1,290.6,215.3z
	 M316.1,221.7c0-0.3,0-0.5,0-0.7c0-6.2,0-12.3,0-18.5c0-0.5-0.1-0.7-0.7-0.7c-7.2,0-14.3,0-21.5,0c-0.5,0-0.7,0.1-0.7,0.7
	c0,6.2,0,12.3,0,18.5c0,0.2,0,0.4,0,0.7c0.8-0.8,1.6-1.4,2.5-1.8c0.9-0.5,1.8-0.7,2.8-0.9c-3.6-4.1-2.6-9,0.1-11.7
	c2.8-2.8,7.2-3.3,10.6-1.1c1.7,1.1,2.8,2.6,3.4,4.5c0.9,3.1,0.2,5.9-2,8.3C312.8,219.2,314.5,220.1,316.1,221.7z M304.7,228.8
	c3.6,0,7.2,0,10.7,0c0.6,0,0.7-0.2,0.7-0.7c-0.1-3.7-2.9-6.6-6.6-6.7c-3.2-0.1-6.4-0.1-9.6,0c-3.7,0.1-6.5,3-6.6,6.7
	c0,0.6,0.2,0.7,0.7,0.7C297.5,228.8,301.1,228.8,304.7,228.8z M304.6,207.3c-3.2,0-5.8,2.6-5.7,5.7c0,3.1,2.6,5.8,5.8,5.7
	c3.1,0,5.7-2.6,5.7-5.7C310.4,209.9,307.8,207.3,304.6,207.3z"/>
<path class="st11" d="M334.3,219.5c-3.7,0-7.5,0-11.2,0c-1.2,0-1.8-0.4-1.8-1.3c0-0.9,0.6-1.3,1.8-1.3c7.5,0,15,0,22.5,0
	c1.1,0,1.6,0.4,1.7,1.2c0.1,0.7-0.4,1.3-1.1,1.4c-0.3,0-0.5,0-0.8,0C341.7,219.5,338,219.5,334.3,219.5z"/>
<path class="st11" d="M334.3,214.3c-3.7,0-7.5,0-11.2,0c-0.3,0-0.6,0-0.8-0.1c-0.6-0.2-0.9-0.6-0.9-1.2c0-0.6,0.3-1.1,0.9-1.3
	c0.3-0.1,0.6-0.1,0.8-0.1c7.5,0,15.1,0,22.6,0c1.1,0,1.6,0.4,1.7,1.2c0,0.7-0.4,1.3-1.1,1.4c-0.2,0-0.5,0-0.7,0
	C341.7,214.3,338,214.3,334.3,214.3z"/>
<path class="st11" d="M334.3,209c-3.7,0-7.5,0-11.2,0c-0.3,0-0.5,0-0.8,0c-0.6-0.1-0.9-0.6-1-1.2c-0.1-0.6,0.3-1.1,0.9-1.3
	c0.3-0.1,0.5-0.1,0.8-0.1c7.6,0,15.2,0,22.7,0c1,0,1.6,0.4,1.6,1.2c0,0.8-0.5,1.4-1.3,1.4c-1.3,0-2.6,0-3.9,0
	C339.5,209,336.9,209,334.3,209z"/>
<path class="st11" d="M334.3,224.8c-2.1,0-4.1,0-6.2,0c-0.3,0-0.5,0-0.8-0.1c-0.6-0.1-1-0.6-0.9-1.3c0-0.6,0.4-1.1,1-1.2
	c0.3-0.1,0.6-0.1,0.8-0.1c4.1,0,8.2,0,12.2,0c1.2,0,1.8,0.4,1.8,1.3c0,0.9-0.6,1.3-1.8,1.3C338.4,224.8,336.3,224.8,334.3,224.8z"/>
<path class="st17" d="M316.1,221.7c-1.6-1.5-3.3-2.4-5.4-2.8c2.1-2.5,2.9-5.2,2-8.3c-0.6-1.9-1.7-3.4-3.4-4.5
	c-3.3-2.2-7.8-1.7-10.6,1.1c-2.6,2.7-3.6,7.6-0.1,11.7c-1,0.2-1.9,0.5-2.8,0.9c-0.9,0.5-1.7,1.1-2.5,1.8c0-0.3,0-0.5,0-0.7
	c0-6.2,0-12.3,0-18.5c0-0.6,0.2-0.7,0.7-0.7c7.2,0,14.3,0,21.5,0c0.5,0,0.7,0.1,0.7,0.7c0,6.2,0,12.3,0,18.5
	C316.1,221.2,316.1,221.3,316.1,221.7z"/>
<path class="st14" d="M304.7,228.8c-3.6,0-7.2,0-10.7,0c-0.5,0-0.7-0.1-0.7-0.7c0.1-3.7,2.9-6.7,6.6-6.7c3.2-0.1,6.4-0.1,9.6,0
	c3.7,0.1,6.5,3,6.6,6.7c0,0.5-0.1,0.7-0.7,0.7C311.8,228.8,308.2,228.8,304.7,228.8z"/>
<path class="st18" d="M304.6,207.3c3.2,0,5.8,2.6,5.7,5.8c0,3.1-2.6,5.7-5.7,5.7c-3.1,0-5.8-2.6-5.8-5.7
	C298.9,209.9,301.5,207.3,304.6,207.3z"/>
<g>
	<path class="st11" d="M174.7,356.9c2.1,0,4.1,0,6.1,0c1.1,0,1.5,0.3,1.5,1.4c0,0.9,0,1.9-0.3,2.7c-0.5,2-2.2,3.2-4.3,3.3
		c-0.2,0-0.4,0-0.6,0c-10.3,0-20.5,0-30.8,0c-1,0-2-0.1-2.9-0.5c-2-0.9-3.1-2.6-3.1-4.8c0-3.7,0-7.4,0-11.1c0-0.2,0-0.5,0-0.8
		c-0.3,0-0.6,0-0.8,0c-3.6,0-7.2,0-10.9,0c-2.8,0-4.9-1.6-5.5-4.2c-0.1-0.5-0.1-1.1-0.1-1.7c0-10.9,0-21.8,0-32.7c0-0.3,0-0.6,0-0.9
		c-0.3,0-0.6,0-0.8,0c-2.2,0-4.4,0-6.6,0c-0.9,0-1.3-0.4-1.3-1.3c0-0.8,0-1.7,0.3-2.5c0.6-2.2,2.6-3.7,4.9-3.7c1.8,0,3.7,0,5.5,0
		c8.9,0,17.8,0,26.6,0c2.8,0,4.9,1.4,5.5,3.9c0.2,0.6,0.2,1.2,0.2,1.8c0,3.6,0,7.2,0,10.8c0,0.2,0,0.5,0,0.9c0.3,0,0.6,0,0.8,0
		c3.6,0,7.2,0,10.7,0c2.7,0,4.7,1.4,5.5,3.7c0.2,0.7,0.3,1.4,0.3,2.1c0,10.9,0,21.9,0,32.8C174.7,356.2,174.7,356.5,174.7,356.9z
		 M141.2,319.3c1.2,1.5,1.2,3.2,1.2,4.8c0,7,0,14.1,0,21.1c0,4.6,0,9.1,0,13.7c0,2,1.6,3.5,3.5,3.4c1.9-0.1,3.2-1.8,3-3.8
		c-0.2-1.3,0.2-1.6,1.5-1.6c7.2,0,14.3,0,21.5,0c0.3,0,0.5,0,0.8,0c0-0.4,0-0.6,0-0.9c0-8.4,0-16.8,0-25.3c0-2.7,0-5.4,0-8.1
		c0-1.6-1-2.8-2.5-3.2c-0.5-0.1-1-0.1-1.6-0.1c-8.9,0-17.7,0-26.6,0C141.8,319.3,141.6,319.3,141.2,319.3z M123.9,301.9
		c1.1,1.4,1.2,2.9,1.2,4.4c0,11.6,0,23.1,0,34.7c0,0.3,0,0.6,0,1c0.1,1.5,1.4,2.8,3,2.9c2.1,0.1,3.6-1.3,3.6-3.4
		c0-6.2,0-12.4,0-18.5c0-3.4,2.2-5.6,5.5-5.6c5.8,0,11.5,0,17.3-0.1c0.3,0,0.6,0,0.9,0c0-0.3,0-0.6,0-0.8c0-3.6,0-7.2,0-10.7
		c0-2.4-1.3-3.7-3.7-3.7c-9,0-17.9,0-26.9,0C124.5,301.9,124.3,301.9,123.9,301.9z M132.5,344.9c2.7,0,5.2,0,7.7,0
		c0-0.2,0-0.4,0-0.6c0-7.1,0-14.3,0-21.4c0-0.2,0-0.4,0-0.6c-0.1-2-2.1-3.3-4-2.8c-1.8,0.5-2.6,1.5-2.6,3.4c0,5.7,0,11.4,0,17.1
		C133.7,341.7,133.8,343.4,132.5,344.9z M150.1,362.3c0,0,0.1,0,0.2,0c9.1,0,18.1,0,27.2,0c1.8,0,2.9-1.5,2.6-3.3
		c-9.7,0-19.4,0-28.9,0C150.8,360.1,150.5,361.2,150.1,362.3z M116.4,305.3c2.2,0,4.3,0,6.5,0c0-2-1.5-3.4-3.4-3.3
		C117.8,302,116.3,303.5,116.4,305.3z"/>
	<path class="st17" d="M141.2,319.3c0.4,0,0.7,0,0.9,0c8.9,0,17.7,0,26.6,0c0.5,0,1.1,0,1.6,0.1c1.5,0.3,2.5,1.6,2.5,3.2
		c0,2.7,0,5.4,0,8.1c0,8.4,0,16.8,0,25.3c0,0.3,0,0.5,0,0.9c-0.3,0-0.6,0-0.8,0c-7.2,0-14.3,0-21.5,0c-1.3,0-1.6,0.3-1.5,1.6
		c0.2,2-1.1,3.7-3,3.8c-2,0.1-3.5-1.3-3.5-3.4c0-4.6,0-9.1,0-13.7c0-7,0-14.1,0-21.1C142.3,322.5,142.4,320.8,141.2,319.3z
		 M160.2,336.8c2.9,0,5.8,0,8.7,0c0.2,0,0.5,0,0.7,0c0.5-0.1,0.8-0.4,0.8-1c0-0.6-0.3-0.9-0.8-1c-0.2,0-0.5,0-0.7,0
		c-5.8,0-11.5,0-17.3,0c-0.2,0-0.5,0-0.7,0c-0.5,0.1-0.8,0.4-0.8,1c0,0.6,0.3,0.9,0.8,1c0.2,0,0.5,0,0.7,0
		C154.5,336.8,157.4,336.8,160.2,336.8z M160.4,350c-1.9,0-3.9,0-5.8,0c-1.1,0-2.2,0-3.3,0c-0.7,0-1.1,0.4-1.1,1c0,0.6,0.4,1,1.1,1
		c0.1,0,0.3,0,0.4,0c5.8,0,11.5,0,17.3,0c0.2,0,0.6,0.1,0.7-0.1c0.3-0.2,0.6-0.5,0.7-0.8c0.1-0.3-0.1-0.7-0.3-0.9
		c-0.2-0.2-0.6-0.3-0.9-0.3C166.2,350,163.3,350,160.4,350z M160.3,331.7c2.2,0,4.5,0,6.7,0c0.8,0,1.5,0,2.3,0c0.7,0,1.1-0.4,1.1-1
		c0-0.6-0.4-1-1.1-1c-0.1,0-0.3,0-0.4,0c-5.8,0-11.5,0-17.3,0c-0.2,0-0.4,0-0.6,0c-0.6,0.1-0.9,0.5-0.9,1.1c0.1,0.6,0.4,0.9,1,0.9
		c0.2,0,0.4,0,0.5,0C154.6,331.7,157.4,331.7,160.3,331.7z M160.4,339.9c-2.6,0-5.2,0-7.7,0c-0.5,0-1,0-1.5,0c-0.6,0-1,0.5-1,1
		c0,0.6,0.4,1,1,1c0.2,0,0.3,0,0.5,0c5.8,0,11.6,0,17.4,0c0.2,0,0.4,0,0.5,0c0.6-0.1,0.9-0.4,0.9-1c0-0.6-0.3-0.9-0.9-1
		c-0.2,0-0.4,0-0.6,0C166.1,339.9,163.2,339.9,160.4,339.9z M160.3,347c2.9,0,5.8,0,8.6,0c0.2,0,0.5,0,0.7,0
		c0.5-0.1,0.8-0.4,0.8-0.9c0-0.5-0.2-0.9-0.7-1c-0.2-0.1-0.4-0.1-0.7-0.1c-5.8,0-11.7,0-17.5,0c-0.2,0-0.6,0-0.7,0.1
		c-0.3,0.3-0.6,0.6-0.6,1c-0.1,0.5,0.3,0.8,0.7,0.9c0.2,0.1,0.5,0,0.7,0C154.5,347,157.4,347,160.3,347z M158.6,323.4
		c-0.2-1.4-0.4-1.8-1-1.8c-0.2,0-0.6,0.1-0.7,0.2c-0.2,0.5-0.4,1-0.6,1.6c-0.6,0-1.6-0.1-1.6,1c-0.1,1.2,1,1.1,1.8,1.1
		c0.1,1.4,0.4,1.8,1,1.8c1.2,0,1-1,1.1-1.8c1.5-0.3,1.9-0.5,1.8-1.2C160.3,323.8,160,323.6,158.6,323.4z M146.2,336.8
		C146.2,336.8,146.2,336.8,146.2,336.8c0.2,0,0.5,0,0.7,0c0.6-0.1,1-0.5,0.9-1c0-0.6-0.4-0.9-0.9-1c-0.5,0-1,0-1.6,0
		c-0.5,0.1-0.9,0.4-0.9,1c0,0.6,0.3,0.9,0.9,1C145.6,336.9,145.9,336.8,146.2,336.8z M146.2,350c-0.2,0-0.5,0-0.7,0
		c-0.6,0-1,0.4-1,1c0,0.5,0.4,1,0.9,1.1c0.5,0,1,0,1.5,0c0.6,0,1-0.5,0.9-1c0-0.5-0.4-0.9-1-1C146.6,350,146.4,350,146.2,350z
		 M146.2,331.7c0.2,0,0.5,0,0.7,0c0.6,0,1-0.4,1-1c0-0.5-0.4-1-0.9-1.1c-0.5,0-1,0-1.5,0c-0.6,0-1,0.5-0.9,1c0,0.5,0.4,0.9,1,1
		C145.7,331.7,146,331.7,146.2,331.7z M146.2,341.9C146.2,341.9,146.2,341.9,146.2,341.9c0.2,0,0.4,0,0.6,0c0.6,0,1-0.5,1.1-1
		c0-0.6-0.4-1-1-1c-0.5,0-1,0-1.4,0c-0.6,0.1-0.9,0.4-0.9,1c0,0.6,0.3,0.9,0.9,1C145.7,341.9,145.9,341.9,146.2,341.9z M146.2,347
		C146.2,347,146.2,347,146.2,347c0.2,0,0.5,0,0.7,0c0.6-0.1,1.1-0.5,1-1c0-0.6-0.4-1-1-1c-0.5,0-1,0-1.5,0c-0.5,0.1-0.8,0.5-0.8,1
		c0,0.6,0.3,0.9,0.9,1C145.7,347,145.9,347,146.2,347z"/>
	<path class="st17" d="M123.9,301.9c0.4,0,0.6,0,0.8,0c9,0,17.9,0,26.9,0c2.4,0,3.7,1.3,3.7,3.7c0,3.6,0,7.2,0,10.7
		c0,0.2,0,0.5,0,0.8c-0.4,0-0.6,0-0.9,0c-5.8,0-11.5,0-17.3,0.1c-3.3,0-5.5,2.3-5.5,5.6c0,6.2,0,12.4,0,18.5c0,2.1-1.5,3.6-3.6,3.4
		c-1.5-0.1-2.9-1.4-3-2.9c0-0.3,0-0.6,0-1c0-11.6,0-23.1,0-34.7C125,304.8,124.9,303.3,123.9,301.9z M143,313c2.9,0,5.7,0,8.6,0
		c0.3,0,0.6,0.1,0.8-0.1c0.3-0.2,0.7-0.6,0.7-0.9c0-0.3-0.3-0.7-0.6-1c-0.2-0.1-0.5-0.1-0.8-0.1c-5.8,0-11.6,0-17.4,0
		c-0.2,0-0.5,0-0.7,0.1c-0.5,0.1-0.8,0.5-0.8,1c0,0.5,0.3,0.8,0.8,0.9c0.2,0,0.5,0,0.7,0C137.3,313,140.1,313,143,313z M143,307.9
		c2.9,0,5.7,0,8.6,0c0.2,0,0.5,0,0.7,0c0.5-0.1,0.9-0.4,0.9-1c0-0.6-0.3-0.9-0.9-1c-0.2,0-0.4,0-0.5,0c-5.8,0-11.6,0-17.4,0
		c-0.2,0-0.4,0-0.6,0c-0.5,0.1-0.8,0.5-0.8,1c0,0.5,0.3,0.9,0.8,1c0.2,0,0.5,0,0.7,0C137.2,308,140.1,307.9,143,307.9z M128.9,313.1
		C128.9,313,128.9,313,128.9,313.1c0.2,0,0.5,0,0.7,0c0.6-0.1,1-0.5,1-1c0-0.6-0.3-0.9-0.9-1c-0.5-0.1-1-0.1-1.5,0
		c-0.6,0.1-0.9,0.4-0.9,1c0,0.6,0.3,0.9,0.9,1C128.4,313,128.6,313,128.9,313.1z M128.9,307.9C128.9,307.9,128.9,307.9,128.9,307.9
		c0.2,0,0.4,0,0.6,0c0.6,0,1-0.4,1.1-1c0-0.6-0.4-1-1-1c-0.4,0-0.9,0-1.4,0c-0.6,0-1,0.5-1,1c0,0.6,0.4,1,1,1
		C128.4,308,128.7,307.9,128.9,307.9z"/>
	<path class="st19" d="M132.5,344.9c1.2-1.5,1.1-3.2,1.1-4.9c0-5.7,0-11.4,0-17.1c0-1.9,0.8-2.9,2.6-3.4c1.9-0.5,3.8,0.8,4,2.8
		c0,0.2,0,0.4,0,0.6c0,7.1,0,14.3,0,21.4c0,0.2,0,0.4,0,0.6C137.7,344.9,135.2,344.9,132.5,344.9z"/>
	<path class="st19" d="M150.1,362.3c0.4-1.1,0.7-2.2,1.1-3.3c9.5,0,19.2,0,28.9,0c0.3,1.8-0.9,3.3-2.6,3.3c-9.1,0-18.1,0-27.2,0
		C150.2,362.3,150.1,362.3,150.1,362.3z"/>
	<path class="st19" d="M116.4,305.3c-0.1-1.8,1.4-3.3,3.1-3.3c1.9,0,3.3,1.3,3.4,3.3C120.8,305.3,118.6,305.3,116.4,305.3z"/>
	<path class="st11" d="M160.2,336.8c-2.9,0-5.7,0-8.6,0c-0.2,0-0.5,0-0.7,0c-0.5-0.1-0.8-0.4-0.8-1c0-0.6,0.3-0.9,0.8-1
		c0.2,0,0.5,0,0.7,0c5.8,0,11.5,0,17.3,0c0.2,0,0.5,0,0.7,0c0.5,0.1,0.8,0.4,0.8,1c0,0.6-0.3,0.9-0.8,1c-0.2,0-0.5,0-0.7,0
		C166,336.8,163.1,336.8,160.2,336.8z"/>
	<path class="st11" d="M160.4,350c2.9,0,5.8,0,8.8,0c0.3,0,0.7,0.1,0.9,0.3c0.2,0.2,0.4,0.7,0.3,0.9c-0.1,0.3-0.4,0.6-0.7,0.8
		c-0.2,0.1-0.5,0.1-0.7,0.1c-5.8,0-11.5,0-17.3,0c-0.1,0-0.3,0-0.4,0c-0.7,0-1.1-0.4-1.1-1c0-0.6,0.4-1,1.1-1c1.1,0,2.2,0,3.3,0
		C156.5,350,158.4,350,160.4,350z"/>
	<path class="st11" d="M160.3,331.7c-2.9,0-5.8,0-8.6,0c-0.2,0-0.4,0-0.5,0c-0.6,0-0.9-0.4-1-0.9c0-0.6,0.3-1,0.9-1.1
		c0.2,0,0.4,0,0.6,0c5.8,0,11.5,0,17.3,0c0.1,0,0.3,0,0.4,0c0.7,0,1.1,0.4,1.1,1c0,0.6-0.4,1-1.1,1c-0.8,0-1.5,0-2.3,0
		C164.8,331.7,162.6,331.7,160.3,331.7z"/>
	<path class="st11" d="M160.4,339.9c2.9,0,5.7,0,8.6,0c0.2,0,0.4,0,0.6,0c0.6,0.1,0.9,0.4,0.9,1c0,0.6-0.3,0.9-0.9,1
		c-0.2,0-0.4,0-0.5,0c-5.8,0-11.6,0-17.4,0c-0.2,0-0.3,0-0.5,0c-0.6-0.1-1-0.5-1-1c0-0.6,0.4-1,1-1c0.5,0,1,0,1.5,0
		C155.2,339.9,157.8,339.9,160.4,339.9z"/>
	<path class="st11" d="M160.3,347c-2.9,0-5.7,0-8.6,0c-0.2,0-0.5,0-0.7,0c-0.5-0.1-0.8-0.4-0.7-0.9c0.1-0.4,0.3-0.7,0.6-1
		c0.1-0.1,0.5-0.1,0.7-0.1c5.8,0,11.7,0,17.5,0c0.2,0,0.5,0,0.7,0.1c0.5,0.1,0.7,0.5,0.7,1c0,0.5-0.3,0.8-0.8,0.9
		c-0.2,0-0.5,0-0.7,0C166,347,163.1,347,160.3,347z"/>
	<path class="st11" d="M158.6,323.4c1.4,0.2,1.8,0.4,1.8,1c0,0.7-0.3,0.9-1.8,1.2c-0.1,0.7,0.1,1.7-1.1,1.8c-0.7,0-0.9-0.4-1-1.8
		c-0.8-0.1-1.8,0.1-1.8-1.1c0.1-1.1,1-0.9,1.6-1c0.2-0.6,0.4-1.1,0.6-1.6c0.1-0.2,0.4-0.2,0.7-0.2
		C158.2,321.6,158.4,322,158.6,323.4z"/>
	<path class="st11" d="M146.2,336.8c-0.3,0-0.5,0-0.8,0c-0.6-0.1-0.9-0.5-0.9-1c0-0.5,0.3-0.9,0.9-1c0.5-0.1,1-0.1,1.6,0
		c0.6,0,0.9,0.4,0.9,1c0,0.5-0.4,1-0.9,1C146.7,336.8,146.4,336.8,146.2,336.8C146.2,336.8,146.2,336.8,146.2,336.8z"/>
	<path class="st11" d="M146.2,350c0.2,0,0.5,0,0.7,0c0.6,0,1,0.4,1,1c0,0.5-0.4,1-0.9,1c-0.5,0-1,0-1.5,0c-0.6,0-1-0.5-0.9-1.1
		c0-0.5,0.4-0.9,1-1C145.7,350,146,350,146.2,350z"/>
	<path class="st11" d="M146.2,331.7c-0.2,0-0.5,0-0.7,0c-0.6,0-1-0.4-1-1c0-0.5,0.4-1,0.9-1c0.5,0,1,0,1.5,0c0.6,0,1,0.5,0.9,1.1
		c0,0.5-0.4,0.9-1,1C146.6,331.7,146.4,331.7,146.2,331.7z"/>
	<path class="st11" d="M146.2,341.9c-0.3,0-0.5,0-0.8,0c-0.6-0.1-0.9-0.5-0.9-1c0-0.6,0.3-0.9,0.9-1c0.5,0,0.9,0,1.4,0
		c0.6,0,1,0.5,1,1c0,0.6-0.4,1-1.1,1C146.6,341.9,146.4,341.9,146.2,341.9C146.2,341.9,146.2,341.9,146.2,341.9z"/>
	<path class="st11" d="M146.2,347c-0.2,0-0.5,0-0.7,0c-0.6-0.1-0.9-0.4-0.9-1c0-0.5,0.3-0.9,0.8-1c0.5-0.1,1-0.1,1.5,0
		c0.6,0,0.9,0.4,1,1c0,0.6-0.4,1-1,1C146.6,347,146.4,347,146.2,347C146.2,347,146.2,347,146.2,347z"/>
	<path class="st11" d="M143,313c-2.8,0-5.7,0-8.5,0c-0.2,0-0.5,0-0.7,0c-0.5-0.1-0.8-0.4-0.8-0.9c0-0.5,0.3-0.9,0.8-1
		c0.2-0.1,0.4-0.1,0.7-0.1c5.8,0,11.6,0,17.4,0c0.3,0,0.6,0,0.8,0.1c0.3,0.3,0.7,0.7,0.6,1c0,0.3-0.4,0.7-0.7,0.9
		c-0.2,0.1-0.5,0.1-0.8,0.1C148.7,313,145.8,313,143,313z"/>
	<path class="st11" d="M143,307.9c-2.9,0-5.7,0-8.6,0c-0.2,0-0.5,0-0.7,0c-0.5-0.1-0.8-0.5-0.8-1c0-0.5,0.3-0.9,0.8-1
		c0.2,0,0.4,0,0.6,0c5.8,0,11.6,0,17.4,0c0.2,0,0.4,0,0.5,0c0.6,0.1,0.9,0.5,0.9,1c0,0.5-0.3,0.9-0.9,1c-0.2,0-0.5,0-0.7,0
		C148.7,308,145.9,307.9,143,307.9z"/>
	<path class="st11" d="M128.9,313.1c-0.2,0-0.5,0-0.7,0c-0.6-0.1-0.9-0.4-0.9-1c0-0.6,0.3-0.9,0.9-1c0.5-0.1,1-0.1,1.5,0
		c0.6,0.1,0.9,0.4,0.9,1c0,0.5-0.4,0.9-1,1C129.3,313,129.1,313,128.9,313.1C128.9,313,128.9,313,128.9,313.1z"/>
	<path class="st11" d="M128.9,307.9c-0.2,0-0.5,0-0.7,0c-0.6-0.1-1-0.5-1-1c0-0.6,0.4-1,1-1c0.4,0,0.9,0,1.4,0c0.6,0,1,0.5,1,1
		c0,0.6-0.4,1-1.1,1C129.3,308,129.1,307.9,128.9,307.9C128.9,307.9,128.9,307.9,128.9,307.9z"/>
</g>
<g>
	<path id="XMLID_54_" class="st20" d="M179.5,274.3c0.5,1.9-0.6,3.9-2.5,4.4l-36.9,10c-1.9,0.5-3.9-0.6-4.4-2.5l-12.4-45.5
		c-0.5-1.9,0.6-3.9,2.5-4.4l36.9-10c1.9-0.5,3.9,0.6,4.4,2.5L179.5,274.3z"/>
	
		<rect id="XMLID_53_" x="131" y="234.1" transform="matrix(0.2615 0.9652 -0.9652 0.2615 355.2859 42.1325)" class="st21" width="38.3" height="38.3"/>
	<circle id="XMLID_52_" class="st22" cx="156.6" cy="245" r="9.3"/>
	<polygon id="XMLID_51_" class="st23" points="153.8,272.1 173.6,266.7 170.6,255.4 160.7,245.7 	"/>
	<path id="XMLID_49_" class="st0" d="M184.5,274.6c0,2-1.6,3.6-3.6,3.6h-38.3c-2,0-3.6-1.6-3.6-3.6v-47.2c0-2,1.6-3.6,3.6-3.6h38.3
		c2,0,3.6,1.6,3.6,3.6V274.6z"/>
	<rect id="XMLID_48_" x="142.6" y="227.4" class="st21" width="38.3" height="47.1"/>
	<g>
		<path class="st24" d="M162.5,247.9c2.3,0,4.7,0,7,0c0.7,0,0.9-0.2,0.9-0.8c0-2.8,0-5.7,0-8.5c0-0.2,0-0.5-0.2-0.6
			c-0.9-0.7-1.6-1.6-2.4-2.4c-1.6-1.5-3.1-3.1-4.6-4.6c-0.4-0.4-0.8-0.4-1.3,0c-0.1,0.1-0.2,0.2-0.3,0.3c-2.1,2.1-4.2,4.3-6.3,6.3
			c-0.4,0.4-0.6,0.8-0.6,1.4c0,2.7,0,5.3,0,8c0,0.8,0.1,0.9,0.9,0.9C157.9,247.9,160.2,247.9,162.5,247.9z"/>
		<path class="st24" d="M166.3,250.1c-3.6,0-7.2,0-10.8,0c-0.5,0-0.9,0.2-0.8,0.6c0,0.4,0.4,0.6,0.8,0.6c0.1,0,0.1,0,0.2,0
			c7.1,0,14.2,0,21.2,0c0.2,0,0.3,0,0.5,0c0.3-0.1,0.5-0.3,0.5-0.6c0-0.3-0.2-0.5-0.5-0.5c-0.2,0-0.3,0-0.5,0
			C173.3,250.1,169.8,250.1,166.3,250.1z"/>
		<path class="st24" d="M156.4,256.4c2.7,0,5.4,0,8.1,0c0.2,0,0.3,0,0.5,0c0.4,0,0.6-0.3,0.5-0.7c-0.1-0.5-0.4-0.5-0.8-0.5
			c-5.5,0-11.1,0-16.6,0c-0.2,0-0.3,0-0.5,0c-0.3,0.1-0.5,0.3-0.4,0.6c0,0.3,0.2,0.5,0.5,0.6c0.2,0,0.3,0,0.5,0
			C150.9,256.4,153.7,256.4,156.4,256.4z"/>
		<path class="st24" d="M169.6,261.4c2.5,0,4.9,0,7.4,0c0.7,0,0.9-0.2,0.9-0.6c0-0.4-0.3-0.6-0.9-0.6c0,0-0.1,0-0.1,0
			c-4.8,0-9.6,0-14.4,0c-0.2,0-0.3,0-0.5,0c-0.4,0-0.5,0.3-0.5,0.6c0,0.3,0.2,0.5,0.5,0.6c0.2,0,0.3,0,0.5,0
			C164.9,261.4,167.2,261.4,169.6,261.4z"/>
		<path class="st24" d="M152.8,261.4c1.6,0,3.2,0,4.8,0c0.6,0,0.8-0.2,0.8-0.6c0-0.4-0.3-0.6-0.8-0.6c-3.2,0-6.4,0-9.5,0
			c-0.5,0-0.9,0.3-0.9,0.6c0,0.4,0.3,0.6,0.8,0.6C149.6,261.4,151.2,261.4,152.8,261.4z"/>
		<path class="st24" d="M173.3,255.2c-1.3,0-2.6,0-3.9,0c-0.4,0-0.7,0.2-0.7,0.6c0,0.4,0.3,0.6,0.7,0.6c0.6,0,1.2,0,1.7,0
			c2,0,4,0,6.1,0c0.5,0,0.8-0.2,0.8-0.6c0-0.4-0.3-0.6-0.8-0.6C175.8,255.1,174.6,255.2,173.3,255.2z"/>
		<path class="st24" d="M149.4,250.1c-0.5,0-1.1,0-1.6,0c-0.4,0-0.6,0.2-0.6,0.6c0,0.4,0.2,0.6,0.5,0.6c1.1,0,2.2,0,3.3,0
			c0.4,0,0.5-0.3,0.5-0.7c0-0.4-0.2-0.5-0.6-0.5C150.5,250.1,149.9,250.1,149.4,250.1z"/>
		<path class="st25" d="M162.5,247.9c-2.3,0-4.6,0-6.9,0c-0.8,0-0.9-0.1-0.9-0.9c0-2.7,0-5.3,0-8c0-0.6,0.1-1,0.6-1.4
			c2.1-2.1,4.2-4.2,6.3-6.3c0.1-0.1,0.2-0.2,0.3-0.3c0.4-0.4,0.9-0.4,1.3,0c1.5,1.5,3.1,3.1,4.6,4.6c0.8,0.8,1.6,1.7,2.4,2.4
			c0.2,0.2,0.2,0.4,0.2,0.6c0,2.8,0,5.7,0,8.5c0,0.6-0.2,0.8-0.9,0.8C167.2,247.9,164.9,247.9,162.5,247.9z M162.5,239
			c-2,0-4.1,0-6.1,0c-0.4,0-0.6,0.1-0.6,0.5c0,2.2,0,4.5,0,6.7c0,0.4,0.2,0.5,0.5,0.5c0.7,0,1.5,0,2.2,0c0.4,0,0.6-0.2,0.6-0.6
			c0-1.4,0-2.9,0-4.3c0-0.7,0.1-0.8,0.8-0.8c1.7,0,3.4,0,5.2,0c0.8,0,1,0.2,1,1c0,1.4,0,2.8,0,4.2c0,0.4,0.1,0.6,0.5,0.5
			c0.7,0,1.4,0,2,0c0.5,0,0.6-0.1,0.6-0.6c0-2.1,0-4.3,0-6.4c0-0.5-0.2-0.7-0.7-0.6C166.5,239,164.5,239,162.5,239z M168.2,237.7
			c0,0,0.1-0.1,0.1-0.1c-0.1-0.1-0.3-0.2-0.4-0.3c-1.6-1.5-3.2-3.1-4.7-4.6c-0.6-0.6-0.6-0.6-1.2,0c-0.5,0.5-1,1-1.5,1.5
			c-1.2,1.2-2.4,2.4-3.6,3.6C160.6,237.7,164.4,237.7,168.2,237.7z M162.6,246.7c0.6,0,1.3,0,1.9,0c0.3,0,0.4-0.1,0.3-0.3
			c0-1.3,0-2.6,0-3.8c0-0.3-0.1-0.4-0.4-0.4c-1.3,0-2.5,0-3.8,0c-0.3,0-0.4,0.1-0.4,0.4c0,1.3,0,2.5,0,3.8c0,0.3,0.1,0.4,0.4,0.4
			C161.3,246.7,161.9,246.7,162.6,246.7z"/>
		<path class="st25" d="M156.8,263.8c0.5-0.1,0.9,0,1.4,0.1c0.8,0.1,1.4,0.8,1.4,1.7c0,0.7-0.1,1.4-0.4,2c-0.2,0.4,0,0.5,0.4,0.5
			c0.2,0,0.5,0,0.7,0c0.5,0.1,0.9,0.2,1.2,0.7c0.3,0.5,0.7,0.6,1.3,0.4c0.6-0.2,1.1-0.6,1.5-0.9c0.3-0.2,0.7-0.5,1-0.6
			c0.9-0.4,1.8,0,2.2,0.8c0.2,0.3,0.1,0.6-0.1,0.8c-0.3,0.2-0.5,0.2-0.8,0c-0.7-0.6-0.7-0.6-1.5,0c-0.7,0.5-1.3,0.9-2.1,1.2
			c-1,0.3-1.8,0.1-2.4-0.6c-0.4-0.4-1.8-0.6-2.2-0.4c-0.1,0.1-0.2,0.2-0.3,0.3c-0.2,0.3-0.4,0.7-0.6,1c-0.2,0.3-0.5,0.7-0.9,0.7
			c-0.5-0.1-0.5-0.5-0.7-0.9c0-0.1-0.1-0.3-0.1-0.4c0-0.5-0.3-0.7-0.8-0.6c0,0-0.1,0-0.1,0c-1.2,0-1-0.2-1.4,1
			c0,0.1-0.1,0.2-0.1,0.3c-0.2,0.3-0.4,0.6-0.8,0.4c-0.4-0.1-0.4-0.5-0.4-0.8c0-0.3,0.4-0.7,0.1-1c-0.2-0.2-0.6-0.1-1-0.2
			c-0.8-0.2-1.6-0.3-2.2-0.8c-0.7-0.5-0.8-1.2-0.3-1.9c0.3-0.5,0.8-0.8,1.3-1c1.7-0.9,3.4-1.3,5.3-1.5
			C156,263.9,156.4,263.8,156.8,263.8z M158.5,266.1c0-0.7-0.4-1-1.1-1.1c-0.8,0-1.5,0-2.3,0.1c-1.6,0.3-3.3,0.7-4.7,1.6
			c-0.2,0.1-0.5,0.2-0.4,0.5c0,0.2,0.3,0.3,0.5,0.4c0.8,0.3,1.6,0.4,2.4,0.5c0.3,0,0.4-0.1,0.5-0.3c0.2-0.4,0.4-0.7,0.6-1.1
			c0.5-0.7,1.6-0.9,2.1,0.1c0.2,0.3,0.3,0.7,0.4,1c0.1,0.2,0.1,0.5,0.4,0.5c0.3,0,0.6,0,0.8-0.3
			C158.2,267.4,158.4,266.7,158.5,266.1z M155,268.2c0.1-0.1,0.4,0.1,0.3-0.2c0-0.2-0.1-0.6-0.3-0.6c-0.2,0-0.4,0.3-0.4,0.6
			C154.6,268.3,154.8,268.2,155,268.2z"/>
		<path class="st25" d="M166.3,250.1c3.5,0,7.1,0,10.6,0c0.2,0,0.3,0,0.5,0c0.3,0,0.5,0.2,0.5,0.5c0,0.3-0.1,0.6-0.5,0.6
			c-0.2,0-0.3,0-0.5,0c-7.1,0-14.2,0-21.2,0c-0.1,0-0.1,0-0.2,0c-0.5,0-0.8-0.3-0.8-0.6c0-0.4,0.3-0.6,0.8-0.6
			C159.1,250.1,162.7,250.1,166.3,250.1z"/>
		<path class="st25" d="M156.4,256.4c-2.7,0-5.4,0-8.2,0c-0.2,0-0.3,0-0.5,0c-0.3,0-0.5-0.3-0.5-0.6c0-0.3,0.1-0.5,0.4-0.6
			c0.1,0,0.3,0,0.5,0c5.5,0,11.1,0,16.6,0c0.4,0,0.7,0,0.8,0.5c0.1,0.4-0.1,0.7-0.5,0.7c-0.2,0-0.3,0-0.5,0
			C161.8,256.4,159.1,256.4,156.4,256.4z"/>
		<path class="st25" d="M169.6,261.4c-2.4,0-4.8,0-7.2,0c-0.2,0-0.3,0-0.5,0c-0.3,0-0.5-0.2-0.5-0.6c0-0.3,0.2-0.6,0.5-0.6
			c0.2,0,0.3,0,0.5,0c4.8,0,9.6,0,14.4,0c0,0,0.1,0,0.1,0c0.7,0,0.9,0.2,0.9,0.6c0,0.4-0.2,0.6-0.9,0.6
			C174.5,261.4,172.1,261.4,169.6,261.4z"/>
		<path class="st25" d="M152.8,261.4c-1.6,0-3.2,0-4.7,0c-0.6,0-0.8-0.2-0.8-0.6c0-0.4,0.3-0.6,0.9-0.6c3.2,0,6.4,0,9.5,0
			c0.5,0,0.8,0.2,0.8,0.6c0,0.4-0.2,0.6-0.8,0.6C156,261.4,154.4,261.4,152.8,261.4z"/>
		<path class="st25" d="M173.3,255.2c1.3,0,2.6,0,3.9,0c0.5,0,0.8,0.2,0.8,0.6c0,0.4-0.2,0.6-0.8,0.6c-2,0-4,0-6.1,0
			c-0.6,0-1.2,0-1.7,0c-0.4,0-0.7-0.3-0.7-0.6c0-0.4,0.3-0.6,0.7-0.6C170.6,255.2,171.9,255.2,173.3,255.2z"/>
		<path class="st25" d="M149.4,250.1c0.5,0,1.1,0,1.6,0c0.3,0,0.5,0.1,0.6,0.5c0,0.4-0.1,0.7-0.5,0.7c-1.1,0-2.2,0-3.3,0
			c-0.3,0-0.6-0.2-0.5-0.6c0-0.4,0.2-0.6,0.6-0.6C148.3,250.1,148.9,250.1,149.4,250.1z"/>
		<path class="st24" d="M162.5,239c2,0,4,0,6,0c0.5,0,0.7,0.1,0.7,0.6c0,2.1,0,4.3,0,6.4c0,0.5-0.2,0.6-0.6,0.6c-0.7,0-1.4,0-2,0
			c-0.4,0-0.5-0.1-0.5-0.5c0-1.4,0-2.8,0-4.2c0-0.8-0.2-1-1-1c-1.7,0-3.4,0-5.2,0c-0.7,0-0.8,0.1-0.8,0.8c0,1.4,0,2.9,0,4.3
			c0,0.4-0.1,0.6-0.6,0.6c-0.7,0-1.5,0-2.2,0c-0.4,0-0.5-0.1-0.5-0.5c0-2.2,0-4.5,0-6.7c0-0.4,0.2-0.5,0.6-0.5
			C158.4,239,160.5,239,162.5,239z"/>
		<path class="st26" d="M168.2,237.7c-3.8,0-7.6,0-11.4,0c1.2-1.2,2.4-2.4,3.6-3.6c0.5-0.5,1-1,1.5-1.5c0.6-0.6,0.6-0.6,1.2,0
			c1.6,1.6,3.1,3.1,4.7,4.6c0.1,0.1,0.3,0.2,0.4,0.3C168.3,237.7,168.2,237.7,168.2,237.7z"/>
		<path class="st26" d="M162.6,246.7c-0.6,0-1.3,0-1.9,0c-0.3,0-0.4-0.1-0.4-0.4c0-1.3,0-2.5,0-3.8c0-0.3,0.1-0.4,0.4-0.4
			c1.3,0,2.5,0,3.8,0c0.3,0,0.4,0.1,0.4,0.4c0,1.3,0,2.6,0,3.8c0,0.3-0.1,0.3-0.3,0.3C163.8,246.7,163.2,246.7,162.6,246.7z"/>
		<path class="st24" d="M155,268.2c-0.2-0.1-0.4,0.1-0.4-0.2c0-0.2,0.2-0.6,0.4-0.6c0.3,0,0.3,0.3,0.3,0.6
			C155.4,268.3,155.1,268.2,155,268.2z"/>
	</g>
</g>
<g>
	<path class="st11" d="M202.9,237.5c0-10.3,0-20.6,0-31c0.2-0.2,0.5-0.5,0.9-0.5c0.7,0.2,0.8,0.4,0.8,1.2c0,9.7,0,19.4,0,29.2
		c0,0.9,0,0.9,0.9,0.9c11.6,0,23.2,0,34.7,0c1.2,0,1.1,0,1.2-1.2c0-0.5-0.2-0.6-0.6-0.6c-5.2,0-10.5,0-15.7,0c-5.8,0-11.7,0-17.5,0
		c-0.5,0-0.9-0.1-1.1-0.6c-0.1-0.2,0-0.4,0-0.7c0-12,0-23.9,0-35.9c0-0.1,0-0.3,0-0.4c0-0.5,0.3-0.8,0.8-0.8c0.2,0,0.3,0,0.5,0
		c16.1,0,32.2,0,48.3,0c0.1,0,0.2,0,0.3,0c0.7,0,1,0.3,1,1c0,7.6,0,15.3,0,22.9c0,0.6-0.2,0.9-0.8,1c-0.7-0.2-0.9-0.3-0.9-1.2
		c0-7.1,0-14.2,0-21.3c0-0.1,0-0.3,0-0.4c0-0.2-0.1-0.3-0.3-0.3c-1.1,0-2.2,0-3.3,0c-0.1,0-0.3,0-0.4,0c-14.3,0-28.7,0-43,0
		c-0.5,0-0.5,0.2-0.5,0.6c0,11.3,0,22.6,0,33.9c0,0.5,0.2,0.5,0.6,0.5c3.1,0,6.3,0,9.4,0c7.6,0,15.2,0,22.8,0c0.4,0,0.6-0.1,0.5-0.5
		c0-0.9,0-1.9,0-2.8c0-0.3,0-0.4-0.4-0.4c-1.8,0-2.4-0.7-2.3-2.5c0-0.8-0.2-1.3-0.8-1.8c-1.3-1.1-1.3-2.3,0-3.5
		c0.6-0.5,0.8-1,0.7-1.8c-0.1-1.7,0.7-2.5,2.5-2.5c0.1,0,0.3,0,0.4,0c0.4,0,0.8-0.1,1.1-0.5c1.6-1.7,2.5-1.7,4.1,0
		c0.3,0.3,0.7,0.5,1.2,0.5c0.2,0,0.5,0,0.7,0c1.4,0,2.2,0.7,2.1,2.1c-0.1,1.2,0.3,1.9,1.2,2.6c0,0,0.1,0.1,0.1,0.1
		c0.6,0.8,0.6,1.7,0,2.5c-1,0.7-1.6,1.6-1.2,2.9c0,0.1,0,0.2,0,0.3c-0.1,1-0.7,1.6-1.8,1.6c-0.2,0-0.4,0-0.6,0c-0.3,0-0.4,0-0.4,0.4
		c0,1,0,2,0,3c0,0.3,0.1,0.3,0.4,0.3c1.2,0,2.4,0,3.7,0c1,0,2,0,3,0c0.5,0,0.6-0.1,0.6-0.6c0-2.4,0-4.8,0-7.2c0-0.7,0.2-0.9,0.9-1.1
		c0.7,0.2,0.8,0.3,0.8,1.1c0,2.8,0,5.6,0,8.4c0,0.9-0.3,1.1-1.1,1.1c-2.4,0-4.7,0-7.1,0c-1.2,0-1.1,0-1.2,1.2c0,0.4,0.1,0.6,0.6,0.6
		c3.3,0,6.6,0,9.9,0c0.5,0,0.7-0.1,0.7-0.7c0-13.5,0-27,0-40.6c0-0.5-0.1-0.7-0.6-0.7c-17.7,0-35.5,0-53.2,0c-0.5,0-0.7,0.1-0.6,0.6
		c0,2.1,0,4.3,0,6.4c0,0.7-0.1,0.9-0.8,1.1c-0.4,0-0.6-0.2-0.9-0.5c0-2.6,0-5.3,0-7.9c0.6-1.2,1.6-1.4,2.9-1.4c17.5,0,35.1,0,52.6,0
		c1.7,0,2.4,0.7,2.4,2.4c0,13.5,0,27,0,40.6c0,1.6-0.7,2.4-2.4,2.4c-3.3,0-6.6,0-9.9,0c-0.4,0-0.5,0.1-0.5,0.5c0,1,0,2,0,3.1
		c0,1-0.6,1.4-1.4,0.9c-1.3-0.8-2.4-0.8-3.7,0c-0.9,0.5-1.4,0.1-1.5-0.9c0-1,0-2,0-2.9c0-0.5-0.2-0.6-0.6-0.6c-11.7,0-23.4,0-35.1,0
		C204.4,239,203.5,238.7,202.9,237.5z"/>
	<path class="st27" d="M247.7,228.4c0.3,0,0.4,0,0.6,0c0.7,0,0.8,0,0.7-0.8c-0.1-1.3,0.3-2.2,1.2-3c0.6-0.5,0.6-0.6,0-1.1
		c-1-0.8-1.4-1.7-1.2-3c0.1-0.8,0-0.9-0.8-0.8c-1.3,0.1-2.2-0.3-3-1.3c-0.5-0.6-0.6-0.6-1.1,0c-0.8,1-1.8,1.4-3,1.3
		c-0.8-0.1-0.8,0-0.8,0.8c0.1,1.2-0.3,2.2-1.3,3c-0.6,0.5-0.6,0.6,0,1.1c0.9,0.8,1.4,1.7,1.2,2.9c-0.1,0.9,0,1,0.9,0.8
		c1.2-0.1,2.1,0.2,2.8,1.2c0.7,0.8,0.5,0.9,1.3,0C246,228.7,246.7,228.2,247.7,228.4z"/>
	<path class="st27" d="M243.1,231.2c0,0.1-0.1,0.2-0.1,0.2c0,3.2,0,6.5,0,9.7c0,0.4,0.2,0.4,0.4,0.2c0.7-0.5,1.5-0.6,2.2,0
		c0.4,0.3,0.5,0.2,0.5-0.3c0-3.1,0-6.2,0-9.3c0-0.1,0.1-0.3-0.1-0.4C244.8,232.1,244.4,232.1,243.1,231.2z"/>
	<path class="st28" d="M252,222.8c0,0-0.1-0.1-0.1-0.1c-0.9-0.7-1.3-1.4-1.2-2.6c0.1-1.3-0.8-2-2.1-2.1c-0.2,0-0.5,0-0.7,0
		c-0.5,0-0.8-0.1-1.2-0.5c-1.6-1.7-2.5-1.7-4.1,0c-0.3,0.3-0.7,0.5-1.1,0.5c-0.1,0-0.3,0-0.4,0c-1.7-0.1-2.6,0.7-2.5,2.5
		c0,0.8-0.2,1.3-0.7,1.8c-1.3,1.1-1.3,2.3,0,3.5c0.6,0.5,0.8,1,0.8,1.8c-0.1,1.7,0.6,2.4,2.3,2.5c0.3,0,0.4,0.1,0.4,0.4
		c0,0.9,0,1.9,0,2.8c0,0.5-0.1,0.5-0.5,0.5c-7.6,0-15.2,0-22.8,0c-3.1,0-6.3,0-9.4,0c-0.4,0-0.6-0.1-0.6-0.5c0-11.3,0-22.6,0-33.9
		c0-0.4,0-0.6,0.5-0.6c14.3,0,28.7,0,43,0c0.1,0,0.3,0,0.4,0c0,7.7,0,15.4,0,23.1C252,222.2,252,222.5,252,222.8z M231.8,211.1
		c5.9,0,11.7,0,17.6,0c0.2,0,0.4,0,0.6,0c0.5-0.1,0.7-0.4,0.7-0.9c0-0.5-0.3-0.7-0.7-0.8c-0.2,0-0.3,0-0.5,0c-11.7,0-23.3,0-35,0
		c-0.2,0-0.3,0-0.5,0c-0.4,0-0.6,0.2-0.7,0.6c-0.1,0.3,0,0.7,0.2,0.9c0.2,0.2,0.6,0.2,0.9,0.2C220.1,211.1,225.9,211.1,231.8,211.1z
		 M228.5,205.9c4.7,0,9.4,0,14.1,0c0.2,0,0.4,0,0.6,0c0.4-0.1,0.7-0.3,0.7-0.8c0-0.4-0.1-0.7-0.6-0.9c-0.2-0.1-0.4-0.1-0.7-0.1
		c-9.5,0-18.9,0-28.4,0c-0.2,0-0.4,0-0.6,0c-0.3,0.1-0.5,0.3-0.6,0.6c-0.1,0.3,0,0.6,0.3,0.9c0.2,0.2,0.6,0.2,0.9,0.2
		C219,205.9,223.8,205.9,228.5,205.9z M216.1,226.6c0.2,0.5,0.4,0.9,0.7,1.3c0.6,1,1.8,1.4,2.8,0.7c0.6-0.4,0.9-0.5,1.4,0
		c0.3,0.2,0.7,0.3,1,0.3c1.1,0.1,2.3,0.1,3.4,0.1c1,0,2,0,3,0c0.5,0,0.8-0.4,0.8-0.8c0-0.5-0.3-0.8-0.8-0.8c-0.1,0-0.3,0-0.5,0
		c-1.7,0-3.4,0-5.1,0c-0.9,0-1.5-0.2-1.7-1.2c-0.1-0.3-0.3-0.6-0.7-0.6c-0.4,0-0.7,0.1-0.9,0.5c-0.2,0.4-0.3,0.8-0.6,1.1
		c-0.4,0.3-0.6,0.3-0.8-0.1c-0.2-0.5-0.4-1-0.6-1.6c-0.4-1.5-0.5-3-0.7-4.5c-0.1-0.7-0.3-0.9-0.8-0.9c-0.5,0-0.8,0.3-0.9,1
		c0,0.6-0.1,1.2-0.1,1.9c-0.2,2.2-0.7,4.4-1.4,6.5c-0.1,0.3-0.2,0.6,0.1,0.9c0.3,0.2,0.6,0.3,0.9,0.2c0.3-0.1,0.5-0.3,0.6-0.7
		C215.5,228.6,215.8,227.6,216.1,226.6z M224.1,216.3c3.2,0,6.5,0,9.7,0c0.2,0,0.4,0,0.6,0c0.4-0.1,0.7-0.4,0.7-0.8
		c0-0.5-0.3-0.7-0.7-0.8c-0.2,0-0.4,0-0.6,0c-6.5,0-12.9,0-19.4,0c-0.2,0-0.4,0-0.6,0c-0.4,0-0.6,0.3-0.7,0.6
		c-0.1,0.4,0,0.7,0.3,0.9c0.2,0.2,0.5,0.2,0.8,0.2C217.5,216.3,220.8,216.3,224.1,216.3z"/>
	<path class="st17" d="M203.8,206.1c0-0.9,0-1.8,0-2.6c0.7-0.2,0.8-0.4,0.8-1.1c0-2.1,0-4.3,0-6.4c0-0.5,0.2-0.6,0.6-0.6
		c17.7,0,35.5,0,53.2,0c0.5,0,0.6,0.2,0.6,0.7c0,13.5,0,27,0,40.6c0,0.6-0.2,0.7-0.7,0.7c-3.3,0-6.6,0-9.9,0c-0.5,0-0.6-0.2-0.6-0.6
		c0-1.2,0-1.2,1.2-1.2c2.4,0,4.7,0,7.1,0c0.9,0,1.1-0.3,1.1-1.1c0-2.8,0-5.6,0-8.4c0-0.7-0.1-0.9-0.8-1.1c0-1,0-1.9,0-2.9
		c0.6-0.1,0.8-0.4,0.8-1c0-7.6,0-15.3,0-22.9c0-0.7-0.3-1-1-1c-0.1,0-0.2,0-0.3,0c-16.1,0-32.2,0-48.3,0c-0.2,0-0.3,0-0.5,0
		c-0.5,0-0.8,0.3-0.8,0.8c0,0.1,0,0.3,0,0.4c0,12,0,23.9,0,35.9c0,0.2,0,0.5,0,0.7c0.2,0.5,0.6,0.6,1.1,0.6c5.8,0,11.7,0,17.5,0
		c5.2,0,10.5,0,15.7,0c0.5,0,0.7,0.1,0.6,0.6c0,1.2,0,1.2-1.2,1.2c-11.6,0-23.2,0-34.7,0c-0.9,0-0.9,0-0.9-0.9c0-9.7,0-19.4,0-29.2
		C204.6,206.4,204.5,206.3,203.8,206.1z"/>
	<path class="st29" d="M256.5,222.1c0,1,0,1.9,0,2.9c-0.7,0.1-0.9,0.3-0.9,1.1c0,2.4,0,4.8,0,7.2c0,0.5-0.2,0.6-0.6,0.6
		c-1,0-2,0-3,0c0-2.8,0-5.7,0-8.5c0.6-0.8,0.6-1.7,0-2.5c0-0.3,0-0.6,0-0.8c0-7.7,0-15.4,0-23.1c1.1,0,2.2,0,3.3,0
		c0.3,0,0.3,0.1,0.3,0.3c0,0.1,0,0.3,0,0.4c0,7.1,0,14.2,0,21.3C255.6,221.8,255.8,222,256.5,222.1z"/>
	<path class="st30" d="M247.7,228.4c-1-0.2-1.7,0.4-2.4,1.2c-0.7,0.9-0.6,0.8-1.3,0c-0.7-0.9-1.6-1.3-2.8-1.2
		c-0.9,0.1-1,0.1-0.9-0.8c0.1-1.2-0.3-2.2-1.2-2.9c-0.6-0.5-0.6-0.6,0-1.1c1-0.8,1.4-1.8,1.3-3c-0.1-0.8,0-0.8,0.8-0.8
		c1.3,0.1,2.2-0.3,3-1.3c0.5-0.6,0.6-0.6,1.1,0c0.8,1,1.8,1.4,3,1.3c0.8-0.1,0.9,0,0.8,0.8c-0.1,1.2,0.3,2.2,1.2,3
		c0.6,0.5,0.6,0.6,0,1.1c-1,0.8-1.4,1.8-1.2,3c0.1,0.7,0,0.8-0.7,0.8C248.1,228.4,248,228.4,247.7,228.4z M244.7,227.4
		c1.8,0,3.3-1.5,3.3-3.3c0-1.8-1.5-3.3-3.3-3.3c-1.8,0-3.3,1.5-3.3,3.4C241.4,225.9,242.9,227.4,244.7,227.4z"/>
	<path class="st30" d="M243.1,231.2c1.3,1,1.7,1,3,0.1c0.1,0.1,0.1,0.3,0.1,0.4c0,3.1,0,6.2,0,9.3c0,0.5-0.1,0.6-0.5,0.3
		c-0.8-0.5-1.5-0.4-2.2,0c-0.3,0.2-0.4,0.2-0.4-0.2c0-3.2,0-6.5,0-9.7C243.1,231.3,243.1,231.3,243.1,231.2z"/>
	<path class="st28" d="M252,225.3c0,2.8,0,5.7,0,8.5c-1.2,0-2.4,0-3.7,0c-0.3,0-0.4,0-0.4-0.3c0-1,0-2,0-3c0-0.3,0.1-0.4,0.4-0.4
		c0.2,0,0.4,0,0.6,0c1,0,1.6-0.6,1.8-1.6c0-0.1,0-0.2,0-0.3C250.4,226.9,251,226,252,225.3z"/>
	<path class="st11" d="M231.8,211.1c-5.9,0-11.7,0-17.6,0c-0.3,0-0.6,0-0.9-0.2c-0.3-0.3-0.3-0.6-0.2-0.9c0.1-0.3,0.3-0.5,0.7-0.6
		c0.2,0,0.3,0,0.5,0c11.7,0,23.3,0,35,0c0.2,0,0.3,0,0.5,0c0.4,0.1,0.7,0.3,0.7,0.8c0,0.5-0.2,0.8-0.7,0.9c-0.2,0-0.4,0-0.6,0
		C243.5,211.1,237.7,211.1,231.8,211.1z"/>
	<path class="st11" d="M228.5,205.9c-4.8,0-9.5,0-14.3,0c-0.3,0-0.6,0-0.9-0.2c-0.3-0.2-0.3-0.5-0.3-0.9c0.1-0.3,0.3-0.5,0.6-0.6
		c0.2,0,0.4,0,0.6,0c9.5,0,18.9,0,28.4,0c0.2,0,0.5,0,0.7,0.1c0.4,0.1,0.6,0.4,0.6,0.9c0,0.4-0.2,0.7-0.7,0.8c-0.2,0-0.4,0-0.6,0
		C237.9,205.9,233.2,205.9,228.5,205.9z"/>
	<path class="st11" d="M216.1,226.6c-0.3,1.1-0.5,2.1-0.9,3c-0.1,0.3-0.3,0.6-0.6,0.7c-0.3,0.1-0.6,0-0.9-0.2
		c-0.3-0.3-0.2-0.6-0.1-0.9c0.8-2.1,1.2-4.3,1.4-6.5c0.1-0.6,0.1-1.2,0.1-1.9c0.1-0.6,0.3-0.9,0.9-1c0.5,0,0.7,0.2,0.8,0.9
		c0.2,1.5,0.3,3,0.7,4.5c0.1,0.5,0.3,1.1,0.6,1.6c0.2,0.4,0.4,0.5,0.8,0.1c0.3-0.3,0.5-0.7,0.6-1.1c0.2-0.4,0.5-0.5,0.9-0.5
		c0.4,0,0.6,0.2,0.7,0.6c0.2,1,0.8,1.2,1.7,1.2c1.7,0,3.4,0,5.1,0c0.2,0,0.3,0,0.5,0c0.5,0,0.8,0.3,0.8,0.8c0,0.5-0.3,0.8-0.8,0.8
		c-1,0-2,0-3,0c-1.1,0-2.3,0.1-3.4-0.1c-0.4,0-0.8-0.1-1-0.3c-0.5-0.5-0.9-0.4-1.4,0c-0.9,0.7-2.1,0.4-2.8-0.7
		C216.5,227.5,216.3,227.1,216.1,226.6z"/>
	<path class="st11" d="M224.1,216.3c-3.3,0-6.6,0-9.9,0c-0.3,0-0.6,0-0.8-0.2c-0.3-0.2-0.4-0.6-0.3-0.9c0.1-0.3,0.3-0.6,0.7-0.6
		c0.2,0,0.4,0,0.6,0c6.5,0,12.9,0,19.4,0c0.2,0,0.4,0,0.6,0c0.5,0.1,0.7,0.4,0.7,0.8c0,0.5-0.2,0.7-0.7,0.8c-0.2,0-0.4,0-0.6,0
		C230.6,216.3,227.4,216.3,224.1,216.3z"/>
	<path class="st11" d="M244.7,227.4c-1.8,0-3.3-1.5-3.3-3.3c0-1.8,1.5-3.4,3.3-3.4c1.8,0,3.3,1.5,3.3,3.3
		C248,225.8,246.5,227.4,244.7,227.4z M244.7,225.7c0.9,0,1.6-0.8,1.6-1.6c0-0.9-0.8-1.6-1.6-1.6c-0.9,0-1.6,0.8-1.6,1.6
		C243.1,225,243.8,225.7,244.7,225.7z"/>
	<path class="st30" d="M244.7,225.7c-0.9,0-1.6-0.7-1.6-1.6c0-0.9,0.7-1.6,1.6-1.6c0.9,0,1.6,0.7,1.6,1.6
		C246.3,224.9,245.6,225.7,244.7,225.7z"/>
</g>
</svg>
